<svg width="393" height="852" viewBox="0 0 393 852" fill="none" xmlns="http://www.w3.org/2000/svg">
<g clip-path="url(#clip0_951_1042)">
<rect width="393" height="852" fill="#ED1C24"/>
<path d="M458.817 172.247C459.528 220.859 409.749 240.024 368.507 232.479C302.893 220.475 242.22 174.666 202.577 122.251C192.628 128.85 183.665 136.823 175.953 145.945C145.013 181.815 141.814 214.928 145.354 259.649C188.401 248.586 216.475 241.569 262.071 251.882C307.525 262.172 352.076 289.025 377.479 328.937C389.44 347.717 395.12 370.286 389.514 392.259C384.643 411.585 372.152 428.086 354.886 438.004C328.564 453.036 289.092 453.102 260.845 444.554C198.019 425.549 155.237 382.463 123.838 327.484C120.704 330.479 117.686 333.612 114.793 336.825C80.1337 376.14 76.5454 415.768 79.2609 465.297C123.977 451.957 176.802 449.737 221.306 463.21C375.552 509.95 342.432 695.743 176.361 644.706C124.814 628.865 77.1521 575.565 53.8042 527.613C50.7878 529.877 47.8594 532.239 45.0238 534.72C15.1366 561.213 9.78083 587.788 7.70455 625.425C35.3914 622.589 59.8925 623.364 89.0467 632.185C150.193 650.706 251.077 712.337 232.777 788.608C228.45 806.634 211.524 819.611 195.385 828.128C99.1218 856.074 13.2535 763.522 -21.9429 683.586C-88.412 744.251 -56.3038 812.839 4.34245 865.694C15.0612 875.043 36.1455 882.842 44.2875 894.581C47.2326 898.763 48.3585 903.945 47.4084 908.942C44.8187 922.299 31.3823 929.432 18.5379 925.69C-2.02314 919.545 -19.8329 904.139 -35.6179 889.998C-115.785 818.221 -135.264 702.439 -34.9867 639.431C-36.647 563.052 -24.4231 529.479 38.8508 483.585C22.5275 415.064 44.8777 324.834 105.702 284.5C88.0236 193.338 105.638 141.069 179.601 83.7696C178.078 80.291 176.609 76.7868 175.197 73.2625C157.077 27.6464 167.258 -21.2958 207.683 -50.7487C249.278 -81.0561 307.114 -82.0033 354.657 -66.7811C376.673 -59.734 374.644 -26.9811 352.402 -24.0925C345.14 -23.437 335.757 -25.3622 328.671 -26.5501C256.106 -38.7143 190.666 -22.3243 219.804 65.1286C236.791 60.4393 251.432 57.266 269.105 55.6879C339.322 49.4162 452.758 90.7342 458.817 172.247ZM142.443 786.882C168.086 793.245 191.789 792.535 190.047 760.097C163.147 702.252 81.5 665.751 19.9497 667.609C23.1522 677.493 24.1643 681.224 29.3769 690.306C56.1404 733.108 91.5972 774.244 142.443 786.882ZM277.286 567.231C251.686 492.272 156.479 492.769 92.348 507.308L105.424 528.818C131.835 566.206 161.846 597.984 208.908 606.651C240.438 612.459 277.189 607.599 277.286 567.231ZM331.512 400.628C343.329 396.005 346.948 379.411 346.828 367.013C322.156 301.015 225.715 278.411 164.317 301.645C163.23 302.063 162.148 302.481 161.074 302.938C164.487 309.005 168.823 317.198 172.464 322.883C200.413 363.822 269.455 424.927 331.512 400.628ZM388.82 190.62C402.913 191.766 414.342 184.374 413.681 169.26C413.576 167.076 413.422 164.89 413.215 162.723C379.316 107.163 303.106 92.6477 243.206 103.483L253.613 115.276C286.509 151.332 338.917 186.557 388.82 190.62Z" fill="#FD3F47" fill-opacity="0.55"/>
</g>
<defs>
<clipPath id="clip0_951_1042">
<rect width="393" height="852" fill="white"/>
</clipPath>
</defs>
</svg>
