<svg width="393" height="852" viewBox="0 0 393 852" fill="none" xmlns="http://www.w3.org/2000/svg">
<g clip-path="url(#clip0_956_1147)">
<rect width="393" height="852" fill="#0A0E1A"/>
<rect width="393" height="852" fill="#ED1C24"/>
<path d="M172.927 -82.6688C252.172 -67.2714 306.208 -13.8274 320.973 65.7142C329.989 114.3 310.74 186.562 253.268 194.166C213.311 199.45 156.774 123.221 208.566 108.275C234.95 100.661 267.014 128.289 281.247 147.114C322.053 201.088 309.358 274.558 266.432 324.018C228.521 367.704 160.432 375.758 112.835 342.623C83.7862 322.401 57.4581 269.621 95.6539 243.377C154.729 202.785 174.307 324.304 153.22 364.26C76.9697 508.745 -122.924 394.767 -178.718 292.612" stroke="#FD3F47" stroke-opacity="0.55" stroke-width="50.9017" stroke-miterlimit="1.5" stroke-linecap="round" stroke-linejoin="round"/>
</g>
<defs>
<clipPath id="clip0_956_1147">
<rect width="393" height="852" fill="white"/>
</clipPath>
</defs>
</svg>
