<svg width="393" height="852" viewBox="0 0 393 852" fill="none" xmlns="http://www.w3.org/2000/svg">
<g clip-path="url(#clip0_1706_1381)">
<rect width="393" height="852" fill="#0A0E1A"/>
<rect width="393" height="852" fill="#ED1C24"/>
<path d="M-71.4609 570.007C-71.4609 570.007 -86.1026 486.806 -37.3676 415.264C12.1677 342.547 124.989 281.374 173.719 339.555C199.932 370.853 202.858 407.886 170.536 442.709C138.323 477.415 97.391 481.217 61.7503 461.183C-14.5558 418.292 23.4941 280.229 92.0384 205.534C160.721 130.688 297.328 79.3234 346.236 152.153C369.111 186.217 370.326 227.436 337.288 261.571C304.903 295.032 263.141 300.382 228.501 280.046C154.598 236.659 181.148 97.0301 253.984 29.6165C301.542 -14.4006 350.363 -28.8369 406.222 -15.4" stroke="#FD3F47" stroke-opacity="0.55" stroke-width="45" stroke-linecap="round"/>
</g>
<defs>
<clipPath id="clip0_1706_1381">
<rect width="393" height="852" fill="white"/>
</clipPath>
</defs>
</svg>
