<svg width="393" height="852" viewBox="0 0 393 852" fill="none" xmlns="http://www.w3.org/2000/svg">
<g clip-path="url(#clip0_1717_295)">
<rect width="393" height="852" fill="#0A0E1A"/>
<rect width="393" height="852" fill="#ED1C24"/>
<path d="M-47.833 229.891C-23.4838 206.628 9.69983 222.874 25.2994 247.371C50.1168 286.345 55.4414 338.736 47.5039 383.561C55.5415 385.504 63.8126 386.298 72.0783 385.917C104.869 384.728 123.191 370.752 144.232 347.885C118.333 331.238 101.543 320.288 85.2979 292.277C69.1081 264.348 61.7539 229.074 70.0522 197.37C73.9532 182.449 82.7379 168.931 96.5366 161.426C108.645 154.795 122.908 153.364 136.079 157.458C156.113 163.742 174.744 183.754 183.711 202.125C203.661 242.981 201.938 285.004 188.813 326.851C191.811 327.031 194.824 327.087 197.818 327.042C234.111 326.119 255.924 309.271 279.794 284.557C251.954 268.136 225.94 242.358 211.813 213.413C162.877 113.069 272.823 42.3531 325.148 150.726C341.39 184.364 336.781 233.678 323.431 268.126C326.002 268.59 328.582 268.964 331.177 269.235C358.711 271.93 374.728 262.129 394.818 245.451C380.334 232.728 369.184 219.922 359.927 200.962C340.524 161.187 324.289 80.9227 371.641 54.2819C382.832 47.9863 397.397 50.467 409.325 54.6496C468.868 90.3641 462.327 177.57 438.319 233.103C500.439 238.274 520.14 189.656 518.407 133.958C518.103 124.111 512.13 109.731 514.255 100.066C514.991 96.6001 517.093 93.5868 520.078 91.7149C528.08 86.7375 538.032 90.2005 542.183 98.4855C548.75 111.821 549.318 128.122 549.575 142.8C550.897 217.324 501.282 281.764 422.043 260.53C384.041 297.358 361.234 306.968 308.12 296.461C281.016 337.032 224.669 368.194 175.532 356.311C137.57 408.237 102.729 423.918 38.7873 413.357C37.7386 415.769 36.6509 418.166 35.5267 420.544C20.9002 451.236 -8.74767 469.125 -42.7489 462.474C-77.7351 455.632 -105.466 426.71 -120.135 395.396C-126.929 380.897 -109.341 366.496 -97.3951 376.429C-93.641 379.807 -90.198 385.479 -87.463 389.637C-59.4515 432.215 -20.2977 457.723 10.3815 401.725C-0.00263468 395.309 -8.51253 389.369 -17.6406 381.138C-53.9067 348.438 -86.3691 271.371 -47.833 229.891ZM413.323 100.965C404.472 84.9455 392.945 73.2449 377.294 89.412C360.595 130.324 380.527 188.98 410.469 219.359C413.979 213.076 415.397 210.804 417.553 203.879C426.678 170.123 430.861 132.738 413.323 100.965ZM238.258 135.979C212.256 184.293 257.365 232.404 294.962 258.119L299.723 241.345C306.265 210.319 308.262 180.109 290.491 152.128C278.585 133.381 258.802 117.009 238.258 135.979ZM128.112 186.936C120.197 183.113 110.066 189.094 103.828 194.997C81.9393 238.618 115.897 298.238 156.622 318.469C157.346 318.824 158.069 319.177 158.807 319.507C160.279 314.916 162.397 308.854 163.568 304.326C171.188 270.847 169.688 206.999 128.112 186.936ZM-5.52472 256.778C-11.5826 249.082 -20.7223 246.761 -28.0849 254.218C-29.1448 255.3 -30.1815 256.408 -31.1845 257.535C-43.4256 300.924 -14.8918 346.461 18.8315 371.772L19.9164 360.931C22.7263 327.24 15.9229 284.032 -5.52472 256.778Z" fill="#F62F37"/>
</g>
<defs>
<clipPath id="clip0_1717_295">
<rect width="393" height="852" fill="white"/>
</clipPath>
</defs>
</svg>
