<svg width="207" height="254" viewBox="0 0 207 254" fill="none" xmlns="http://www.w3.org/2000/svg">
<mask id="path-1-inside-1_136_180" fill="white">
<path fill-rule="evenodd" clip-rule="evenodd" d="M168.789 136.209C173.239 132.715 179.18 130.398 186.31 132.103C189.88 132.957 192.49 134.618 194.293 136.813C196.085 138.994 197.007 141.61 197.374 144.265C198.103 149.532 196.69 155.2 195.197 158.808L195.142 158.942L195.061 159.062C191.719 164.016 182.019 173.766 168.133 176.407L168.648 196.424C169.314 222.419 148.423 243.853 122.419 243.853H92.7648C67.5391 243.853 46.9674 223.636 46.5285 198.415L46.2648 183.272C40.9068 182.918 33.8525 181.681 27.8303 178.923C20.9298 175.764 15.0093 170.407 15.1682 161.821C15.3138 153.957 16.5831 149.461 18.2102 146.745C19.8754 143.965 21.8975 143.159 22.6672 142.684C27.2968 139.825 38.7875 137.741 49.6076 149.763C50.6321 150.901 52.5324 151.932 55.3869 152.765C58.2052 153.588 61.7797 154.169 65.9553 154.536C74.3026 155.269 84.8663 155.127 96.1984 154.449C118.516 153.112 143.626 149.703 160.233 146.919C161.786 143.7 164.684 139.434 168.789 136.209Z"/>
</mask>
<path fill-rule="evenodd" clip-rule="evenodd" d="M168.789 136.209C173.239 132.715 179.18 130.398 186.31 132.103C189.88 132.957 192.49 134.618 194.293 136.813C196.085 138.994 197.007 141.61 197.374 144.265C198.103 149.532 196.69 155.2 195.197 158.808L195.142 158.942L195.061 159.062C191.719 164.016 182.019 173.766 168.133 176.407L168.648 196.424C169.314 222.419 148.423 243.853 122.419 243.853H92.7648C67.5391 243.853 46.9674 223.636 46.5285 198.415L46.2648 183.272C40.9068 182.918 33.8525 181.681 27.8303 178.923C20.9298 175.764 15.0093 170.407 15.1682 161.821C15.3138 153.957 16.5831 149.461 18.2102 146.745C19.8754 143.965 21.8975 143.159 22.6672 142.684C27.2968 139.825 38.7875 137.741 49.6076 149.763C50.6321 150.901 52.5324 151.932 55.3869 152.765C58.2052 153.588 61.7797 154.169 65.9553 154.536C74.3026 155.269 84.8663 155.127 96.1984 154.449C118.516 153.112 143.626 149.703 160.233 146.919C161.786 143.7 164.684 139.434 168.789 136.209Z" fill="#FFFBE8"/>
<path d="M168.789 136.209L166.647 133.482L166.647 133.482L168.789 136.209ZM186.31 132.103L187.116 128.73L187.116 128.73L186.31 132.103ZM194.293 136.813L196.973 134.611L196.973 134.611L194.293 136.813ZM197.374 144.265L200.81 143.79V143.79L197.374 144.265ZM195.197 158.808L198.4 160.14L198.402 160.134L195.197 158.808ZM195.142 158.942L198.017 160.882L198.211 160.594L198.344 160.274L195.142 158.942ZM195.061 159.062L192.186 157.122L192.185 157.123L195.061 159.062ZM168.133 176.407L167.485 173L164.59 173.55L164.666 176.496L168.133 176.407ZM168.648 196.424L172.115 196.335V196.335L168.648 196.424ZM92.7648 243.853L92.7648 247.321H92.7648V243.853ZM46.5285 198.415L49.9962 198.354V198.354L46.5285 198.415ZM46.2648 183.272L49.7326 183.212L49.677 180.022L46.4935 179.811L46.2648 183.272ZM27.8303 178.923L26.3864 182.077L26.3864 182.077L27.8303 178.923ZM15.1682 161.821L11.7005 161.757L11.7005 161.757L15.1682 161.821ZM18.2102 146.745L15.2349 144.962L15.2348 144.963L18.2102 146.745ZM22.6672 142.684L24.4895 145.635L24.4897 145.635L22.6672 142.684ZM49.6076 149.763L47.0297 152.083L47.0299 152.084L49.6076 149.763ZM55.3869 152.765L54.4151 156.094L54.4152 156.094L55.3869 152.765ZM65.9553 154.536L65.6519 157.991V157.991L65.9553 154.536ZM96.1984 154.449L96.4058 157.911V157.911L96.1984 154.449ZM160.233 146.919L160.806 150.34L162.576 150.043L163.356 148.426L160.233 146.919ZM168.789 136.209L170.932 138.937C174.768 135.924 179.648 134.076 185.503 135.476L186.31 132.103L187.116 128.73C178.713 126.72 171.71 129.505 166.647 133.482L168.789 136.209ZM186.31 132.103L185.503 135.476C188.423 136.174 190.342 137.468 191.613 139.015L194.293 136.813L196.973 134.611C194.637 131.768 191.338 129.739 187.116 128.73L186.31 132.103ZM194.293 136.813L191.613 139.015C192.901 140.582 193.635 142.547 193.939 144.74L197.374 144.265L200.81 143.79C200.379 140.673 199.269 137.407 196.973 134.611L194.293 136.813ZM197.374 144.265L193.939 144.74C194.554 149.188 193.346 154.211 191.993 157.482L195.197 158.808L198.402 160.134C200.034 156.19 201.652 149.876 200.81 143.79L197.374 144.265ZM195.197 158.808L191.995 157.476L191.94 157.61L195.142 158.942L198.344 160.274L198.4 160.14L195.197 158.808ZM195.142 158.942L192.267 157.002L192.186 157.122L195.061 159.062L197.936 161.002L198.017 160.882L195.142 158.942ZM195.061 159.062L192.185 157.123C189.199 161.55 180.213 170.579 167.485 173L168.133 176.407L168.781 179.814C183.825 176.953 194.239 166.482 197.936 161.001L195.061 159.062ZM168.133 176.407L164.666 176.496L165.181 196.513L168.648 196.424L172.115 196.335L171.6 176.318L168.133 176.407ZM168.648 196.424L165.181 196.513C165.797 220.559 146.472 240.385 122.419 240.385V243.853V247.321C150.373 247.321 172.831 224.28 172.115 196.335L168.648 196.424ZM122.419 243.853V240.385H92.7648V243.853V247.321H122.419V243.853ZM92.7648 243.853V240.385C69.431 240.385 50.4022 221.684 49.9962 198.354L46.5285 198.415L43.0608 198.475C43.5326 225.588 65.6472 247.321 92.7648 247.321L92.7648 243.853ZM46.5285 198.415L49.9962 198.354L49.7326 183.212L46.2648 183.272L42.7971 183.332L43.0608 198.475L46.5285 198.415ZM46.2648 183.272L46.4935 179.811C41.393 179.474 34.7887 178.295 29.2741 175.77L27.8303 178.923L26.3864 182.077C32.9164 185.067 40.4206 186.362 46.0362 186.733L46.2648 183.272ZM27.8303 178.923L29.2742 175.77C22.9133 172.857 18.5144 168.447 18.6358 161.885L15.1682 161.821L11.7005 161.757C11.5042 172.367 18.9464 178.67 26.3864 182.077L27.8303 178.923ZM15.1682 161.821L18.6358 161.885C18.7764 154.295 20.005 150.498 21.1856 148.527L18.2102 146.745L15.2348 144.963C13.1613 148.425 11.8512 153.62 11.7005 161.757L15.1682 161.821ZM18.2102 146.745L21.1855 148.527C21.763 147.563 22.366 146.992 22.8572 146.623C23.1119 146.432 23.3591 146.278 23.606 146.136C23.7364 146.062 23.8532 145.998 23.9984 145.918C24.1212 145.85 24.3098 145.746 24.4895 145.635L22.6672 142.684L20.8449 139.733C20.9391 139.675 19.6272 140.374 18.6918 141.077C17.5632 141.924 16.3226 143.147 15.2349 144.962L18.2102 146.745ZM22.6672 142.684L24.4897 145.635C27.7605 143.615 37.3835 141.365 47.0297 152.083L49.6076 149.763L52.1855 147.443C40.1915 134.116 26.8331 136.035 20.8447 139.733L22.6672 142.684ZM49.6076 149.763L47.0299 152.084C48.7004 153.939 51.3475 155.199 54.4151 156.094L55.3869 152.765L56.3587 149.436C53.7174 148.665 52.5637 147.863 52.1853 147.443L49.6076 149.763ZM55.3869 152.765L54.4152 156.094C57.5353 157.005 61.3576 157.613 65.6519 157.991L65.9553 154.536L66.2587 151.081C62.2019 150.724 58.8751 150.17 56.3586 149.436L55.3869 152.765ZM65.9553 154.536L65.6519 157.991C74.2472 158.745 85.0055 158.593 96.4058 157.911L96.1984 154.449L95.9911 150.987C84.7272 151.661 74.3581 151.792 66.2586 151.081L65.9553 154.536ZM96.1984 154.449L96.4058 157.911C118.884 156.565 144.124 153.136 160.806 150.34L160.233 146.919L159.659 143.499C143.128 146.269 118.147 149.66 95.9911 150.987L96.1984 154.449ZM160.233 146.919L163.356 148.426C164.732 145.574 167.328 141.767 170.932 138.937L168.789 136.209L166.647 133.482C162.04 137.1 158.839 141.826 157.109 145.413L160.233 146.919Z" fill="#FCE9B8" mask="url(#path-1-inside-1_136_180)"/>
<path d="M177.365 24.0518C186.875 24.0518 194.589 31.7794 194.589 41.3164C194.589 46.0485 192.696 49.3878 189.673 51.5801C186.605 53.8055 182.278 54.9121 177.365 54.9121C172.452 54.9121 168.125 53.8056 165.056 51.5801C162.033 49.3878 160.14 46.0485 160.14 41.3164C160.14 31.7795 167.854 24.0518 177.365 24.0518Z" fill="#FFFBE8" stroke="#FCE9B8" stroke-width="2.15304"/>
<path d="M26.6514 26.2048C17.1408 26.2048 9.42676 33.9325 9.42676 43.4695C9.42678 48.2015 11.3201 51.5408 14.3428 53.7332C17.4114 55.9586 21.7384 57.0652 26.6514 57.0652C31.5643 57.0652 35.8914 55.9587 38.96 53.7332C41.9827 51.5408 43.876 48.2015 43.876 43.4695C43.876 33.9325 36.1619 26.2049 26.6514 26.2048Z" fill="#FFFBE8" stroke="#FCE9B8" stroke-width="2.15304"/>
<path d="M56.0767 30.5112C32.5367 26.4922 25.6948 43.1903 25.2164 52.0416C7.13083 57.496 8.11166 74.6486 10.8628 82.5432C9.3078 81.5862 2.25052 82.5432 1.17411 92.9495C0.00563765 104.246 9.54703 107.901 16.2454 108.739C6.48491 120.796 18.1592 128.834 25.2164 131.345C25.2164 146.273 42.2015 151.68 50.6941 152.517C58.7321 168.306 75.8129 164.598 83.3486 160.77C101.721 179.717 121.864 167.708 129.639 159.335C150.882 163.928 159.064 151.919 160.499 145.34C193.226 147.924 192.316 132.302 187.771 124.169C204.708 116.705 199.134 105.748 194.23 101.203C215.761 86.2751 200.331 73.2133 189.924 68.5484C193.369 51.324 180.834 47.7356 174.135 48.0945C177.293 37.1857 167.317 34.937 161.935 35.1762C161.36 25.9899 150.691 26.564 145.428 27.9994C138.825 10.488 124.017 13.7653 117.438 17.593C101.649 -0.779666 87.1762 9.9377 81.9132 17.593C63.8276 11.5644 57.1532 23.6932 56.0767 30.5112Z" fill="#FAB2CD" stroke="#FD83C1" stroke-width="2.15304"/>
<path d="M102.367 38.4053C142.092 38.4053 171.265 67.8219 171.265 99.0498C171.265 114.603 163.594 127.393 150.923 136.331C138.23 145.285 120.519 150.364 100.573 150.364C80.5785 150.364 64.2275 146.341 52.9072 138.479C41.6398 130.655 35.2637 118.969 35.2637 103.355C35.2638 72.0008 62.772 38.4053 102.367 38.4053Z" fill="#FFFBE8" stroke="#FCE9B8" stroke-width="2.15304"/>
<path d="M154.04 95.4614L166.24 93.3083M152.246 106.227L164.446 111.25" stroke="#F1C67E" stroke-width="7.17681" stroke-linecap="round"/>
<path d="M52.8469 101.921L40.6463 99.7676M54.6411 112.686L42.7994 117.71" stroke="#F1C67E" stroke-width="7.17681" stroke-linecap="round"/>
<path d="M101.29 41.6353V75.7251M81.9131 53.477H119.95M84.0661 66.3953H118.156" stroke="#F1C67E" stroke-width="7.17681" stroke-linecap="round"/>
<path d="M96.9849 31.5877L107.032 22.6167" stroke="#E96F91" stroke-width="5.74145" stroke-linecap="round"/>
<path d="M112.773 28.717H125.692" stroke="#F1E488" stroke-width="5.74145" stroke-linecap="round"/>
<path d="M75.8125 26.2053L89.8073 24.0522" stroke="#FDFCFF" stroke-width="5.74145" stroke-linecap="round"/>
<path d="M64.3301 31.5879L72.4586 38.433" stroke="#F7DF83" stroke-width="5.74145" stroke-linecap="round"/>
<path d="M167.676 2.16282L130.356 28.3582L171.982 57.7831C172.58 41.2765 173.704 7.33012 173.417 3.59818C173.13 -0.13376 169.47 1.0863 167.676 2.16282Z" fill="#F4F1A4" stroke="#F8E26A" stroke-width="2.15304" stroke-linecap="round"/>
<path d="M157.628 9.3396L171.982 31.2289M138.251 32.6642L171.982 18.3106M150.093 17.2341L171.982 53.1182M140.404 23.3344L153.322 43.4295L172.341 31.2289" stroke="#F8E26A" stroke-width="1.43536" stroke-linecap="round"/>
<path d="M122.462 34.8173C126.768 30.7504 136.314 25.8463 140.046 38.7646C145.428 37.3292 156.337 37.2575 156.911 48.4533C163.131 47.7356 174.494 49.5298 170.188 62.4481" stroke="#FD83C1" stroke-width="2.15304"/>
<path d="M140.046 39.2182C136.314 26.2999 126.768 31.2041 122.462 35.2709L170.188 62.9017C174.494 49.9835 163.131 48.1893 156.911 48.9069C156.337 37.7111 145.428 37.7828 140.046 39.2182Z" fill="#FAB2CD"/>
<mask id="path-18-inside-2_136_180" fill="white">
<path d="M113.875 94.3406C120.807 94.3406 126.427 99.9601 126.427 106.892C126.427 113.825 120.807 119.444 113.875 119.444C109.719 119.444 106.036 117.423 103.752 114.311C101.468 117.423 97.7858 119.444 93.6299 119.444C86.6977 119.444 81.0781 113.825 81.0781 106.892C81.0782 99.9602 86.6978 94.3406 93.6299 94.3406C97.7854 94.3406 101.468 96.3614 103.752 99.4724C106.036 96.3611 109.719 94.3406 113.875 94.3406Z"/>
</mask>
<path d="M113.875 94.3406C120.807 94.3406 126.427 99.9601 126.427 106.892C126.427 113.825 120.807 119.444 113.875 119.444C109.719 119.444 106.036 117.423 103.752 114.311C101.468 117.423 97.7858 119.444 93.6299 119.444C86.6977 119.444 81.0781 113.825 81.0781 106.892C81.0782 99.9602 86.6978 94.3406 93.6299 94.3406C97.7854 94.3406 101.468 96.3614 103.752 99.4724C106.036 96.3611 109.719 94.3406 113.875 94.3406Z" fill="#FDFFFB"/>
<path d="M113.875 94.3406V92.6293H113.875L113.875 94.3406ZM126.427 106.892H128.138V106.892L126.427 106.892ZM113.875 119.444L113.875 121.155H113.875V119.444ZM103.752 114.311L105.131 113.299L103.752 111.42L102.373 113.299L103.752 114.311ZM93.6299 119.444L93.6299 121.155H93.6299V119.444ZM81.0781 106.892L79.3669 106.892V106.892H81.0781ZM93.6299 94.3406V92.6293H93.6299L93.6299 94.3406ZM103.752 99.4724L102.373 100.485L103.752 102.364L105.131 100.485L103.752 99.4724ZM113.875 94.3406V96.0518C119.862 96.0518 124.715 100.905 124.715 106.892L126.427 106.892L128.138 106.892C128.138 99.015 121.752 92.6293 113.875 92.6293V94.3406ZM126.427 106.892H124.715C124.715 112.879 119.862 117.733 113.875 117.733V119.444V121.155C121.752 121.155 128.138 114.77 128.138 106.892H126.427ZM113.875 119.444L113.875 117.733C110.287 117.733 107.108 115.991 105.131 113.299L103.752 114.311L102.372 115.324C104.965 118.855 109.151 121.155 113.875 121.155L113.875 119.444ZM103.752 114.311L102.373 113.299C100.396 115.99 97.2172 117.733 93.6299 117.733V119.444V121.155C98.3544 121.155 102.539 118.855 105.131 115.324L103.752 114.311ZM93.6299 119.444L93.6299 117.733C87.6428 117.733 82.7894 112.879 82.7894 106.892H81.0781H79.3669C79.3669 114.77 85.7526 121.155 93.6299 121.155L93.6299 119.444ZM81.0781 106.892L82.7894 106.892C82.7894 100.905 87.6429 96.0519 93.6299 96.0518L93.6299 94.3406L93.6299 92.6293C85.7527 92.6294 79.3669 99.0151 79.3669 106.892L81.0781 106.892ZM93.6299 94.3406V96.0518C97.217 96.0518 100.396 97.7939 102.373 100.485L103.752 99.4724L105.131 98.4596C102.539 94.9289 98.3539 92.6293 93.6299 92.6293V94.3406ZM103.752 99.4724L105.131 100.485C107.107 97.7937 110.287 96.0519 113.875 96.0518L113.875 94.3406L113.875 92.6293C109.151 92.6294 104.965 94.9284 102.373 98.4597L103.752 99.4724Z" fill="#FAD699" mask="url(#path-18-inside-2_136_180)"/>
<path d="M111.716 97.6145C111.716 100.984 107.389 104.074 103.822 104.074C100.254 104.074 95.9271 100.984 95.9271 97.6145C95.5683 92.2319 100.254 91.873 103.822 91.873C107.389 91.873 112.075 91.873 111.716 97.6145Z" fill="#5E3916"/>
<path d="M73.332 229.98C81.4081 229.98 88.3524 230.843 93.3799 232.501C98.4414 234.17 101.15 236.495 101.651 239.157C101.656 242.039 101.814 244.902 98.8008 247.284C95.5856 249.825 88.5831 251.945 73.332 251.945C58.0806 251.945 51.0775 249.825 47.8623 247.284C44.8473 244.901 45.0065 242.035 45.0107 239.151C45.5127 236.203 48.2283 233.88 53.2695 232.288C58.2939 230.701 65.238 229.98 73.332 229.98Z" fill="#FFFBE8" stroke="#FCE9B8" stroke-width="2.31216"/>
<path d="M63.5049 242.697V250.212" stroke="#FCE9B8" stroke-width="2.31216" stroke-linecap="round"/>
<path d="M72.1753 242.697V250.212" stroke="#FCE9B8" stroke-width="2.31216" stroke-linecap="round"/>
<path d="M80.2681 242.697V250.212" stroke="#FCE9B8" stroke-width="2.31216" stroke-linecap="round"/>
<path d="M140.384 229.98C148.46 229.98 155.405 230.843 160.432 232.501C165.494 234.17 168.202 236.495 168.704 239.157C168.708 242.039 168.866 244.902 165.853 247.284C162.638 249.825 155.635 251.945 140.384 251.945C125.133 251.945 118.13 249.825 114.915 247.284C111.9 244.901 112.059 242.035 112.063 239.151C112.565 236.203 115.281 233.88 120.322 232.288C125.346 230.701 132.29 229.98 140.384 229.98Z" fill="#FFFBE8" stroke="#FCE9B8" stroke-width="2.31216"/>
<path d="M130.557 242.697V250.212" stroke="#FCE9B8" stroke-width="2.31216" stroke-linecap="round"/>
<path d="M139.228 242.697V250.212" stroke="#FCE9B8" stroke-width="2.31216" stroke-linecap="round"/>
<path d="M147.32 242.697V250.212" stroke="#FCE9B8" stroke-width="2.31216" stroke-linecap="round"/>
<ellipse cx="105.701" cy="199.344" rx="26.0118" ry="21.3875" fill="#FCE9B8"/>
<path d="M122.464 92.4065C122.464 92.4065 123.042 87.7822 128.823 87.7822C134.603 87.7822 135.181 92.4065 135.181 92.4065" stroke="#5E3916" stroke-width="2.31216" stroke-linecap="round"/>
<path d="M72.7529 92.4065C72.7529 92.4065 73.331 87.7822 79.1114 87.7822C84.8918 87.7822 85.4698 92.4065 85.4698 92.4065" stroke="#5E3916" stroke-width="2.31216" stroke-linecap="round"/>
</svg>
