<svg width="284" height="151" viewBox="0 0 284 151" fill="none" xmlns="http://www.w3.org/2000/svg">
<path d="M235.812 14.5056C237.111 14.1088 238.501 13.9373 239.84 14.282C242.373 14.8665 244.416 16.9732 246.108 19.5427L254.735 32.5906L259.884 21.0662V21.0652C261.167 18.1934 262.862 15.6551 265.318 14.7341C266.576 14.2624 267.956 14.2455 269.299 14.4451C270.488 14.6218 271.779 14.9879 273.152 15.5046L273.746 15.7351L273.804 15.7585L273.86 15.7849C276.755 17.1115 279.322 18.8727 280.181 21.4187C281.054 23.8451 280.43 26.6045 279.214 29.2937L257.368 78.2468C256.132 81.1376 254.436 83.678 251.901 84.5906L251.9 84.5896C250.631 85.0856 249.249 85.1012 247.919 84.8855C246.535 84.6611 245.027 84.1596 243.426 83.4548L243.417 83.4509L243.408 83.448C240.377 82.087 237.747 80.2265 236.936 77.488V77.4871C236.189 75.0244 236.909 72.2604 238.225 69.5515L244.564 55.3591L228.332 30.8054L228.326 30.7976L228.321 30.7898C226.678 28.2622 225.597 25.5858 226.085 23.0466H226.086C226.592 20.3541 228.819 18.2525 231.505 16.5662L231.514 16.5613L231.521 16.5554C233.026 15.6273 234.463 14.9178 235.812 14.5056Z" fill="url(#paint0_linear_196_2652)" stroke="#FFFDF6" stroke-width="5.0589"/>
<path d="M197.235 8.25586C199.947 8.25587 202.507 8.64031 204.281 9.94727L204.282 9.94629C205.917 11.0646 207.017 12.6339 207.391 14.5928H207.39C207.661 15.9577 207.792 17.3963 207.792 18.9014V30.3193C209.714 29.2649 211.866 28.7686 214.181 28.7686C218.45 28.7686 222.351 29.909 225.811 32.207H225.812C229.23 34.4193 231.927 37.4304 233.9 41.1797C235.897 44.9731 236.867 49.2209 236.867 53.8633V68.4902C236.867 69.9522 236.734 71.389 236.466 72.7979L236.463 72.8096L236.461 72.8213C236.08 74.7241 234.981 76.2503 233.43 77.3936L233.42 77.4004L233.41 77.4082C231.643 78.6845 229.022 79.0459 226.222 79.0459C223.47 79.0459 220.955 78.6613 219.135 77.4785L219.109 77.4619L219.085 77.4453C217.451 76.327 216.351 74.7567 215.978 72.7979C215.707 71.3757 215.576 69.8782 215.576 68.3115V53.7734C215.576 52.7623 215.391 52.0976 215.16 51.6641L215.129 51.6055C214.863 51.0741 214.509 50.6949 214.039 50.4131C213.613 50.1572 213.012 49.9707 212.13 49.9707C211.099 49.9707 210.134 50.2828 209.174 50.9922C208.284 51.6498 207.926 52.2333 207.792 52.7148V68.4902C207.792 69.9522 207.659 71.389 207.391 72.7979C207.022 74.7357 205.939 76.2913 204.334 77.4072L204.335 77.4082C204.33 77.4118 204.324 77.4144 204.319 77.418C204.307 77.4266 204.295 77.4367 204.282 77.4453L204.281 77.4434C202.515 78.6894 199.919 79.0459 197.146 79.0459C194.369 79.0459 191.803 78.6723 190.01 77.4453L189.974 77.4199L189.938 77.3936C188.352 76.2255 187.272 74.6513 186.902 72.709L186.891 72.6514L186.883 72.5938C186.687 71.2223 186.59 69.8238 186.59 68.4004V18.8125C186.59 17.2991 186.721 15.8521 186.995 14.4805H186.997C187.374 12.5327 188.471 10.9712 190.099 9.85742C191.892 8.63028 194.458 8.25586 197.235 8.25586Z" fill="url(#paint1_linear_196_2652)" stroke="#FFFDF6" stroke-width="5.0589"/>
<path d="M169.228 27.7881C170.338 27.7881 171.447 27.853 172.556 27.9834C173.664 28.1138 174.77 28.309 175.872 28.5684L175.871 28.5693C177.045 28.832 178.189 29.1896 179.301 29.6426C180.414 30.0167 181.523 30.4483 182.628 30.9385C185.318 32.1017 187.435 34.1088 187.542 37.1836L187.546 37.6309C187.511 39.8364 186.641 41.9547 185.244 43.9404C184.435 45.2119 183.516 46.3102 182.453 47.1279L182.441 47.1367L182.429 47.1465C182.053 47.4283 181.654 47.6708 181.236 47.8691C182.158 48.2956 183.038 48.7986 183.872 49.3789C185.626 50.5992 186.99 52.2501 187.989 54.248C189.057 56.3835 189.505 58.9813 189.505 61.8896C189.505 67.5605 187.568 72.1986 183.454 75.3828L183.455 75.3838C179.495 78.4955 173.903 79.8486 167.087 79.8486C165.233 79.8486 163.209 79.6197 161.028 79.1865L160.217 79.0342C158.327 78.6576 156.464 78.1343 154.628 77.4668L154.584 77.4512L154.54 77.4336C152.468 76.5917 150.661 75.5837 149.174 74.3799C147.481 73.0094 146.363 71.1798 146.363 68.9355C146.363 68.0082 146.548 67.0801 146.85 66.1738L146.868 66.1191L146.889 66.0654C147.23 65.1776 147.663 64.2501 148.177 63.2861C148.71 62.2862 149.361 61.2474 150.12 60.1719L150.351 59.8584C150.906 59.141 151.58 58.5239 152.392 58.0732L152.439 58.0469L152.488 58.0225C152.829 57.8519 153.181 57.7161 153.539 57.6094C152.989 57.1554 152.462 56.6658 151.962 56.1377L151.937 56.1113L151.913 56.085C150.683 54.7106 149.706 53.0859 148.958 51.25L148.942 51.2119L148.929 51.1738C148.2 49.2072 147.879 46.9284 147.879 44.4092C147.879 40.9232 148.688 37.8085 150.463 35.2197C152.231 32.6417 154.794 30.7794 157.977 29.5605C161.145 28.347 164.923 27.7881 169.228 27.7881Z" fill="url(#paint2_linear_196_2652)" stroke="#FFFDF6" stroke-width="5.0589"/>
<path d="M138.426 28.5906C141.212 28.5906 143.839 28.9773 145.622 30.325C147.223 31.4404 148.301 32.9932 148.67 34.9275C148.938 36.3366 149.071 37.7738 149.071 39.2361V68.5789C149.071 70.0406 148.938 71.4563 148.665 72.821C148.281 74.7427 147.161 76.2616 145.562 77.3552C143.769 78.5824 141.203 78.9568 138.426 78.9568C136.305 78.9568 134.378 78.7071 132.807 78.0457V78.0437C131.719 77.613 130.695 77.0142 129.896 76.1648C129 76.7829 127.996 77.3395 126.897 77.8386L126.847 77.8601C125.221 78.5569 123.412 78.8679 121.48 78.8679C118.282 78.8679 115.249 78.232 112.41 76.948L112.4 76.9431L112.39 76.9382C109.641 75.6645 107.228 73.8863 105.162 71.6208L105.15 71.6072L105.138 71.5935C103.077 69.2664 101.492 66.5836 100.378 63.5691C99.2535 60.5263 98.7051 57.2529 98.7051 53.7732V39.2361C98.7051 37.7228 98.8361 36.2766 99.1104 34.905H99.1113C99.4829 32.9861 100.554 31.4432 102.142 30.3328C102.152 30.325 102.163 30.317 102.174 30.3093C102.187 30.3 102.2 30.2902 102.214 30.281V30.282C104.021 28.9889 106.59 28.5906 109.351 28.5906C112.136 28.5906 114.764 28.9773 116.547 30.325C118.148 31.4404 119.226 32.9932 119.595 34.9275C119.864 36.3433 119.996 37.8106 119.996 39.325V53.7732C119.996 54.8179 120.173 55.5519 120.416 56.0642C120.705 56.5593 121.081 56.938 121.572 57.2302C122.179 57.4996 122.934 57.6657 123.888 57.6658C124.847 57.6658 125.533 57.4717 126.037 57.1882C126.585 56.8802 126.995 56.4702 127.303 55.9226C127.586 55.4185 127.78 54.7329 127.78 53.7732V39.1472C127.78 37.6423 127.91 36.2035 128.182 34.8386L128.26 34.4753C128.694 32.685 129.757 31.2405 131.289 30.1921C133.083 28.965 135.648 28.5906 138.426 28.5906Z" fill="url(#paint3_linear_196_2652)" stroke="#FFFDF6" stroke-width="5.0589"/>
<path d="M84.665 8.07739C87.3767 8.0774 89.9372 8.46185 91.7109 9.7688L91.7119 9.76782C93.3464 10.8861 94.4472 12.4554 94.8203 14.4143C95.09 15.8302 95.2217 17.2974 95.2217 18.8118V58.3811C96.201 58.3929 97.1823 58.5461 98.1592 58.8215C99.9068 59.226 101.124 60.4462 101.924 61.8674C102.956 63.5398 103.248 65.9357 103.248 68.4895C103.248 71.1874 102.945 73.6349 101.975 75.3752L101.977 75.3762C101.199 76.8529 99.9792 78.1799 98.1592 78.6028L98.1602 78.6038C97.0955 78.8877 96.0414 79.0461 95.0107 79.0461C92.2069 79.0461 89.6991 78.9245 87.499 78.6731L87.4912 78.6721C85.3949 78.4255 83.4859 77.9367 81.8135 77.1555L81.4824 76.9954C79.6728 76.0905 78.1817 74.7925 77.0449 73.1252L77.0312 73.1038L77.0166 73.0823C75.8976 71.3664 75.1492 69.2806 74.6904 66.9211L74.6875 66.9084C74.232 64.5006 74.0195 61.5955 74.0195 58.2327V18.7229C74.0195 17.2096 74.1505 15.7634 74.4248 14.3918H74.4258C74.7974 12.4729 75.8683 10.9301 77.4561 9.81958C77.4666 9.81183 77.4777 9.80383 77.4883 9.79614C77.5017 9.78684 77.5148 9.77706 77.5283 9.76782V9.7688C79.3355 8.47571 81.9041 8.07739 84.665 8.07739Z" fill="url(#paint4_linear_196_2652)" stroke="#FFFDF6" stroke-width="5.0589"/>
<path d="M52.1261 7.94424C54.8897 8.62896 57.6427 9.92613 60.383 11.7617C63.2307 13.5928 65.7279 15.9636 67.8796 18.8428L67.8805 18.843C70.1607 21.8228 71.7536 25.2266 72.6711 29.0204C73.6251 32.9649 73.48 37.2351 72.3559 41.772C71.246 46.2515 69.3865 50.0606 66.7053 53.099C64.1226 56.0255 61.1248 58.292 57.7172 59.8625L57.7104 59.8658C54.4881 61.3386 51.1926 62.2636 47.8321 62.6208L47.8075 62.6227L47.7817 62.6254C44.5002 62.9072 41.4386 62.7228 38.6249 62.0257L30.799 60.0868L29.1219 66.8557C28.7357 68.4145 28.2147 69.9105 27.557 71.3405C26.6724 73.2638 25.144 74.6244 23.1819 75.4358L23.1415 75.453L23.1003 75.4689C20.9167 76.2838 18.0841 76.0069 15.0521 75.2556C12.0706 74.5169 9.47779 73.4455 7.93199 71.7107L7.90302 71.6774L7.87429 71.6431C6.51825 70.0096 5.80267 68.0928 5.9183 65.9791L5.91899 65.9682L5.91945 65.9583C6.02178 64.3366 6.26593 62.7448 6.65218 61.1858L18.9362 11.6068C19.3224 10.048 19.8434 8.55209 20.5011 7.12207C21.3928 5.1835 22.9377 3.83435 24.9341 3.08935L24.9339 3.0903C27.1502 2.20813 29.993 2.46037 33.006 3.20691L52.1261 7.94424ZM36.3722 37.5931L44.2938 39.5558C44.7523 39.6694 45.4329 39.7233 46.3958 39.6359C47.1118 39.5193 47.8488 39.2129 48.6194 38.6324C49.0997 38.2705 49.6284 37.5568 49.9829 36.126C50.2153 35.1878 50.1765 34.4103 49.9535 33.7273L49.9425 33.6944L49.9334 33.6619C49.6926 32.8514 49.2832 32.2118 48.6955 31.6861L48.6281 31.6252L48.5647 31.5602C48.0648 31.044 47.3956 30.6467 46.4572 30.4142L38.6313 28.4752L36.3722 37.5931Z" fill="url(#paint5_linear_196_2652)" stroke="#FFFDF6" stroke-width="5.0589"/>
<path d="M250.963 78.5439C253.68 78.544 256.209 78.9475 258.009 80.2354L258.01 80.2344C258.024 80.244 258.037 80.255 258.051 80.2646C258.061 80.272 258.072 80.2778 258.082 80.2852L258.081 80.2861C259.676 81.401 260.751 82.951 261.118 84.8809C261.387 86.29 261.52 87.7272 261.52 89.1895V93.6943L263.625 93.6182L263.671 93.6162H263.717C265.17 93.6162 266.577 93.7479 267.935 94.0176H267.936C267.941 94.0185 267.946 94.0195 267.951 94.0205C267.954 94.021 267.956 94.022 267.959 94.0225H267.958C269.877 94.394 271.42 95.4657 272.53 97.0537H272.531C272.535 97.0594 272.539 97.0656 272.543 97.0713C272.556 97.0897 272.569 97.1075 272.582 97.126H272.581C273.879 98.9401 274.273 101.547 274.273 104.352C274.273 106.982 273.859 109.434 272.581 111.219L272.582 111.22C272.573 111.234 272.562 111.247 272.553 111.261C272.545 111.271 272.539 111.282 272.531 111.292L272.53 111.291C271.437 112.855 269.937 113.935 268.075 114.385L268.076 114.387C266.665 114.74 265.178 114.908 263.627 114.908H263.598L263.567 114.907L261.52 114.858V122.635C261.52 122.961 261.528 123.247 261.543 123.495C263.156 123.502 264.647 123.631 265.996 123.9H265.995C267.837 124.256 269.373 125.226 270.42 126.795C270.424 126.8 270.428 126.806 270.432 126.812C270.447 126.834 270.464 126.857 270.479 126.88H270.477C271.616 128.555 271.954 130.886 271.954 133.338C271.954 136.135 271.547 138.735 270.213 140.546C269.051 142.123 267.473 143.182 265.527 143.492C264.126 143.759 262.719 143.894 261.309 143.894C257.976 143.894 254.979 143.518 252.359 142.712C249.712 141.897 247.419 140.612 245.553 138.817L245.535 138.801L245.518 138.783C243.723 136.989 242.404 134.769 241.523 132.194L241.514 132.166L241.505 132.137C240.695 129.573 240.317 126.66 240.317 123.438V114.624C237.914 114.454 235.654 113.603 234.305 111.527C233.114 109.696 232.736 107.105 232.736 104.262C232.736 101.494 233.234 98.9518 234.648 97.0664H234.646C236.03 95.1634 238.038 94.2334 240.317 94.0859V88.833C240.317 87.331 240.447 85.9126 240.723 84.5908L240.805 84.2314C241.256 82.462 242.358 81.0702 243.904 80.0938V80.0957C245.694 78.9096 248.224 78.5439 250.963 78.5439Z" fill="url(#paint6_linear_196_2652)" stroke="#FFFDF6" stroke-width="5.0589"/>
<path d="M214.985 92.5464C218.935 92.5464 222.462 93.1826 225.486 94.5571C228.359 95.863 230.772 97.5689 232.648 99.7124C234.503 101.765 235.903 103.998 236.8 106.414C237.653 108.71 238.117 110.944 238.117 113.091C238.117 116.87 237.187 120.169 234.939 122.577C233.945 123.642 232.815 124.459 231.57 125.033C232.768 126.025 233.728 127.372 234.514 128.927H234.515C235.003 129.834 235.381 130.756 235.62 131.691L235.701 132.006C235.879 132.744 235.977 133.487 235.977 134.229C235.977 136.822 234.852 139.003 232.836 140.631L232.837 140.632C230.978 142.181 228.46 143.196 225.512 143.836L225.511 143.835C222.532 144.542 218.98 144.874 214.896 144.875C210.18 144.875 206.02 144.121 202.51 142.501L202.491 142.494L202.474 142.485C199.097 140.862 196.29 138.743 194.122 136.101L194.112 136.089L194.103 136.077C192.021 133.475 190.472 130.652 189.48 127.611C188.516 124.654 188.019 121.743 188.019 118.889C188.019 113.807 189.148 109.222 191.484 105.217C193.801 101.246 197.023 98.1283 201.104 95.8901C205.21 93.6385 209.86 92.5464 214.985 92.5464ZM214.807 111.964C213.738 111.964 212.925 112.184 212.289 112.538L212.241 112.565L212.192 112.589C212.177 112.597 212.162 112.606 212.146 112.614H217.375L217.359 112.593C217.32 112.542 217.202 112.414 216.828 112.298L216.745 112.273L216.664 112.242C216.252 112.083 215.653 111.964 214.807 111.964Z" fill="url(#paint7_linear_196_2652)" stroke="#FFFDF6" stroke-width="5.0589"/>
<path d="M159.203 72.925C161.915 72.9251 164.475 73.3095 166.249 74.6165L166.25 74.6155C167.884 75.7338 168.985 77.3031 169.358 79.262C169.628 80.6778 169.76 82.145 169.76 83.6594V102.27L173.044 99.0627L173.053 99.0549L173.061 99.0471C174.625 97.5476 176.245 96.3839 177.924 95.7444C179.697 95.0099 181.553 94.9448 183.353 95.6448C185.137 96.2587 186.765 97.53 188.259 99.1516C189.5 100.488 190.505 101.791 191.191 103.053C191.853 104.27 192.315 105.627 192.232 107.034C192.134 109.599 190.411 112.039 188.194 114.256L188.135 114.315L188.072 114.369L183.149 118.684L190.813 124.653L190.88 124.704L190.943 124.761C193.307 126.869 195.038 129.282 195.254 132.007L195.276 132.276C195.447 135.045 193.83 137.661 191.631 139.983L191.615 139.998C189.954 141.721 188.281 143.084 186.615 143.771C184.854 144.582 182.995 144.587 181.232 143.784L180.95 143.66C179.536 143.011 178.054 141.936 176.524 140.583L176.498 140.56L176.473 140.536L169.74 134.241C169.697 135.393 169.571 136.528 169.358 137.646C168.989 139.583 167.907 141.138 166.302 142.254L166.303 142.255C166.298 142.258 166.293 142.261 166.289 142.264C166.276 142.273 166.263 142.283 166.25 142.292L166.249 142.29C164.482 143.537 161.887 143.894 159.114 143.894C156.337 143.894 153.771 143.519 151.978 142.292L151.941 142.268L151.905 142.241C150.32 141.073 149.24 139.499 148.87 137.557L148.858 137.499L148.851 137.441C148.655 136.069 148.558 134.672 148.558 133.248V83.5706C148.558 82.0573 148.689 80.6111 148.963 79.2395H148.964C149.335 77.3205 150.406 75.7777 151.994 74.6672C152.005 74.6595 152.016 74.6515 152.026 74.6438C152.04 74.6345 152.053 74.6247 152.066 74.6155V74.6165C153.874 73.3234 156.442 72.925 159.203 72.925Z" fill="url(#paint8_linear_196_2652)" stroke="#FFFDF6" stroke-width="5.0589"/>
<path d="M130.223 92.9922C132.65 92.9922 134.857 93.2463 136.805 93.8027C138.551 94.3016 140.087 94.8893 141.364 95.5889C142.411 96.1124 143.252 96.5614 143.831 96.9199H143.832C145.177 97.7267 146.422 98.6688 147.564 99.7441C149.199 101.164 149.966 103.09 149.966 105.243C149.966 106.344 149.753 107.435 149.372 108.502L149.362 108.53L149.352 108.56C148.97 109.551 148.398 110.603 147.688 111.701L147.68 111.712C145.447 115.123 142.647 117.762 139.142 117.762C137.931 117.762 136.756 117.573 135.672 117.121L135.592 117.088L135.514 117.049C134.7 116.642 133.938 116.193 133.232 115.699C132.796 115.394 132.303 115.123 131.747 114.892L131.625 114.841L131.509 114.777C131.335 114.683 130.954 114.551 130.223 114.551C129.478 114.551 128.822 114.731 128.206 115.094C127.566 115.47 127.072 115.963 126.695 116.604L126.66 116.662C126.345 117.167 126.152 117.791 126.152 118.621C126.152 119.449 126.344 120.131 126.695 120.728C127.087 121.394 127.57 121.889 128.148 122.256C128.775 122.618 129.395 122.781 130.045 122.781C130.722 122.781 131.11 122.705 131.296 122.644L131.332 122.631L131.369 122.62C131.614 122.547 131.801 122.481 131.938 122.427C131.991 122.405 132.031 122.384 132.062 122.37C132.169 122.288 132.28 122.208 132.388 122.136C132.474 122.078 132.608 121.992 132.771 121.911C132.783 121.905 132.823 121.884 132.886 121.855C133.647 121.42 134.357 121.011 135.014 120.628L135.051 120.606L135.089 120.586C136.18 119.999 137.361 119.659 138.606 119.659C140.259 119.659 141.78 120.285 143.131 121.243C144.521 122.17 145.904 123.595 147.285 125.353H147.284C148.675 127.081 149.648 128.953 149.854 130.944L149.896 131.318C150.058 133.182 149.524 134.931 148.438 136.482L148.421 136.508L148.402 136.532C147.328 137.991 145.788 139.276 143.934 140.436C143.926 140.441 143.918 140.446 143.909 140.451C143.894 140.46 143.88 140.471 143.865 140.48L143.864 140.479C143.538 140.687 142.83 141.089 141.887 141.613L141.864 141.626L141.842 141.638C140.637 142.276 139.104 142.865 137.305 143.423C135.275 144.053 132.958 144.34 130.401 144.34C127.633 144.34 124.765 143.8 121.812 142.772L121.779 142.761L121.748 142.749C118.809 141.639 116.053 140.045 113.481 137.988L113.466 137.977L113.451 137.964C110.79 135.768 108.645 133.051 107.011 129.849C105.313 126.52 104.505 122.724 104.505 118.532C104.505 114.394 105.315 110.649 107.021 107.374C108.65 104.187 110.761 101.502 113.367 99.3633L113.38 99.3535L113.392 99.3438C115.974 97.2781 118.746 95.7066 121.705 94.6543V94.6553C124.649 93.5703 127.495 92.9922 130.223 92.9922Z" fill="url(#paint9_linear_196_2652)" stroke="#FFFDF6" stroke-width="5.0589"/>
<path d="M81.5605 92.457C86.3803 92.4571 90.8087 93.6335 94.7852 96.0127H94.7861C98.724 98.3098 101.884 101.439 104.242 105.368C106.632 109.352 107.813 113.79 107.813 118.621C107.813 122.693 107.036 126.413 105.415 129.723C103.848 132.922 101.774 135.665 99.1875 137.92C96.6413 140.14 93.8139 141.819 90.7148 142.94C87.735 144.099 84.7381 144.696 81.7383 144.696C78.6664 144.696 75.5959 144.094 72.54 142.924L72.5176 142.915L72.4961 142.906C69.4419 141.672 66.624 139.952 64.0469 137.762L64.0205 137.739L63.9951 137.717C61.4342 135.418 59.3693 132.694 57.8037 129.563L57.7764 129.507C56.2346 126.222 55.4854 122.608 55.4854 118.71C55.4854 115.109 56.1749 111.699 57.5703 108.51C58.9416 105.375 60.8127 102.613 63.1826 100.243C65.5972 97.8286 68.3505 95.9265 71.4316 94.5498L71.4492 94.542C74.6328 93.1492 78.0118 92.457 81.5605 92.457ZM81.4707 113.837C80.6073 113.837 79.8782 114.047 79.2227 114.447L79.1777 114.475L79.1318 114.5C78.4879 114.858 77.9466 115.381 77.5059 116.143L77.4912 116.169L77.4756 116.194C77.0963 116.815 76.8652 117.594 76.8652 118.621C76.8652 120.02 77.1893 120.846 77.5811 121.35C78.1649 122.1 78.7966 122.579 79.4707 122.871C80.3783 123.199 81.0636 123.316 81.5605 123.316C82.0631 123.316 82.758 123.197 83.6807 122.86C84.4168 122.56 85.0624 122.078 85.6289 121.35L85.6543 121.315L85.6816 121.283C86.0872 120.796 86.4336 119.976 86.4336 118.532C86.4336 117.424 86.1929 116.621 85.8232 116.016L85.7959 115.971L85.7705 115.926C85.4254 115.305 84.9316 114.814 84.2178 114.438C83.5068 114.064 82.6143 113.837 81.4707 113.837Z" fill="url(#paint10_linear_196_2652)" stroke="#FFFDF6" stroke-width="5.0589"/>
<path d="M27.0876 77.8017C29.5584 76.9497 32.3213 76.5783 35.3333 76.6286L35.3327 76.6298C38.4078 76.6254 41.4794 77.2024 44.535 78.3353L44.5341 78.3356C47.7414 79.4844 50.6331 81.2929 53.2019 83.7273C55.8907 86.2754 57.8931 89.6117 59.2763 93.6225C60.6424 97.5841 61.1096 101.417 60.5638 105.076C60.04 108.586 58.8723 111.801 57.0457 114.689L57.0421 114.697C55.3136 117.41 53.2572 119.745 50.8689 121.679L50.8484 121.695L50.8282 121.711C48.4675 123.546 46.038 124.921 43.5386 125.783L36.9081 128.069L38.8749 133.773C39.3516 135.155 39.6945 136.557 39.9001 137.977C40.1834 139.933 39.6757 141.774 38.558 143.395L38.5324 143.432L38.5062 143.466C37.2065 145.217 34.8664 146.416 32.1975 147.336C29.5716 148.242 27.0241 148.724 24.9286 148.149L24.8864 148.137L24.8437 148.124C22.9645 147.537 21.4301 146.4 20.4471 144.685L20.4364 144.666C19.7121 143.377 19.1105 142.04 18.6338 140.658L3.6308 97.1514C3.15409 95.769 2.81125 94.367 2.60561 92.9474C2.32407 91.0035 2.83357 89.1877 3.97704 87.6142C3.98419 87.6038 3.99204 87.5931 3.99926 87.5828C4.00918 87.5692 4.01846 87.5552 4.02848 87.5417L4.0288 87.5426C5.32081 85.7246 7.65655 84.5025 10.3082 83.588L27.0876 77.8017ZM29.9381 107.857L36.6535 105.541C37.0193 105.415 37.5314 105.142 38.1959 104.622C38.6462 104.214 39.0317 103.657 39.3175 102.875C39.4776 102.437 39.5395 101.7 39.1185 100.48C38.8481 99.6956 38.4636 99.1675 38.0007 98.7931L37.9737 98.7715L37.9484 98.7492C37.4037 98.2838 36.8239 98.0208 36.1693 97.9186L36.0787 97.9044L35.9911 97.884C35.4108 97.7503 34.7571 97.7723 33.9726 98.0429L27.3421 100.329L29.9381 107.857Z" fill="url(#paint11_linear_196_2652)" stroke="#FFFDF6" stroke-width="5.0589"/>
<circle cx="131.366" cy="119.815" r="3.03534" fill="white"/>
<circle cx="146.037" cy="119.815" r="3.03534" fill="white"/>
<circle cx="81.7892" cy="119.815" r="3.03534" fill="white"/>
<ellipse cx="33.7298" cy="103.12" rx="4.55301" ry="3.03534" fill="white"/>
<ellipse cx="43.1439" cy="35.4539" rx="5.05965" ry="4.09642" transform="rotate(10.3133 43.1439 35.4539)" fill="white"/>
<ellipse cx="240.676" cy="57.2049" rx="3.72054" ry="4.60687" transform="rotate(10.3133 240.676 57.2049)" fill="white"/>
<path d="M97.4718 126.391C97.4718 126.391 96.3051 131.157 93.6776 133.474C89.5956 137.073 84.8246 136.544 84.8246 136.544" stroke="#FF5CAA" stroke-width="5.0589" stroke-linecap="round"/>
<path d="M134.624 102.409C134.624 102.409 129.984 100.814 126.615 101.771C121.38 103.26 119.983 105.397 119.983 105.397" stroke="#FF8AC2" stroke-width="5.0589" stroke-linecap="round"/>
<path d="M229.827 111.139C229.827 111.139 227.943 106.609 224.992 104.722C220.406 101.792 217.88 102.164 217.88 102.164" stroke="#FF8AC2" stroke-width="5.0589" stroke-linecap="round"/>
<path d="M268.125 105.359C268.125 105.359 268.935 102.979 267.326 101.168C265.961 99.6325 262.898 100.449 262.898 100.449" stroke="#FF8AC2" stroke-width="3.40339" stroke-linecap="round"/>
<path d="M227.905 48.8533C227.905 48.8533 225.882 43.0355 221.835 40.5061C217.22 37.6218 213.234 38.4825 213.234 38.4825" stroke="#AEE1FF" stroke-width="5.0589" stroke-linecap="round"/>
<path d="M168.296 36.0786C168.296 36.0786 170.535 35.3686 172.788 35.5584C177.624 35.9658 179.816 38.8242 179.816 38.8242" stroke="#AEE1FF" stroke-width="4.50015" stroke-linecap="round"/>
<path d="M109.372 64.1667C109.372 64.1667 110.202 67.1871 113.208 69.053C117.832 71.923 119.996 71.5022 119.996 71.5022" stroke="#AFCDFF" stroke-width="5.0589" stroke-linecap="round"/>
<path d="M247.479 129.933C247.479 129.933 248.082 133.467 251.042 135.436C255.595 138.464 257.878 137.776 257.878 137.776" stroke="#FF5CAA" stroke-width="5.0589" stroke-linecap="round"/>
<circle cx="98.4836" cy="119.815" r="3.03534" fill="#FF5CAA"/>
<circle cx="82.2951" cy="39.8839" r="2.52945" fill="#AEE1FF"/>
<path d="M156.661 83.8965V97.0496" stroke="#FF8AC2" stroke-width="5.0589" stroke-linecap="round"/>
<path d="M272.13 28.8076L265.427 42.9193" stroke="#AEE1FF" stroke-width="5.0589" stroke-linecap="round"/>
<path d="M82.2949 20.1543V33.3074" stroke="#AEE1FF" stroke-width="5.0589" stroke-linecap="round"/>
<path d="M12.988 100.591C12.988 100.591 9.6564 94.6566 12.8609 91.8108C14.9728 89.9352 17.8904 89.9352 17.8904 89.9352" stroke="#FF8AC2" stroke-width="4.16793" stroke-linecap="round"/>
<path d="M25.3524 22.4948C25.3524 22.4948 25.6497 11.6348 31.6449 12.9944C35.9833 13.9784 37.9145 14.7665 37.9145 14.7665" stroke="#AEE1FF" stroke-width="5.0589" stroke-linecap="round"/>
<path d="M180.719 105.523L173.521 111.283" stroke="#FF8AC2" stroke-width="5.0589" stroke-linecap="round"/>
<defs>
<linearGradient id="paint0_linear_196_2652" x1="252.678" y1="8.93495" x2="260.087" y2="85.9875" gradientUnits="userSpaceOnUse">
<stop stop-color="#83DCFF"/>
<stop offset="1" stop-color="#3270E2"/>
</linearGradient>
<linearGradient id="paint1_linear_196_2652" x1="211.181" y1="3.11083" x2="219.254" y2="79.8702" gradientUnits="userSpaceOnUse">
<stop stop-color="#83DCFF"/>
<stop offset="1" stop-color="#3270E2"/>
</linearGradient>
<linearGradient id="paint2_linear_196_2652" x1="167.473" y1="24.8298" x2="172.39" y2="79.8855" gradientUnits="userSpaceOnUse">
<stop stop-color="#83DCFF"/>
<stop offset="1" stop-color="#3270E2"/>
</linearGradient>
<linearGradient id="paint3_linear_196_2652" x1="123.34" y1="25.8301" x2="127.19" y2="79.0455" gradientUnits="userSpaceOnUse">
<stop stop-color="#83DCFF"/>
<stop offset="1" stop-color="#3270E2"/>
</linearGradient>
<linearGradient id="paint4_linear_196_2652" x1="88.3414" y1="2.91154" x2="103.12" y2="77.8148" gradientUnits="userSpaceOnUse">
<stop stop-color="#83DCFF"/>
<stop offset="1" stop-color="#3270E2"/>
</linearGradient>
<linearGradient id="paint5_linear_196_2652" x1="51.0966" y1="1.97217" x2="38.899" y2="82.3999" gradientUnits="userSpaceOnUse">
<stop stop-color="#83DCFF"/>
<stop offset="1" stop-color="#3270E2"/>
</linearGradient>
<linearGradient id="paint6_linear_196_2652" x1="256.445" y1="84.9464" x2="254.031" y2="151.316" gradientUnits="userSpaceOnUse">
<stop stop-color="#FF70B5"/>
<stop offset="1" stop-color="#F10577"/>
</linearGradient>
<linearGradient id="paint7_linear_196_2652" x1="216.698" y1="98.1123" x2="215.495" y2="150.189" gradientUnits="userSpaceOnUse">
<stop stop-color="#FF70B5"/>
<stop offset="1" stop-color="#F10577"/>
</linearGradient>
<linearGradient id="paint8_linear_196_2652" x1="175.281" y1="79.7199" x2="172.718" y2="152.822" gradientUnits="userSpaceOnUse">
<stop stop-color="#FF70B5"/>
<stop offset="1" stop-color="#F10577"/>
</linearGradient>
<linearGradient id="paint9_linear_196_2652" x1="130.492" y1="98.4951" x2="129.206" y2="149.485" gradientUnits="userSpaceOnUse">
<stop stop-color="#FF70B5"/>
<stop offset="1" stop-color="#F10577"/>
</linearGradient>
<linearGradient id="paint10_linear_196_2652" x1="85.4594" y1="98.0172" x2="84.3176" y2="149.998" gradientUnits="userSpaceOnUse">
<stop stop-color="#FF70B5"/>
<stop offset="1" stop-color="#F10577"/>
</linearGradient>
<linearGradient id="paint11_linear_196_2652" x1="31.4102" y1="83.2229" x2="51.9662" y2="148.766" gradientUnits="userSpaceOnUse">
<stop stop-color="#FF70B5"/>
<stop offset="1" stop-color="#F10577"/>
</linearGradient>
</defs>
</svg>
