<svg width="316" height="280" viewBox="0 0 316 280" fill="none" xmlns="http://www.w3.org/2000/svg">
<path d="M24.7733 207.003C58.506 189.956 79.332 175.114 85.5284 169.825C97.1353 135.729 186.485 152.596 229.708 165.291L238.776 178.893C254.736 171.638 263.562 146.55 265.98 134.913C269.607 123.578 281.124 104.354 298.171 118.138C315.219 131.921 314.645 164.989 312.227 179.799C308.599 206.641 281.698 235.416 268.7 246.449C274.867 252.615 277.92 271.386 278.675 280H50.6169C49.8914 265.491 56.9644 248.565 60.5916 241.915C41.7303 256.423 19.7859 251.587 11.1714 247.356C1.65006 241.008 -8.95942 224.051 24.7733 207.003Z" fill="#B8E7EE" stroke="#8ACAF0" stroke-width="3.46395"/>
<path d="M115 184.787C77.6399 199.658 71.2638 253.552 72.624 278.187H256.006C258.908 231.759 236.208 199.296 224.268 190.228C207.493 166.651 161.7 166.198 115 184.787Z" fill="white"/>
<path d="M267.34 242.369L253.738 210.631C261.899 208.364 274.595 189.775 278.222 184.787C281.849 179.8 288.196 163.478 288.196 145.342C288.196 127.206 296.358 124.939 299.078 124.939C301.254 124.939 303.612 130.077 304.519 132.647C316.307 161.664 308.599 176.173 303.612 197.029C299.622 213.714 277.768 234.207 267.34 242.369Z" fill="white" stroke="white" stroke-width="0.906793"/>
<path d="M72.8333 215.164C71.0197 217.703 64.521 232.242 61.4984 239.194C43.3625 256.242 17.6701 246.902 7.09082 240.101C14.194 240.101 28.7632 239.92 30.214 239.194C32.0276 238.288 47.4431 233.3 53.7906 221.512C60.1382 209.724 80.0876 191.588 81.9012 189.774C83.3521 188.323 84.6216 189.17 85.075 189.774C83.2614 191.134 75.1003 211.991 72.8333 215.164Z" fill="white" stroke="white" stroke-width="0.906793" stroke-linejoin="round"/>
<path d="M164.213 1.73242C225.714 1.73251 275.087 44.2506 275.087 96.1484C275.087 148.046 225.714 190.564 164.213 190.564C102.712 190.564 53.3389 148.046 53.3389 96.1484C53.3389 44.2506 102.712 1.73242 164.213 1.73242Z" fill="#B8E7EE" stroke="#8ACAF0" stroke-width="3.46481"/>
<path fill-rule="evenodd" clip-rule="evenodd" d="M74.7979 89.9616C76.6786 66.5962 93.058 48.8502 111.383 50.3249C128.952 51.7391 141.927 70.3075 141.311 92.4284C148.769 92.7116 156.7 92.9167 165.079 92.9167C177.43 92.9167 188.962 92.1207 199.542 91.0642C199.139 70.8969 210.305 53.7718 226.558 51.2487C244.724 48.4288 262.366 64.9202 265.962 88.0837C266.031 88.5281 266.092 88.972 266.149 89.4147C270.298 92.2615 272.488 97.0869 272.488 104.81C272.488 138.776 230.14 188.199 165.079 188.199C100.018 188.199 62.0012 148.539 62.001 114.573C62.001 103.084 66.3509 96.8893 74.626 93.7224C74.6403 92.4799 74.6961 91.2255 74.7979 89.9616Z" fill="white"/>
<path d="M164.213 70.1621C174.639 70.1622 184.015 72.2097 190.75 75.8613C197.483 79.5117 201.459 84.684 201.459 90.9512C201.459 97.2925 197.398 104.214 190.624 109.588C183.872 114.945 174.531 118.669 164.213 118.669C153.933 118.669 144.603 114.323 137.838 108.319C131.049 102.294 126.966 94.7153 126.966 88.3525C126.966 82.1223 130.898 77.602 137.617 74.5918C144.356 71.5732 153.745 70.1621 164.213 70.1621Z" fill="#F1D453" stroke="#E1BA43" stroke-width="1.7324"/>
<path d="M139.959 95.2822C139.959 95.2822 151.22 103.078 165.945 103.078C180.67 103.078 190.199 95.2822 190.199 95.2822" stroke="#583921" stroke-width="2.59861" stroke-linecap="round"/>
<path d="M100.113 82.289C100.113 82.289 101.846 77.958 107.909 77.958C113.973 77.958 115.705 82.289 115.705 82.289" stroke="#583921" stroke-width="2.59861" stroke-linecap="round"/>
<path d="M214.452 82.289C214.452 82.289 216.185 77.958 222.248 77.958C228.311 77.958 230.044 82.289 230.044 82.289" stroke="#583921" stroke-width="2.59861" stroke-linecap="round"/>
</svg>
