<svg width="264" height="247" viewBox="0 0 264 247" fill="none" xmlns="http://www.w3.org/2000/svg">
<mask id="path-1-inside-1_1706_1380" fill="white">
<path d="M193.346 75.343C196.069 75.3114 198.969 76.3834 202 78.8342C208.101 83.7665 210.943 92.038 212.094 100.129C213.249 108.242 212.739 116.425 211.911 121.521C210.647 130.868 205.361 140.445 199.375 148.555C193.763 156.159 187.454 162.583 183.021 166.473C183.854 167.563 184.57 168.914 185.186 170.375C186.004 172.313 186.685 174.532 187.244 176.775C188.36 181.26 189.011 185.943 189.27 188.899L189.279 189H189.376L189.445 193.286C189.843 218.415 169.582 239 144.45 239H77.9487C52.7938 239 32.5239 218.379 32.9556 193.228L33.019 189.479L32.9985 189.059C32.7441 183.971 33.8563 178.518 35.3149 173.811C36.1393 171.151 37.0827 168.702 37.9751 166.657C25.7016 173.765 12.5294 170.719 7.0249 168.015L6.95654 167.981L6.89209 167.938C3.52618 165.694 -0.268112 161.428 0.0151367 155.994C0.30133 150.513 4.69724 144.495 16.1948 138.684C38.4979 127.412 52.3705 117.596 56.7388 113.938C58.9573 107.851 64.566 104.163 71.8228 102.115C79.2135 100.029 88.5461 99.5671 98.4507 100.09C118.276 101.137 140.743 106.15 155.382 110.449L155.791 110.57L156.026 110.923L161.577 119.249C166.193 116.785 169.925 111.888 172.747 106.479C175.729 100.761 177.594 94.6679 178.392 90.8293L178.405 90.7688L178.423 90.7102C179.679 86.7875 182.326 81.3866 186.261 78.1448C188.252 76.5052 190.628 75.3748 193.346 75.343Z"/>
</mask>
<path d="M193.346 75.343C196.069 75.3114 198.969 76.3834 202 78.8342C208.101 83.7665 210.943 92.038 212.094 100.129C213.249 108.242 212.739 116.425 211.911 121.521C210.647 130.868 205.361 140.445 199.375 148.555C193.763 156.159 187.454 162.583 183.021 166.473C183.854 167.563 184.57 168.914 185.186 170.375C186.004 172.313 186.685 174.532 187.244 176.775C188.36 181.26 189.011 185.943 189.27 188.899L189.279 189H189.376L189.445 193.286C189.843 218.415 169.582 239 144.45 239H77.9487C52.7938 239 32.5239 218.379 32.9556 193.228L33.019 189.479L32.9985 189.059C32.7441 183.971 33.8563 178.518 35.3149 173.811C36.1393 171.151 37.0827 168.702 37.9751 166.657C25.7016 173.765 12.5294 170.719 7.0249 168.015L6.95654 167.981L6.89209 167.938C3.52618 165.694 -0.268112 161.428 0.0151367 155.994C0.30133 150.513 4.69724 144.495 16.1948 138.684C38.4979 127.412 52.3705 117.596 56.7388 113.938C58.9573 107.851 64.566 104.163 71.8228 102.115C79.2135 100.029 88.5461 99.5671 98.4507 100.09C118.276 101.137 140.743 106.15 155.382 110.449L155.791 110.57L156.026 110.923L161.577 119.249C166.193 116.785 169.925 111.888 172.747 106.479C175.729 100.761 177.594 94.6679 178.392 90.8293L178.405 90.7688L178.423 90.7102C179.679 86.7875 182.326 81.3866 186.261 78.1448C188.252 76.5052 190.628 75.3748 193.346 75.343Z" fill="#B8E7EE"/>
<path d="M193.346 75.343L193.311 72.3432L193.311 72.3432L193.346 75.343ZM202 78.8342L203.887 76.5013V76.5013L202 78.8342ZM212.094 100.129L215.064 99.7065V99.7065L212.094 100.129ZM211.911 121.521L208.95 121.039L208.943 121.079L208.938 121.119L211.911 121.521ZM199.375 148.555L201.789 150.336L201.789 150.336L199.375 148.555ZM183.021 166.473L181.042 164.218L178.935 166.067L180.638 168.295L183.021 166.473ZM185.186 170.375L187.95 169.209L187.95 169.209L185.186 170.375ZM187.244 176.775L190.155 176.05V176.05L187.244 176.775ZM189.27 188.899L192.259 188.64L192.259 188.637L189.27 188.899ZM189.279 189L186.29 189.259L186.527 192H189.279V189ZM189.376 189L192.376 188.952L192.329 186H189.376V189ZM189.445 193.286L192.444 193.239V193.239L189.445 193.286ZM77.9487 239V242V242V239ZM32.9556 193.228L35.9551 193.279L35.9551 193.279L32.9556 193.228ZM33.019 189.479L36.0186 189.53L36.0203 189.431L36.0155 189.332L33.019 189.479ZM32.9985 189.059L35.995 188.912L35.9948 188.909L32.9985 189.059ZM35.3149 173.811L32.4494 172.923L32.4494 172.923L35.3149 173.811ZM37.9751 166.657L40.7245 167.858L44.3817 159.481L36.4717 164.061L37.9751 166.657ZM7.0249 168.015L5.68326 170.698L5.69271 170.703L5.70219 170.708L7.0249 168.015ZM6.95654 167.981L5.29244 170.477L5.44785 170.58L5.6149 170.664L6.95654 167.981ZM6.89209 167.938L5.22794 170.434L5.22799 170.434L6.89209 167.938ZM0.0151367 155.994L-2.98078 155.838L-2.98079 155.838L0.0151367 155.994ZM16.1948 138.684L14.8417 136.006L14.8417 136.006L16.1948 138.684ZM56.7388 113.938L58.6648 116.238L59.2818 115.721L59.5574 114.965L56.7388 113.938ZM71.8228 102.115L71.008 99.2273L71.0079 99.2273L71.8228 102.115ZM98.4507 100.09L98.6089 97.0943L98.6089 97.0943L98.4507 100.09ZM155.382 110.449L156.229 107.571L156.228 107.571L155.382 110.449ZM155.791 110.57L158.288 108.907L157.683 107.999L156.637 107.692L155.791 110.57ZM156.026 110.923L153.529 112.586L153.53 112.587L156.026 110.923ZM161.577 119.249L159.081 120.913L160.59 123.177L162.99 121.896L161.577 119.249ZM172.747 106.479L175.406 107.866L175.406 107.866L172.747 106.479ZM178.392 90.8293L175.456 90.2137L175.455 90.2189L178.392 90.8293ZM178.405 90.7688L175.545 89.8631L175.499 90.0062L175.469 90.1532L178.405 90.7688ZM178.423 90.7102L175.566 89.7958L175.563 89.8045L178.423 90.7102ZM186.261 78.1448L184.354 75.8291L184.354 75.8292L186.261 78.1448ZM193.346 75.343L193.381 78.3428C195.237 78.3212 197.479 79.0367 200.114 81.1671L202 78.8342L203.887 76.5013C200.459 73.73 196.901 72.3015 193.311 72.3432L193.346 75.343ZM202 78.8342L200.114 81.1671C205.325 85.3797 208.009 92.7129 209.124 100.552L212.094 100.129L215.064 99.7065C213.877 91.3632 210.877 82.1533 203.887 76.5013L202 78.8342ZM212.094 100.129L209.124 100.552C210.229 108.313 209.739 116.186 208.95 121.039L211.911 121.521L214.872 122.002C215.74 116.663 216.269 108.171 215.064 99.7065L212.094 100.129ZM211.911 121.521L208.938 121.119C207.774 129.726 202.836 138.814 196.962 146.773L199.375 148.555L201.789 150.336C207.885 142.077 213.52 132.01 214.884 121.923L211.911 121.521ZM199.375 148.555L196.962 146.773C191.492 154.184 185.334 160.452 181.042 164.218L183.021 166.473L185 168.728C189.574 164.714 196.034 158.134 201.789 150.336L199.375 148.555ZM183.021 166.473L180.638 168.295C181.263 169.112 181.862 170.215 182.422 171.541L185.186 170.375L187.95 169.209C187.277 167.614 186.446 166.013 185.404 164.651L183.021 166.473ZM185.186 170.375L182.422 171.541C183.16 173.29 183.797 175.348 184.333 177.499L187.244 176.775L190.155 176.05C189.573 173.715 188.848 171.337 187.95 169.209L185.186 170.375ZM187.244 176.775L184.333 177.499C185.404 181.803 186.033 186.329 186.281 189.161L189.27 188.899L192.259 188.637C191.988 185.558 191.316 180.716 190.155 176.05L187.244 176.775ZM189.27 188.899L186.281 189.157L186.29 189.259L189.279 189L192.268 188.742L192.259 188.64L189.27 188.899ZM189.279 189V192H189.376V189V186H189.279V189ZM189.376 189L186.377 189.048L186.445 193.334L189.445 193.286L192.444 193.239L192.376 188.952L189.376 189ZM189.445 193.286L186.445 193.334C186.817 216.787 167.906 236 144.45 236V239V242C171.257 242 192.87 220.043 192.444 193.239L189.445 193.286ZM144.45 239V236H77.9487V239V242H144.45V239ZM77.9487 239V236C54.4709 236 35.5523 216.754 35.9551 193.279L32.9556 193.228L29.956 193.176C29.4956 220.004 51.1168 242 77.9487 242V239ZM32.9556 193.228L35.9551 193.279L36.0186 189.53L33.019 189.479L30.0195 189.428L29.956 193.177L32.9556 193.228ZM33.019 189.479L36.0155 189.332L35.995 188.912L32.9985 189.059L30.0021 189.205L30.0226 189.625L33.019 189.479ZM32.9985 189.059L35.9948 188.909C35.765 184.312 36.774 179.238 38.1805 174.699L35.3149 173.811L32.4494 172.923C30.9385 177.798 29.7233 183.63 30.0023 189.209L32.9985 189.059ZM35.3149 173.811L38.1805 174.699C38.9686 172.156 39.8718 169.811 40.7245 167.858L37.9751 166.657L35.2257 165.457C34.2937 167.592 33.3101 170.145 32.4494 172.923L35.3149 173.811ZM37.9751 166.657L36.4717 164.061C25.3297 170.514 13.2675 167.739 8.34761 165.322L7.0249 168.015L5.70219 170.708C11.7913 173.699 26.0734 177.017 39.4785 169.254L37.9751 166.657ZM7.0249 168.015L8.36654 165.332L8.29818 165.297L6.95654 167.981L5.6149 170.664L5.68326 170.698L7.0249 168.015ZM6.95654 167.981L8.62064 165.485L8.55619 165.442L6.89209 167.938L5.22799 170.434L5.29244 170.477L6.95654 167.981ZM6.89209 167.938L8.55624 165.442C5.5787 163.457 2.808 160.046 3.01107 156.151L0.0151367 155.994L-2.98079 155.838C-3.34422 162.809 1.47367 167.931 5.22794 170.434L6.89209 167.938ZM0.0151367 155.994L3.01106 156.151C3.21065 152.328 6.33809 147.027 17.548 141.361L16.1948 138.684L14.8417 136.006C3.05639 141.962 -2.60799 148.698 -2.98078 155.838L0.0151367 155.994ZM16.1948 138.684L17.548 141.361C39.9916 130.019 54.0729 120.083 58.6648 116.238L56.7388 113.938L54.8128 111.638C50.6681 115.108 37.0042 124.806 14.8417 136.006L16.1948 138.684ZM56.7388 113.938L59.5574 114.965C61.3011 110.181 65.8094 106.929 72.6376 105.002L71.8228 102.115L71.0079 99.2273C63.3226 101.396 56.6135 105.52 53.9201 112.91L56.7388 113.938ZM71.8228 102.115L72.6375 105.002C79.5687 103.046 88.5237 102.57 98.2925 103.086L98.4507 100.09L98.6089 97.0943C88.5684 96.5641 78.8583 97.0119 71.008 99.2273L71.8228 102.115ZM98.4507 100.09L98.2925 103.086C117.805 104.116 140.029 109.067 154.537 113.328L155.382 110.449L156.228 107.571C141.458 103.233 118.748 98.1578 98.6089 97.0943L98.4507 100.09ZM155.382 110.449L154.535 113.327L154.944 113.448L155.791 110.57L156.637 107.692L156.229 107.571L155.382 110.449ZM155.791 110.57L153.293 112.232L153.529 112.586L156.026 110.923L158.523 109.261L158.288 108.907L155.791 110.57ZM156.026 110.923L153.53 112.587L159.081 120.913L161.577 119.249L164.073 117.585L158.522 109.259L156.026 110.923ZM161.577 119.249L162.99 121.896C168.395 119.009 172.48 113.476 175.406 107.866L172.747 106.479L170.087 105.091C167.37 110.299 163.99 114.56 160.164 116.603L161.577 119.249ZM172.747 106.479L175.406 107.866C178.536 101.868 180.484 95.5068 181.329 91.4398L178.392 90.8293L175.455 90.2189C174.705 93.829 172.923 99.6538 170.087 105.091L172.747 106.479ZM178.392 90.8293L181.328 91.445L181.341 91.3844L178.405 90.7688L175.469 90.1532L175.456 90.2137L178.392 90.8293ZM178.405 90.7688L181.265 91.6745L181.283 91.6159L178.423 90.7102L175.563 89.8045L175.545 89.8631L178.405 90.7688ZM178.423 90.7102L181.281 91.6246C182.456 87.9519 184.87 83.1778 188.169 80.4604L186.261 78.1448L184.354 75.8292C179.782 79.5955 176.901 85.623 175.566 89.7958L178.423 90.7102ZM186.261 78.1448L188.168 80.4605C189.783 79.131 191.52 78.3646 193.381 78.3428L193.346 75.343L193.311 72.3432C189.735 72.385 186.721 73.8795 184.354 75.8291L186.261 78.1448Z" fill="#8ACAF0" mask="url(#path-1-inside-1_1706_1380)"/>
<path d="M180.455 163.598L171.273 142.176C176.782 140.645 185.351 128.098 187.8 124.731C190.248 121.365 194.533 110.347 194.533 98.1054C194.533 85.8637 200.041 84.3335 201.878 84.3335C203.347 84.3335 204.938 87.802 205.55 89.5362C213.507 109.123 208.305 118.916 204.938 132.994C202.245 144.257 187.494 158.09 180.455 163.598Z" fill="white" stroke="white" stroke-width="0.612085"/>
<path d="M49.1628 145.236C47.9386 146.95 43.552 156.764 41.5117 161.456C29.27 172.963 11.9276 166.659 4.78662 162.068C9.58129 162.068 19.4154 161.946 20.3948 161.456C21.619 160.844 32.0244 157.478 36.309 149.521C40.5936 141.563 54.0595 129.322 55.2836 128.098C56.263 127.118 57.1199 127.69 57.4259 128.098C56.2018 129.016 50.693 143.094 49.1628 145.236Z" fill="white" stroke="white" stroke-width="0.612085" stroke-linejoin="round"/>
<circle cx="112.669" cy="171.5" r="51.5" fill="white"/>
<path d="M110.843 1.16895C152.356 1.16895 185.683 29.8693 185.683 64.9004C185.682 99.9314 152.356 128.631 110.843 128.631C69.33 128.631 36.0031 99.9312 36.0029 64.9004C36.0029 29.8694 69.3299 1.16914 110.843 1.16895Z" fill="#B8E7EE" stroke="#8ACAF0" stroke-width="2.33875"/>
<path fill-rule="evenodd" clip-rule="evenodd" d="M50.4883 60.7246C51.7578 44.9528 62.8143 32.9741 75.1836 33.9697C87.0423 34.9244 95.7996 47.4573 95.3838 62.3886C100.419 62.5798 105.772 62.7187 111.429 62.7187C119.765 62.7187 127.549 62.1809 134.69 61.4677C134.419 47.8552 141.955 36.2959 152.926 34.5927C165.188 32.6891 177.097 43.8207 179.524 59.456C179.571 59.7562 179.611 60.0564 179.65 60.3554C182.451 62.277 183.93 65.5336 183.93 70.747C183.93 93.6738 155.345 127.034 111.429 127.034C67.5127 127.034 41.8508 100.264 41.8506 77.3369C41.8506 69.5814 44.7871 65.4003 50.373 63.2627C50.3827 62.4241 50.4196 61.5775 50.4883 60.7246Z" fill="white"/>
<path d="M110.843 47.3599C117.881 47.3599 124.209 48.7417 128.755 51.2065C133.3 53.6706 135.985 57.1617 135.985 61.3921C135.985 65.6725 133.243 70.3444 128.67 73.9722C124.113 77.5879 117.808 80.102 110.843 80.1021C103.904 80.1021 97.6059 77.1685 93.0396 73.1157C88.4573 69.0487 85.7017 63.933 85.7017 59.6382C85.7017 55.4328 88.3555 52.381 92.8911 50.3491C97.4395 48.3117 103.778 47.3599 110.843 47.3599Z" fill="#F1D453" stroke="#E1BA43" stroke-width="1.16937"/>
<path d="M94.4722 64.3154C94.4722 64.3154 102.073 69.5776 112.013 69.5776C121.952 69.5776 128.384 64.3154 128.384 64.3154" stroke="#583921" stroke-width="1.75406" stroke-linecap="round"/>
<path d="M67.5767 55.5453C67.5767 55.5453 68.746 52.6218 72.8388 52.6218C76.9316 52.6218 78.101 55.5453 78.101 55.5453" stroke="#583921" stroke-width="1.75406" stroke-linecap="round"/>
<path d="M144.755 55.5453C144.755 55.5453 145.924 52.6218 150.017 52.6218C154.11 52.6218 155.279 55.5453 155.279 55.5453" stroke="#583921" stroke-width="1.75406" stroke-linecap="round"/>
<path d="M68.4805 230.156C76.5743 230.156 83.5525 230.796 88.6162 232.034C91.1518 232.654 93.1462 233.41 94.5498 234.269C95.901 235.095 96.577 235.936 96.7998 236.729C96.8034 237.799 96.8377 238.704 96.543 239.618C96.261 240.493 95.6396 241.448 94.0811 242.361C92.4826 243.298 89.9135 244.179 85.7871 244.818C81.6724 245.456 76.0784 245.844 68.4805 245.844C60.8822 245.844 55.2877 245.456 51.1729 244.818C47.0464 244.179 44.4773 243.298 42.8789 242.361C41.3204 241.448 40.699 240.493 40.417 239.618C40.1214 238.702 40.1557 237.794 40.1592 236.72C40.3855 235.811 41.0764 234.921 42.4189 234.082C43.8132 233.211 45.7987 232.47 48.333 231.877C53.395 230.692 60.3732 230.156 68.4805 230.156Z" fill="#B8E7EE" stroke="#8ACAF0" stroke-width="2.31216"/>
<path d="M158.48 230.156C166.574 230.156 173.553 230.796 178.616 232.034C181.152 232.654 183.146 233.41 184.55 234.269C185.901 235.095 186.577 235.936 186.8 236.729C186.803 237.799 186.838 238.704 186.543 239.618C186.261 240.493 185.64 241.448 184.081 242.361C182.483 243.298 179.914 244.179 175.787 244.818C171.672 245.456 166.078 245.844 158.48 245.844C150.882 245.844 145.288 245.456 141.173 244.818C137.046 244.179 134.477 243.298 132.879 242.361C131.32 241.448 130.699 240.493 130.417 239.618C130.121 238.702 130.156 237.794 130.159 236.72C130.386 235.811 131.076 234.921 132.419 234.082C133.813 233.211 135.799 232.47 138.333 231.877C143.395 230.692 150.373 230.156 158.48 230.156Z" fill="#B8E7EE" stroke="#8ACAF0" stroke-width="2.31216"/>
<g clip-path="url(#clip0_1706_1380)">
<path d="M243.917 146.173C245.128 146.653 245.788 146.913 246.33 147.676C247.354 149.119 247.562 150.545 247.222 151.708C246.883 152.871 245.943 153.953 244.311 154.606L244.306 154.608C244.119 154.684 243.927 154.749 243.731 154.803L242.767 155.066L242.875 156.06C243.037 157.562 242.933 159.187 242.871 160.867L242.821 162.198L244.147 162.079C246.043 161.908 248.505 162.123 250.903 162.714C253.311 163.308 255.53 164.251 257.009 165.446C258.488 166.641 259.424 167.65 260.151 168.768C260.795 169.757 261.301 170.87 261.863 172.355L262.107 173.016C262.179 173.214 262.241 173.529 262.337 173.988C262.38 174.19 262.43 174.419 262.489 174.627C262.515 174.718 262.551 174.835 262.601 174.962V189.015C262.374 189.708 262.202 190.531 262.037 191.301C261.856 192.141 261.672 192.965 261.417 193.729C260.77 195.611 259.888 197.403 258.788 199.061L258.786 199.063C253.828 206.589 246.745 208.591 238.373 208.564L237.559 208.556C237.16 208.548 236.876 208.742 236.825 208.775C236.719 208.845 236.63 208.921 236.569 208.978C236.443 209.094 236.311 209.236 236.192 209.372C235.948 209.651 235.658 210.014 235.383 210.361C235.1 210.721 234.832 211.065 234.605 211.345C234.493 211.483 234.401 211.593 234.331 211.672C234.302 211.704 234.282 211.724 234.271 211.735L234.225 211.77L234.149 211.851C229.404 216.888 222.393 220.823 215.531 221.579L214.477 221.695L214.487 222.757C214.522 226.347 214.533 229.937 214.518 233.527V233.532C214.518 235.252 214.605 238.211 214.461 239.625L214.328 240.937L215.646 240.916C216.246 240.907 218.124 240.849 219.945 240.859C220.855 240.865 221.721 240.887 222.383 240.938C222.579 240.952 222.746 240.97 222.885 240.988C222.892 241.037 222.902 241.09 222.909 241.147C222.963 241.596 223.001 242.191 223.025 242.826C223.073 244.092 223.062 245.41 223.044 245.827H195.017C195.003 245.74 194.992 245.657 194.987 245.583L194.982 245.372C195.061 243.867 195.001 242.744 194.967 241.954C194.95 241.548 194.943 241.275 194.955 241.07C194.956 241.044 194.96 241.02 194.961 240.999C195.029 240.985 195.127 240.969 195.263 240.955C195.876 240.893 196.818 240.908 198.395 240.917H198.405C199.888 240.914 201.371 240.896 202.853 240.865L204.025 240.841L204 239.669C203.925 236.005 204.019 232.321 203.992 228.576C203.98 227.017 203.869 223.925 203.987 222.696L204.098 221.537L202.94 221.418C199.921 221.107 195.615 219.499 192.852 217.96C191.275 217.082 189.147 215.603 187.196 213.931C185.222 212.238 183.55 210.449 182.764 208.965L182.37 208.22L181.538 208.356C178.715 208.821 175.389 208.548 172.207 207.648C169.023 206.748 166.074 205.245 163.972 203.333C162.413 201.915 162.364 201.712 161.009 200.031C155.792 193.558 156.105 185.495 156.283 177.09C156.374 172.964 158.045 168.775 161.041 166.032L161.042 166.031C162.605 164.595 164.935 163.517 167.507 162.834C170.066 162.154 172.756 161.894 174.946 162.012L176.147 162.076L176.181 160.874C176.206 159.989 176.177 159.127 176.166 158.336C176.154 157.528 176.159 156.755 176.243 155.947L176.363 154.788L175.204 154.661C174.738 154.61 174.177 154.386 173.632 154.012C173.09 153.64 172.642 153.174 172.375 152.738C171.752 151.721 171.566 150.422 171.841 149.258C172.114 148.108 172.813 147.166 173.895 146.71V146.709C174.161 146.597 174.679 146.406 175.133 146.173H243.917ZM242.906 170.17C243.115 174.17 242.918 178.436 242.945 182.593C242.984 188.67 243.414 193.942 241.364 199.352L240.712 201.069L242.544 200.937C244.246 200.814 245.643 200.625 246.975 200.153C248.321 199.676 249.529 198.935 250.911 197.805L250.948 197.774L250.982 197.741C252.712 196.072 253.921 194.532 254.688 192.729C255.454 190.931 255.738 188.967 255.781 186.522V186.512C255.793 185.078 255.797 183.644 255.793 182.21C255.789 179.422 255.93 176.963 254.373 174.061C252.076 169.782 248.008 169.126 244.133 168.938L242.837 168.875L242.906 170.17ZM175.399 169.099C174.805 168.863 174.185 168.972 174.034 168.989C171.296 169.081 169.151 169.708 167.508 170.822C165.845 171.95 164.798 173.508 164.152 175.264C162.896 178.677 163.104 183.046 163.236 186.922C163.371 190.895 164.565 195.953 168.635 198.419C170.389 199.753 172.27 200.291 174.156 200.688L174.972 200.853C175.146 200.887 175.47 200.954 175.805 200.965C176.133 200.976 176.643 200.943 177.113 200.629L177.457 200.398L177.58 200.005C177.643 199.802 177.644 199.619 177.643 199.548C177.642 199.451 177.634 199.356 177.625 199.274C177.606 199.11 177.574 198.923 177.538 198.736C177.464 198.359 177.358 197.896 177.248 197.442C177.014 196.484 176.783 195.619 176.718 195.31C175.969 191.709 176.155 188.101 176.156 184.208V184.206L176.138 170.187L176.137 169.393L175.399 169.099Z" fill="#FFE23F" stroke="#F2CE00" stroke-width="2.34483"/>
<path d="M208.863 167.434C209.403 167.393 209.97 167.335 210.49 167.525C213.009 168.444 213.208 173.19 215.413 174.739C217.396 176.134 220.384 175.3 222.525 176.221C223.289 176.55 223.807 177.154 224.104 177.923C225.169 180.683 220.09 183.007 219.06 185.172C217.969 187.463 220.352 191.623 219.33 193.876C219.034 194.53 218.354 195.155 217.674 195.389C216.065 195.943 211.684 192.979 210.068 192.218C206.833 192.025 202.907 197.619 200.158 194.499C198.509 192.627 200.412 188.903 200.396 186.64C200.367 182.446 191.36 180.685 196.441 176.133C198.18 175.863 201.848 175.589 203.285 174.963C205.851 173.846 205.902 168.543 208.863 167.434Z" fill="#FFF6C2"/>
</g>
<defs>
<clipPath id="clip0_1706_1380">
<rect width="108.773" height="102" fill="white" transform="translate(155 145)"/>
</clipPath>
</defs>
</svg>
