<svg width="339" height="267" viewBox="0 0 339 267" fill="none" xmlns="http://www.w3.org/2000/svg">
<path d="M88.5863 191.452C64.5432 190.65 53.4122 168.411 50.852 157.391C20.6646 168.344 5.99393 145.703 2.43202 133.014C-2.91089 115.916 7.9975 98.9527 14.1196 92.608C-5.38205 70.435 3.9903 49.7535 11.1142 42.1844C20.7314 24.5528 44.7299 26.3783 55.5271 29.495C61.0926 18.5866 77.9673 -2.29524 100.942 1.44479C123.916 5.18483 132.109 23.7069 133.333 32.5005C155.239 25.8218 172.069 39.7356 177.746 47.5274C194.309 74.5091 178.191 92.6082 168.062 98.285C180.084 110.039 179.527 123.219 177.746 128.339C171.869 155.32 145.021 157.168 132.331 154.719C121.646 186.243 98.7155 192.342 88.5863 191.452Z" fill="#FF8F57" stroke="#F15B2C" stroke-width="2.00359" stroke-linecap="round"/>
<mask id="path-2-inside-1_1717_294" fill="white">
<path fill-rule="evenodd" clip-rule="evenodd" d="M47.1792 37.5093C53.5308 37.5093 58.9614 41.4502 61.1607 47.02C71.1748 41.9441 82.7822 39.2341 95.4078 40.0229C107.775 40.7958 118.954 44.3748 128.416 49.8882C131.034 45.4759 135.846 42.5181 141.348 42.5181C149.647 42.5181 156.376 49.2463 156.376 57.5454C156.375 62.5932 153.886 67.0588 150.068 69.7837C157.326 80.3046 161.095 92.5878 160.325 104.908C158.367 136.232 126.146 154.405 86.646 151.937C47.146 149.469 22.4592 131.982 24.4165 100.659C25.1998 88.1262 30.3974 75.5209 38.8814 65.0649C34.8264 62.3739 32.153 57.7679 32.1529 52.5366C32.1529 44.2375 38.8802 37.5093 47.1792 37.5093Z"/>
</mask>
<path fill-rule="evenodd" clip-rule="evenodd" d="M47.1792 37.5093C53.5308 37.5093 58.9614 41.4502 61.1607 47.02C71.1748 41.9441 82.7822 39.2341 95.4078 40.0229C107.775 40.7958 118.954 44.3748 128.416 49.8882C131.034 45.4759 135.846 42.5181 141.348 42.5181C149.647 42.5181 156.376 49.2463 156.376 57.5454C156.375 62.5932 153.886 67.0588 150.068 69.7837C157.326 80.3046 161.095 92.5878 160.325 104.908C158.367 136.232 126.146 154.405 86.646 151.937C47.146 149.469 22.4592 131.982 24.4165 100.659C25.1998 88.1262 30.3974 75.5209 38.8814 65.0649C34.8264 62.3739 32.153 57.7679 32.1529 52.5366C32.1529 44.2375 38.8802 37.5093 47.1792 37.5093Z" fill="#FECE6D"/>
<path d="M47.1792 37.5093V35.5057H47.1792L47.1792 37.5093ZM61.1607 47.02L59.2971 47.7559L60.1048 49.8015L62.0665 48.8071L61.1607 47.02ZM95.4078 40.0229L95.5327 38.0233L95.5327 38.0233L95.4078 40.0229ZM128.416 49.8882L127.407 51.6193L129.124 52.6201L130.139 50.9106L128.416 49.8882ZM141.348 42.5181V40.5145H141.348L141.348 42.5181ZM156.376 57.5454L158.379 57.5454V57.5454H156.376ZM150.068 69.7837L148.904 68.1529L147.299 69.2984L148.419 70.9214L150.068 69.7837ZM160.325 104.908L162.324 105.033V105.033L160.325 104.908ZM86.646 151.937L86.5211 153.937H86.5211L86.646 151.937ZM24.4165 100.659L22.4169 100.534L22.4169 100.534L24.4165 100.659ZM38.8814 65.0649L40.4372 66.3274L41.8267 64.6149L39.9893 63.3955L38.8814 65.0649ZM32.1529 52.5366H30.1493V52.5367L32.1529 52.5366ZM47.1792 37.5093V39.5129C52.6806 39.5129 57.3896 42.925 59.2971 47.7559L61.1607 47.02L63.0243 46.2842C60.5332 39.9754 54.381 35.5057 47.1792 35.5057V37.5093ZM61.1607 47.02L62.0665 48.8071C71.7752 43.886 83.028 41.2569 95.2828 42.0226L95.4078 40.0229L95.5327 38.0233C82.5363 37.2112 70.5744 40.0022 60.2548 45.2329L61.1607 47.02ZM95.4078 40.0229L95.2828 42.0226C107.338 42.7759 118.214 46.2626 127.407 51.6193L128.416 49.8882L129.424 48.157C119.694 42.4871 108.212 38.8156 95.5327 38.0233L95.4078 40.0229ZM128.416 49.8882L130.139 50.9106C132.411 47.0814 136.582 44.5217 141.348 44.5217L141.348 42.5181L141.348 40.5145C135.109 40.5145 129.656 43.8704 126.692 48.8658L128.416 49.8882ZM141.348 42.5181V44.5217C148.541 44.5217 154.372 50.3528 154.372 57.5454H156.376H158.379C158.379 48.1397 150.754 40.5145 141.348 40.5145V42.5181ZM156.376 57.5454L154.372 57.5454C154.372 61.9182 152.218 65.7877 148.904 68.1529L150.068 69.7837L151.232 71.4145C155.553 68.33 158.379 63.2683 158.379 57.5454L156.376 57.5454ZM150.068 69.7837L148.419 70.9214C155.449 81.1129 159.064 92.9577 158.325 104.783L160.325 104.908L162.324 105.033C163.125 92.218 159.202 79.4963 151.717 68.646L150.068 69.7837ZM160.325 104.908L158.325 104.783C157.393 119.702 149.281 131.527 136.513 139.388C123.704 147.275 106.207 151.152 86.771 149.937L86.646 151.937L86.5211 153.937C106.586 155.19 124.949 151.214 138.614 142.801C152.322 134.361 161.299 121.438 162.324 105.033L160.325 104.908ZM86.646 151.937L86.771 149.937C67.2453 148.717 51.6532 143.795 41.2279 135.547C30.8965 127.374 25.477 115.814 26.4162 100.784L24.4165 100.659L22.4169 100.534C21.3987 116.827 27.3439 129.673 38.7416 138.69C50.0454 147.633 66.5467 152.688 86.5211 153.937L86.646 151.937ZM24.4165 100.659L26.4162 100.784C27.1708 88.7091 32.1883 76.4937 40.4372 66.3274L38.8814 65.0649L37.3255 63.8025C28.6066 74.5481 23.2287 87.5434 22.4169 100.534L24.4165 100.659ZM38.8814 65.0649L39.9893 63.3955C36.4698 61.0598 34.1566 57.0682 34.1565 52.5366L32.1529 52.5366L30.1493 52.5367C30.1495 58.4676 33.1831 63.688 37.7735 66.7344L38.8814 65.0649ZM32.1529 52.5366H34.1565C34.1565 45.3439 39.9869 39.5129 47.1793 39.5129L47.1792 37.5093L47.1792 35.5057C37.7734 35.5058 30.1493 43.1311 30.1493 52.5366H32.1529Z" fill="#F59313" mask="url(#path-2-inside-1_1717_294)"/>
<path d="M109.926 94.5493C109.926 94.5493 110.469 90.207 115.896 90.207C121.324 90.207 121.867 94.5493 121.867 94.5493" stroke="#5E3916" stroke-width="2.17111" stroke-linecap="round"/>
<path d="M79.9038 79.9188C83.6884 82.5902 92.1257 86.3302 95.5986 79.9188C96.8647 77.5812 98.27 72.871 92.5932 72.5723C90.4783 72.4609 86.5157 73.3069 87.5842 77.5812C89.2539 81.5884 94.7304 87.0649 104.615 80.9206" stroke="#603C1F" stroke-width="2.00359" stroke-linecap="round"/>
<ellipse cx="127.657" cy="102.96" rx="8.01436" ry="5.67684" fill="#F78F8B"/>
<ellipse cx="56.863" cy="99.6207" rx="8.01436" ry="5.67684" fill="#F78F8B"/>
<rect x="48.1802" y="178.094" width="41.4075" height="20.0359" fill="#FECE6D"/>
<mask id="path-9-inside-2_1717_294" fill="white">
<path fill-rule="evenodd" clip-rule="evenodd" d="M135.618 136.426C141.069 130.053 147.682 124.333 156.96 126.796C160.064 127.621 162.362 129.245 163.973 131.453C165.556 133.622 166.398 136.246 166.821 138.979C167.657 144.378 166.926 150.797 166.407 156.238C165.651 164.155 161.654 170.783 157.12 176.11C152.886 181.084 148.029 185.095 144.711 187.992V201.072H144.668V221.667C144.668 242.41 127.852 259.227 107.108 259.227H75.1823C54.4385 259.227 37.6217 242.41 37.6217 221.667V198.192H37.8024V187.992C34.4837 185.095 29.6278 181.083 25.3942 176.11C20.8595 170.783 16.8627 164.155 16.1071 156.238C15.5878 150.797 14.8574 144.378 15.693 138.979C16.1161 136.246 16.9574 133.622 18.5406 131.453C20.152 129.245 22.4499 127.621 25.5543 126.796C34.8315 124.333 41.4451 130.053 46.8961 136.426C50.1171 140.193 50.928 144.86 51.3385 148.835C51.556 150.942 51.6466 152.659 51.8717 154.363C52.0856 155.982 52.385 157.189 52.8502 158.057C52.852 158.059 52.854 158.061 52.8561 158.063C52.9082 158.109 53.0163 158.193 53.2067 158.308C53.5751 158.53 54.1249 158.789 54.8785 159.074C56.3822 159.641 58.4854 160.23 61.0885 160.819C66.2817 161.993 73.2459 163.118 80.8951 164.073C84.2555 164.492 87.7409 164.874 91.2565 165.216C94.7723 164.874 98.2581 164.492 101.619 164.073C109.268 163.118 116.232 161.993 121.425 160.819C124.028 160.23 126.131 159.641 127.634 159.074C128.388 158.789 128.939 158.53 129.307 158.308C129.498 158.194 129.605 158.109 129.657 158.063C129.659 158.061 129.66 158.059 129.662 158.057C130.127 157.189 130.428 155.982 130.642 154.363C130.867 152.659 130.957 150.942 131.174 148.835C131.585 144.86 132.397 140.193 135.618 136.426Z"/>
</mask>
<path fill-rule="evenodd" clip-rule="evenodd" d="M135.618 136.426C141.069 130.053 147.682 124.333 156.96 126.796C160.064 127.621 162.362 129.245 163.973 131.453C165.556 133.622 166.398 136.246 166.821 138.979C167.657 144.378 166.926 150.797 166.407 156.238C165.651 164.155 161.654 170.783 157.12 176.11C152.886 181.084 148.029 185.095 144.711 187.992V201.072H144.668V221.667C144.668 242.41 127.852 259.227 107.108 259.227H75.1823C54.4385 259.227 37.6217 242.41 37.6217 221.667V198.192H37.8024V187.992C34.4837 185.095 29.6278 181.083 25.3942 176.11C20.8595 170.783 16.8627 164.155 16.1071 156.238C15.5878 150.797 14.8574 144.378 15.693 138.979C16.1161 136.246 16.9574 133.622 18.5406 131.453C20.152 129.245 22.4499 127.621 25.5543 126.796C34.8315 124.333 41.4451 130.053 46.8961 136.426C50.1171 140.193 50.928 144.86 51.3385 148.835C51.556 150.942 51.6466 152.659 51.8717 154.363C52.0856 155.982 52.385 157.189 52.8502 158.057C52.852 158.059 52.854 158.061 52.8561 158.063C52.9082 158.109 53.0163 158.193 53.2067 158.308C53.5751 158.53 54.1249 158.789 54.8785 159.074C56.3822 159.641 58.4854 160.23 61.0885 160.819C66.2817 161.993 73.2459 163.118 80.8951 164.073C84.2555 164.492 87.7409 164.874 91.2565 165.216C94.7723 164.874 98.2581 164.492 101.619 164.073C109.268 163.118 116.232 161.993 121.425 160.819C124.028 160.23 126.131 159.641 127.634 159.074C128.388 158.789 128.939 158.53 129.307 158.308C129.498 158.194 129.605 158.109 129.657 158.063C129.659 158.061 129.66 158.059 129.662 158.057C130.127 157.189 130.428 155.982 130.642 154.363C130.867 152.659 130.957 150.942 131.174 148.835C131.585 144.86 132.397 140.193 135.618 136.426Z" fill="#FECE6D"/>
<path d="M135.618 136.426L134.098 135.126L134.098 135.126L135.618 136.426ZM156.96 126.796L157.473 124.863L157.473 124.863L156.96 126.796ZM163.973 131.453L165.589 130.274L165.589 130.274L163.973 131.453ZM166.821 138.979L168.797 138.673L168.797 138.673L166.821 138.979ZM166.407 156.238L168.398 156.428L168.398 156.428L166.407 156.238ZM157.12 176.11L158.643 177.406L158.643 177.406L157.12 176.11ZM144.711 187.992L143.395 186.485L142.711 187.083V187.992H144.711ZM144.711 201.072V203.072H146.711V201.072H144.711ZM144.668 201.072V199.072H142.668V201.072H144.668ZM107.108 259.227V261.227H107.108L107.108 259.227ZM37.6217 198.192V196.192H35.6216V198.192H37.6217ZM37.8024 198.192V200.192H39.8024V198.192H37.8024ZM37.8024 187.992H39.8024V187.083L39.1176 186.485L37.8024 187.992ZM25.3942 176.11L23.8712 177.406L23.8712 177.406L25.3942 176.11ZM16.1071 156.238L14.116 156.428L14.116 156.428L16.1071 156.238ZM15.693 138.979L13.7165 138.673L13.7165 138.673L15.693 138.979ZM18.5406 131.453L16.9251 130.274L16.925 130.274L18.5406 131.453ZM25.5543 126.796L25.041 124.863L25.0409 124.863L25.5543 126.796ZM46.8961 136.426L48.4161 135.126L48.4161 135.126L46.8961 136.426ZM51.3385 148.835L53.328 148.63L53.328 148.63L51.3385 148.835ZM51.8717 154.363L49.8889 154.625L49.8889 154.625L51.8717 154.363ZM52.8502 158.057L51.0875 159.002L51.2423 159.291L51.4812 159.515L52.8502 158.057ZM52.8561 158.063L51.529 159.559L51.5302 159.56L52.8561 158.063ZM53.2067 158.308L52.1749 160.022L52.1752 160.022L53.2067 158.308ZM54.8785 159.074L54.1724 160.945L54.1725 160.945L54.8785 159.074ZM61.0885 160.819L60.6473 162.77L60.6473 162.77L61.0885 160.819ZM80.8951 164.073L80.6474 166.057V166.057L80.8951 164.073ZM91.2565 165.216L91.0625 167.207L91.2565 167.226L91.4504 167.207L91.2565 165.216ZM101.619 164.073L101.866 166.057H101.867L101.619 164.073ZM121.425 160.819L121.867 162.77L121.867 162.77L121.425 160.819ZM127.634 159.074L128.34 160.945L128.341 160.945L127.634 159.074ZM129.307 158.308L130.339 160.022L130.339 160.021L129.307 158.308ZM129.657 158.063L130.983 159.56L130.983 159.56L129.657 158.063ZM129.662 158.057L131.023 159.523L131.267 159.296L131.424 159.003L129.662 158.057ZM130.642 154.363L132.625 154.625L132.625 154.625L130.642 154.363ZM131.174 148.835L129.185 148.63L129.185 148.63L131.174 148.835ZM135.618 136.426L137.138 137.726C142.562 131.385 148.421 126.598 156.446 128.73L156.96 126.796L157.473 124.863C146.944 122.067 139.576 128.721 134.098 135.126L135.618 136.426ZM156.96 126.796L156.446 128.729C159.126 129.441 161.028 130.809 162.358 132.632L163.973 131.453L165.589 130.274C163.697 127.681 161.002 125.801 157.473 124.863L156.96 126.796ZM163.973 131.453L162.358 132.632C163.689 134.456 164.45 136.74 164.844 139.285L166.821 138.979L168.797 138.673C168.345 135.753 167.424 132.789 165.589 130.274L163.973 131.453ZM166.821 138.979L164.844 139.285C165.633 144.378 164.945 150.501 164.416 156.048L166.407 156.238L168.398 156.428C168.907 151.093 169.68 144.378 168.797 138.673L166.821 138.979ZM166.407 156.238L164.416 156.048C163.715 163.396 159.994 169.647 155.597 174.813L157.12 176.11L158.643 177.406C163.314 171.918 167.588 164.914 168.398 156.428L166.407 156.238ZM157.12 176.11L155.597 174.813C151.483 179.646 146.766 183.543 143.395 186.485L144.711 187.992L146.026 189.499C149.292 186.647 154.289 182.521 158.643 177.406L157.12 176.11ZM144.711 187.992H142.711V201.072H144.711H146.711V187.992H144.711ZM144.711 201.072V199.072H144.668V201.072V203.072H144.711V201.072ZM144.668 201.072H142.668V221.667H144.668H146.668V201.072H144.668ZM144.668 221.667H142.668C142.668 241.306 126.747 257.227 107.108 257.227L107.108 259.227L107.108 261.227C128.956 261.227 146.668 243.515 146.668 221.667H144.668ZM107.108 259.227V257.227H75.1823V259.227V261.227H107.108V259.227ZM75.1823 259.227V257.227C55.5431 257.227 39.6218 241.306 39.6218 221.667H37.6217H35.6216C35.6216 243.515 53.3339 261.227 75.1823 261.227V259.227ZM37.6217 221.667H39.6218V198.192H37.6217H35.6216V221.667H37.6217ZM37.6217 198.192V200.192H37.8024V198.192V196.192H37.6217V198.192ZM37.8024 198.192H39.8024V187.992H37.8024H35.8023V198.192H37.8024ZM37.8024 187.992L39.1176 186.485C35.747 183.543 31.0308 179.646 26.9172 174.813L25.3942 176.11L23.8712 177.406C28.2247 182.521 33.2205 186.647 36.4872 189.499L37.8024 187.992ZM25.3942 176.11L26.9172 174.813C22.5194 169.647 18.7994 163.396 18.0981 156.048L16.1071 156.238L14.116 156.428C14.926 164.914 19.1995 171.918 23.8712 177.406L25.3942 176.11ZM16.1071 156.238L18.0981 156.048C17.5687 150.5 16.8813 144.378 17.6695 139.285L15.693 138.979L13.7165 138.673C12.8335 144.378 13.6069 151.093 14.116 156.428L16.1071 156.238ZM15.693 138.979L17.6695 139.285C18.0636 136.74 18.8253 134.456 20.1563 132.632L18.5406 131.453L16.925 130.274C15.0896 132.789 14.1686 135.753 13.7165 138.673L15.693 138.979ZM18.5406 131.453L20.1562 132.632C21.4865 130.809 23.3879 129.441 26.0677 128.729L25.5543 126.796L25.0409 124.863C21.5118 125.801 18.8175 127.681 16.9251 130.274L18.5406 131.453ZM25.5543 126.796L26.0677 128.729C34.0927 126.598 39.9524 131.385 45.3762 137.726L46.8961 136.426L48.4161 135.126C42.9378 128.721 35.5703 122.067 25.041 124.863L25.5543 126.796ZM46.8961 136.426L45.3761 137.726C48.1728 140.996 48.9444 145.123 49.349 149.041L51.3385 148.835L53.328 148.63C52.9116 144.597 52.0614 139.389 48.4161 135.126L46.8961 136.426ZM51.3385 148.835L49.349 149.041C49.5505 150.993 49.6624 152.91 49.8889 154.625L51.8717 154.363L53.8545 154.101C53.6309 152.408 53.5615 150.891 53.328 148.63L51.3385 148.835ZM51.8717 154.363L49.8889 154.625C50.1111 156.306 50.447 157.808 51.0875 159.002L52.8502 158.057L54.6129 157.112C54.323 156.571 54.0601 155.657 53.8545 154.101L51.8717 154.363ZM52.8502 158.057L51.4812 159.515C51.465 159.5 51.4517 159.487 51.4417 159.477C51.4317 159.467 51.4237 159.459 51.4185 159.454C51.4133 159.448 51.4094 159.444 51.4081 159.443C51.4075 159.442 51.407 159.442 51.4073 159.442C51.4073 159.442 51.4081 159.443 51.4091 159.444C51.412 159.447 51.4257 159.461 51.4435 159.479C51.4614 159.497 51.491 159.526 51.529 159.559L52.8561 158.063L54.1832 156.567C54.2201 156.599 54.2487 156.627 54.2656 156.644C54.2824 156.661 54.2951 156.674 54.297 156.676C54.2977 156.677 54.2983 156.677 54.2981 156.677C54.2981 156.677 54.2979 156.677 54.2977 156.677C54.2974 156.677 54.297 156.676 54.2965 156.676C54.2948 156.674 54.2904 156.669 54.2848 156.663C54.2791 156.658 54.2705 156.649 54.2601 156.639C54.2497 156.628 54.2358 156.615 54.2193 156.599L52.8502 158.057ZM52.8561 158.063L51.5302 159.56C51.6935 159.705 51.9055 159.859 52.1749 160.022L53.2067 158.308L54.2385 156.595C54.1852 156.563 54.156 156.542 54.1463 156.535C54.1415 156.532 54.1423 156.532 54.1479 156.537C54.1532 156.541 54.165 156.551 54.1819 156.566L52.8561 158.063ZM53.2067 158.308L52.1752 160.022C52.6862 160.329 53.3585 160.638 54.1724 160.945L54.8785 159.074L55.5847 157.203C54.8913 156.941 54.464 156.731 54.2381 156.595L53.2067 158.308ZM54.8785 159.074L54.1725 160.945C55.8014 161.56 58.0067 162.173 60.6473 162.77L61.0885 160.819L61.5297 158.868C58.964 158.288 56.963 157.723 55.5846 157.202L54.8785 159.074ZM61.0885 160.819L60.6473 162.77C65.9301 163.964 72.9661 165.099 80.6474 166.057L80.8951 164.073L81.1429 162.088C73.5257 161.137 66.6332 160.022 61.5297 158.868L61.0885 160.819ZM80.8951 164.073L80.6474 166.057C84.0281 166.479 87.5316 166.863 91.0625 167.207L91.2565 165.216L91.4504 163.226C87.9502 162.885 84.4829 162.505 81.1429 162.088L80.8951 164.073ZM91.2565 165.216L91.4504 167.207C94.9816 166.863 98.4855 166.479 101.866 166.057L101.619 164.073L101.371 162.088C98.0308 162.505 94.5631 162.885 91.0625 163.226L91.2565 165.216ZM101.619 164.073L101.867 166.057C109.548 165.099 116.584 163.964 121.867 162.77L121.425 160.819L120.984 158.868C115.881 160.022 108.988 161.137 101.371 162.088L101.619 164.073ZM121.425 160.819L121.867 162.77C124.507 162.173 126.712 161.56 128.34 160.945L127.634 159.074L126.928 157.202C125.55 157.723 123.549 158.288 120.984 158.868L121.425 160.819ZM127.634 159.074L128.341 160.945C129.154 160.638 129.827 160.33 130.339 160.022L129.307 158.308L128.276 156.595C128.05 156.73 127.623 156.94 126.928 157.202L127.634 159.074ZM129.307 158.308L130.339 160.021C130.613 159.856 130.823 159.702 130.983 159.56L129.657 158.063L128.331 156.566C128.36 156.54 128.373 156.531 128.364 156.538C128.355 156.544 128.327 156.564 128.275 156.595L129.307 158.308ZM129.657 158.063L130.983 159.56C131.037 159.512 131.082 159.468 131.118 159.429C131.153 159.391 131.183 159.357 131.205 159.33C131.227 159.303 131.244 159.28 131.255 159.266C131.266 159.252 131.274 159.24 131.275 159.238C131.276 159.238 131.276 159.237 131.276 159.238C131.276 159.238 131.276 159.238 131.275 159.239C131.274 159.241 131.271 159.244 131.268 159.249C131.261 159.258 131.247 159.277 131.229 159.299C131.211 159.322 131.185 159.354 131.152 159.391C131.119 159.428 131.076 159.473 131.023 159.523L129.662 158.057L128.301 156.592C128.247 156.642 128.203 156.688 128.17 156.725C128.137 156.762 128.11 156.794 128.092 156.818C128.074 156.841 128.06 156.86 128.052 156.869C128.049 156.874 128.046 156.879 128.044 156.88C128.044 156.881 128.043 156.882 128.043 156.882C128.043 156.883 128.043 156.882 128.043 156.882C128.044 156.88 128.052 156.87 128.062 156.856C128.073 156.842 128.09 156.82 128.112 156.793C128.133 156.767 128.162 156.733 128.197 156.695C128.233 156.658 128.277 156.613 128.33 156.566L129.657 158.063ZM129.662 158.057L131.424 159.003C132.065 157.809 132.402 156.309 132.625 154.625L130.642 154.363L128.659 154.101C128.454 155.655 128.19 156.57 127.899 157.112L129.662 158.057ZM130.642 154.363L132.625 154.625C132.851 152.911 132.963 150.99 133.164 149.041L131.174 148.835L129.185 148.63C128.951 150.893 128.883 152.407 128.659 154.101L130.642 154.363ZM131.174 148.835L133.164 149.041C133.569 145.123 134.341 140.997 137.138 137.726L135.618 136.426L134.098 135.126C130.452 139.389 129.601 144.597 129.185 148.63L131.174 148.835Z" fill="#F59313" mask="url(#path-9-inside-2_1717_294)"/>
<path d="M88.5867 191.452C64.5436 190.65 52.0494 167.18 49.4893 156.161L133.409 154.669C122.723 186.192 98.7159 192.342 88.5867 191.452Z" fill="#FF8F57" stroke="#F15B2C" stroke-width="2.00359" stroke-linecap="round"/>
<path d="M88.5863 189.448C64.5432 188.647 51.1673 165.112 50.2349 153.363L132.849 152.804C121.847 187.677 98.7156 190.339 88.5863 189.448Z" fill="#FF8F57"/>
<path d="M99.8174 96.4648C105.95 96.4648 110.922 101.436 110.922 107.568C110.922 113.701 105.95 118.673 99.8174 118.673C96.1411 118.673 92.8841 116.884 90.8633 114.132C88.8425 116.884 85.5847 118.673 81.9082 118.673C75.7759 118.673 70.8047 113.701 70.8047 107.568C70.8048 101.436 75.776 96.465 81.9082 96.4648C85.5843 96.4648 88.8424 98.2519 90.8633 101.004C92.8841 98.2521 96.1416 96.465 99.8174 96.4648Z" fill="#FDFFFB"/>
<path d="M97.9085 99.3608C97.9085 102.341 94.0804 105.075 90.9247 105.075C87.769 105.075 83.941 102.341 83.941 99.3608C83.6236 94.5992 87.769 94.2817 90.9247 94.2817C94.0804 94.2817 98.2259 94.2817 97.9085 99.3608Z" fill="#5E3916"/>
<circle cx="69.3211" cy="92.3773" r="4.44419" fill="#603C1F"/>
<path d="M61.5488 243.411C69.1323 243.411 75.6532 244.22 80.374 245.777C85.127 247.344 87.67 249.528 88.1406 252.028C88.1449 254.734 88.2931 257.423 85.4639 259.659C82.4447 262.045 75.8695 264.036 61.5488 264.036C47.2281 264.036 40.6529 262.045 37.6338 259.659C34.8012 257.42 34.9522 254.727 34.9561 252.018C35.4291 249.251 37.9787 247.072 42.71 245.578C47.4278 244.088 53.9484 243.411 61.5488 243.411Z" fill="#FECE6D" stroke="#F59313" stroke-width="2.17111"/>
<path d="M52.3213 255.351V262.407" stroke="#F59313" stroke-width="2.17111" stroke-linecap="round"/>
<path d="M60.4634 255.351V262.407" stroke="#F59313" stroke-width="2.17111" stroke-linecap="round"/>
<path d="M68.062 255.351V262.407" stroke="#F59313" stroke-width="2.17111" stroke-linecap="round"/>
<path d="M124.511 243.411C132.094 243.411 138.615 244.22 143.336 245.777C148.089 247.344 150.632 249.528 151.103 252.028C151.107 254.734 151.255 257.423 148.426 259.659C145.407 262.045 138.831 264.036 124.511 264.036C110.19 264.036 103.615 262.045 100.596 259.659C97.7631 257.42 97.9141 254.727 97.918 252.018C98.391 249.251 100.941 247.072 105.672 245.578C110.39 244.088 116.91 243.411 124.511 243.411Z" fill="#FECE6D" stroke="#F59313" stroke-width="2.17111"/>
<path d="M115.283 255.351V262.407" stroke="#F59313" stroke-width="2.17111" stroke-linecap="round"/>
<path d="M123.425 255.351V262.407" stroke="#F59313" stroke-width="2.17111" stroke-linecap="round"/>
<path d="M131.024 255.351V262.407" stroke="#F59313" stroke-width="2.17111" stroke-linecap="round"/>
<ellipse cx="90.6759" cy="219.319" rx="24.8835" ry="20.1885" fill="#F8A233"/>
<mask id="path-25-inside-3_1717_294" fill="white">
<path fill-rule="evenodd" clip-rule="evenodd" d="M304.485 161.058C308.504 157.902 313.871 155.81 320.31 157.349C323.536 158.121 325.892 159.62 327.521 161.603C329.14 163.574 329.972 165.936 330.304 168.334C330.962 173.091 329.686 178.211 328.338 181.47L328.287 181.591L328.215 181.699C325.197 186.173 316.435 194.98 303.893 197.365L304.357 215.446C304.959 238.925 286.09 258.285 262.602 258.285H235.818C213.034 258.285 194.453 240.024 194.057 217.243L193.817 203.566C188.978 203.246 182.606 202.129 177.167 199.638C170.934 196.785 165.587 191.946 165.73 184.191C165.862 177.089 167.008 173.028 168.477 170.574C169.981 168.063 171.809 167.335 172.504 166.906C176.685 164.323 187.064 162.441 196.837 173.3C197.762 174.328 199.479 175.259 202.058 176.012C204.603 176.754 207.831 177.28 211.602 177.611C219.142 178.273 228.683 178.145 238.919 177.532C259.077 176.325 281.758 173.245 296.758 170.731C298.16 167.823 300.778 163.97 304.485 161.058Z"/>
</mask>
<path fill-rule="evenodd" clip-rule="evenodd" d="M304.485 161.058C308.504 157.902 313.871 155.81 320.31 157.349C323.536 158.121 325.892 159.62 327.521 161.603C329.14 163.574 329.972 165.936 330.304 168.334C330.962 173.091 329.686 178.211 328.338 181.47L328.287 181.591L328.215 181.699C325.197 186.173 316.435 194.98 303.893 197.365L304.357 215.446C304.959 238.925 286.09 258.285 262.602 258.285H235.818C213.034 258.285 194.453 240.024 194.057 217.243L193.817 203.566C188.978 203.246 182.606 202.129 177.167 199.638C170.934 196.785 165.587 191.946 165.73 184.191C165.862 177.089 167.008 173.028 168.477 170.574C169.981 168.063 171.809 167.335 172.504 166.906C176.685 164.323 187.064 162.441 196.837 173.3C197.762 174.328 199.479 175.259 202.058 176.012C204.603 176.754 207.831 177.28 211.602 177.611C219.142 178.273 228.683 178.145 238.919 177.532C259.077 176.325 281.758 173.245 296.758 170.731C298.16 167.823 300.778 163.97 304.485 161.058Z" fill="#FFFBE8"/>
<path d="M304.485 161.058L302.55 158.595L302.55 158.595L304.485 161.058ZM320.31 157.349L321.039 154.303L321.039 154.303L320.31 157.349ZM327.521 161.603L329.942 159.615L329.942 159.615L327.521 161.603ZM330.304 168.334L333.407 167.905V167.904L330.304 168.334ZM328.338 181.47L331.227 182.681L331.23 182.674L331.232 182.667L328.338 181.47ZM328.287 181.591L330.893 183.328L331.06 183.079L331.176 182.802L328.287 181.591ZM328.215 181.699L330.812 183.451L330.817 183.444L330.821 183.437L328.215 181.699ZM303.893 197.365L303.308 194.288L300.694 194.785L300.762 197.445L303.893 197.365ZM304.357 215.446L307.489 215.366V215.366L304.357 215.446ZM194.057 217.243L197.189 217.188L197.189 217.188L194.057 217.243ZM193.817 203.566L196.949 203.511L196.899 200.63L194.024 200.44L193.817 203.566ZM177.167 199.638L175.863 202.487L175.863 202.487L177.167 199.638ZM165.73 184.191L162.598 184.133L162.598 184.133L165.73 184.191ZM168.477 170.574L165.79 168.964L165.79 168.964L168.477 170.574ZM172.504 166.906L174.15 169.571L174.15 169.571L172.504 166.906ZM196.837 173.3L194.508 175.395L194.508 175.395L196.837 173.3ZM202.058 176.012L201.18 179.019L201.18 179.019L202.058 176.012ZM211.602 177.611L211.328 180.732H211.328L211.602 177.611ZM238.919 177.532L239.106 180.659V180.659L238.919 177.532ZM296.758 170.731L297.276 173.821L298.875 173.553L299.579 172.092L296.758 170.731ZM304.485 161.058L306.42 163.522C309.885 160.8 314.293 159.131 319.582 160.396L320.31 157.349L321.039 154.303C313.449 152.488 307.123 155.003 302.55 158.595L304.485 161.058ZM320.31 157.349L319.582 160.396C322.22 161.027 323.953 162.195 325.101 163.592L327.521 161.603L329.942 159.615C327.832 157.046 324.852 155.214 321.039 154.303L320.31 157.349ZM327.521 161.603L325.101 163.592C326.264 165.007 326.926 166.782 327.201 168.763L330.304 168.334L333.407 167.904C333.017 165.09 332.016 162.14 329.942 159.615L327.521 161.603ZM330.304 168.334L327.201 168.763C327.756 172.781 326.666 177.317 325.443 180.272L328.338 181.47L331.232 182.667C332.707 179.104 334.167 173.401 333.407 167.905L330.304 168.334ZM328.338 181.47L325.449 180.258L325.398 180.379L328.287 181.591L331.176 182.802L331.227 182.681L328.338 181.47ZM328.287 181.591L325.681 179.853L325.608 179.961L328.215 181.699L330.821 183.437L330.893 183.328L328.287 181.591ZM328.215 181.699L325.618 179.947C322.921 183.946 314.804 192.101 303.308 194.288L303.893 197.365L304.479 200.442C318.066 197.858 327.473 188.401 330.812 183.451L328.215 181.699ZM303.893 197.365L300.762 197.445L301.226 215.526L304.357 215.446L307.489 215.366L307.025 197.285L303.893 197.365ZM304.357 215.446L301.226 215.526C301.783 237.245 284.328 255.152 262.602 255.152V258.285V261.418C287.851 261.418 308.136 240.606 307.489 215.366L304.357 215.446ZM262.602 258.285V255.152H235.818V258.285V261.418H262.602V258.285ZM235.818 258.285V255.152C214.742 255.152 197.555 238.261 197.189 217.188L194.057 217.243L190.924 217.297C191.35 241.787 211.325 261.418 235.818 261.418V258.285ZM194.057 217.243L197.189 217.188L196.949 203.511L193.817 203.566L190.685 203.621L190.924 217.298L194.057 217.243ZM193.817 203.566L194.024 200.44C189.417 200.136 183.452 199.071 178.471 196.79L177.167 199.638L175.863 202.487C181.761 205.187 188.539 206.357 193.611 206.692L193.817 203.566ZM177.167 199.638L178.471 196.79C172.726 194.16 168.753 190.176 168.862 184.249L165.73 184.191L162.598 184.133C162.421 193.716 169.143 199.41 175.863 202.487L177.167 199.638ZM165.73 184.191L168.862 184.249C168.989 177.393 170.099 173.964 171.165 172.184L168.477 170.574L165.79 168.964C163.917 172.092 162.734 176.784 162.598 184.133L165.73 184.191ZM168.477 170.574L171.165 172.184C171.686 171.313 172.231 170.798 172.675 170.464C172.905 170.292 173.128 170.152 173.352 170.024C173.469 169.957 173.575 169.899 173.706 169.827C173.817 169.766 173.987 169.672 174.15 169.571L172.504 166.906L170.858 164.241C170.943 164.188 169.758 164.82 168.913 165.454C167.893 166.22 166.773 167.324 165.79 168.964L168.477 170.574ZM172.504 166.906L174.15 169.571C177.104 167.747 185.796 165.715 194.508 175.395L196.837 173.3L199.165 171.204C188.332 159.167 176.267 160.9 170.858 164.241L172.504 166.906ZM196.837 173.3L194.508 175.395C196.017 177.072 198.409 178.21 201.18 179.019L202.058 176.012L202.935 173.004C200.549 172.308 199.507 171.584 199.165 171.204L196.837 173.3ZM202.058 176.012L201.18 179.019C203.998 179.841 207.449 180.391 211.328 180.732L211.602 177.611L211.876 174.491C208.213 174.169 205.208 173.668 202.935 173.004L202.058 176.012ZM211.602 177.611L211.328 180.732C219.092 181.413 228.809 181.276 239.106 180.659L238.919 177.532L238.732 174.405C228.558 175.014 219.192 175.133 211.876 174.491L211.602 177.611ZM238.919 177.532L239.106 180.659C259.41 179.443 282.208 176.346 297.276 173.821L296.758 170.731L296.24 167.642C281.309 170.144 258.744 173.207 238.732 174.405L238.919 177.532ZM296.758 170.731L299.579 172.092C300.822 169.516 303.166 166.078 306.42 163.522L304.485 161.058L302.55 158.595C298.39 161.863 295.499 166.131 293.936 169.37L296.758 170.731Z" fill="#FCE9B8" mask="url(#path-25-inside-3_1717_294)"/>
<path d="M312.231 59.7546C320.821 59.7549 327.788 66.7337 327.788 75.3474C327.788 79.6215 326.079 82.6378 323.349 84.6179C320.577 86.6281 316.669 87.6286 312.231 87.6287C307.794 87.6287 303.885 86.6281 301.113 84.6179C298.383 82.6378 296.674 79.6215 296.674 75.3474C296.674 66.7336 303.641 59.7546 312.231 59.7546Z" fill="#FFFBE8" stroke="#FCE9B8" stroke-width="1.94469"/>
<path d="M176.102 61.6995C167.512 61.6997 160.546 68.6785 160.545 77.2922C160.545 81.5664 162.255 84.5826 164.985 86.5627C167.756 88.5729 171.665 89.5734 176.102 89.5735C180.54 89.5735 184.449 88.573 187.22 86.5627C189.95 84.5826 191.66 81.5663 191.66 77.2922C191.659 68.6784 184.692 61.6995 176.102 61.6995Z" fill="#FFFBE8" stroke="#FCE9B8" stroke-width="1.94469"/>
<path d="M202.68 65.5884C181.418 61.9584 175.238 77.0405 174.806 85.0353C158.471 89.9618 159.357 105.455 161.841 112.585C160.437 111.721 154.063 112.585 153.09 121.984C152.035 132.188 160.653 135.489 166.703 136.245C157.887 147.136 168.432 154.396 174.806 156.665C174.806 170.148 190.147 175.031 197.818 175.787C205.078 190.048 220.506 186.699 227.313 183.242C243.907 200.355 262.101 189.508 269.123 181.946C288.311 186.094 295.701 175.247 296.997 169.305C326.556 171.639 325.735 157.529 321.63 150.182C336.928 143.441 331.894 133.545 327.464 129.439C346.911 115.956 332.974 104.158 323.575 99.9446C326.686 84.3871 315.364 81.146 309.314 81.4701C312.166 71.617 303.155 69.5859 298.294 69.802C297.775 61.5047 288.138 62.0232 283.384 63.3197C277.421 47.5029 264.046 50.4631 258.103 53.9203C243.842 37.3257 230.77 47.0059 226.016 53.9203C209.681 48.4752 203.652 59.4303 202.68 65.5884Z" fill="#FAB2CD" stroke="#FD83C1" stroke-width="1.94469"/>
<path d="M244.491 72.7192C280.371 72.7194 306.72 99.2888 306.72 127.495C306.72 141.543 299.792 153.094 288.347 161.167C276.883 169.255 260.886 173.842 242.87 173.842C224.81 173.842 210.042 170.208 199.817 163.108C189.64 156.041 183.881 145.486 183.881 131.383C183.882 103.063 208.727 72.7192 244.491 72.7192Z" fill="#FFFBE8" stroke="#FCE9B8" stroke-width="1.94469"/>
<path d="M291.163 124.253L302.183 122.309M289.542 133.977L300.562 138.514" stroke="#F1C67E" stroke-width="6.48229" stroke-linecap="round"/>
<path d="M199.763 130.087L188.743 128.143M201.383 139.811L190.688 144.348" stroke="#F1C67E" stroke-width="6.48229" stroke-linecap="round"/>
<path d="M243.518 75.6362V106.427M226.016 86.332H260.372M227.961 98.0001H258.752" stroke="#F1C67E" stroke-width="6.48229" stroke-linecap="round"/>
<path d="M239.629 66.5609L248.705 58.458" stroke="#E96F91" stroke-width="5.18583" stroke-linecap="round"/>
<path d="M253.89 63.968H265.558" stroke="#F1E488" stroke-width="5.18583" stroke-linecap="round"/>
<path d="M220.505 61.6993L233.146 59.7546" stroke="#FDFCFF" stroke-width="5.18583" stroke-linecap="round"/>
<path d="M210.134 66.5608L217.476 72.7435" stroke="#F7DF83" stroke-width="5.18583" stroke-linecap="round"/>
<path d="M303.479 39.9835L269.771 63.6438L307.369 90.2212C307.909 75.312 308.925 44.6507 308.665 41.2799C308.406 37.9091 305.1 39.0111 303.479 39.9835Z" fill="#F4F1A4" stroke="#F8E26A" stroke-width="1.94469" stroke-linecap="round"/>
<path d="M294.405 46.4658L307.369 66.2368M276.902 67.5333L307.369 54.5687M287.598 53.5963L307.369 86.0078M278.847 59.1063L290.515 77.2567L307.693 66.2368" stroke="#F8E26A" stroke-width="1.29646" stroke-linecap="round"/>
<path d="M262.641 69.4779C266.53 65.8046 275.152 61.375 278.523 73.0431C283.384 71.7467 293.238 71.6819 293.756 81.7943C299.374 81.146 309.638 82.7666 305.748 94.4347" stroke="#FD83C1" stroke-width="1.94469"/>
<path d="M278.523 73.4528C275.152 61.7847 266.53 66.2142 262.641 69.8875L305.748 94.8444C309.638 83.1763 299.374 81.5557 293.756 82.2039C293.238 72.0916 283.384 72.1563 278.523 73.4528Z" fill="#FAB2CD"/>
<mask id="path-42-inside-4_1717_294" fill="white">
<path d="M254.884 123.241C261.146 123.241 266.222 128.317 266.222 134.578C266.222 140.839 261.146 145.915 254.884 145.915C251.131 145.915 247.805 144.089 245.742 141.279C243.678 144.089 240.353 145.916 236.599 145.916C230.338 145.916 225.262 140.839 225.262 134.578C225.262 128.317 230.338 123.241 236.599 123.241C240.352 123.241 243.678 125.066 245.742 127.876C247.805 125.066 251.131 123.241 254.884 123.241Z"/>
</mask>
<path d="M254.884 123.241C261.146 123.241 266.222 128.317 266.222 134.578C266.222 140.839 261.146 145.915 254.884 145.915C251.131 145.915 247.805 144.089 245.742 141.279C243.678 144.089 240.353 145.916 236.599 145.916C230.338 145.916 225.262 140.839 225.262 134.578C225.262 128.317 230.338 123.241 236.599 123.241C240.352 123.241 243.678 125.066 245.742 127.876C247.805 125.066 251.131 123.241 254.884 123.241Z" fill="#FDFFFB"/>
<path d="M254.884 123.241V121.695H254.884L254.884 123.241ZM266.222 134.578H267.768V134.578L266.222 134.578ZM254.884 145.915L254.884 147.46H254.884V145.915ZM245.742 141.279L246.988 140.364L245.742 138.667L244.496 140.364L245.742 141.279ZM236.599 145.916L236.599 147.461H236.599V145.916ZM225.262 134.578L223.717 134.578V134.578H225.262ZM236.599 123.241V121.695H236.599L236.599 123.241ZM245.742 127.876L244.496 128.791L245.742 130.487L246.988 128.791L245.742 127.876ZM254.884 123.241V124.787C260.292 124.787 264.676 129.17 264.677 134.578L266.222 134.578L267.768 134.578C267.768 127.463 261.999 121.695 254.884 121.695V123.241ZM266.222 134.578H264.677C264.677 139.985 260.292 144.369 254.884 144.369V145.915V147.46C261.999 147.46 267.768 141.693 267.768 134.578H266.222ZM254.884 145.915L254.884 144.369C251.644 144.369 248.773 142.796 246.988 140.364L245.742 141.279L244.496 142.194C246.837 145.383 250.617 147.46 254.884 147.46L254.884 145.915ZM245.742 141.279L244.496 140.364C242.711 142.796 239.839 144.37 236.599 144.37V145.916V147.461C240.867 147.461 244.646 145.383 246.988 142.194L245.742 141.279ZM236.599 145.916L236.599 144.37C231.192 144.37 226.808 139.986 226.808 134.578H225.262H223.717C223.717 141.693 229.484 147.461 236.599 147.461L236.599 145.916ZM225.262 134.578L226.808 134.578C226.808 129.17 231.192 124.787 236.599 124.787L236.599 123.241L236.599 121.695C229.484 121.695 223.717 127.463 223.717 134.578L225.262 134.578ZM236.599 123.241V124.787C239.839 124.787 242.711 126.36 244.496 128.791L245.742 127.876L246.988 126.961C244.646 123.772 240.866 121.695 236.599 121.695V123.241ZM245.742 127.876L246.988 128.791C248.772 126.36 251.644 124.787 254.884 124.787L254.884 123.241L254.884 121.695C250.618 121.695 246.838 123.772 244.496 126.961L245.742 127.876Z" fill="#FAD699" mask="url(#path-42-inside-4_1717_294)"/>
<path d="M252.935 126.198C252.935 129.241 249.026 132.032 245.804 132.032C242.582 132.032 238.674 129.241 238.674 126.198C238.35 121.336 242.582 121.012 245.804 121.012C249.026 121.012 253.259 121.012 252.935 126.198Z" fill="#5E3916"/>
<path d="M218.264 245.754C225.559 245.754 231.832 246.533 236.373 248.03C240.945 249.538 243.391 251.64 243.843 254.045C243.847 256.647 243.99 259.233 241.269 261.384C238.365 263.679 232.04 265.594 218.264 265.594C204.489 265.594 198.164 263.679 195.26 261.384C192.536 259.231 192.68 256.641 192.684 254.035C193.139 251.373 195.591 249.276 200.143 247.839C204.681 246.406 210.953 245.754 218.264 245.754Z" fill="#FFFBE8" stroke="#FCE9B8" stroke-width="2.0884"/>
<path d="M209.389 257.24V264.028" stroke="#FCE9B8" stroke-width="2.0884" stroke-linecap="round"/>
<path d="M217.22 257.24V264.028" stroke="#FCE9B8" stroke-width="2.0884" stroke-linecap="round"/>
<path d="M224.53 257.24V264.028" stroke="#FCE9B8" stroke-width="2.0884" stroke-linecap="round"/>
<path d="M278.829 245.754C286.123 245.754 292.396 246.533 296.937 248.03C301.51 249.538 303.956 251.64 304.408 254.045C304.412 256.647 304.554 259.233 301.833 261.384C298.929 263.679 292.604 265.594 278.829 265.594C265.054 265.594 258.729 263.679 255.825 261.384C253.1 259.231 253.245 256.641 253.249 254.035C253.703 251.373 256.156 249.276 260.708 247.839C265.246 246.406 271.518 245.754 278.829 245.754Z" fill="#FFFBE8" stroke="#FCE9B8" stroke-width="2.0884"/>
<path d="M269.952 257.24V264.028" stroke="#FCE9B8" stroke-width="2.0884" stroke-linecap="round"/>
<path d="M277.785 257.24V264.028" stroke="#FCE9B8" stroke-width="2.0884" stroke-linecap="round"/>
<path d="M285.094 257.24V264.028" stroke="#FCE9B8" stroke-width="2.0884" stroke-linecap="round"/>
<ellipse cx="247.502" cy="218.083" rx="23.4945" ry="19.3177" fill="#FCE9B8"/>
<path d="M262.643 121.494C262.643 121.494 263.165 117.317 268.386 117.317C273.607 117.317 274.129 121.494 274.129 121.494" stroke="#5E3916" stroke-width="2.0884" stroke-linecap="round"/>
<path d="M217.742 121.494C217.742 121.494 218.264 117.317 223.485 117.317C228.706 117.317 229.228 121.494 229.228 121.494" stroke="#5E3916" stroke-width="2.0884" stroke-linecap="round"/>
</svg>
