<svg width="159" height="163" viewBox="0 0 159 163" fill="none" xmlns="http://www.w3.org/2000/svg">
<rect width="158.03" height="162.54" rx="79.015" fill="#FFE23F"/>
<mask id="mask0_1283_1098" style="mask-type:alpha" maskUnits="userSpaceOnUse" x="0" y="0" width="159" height="163">
<rect width="158.03" height="162.54" rx="79.015" fill="#FAFAFA"/>
</mask>
<g mask="url(#mask0_1283_1098)">
<mask id="path-3-inside-1_1283_1098" fill="white">
<path d="M136.581 81.966C138.463 81.9442 140.476 82.6857 142.59 84.3948C146.842 87.8321 148.83 93.6056 149.637 99.2746C150.448 104.968 150.089 110.712 149.506 114.279C148.619 120.807 144.922 127.503 140.73 133.183C136.766 138.554 132.305 143.086 129.196 145.804C129.797 146.571 130.317 147.537 130.762 148.592C131.333 149.946 131.81 151.497 132.201 153.068C132.983 156.209 133.439 159.49 133.621 161.56L133.627 161.623H133.794L133.902 168.487C134.148 184 121.64 196.708 106.125 196.708H51.7379C36.2086 196.708 23.695 183.977 23.9615 168.45L24.0787 161.623H24.1559C23.9851 158.079 24.7584 154.28 25.777 150.993C26.3929 149.006 27.1055 147.188 27.7662 145.702C19.1154 150.869 9.75875 148.716 5.87463 146.808L5.83263 146.787L5.7926 146.761C3.44348 145.195 0.813996 142.229 1.01037 138.467C1.20846 134.675 4.25171 130.476 12.3102 126.404C28.0042 118.472 37.7549 111.564 40.8024 109.006C42.3383 104.764 46.2421 102.185 51.3287 100.749C56.5 99.2899 63.0369 98.9655 69.983 99.3323C83.0165 100.021 97.6806 103.154 107.923 106.028L109.911 106.598L110.163 106.671L110.308 106.89L114.252 112.806C117.554 111.076 120.211 107.594 122.211 103.762C124.309 99.7404 125.62 95.4561 126.181 92.7551L126.189 92.718L126.201 92.6819C127.079 89.9374 128.929 86.168 131.67 83.9104C133.054 82.77 134.701 81.9879 136.581 81.966Z"/>
</mask>
<path d="M136.581 81.966C138.463 81.9442 140.476 82.6857 142.59 84.3948C146.842 87.8321 148.83 93.6056 149.637 99.2746C150.448 104.968 150.089 110.712 149.506 114.279C148.619 120.807 144.922 127.503 140.73 133.183C136.766 138.554 132.305 143.086 129.196 145.804C129.797 146.571 130.317 147.537 130.762 148.592C131.333 149.946 131.81 151.497 132.201 153.068C132.983 156.209 133.439 159.49 133.621 161.56L133.627 161.623H133.794L133.902 168.487C134.148 184 121.64 196.708 106.125 196.708H51.7379C36.2086 196.708 23.695 183.977 23.9615 168.45L24.0787 161.623H24.1559C23.9851 158.079 24.7584 154.28 25.777 150.993C26.3929 149.006 27.1055 147.188 27.7662 145.702C19.1154 150.869 9.75875 148.716 5.87463 146.808L5.83263 146.787L5.7926 146.761C3.44348 145.195 0.813996 142.229 1.01037 138.467C1.20846 134.675 4.25171 130.476 12.3102 126.404C28.0042 118.472 37.7549 111.564 40.8024 109.006C42.3383 104.764 46.2421 102.185 51.3287 100.749C56.5 99.2899 63.0369 98.9655 69.983 99.3323C83.0165 100.021 97.6806 103.154 107.923 106.028L109.911 106.598L110.163 106.671L110.308 106.89L114.252 112.806C117.554 111.076 120.211 107.594 122.211 103.762C124.309 99.7404 125.62 95.4561 126.181 92.7551L126.189 92.718L126.201 92.6819C127.079 89.9374 128.929 86.168 131.67 83.9104C133.054 82.77 134.701 81.9879 136.581 81.966Z" fill="#B8E7EE"/>
<path d="M136.581 81.966L136.559 80.1141L136.559 80.1141L136.581 81.966ZM142.59 84.3948L143.755 82.9546L143.755 82.9545L142.59 84.3948ZM149.637 99.2746L151.471 99.0137V99.0137L149.637 99.2746ZM149.506 114.279L147.679 113.98L147.675 114.004L147.671 114.029L149.506 114.279ZM140.73 133.183L142.22 134.283V134.283L140.73 133.183ZM129.196 145.804L127.977 144.41L126.655 145.565L127.738 146.947L129.196 145.804ZM130.762 148.592L132.469 147.872L132.469 147.872L130.762 148.592ZM132.201 153.068L133.998 152.62V152.62L132.201 153.068ZM133.621 161.56L131.776 161.722L131.777 161.73L133.621 161.56ZM133.627 161.623L131.782 161.794L131.938 163.475H133.627V161.623ZM133.794 161.623L135.645 161.594L135.617 159.771H133.794V161.623ZM133.902 168.487L132.05 168.516V168.516L133.902 168.487ZM51.7379 196.708L51.7379 198.56H51.7379V196.708ZM23.9615 168.45L22.1098 168.419V168.419L23.9615 168.45ZM24.0787 161.623V159.771H22.2582L22.2269 161.591L24.0787 161.623ZM24.1559 161.623V163.475H26.0993L26.0058 161.534L24.1559 161.623ZM25.777 150.993L24.0079 150.445L24.0079 150.445L25.777 150.993ZM27.7662 145.702L29.4584 146.455L31.833 141.116L26.8166 144.112L27.7662 145.702ZM5.87463 146.808L6.69119 145.146L6.68738 145.144L5.87463 146.808ZM5.83263 146.787L4.81402 148.334L4.91319 148.399L5.01989 148.452L5.83263 146.787ZM5.7926 146.761L4.7652 148.302L4.77398 148.308L5.7926 146.761ZM1.01037 138.467L-0.839169 138.37L-0.839174 138.37L1.01037 138.467ZM12.3102 126.404L11.4748 124.751L11.4748 124.751L12.3102 126.404ZM40.8024 109.006L41.9931 110.425L42.3743 110.105L42.5438 109.637L40.8024 109.006ZM51.3287 100.749L50.8257 98.9668L50.8257 98.9668L51.3287 100.749ZM69.983 99.3323L70.0807 97.4828H70.0807L69.983 99.3323ZM107.923 106.028L108.434 104.247L108.424 104.244L107.923 106.028ZM109.911 106.598L110.428 104.819L110.422 104.818L109.911 106.598ZM110.163 106.671L111.705 105.645L111.33 105.082L110.68 104.893L110.163 106.671ZM110.308 106.89L108.766 107.916L108.767 107.917L110.308 106.89ZM114.252 112.806L112.71 113.833L113.635 115.22L115.111 114.447L114.252 112.806ZM122.211 103.762L123.853 104.619L123.853 104.619L122.211 103.762ZM126.181 92.7551L124.369 92.3736L124.368 92.3783L126.181 92.7551ZM126.189 92.718L124.427 92.1466L124.397 92.2402L124.377 92.3365L126.189 92.718ZM126.201 92.6819L127.963 93.2532L127.965 93.2464L126.201 92.6819ZM131.67 83.9104L130.492 82.4808L130.492 82.4808L131.67 83.9104ZM136.581 81.966L136.602 83.818C137.949 83.8024 139.556 84.3234 141.426 85.835L142.59 84.3948L143.755 82.9545C141.397 81.0479 138.976 80.0861 136.559 80.1141L136.581 81.966ZM142.59 84.3948L141.426 85.835C145.128 88.828 147.019 94.0221 147.804 99.5356L149.637 99.2746L151.471 99.0137C150.642 93.189 148.556 86.8362 143.755 82.9546L142.59 84.3948ZM149.637 99.2746L147.804 99.5356C148.583 105.012 148.236 110.564 147.679 113.98L149.506 114.279L151.334 114.577C151.941 110.86 152.312 104.924 151.471 99.0137L149.637 99.2746ZM149.506 114.279L147.671 114.029C146.845 120.101 143.364 126.495 139.24 132.083L140.73 133.183L142.22 134.283C146.481 128.51 150.392 121.513 151.342 114.528L149.506 114.279ZM140.73 133.183L139.24 132.083C135.364 137.334 130.998 141.769 127.977 144.41L129.196 145.804L130.415 147.198C133.613 144.403 138.167 139.774 142.22 134.283L140.73 133.183ZM129.196 145.804L127.738 146.947C128.204 147.54 128.648 148.346 129.056 149.312L130.762 148.592L132.469 147.872C131.986 146.728 131.391 145.602 130.653 144.661L129.196 145.804ZM130.762 148.592L129.056 149.312C129.577 150.548 130.027 152.001 130.404 153.515L132.201 153.068L133.998 152.62C133.593 150.993 133.089 149.343 132.469 147.872L130.762 148.592ZM132.201 153.068L130.404 153.515C131.158 156.545 131.601 159.728 131.776 161.722L133.621 161.56L135.466 161.398C135.277 159.252 134.808 155.873 133.998 152.62L132.201 153.068ZM133.621 161.56L131.777 161.73L131.782 161.794L133.627 161.623L135.471 161.453L135.465 161.39L133.621 161.56ZM133.627 161.623V163.475H133.794V161.623V159.771H133.627V161.623ZM133.794 161.623L131.942 161.653L132.05 168.516L133.902 168.487L135.754 168.457L135.645 161.594L133.794 161.623ZM133.902 168.487L132.05 168.516C132.28 182.995 120.606 194.856 106.125 194.856V196.708V198.56C122.674 198.56 136.016 185.005 135.754 168.457L133.902 168.487ZM106.125 196.708V194.856H51.7379V196.708V198.56H106.125V196.708ZM51.7379 196.708L51.7379 194.856C37.2439 194.856 25.5646 182.974 25.8133 168.482L23.9615 168.45L22.1098 168.419C21.8255 184.981 35.1733 198.56 51.7379 198.56L51.7379 196.708ZM23.9615 168.45L25.8133 168.482L25.9305 161.655L24.0787 161.623L22.2269 161.591L22.1098 168.419L23.9615 168.45ZM24.0787 161.623V163.475H24.1559V161.623V159.771H24.0787V161.623ZM24.1559 161.623L26.0058 161.534C25.8495 158.291 26.5599 154.724 27.546 151.542L25.777 150.993L24.0079 150.445C22.957 153.836 22.1207 157.867 22.306 161.712L24.1559 161.623ZM25.777 150.993L27.546 151.542C28.1378 149.632 28.8235 147.883 29.4584 146.455L27.7662 145.702L26.074 144.95C25.3875 146.493 24.6481 148.38 24.0079 150.445L25.777 150.993ZM27.7662 145.702L26.8166 144.112C18.8713 148.857 10.2127 146.875 6.69119 145.146L5.87463 146.808L5.05807 148.47C9.30483 150.556 19.3595 152.88 28.7159 147.292L27.7662 145.702ZM5.87463 146.808L6.68738 145.144L6.64538 145.123L5.83263 146.787L5.01989 148.452L5.06188 148.472L5.87463 146.808ZM5.83263 146.787L6.85125 145.241L6.81121 145.214L5.7926 146.761L4.77398 148.308L4.81402 148.334L5.83263 146.787ZM5.7926 146.761L6.81998 145.22C4.71069 143.814 2.7131 141.376 2.85991 138.564L1.01037 138.467L-0.839174 138.37C-1.08511 143.082 2.17627 146.576 4.76521 148.302L5.7926 146.761ZM1.01037 138.467L2.85991 138.564C3.00451 135.796 5.26475 132.039 13.1455 128.057L12.3102 126.404L11.4748 124.751C3.23867 128.913 -0.587589 133.555 -0.839169 138.37L1.01037 138.467ZM12.3102 126.404L13.1455 128.057C28.9263 120.082 38.8066 113.099 41.9931 110.425L40.8024 109.006L39.6116 107.588C36.7031 110.029 27.0822 116.863 11.4748 124.751L12.3102 126.404ZM40.8024 109.006L42.5438 109.637C43.7876 106.202 47.0104 103.892 51.8318 102.532L51.3287 100.749L50.8257 98.9668C45.4738 100.477 40.889 103.327 39.061 108.376L40.8024 109.006ZM51.3287 100.749L51.8317 102.532C56.7193 101.152 63.0232 100.819 69.8854 101.182L69.983 99.3323L70.0807 97.4828C63.0507 97.1116 56.2807 97.4274 50.8257 98.9668L51.3287 100.749ZM69.983 99.3323L69.8854 101.182C82.7343 101.86 97.255 104.958 107.423 107.811L107.923 106.028L108.424 104.244C98.1061 101.35 83.2987 98.1808 70.0807 97.4828L69.983 99.3323ZM107.923 106.028L107.413 107.808L109.4 108.378L109.911 106.598L110.422 104.818L108.434 104.247L107.923 106.028ZM109.911 106.598L109.394 108.376L109.646 108.45L110.163 106.671L110.68 104.893L110.428 104.819L109.911 106.598ZM110.163 106.671L108.621 107.697L108.766 107.916L110.308 106.89L111.85 105.864L111.705 105.645L110.163 106.671ZM110.308 106.89L108.767 107.917L112.71 113.833L114.252 112.806L115.793 111.779L111.849 105.863L110.308 106.89ZM114.252 112.806L115.111 114.447C118.911 112.457 121.789 108.575 123.853 104.619L122.211 103.762L120.569 102.905C118.634 106.614 116.198 109.696 113.392 111.165L114.252 112.806ZM122.211 103.762L123.853 104.619C126.041 100.424 127.404 95.974 127.995 93.1319L126.181 92.7551L124.368 92.3783C123.836 94.9382 122.576 99.0569 120.569 102.905L122.211 103.762ZM126.181 92.7551L127.994 93.1366L128.001 93.0995L126.189 92.718L124.377 92.3365L124.369 92.3736L126.181 92.7551ZM126.189 92.718L127.951 93.2894L127.963 93.2532L126.201 92.6819L124.439 92.1105L124.427 92.1466L126.189 92.718ZM126.201 92.6819L127.965 93.2464C128.794 90.6562 130.499 87.2737 132.847 85.3399L131.67 83.9104L130.492 82.4808C127.358 85.0622 125.365 89.2186 124.437 92.1174L126.201 92.6819ZM131.67 83.9104L132.847 85.34C133.999 84.3908 135.252 83.8337 136.602 83.818L136.581 81.966L136.559 80.1141C134.15 80.1422 132.109 81.1492 130.492 82.4808L131.67 83.9104Z" fill="#8ACAF0" mask="url(#path-3-inside-1_1283_1098)"/>
<path d="M127.54 143.799L121.097 128.766C124.963 127.693 130.976 118.888 132.694 116.525C134.412 114.163 137.419 106.432 137.419 97.8419C137.419 89.2517 141.285 88.178 142.573 88.178C143.604 88.178 144.721 90.6118 145.15 91.8288C150.734 105.573 147.083 112.445 144.721 122.324C142.831 130.227 132.479 139.934 127.54 143.799Z" fill="white" stroke="white" stroke-width="0.377873"/>
<path d="M35.408 130.914C34.549 132.116 31.4708 139.003 30.039 142.296C21.4486 150.37 9.27889 145.946 4.26782 142.725C7.6324 142.725 14.5334 142.639 15.2206 142.296C16.0796 141.866 23.3815 139.504 26.3881 133.92C29.3947 128.337 38.8442 119.747 39.7032 118.888C40.3905 118.2 40.9918 118.601 41.2065 118.888C40.3475 119.532 36.4818 129.41 35.408 130.914Z" fill="white" stroke="white" stroke-width="0.377873" stroke-linejoin="round"/>
<ellipse cx="79.9649" cy="149.343" rx="36.1392" ry="36.1381" fill="white"/>
<path d="M78.8484 29.7217C108.019 29.7217 131.465 49.8909 131.465 74.541C131.465 99.1912 108.019 119.36 78.8484 119.36C49.6781 119.36 26.2322 99.1911 26.2322 74.541C26.2323 49.891 49.6782 29.7218 78.8484 29.7217Z" fill="#B8E7EE" stroke="#8ACAF0" stroke-width="1.44383"/>
<path d="M36.4963 71.6109C37.3872 60.5437 45.1455 52.1388 53.8254 52.8375C62.1471 53.5074 68.293 62.3015 68.0012 72.7789C71.5342 72.913 75.291 73.0113 79.26 73.0113C85.11 73.0113 90.5722 72.6328 95.5833 72.1324C95.3928 62.5804 100.682 54.469 108.38 53.274C116.985 51.9386 125.341 59.7499 127.044 70.7212C127.077 70.9318 127.106 71.1423 127.133 71.3521C129.098 72.7005 130.136 74.9856 130.136 78.6441C130.136 94.7321 110.077 118.142 79.26 118.142C48.4426 118.142 30.4348 99.3561 30.4348 83.2681C30.4348 77.8269 32.4956 74.8953 36.4143 73.3951C36.421 72.8056 36.4481 72.2105 36.4963 71.6109Z" fill="white"/>
<path d="M78.8484 62.1836C83.7926 62.1836 88.2426 63.154 91.4421 64.8887C94.6405 66.6227 96.5407 69.0862 96.5408 72.0791C96.5408 75.103 94.6052 78.3941 91.3894 80.9453C88.1828 83.4892 83.7477 85.2578 78.8484 85.2578C73.9653 85.2578 69.5348 83.1933 66.323 80.3428C63.1013 77.4834 61.1571 73.8814 61.157 70.8486C61.157 67.8711 63.0383 65.7155 66.2312 64.2852C69.4319 62.8515 73.8871 62.1836 78.8484 62.1836Z" fill="#F1D453" stroke="#E1BA43" stroke-width="0.721916"/>
<path d="M67.3606 74.1309C67.3606 74.1309 72.6944 77.8234 79.6694 77.8234C86.6444 77.8234 91.1576 74.1309 91.1576 74.1309" stroke="#583921" stroke-width="1.08287" stroke-linecap="round"/>
<ellipse cx="52.1461" cy="65.2635" rx="3.09707" ry="3.09697" fill="#603C1F"/>
<ellipse cx="107.782" cy="65.2635" rx="3.09707" ry="3.09697" fill="#603C1F"/>
</g>
</svg>
