<svg width="159" height="163" viewBox="0 0 159 163" fill="none" xmlns="http://www.w3.org/2000/svg">
<rect width="158.025" height="162.54" rx="79.0125" fill="#76D6FF"/>
<mask id="mask0_1283_1056" style="mask-type:alpha" maskUnits="userSpaceOnUse" x="0" y="0" width="159" height="163">
<rect width="158.028" height="162.543" rx="79.0139" fill="#FAFAFA"/>
</mask>
<g mask="url(#mask0_1283_1056)">
<mask id="path-3-inside-1_1283_1056" fill="white">
<path d="M120.233 114.789C123.025 112.596 126.753 111.142 131.227 112.212C133.467 112.748 135.104 113.791 136.235 115.168C137.36 116.537 137.938 118.177 138.169 119.843C138.626 123.147 137.739 126.704 136.803 128.968L136.768 129.052L136.717 129.127C134.621 132.235 128.534 138.353 119.821 140.01L120.144 152.571C120.562 168.882 107.454 182.33 91.1377 182.33H72.5313C56.7032 182.33 43.7957 169.645 43.5205 153.819L43.3545 144.318C39.9927 144.095 35.5665 143.32 31.7881 141.59C27.4584 139.607 23.744 136.246 23.8438 130.859C23.9352 125.925 24.7311 123.104 25.752 121.4C26.7969 119.655 28.066 119.15 28.5488 118.852C31.4539 117.058 38.6633 115.75 45.4522 123.293C46.095 124.007 47.2879 124.654 49.0791 125.177C50.8474 125.693 53.0902 126.058 55.71 126.288C60.9474 126.748 67.5755 126.659 74.6856 126.234C88.6885 125.395 104.444 123.255 114.864 121.509C115.839 119.489 117.658 116.812 120.233 114.789Z"/>
</mask>
<path d="M120.233 114.789C123.025 112.596 126.753 111.142 131.227 112.212C133.467 112.748 135.104 113.791 136.235 115.168C137.36 116.537 137.938 118.177 138.169 119.843C138.626 123.147 137.739 126.704 136.803 128.968L136.768 129.052L136.717 129.127C134.621 132.235 128.534 138.353 119.821 140.01L120.144 152.571C120.562 168.882 107.454 182.33 91.1377 182.33H72.5313C56.7032 182.33 43.7957 169.645 43.5205 153.819L43.3545 144.318C39.9927 144.095 35.5665 143.32 31.7881 141.59C27.4584 139.607 23.744 136.246 23.8438 130.859C23.9352 125.925 24.7311 123.104 25.752 121.4C26.7969 119.655 28.066 119.15 28.5488 118.852C31.4539 117.058 38.6633 115.75 45.4522 123.293C46.095 124.007 47.2879 124.654 49.0791 125.177C50.8474 125.693 53.0902 126.058 55.71 126.288C60.9474 126.748 67.5755 126.659 74.6856 126.234C88.6885 125.395 104.444 123.255 114.864 121.509C115.839 119.489 117.658 116.812 120.233 114.789Z" fill="#FFFBE8"/>
<path d="M120.233 114.789L118.889 113.078L118.889 113.078L120.233 114.789ZM131.227 112.212L131.733 110.096L131.733 110.096L131.227 112.212ZM136.235 115.168L137.917 113.787L137.917 113.787L136.235 115.168ZM138.169 119.843L140.325 119.545L140.325 119.545L138.169 119.843ZM136.803 128.968L138.81 129.808L138.814 129.8L136.803 128.968ZM136.768 129.052L138.571 130.27L138.692 130.091L138.775 129.892L136.768 129.052ZM136.717 129.127L134.913 127.909L134.913 127.91L136.717 129.127ZM119.821 140.01L119.415 137.872L117.598 138.217L117.646 140.066L119.821 140.01ZM120.144 152.571L122.319 152.516V152.516L120.144 152.571ZM43.5205 153.819L45.6963 153.782L45.6963 153.781L43.5205 153.819ZM43.3545 144.318L45.5303 144.28L45.4954 142.278L43.498 142.146L43.3545 144.318ZM31.7881 141.59L30.8821 143.569L30.8822 143.569L31.7881 141.59ZM23.8438 130.859L21.668 130.818L21.668 130.818L23.8438 130.859ZM25.752 121.4L23.8851 120.281L23.8851 120.281L25.752 121.4ZM28.5488 118.852L27.4054 117L27.4053 117L28.5488 118.852ZM45.4522 123.293L43.8346 124.749L43.8347 124.749L45.4522 123.293ZM49.0791 125.177L48.4694 127.266L48.4695 127.266L49.0791 125.177ZM55.71 126.288L55.5196 128.456L55.5196 128.456L55.71 126.288ZM74.6856 126.234L74.8156 128.406H74.8156L74.6856 126.234ZM114.864 121.509L115.224 123.655L116.335 123.469L116.824 122.454L114.864 121.509ZM120.233 114.789L121.578 116.501C123.985 114.61 127.047 113.45 130.72 114.329L131.227 112.212L131.733 110.096C126.46 108.835 122.066 110.583 118.889 113.078L120.233 114.789ZM131.227 112.212L130.72 114.329C132.552 114.767 133.756 115.578 134.554 116.55L136.235 115.168L137.917 113.787C136.451 112.003 134.382 110.729 131.733 110.096L131.227 112.212ZM136.235 115.168L134.554 116.55C135.362 117.533 135.823 118.766 136.013 120.141L138.169 119.843L140.325 119.545C140.054 117.589 139.357 115.54 137.917 113.787L136.235 115.168ZM138.169 119.843L136.013 120.141C136.399 122.932 135.641 126.083 134.792 128.136L136.803 128.968L138.814 129.8C139.837 127.325 140.853 123.363 140.325 119.545L138.169 119.843ZM136.803 128.968L134.795 128.128L134.76 128.212L136.768 129.052L138.775 129.892L138.81 129.808L136.803 128.968ZM136.768 129.052L134.964 127.834L134.913 127.909L136.717 129.127L138.52 130.345L138.571 130.27L136.768 129.052ZM136.717 129.127L134.913 127.91C133.039 130.688 127.401 136.353 119.415 137.872L119.821 140.01L120.228 142.148C129.667 140.353 136.202 133.783 138.521 130.344L136.717 129.127ZM119.821 140.01L117.646 140.066L117.968 152.627L120.144 152.571L122.319 152.516L121.997 139.954L119.821 140.01ZM120.144 152.571L117.968 152.627C118.355 167.714 106.23 180.154 91.1377 180.154V182.33V184.506C108.677 184.506 122.768 170.05 122.319 152.516L120.144 152.571ZM91.1377 182.33V180.154H72.5313V182.33V184.506H91.1377V182.33ZM72.5313 182.33V180.154C57.8904 180.154 45.9509 168.42 45.6963 153.782L43.5205 153.819L41.3447 153.857C41.6406 170.87 55.5161 184.506 72.5313 184.506V182.33ZM43.5205 153.819L45.6963 153.781L45.5303 144.28L43.3545 144.318L41.1787 144.356L41.3447 153.858L43.5205 153.819ZM43.3545 144.318L43.498 142.146C40.2974 141.935 36.1537 141.195 32.694 139.611L31.7881 141.59L30.8822 143.569C34.9794 145.445 39.688 146.256 43.211 146.489L43.3545 144.318ZM31.7881 141.59L32.6941 139.611C28.7031 137.784 25.9433 135.017 26.0195 130.899L23.8438 130.859L21.668 130.818C21.5447 137.476 26.2136 141.431 30.8821 143.569L31.7881 141.59ZM23.8438 130.859L26.0195 130.899C26.1078 126.136 26.8782 123.754 27.6189 122.518L25.752 121.4L23.8851 120.281C22.5839 122.454 21.7626 125.713 21.668 130.818L23.8438 130.859ZM25.752 121.4L27.6188 122.518C27.9812 121.913 28.3596 121.555 28.6678 121.323C28.8276 121.203 28.9828 121.107 29.1378 121.018C29.2196 120.971 29.2929 120.931 29.384 120.881C29.4612 120.838 29.5796 120.773 29.6924 120.703L28.5488 118.852L27.4053 117C27.4653 116.963 26.641 117.403 26.0545 117.843C25.3463 118.375 24.5677 119.142 23.8851 120.281L25.752 121.4ZM28.5488 118.852L29.6923 120.703C31.7449 119.436 37.7824 118.024 43.8346 124.749L45.4522 123.293L47.0697 121.837C39.5442 113.476 31.1629 114.68 27.4054 117L28.5488 118.852ZM45.4522 123.293L43.8347 124.749C44.883 125.914 46.5446 126.704 48.4694 127.266L49.0791 125.177L49.6888 123.088C48.0311 122.604 47.3069 122.101 47.0696 121.837L45.4522 123.293ZM49.0791 125.177L48.4695 127.266C50.4268 127.837 52.8249 128.219 55.5196 128.456L55.71 126.288L55.9003 124.12C53.3555 123.897 51.268 123.549 49.6888 123.088L49.0791 125.177ZM55.71 126.288L55.5196 128.456C60.9126 128.93 67.6629 128.834 74.8156 128.406L74.6856 126.234L74.5555 124.061C67.4882 124.485 60.9821 124.567 55.9003 124.12L55.71 126.288ZM74.6856 126.234L74.8156 128.406C88.9199 127.561 104.757 125.409 115.224 123.655L114.864 121.509L114.505 119.363C104.132 121.101 88.4572 123.229 74.5555 124.061L74.6856 126.234ZM114.864 121.509L116.824 122.454C117.687 120.665 119.317 118.276 121.578 116.501L120.233 114.789L118.889 113.078C115.999 115.348 113.99 118.313 112.904 120.563L114.864 121.509Z" fill="#FCE9B8" mask="url(#path-3-inside-1_1283_1056)"/>
<path d="M125.612 44.4165C131.579 44.4165 136.419 49.2646 136.419 55.2485C136.419 58.2176 135.232 60.3124 133.335 61.688C131.41 63.0844 128.695 63.7798 125.612 63.7798C122.529 63.7797 119.814 63.0844 117.889 61.688C115.993 60.3124 114.805 58.2176 114.805 55.2485C114.805 49.2648 119.645 44.4168 125.612 44.4165Z" fill="#FFFBE8" stroke="#FCE9B8" stroke-width="1.35093"/>
<path d="M31.0479 45.7673C25.0805 45.7673 20.2403 50.6154 20.2402 56.5994C20.2402 59.5684 21.4277 61.6632 23.3242 63.0388C25.2496 64.4353 27.9651 65.1306 31.0479 65.1306C34.1304 65.1305 36.8452 64.4352 38.7705 63.0388C40.667 61.6632 41.8545 59.5684 41.8545 56.5994C41.8544 50.6156 37.015 45.7676 31.0479 45.7673Z" fill="#FFFBE8" stroke="#FCE9B8" stroke-width="1.35093"/>
<path d="M49.5101 48.4688C34.74 45.947 30.447 56.4243 30.1468 61.9781C18.799 65.4004 19.4144 76.1628 21.1406 81.1163C20.1649 80.5159 15.7368 81.1163 15.0614 87.6458C14.3283 94.7337 20.315 97.0272 24.5179 97.5526C18.3937 105.118 25.7188 110.161 30.1468 111.737C30.1468 121.104 40.8041 124.496 46.1328 125.021C51.1763 134.928 61.8936 132.602 66.6219 130.2C78.1498 142.088 90.7885 134.553 95.6669 129.299C108.996 132.181 114.13 124.646 115.03 120.518C135.564 122.139 134.994 112.338 132.142 107.234C142.769 102.551 139.272 95.6763 136.195 92.8243C149.704 83.4579 140.022 75.2622 133.493 72.3352C135.654 61.5278 127.789 59.2762 123.586 59.5014C125.567 52.6567 119.308 51.2457 115.931 51.3958C115.571 45.6319 108.876 45.9921 105.574 46.8927C101.431 35.9052 92.1394 37.9616 88.0116 40.3632C78.1048 28.8353 69.0235 35.5599 65.7213 40.3632C54.3735 36.5806 50.1856 44.1908 49.5101 48.4688Z" fill="#FAB2CD" stroke="#FD83C1" stroke-width="1.35093"/>
<path d="M78.5547 53.4226C103.48 53.4226 121.784 71.8795 121.784 91.4734C121.784 101.232 116.972 109.257 109.021 114.865C101.057 120.483 89.944 123.671 77.4287 123.671C64.8832 123.671 54.6244 121.146 47.5215 116.214C40.4518 111.304 36.4512 103.972 36.4512 94.1755C36.4512 74.502 53.7106 53.4227 78.5547 53.4226Z" fill="#FFFBE8" stroke="#FCE9B8" stroke-width="1.35093"/>
<path d="M110.977 89.222L118.632 87.8711M109.851 95.9767L117.507 99.1288" stroke="#F1C67E" stroke-width="4.5031" stroke-linecap="round"/>
<path d="M47.4836 93.2748L39.8283 91.9238M48.6094 100.029L41.1793 103.182" stroke="#F1C67E" stroke-width="4.5031" stroke-linecap="round"/>
<path d="M77.88 55.4487V76.8384M65.7217 62.8788H89.5881M67.0726 70.9844H88.4623" stroke="#F1C67E" stroke-width="4.5031" stroke-linecap="round"/>
<path d="M75.178 49.1445L81.4823 43.5156" stroke="#E96F91" stroke-width="3.60248" stroke-linecap="round"/>
<path d="M85.0842 47.3433H93.1898" stroke="#F1E488" stroke-width="3.60248" stroke-linecap="round"/>
<path d="M61.8938 45.7672L70.6748 44.4163" stroke="#FDFCFF" stroke-width="3.60248" stroke-linecap="round"/>
<path d="M54.6887 49.1443L59.789 53.4392" stroke="#F7DF83" stroke-width="3.60248" stroke-linecap="round"/>
<path d="M119.533 30.6817L96.1169 47.118L122.235 65.5807C122.61 55.2236 123.316 33.9239 123.136 31.5823C122.955 29.2407 120.659 30.0062 119.533 30.6817Z" fill="#F4F1A4" stroke="#F8E26A" stroke-width="1.35093" stroke-linecap="round"/>
<path d="M113.229 35.1848L122.235 48.9193M101.071 49.8199L122.235 40.8137M108.501 40.1382L122.235 62.6537M102.422 43.9659L110.527 56.5745L122.461 48.9193" stroke="#F8E26A" stroke-width="0.900619" stroke-linecap="round"/>
<path d="M91.1636 51.1707C93.8654 48.619 99.8546 45.5418 102.196 53.6474C105.573 52.7468 112.418 52.7018 112.778 59.7266C116.681 59.2763 123.811 60.4021 121.109 68.5077" stroke="#FD83C1" stroke-width="1.35093"/>
<path d="M102.196 53.9321C99.8546 45.8265 93.8654 48.9036 91.1636 51.4554L121.109 68.7924C123.811 60.6868 116.681 59.561 112.778 60.0113C112.418 52.9865 105.573 53.0315 102.196 53.9321Z" fill="#FAB2CD"/>
<mask id="path-20-inside-2_1283_1056" fill="white">
<path d="M85.7756 88.5188C90.1253 88.5188 93.6516 92.0452 93.6516 96.3948C93.6514 100.744 90.1251 104.27 85.7756 104.27C83.1679 104.27 80.8573 103.002 79.4241 101.049C77.9908 103.001 75.6811 104.27 73.0735 104.27C68.724 104.27 65.1977 100.744 65.1975 96.3948C65.1975 92.0452 68.7239 88.5188 73.0735 88.5188C75.6807 88.5189 77.9908 89.7867 79.4241 91.7385C80.8573 89.7864 83.1683 88.519 85.7756 88.5188Z"/>
</mask>
<path d="M85.7756 88.5188C90.1253 88.5188 93.6516 92.0452 93.6516 96.3948C93.6514 100.744 90.1251 104.27 85.7756 104.27C83.1679 104.27 80.8573 103.002 79.4241 101.049C77.9908 103.001 75.6811 104.27 73.0735 104.27C68.724 104.27 65.1977 100.744 65.1975 96.3948C65.1975 92.0452 68.7239 88.5188 73.0735 88.5188C75.6807 88.5189 77.9908 89.7867 79.4241 91.7385C80.8573 89.7864 83.1683 88.519 85.7756 88.5188Z" fill="#FDFFFB"/>
<path d="M85.7756 88.5188V87.4451H85.7756L85.7756 88.5188ZM93.6516 96.3948L94.7253 96.3948V96.3948H93.6516ZM85.7756 104.27L85.7756 105.344H85.7756V104.27ZM79.4241 101.049L80.2897 100.414L79.4241 99.2346L78.5585 100.414L79.4241 101.049ZM73.0735 104.27V105.344H73.0735L73.0735 104.27ZM65.1975 96.3948H64.1238V96.3948L65.1975 96.3948ZM73.0735 88.5188L73.0735 87.4451H73.0735V88.5188ZM79.4241 91.7385L78.5586 92.3741L79.4242 93.5527L80.2896 92.374L79.4241 91.7385ZM85.7756 88.5188V89.5925C89.5322 89.5925 92.5779 92.6382 92.5779 96.3948H93.6516H94.7253C94.7253 91.4521 90.7183 87.4451 85.7756 87.4451V88.5188ZM93.6516 96.3948L92.5779 96.3947C92.5777 100.151 89.5323 103.196 85.7756 103.196V104.27V105.344C90.718 105.344 94.7251 101.337 94.7253 96.3948L93.6516 96.3948ZM85.7756 104.27L85.7757 103.196C83.5245 103.196 81.5295 102.103 80.2897 100.414L79.4241 101.049L78.5585 101.684C80.1851 103.9 82.8113 105.343 85.7756 105.344L85.7756 104.27ZM79.4241 101.049L78.5585 100.414C77.3185 102.103 75.3242 103.196 73.0734 103.196L73.0735 104.27L73.0735 105.344C76.0379 105.343 78.6631 103.9 80.2896 101.684L79.4241 101.049ZM73.0735 104.27V103.196C69.3168 103.196 66.2714 100.151 66.2712 96.3947L65.1975 96.3948L64.1238 96.3948C64.124 101.337 68.1311 105.344 73.0735 105.344V104.27ZM65.1975 96.3948H66.2712C66.2712 92.6382 69.3169 89.5925 73.0735 89.5925V88.5188V87.4451C68.1309 87.4451 64.1238 91.4521 64.1238 96.3948H65.1975ZM73.0735 88.5188L73.0734 89.5925C75.324 89.5926 77.3186 90.6855 78.5586 92.3741L79.4241 91.7385L80.2895 91.103C78.6629 88.8879 76.0373 87.4452 73.0735 87.4451L73.0735 88.5188ZM79.4241 91.7385L80.2896 92.374C81.5293 90.6854 83.5247 89.5927 85.7757 89.5925L85.7756 88.5188L85.7756 87.4451C82.8118 87.4452 80.1853 88.8874 78.5586 91.1031L79.4241 91.7385Z" fill="#FAD699" mask="url(#path-20-inside-2_1283_1056)"/>
<path d="M84.4212 90.5729C84.4212 92.6869 81.7061 94.6257 79.4678 94.6257C77.2295 94.6257 74.5144 92.6869 74.5144 90.5729C74.2892 87.1956 77.2295 86.9705 79.4678 86.9705C81.7061 86.9705 84.6464 86.9704 84.4212 90.5729Z" fill="#5E3916"/>
<ellipse cx="80.6475" cy="154.403" rx="16.3211" ry="13.4196" fill="#FCE9B8"/>
<circle cx="63.8947" cy="84.8947" r="2.89466" fill="#603C1F"/>
<circle cx="94.8947" cy="84.8947" r="2.89466" fill="#603C1F"/>
</g>
</svg>
