<svg width="159" height="163" viewBox="0 0 159 163" fill="none" xmlns="http://www.w3.org/2000/svg">
<rect width="158.03" height="162.54" rx="79.015" fill="#925FDF"/>
<mask id="mask0_1283_1125" style="mask-type:alpha" maskUnits="userSpaceOnUse" x="0" y="0" width="159" height="163">
<rect width="158.03" height="162.54" rx="79.015" fill="#FAFAFA"/>
</mask>
<g mask="url(#mask0_1283_1125)">
<path d="M75.5689 150.527C59.2164 149.982 51.6459 134.856 49.9046 127.362C29.3732 134.811 19.3952 119.413 16.9726 110.782C13.3388 99.1544 20.7579 87.6172 24.9217 83.3021C11.658 68.222 18.0325 54.1563 22.8776 49.0084C29.4186 37.017 45.7408 38.2586 53.0843 40.3783C56.8696 32.9593 68.3466 18.7574 83.9722 21.301C99.5979 23.8447 105.17 36.4417 106.003 42.4223C120.902 37.8801 132.348 47.343 136.209 52.6423C147.474 70.9928 136.512 83.3022 129.623 87.163C137.799 95.1573 137.421 104.121 136.209 107.603C132.212 125.953 113.952 127.21 105.321 125.545C98.0535 146.984 82.4581 151.132 75.5689 150.527Z" fill="#FF8F57" stroke="#F15B2C" stroke-width="1.19885" stroke-linecap="round"/>
<mask id="path-4-inside-1_1283_1125" fill="white">
<path d="M47.407 45.8286C51.7276 45.8287 55.4186 48.5112 56.9138 52.3003C63.7254 48.8472 71.6204 47.0019 80.2087 47.5386C88.6205 48.0643 96.2235 50.4985 102.659 54.2485C104.44 51.2476 107.711 49.2349 111.454 49.2349C117.098 49.2351 121.674 53.8114 121.674 59.4556C121.673 62.8886 119.979 65.9237 117.383 67.7769C122.32 74.9327 124.884 83.2878 124.36 91.6675C123.029 112.971 101.114 125.331 74.2488 123.652C47.3838 121.973 30.5935 110.081 31.9246 88.7778C32.4572 80.2538 35.9945 71.6813 41.7654 64.5698C39.0064 62.7397 37.1863 59.6071 37.1863 56.0483C37.1865 50.4042 41.7626 45.8286 47.407 45.8286Z"/>
</mask>
<path d="M47.407 45.8286C51.7276 45.8287 55.4186 48.5112 56.9138 52.3003C63.7254 48.8472 71.6204 47.0019 80.2087 47.5386C88.6205 48.0643 96.2235 50.4985 102.659 54.2485C104.44 51.2476 107.711 49.2349 111.454 49.2349C117.098 49.2351 121.674 53.8114 121.674 59.4556C121.673 62.8886 119.979 65.9237 117.383 67.7769C122.32 74.9327 124.884 83.2878 124.36 91.6675C123.029 112.971 101.114 125.331 74.2488 123.652C47.3838 121.973 30.5935 110.081 31.9246 88.7778C32.4572 80.2538 35.9945 71.6813 41.7654 64.5698C39.0064 62.7397 37.1863 59.6071 37.1863 56.0483C37.1865 50.4042 41.7626 45.8286 47.407 45.8286Z" fill="#FECE6D"/>
<path d="M47.407 45.8286L47.407 44.6298H47.407V45.8286ZM56.9138 52.3003L55.7987 52.7404L56.2818 53.9648L57.4559 53.3696L56.9138 52.3003ZM80.2087 47.5386L80.2835 46.3421L80.2835 46.3421L80.2087 47.5386ZM102.659 54.2485L102.055 55.2843L103.083 55.8832L103.69 54.8603L102.659 54.2485ZM111.454 49.2349L111.454 48.036H111.454V49.2349ZM121.674 59.4556L122.872 59.4556V59.4556H121.674ZM117.383 67.7769L116.686 66.8011L115.726 67.4865L116.396 68.4577L117.383 67.7769ZM124.36 91.6675L125.557 91.7423V91.7423L124.36 91.6675ZM74.2488 123.652L74.174 124.848H74.174L74.2488 123.652ZM31.9246 88.7778L30.728 88.7031L30.728 88.7031L31.9246 88.7778ZM41.7654 64.5698L42.6963 65.3252L43.528 64.3004L42.4281 63.5708L41.7654 64.5698ZM37.1863 56.0483L35.9874 56.0483V56.0483H37.1863ZM47.407 45.8286L47.4069 47.0275C51.2181 47.0276 54.4777 49.3929 55.7987 52.7404L56.9138 52.3003L58.029 51.8602C56.3594 47.6294 52.237 44.6299 47.407 44.6298L47.407 45.8286ZM56.9138 52.3003L57.4559 53.3696C64.0849 50.0091 71.7677 48.2123 80.134 48.7351L80.2087 47.5386L80.2835 46.3421C71.4732 45.7915 63.3659 47.6853 56.3717 51.231L56.9138 52.3003ZM80.2087 47.5386L80.134 48.7351C88.3588 49.2491 95.7808 51.628 102.055 55.2843L102.659 54.2485L103.263 53.2127C96.6663 49.3689 88.8822 46.8794 80.2835 46.3421L80.2087 47.5386ZM102.659 54.2485L103.69 54.8603C105.264 52.2079 108.152 50.4337 111.454 50.4337V49.2349V48.036C107.27 48.036 103.615 50.2874 101.628 53.6368L102.659 54.2485ZM111.454 49.2349L111.454 50.4337C116.436 50.4339 120.475 54.4734 120.475 59.4556H121.674H122.872C122.872 53.1494 117.76 48.0363 111.454 48.036L111.454 49.2349ZM121.674 59.4556L120.475 59.4555C120.475 62.4841 118.981 65.1628 116.686 66.8011L117.383 67.7769L118.079 68.7527C120.977 66.6846 122.872 63.293 122.872 59.4556L121.674 59.4556ZM117.383 67.7769L116.396 68.4577C121.197 75.4165 123.669 83.5091 123.164 91.5927L124.36 91.6675L125.557 91.7423C126.099 83.0664 123.443 74.449 118.369 67.096L117.383 67.7769ZM124.36 91.6675L123.164 91.5927C122.526 101.8 116.973 109.887 108.251 115.257C99.5037 120.643 87.5681 123.283 74.3235 122.455L74.2488 123.652L74.174 124.848C87.7947 125.699 100.249 122.999 109.508 117.299C118.793 111.583 124.863 102.839 125.557 91.7423L124.36 91.6675ZM74.2488 123.652L74.3235 122.455C61.0253 121.624 50.3834 118.272 43.257 112.634C36.1867 107.04 32.4792 99.1263 33.1211 88.8526L31.9246 88.7778L30.728 88.7031C30.0389 99.7327 34.061 108.416 41.7693 114.514C49.4215 120.568 60.6073 124.001 74.174 124.848L74.2488 123.652ZM31.9246 88.7778L33.1211 88.8526C33.6366 80.6028 37.0659 72.2636 42.6963 65.3252L41.7654 64.5698L40.8345 63.8144C34.9231 71.099 31.2778 79.9049 30.728 88.7031L31.9246 88.7778ZM41.7654 64.5698L42.4281 63.5708C39.9893 61.9531 38.3851 59.188 38.3851 56.0483H37.1863H35.9874C35.9874 60.0261 38.0235 63.5264 41.1027 65.5689L41.7654 64.5698ZM37.1863 56.0483L38.3851 56.0484C38.3853 51.0664 42.4246 47.0275 47.407 47.0275V45.8286V44.6298C41.1006 44.6298 35.9876 49.7419 35.9874 56.0483L37.1863 56.0483Z" fill="#F59313" mask="url(#path-4-inside-1_1283_1125)"/>
<path d="M69.6638 74.6719C72.2378 76.4888 77.9763 79.0324 80.3383 74.6719C81.1995 73.0821 82.1553 69.8787 78.2943 69.6755C76.8559 69.5998 74.1607 70.1751 74.8875 73.0821C76.0231 75.8075 79.7478 79.5321 86.4705 75.3533" stroke="#603C1F" stroke-width="1.19885" stroke-linecap="round"/>
<ellipse cx="102.142" cy="90.3421" rx="5.45082" ry="3.86088" fill="#F78F8B"/>
<ellipse cx="53.9933" cy="88.0713" rx="5.45082" ry="3.86088" fill="#F78F8B"/>
<rect x="48.0867" y="141.442" width="28.1626" height="13.6266" fill="#FECE6D"/>
<mask id="path-10-inside-2_1283_1125" fill="white">
<path d="M107.678 113.207C111.383 108.875 115.821 105.058 122.032 106.707C124.109 107.258 125.641 108.343 126.714 109.814C127.771 111.262 128.337 113.02 128.622 114.864C129.187 118.511 128.694 122.854 128.34 126.563C127.831 131.902 125.133 136.379 122.06 139.989C119.167 143.387 115.846 146.123 113.583 148.101V155.111H113.711V174.147C113.711 186.559 103.65 196.621 91.2377 196.622H63.3803C50.9682 196.622 40.9066 186.559 40.9066 174.147V155.111H41.1889V148.102C38.926 146.124 35.6048 143.388 32.7113 139.989C29.6383 136.379 26.9407 131.902 26.431 126.563C26.0771 122.854 25.5852 118.511 26.1498 114.864C26.4352 113.02 27.0002 111.262 28.057 109.814C29.1306 108.343 30.6631 107.258 32.7406 106.707C38.9504 105.058 43.3883 108.875 47.0932 113.207C49.2501 115.729 49.8007 118.86 50.0795 121.559C50.2262 122.98 50.2886 124.163 50.4418 125.323C50.5893 126.439 50.7979 127.29 51.1342 127.908C51.1399 127.914 51.1491 127.923 51.1635 127.936C51.2084 127.976 51.29 128.039 51.4252 128.121L51.6449 128.244C51.8876 128.37 52.2001 128.509 52.5873 128.655C53.62 129.044 55.059 129.447 56.8324 129.848C60.3714 130.648 65.114 131.413 70.3187 132.063C72.6102 132.349 74.9877 132.609 77.3851 132.842C79.7831 132.609 82.1606 132.349 84.4525 132.063C89.6573 131.413 94.3998 130.648 97.9389 129.848C99.7122 129.447 101.151 129.044 102.184 128.655C102.7 128.46 103.084 128.278 103.346 128.121C103.481 128.039 103.564 127.976 103.609 127.936C103.622 127.924 103.63 127.915 103.636 127.909C103.973 127.291 104.183 126.44 104.33 125.323C104.484 124.163 104.546 122.98 104.693 121.559C104.972 118.86 105.521 115.729 107.678 113.207Z"/>
</mask>
<path d="M107.678 113.207C111.383 108.875 115.821 105.058 122.032 106.707C124.109 107.258 125.641 108.343 126.714 109.814C127.771 111.262 128.337 113.02 128.622 114.864C129.187 118.511 128.694 122.854 128.34 126.563C127.831 131.902 125.133 136.379 122.06 139.989C119.167 143.387 115.846 146.123 113.583 148.101V155.111H113.711V174.147C113.711 186.559 103.65 196.621 91.2377 196.622H63.3803C50.9682 196.622 40.9066 186.559 40.9066 174.147V155.111H41.1889V148.102C38.926 146.124 35.6048 143.388 32.7113 139.989C29.6383 136.379 26.9407 131.902 26.431 126.563C26.0771 122.854 25.5852 118.511 26.1498 114.864C26.4352 113.02 27.0002 111.262 28.057 109.814C29.1306 108.343 30.6631 107.258 32.7406 106.707C38.9504 105.058 43.3883 108.875 47.0932 113.207C49.2501 115.729 49.8007 118.86 50.0795 121.559C50.2262 122.98 50.2886 124.163 50.4418 125.323C50.5893 126.439 50.7979 127.29 51.1342 127.908C51.1399 127.914 51.1491 127.923 51.1635 127.936C51.2084 127.976 51.29 128.039 51.4252 128.121L51.6449 128.244C51.8876 128.37 52.2001 128.509 52.5873 128.655C53.62 129.044 55.059 129.447 56.8324 129.848C60.3714 130.648 65.114 131.413 70.3187 132.063C72.6102 132.349 74.9877 132.609 77.3851 132.842C79.7831 132.609 82.1606 132.349 84.4525 132.063C89.6573 131.413 94.3998 130.648 97.9389 129.848C99.7122 129.447 101.151 129.044 102.184 128.655C102.7 128.46 103.084 128.278 103.346 128.121C103.481 128.039 103.564 127.976 103.609 127.936C103.622 127.924 103.63 127.915 103.636 127.909C103.973 127.291 104.183 126.44 104.33 125.323C104.484 124.163 104.546 122.98 104.693 121.559C104.972 118.86 105.521 115.729 107.678 113.207Z" fill="#FECE6D"/>
<path d="M107.678 113.207L106.769 112.429L106.769 112.429L107.678 113.207ZM122.032 106.707L122.339 105.55L122.339 105.55L122.032 106.707ZM126.714 109.814L127.681 109.109L127.681 109.108L126.714 109.814ZM128.622 114.864L129.805 114.681V114.681L128.622 114.864ZM128.34 126.563L129.532 126.677V126.677L128.34 126.563ZM122.06 139.989L122.971 140.765L122.971 140.764L122.06 139.989ZM113.583 148.101L112.796 147.2L112.387 147.558V148.101H113.583ZM113.583 155.111H112.387V156.308H113.583V155.111ZM113.711 155.111H114.908V153.914H113.711V155.111ZM91.2377 196.622V197.818H91.2377L91.2377 196.622ZM40.9066 155.111V153.914H39.7099V155.111H40.9066ZM41.1889 155.111V156.308H42.3856V155.111H41.1889ZM41.1889 148.102H42.3856V147.559L41.9764 147.201L41.1889 148.102ZM32.7113 139.989L31.8 140.764L31.8 140.765L32.7113 139.989ZM26.431 126.563L25.2397 126.677L25.2397 126.677L26.431 126.563ZM26.1498 114.864L24.9671 114.681L24.9671 114.681L26.1498 114.864ZM28.057 109.814L27.0904 109.108L27.0903 109.109L28.057 109.814ZM32.7406 106.707L32.4336 105.55L32.4334 105.55L32.7406 106.707ZM47.0932 113.207L48.0026 112.429L48.0026 112.429L47.0932 113.207ZM50.0795 121.559L51.2699 121.436L51.2699 121.436L50.0795 121.559ZM50.4418 125.323L49.2554 125.479L49.2554 125.48L50.4418 125.323ZM51.1342 127.908L50.083 128.48L50.1605 128.622L50.273 128.739L51.1342 127.908ZM51.1635 127.936L50.3696 128.832L50.3699 128.832L51.1635 127.936ZM51.4252 128.121L50.8078 129.146L50.824 129.156L50.8405 129.165L51.4252 128.121ZM51.6449 128.244L51.0602 129.288L51.0757 129.296L51.0914 129.305L51.6449 128.244ZM52.5873 128.655L52.1648 129.774L52.1648 129.774L52.5873 128.655ZM56.8324 129.848L56.5684 131.015L56.5684 131.015L56.8324 129.848ZM70.3187 132.063L70.1705 133.251L70.1705 133.251L70.3187 132.063ZM77.3851 132.842L77.2692 134.033L77.3851 134.045L77.5011 134.033L77.3851 132.842ZM84.4525 132.063L84.6007 133.251L84.6007 133.251L84.4525 132.063ZM97.9389 129.848L98.2028 131.015L98.2028 131.015L97.9389 129.848ZM102.184 128.655L102.606 129.774L102.606 129.774L102.184 128.655ZM103.346 128.121L103.963 129.146L103.964 129.146L103.346 128.121ZM103.609 127.936L104.402 128.832L104.404 128.83L103.609 127.936ZM103.636 127.909L104.493 128.744L104.608 128.626L104.687 128.481L103.636 127.909ZM104.33 125.323L105.517 125.48L105.517 125.479L104.33 125.323ZM104.693 121.559L103.502 121.436V121.436L104.693 121.559ZM107.678 113.207L108.588 113.984C112.276 109.672 116.263 106.413 121.725 107.863L122.032 106.707L122.339 105.55C115.379 103.702 110.49 108.078 106.769 112.429L107.678 113.207ZM122.032 106.707L121.724 107.863C123.548 108.347 124.842 109.279 125.748 110.519L126.714 109.814L127.681 109.108C126.439 107.407 124.671 106.169 122.339 105.55L122.032 106.707ZM126.714 109.814L125.748 110.519C126.654 111.761 127.172 113.315 127.44 115.047L128.622 114.864L129.805 114.681C129.502 112.725 128.889 110.764 127.681 109.109L126.714 109.814ZM128.622 114.864L127.44 115.047C127.976 118.511 127.509 122.677 127.149 126.449L128.34 126.563L129.532 126.677C129.879 123.031 130.398 118.511 129.805 114.681L128.622 114.864ZM128.34 126.563L127.149 126.449C126.672 131.447 124.14 135.699 121.149 139.213L122.06 139.989L122.971 140.764C126.126 137.058 128.989 132.356 129.532 126.677L128.34 126.563ZM122.06 139.989L121.149 139.213C118.327 142.527 115.092 145.193 112.796 147.2L113.583 148.101L114.371 149.002C116.601 147.053 120.006 144.247 122.971 140.765L122.06 139.989ZM113.583 148.101H112.387V155.111H113.583H114.78V148.101H113.583ZM113.583 155.111V156.308H113.711V155.111V153.914H113.583V155.111ZM113.711 155.111H112.515V174.147H113.711H114.908V155.111H113.711ZM113.711 174.147H112.515C112.515 185.898 102.989 195.425 91.2377 195.425L91.2377 196.622L91.2377 197.818C104.311 197.818 114.908 187.22 114.908 174.147H113.711ZM91.2377 196.622V195.425H63.3803V196.622V197.818H91.2377V196.622ZM63.3803 196.622V195.425C51.6292 195.425 42.1034 185.898 42.1034 174.147H40.9066H39.7099C39.7099 187.22 50.3072 197.818 63.3803 197.818V196.622ZM40.9066 174.147H42.1034V155.111H40.9066H39.7099V174.147H40.9066ZM40.9066 155.111V156.308H41.1889V155.111V153.914H40.9066V155.111ZM41.1889 155.111H42.3856V148.102H41.1889H39.9921V155.111H41.1889ZM41.1889 148.102L41.9764 147.201C39.6804 145.194 36.4443 142.528 33.6226 139.213L32.7113 139.989L31.8 140.765C34.7654 144.248 38.1716 147.054 40.4013 149.003L41.1889 148.102ZM32.7113 139.989L33.6226 139.213C30.6313 135.699 28.0995 131.447 27.6224 126.449L26.431 126.563L25.2397 126.677C25.7819 132.356 28.6453 137.058 31.8 140.764L32.7113 139.989ZM26.431 126.563L27.6224 126.449C27.2624 122.677 26.7962 118.511 27.3324 115.047L26.1498 114.864L24.9671 114.681C24.3742 118.511 24.8918 123.031 25.2397 126.677L26.431 126.563ZM26.1498 114.864L27.3324 115.047C27.6006 113.315 28.1181 111.761 29.0237 110.519L28.057 109.814L27.0903 109.109C25.8824 110.764 25.2699 112.726 24.9671 114.681L26.1498 114.864ZM28.057 109.814L29.0237 110.52C29.9291 109.279 31.2244 108.347 33.0478 107.863L32.7406 106.707L32.4334 105.55C30.1018 106.169 28.3322 107.407 27.0904 109.108L28.057 109.814ZM32.7406 106.707L33.0477 107.863C38.5083 106.414 42.4952 109.672 46.1837 113.984L47.0932 113.207L48.0026 112.429C44.2814 108.078 39.3924 103.703 32.4336 105.55L32.7406 106.707ZM47.0932 113.207L46.1837 113.984C48.0869 116.21 48.6139 119.017 48.8891 121.682L50.0795 121.559L51.2699 121.436C50.9875 118.702 50.4132 115.247 48.0026 112.429L47.0932 113.207ZM50.0795 121.559L48.8891 121.682C49.0261 123.009 49.1014 124.314 49.2554 125.479L50.4418 125.323L51.6282 125.166C51.4758 124.012 51.4263 122.951 51.2699 121.436L50.0795 121.559ZM50.4418 125.323L49.2554 125.48C49.4077 126.633 49.6384 127.663 50.083 128.48L51.1342 127.908L52.1853 127.336C51.9574 126.917 51.7708 126.245 51.6282 125.166L50.4418 125.323ZM51.1342 127.908L50.273 128.739C50.2818 128.748 50.3182 128.786 50.3696 128.832L51.1635 127.936L51.9573 127.041C51.9679 127.05 51.9775 127.059 51.9859 127.067C51.9935 127.075 52.0002 127.082 51.9954 127.077L51.1342 127.908ZM51.1635 127.936L50.3699 128.832C50.4788 128.928 50.6216 129.034 50.8078 129.146L51.4252 128.121L52.0426 127.095C51.9583 127.045 51.9381 127.023 51.957 127.04L51.1635 127.936ZM51.4252 128.121L50.8405 129.165L51.0602 129.288L51.6449 128.244L52.2296 127.199L52.0099 127.076L51.4252 128.121ZM51.6449 128.244L51.0914 129.305C51.3872 129.459 51.7456 129.616 52.1648 129.774L52.5873 128.655L53.0098 127.535C52.6545 127.401 52.388 127.282 52.1984 127.183L51.6449 128.244ZM52.5873 128.655L52.1648 129.774C53.2725 130.192 54.7726 130.609 56.5684 131.015L56.8324 129.848L57.0964 128.681C55.3454 128.285 53.9675 127.896 53.0097 127.535L52.5873 128.655ZM56.8324 129.848L56.5684 131.015C60.1612 131.828 64.9468 132.599 70.1705 133.251L70.3187 132.063L70.467 130.875C65.2812 130.228 60.5816 129.469 57.0964 128.681L56.8324 129.848ZM70.3187 132.063L70.1705 133.251C72.4743 133.538 74.8626 133.799 77.2692 134.033L77.3851 132.842L77.5011 131.651C75.1127 131.419 72.7462 131.16 70.467 130.875L70.3187 132.063ZM77.3851 132.842L77.5011 134.033C79.9081 133.799 82.2965 133.538 84.6007 133.251L84.4525 132.063L84.3043 130.875C82.0247 131.16 79.6581 131.419 77.2692 131.651L77.3851 132.842ZM84.4525 132.063L84.6007 133.251C89.8245 132.599 94.61 131.828 98.2028 131.015L97.9389 129.848L97.6749 128.681C94.1896 129.469 89.4901 130.228 84.3043 130.875L84.4525 132.063ZM97.9389 129.848L98.2028 131.015C99.9986 130.609 101.499 130.192 102.606 129.774L102.184 128.655L101.762 127.535C100.804 127.896 99.4258 128.285 97.6749 128.681L97.9389 129.848ZM102.184 128.655L102.606 129.774C103.161 129.565 103.617 129.354 103.963 129.146L103.346 128.121L102.729 127.095C102.55 127.203 102.239 127.355 101.761 127.535L102.184 128.655ZM103.346 128.121L103.964 129.146C104.146 129.036 104.291 128.931 104.402 128.832L103.609 127.936L102.815 127.04C102.828 127.029 102.829 127.03 102.813 127.041C102.799 127.051 102.771 127.07 102.729 127.095L103.346 128.121ZM103.609 127.936L104.404 128.83C104.439 128.799 104.467 128.771 104.487 128.751C104.495 128.742 104.503 128.734 104.504 128.732C104.509 128.727 104.502 128.735 104.493 128.744L103.636 127.909L102.779 127.073C102.772 127.08 102.767 127.086 102.764 127.089C102.761 127.092 102.758 127.095 102.758 127.095C102.756 127.097 102.76 127.094 102.764 127.089C102.774 127.079 102.791 127.062 102.814 127.042L103.609 127.936ZM103.636 127.909L104.687 128.481C105.132 127.665 105.364 126.635 105.517 125.48L104.33 125.323L103.144 125.166C103.001 126.245 102.814 126.917 102.585 127.336L103.636 127.909ZM104.33 125.323L105.517 125.479C105.671 124.314 105.746 123.009 105.883 121.682L104.693 121.559L103.502 121.436C103.346 122.951 103.296 124.012 103.144 125.166L104.33 125.323ZM104.693 121.559L105.883 121.682C106.158 119.017 106.684 116.21 108.588 113.984L107.678 113.207L106.769 112.429C104.358 115.248 103.785 118.702 103.502 121.436L104.693 121.559Z" fill="#F59313" mask="url(#path-10-inside-2_1283_1125)"/>
<path d="M75.5694 150.527C59.217 149.982 50.7193 134.019 48.978 126.525L106.055 125.51C98.7869 146.949 82.4586 151.132 75.5694 150.527Z" fill="#FF8F57" stroke="#F15B2C" stroke-width="1.19885" stroke-linecap="round"/>
<path d="M75.5682 149.164C59.2157 148.619 50.1183 132.613 49.4841 124.622L105.673 124.242C98.1895 147.96 82.4574 149.77 75.5682 149.164Z" fill="#FF8F57"/>
<path d="M83.2078 85.925C87.3786 85.925 90.7595 89.3061 90.7595 93.4768C90.7595 97.6476 87.3786 101.029 83.2078 101.029C80.707 101.029 78.4913 99.8122 77.1169 97.9397C75.7425 99.812 73.5269 101.029 71.0261 101.029C66.8555 101.028 63.4744 97.6474 63.4744 93.4768C63.4744 89.3062 66.8555 85.9253 71.0261 85.925C73.5265 85.925 75.7425 87.141 77.1169 89.0129C78.4914 87.1409 80.7073 85.9251 83.2078 85.925Z" fill="#FDFFFB"/>
<path d="M81.9091 87.8945C81.9091 89.9215 79.3055 91.7806 77.1592 91.7806C75.0129 91.7806 72.4094 89.9215 72.4094 87.8945C72.1935 84.6561 75.0129 84.4402 77.1592 84.4402C79.3055 84.4402 82.125 84.4402 81.9091 87.8945Z" fill="#5E3916"/>
<ellipse cx="62.4662" cy="83.1451" rx="3.02263" ry="3.02254" fill="#603C1F"/>
<ellipse cx="90.029" cy="82.4964" rx="3.02263" ry="3.02254" fill="#603C1F"/>
<ellipse cx="76.9902" cy="169.48" rx="16.924" ry="13.7304" fill="#F8A233"/>
</g>
</svg>
