<svg width="393" height="852" viewBox="0 0 393 852" fill="none" xmlns="http://www.w3.org/2000/svg">
<g clip-path="url(#clip0_1808_376)">
<rect width="393" height="852" fill="#0A0E1A"/>
<rect width="393" height="852" fill="#ED1C24"/>
<path d="M0.936852 31.0953C0.936852 31.0953 102.864 64.2053 154.014 161.382C206.004 260.154 207.397 422.959 113.214 442.928C62.5494 453.67 19.3174 434.91 -0.461166 377.975C-20.1734 321.231 -0.0735376 273.109 43.5814 245.101C137.046 185.137 269.081 309.93 311.974 431.176C354.953 552.666 331.203 736.282 220.502 747.735C168.725 753.091 121.823 729.922 103.24 672.592C85.0256 616.397 103.885 566.425 147.283 539.719C239.872 482.741 380.506 595.582 412.687 717.303C433.699 796.78 420.819 860.068 372.522 914.654" stroke="#FD3F47" stroke-opacity="0.55" stroke-width="57.0871" stroke-linecap="round"/>
<circle cx="197" cy="4" r="273" fill="#FAFAFA"/>
</g>
<defs>
<clipPath id="clip0_1808_376">
<rect width="393" height="852" fill="white"/>
</clipPath>
</defs>
</svg>
