<svg width="346" height="235" viewBox="0 0 346 235" fill="none" xmlns="http://www.w3.org/2000/svg">
<mask id="path-1-inside-1_1806_375" fill="white">
<path d="M155.805 125.73C159.912 122.504 165.397 120.366 171.977 121.939C175.273 122.727 177.682 124.261 179.347 126.287C181.001 128.3 181.85 130.715 182.189 133.166C182.862 138.027 181.559 143.259 180.181 146.59L180.13 146.713L180.055 146.824C176.971 151.397 168.016 160.397 155.198 162.834L155.673 181.313C156.288 205.308 137.004 225.094 113.001 225.094H85.6279C62.343 225.093 43.3543 206.432 42.9492 183.15L42.705 169.172C37.7593 168.845 31.248 167.703 25.6894 165.158C19.3198 162.241 13.8552 157.297 14.0019 149.371C14.1364 142.112 15.3077 137.962 16.8095 135.455C18.3467 132.889 20.2134 132.145 20.9238 131.706C25.1975 129.067 35.8036 127.144 45.791 138.241C46.7366 139.292 48.4916 140.242 51.1269 141.012C53.7284 141.771 57.0275 142.308 60.8818 142.646C68.5868 143.323 78.3378 143.193 88.7978 142.566C109.398 141.333 132.577 138.184 147.906 135.615C149.34 132.643 152.016 128.706 155.805 125.73Z"/>
</mask>
<path d="M155.805 125.73C159.912 122.504 165.397 120.366 171.977 121.939C175.273 122.727 177.682 124.261 179.347 126.287C181.001 128.3 181.85 130.715 182.189 133.166C182.862 138.027 181.559 143.259 180.181 146.59L180.13 146.713L180.055 146.824C176.971 151.397 168.016 160.397 155.198 162.834L155.673 181.313C156.288 205.308 137.004 225.094 113.001 225.094H85.6279C62.343 225.093 43.3543 206.432 42.9492 183.15L42.705 169.172C37.7593 168.845 31.248 167.703 25.6894 165.158C19.3198 162.241 13.8552 157.297 14.0019 149.371C14.1364 142.112 15.3077 137.962 16.8095 135.455C18.3467 132.889 20.2134 132.145 20.9238 131.706C25.1975 129.067 35.8036 127.144 45.791 138.241C46.7366 139.292 48.4916 140.242 51.1269 141.012C53.7284 141.771 57.0275 142.308 60.8818 142.646C68.5868 143.323 78.3378 143.193 88.7978 142.566C109.398 141.333 132.577 138.184 147.906 135.615C149.34 132.643 152.016 128.706 155.805 125.73Z" fill="#FFFBE8"/>
<path d="M155.805 125.73L153.827 123.213L153.827 123.213L155.805 125.73ZM171.977 121.939L172.722 118.826L172.722 118.826L171.977 121.939ZM179.347 126.287L181.82 124.255L181.82 124.255L179.347 126.287ZM182.189 133.166L185.361 132.727L185.361 132.727L182.189 133.166ZM180.181 146.59L177.222 145.366L177.221 145.368L180.181 146.59ZM180.13 146.713L182.783 148.505L182.965 148.235L183.089 147.934L180.13 146.713ZM180.055 146.824L177.402 145.032L177.4 145.034L180.055 146.824ZM155.198 162.834L154.6 159.689L151.928 160.197L151.998 162.916L155.198 162.834ZM155.673 181.313L158.873 181.231V181.231L155.673 181.313ZM85.6279 225.094L85.6279 228.295H85.6279V225.094ZM42.9492 183.15L46.1501 183.095L46.1501 183.094L42.9492 183.15ZM42.705 169.172L45.906 169.116L45.8545 166.171L42.9161 165.977L42.705 169.172ZM25.6894 165.158L24.3566 168.069L24.3566 168.069L25.6894 165.158ZM14.0019 149.371L10.801 149.312L10.801 149.312L14.0019 149.371ZM16.8095 135.455L14.0631 133.81L14.0631 133.81L16.8095 135.455ZM20.9238 131.706L19.2416 128.982L19.2415 128.982L20.9238 131.706ZM45.791 138.241L48.1706 136.099L48.1706 136.099L45.791 138.241ZM51.1269 141.012L50.2299 144.085L50.23 144.085L51.1269 141.012ZM60.8818 142.646L60.6018 145.835L60.6018 145.835L60.8818 142.646ZM88.7978 142.566L88.9892 145.762H88.9892L88.7978 142.566ZM147.906 135.615L148.435 138.772L150.07 138.499L150.79 137.006L147.906 135.615ZM155.805 125.73L157.782 128.248C161.324 125.466 165.828 123.761 171.233 125.053L171.977 121.939L172.722 118.826C164.965 116.971 158.5 119.542 153.827 123.213L155.805 125.73ZM171.977 121.939L171.233 125.053C173.928 125.697 175.7 126.891 176.873 128.319L179.347 126.287L181.82 124.255C179.664 121.63 176.619 119.758 172.722 118.826L171.977 121.939ZM179.347 126.287L176.873 128.319C178.061 129.765 178.738 131.579 179.018 133.605L182.189 133.166L185.361 132.727C184.963 129.852 183.941 126.836 181.82 124.255L179.347 126.287ZM182.189 133.166L179.018 133.605C179.586 137.71 178.472 142.346 177.222 145.366L180.181 146.59L183.139 147.814C184.645 144.173 186.138 138.345 185.361 132.727L182.189 133.166ZM180.181 146.59L177.221 145.368L177.171 145.491L180.13 146.713L183.089 147.934L183.14 147.811L180.181 146.59ZM180.13 146.713L177.477 144.921L177.402 145.032L180.055 146.824L182.708 148.616L182.783 148.505L180.13 146.713ZM180.055 146.824L177.4 145.034C174.645 149.12 166.349 157.455 154.6 159.689L155.198 162.834L155.796 165.979C169.683 163.338 179.297 153.673 182.709 148.614L180.055 146.824ZM155.198 162.834L151.998 162.916L152.472 181.395L155.673 181.313L158.873 181.231L158.399 162.752L155.198 162.834ZM155.673 181.313L152.472 181.395C153.042 203.591 135.204 221.892 113.001 221.892V225.094V228.295C138.804 228.295 159.535 207.026 158.873 181.231L155.673 181.313ZM113.001 225.094V221.892H85.6279V225.094V228.295H113.001V225.094ZM85.6279 225.094L85.6279 221.892C64.0895 221.892 46.5248 204.63 46.1501 183.095L42.9492 183.15L39.7482 183.206C40.1837 208.233 60.5966 228.295 85.6279 228.295L85.6279 225.094ZM42.9492 183.15L46.1501 183.094L45.906 169.116L42.705 169.172L39.5041 169.228L39.7483 183.206L42.9492 183.15ZM42.705 169.172L42.9161 165.977C38.2079 165.666 32.1121 164.578 27.0222 162.247L25.6894 165.158L24.3566 168.069C30.3839 170.829 37.3106 172.024 42.494 172.366L42.705 169.172ZM25.6894 165.158L27.0222 162.247C21.1509 159.559 17.0907 155.488 17.2028 149.43L14.0019 149.371L10.801 149.312C10.6198 159.106 17.4887 164.924 24.3566 168.069L25.6894 165.158ZM14.0019 149.371L17.2028 149.43C17.3326 142.424 18.4663 138.919 19.556 137.1L16.8095 135.455L14.0631 133.81C12.149 137.006 10.9402 141.801 10.801 149.312L14.0019 149.371ZM16.8095 135.455L19.5559 137.1C20.0891 136.21 20.646 135.683 21.0996 135.342C21.3348 135.166 21.563 135.023 21.791 134.892C21.9112 134.823 22.0191 134.764 22.153 134.691C22.2664 134.628 22.4404 134.532 22.6061 134.43L20.9238 131.706L19.2415 128.982C19.3276 128.929 18.1177 129.574 17.2539 130.223C16.2123 131.005 15.0671 132.134 14.0631 133.81L16.8095 135.455ZM20.9238 131.706L22.606 134.43C25.6253 132.565 34.5075 130.49 43.4114 140.383L45.791 138.241L48.1706 136.099C37.0998 123.799 24.7698 125.568 19.2416 128.982L20.9238 131.706ZM45.791 138.241L43.4114 140.383C44.954 142.097 47.3993 143.259 50.2299 144.085L51.1269 141.012L52.0239 137.938C49.5838 137.226 48.5192 136.487 48.1706 136.099L45.791 138.241ZM51.1269 141.012L50.23 144.085C53.1098 144.925 56.6374 145.487 60.6018 145.835L60.8818 142.646L61.1618 139.457C57.4176 139.128 54.347 138.616 52.0239 137.938L51.1269 141.012ZM60.8818 142.646L60.6018 145.835C68.5356 146.532 78.4662 146.392 88.9892 145.762L88.7978 142.566L88.6064 139.371C78.2093 139.993 68.6381 140.114 61.1618 139.457L60.8818 142.646ZM88.7978 142.566L88.9892 145.762C109.739 144.519 133.037 141.353 148.435 138.772L147.906 135.615L147.377 132.458C132.118 135.015 109.058 138.146 88.6064 139.371L88.7978 142.566ZM147.906 135.615L150.79 137.006C152.06 134.374 154.456 130.86 157.782 128.248L155.805 125.73L153.827 123.213C149.576 126.552 146.62 130.913 145.023 134.224L147.906 135.615Z" fill="#FCE9B8" mask="url(#path-1-inside-1_1806_375)"/>
<path d="M163.72 22.2021C172.499 22.2021 179.619 29.3345 179.619 38.1377C179.619 42.5056 177.872 45.5877 175.082 47.6113C172.25 49.6657 168.255 50.6875 163.72 50.6875C159.185 50.6874 155.191 49.6656 152.358 47.6113C149.568 45.5877 147.821 42.5057 147.821 38.1377C147.821 29.3346 154.941 22.2023 163.72 22.2021Z" fill="#FFFBE8" stroke="#FCE9B8" stroke-width="1.9874"/>
<path d="M24.6016 24.1895C15.8227 24.1895 8.70217 31.3218 8.70215 40.125C8.70215 44.4929 10.4492 47.575 13.2393 49.5986C16.0718 51.653 20.0665 52.6748 24.6016 52.6748C29.1365 52.6748 33.1304 51.6529 35.9629 49.5986C38.753 47.575 40.5 44.493 40.5 40.125C40.5 31.3219 33.3803 24.1896 24.6016 24.1895Z" fill="#FFFBE8" stroke="#FCE9B8" stroke-width="1.9874"/>
<path d="M51.7623 28.1639C30.0334 24.4541 23.7178 39.8675 23.2762 48.0379C6.58202 53.0726 7.48739 68.9057 10.0268 76.1928C8.59151 75.3096 2.07716 76.1928 1.08356 85.7986C0.0049898 96.2259 8.81233 99.6 14.9953 100.373C5.98579 111.502 16.7619 118.922 23.2762 121.241C23.2762 135.02 38.9546 140.011 46.7938 140.783C54.2134 155.358 69.9801 151.935 76.936 148.402C93.8952 165.891 112.488 154.806 119.665 147.077C139.274 151.317 146.826 140.231 148.151 134.159C178.36 136.544 177.521 122.124 173.325 114.616C188.959 107.726 183.814 97.6126 179.287 93.417C199.161 79.6377 184.918 67.5808 175.312 63.2747C178.492 47.3755 166.921 44.0632 160.738 44.3944C163.653 34.3249 154.445 32.2492 149.476 32.47C148.946 23.9904 139.098 24.5204 134.239 25.8453C128.145 9.68113 114.476 12.7064 108.403 16.2395C93.829 -0.719642 80.4692 9.1732 75.6111 16.2395C58.9169 10.6748 52.756 21.8705 51.7623 28.1639Z" fill="#FAB2CD" stroke="#FD83C1" stroke-width="1.9874"/>
<path d="M94.4922 35.4517C131.161 35.4517 158.089 62.6048 158.089 91.4302C158.089 105.787 151.008 117.592 139.312 125.842C127.596 134.107 111.248 138.796 92.8359 138.796C74.3796 138.796 59.2873 135.082 48.8379 127.826C38.4373 120.603 32.5518 109.817 32.5518 95.4048C32.5518 66.4623 57.9431 35.4517 94.4922 35.4517Z" fill="#FFFBE8" stroke="#FCE9B8" stroke-width="1.9874"/>
<path d="M142.189 88.1168L153.451 86.1294M140.533 98.0538L151.795 102.691" stroke="#F1C67E" stroke-width="6.62467" stroke-linecap="round"/>
<path d="M48.7823 94.0797L37.5204 92.0923M50.4385 104.017L39.5078 108.654" stroke="#F1C67E" stroke-width="6.62467" stroke-linecap="round"/>
<path d="M93.4989 38.4321V69.8993M75.6123 49.3628H110.723M77.5997 61.2873H109.067" stroke="#F1C67E" stroke-width="6.62467" stroke-linecap="round"/>
<path d="M89.5234 29.1578L98.798 20.877" stroke="#E96F91" stroke-width="5.29974" stroke-linecap="round"/>
<path d="M104.097 26.5078H116.021" stroke="#F1E488" stroke-width="5.29974" stroke-linecap="round"/>
<path d="M69.9805 24.1896L82.8986 22.2021" stroke="#FDFCFF" stroke-width="5.29974" stroke-linecap="round"/>
<path d="M59.3809 29.1577L66.884 35.4762" stroke="#F7DF83" stroke-width="5.29974" stroke-linecap="round"/>
<path d="M154.776 1.99648L120.328 26.1765L158.751 53.3377C159.303 38.101 160.341 6.76624 160.076 3.32141C159.811 -0.12342 156.433 1.00277 154.776 1.99648Z" fill="#F4F1A4" stroke="#F8E26A" stroke-width="1.9874" stroke-linecap="round"/>
<path d="M145.502 8.62109L158.751 28.8264M127.615 30.1513L158.751 16.9019M138.546 15.9082L158.751 49.0316M129.603 21.5392L141.527 40.0883L159.082 28.8264" stroke="#F8E26A" stroke-width="1.32493" stroke-linecap="round"/>
<path d="M113.041 32.1384C117.016 28.3844 125.827 23.8576 129.271 35.782C134.24 34.4571 144.309 34.3909 144.839 44.7254C150.581 44.0629 161.07 45.7191 157.095 57.6435" stroke="#FD83C1" stroke-width="1.9874"/>
<path d="M129.271 36.2014C125.827 24.277 117.016 28.8039 113.041 32.5578L157.095 58.0629C161.07 46.1385 150.581 44.4823 144.839 45.1448C144.309 34.8103 134.24 34.8765 129.271 36.2014Z" fill="#FAB2CD"/>
<mask id="path-18-inside-2_1806_375" fill="white">
<path d="M105.113 87.0825C111.512 87.0825 116.699 92.2698 116.699 98.6685C116.699 105.067 111.512 110.255 105.113 110.255C101.277 110.255 97.8782 108.39 95.7695 105.518C93.6609 108.39 90.2625 110.255 86.4268 110.255C80.0279 110.255 74.8408 105.067 74.8408 98.6685C74.8411 92.2698 80.028 87.0825 86.4268 87.0825C90.2622 87.0826 93.6608 88.9476 95.7695 91.8188C97.8782 88.9474 101.278 87.0826 105.113 87.0825Z"/>
</mask>
<path d="M105.113 87.0825C111.512 87.0825 116.699 92.2698 116.699 98.6685C116.699 105.067 111.512 110.255 105.113 110.255C101.277 110.255 97.8782 108.39 95.7695 105.518C93.6609 108.39 90.2625 110.255 86.4268 110.255C80.0279 110.255 74.8408 105.067 74.8408 98.6685C74.8411 92.2698 80.028 87.0825 86.4268 87.0825C90.2622 87.0826 93.6608 88.9476 95.7695 91.8188C97.8782 88.9474 101.278 87.0826 105.113 87.0825Z" fill="#FDFFFB"/>
<path d="M105.113 87.0825V85.5029H105.113L105.113 87.0825ZM116.699 98.6685H118.279V98.6684L116.699 98.6685ZM105.113 110.255L105.113 111.835H105.113V110.255ZM95.7695 105.518L97.0428 104.583L95.7696 102.849L94.4963 104.583L95.7695 105.518ZM86.4268 110.255V111.835H86.4268L86.4268 110.255ZM74.8408 98.6685L73.2612 98.6684V98.6685H74.8408ZM86.4268 87.0825L86.4268 85.5029H86.4268V87.0825ZM95.7695 91.8188L94.4964 92.7539L95.7696 94.4875L97.0427 92.7538L95.7695 91.8188ZM105.113 87.0825V88.6621C110.64 88.6621 115.119 93.1421 115.12 98.6685L116.699 98.6685L118.279 98.6684C118.279 91.3974 112.384 85.5029 105.113 85.5029V87.0825ZM116.699 98.6685H115.12C115.12 104.195 110.64 108.676 105.113 108.676V110.255V111.835C112.385 111.835 118.279 105.94 118.279 98.6685H116.699ZM105.113 110.255L105.113 108.676C101.802 108.676 98.867 107.068 97.0428 104.583L95.7695 105.518L94.4963 106.453C96.8894 109.712 100.753 111.835 105.113 111.835L105.113 110.255ZM95.7695 105.518L94.4963 104.583C92.672 107.068 89.7376 108.676 86.4267 108.676L86.4268 110.255L86.4268 111.835C90.7874 111.835 94.6498 109.712 97.0427 106.453L95.7695 105.518ZM86.4268 110.255V108.676C80.9004 108.676 76.4204 104.195 76.4204 98.6685H74.8408H73.2612C73.2612 105.94 79.1553 111.835 86.4268 111.835V110.255ZM74.8408 98.6685L76.4204 98.6685C76.4207 93.1421 80.9005 88.6621 86.4268 88.6621V87.0825V85.5029C79.1556 85.5029 73.2615 91.3974 73.2612 98.6684L74.8408 98.6685ZM86.4268 87.0825L86.4267 88.6621C89.7376 88.6622 92.6721 90.2699 94.4964 92.7539L95.7695 91.8188L97.0427 90.8838C94.6496 87.6253 90.7869 85.5029 86.4268 85.5029L86.4268 87.0825ZM95.7695 91.8188L97.0427 92.7538C98.8668 90.2698 101.802 88.6622 105.113 88.6621L105.113 87.0825L105.113 85.5029C100.753 85.503 96.8896 87.6249 94.4963 90.8839L95.7695 91.8188Z" fill="#FAD699" mask="url(#path-18-inside-2_1806_375)"/>
<path d="M103.122 90.1044C103.122 93.2143 99.1272 96.0666 95.8343 96.0666C92.5415 96.0666 88.5472 93.2143 88.5472 90.1044C88.216 85.1359 92.5415 84.8047 95.8343 84.8047C99.1272 84.8047 103.453 84.8046 103.122 90.1044Z" fill="#5E3916"/>
<path d="M67.6885 212.287C75.1432 212.287 81.5536 213.083 86.1943 214.613C90.8659 216.154 93.3658 218.3 93.8291 220.757C93.8332 223.417 93.9799 226.061 91.1982 228.26C88.2304 230.606 81.7665 232.562 67.6885 232.562C53.6105 232.562 47.1465 230.606 44.1787 228.26C41.3951 226.06 41.543 223.413 41.5469 220.751C42.0109 218.03 44.5173 215.886 49.1699 214.417C53.8077 212.952 60.2172 212.287 67.6885 212.287Z" fill="#FFFBE8" stroke="#FCE9B8" stroke-width="2.13427"/>
<path d="M58.6191 224.025V230.961" stroke="#FCE9B8" stroke-width="2.13427" stroke-linecap="round"/>
<path d="M66.6221 224.025V230.961" stroke="#FCE9B8" stroke-width="2.13427" stroke-linecap="round"/>
<path d="M74.0918 224.025V230.961" stroke="#FCE9B8" stroke-width="2.13427" stroke-linecap="round"/>
<path d="M129.584 212.287C137.039 212.287 143.449 213.083 148.09 214.613C152.761 216.154 155.261 218.3 155.725 220.757C155.729 223.417 155.875 226.061 153.094 228.26C150.126 230.606 143.662 232.562 129.584 232.562C115.506 232.562 109.042 230.606 106.074 228.26C103.291 226.06 103.438 223.413 103.442 220.751C103.906 218.03 106.413 215.886 111.065 214.417C115.703 212.952 122.113 212.287 129.584 212.287Z" fill="#FFFBE8" stroke="#FCE9B8" stroke-width="2.13427"/>
<path d="M120.513 224.025V230.961" stroke="#FCE9B8" stroke-width="2.13427" stroke-linecap="round"/>
<path d="M128.517 224.025V230.961" stroke="#FCE9B8" stroke-width="2.13427" stroke-linecap="round"/>
<path d="M135.985 224.025V230.961" stroke="#FCE9B8" stroke-width="2.13427" stroke-linecap="round"/>
<ellipse cx="97.5692" cy="184.008" rx="24.0106" ry="19.742" fill="#FCE9B8"/>
<path d="M113.043 85.2974C113.043 85.2974 113.577 81.0288 118.912 81.0288C124.248 81.0288 124.781 85.2974 124.781 85.2974" stroke="#5E3916" stroke-width="2.13427" stroke-linecap="round"/>
<path d="M67.1553 85.2974C67.1553 85.2974 67.6888 81.0288 73.0245 81.0288C78.3602 81.0288 78.8938 85.2974 78.8938 85.2974" stroke="#5E3916" stroke-width="2.13427" stroke-linecap="round"/>
<mask id="path-32-inside-3_1806_375" fill="white">
<path d="M328.099 77.9503C330.555 77.9219 333.171 78.8893 335.905 81.0997C341.407 85.5484 343.97 93.0091 345.009 100.307C346.05 107.624 345.591 115.005 344.844 119.602C343.704 128.033 338.936 136.671 333.537 143.985C328.475 150.844 322.784 156.639 318.786 160.148C319.538 161.131 320.182 162.35 320.738 163.668C321.476 165.416 322.09 167.417 322.594 169.44C323.601 173.485 324.189 177.709 324.423 180.375L324.431 180.467H324.516L324.578 184.333C324.938 206.999 306.663 225.567 283.994 225.567H224.012C201.322 225.566 183.039 206.966 183.429 184.28L183.486 180.88L183.469 180.52C183.239 175.93 184.242 171.013 185.557 166.767C186.301 164.367 187.152 162.158 187.957 160.314C176.887 166.725 165.007 163.977 160.042 161.538L159.979 161.508L159.922 161.469C156.886 159.445 153.463 155.596 153.719 150.695C153.977 145.752 157.942 140.324 168.312 135.083C188.437 124.913 200.95 116.053 204.885 112.757C206.887 107.27 211.944 103.944 218.487 102.098C225.154 100.217 233.572 99.8008 242.506 100.273C259.83 101.187 279.389 105.459 292.598 109.251L293.856 109.616L294.224 109.724L294.436 110.043L299.443 117.553C303.607 115.33 306.973 110.913 309.518 106.034C312.209 100.877 313.891 95.3803 314.61 91.9181L314.622 91.8644L314.639 91.8116C315.771 88.2733 318.158 83.4017 321.708 80.4777C323.504 78.9987 325.647 77.9789 328.099 77.9503Z"/>
</mask>
<path d="M328.099 77.9503C330.555 77.9219 333.171 78.8893 335.905 81.0997C341.407 85.5484 343.97 93.0091 345.009 100.307C346.05 107.624 345.591 115.005 344.844 119.602C343.704 128.033 338.936 136.671 333.537 143.985C328.475 150.844 322.784 156.639 318.786 160.148C319.538 161.131 320.182 162.35 320.738 163.668C321.476 165.416 322.09 167.417 322.594 169.44C323.601 173.485 324.189 177.709 324.423 180.375L324.431 180.467H324.516L324.578 184.333C324.938 206.999 306.663 225.567 283.994 225.567H224.012C201.322 225.566 183.039 206.966 183.429 184.28L183.486 180.88L183.469 180.52C183.239 175.93 184.242 171.013 185.557 166.767C186.301 164.367 187.152 162.158 187.957 160.314C176.887 166.725 165.007 163.977 160.042 161.538L159.979 161.508L159.922 161.469C156.886 159.445 153.463 155.596 153.719 150.695C153.977 145.752 157.942 140.324 168.312 135.083C188.437 124.913 200.95 116.053 204.885 112.757C206.887 107.27 211.944 103.944 218.487 102.098C225.154 100.217 233.572 99.8008 242.506 100.273C259.83 101.187 279.389 105.459 292.598 109.251L293.856 109.616L294.224 109.724L294.436 110.043L299.443 117.553C303.607 115.33 306.973 110.913 309.518 106.034C312.209 100.877 313.891 95.3803 314.61 91.9181L314.622 91.8644L314.639 91.8116C315.771 88.2733 318.158 83.4017 321.708 80.4777C323.504 78.9987 325.647 77.9789 328.099 77.9503Z" fill="#B8E7EE"/>
<path d="M328.099 77.9503L328.068 75.2446L328.068 75.2446L328.099 77.9503ZM335.905 81.0997L337.606 78.9956L337.606 78.9955L335.905 81.0997ZM345.009 100.307L347.688 99.9255L347.688 99.9255L345.009 100.307ZM344.844 119.602L342.173 119.167L342.167 119.203L342.162 119.239L344.844 119.602ZM333.537 143.985L335.714 145.592L335.714 145.592L333.537 143.985ZM318.786 160.148L317.001 158.114L315.1 159.782L316.636 161.791L318.786 160.148ZM320.738 163.668L323.231 162.616L323.231 162.616L320.738 163.668ZM322.594 169.44L325.219 168.786L325.219 168.786L322.594 169.44ZM324.423 180.375L327.119 180.146L327.118 180.139L324.423 180.375ZM324.431 180.467L321.734 180.696L321.945 183.173H324.431V180.467ZM324.516 180.467L327.222 180.424L327.18 177.761H324.516V180.467ZM324.578 184.333L327.284 184.29V184.29L324.578 184.333ZM224.012 225.567L224.012 228.272H224.012V225.567ZM183.429 184.28L186.134 184.327L186.134 184.326L183.429 184.28ZM183.486 180.88L186.192 180.926L186.193 180.837L186.189 180.748L183.486 180.88ZM183.469 180.52L186.171 180.388L186.171 180.385L183.469 180.52ZM185.557 166.767L182.973 165.966L182.973 165.966L185.557 166.767ZM187.957 160.314L190.437 161.396L193.736 153.84L186.601 157.972L187.957 160.314ZM160.042 161.538L161.235 159.109L161.228 159.106L161.221 159.103L160.042 161.538ZM159.979 161.508L158.461 163.748L158.623 163.858L158.8 163.943L159.979 161.508ZM159.922 161.469L161.44 159.229L161.431 159.223L161.423 159.217L159.922 161.469ZM153.719 150.695L151.016 150.554L151.016 150.554L153.719 150.695ZM168.312 135.083L169.533 137.498V137.498L168.312 135.083ZM204.885 112.757L206.622 114.831L207.178 114.366L207.427 113.685L204.885 112.757ZM218.487 102.098L217.752 99.4936L217.752 99.4936L218.487 102.098ZM242.506 100.273L242.648 97.5704H242.648L242.506 100.273ZM292.598 109.251L293.353 106.652L293.345 106.65L292.598 109.251ZM293.856 109.616L294.614 107.019L294.611 107.018L293.856 109.616ZM294.224 109.724L296.479 108.228L295.932 107.403L294.982 107.126L294.224 109.724ZM294.436 110.043L292.182 111.539L292.185 111.544L294.436 110.043ZM299.443 117.553L297.192 119.054L298.553 121.096L300.718 119.94L299.443 117.553ZM309.518 106.034L311.918 107.286V107.286L309.518 106.034ZM314.61 91.9181L311.966 91.3413L311.964 91.3544L311.961 91.3676L314.61 91.9181ZM314.622 91.8644L312.041 91.0518L312.004 91.1683L311.978 91.2876L314.622 91.8644ZM314.639 91.8116L312.061 90.9869L312.057 90.9991L314.639 91.8116ZM321.708 80.4777L319.988 78.389L319.988 78.389L321.708 80.4777ZM328.099 77.9503L328.131 80.6561C329.805 80.6367 331.827 81.2824 334.204 83.204L335.905 81.0997L337.606 78.9955C334.515 76.4963 331.306 75.2071 328.068 75.2446L328.099 77.9503ZM335.905 81.0997L334.204 83.2039C338.903 87.0034 341.323 93.6177 342.33 100.688L345.009 100.307L347.688 99.9255C346.617 92.4005 343.911 84.0934 337.606 78.9956L335.905 81.0997ZM345.009 100.307L342.33 100.688C343.326 107.688 342.884 114.79 342.173 119.167L344.844 119.602L347.514 120.036C348.297 115.22 348.774 107.56 347.688 99.9255L345.009 100.307ZM344.844 119.602L342.162 119.239C341.113 127.002 336.659 135.199 331.36 142.379L333.537 143.985L335.714 145.592C341.213 138.142 346.296 129.063 347.525 119.964L344.844 119.602ZM333.537 143.985L331.36 142.379C326.427 149.063 320.872 154.717 317.001 158.114L318.786 160.148L320.571 162.182C324.697 158.561 330.524 152.625 335.714 145.592L333.537 143.985ZM318.786 160.148L316.636 161.791C317.199 162.527 317.739 163.522 318.245 164.72L320.738 163.668L323.231 162.616C322.625 161.179 321.876 159.734 320.936 158.504L318.786 160.148ZM320.738 163.668L318.245 164.72C318.91 166.297 319.485 168.153 319.968 170.093L322.594 169.44L325.219 168.786C324.695 166.68 324.041 164.536 323.231 162.616L320.738 163.668ZM322.594 169.44L319.968 170.093C320.935 173.976 321.503 178.058 321.727 180.612L324.423 180.375L327.118 180.139C326.875 177.361 326.267 172.994 325.219 168.786L322.594 169.44ZM324.423 180.375L321.727 180.605L321.734 180.696L324.431 180.467L327.127 180.237L327.119 180.146L324.423 180.375ZM324.431 180.467V183.173H324.516V180.467V177.761H324.431V180.467ZM324.516 180.467L321.811 180.51L321.872 184.376L324.578 184.333L327.284 184.29L327.222 180.424L324.516 180.467ZM324.578 184.333L321.872 184.376C322.208 205.531 305.151 222.861 283.994 222.861V225.567V228.272C308.174 228.272 327.667 208.467 327.284 184.29L324.578 184.333ZM283.994 225.567V222.861H224.012V225.567V228.272H283.994V225.567ZM224.012 225.567L224.012 222.861C202.835 222.861 185.771 205.5 186.134 184.327L183.429 184.28L180.723 184.234C180.308 208.432 199.81 228.272 224.012 228.272L224.012 225.567ZM183.429 184.28L186.134 184.326L186.192 180.926L183.486 180.88L180.781 180.834L180.723 184.235L183.429 184.28ZM183.486 180.88L186.189 180.748L186.171 180.388L183.469 180.52L180.766 180.651L180.783 181.012L183.486 180.88ZM183.469 180.52L186.171 180.385C185.964 176.238 186.874 171.661 188.142 167.568L185.557 166.767L182.973 165.966C181.61 170.364 180.514 175.623 180.766 180.655L183.469 180.52ZM185.557 166.767L188.142 167.568C188.853 165.273 189.668 163.158 190.437 161.396L187.957 160.314L185.477 159.231C184.636 161.157 183.749 163.461 182.973 165.966L185.557 166.767ZM187.957 160.314L186.601 157.972C176.551 163.792 165.673 161.289 161.235 159.109L160.042 161.538L158.849 163.967C164.341 166.665 177.222 169.657 189.313 162.655L187.957 160.314ZM160.042 161.538L161.221 159.103L161.159 159.073L159.979 161.508L158.8 163.943L158.862 163.973L160.042 161.538ZM159.979 161.508L161.498 159.268L161.44 159.229L159.922 161.469L158.403 163.709L158.461 163.748L159.979 161.508ZM159.922 161.469L161.423 159.217C158.737 157.427 156.237 154.35 156.421 150.837L153.719 150.695L151.016 150.554C150.688 156.843 155.034 161.463 158.421 163.72L159.922 161.469ZM153.719 150.695L156.421 150.837C156.601 147.389 159.422 142.608 169.533 137.498L168.312 135.083L167.092 132.668C156.462 138.04 151.353 144.115 151.016 150.554L153.719 150.695ZM168.312 135.083L169.533 137.498C189.785 127.263 202.485 118.297 206.622 114.831L204.885 112.757L203.147 110.683C199.414 113.81 187.089 122.562 167.092 132.668L168.312 135.083ZM204.885 112.757L207.427 113.685C209.001 109.372 213.066 106.439 219.222 104.702L218.487 102.098L217.752 99.4936C210.822 101.449 204.774 105.168 202.343 111.829L204.885 112.757ZM218.487 102.098L219.222 104.702C225.474 102.938 233.551 102.509 242.363 102.975L242.506 100.273L242.648 97.5704C233.592 97.0922 224.833 97.4953 217.752 99.4936L218.487 102.098ZM242.506 100.273L242.363 102.975C259.411 103.875 278.755 108.093 291.852 111.852L292.598 109.251L293.345 106.65C280.022 102.826 260.248 98.4999 242.648 97.5704L242.506 100.273ZM292.598 109.251L291.844 111.85L293.102 112.215L293.856 109.616L294.611 107.018L293.353 106.653L292.598 109.251ZM293.856 109.616L293.098 112.214L293.467 112.321L294.224 109.724L294.982 107.126L294.614 107.019L293.856 109.616ZM294.224 109.724L291.97 111.22L292.182 111.539L294.436 110.043L296.691 108.547L296.479 108.228L294.224 109.724ZM294.436 110.043L292.185 111.544L297.192 119.054L299.443 117.553L301.695 116.052L296.688 108.542L294.436 110.043ZM299.443 117.553L300.718 119.94C305.594 117.336 309.278 112.346 311.918 107.286L309.518 106.034L307.119 104.783C304.669 109.48 301.62 113.323 298.169 115.166L299.443 117.553ZM309.518 106.034L311.918 107.286C314.74 101.875 316.497 96.1368 317.26 92.4686L314.61 91.9181L311.961 91.3676C311.284 94.6238 309.678 99.8781 307.119 104.783L309.518 106.034ZM314.61 91.9181L317.254 92.4949L317.266 92.4412L314.622 91.8644L311.978 91.2876L311.966 91.3413L314.61 91.9181ZM314.622 91.8644L317.203 92.6769L317.22 92.6242L314.639 91.8116L312.057 90.9991L312.041 91.0518L314.622 91.8644ZM314.639 91.8116L317.216 92.6364C318.276 89.3234 320.453 85.0172 323.428 82.5663L321.708 80.4777L319.988 78.389C315.863 81.7862 313.266 87.2232 312.061 90.9869L314.639 91.8116ZM321.708 80.4777L323.428 82.5663C324.884 81.3671 326.452 80.6756 328.131 80.6561L328.099 77.9503L328.068 75.2446C324.842 75.2821 322.123 76.6303 319.988 78.389L321.708 80.4777Z" fill="#8ACAF0" mask="url(#path-32-inside-3_1806_375)"/>
<path d="M316.471 157.556L308.189 138.233C313.158 136.853 320.887 125.535 323.096 122.498C325.304 119.462 329.169 109.524 329.169 98.4825C329.169 87.4408 334.138 86.0605 335.794 86.0605C337.119 86.0605 338.554 89.189 339.106 90.7533C346.283 108.42 341.591 117.253 338.554 129.951C336.125 140.11 322.82 152.587 316.471 157.556Z" fill="white" stroke="white" stroke-width="0.552087"/>
<path d="M198.05 140.993C196.946 142.538 192.989 151.39 191.149 155.623C180.107 166.002 164.464 160.316 158.023 156.175C162.348 156.175 171.218 156.065 172.102 155.623C173.206 155.071 182.591 152.034 186.456 144.857C190.32 137.68 202.466 126.638 203.571 125.534C204.454 124.651 205.227 125.166 205.503 125.534C204.399 126.362 199.43 139.06 198.05 140.993Z" fill="white" stroke="white" stroke-width="0.552087" stroke-linejoin="round"/>
<circle cx="255.331" cy="164.683" r="46.4518" fill="white"/>
<path d="M253.683 11.0483C291.126 11.0484 321.186 36.9347 321.187 68.5317C321.187 100.129 291.126 126.016 253.683 126.016C216.239 126.016 186.179 100.129 186.179 68.5317C186.179 36.9347 216.239 11.0483 253.683 11.0483Z" fill="#B8E7EE" stroke="#8ACAF0" stroke-width="2.1095"/>
<path d="M199.245 64.766C200.39 50.5403 210.363 39.7362 221.52 40.6342C232.216 41.4952 240.115 52.7988 239.74 66.266C244.281 66.4384 249.109 66.5649 254.21 66.5649C261.73 66.5649 268.751 66.0792 275.192 65.436C274.948 53.158 281.745 42.732 291.64 41.1957C302.7 39.4787 313.442 49.5196 315.631 63.6225C315.673 63.8924 315.71 64.1621 315.745 64.4311C318.271 66.1642 319.604 69.1032 319.604 73.8061C319.604 94.4855 293.821 124.576 254.21 124.576C214.599 124.575 191.453 100.429 191.453 79.7494C191.453 72.7538 194.102 68.9821 199.141 67.0541C199.149 66.2982 199.183 65.535 199.245 64.766Z" fill="white"/>
<path d="M253.684 52.7109C260.031 52.7109 265.74 53.9574 269.841 56.1807C273.94 58.4031 276.361 61.5525 276.361 65.3682C276.361 69.2289 273.889 73.4428 269.765 76.7148C265.654 79.9763 259.966 82.2441 253.684 82.2441C247.425 82.244 241.745 79.5979 237.626 75.9424C233.493 72.274 231.007 67.66 231.007 63.7861C231.007 59.9931 233.4 57.2409 237.491 55.4082C241.594 53.5704 247.31 52.711 253.684 52.7109Z" fill="#F1D453" stroke="#E1BA43" stroke-width="1.05475"/>
<path d="M238.916 68.0044C238.916 68.0044 245.772 72.7508 254.737 72.7508C263.703 72.7508 269.504 68.0044 269.504 68.0044" stroke="#583921" stroke-width="1.58212" stroke-linecap="round"/>
<path d="M214.656 60.0939C214.656 60.0939 215.711 57.457 219.403 57.457C223.094 57.457 224.149 60.0939 224.149 60.0939" stroke="#583921" stroke-width="1.58212" stroke-linecap="round"/>
<path d="M284.271 60.0939C284.271 60.0939 285.326 57.457 289.018 57.457C292.709 57.457 293.764 60.0939 293.764 60.0939" stroke="#583921" stroke-width="1.58212" stroke-linecap="round"/>
<path d="M215.472 217.589C222.772 217.589 229.067 218.167 233.635 219.284C235.922 219.843 237.721 220.524 238.987 221.298C240.206 222.044 240.815 222.803 241.016 223.518C241.019 224.483 241.05 225.299 240.784 226.124C240.53 226.912 239.969 227.774 238.563 228.598C237.122 229.443 234.805 230.237 231.083 230.814C227.372 231.389 222.325 231.739 215.472 231.739C208.618 231.739 203.573 231.389 199.861 230.814C196.139 230.237 193.822 229.443 192.38 228.598C190.974 227.774 190.414 226.912 190.16 226.124C189.894 225.297 189.925 224.478 189.928 223.508C190.132 222.689 190.755 221.886 191.966 221.13C193.223 220.345 195.014 219.676 197.3 219.141C201.866 218.072 208.159 217.589 215.472 217.589Z" fill="#B8E7EE" stroke="#8ACAF0" stroke-width="2.08551"/>
<path d="M296.65 217.589C303.951 217.589 310.246 218.167 314.813 219.284C317.101 219.843 318.9 220.524 320.166 221.298C321.385 222.044 321.994 222.803 322.194 223.518C322.198 224.483 322.229 225.299 321.963 226.124C321.709 226.912 321.148 227.774 319.742 228.598C318.3 229.443 315.983 230.237 312.262 230.814C308.55 231.389 303.504 231.739 296.65 231.739C289.797 231.739 284.751 231.389 281.04 230.814C277.318 230.237 275 229.443 273.559 228.598C272.153 227.774 271.593 226.912 271.339 226.124C271.072 225.297 271.103 224.478 271.106 223.508C271.311 222.689 271.934 221.886 273.145 221.13C274.402 220.345 276.193 219.676 278.479 219.141C283.044 218.072 289.338 217.589 296.65 217.589Z" fill="#B8E7EE" stroke="#8ACAF0" stroke-width="2.08551"/>
<g clip-path="url(#clip0_1806_375)">
<path d="M203.806 141.085C204.861 141.504 205.468 141.742 205.954 142.351L206.056 142.486C207.01 143.83 207.204 145.158 206.888 146.242C206.571 147.325 205.696 148.332 204.176 148.941L204.171 148.943C203.996 149.014 203.817 149.074 203.635 149.124L202.738 149.37L202.838 150.294C202.989 151.694 202.892 153.207 202.834 154.772L202.787 156.011L204.022 155.9C205.788 155.741 208.082 155.942 210.315 156.493C212.418 157.011 214.366 157.815 215.736 158.831L216.003 159.037C217.38 160.149 218.251 161.089 218.928 162.129C219.527 163.051 219.999 164.088 220.522 165.471L220.75 166.086C220.817 166.271 220.875 166.565 220.965 166.993C221.004 167.181 221.051 167.394 221.106 167.587C221.131 167.672 221.164 167.783 221.211 167.901V180.988C220.999 181.634 220.839 182.4 220.685 183.117C220.516 183.902 220.344 184.673 220.105 185.386C219.503 187.136 218.681 188.803 217.658 190.344L217.656 190.347C213.039 197.356 206.443 199.221 198.646 199.196L197.887 199.188C197.515 199.181 197.25 199.362 197.203 199.393C197.104 199.458 197.022 199.528 196.965 199.581C196.847 199.689 196.725 199.821 196.614 199.948C196.387 200.207 196.116 200.546 195.86 200.87C195.596 201.204 195.347 201.524 195.136 201.785C195.031 201.914 194.945 202.017 194.88 202.09C194.851 202.123 194.831 202.142 194.821 202.152L194.782 202.181L194.711 202.256C190.292 206.948 183.762 210.614 177.371 211.318L176.389 211.426L176.398 212.414C176.431 215.757 176.441 219.102 176.428 222.446V222.451C176.428 224.053 176.509 226.808 176.375 228.125L176.25 229.346L177.478 229.327C178.037 229.318 179.786 229.265 181.481 229.275C182.329 229.28 183.136 229.3 183.753 229.347C183.935 229.361 184.091 229.377 184.221 229.394C184.227 229.44 184.236 229.489 184.242 229.542C184.293 229.961 184.328 230.515 184.351 231.107C184.395 232.286 184.384 233.514 184.368 233.902H158.265C158.236 233.73 158.228 233.573 158.232 233.478C158.306 232.076 158.25 231.029 158.219 230.293C158.203 229.915 158.196 229.662 158.206 229.471C158.207 229.446 158.211 229.424 158.213 229.404C158.276 229.391 158.366 229.376 158.493 229.363C159.064 229.305 159.942 229.319 161.411 229.328H161.42C162.801 229.324 164.182 229.308 165.562 229.28L166.654 229.257L166.632 228.166C166.562 224.753 166.648 221.322 166.623 217.834C166.612 216.383 166.509 213.502 166.619 212.358L166.723 211.279L165.644 211.167C162.832 210.878 158.822 209.38 156.248 207.947C154.78 207.129 152.797 205.752 150.98 204.194C149.142 202.618 147.585 200.95 146.853 199.568L146.485 198.875L145.71 199.001C143.082 199.434 139.983 199.18 137.02 198.342C134.055 197.504 131.308 196.104 129.351 194.324C127.898 193.003 127.852 192.814 126.59 191.249C121.731 185.219 122.023 177.71 122.188 169.881C122.273 166.038 123.83 162.137 126.62 159.583L126.621 159.582C128.076 158.244 130.248 157.239 132.644 156.603C135.027 155.97 137.532 155.727 139.571 155.837L140.689 155.898L140.722 154.778C140.745 153.953 140.718 153.151 140.707 152.415C140.696 151.662 140.702 150.942 140.779 150.19L140.891 149.11L139.812 148.992C139.378 148.944 138.855 148.735 138.347 148.386C137.842 148.04 137.425 147.607 137.177 147.202C136.596 146.254 136.423 145.044 136.68 143.959C136.933 142.888 137.584 142.01 138.592 141.585C138.84 141.481 139.324 141.303 139.747 141.085H203.806ZM202.867 163.437C203.062 167.163 202.878 171.135 202.903 175.006C202.94 180.667 203.34 185.578 201.431 190.616L200.824 192.214L202.53 192.091C204.115 191.977 205.416 191.801 206.656 191.362C207.91 190.917 209.036 190.228 210.322 189.175L210.357 189.147L210.39 189.116C212.001 187.561 213.125 186.125 213.84 184.447C214.553 182.771 214.819 180.943 214.858 178.667V178.657C214.87 177.321 214.874 175.985 214.87 174.65C214.866 172.054 214.997 169.763 213.547 167.06C211.408 163.075 207.619 162.464 204.01 162.289L202.804 162.23L202.867 163.437ZM140.698 176.509L140.682 163.452L140.681 162.712L139.993 162.439L139.779 162.369C139.3 162.244 138.847 162.322 138.723 162.336C136.172 162.421 134.174 163.006 132.644 164.043C131.095 165.094 130.119 166.545 129.518 168.18C128.348 171.359 128.542 175.428 128.665 179.039C128.791 182.74 129.902 187.451 133.694 189.748C135.564 191.169 137.587 191.619 139.596 192.013C139.757 192.045 140.059 192.107 140.371 192.118C140.677 192.128 141.151 192.097 141.589 191.804L141.909 191.59L142.024 191.224C142.084 191.035 142.084 190.865 142.083 190.798C142.082 190.708 142.074 190.618 142.065 190.542C142.048 190.39 142.019 190.216 141.985 190.042C141.917 189.691 141.817 189.259 141.714 188.836C141.497 187.945 141.282 187.139 141.222 186.851H141.221C140.522 183.497 140.698 180.137 140.698 176.51V176.509Z" fill="#FFE23F" stroke="#F2CE00" stroke-width="2.18391"/>
<path d="M171.159 160.888C171.662 160.85 172.191 160.796 172.675 160.973C175.021 161.829 175.207 166.249 177.26 167.692C179.107 168.991 181.89 168.215 183.885 169.072C184.596 169.378 185.078 169.941 185.355 170.657C186.347 173.228 181.616 175.393 180.657 177.409C179.641 179.543 181.86 183.417 180.909 185.516C180.633 186.125 180 186.707 179.367 186.925C177.867 187.441 173.787 184.68 172.282 183.972C169.269 183.792 165.613 189.002 163.052 186.096C161.516 184.352 163.289 180.884 163.274 178.776C163.247 174.87 154.858 173.229 159.59 168.99C161.21 168.739 164.626 168.483 165.965 167.901C168.355 166.86 168.402 161.921 171.159 160.888Z" fill="#FFF6C2"/>
</g>
<defs>
<clipPath id="clip0_1806_375">
<rect width="101.309" height="95" fill="white" transform="translate(120.993 139.994)"/>
</clipPath>
</defs>
</svg>
