<svg width="292" height="229" viewBox="0 0 292 229" fill="none" xmlns="http://www.w3.org/2000/svg">
<path d="M21.937 183.142C51.8075 168.046 70.249 154.904 75.736 150.22C86.014 120.028 165.133 134.964 203.408 146.205C203.408 146.205 276.878 179.417 285.034 192C293.191 204.583 296.956 227.573 246.769 218.874V247.781H44.8216C44.1793 234.934 50.4424 219.945 53.6543 214.056C36.9525 226.904 17.5207 222.621 9.89243 218.874C1.46125 213.253 -7.93351 198.238 21.937 183.142Z" fill="#B8E7EE" stroke="#8ACAF0" stroke-width="3.06735"/>
<path d="M219.786 187.226C221.431 189.445 226.415 200.128 233.034 206.5C246.591 219.55 271.275 219.688 280.534 213.5C274.245 213.612 259.194 208.448 257.898 207.829C256.278 207.055 242.551 202.882 236.746 192.545C230.94 182.209 212.991 166.466 211.357 164.889C210.049 163.628 208.939 164.397 208.547 164.939C210.174 166.115 217.729 184.452 219.786 187.226Z" fill="white" stroke="white" stroke-width="0.80297" stroke-linejoin="round"/>
<path d="M101.833 163.469C68.7507 176.638 63.1046 224.361 64.3091 246.175H226.695C229.264 205.063 209.163 176.317 198.591 168.287C183.736 147.41 143.186 147.008 101.833 163.469Z" fill="white"/>
<path d="M64.4946 190.369C62.8887 192.617 57.1341 205.491 54.4575 211.648C38.3981 226.743 15.6473 218.473 6.2793 212.45C12.5692 212.45 25.4703 212.29 26.755 211.648C28.361 210.845 42.0115 206.428 47.6323 195.99C53.2531 185.551 70.9184 169.492 72.5243 167.886C73.8091 166.601 74.9333 167.35 75.3347 167.886C73.7288 169.09 66.5021 187.558 64.4946 190.369Z" fill="white" stroke="white" stroke-width="0.80297" stroke-linejoin="round"/>
<path d="M139.791 1.53418C194.25 1.53434 237.97 39.184 237.97 85.1396C237.97 131.095 194.25 168.746 139.791 168.746C85.3317 168.746 41.6113 131.096 41.6113 85.1396C41.6116 39.1839 85.3318 1.53418 139.791 1.53418Z" fill="#B8E7EE" stroke="#8ACAF0" stroke-width="3.06811"/>
<path d="M60.6123 79.6613C62.2777 58.9711 76.7821 43.2568 93.0088 44.5626C108.566 45.8149 120.056 62.2563 119.511 81.8439C126.115 82.0947 133.138 82.2775 140.558 82.2775C151.494 82.2775 161.706 81.5724 171.074 80.6369C170.718 62.7787 180.604 47.6143 194.996 45.38C211.083 42.8828 226.705 57.4858 229.89 77.9972C229.951 78.3906 230.005 78.784 230.056 79.1759C233.73 81.6967 235.669 85.9702 235.669 92.8097C235.669 122.887 198.169 166.65 140.558 166.651C82.9459 166.651 49.2815 131.531 49.2812 101.454C49.2812 91.2805 53.1334 85.7958 60.4609 82.9914C60.4736 81.8911 60.5222 80.7804 60.6123 79.6613Z" fill="white"/>
<path d="M139.79 62.1289C149.023 62.1289 157.325 63.9431 163.289 67.1768C169.251 70.4092 172.772 74.9885 172.772 80.5381C172.772 86.1534 169.176 92.2819 163.178 97.041C157.199 101.785 148.927 105.083 139.79 105.083C130.687 105.083 122.426 101.234 116.436 95.918C110.424 90.5826 106.808 83.8715 106.808 78.2373C106.808 72.7205 110.289 68.7173 116.239 66.0518C122.206 63.3787 130.521 62.1289 139.79 62.1289Z" fill="#F1D453" stroke="#E1BA43" stroke-width="1.53405"/>
<path d="M147.46 93.5771C147.46 93.5771 144.287 90.509 139.79 90.509C135.294 90.509 132.12 93.5771 132.12 93.5771" stroke="#583921" stroke-width="1.90434" stroke-linecap="round"/>
<path d="M174.121 42.1862C174.121 42.1862 175.338 39.1445 179.596 39.1445C183.854 39.1445 185.071 42.1862 185.071 42.1862" stroke="#F14D47" stroke-width="1.825" stroke-linecap="round"/>
<path d="M185.102 24.6577C185.102 24.6577 183.854 27.6867 179.596 27.6427C175.337 27.5988 174.152 24.5447 174.152 24.5447" stroke="#F14D47" stroke-width="1.825" stroke-linecap="round"/>
<path d="M170.471 28.2867C170.471 28.2867 173.548 29.4109 173.677 33.6673C173.806 37.9237 170.802 39.2317 170.802 39.2317" stroke="#F14D47" stroke-width="1.825" stroke-linecap="round"/>
<path d="M188.443 28.2867C188.443 28.2867 185.366 29.4109 185.237 33.6673C185.108 37.9237 188.112 39.2317 188.112 39.2317" stroke="#F14D47" stroke-width="1.825" stroke-linecap="round"/>
<path d="M81.4961 60.5947L96.8366 75.9353" stroke="#583921" stroke-width="2.30108" stroke-linecap="round"/>
<path d="M190.414 76.812H212.109" stroke="#583921" stroke-width="2.30108" stroke-linecap="round"/>
<path d="M96.8364 75.9355L75.3596 76.8119" stroke="#583921" stroke-width="2.30108" stroke-linecap="round"/>
<path d="M208.823 62.8965L190.414 76.703" stroke="#583921" stroke-width="2.30108" stroke-linecap="round"/>
</svg>
