<svg width="393" height="852" viewBox="0 0 393 852" fill="none" xmlns="http://www.w3.org/2000/svg">
<g clip-path="url(#clip0_1154_1036)">
<rect width="393" height="852" fill="#0A0E1A"/>
<rect width="393" height="852" fill="#ED1C24"/>
<path d="M-81.2447 545.163C-73.1236 503.333 -26.9785 495.831 7.04642 509.711C61.1783 531.794 104.999 581.99 129.594 634.074C139.314 630.201 148.435 624.971 156.689 618.53C189.674 593.316 198.365 565.484 203.361 526.484C164.445 528.243 139.102 529.22 101.838 512.184C64.6936 495.193 31.2979 464.154 16.6737 425.353C9.78585 407.093 8.96739 386.712 17.723 368.869C25.3735 353.165 39.0524 341.254 55.6455 335.846C80.9258 327.679 114.8 334.712 137.496 347.119C187.978 374.706 216.94 419.352 234.001 472.156C237.227 470.149 240.379 468.003 243.439 465.766C280.233 438.265 290.429 404.914 296.995 361.938C256.239 365.35 210.524 357.766 174.766 338.215C50.8392 270.415 112.621 116.98 245.919 190.59C287.294 213.437 318.609 267.721 330.025 313.052C333.02 311.651 335.957 310.149 338.835 308.53C369.232 291.171 378.599 269.337 387.14 237.422C362.879 234.883 342 229.817 318.574 217.013C269.446 190.143 193.97 119.152 223.368 57.0095C230.318 42.3227 247.17 34.2296 262.544 29.8221C350.143 23.1382 407.183 117.956 423.02 192.852C490.936 152.748 475.711 88.1425 433.178 31.9074C425.661 21.9629 408.976 11.4853 404.1 -0.0472505C402.324 -4.1639 402.288 -8.81102 404.001 -12.9271C408.621 -23.92 421.43 -27.6263 431.777 -22.1094C448.311 -13.1444 460.822 3.27049 471.824 18.2366C527.705 94.2097 523.619 197.033 426.278 233.075C413.984 298.895 397.468 325.5 334.945 353.506C336.642 415.22 301.263 488.61 241.84 512.287C240.632 593.666 216.133 635.343 142.392 671.213C143.074 674.471 143.705 677.74 144.283 681.017C151.634 723.404 134.109 763.561 94.1402 781.567C53.0146 800.095 3.22886 790.52 -34.8222 768.923C-52.4423 758.923 -44.8193 731.189 -25.2204 732.706C-18.873 733.448 -11.169 736.786 -5.30388 739.078C54.7626 762.546 113.845 760.239 104.555 679.983C89.1407 680.954 76.0112 681.048 60.5663 679.227C-0.796275 671.996 -90.6868 616.177 -81.2447 545.163ZM300.552 74.7145C279.696 64.6502 259.236 61.0026 254.904 89.1426C267.591 143.597 331.076 189.573 384.211 199.035C383.239 189.981 383.041 186.598 380.201 177.871C364.929 136.346 341.9 94.6888 300.552 74.7145ZM145.424 238.925C153.922 307.827 235.685 324.501 293.313 323.547L285.959 302.746C270.016 265.929 249.979 233.277 211.163 217.389C185.158 206.744 152.758 204.313 145.424 238.925ZM68.9833 372.108C58.0156 373.952 51.9305 387.537 49.8074 398.194C59.1186 459.242 137.791 495.954 194.635 487.051C195.642 486.887 196.647 486.723 197.65 486.524C195.812 480.707 193.563 472.899 191.461 467.368C174.838 427.229 126.584 362.409 68.9833 372.108ZM-17.897 541.973C-29.7811 538.459 -40.9144 542.748 -43.0611 555.832C-43.364 557.724 -43.6238 559.627 -43.8356 561.523C-24.7338 615.274 38.0369 641.415 91.3693 642.878L84.5587 630.892C62.8145 594.053 24.1826 554.421 -17.897 541.973Z" fill="#F63037"/>
</g>
<defs>
<clipPath id="clip0_1154_1036">
<rect width="393" height="852" fill="white"/>
</clipPath>
</defs>
</svg>
