<svg width="190" height="192" viewBox="0 0 190 192" fill="none" xmlns="http://www.w3.org/2000/svg">
<path fill-rule="evenodd" clip-rule="evenodd" d="M151.918 127.246C156.284 141.999 165.311 161.9 161.529 177.108C155.488 201.386 124.903 186.244 113.077 177.384C109.94 175.032 106.823 172.64 103.821 170.114C100.248 167.111 96.7231 164.038 93.3217 160.839C83.5988 172.507 69.8006 185.312 55.3385 190.509C43.2205 194.863 33.1204 189.52 30.8467 176.589C28.1304 161.149 32.5068 143.532 36.4055 128.669C24.6657 117.507 12.4797 106.187 3.76453 92.519C-4.6119 79.3789 1.61171 67.0744 16.2952 63.7052C21.0385 62.6163 25.8987 62.077 30.7574 61.841C37.2955 61.5251 53.0119 62.0403 57.0166 62.0403C57.4583 61.785 58.3956 57.8874 58.63 57.224C60.2264 52.7176 61.902 48.2716 63.7649 43.8677C65.1723 40.545 66.6065 37.2314 68.0775 33.9376C73.3119 22.2152 84.9324 -9.33384 102.531 2.68452C104.319 3.90685 105.823 5.44452 107.191 7.11363C109.449 9.87162 111.223 13.127 112.852 16.2873C115.911 22.221 118.306 28.4603 120.738 34.6648C124.372 43.931 127.422 53.5144 131.445 62.6258C131.496 62.738 131.533 62.8563 131.564 62.9762C137.522 63.1232 143.497 63.2251 149.451 63.523C162.441 64.1709 182.744 60.7843 188.466 73.7581C191.561 80.773 188.163 88.1964 183.989 93.8865C175.509 105.443 164.029 114.36 152.899 123.188" fill="#FFE23F"/>
</svg>
