<svg width="393" height="852" viewBox="0 0 393 852" fill="none" xmlns="http://www.w3.org/2000/svg">
<g clip-path="url(#clip0_1188_286)">
<rect width="393" height="852" fill="#0A0E1A"/>
<rect width="393" height="852" fill="#ED1C24"/>
<path d="M0.936364 31.0953C0.936364 31.0953 102.864 64.2053 154.013 161.382C206.003 260.154 207.396 422.959 113.213 442.928C62.549 453.67 19.317 434.91 -0.461654 377.975C-20.1739 321.231 -0.0740259 273.109 43.5809 245.101C137.045 185.137 269.08 309.93 311.973 431.176C354.953 552.666 331.203 736.282 220.501 747.735C168.725 753.091 121.822 729.922 103.24 672.592C85.0251 616.397 103.885 566.425 147.282 539.719C239.872 482.741 380.505 595.582 412.686 717.303C433.699 796.78 420.818 860.068 372.521 914.654" stroke="#FD3F47" stroke-opacity="0.55" stroke-width="57.0871" stroke-linecap="round"/>
</g>
<defs>
<clipPath id="clip0_1188_286">
<rect width="393" height="852" fill="white"/>
</clipPath>
</defs>
</svg>
