<svg width="1512" height="982" viewBox="0 0 1512 982" fill="none" xmlns="http://www.w3.org/2000/svg">
<g clip-path="url(#clip0_1281_398)">
<rect width="1512" height="982" fill="#ED1C24"/>
<path d="M1582.57 412.07C1530.05 640.384 1369.43 792.109 1136.82 827.583C994.729 849.242 786.602 786.779 770.135 619.466C758.693 503.142 985.775 346.265 1024.14 497.789C1043.68 574.978 960.244 665.387 904.138 704.915C743.277 818.237 530.996 774.663 391.459 645.661C268.211 531.73 251.476 333.597 352.44 198.665C414.059 116.316 570.031 44.8536 642.561 158.003C754.742 333.004 399.655 378.562 285.599 313.747C-126.842 79.3808 223.998 -489.614 526.358 -641.948" stroke="#FD3F47" stroke-opacity="0.55" stroke-width="144.959" stroke-miterlimit="1.5" stroke-linecap="round" stroke-linejoin="round"/>
</g>
<defs>
<clipPath id="clip0_1281_398">
<rect width="1512" height="982" fill="white"/>
</clipPath>
</defs>
</svg>
