<svg width="393" height="852" viewBox="0 0 393 852" fill="none" xmlns="http://www.w3.org/2000/svg">
<g clip-path="url(#clip0_1632_240)">
<rect width="393" height="852" fill="#0A0E1A"/>
<rect width="393" height="852" fill="#ED1C24"/>
<path d="M-47.0336 53.7125C-47.0336 53.7125 57.9295 75.3498 119.51 166.275C182.102 258.693 201.487 420.346 110.09 450.606C60.9236 466.885 15.8823 453.019 -10.0701 398.62C-35.9354 344.403 -21.2793 294.354 19.0112 261.691C105.272 191.761 250.296 301.19 306.332 416.95C362.48 532.943 359.177 718.059 250.421 741.682C199.554 752.73 150.378 734.889 125.57 679.965C101.254 626.128 114.473 574.378 154.652 543.037C240.373 476.171 392.621 572.771 438.063 690.188C467.734 766.854 461.93 831.178 419.965 890.769" stroke="#FD3F47" stroke-opacity="0.55" stroke-width="57.0871" stroke-linecap="round"/>
<path fill-rule="evenodd" clip-rule="evenodd" d="M326.736 111.358C325.318 105.48 321.378 100.294 315.231 98.1741C312.851 97.3531 310.332 97.4968 307.871 97.7145C317.328 94.83 317.946 83.9352 317.187 75.8326C318.598 82.9041 324.246 89.4377 331.843 88.1453C325.637 94.4687 325.254 103.125 326.736 111.358Z" fill="#925FDF" stroke="#FAFAFA" stroke-width="2.5" stroke-miterlimit="1.5" stroke-linecap="round" stroke-linejoin="round"/>
<ellipse cx="195" cy="21.5" rx="273" ry="283.5" fill="#FAFAFA"/>
</g>
<defs>
<clipPath id="clip0_1632_240">
<rect width="393" height="852" fill="white"/>
</clipPath>
</defs>
</svg>
