<svg width="377" height="323" viewBox="0 0 377 323" fill="none" xmlns="http://www.w3.org/2000/svg">
<path d="M28.3759 236.899C67.014 217.372 90.8686 200.372 97.9661 194.314C111.261 155.26 213.604 174.579 263.113 189.12C263.113 189.12 358.148 232.081 368.698 248.357C379.248 264.633 384.119 294.372 319.201 283.119V320.511H57.9777C57.1468 303.892 65.2483 284.504 69.4029 276.887C47.7988 293.506 22.6632 287.966 12.796 283.119C1.89003 275.848 -10.2623 256.426 28.3759 236.899Z" fill="#B8E7EE" stroke="#8ACAF0" stroke-width="3.96768"/>
<path d="M284.297 242.182C286.426 245.052 292.872 258.871 301.434 267.113C318.971 283.993 350.9 284.172 362.877 276.168C354.742 276.313 335.273 269.633 333.597 268.832C331.501 267.831 313.745 262.433 306.235 249.062C298.725 235.692 275.508 215.329 273.394 213.289C271.703 211.657 270.266 212.652 269.759 213.353C271.864 214.874 281.636 238.593 284.297 242.182Z" fill="#F6F6F6" stroke="white" stroke-width="1.03866" stroke-linejoin="round"/>
<path d="M131.723 211.451C88.9306 228.485 81.6273 290.216 83.1852 318.433H293.235C296.559 265.254 270.558 228.07 256.882 217.683C237.667 190.678 185.214 190.158 131.723 211.451Z" fill="#F6F6F6"/>
<path d="M83.4249 246.247C81.3476 249.155 73.9039 265.809 70.4417 273.772C49.6685 293.298 20.2398 282.6 8.12207 274.81C16.2582 274.81 32.946 274.603 34.6079 273.772C36.6852 272.733 54.3424 267.02 61.6131 253.518C68.8837 240.015 91.7342 219.242 93.8115 217.165C95.4734 215.503 96.9275 216.472 97.4468 217.165C95.3695 218.723 86.0216 242.612 83.4249 246.247Z" fill="#F6F6F6" stroke="white" stroke-width="1.03866" stroke-linejoin="round"/>
<path d="M180.821 1.98438C251.266 1.98438 307.819 50.6859 307.819 110.131C307.819 169.576 251.265 218.276 180.821 218.276C110.377 218.276 53.8245 169.576 53.8242 110.131C53.8242 50.686 110.377 1.98448 180.821 1.98438Z" fill="#B8E7EE" stroke="#8ACAF0" stroke-width="3.96867"/>
<path d="M78.7305 101.121C80.8847 74.3572 99.647 54.0307 120.637 55.7202C140.761 57.3402 155.622 78.6088 154.916 103.947C163.459 104.271 172.544 104.505 182.142 104.505C196.288 104.505 209.497 103.593 221.615 102.383C221.154 79.2831 233.942 59.6669 252.559 56.7768C273.367 53.5466 293.575 72.4371 297.693 98.9692C297.772 99.4782 297.843 99.9866 297.909 100.494C302.661 103.754 305.17 109.282 305.17 118.128C305.17 157.033 256.664 213.644 182.142 213.644C107.619 213.644 64.0732 168.215 64.0732 129.31C64.0733 116.15 69.056 109.056 78.5342 105.428C78.5506 104.005 78.614 102.568 78.7305 101.121Z" fill="#F6F6F6"/>
<path d="M180.821 80.3657C192.764 80.3657 203.503 82.7113 211.218 86.894C218.93 91.0752 223.484 96.9989 223.484 104.177C223.484 111.441 218.833 119.369 211.073 125.525C203.339 131.661 192.64 135.927 180.821 135.927C169.047 135.927 158.36 130.949 150.611 124.072C142.835 117.17 138.158 108.49 138.158 101.202C138.158 94.0654 142.662 88.8869 150.358 85.439C158.077 81.9815 168.831 80.3657 180.821 80.3657Z" fill="#F1D453" stroke="#E1BA43" stroke-width="1.98433"/>
<path d="M126.928 86.6658C126.928 86.6658 124.687 92.2681 116.844 92.2681C109.001 92.2681 106.76 86.6658 106.76 86.6658" stroke="#583921" stroke-width="3.36135" stroke-linecap="round"/>
<path d="M261.454 86.6658C261.454 86.6658 259.213 92.2681 251.37 92.2681C243.527 92.2681 241.286 86.6658 241.286 86.6658" stroke="#583921" stroke-width="3.36135" stroke-linecap="round"/>
<path d="M190.839 120.298C190.839 120.298 186.824 115.5 181.485 115.5C176.146 115.5 171.436 120.298 171.436 120.298" stroke="#583921" stroke-width="2.4633" stroke-linecap="round"/>
<path d="M274.507 34C274.507 34 290.029 51.7232 290.029 62.2258C290.029 70.9167 283.07 77.9798 274.507 77.9798C265.944 77.9798 258.984 70.9167 258.984 62.2258C258.984 51.7232 274.507 34 274.507 34Z" fill="#41C3D7" stroke="#F8F8F8" stroke-width="2.58704"/>
</svg>
