<svg width="1191" height="650" viewBox="0 0 1191 650" fill="none" xmlns="http://www.w3.org/2000/svg">
<mask id="path-1-inside-1_1617_326" fill="white">
<path d="M518.835 238.86C535.261 234.225 556.001 233.199 578.014 234.362C620.698 236.616 668.89 247.142 701.439 256.485L704.539 257.385L705.928 257.794L706.312 259.188C706.312 259.189 706.312 259.19 706.313 259.192C706.314 259.197 706.317 259.207 706.32 259.22C706.328 259.247 706.34 259.289 706.357 259.344C706.389 259.457 706.44 259.628 706.508 259.848C706.644 260.291 706.851 260.935 707.127 261.721C707.681 263.299 708.506 265.428 709.591 267.647C710.681 269.876 712.002 272.13 713.526 273.998C715.065 275.881 716.688 277.22 718.344 277.858C768.43 297.165 787.028 303.782 799.741 307.522C806.092 309.39 810.972 310.54 817.677 312.214C824.376 313.887 832.805 316.062 846.149 319.958C862.048 324.6 873.51 331.941 880.086 341.552C886.713 351.239 888.135 362.88 884.627 375.519C880.951 388.763 871.432 396.718 859.768 400.711C848.189 404.674 834.399 404.791 821.603 402.488C809.487 400.307 794.394 395.677 782.412 391.63C777.264 389.892 772.667 388.249 769.092 386.943C769.686 388.101 770.247 389.315 770.775 390.565C772.592 394.872 774.106 399.801 775.347 404.786C777.829 414.753 779.275 425.162 779.852 431.73L779.871 431.957H780.086L780.236 441.482C781.123 497.329 736.095 543.078 680.241 543.078H532.447C476.543 543.077 431.495 497.249 432.454 441.353L432.597 433.001L432.552 432.087C431.986 420.779 434.456 408.661 437.698 398.2C439.53 392.289 441.627 386.848 443.609 382.305C416.333 398.1 387.06 391.327 374.827 385.318L374.674 385.243L374.532 385.147C367.051 380.16 358.618 370.679 359.248 358.603C359.884 346.422 369.653 333.047 395.206 320.133C444.759 295.091 475.586 273.281 485.304 265.146C490.232 251.611 502.703 243.413 518.835 238.86Z"/>
</mask>
<path d="M518.835 238.86C535.261 234.225 556.001 233.199 578.014 234.362C620.698 236.616 668.89 247.142 701.439 256.485L704.539 257.385L705.928 257.794L706.312 259.188C706.312 259.189 706.312 259.19 706.313 259.192C706.314 259.197 706.317 259.207 706.32 259.22C706.328 259.247 706.34 259.289 706.357 259.344C706.389 259.457 706.44 259.628 706.508 259.848C706.644 260.291 706.851 260.935 707.127 261.721C707.681 263.299 708.506 265.428 709.591 267.647C710.681 269.876 712.002 272.13 713.526 273.998C715.065 275.881 716.688 277.22 718.344 277.858C768.43 297.165 787.028 303.782 799.741 307.522C806.092 309.39 810.972 310.54 817.677 312.214C824.376 313.887 832.805 316.062 846.149 319.958C862.048 324.6 873.51 331.941 880.086 341.552C886.713 351.239 888.135 362.88 884.627 375.519C880.951 388.763 871.432 396.718 859.768 400.711C848.189 404.674 834.399 404.791 821.603 402.488C809.487 400.307 794.394 395.677 782.412 391.63C777.264 389.892 772.667 388.249 769.092 386.943C769.686 388.101 770.247 389.315 770.775 390.565C772.592 394.872 774.106 399.801 775.347 404.786C777.829 414.753 779.275 425.162 779.852 431.73L779.871 431.957H780.086L780.236 441.482C781.123 497.329 736.095 543.078 680.241 543.078H532.447C476.543 543.077 431.495 497.249 432.454 441.353L432.597 433.001L432.552 432.087C431.986 420.779 434.456 408.661 437.698 398.2C439.53 392.289 441.627 386.848 443.609 382.305C416.333 398.1 387.06 391.327 374.827 385.318L374.674 385.243L374.532 385.147C367.051 380.16 358.618 370.679 359.248 358.603C359.884 346.422 369.653 333.047 395.206 320.133C444.759 295.091 475.586 273.281 485.304 265.146C490.232 251.611 502.703 243.413 518.835 238.86Z" fill="#B8E7EE"/>
<path d="M518.835 238.86L517.024 232.443L517.024 232.443L518.835 238.86ZM578.014 234.362L578.365 227.704V227.704L578.014 234.362ZM701.439 256.485L703.298 250.082L703.288 250.079L703.278 250.077L701.439 256.485ZM704.539 257.385L706.419 250.989L706.409 250.986L706.398 250.983L704.539 257.385ZM705.928 257.794L712.356 256.024L711.371 252.444L707.808 251.397L705.928 257.794ZM706.312 259.188L712.776 257.558L712.759 257.488L712.74 257.419L706.312 259.188ZM706.313 259.192L699.89 260.982L699.89 260.983L706.313 259.192ZM706.32 259.22L699.904 261.03L699.906 261.038L706.32 259.22ZM706.357 259.344L699.954 261.204L699.954 261.206L706.357 259.344ZM706.508 259.848L712.879 257.884L712.879 257.883L706.508 259.848ZM707.127 261.721L700.836 263.93L700.836 263.93L707.127 261.721ZM709.591 267.647L703.601 270.576L703.601 270.576L709.591 267.647ZM713.526 273.998L708.362 278.215L708.363 278.215L713.526 273.998ZM718.344 277.858L715.945 284.079L715.946 284.079L718.344 277.858ZM799.741 307.522L797.86 313.918V313.918L799.741 307.522ZM817.677 312.214L819.292 305.746V305.746L817.677 312.214ZM846.149 319.958L848.017 313.558L848.017 313.558L846.149 319.958ZM880.086 341.552L885.589 337.788L885.589 337.788L880.086 341.552ZM884.627 375.519L891.051 377.303L891.051 377.302L884.627 375.519ZM859.768 400.711L861.927 407.019L861.927 407.019L859.768 400.711ZM821.603 402.488L820.422 409.05H820.422L821.603 402.488ZM782.412 391.63L780.279 397.947H780.279L782.412 391.63ZM769.092 386.943L771.38 380.681L755.384 374.835L763.16 389.987L769.092 386.943ZM770.775 390.565L776.917 387.973L776.917 387.973L770.775 390.565ZM775.347 404.786L781.816 403.175L781.816 403.175L775.347 404.786ZM779.852 431.73L786.494 431.157L786.493 431.147L779.852 431.73ZM779.871 431.957L773.229 432.529L773.754 438.624H779.871V431.957ZM780.086 431.957L786.752 431.851L786.649 425.289H780.086V431.957ZM780.236 441.482L773.57 441.587L773.57 441.588L780.236 441.482ZM680.241 543.078V549.745H680.241L680.241 543.078ZM532.447 543.078L532.447 549.745H532.447V543.078ZM432.454 441.353L439.12 441.468L439.12 441.467L432.454 441.353ZM432.597 433.001L439.263 433.114L439.267 432.894L439.256 432.673L432.597 433.001ZM432.552 432.087L439.211 431.759L439.211 431.754L432.552 432.087ZM437.698 398.2L431.33 396.226L431.33 396.226L437.698 398.2ZM443.609 382.305L449.72 384.973L457.847 366.357L440.268 376.536L443.609 382.305ZM374.827 385.318L377.767 379.334L377.763 379.332L374.827 385.318ZM374.674 385.243L370.941 390.767L371.323 391.025L371.738 391.229L374.674 385.243ZM374.532 385.147L378.266 379.623L378.248 379.611L378.231 379.6L374.532 385.147ZM359.248 358.603L352.59 358.255L352.59 358.256L359.248 358.603ZM395.206 320.133L398.213 326.084H398.213L395.206 320.133ZM485.304 265.146L489.584 270.258L490.956 269.109L491.569 267.427L485.304 265.146ZM518.835 238.86L520.646 245.277C536.05 240.93 555.951 239.873 577.662 241.02L578.014 234.362L578.365 227.704C556.051 226.526 534.471 227.52 517.024 232.443L518.835 238.86ZM578.014 234.362L577.662 241.02C619.666 243.238 667.33 253.631 699.599 262.893L701.439 256.485L703.278 250.077C670.451 240.654 621.73 229.994 578.365 227.704L578.014 234.362ZM701.439 256.485L699.579 262.888L702.68 263.788L704.539 257.385L706.398 250.983L703.298 250.082L701.439 256.485ZM704.539 257.385L702.659 263.782L704.048 264.19L705.928 257.794L707.808 251.397L706.419 250.989L704.539 257.385ZM705.928 257.794L699.5 259.563L699.883 260.957L706.312 259.188L712.74 257.419L712.356 256.024L705.928 257.794ZM706.312 259.188L699.847 260.819C699.839 260.789 699.833 260.765 699.831 260.753C699.828 260.741 699.825 260.731 699.825 260.729C699.823 260.72 699.827 260.738 699.831 260.753C699.839 260.788 699.86 260.874 699.89 260.982L706.313 259.192L712.735 257.402C712.765 257.509 712.785 257.593 712.793 257.626C712.797 257.641 712.801 257.658 712.799 257.648C712.798 257.646 712.796 257.636 712.793 257.624C712.79 257.612 712.784 257.588 712.776 257.558L706.312 259.188ZM706.313 259.192L699.89 260.983C699.888 260.973 699.885 260.964 699.884 260.96C699.883 260.956 699.882 260.953 699.882 260.953C699.882 260.952 699.882 260.952 699.882 260.954C699.883 260.956 699.884 260.958 699.884 260.961C699.888 260.975 699.895 261 699.904 261.03L706.32 259.22L712.737 257.41C712.742 257.428 712.746 257.441 712.747 257.445C712.747 257.446 712.747 257.446 712.747 257.446C712.747 257.446 712.747 257.445 712.747 257.445C712.747 257.445 712.747 257.445 712.747 257.444C712.746 257.443 712.746 257.442 712.746 257.441C712.745 257.439 712.744 257.434 712.742 257.428C712.741 257.422 712.738 257.413 712.735 257.401L706.313 259.192ZM706.32 259.22L699.906 261.038C699.913 261.065 699.92 261.088 699.925 261.103C699.929 261.119 699.934 261.134 699.937 261.145C699.944 261.17 699.948 261.185 699.954 261.204L706.357 259.344L712.759 257.484C712.748 257.448 712.739 257.414 712.734 257.397C712.731 257.387 712.73 257.384 712.729 257.382C712.729 257.38 712.731 257.389 712.735 257.402L706.32 259.22ZM706.357 259.344L699.954 261.206C699.997 261.351 700.058 261.557 700.137 261.813L706.508 259.848L712.879 257.883C712.822 257.699 712.782 257.562 712.759 257.483L706.357 259.344ZM706.508 259.848L700.137 261.813C700.295 262.325 700.528 263.052 700.836 263.93L707.127 261.721L713.418 259.513C713.174 258.818 712.994 258.257 712.879 257.884L706.508 259.848ZM707.127 261.721L700.836 263.93C701.449 265.676 702.371 268.059 703.601 270.576L709.591 267.647L715.581 264.718C714.641 262.797 713.913 260.922 713.418 259.512L707.127 261.721ZM709.591 267.647L703.601 270.576C704.824 273.076 706.404 275.816 708.362 278.215L713.526 273.998L718.69 269.78C717.599 268.444 716.538 266.676 715.58 264.718L709.591 267.647ZM713.526 273.998L708.363 278.215C710.301 280.588 712.807 282.869 715.945 284.079L718.344 277.858L720.742 271.637C720.57 271.571 719.829 271.175 718.69 269.78L713.526 273.998ZM718.344 277.858L715.946 284.079C765.982 303.367 784.839 310.088 797.86 313.918L799.741 307.522L801.623 301.126C789.218 297.477 770.878 290.963 720.742 271.637L718.344 277.858ZM799.741 307.522L797.86 313.918C804.379 315.836 809.44 317.03 816.062 318.683L817.677 312.214L819.292 305.746C812.505 304.051 807.804 302.944 801.623 301.126L799.741 307.522ZM817.677 312.214L816.062 318.683C822.692 320.339 831.035 322.491 844.28 326.358L846.149 319.958L848.017 313.558C834.575 309.633 826.06 307.436 819.292 305.746L817.677 312.214ZM846.149 319.958L844.28 326.358C859.289 330.74 869.171 337.405 874.583 345.317L880.086 341.552L885.589 337.788C877.85 326.476 864.807 318.46 848.017 313.558L846.149 319.958ZM880.086 341.552L874.583 345.317C879.915 353.111 881.279 362.652 878.203 373.736L884.627 375.519L891.051 377.302C894.992 363.107 893.51 349.366 885.589 337.788L880.086 341.552ZM884.627 375.519L878.203 373.736C875.237 384.42 867.666 390.96 857.609 394.403L859.768 400.711L861.927 407.019C875.198 402.476 886.664 393.107 891.051 377.303L884.627 375.519ZM859.768 400.711L857.609 394.403C847.419 397.89 834.846 398.097 822.784 395.926L821.603 402.488L820.422 409.05C833.951 411.485 848.958 411.457 861.927 407.019L859.768 400.711ZM821.603 402.488L822.784 395.926C811.179 393.837 796.475 389.343 784.546 385.314L782.412 391.63L780.279 397.947C792.314 402.012 807.795 406.777 820.422 409.05L821.603 402.488ZM782.412 391.63L784.546 385.314C779.462 383.597 774.917 381.973 771.38 380.681L769.092 386.943L766.803 393.205C770.416 394.525 775.067 396.187 780.279 397.947L782.412 391.63ZM769.092 386.943L763.16 389.987C763.669 390.98 764.161 392.041 764.632 393.157L770.775 390.565L776.917 387.973C776.334 386.59 775.703 385.223 775.024 383.899L769.092 386.943ZM770.775 390.565L764.632 393.157C766.271 397.042 767.687 401.616 768.877 406.397L775.347 404.786L781.816 403.175C780.525 397.987 778.913 392.702 776.917 387.973L770.775 390.565ZM775.347 404.786L768.877 406.397C771.259 415.963 772.658 426.019 773.21 432.313L779.852 431.73L786.493 431.147C785.893 424.305 784.398 413.544 781.816 403.175L775.347 404.786ZM779.852 431.73L773.209 432.303L773.229 432.529L779.871 431.957L786.514 431.384L786.494 431.157L779.852 431.73ZM779.871 431.957V438.624H780.086V431.957V425.289H779.871V431.957ZM780.086 431.957L773.42 432.062L773.57 441.587L780.236 441.482L786.903 441.377L786.752 431.851L780.086 431.957ZM780.236 441.482L773.57 441.588C774.397 493.712 732.371 536.41 680.241 536.41L680.241 543.078L680.241 549.745C739.819 549.745 787.848 500.946 786.903 441.376L780.236 441.482ZM680.241 543.078V536.41H532.447V543.078V549.745H680.241V543.078ZM532.447 543.078L532.447 536.41C480.27 536.41 438.225 493.637 439.12 441.468L432.454 441.353L425.788 441.239C424.765 500.861 472.816 549.745 532.447 549.745L532.447 543.078ZM432.454 441.353L439.12 441.467L439.263 433.114L432.597 433.001L425.931 432.887L425.788 441.239L432.454 441.353ZM432.597 433.001L439.256 432.673L439.211 431.759L432.552 432.087L425.893 432.414L425.938 433.328L432.597 433.001ZM432.552 432.087L439.211 431.754C438.7 421.537 440.941 410.26 444.067 400.173L437.698 398.2L431.33 396.226C427.972 407.063 425.273 420.02 425.893 432.419L432.552 432.087ZM437.698 398.2L444.067 400.173C445.818 394.523 447.825 389.314 449.72 384.973L443.609 382.305L437.499 379.638C435.428 384.382 433.243 390.054 431.33 396.226L437.698 398.2ZM443.609 382.305L440.268 376.536C415.508 390.874 388.701 384.705 377.767 379.334L374.827 385.318L371.888 391.302C385.419 397.949 417.159 405.326 446.951 388.075L443.609 382.305ZM374.827 385.318L377.763 379.332L377.61 379.257L374.674 385.243L371.738 391.229L371.891 391.304L374.827 385.318ZM374.674 385.243L378.407 379.719L378.266 379.623L374.532 385.147L370.799 390.671L370.941 390.767L374.674 385.243ZM374.532 385.147L378.231 379.6C371.613 375.188 365.454 367.608 365.906 358.951L359.248 358.603L352.59 358.256C351.781 373.75 362.49 385.132 370.834 390.695L374.532 385.147ZM359.248 358.603L365.906 358.951C366.35 350.456 373.299 338.675 398.213 326.084L395.206 320.133L392.199 314.183C366.007 327.42 353.418 342.388 352.59 358.255L359.248 358.603ZM395.206 320.133L398.213 326.084C448.078 300.883 479.369 278.809 489.584 270.258L485.304 265.146L481.024 260.034C471.803 267.753 441.439 289.298 392.199 314.183L395.206 320.133ZM485.304 265.146L491.569 267.427C495.442 256.79 505.465 249.561 520.646 245.277L518.835 238.86L517.024 232.443C499.94 237.265 485.022 246.432 479.039 262.865L485.304 265.146Z" fill="#8ACAF0" mask="url(#path-1-inside-1_1617_326)"/>
<path d="M468.474 334.694C465.753 338.503 456.004 360.313 451.47 370.742C424.264 396.316 385.722 382.305 369.852 372.102C380.507 372.102 402.363 371.83 404.539 370.742C407.26 369.382 430.385 361.9 439.907 344.216C449.429 326.532 479.356 299.326 482.077 296.606C484.253 294.429 486.158 295.699 486.838 296.606C484.117 298.646 471.874 329.933 468.474 334.694Z" fill="white" stroke="white" stroke-width="1.3603" stroke-linejoin="round"/>
<circle cx="609.611" cy="393.064" r="114.454" fill="white"/>
<path d="M605.552 14.5193C697.811 14.5193 771.877 78.3025 771.877 156.156C771.877 234.009 697.811 297.792 605.552 297.792C513.293 297.792 439.227 234.009 439.227 156.156C439.227 78.3025 513.293 14.5193 605.552 14.5193Z" fill="#B8E7EE" stroke="#8ACAF0" stroke-width="5.19766"/>
<path d="M471.418 146.873C474.239 111.822 498.812 85.2005 526.302 87.4132C552.657 89.5348 572.125 117.39 571.2 150.574C582.388 150.999 594.283 151.308 606.852 151.308C625.379 151.308 642.679 150.112 658.55 148.527C657.946 118.274 674.697 92.5829 699.078 88.798C726.33 84.5676 752.795 109.308 758.189 144.056C758.293 144.724 758.387 145.39 758.474 146.056C764.695 150.327 767.978 157.565 767.979 169.149C767.979 220.101 704.451 294.243 606.852 294.243C509.252 294.243 452.222 234.746 452.222 183.793C452.222 166.559 458.746 157.268 471.158 152.517C471.18 150.652 471.265 148.77 471.418 146.873Z" fill="white"/>
<path d="M605.553 117.173C621.193 117.173 635.258 120.245 645.362 125.723C655.462 131.199 661.428 138.957 661.428 148.359C661.428 157.872 655.336 168.254 645.174 176.317C635.045 184.353 621.032 189.94 605.553 189.94C590.132 189.94 576.136 183.42 565.987 174.413C555.803 165.375 549.679 154.005 549.679 144.46C549.679 135.114 555.576 128.333 565.656 123.818C575.765 119.289 589.85 117.173 605.553 117.173Z" fill="#F1D453" stroke="#E1BA43" stroke-width="2.59883"/>
<path d="M511.403 523.422C529.392 523.422 544.9 524.845 556.154 527.597C561.79 528.974 566.222 530.654 569.342 532.562C572.346 534.399 573.847 536.268 574.342 538.03C574.35 540.409 574.426 542.42 573.771 544.451C573.144 546.394 571.763 548.518 568.3 550.548C564.747 552.629 559.039 554.586 549.868 556.007C540.723 557.424 528.29 558.287 511.403 558.287C494.516 558.287 482.083 557.424 472.938 556.007C463.768 554.586 458.059 552.63 454.507 550.548C451.043 548.518 449.663 546.394 449.036 544.451C448.379 542.413 448.456 540.394 448.464 538.005C448.968 535.987 450.503 534.009 453.485 532.146C456.584 530.211 460.997 528.564 466.629 527.245C477.879 524.611 493.386 523.422 511.403 523.422Z" fill="#B8E7EE" stroke="#8ACAF0" stroke-width="5.13857"/>
<path d="M711.419 523.422C729.407 523.422 744.916 524.845 756.17 527.597C761.805 528.974 766.238 530.654 769.357 532.562C772.361 534.399 773.863 536.268 774.357 538.03C774.365 540.409 774.441 542.42 773.786 544.451C773.159 546.394 771.779 548.518 768.315 550.548C764.763 552.629 759.054 554.586 749.884 556.007C740.739 557.424 728.306 558.287 711.419 558.287C694.532 558.287 682.099 557.424 672.954 556.007C663.784 554.586 658.075 552.63 654.522 550.548C651.059 548.518 649.679 546.394 649.052 544.451C648.394 542.413 648.472 540.394 648.479 538.005C648.984 535.987 650.519 534.009 653.501 532.146C656.6 530.211 661.012 528.564 666.645 527.245C677.894 524.611 693.401 523.422 711.419 523.422Z" fill="#B8E7EE" stroke="#8ACAF0" stroke-width="5.13857"/>
<path d="M734.136 333.324C737.498 336.498 747.637 351.811 761.19 360.904C788.947 379.527 860.306 405.164 858.872 370.449C858.614 364.196 845.208 368.197 837.374 367.404C824.324 366.083 814.011 363.089 812.348 362.541C809.023 361.445 785.803 349.526 768.982 340.789C747.139 329.442 720.381 303.536 717.035 301.285C714.358 299.485 712.064 300.604 711.251 301.388C714.587 303.062 729.933 329.356 734.136 333.324Z" fill="white"/>
<path d="M536.263 122.482C536.263 122.482 533.331 129.811 523.07 129.811C512.81 129.811 509.878 122.482 509.878 122.482" stroke="#583921" stroke-width="4.3974" stroke-linecap="round"/>
<path d="M712.254 122.482C712.254 122.482 709.322 129.811 699.062 129.811C688.801 129.811 685.87 122.482 685.87 122.482" stroke="#583921" stroke-width="4.3974" stroke-linecap="round"/>
<path d="M619.871 166.48C619.871 166.48 615.01 160.558 608.026 160.558C601.041 160.558 594.488 166.48 594.488 166.48" stroke="#583921" stroke-width="3.22255" stroke-linecap="round"/>
<path d="M724.014 54.1628C724.014 54.1628 744.32 77.3487 744.32 91.0885C744.32 102.458 735.216 111.698 724.014 111.698C712.811 111.698 703.707 102.458 703.707 91.0885C703.707 77.3487 724.014 54.1628 724.014 54.1628Z" fill="#41C3D7" stroke="#F8F8F8" stroke-width="3.38443"/>
<path d="M916.834 454.785C863.008 445.708 844.705 392.327 842.281 366.771C771.082 382.27 744.94 326.916 740.769 297.302C733.926 257.237 763.59 222.389 779.277 209.973C742.129 154.21 769.463 110.537 787.773 95.6706C814.735 58.93 868.151 70.2959 891.489 80.5714C907.305 57.7242 951.571 15.87 1002.1 31.2315C1052.64 46.5929 1065.46 90.7243 1065.55 110.87C1116.83 102.478 1150.47 138.86 1160.88 158.099C1189.97 223.787 1148.24 259.613 1123.75 269.314C1147.23 299.385 1141.99 328.854 1136.43 339.83C1115.05 398.728 1054.12 394.761 1026.32 385.415C992.754 453.072 939.343 459.852 916.834 454.785Z" fill="#FF8F57" stroke="#F15B2C" stroke-width="4.5463" stroke-linecap="round"/>
<mask id="path-16-inside-2_1617_326" fill="white">
<path d="M870.293 96.0682C884.577 97.9899 895.599 108.496 898.859 121.687C922.915 113.302 949.838 110.719 977.991 116.313C1005.57 121.793 1029.63 133.224 1049.24 148.486C1056.46 139.356 1068.17 134.16 1080.55 135.824C1099.21 138.335 1112.31 155.501 1109.79 174.164C1108.27 185.515 1101.32 194.805 1091.91 199.778C1105.05 225.633 1109.8 254.396 1104.35 281.868C1090.47 351.717 1012.51 382.839 924.428 365.338C836.346 347.836 786.12 301.044 799.998 231.195C805.551 203.249 821.054 176.474 843.296 155.527C834.991 148.248 830.372 137.08 831.955 125.315C834.466 106.652 851.63 93.5574 870.293 96.0682Z"/>
</mask>
<path d="M870.293 96.0682C884.577 97.9899 895.599 108.496 898.859 121.687C922.915 113.302 949.838 110.719 977.991 116.313C1005.57 121.793 1029.63 133.224 1049.24 148.486C1056.46 139.356 1068.17 134.16 1080.55 135.824C1099.21 138.335 1112.31 155.501 1109.79 174.164C1108.27 185.515 1101.32 194.805 1091.91 199.778C1105.05 225.633 1109.8 254.396 1104.35 281.868C1090.47 351.717 1012.51 382.839 924.428 365.338C836.346 347.836 786.12 301.044 799.998 231.195C805.551 203.249 821.054 176.474 843.296 155.527C834.991 148.248 830.372 137.08 831.955 125.315C834.466 106.652 851.63 93.5574 870.293 96.0682Z" fill="#FECE6D"/>
<path d="M870.293 96.0682L870.9 91.5625L870.9 91.5625L870.293 96.0682ZM898.859 121.687L894.446 122.778L895.643 127.622L900.356 125.98L898.859 121.687ZM977.991 116.313L978.877 111.854L978.877 111.854L977.991 116.313ZM1049.24 148.486L1046.44 152.074L1050 154.844L1052.8 151.307L1049.24 148.486ZM1080.55 135.824L1081.15 131.319L1081.15 131.319L1080.55 135.824ZM1109.79 174.164L1114.3 174.77L1114.3 174.77L1109.79 174.164ZM1091.91 199.778L1089.78 195.759L1085.83 197.849L1087.86 201.838L1091.91 199.778ZM1104.35 281.868L1108.81 282.754V282.754L1104.35 281.868ZM924.428 365.338L923.542 369.797V369.797L924.428 365.338ZM799.998 231.195L795.539 230.309L795.539 230.309L799.998 231.195ZM843.296 155.527L846.413 158.836L850.056 155.406L846.293 152.108L843.296 155.527ZM831.955 125.315L827.449 124.709L827.449 124.709L831.955 125.315ZM870.293 96.0682L869.687 100.574C882.059 102.238 891.618 111.337 894.446 122.778L898.859 121.687L903.273 120.596C899.58 105.654 887.095 93.7413 870.9 91.5625L870.293 96.0682ZM898.859 121.687L900.356 125.98C923.677 117.851 949.778 115.342 977.105 120.772L977.991 116.313L978.877 111.854C949.897 106.095 922.152 108.753 897.363 117.394L898.859 121.687ZM977.991 116.313L977.105 120.772C1003.99 126.113 1027.39 137.245 1046.44 152.074L1049.24 148.486L1052.03 144.898C1031.86 129.203 1007.15 117.472 978.877 111.854L977.991 116.313ZM1049.24 148.486L1052.8 151.307C1059.07 143.383 1069.22 138.888 1079.94 140.33L1080.55 135.824L1081.15 131.319C1067.12 129.431 1053.85 135.33 1045.67 145.666L1049.24 148.486ZM1080.55 135.824L1079.94 140.33C1096.12 142.506 1107.46 157.383 1105.29 173.558L1109.79 174.164L1114.3 174.77C1117.15 153.618 1102.31 134.164 1081.15 131.319L1080.55 135.824ZM1109.79 174.164L1105.29 173.558C1103.97 183.392 1097.95 191.443 1089.78 195.759L1091.91 199.778L1094.03 203.798C1104.69 198.168 1112.57 187.639 1114.3 174.77L1109.79 174.164ZM1091.91 199.778L1087.86 201.838C1100.58 226.883 1105.13 254.613 1099.89 280.982L1104.35 281.868L1108.81 282.754C1114.48 254.179 1109.51 224.383 1095.96 197.719L1091.91 199.778ZM1104.35 281.868L1099.89 280.982C1093.28 314.25 1071.46 338.39 1040.37 352.205C1009.17 366.066 968.654 369.49 925.314 360.879L924.428 365.338L923.542 369.797C968.284 378.687 1010.78 375.301 1044.06 360.514C1077.44 345.681 1101.54 319.335 1108.81 282.754L1104.35 281.868ZM924.428 365.338L925.314 360.879C881.773 352.227 848.198 336.442 827.249 314.739C806.489 293.232 797.798 265.597 804.458 232.081L799.998 231.195L795.539 230.309C788.32 266.642 797.804 297.328 820.707 321.054C843.422 344.586 879.001 360.947 923.542 369.797L924.428 365.338ZM799.998 231.195L804.458 232.081C809.807 205.156 824.787 179.203 846.413 158.836L843.296 155.527L840.18 152.217C817.321 173.744 801.295 201.341 795.539 230.309L799.998 231.195ZM843.296 155.527L846.293 152.108C839.084 145.79 835.089 136.113 836.461 125.921L831.955 125.315L827.449 124.709C825.655 138.047 830.898 150.706 840.3 158.946L843.296 155.527ZM831.955 125.315L836.461 125.921C838.637 109.746 853.513 98.3979 869.687 100.574L870.293 96.0682L870.9 91.5625C849.748 88.7169 830.295 103.558 827.449 124.709L831.955 125.315Z" fill="#F59313" mask="url(#path-16-inside-2_1617_326)"/>
<path d="M931.052 201.34C938.754 208.492 956.597 219.456 966.347 206.088C969.901 201.214 974.486 191.047 961.811 188.658C957.088 187.768 947.921 188.471 949.031 198.407C951.573 207.923 962.232 221.896 986.319 211.069" stroke="#603C1F" stroke-width="4.5463" stroke-linecap="round"/>
<ellipse cx="1028.08" cy="292.787" rx="18.1852" ry="12.8812" transform="rotate(7.66225 1028.08 292.787)" fill="#F78F8B"/>
<ellipse cx="869.889" cy="263.859" rx="18.1852" ry="12.8812" transform="rotate(7.66225 869.889 263.859)" fill="#F78F8B"/>
<rect x="830.011" y="412.522" width="93.9569" height="45.463" transform="rotate(7.66225 830.011 412.522)" fill="#FECE6D"/>
<mask id="path-22-inside-3_1617_326" fill="white">
<path d="M1039.24 345.27C1053.43 332.587 1070.03 321.723 1090.15 330.069C1096.88 332.863 1101.56 337.212 1104.51 342.664C1107.24 347.687 1108.37 353.41 1108.61 359.276L1108.64 360.451L1108.65 361.618C1108.67 373.731 1105.22 387.437 1102.49 399.139C1098.4 416.714 1087.4 430.407 1075.59 441.015C1064.57 450.919 1052.43 458.469 1044.09 463.979L1040.13 493.398L1040.04 493.386L1033.81 539.7C1027.53 586.349 984.631 619.078 937.982 612.802L866.186 603.143C819.537 596.867 786.808 553.963 793.084 507.314L800.186 454.523L800.593 454.577L803.679 431.636C797.092 424.118 787.384 413.629 779.368 401.163C770.782 387.811 763.798 371.699 764.494 353.667C764.972 341.273 765.271 326.616 768.783 314.728L769.128 313.604C770.904 308.009 773.513 302.79 777.467 298.665C781.758 294.188 787.417 291.229 794.648 290.314L795.654 290.199C816.666 288.046 829.559 302.697 839.727 318.428C845.832 327.873 846.245 338.613 845.965 347.678C845.817 352.482 845.499 356.369 845.49 360.268C845.481 363.97 845.787 366.775 846.569 368.867C846.574 368.873 846.579 368.88 846.585 368.887C846.688 369.006 846.904 369.229 847.299 369.546C848.06 370.156 849.218 370.904 850.827 371.772C854.037 373.503 858.588 375.466 864.265 377.578C875.588 381.79 890.909 386.425 907.822 390.886C915.253 392.846 922.973 394.767 930.773 396.601C938.782 396.894 946.736 397.082 954.421 397.155C971.912 397.322 987.913 396.902 999.947 395.832C1005.98 395.295 1010.89 394.605 1014.44 393.784C1016.22 393.372 1017.54 392.956 1018.43 392.569C1018.9 392.368 1019.16 392.21 1019.29 392.122C1019.3 392.118 1019.31 392.112 1019.31 392.108C1020.62 390.297 1021.66 387.673 1022.63 384.1C1023.65 380.336 1024.37 376.504 1025.5 371.832C1027.62 363.015 1030.86 352.766 1039.24 345.27Z"/>
</mask>
<path d="M1039.24 345.27C1053.43 332.587 1070.03 321.723 1090.15 330.069C1096.88 332.863 1101.56 337.212 1104.51 342.664C1107.24 347.687 1108.37 353.41 1108.61 359.276L1108.64 360.451L1108.65 361.618C1108.67 373.731 1105.22 387.437 1102.49 399.139C1098.4 416.714 1087.4 430.407 1075.59 441.015C1064.57 450.919 1052.43 458.469 1044.09 463.979L1040.13 493.398L1040.04 493.386L1033.81 539.7C1027.53 586.349 984.631 619.078 937.982 612.802L866.186 603.143C819.537 596.867 786.808 553.963 793.084 507.314L800.186 454.523L800.593 454.577L803.679 431.636C797.092 424.118 787.384 413.629 779.368 401.163C770.782 387.811 763.798 371.699 764.494 353.667C764.972 341.273 765.271 326.616 768.783 314.728L769.128 313.604C770.904 308.009 773.513 302.79 777.467 298.665C781.758 294.188 787.417 291.229 794.648 290.314L795.654 290.199C816.666 288.046 829.559 302.697 839.727 318.428C845.832 327.873 846.245 338.613 845.965 347.678C845.817 352.482 845.499 356.369 845.49 360.268C845.481 363.97 845.787 366.775 846.569 368.867C846.574 368.873 846.579 368.88 846.585 368.887C846.688 369.006 846.904 369.229 847.299 369.546C848.06 370.156 849.218 370.904 850.827 371.772C854.037 373.503 858.588 375.466 864.265 377.578C875.588 381.79 890.909 386.425 907.822 390.886C915.253 392.846 922.973 394.767 930.773 396.601C938.782 396.894 946.736 397.082 954.421 397.155C971.912 397.322 987.913 396.902 999.947 395.832C1005.98 395.295 1010.89 394.605 1014.44 393.784C1016.22 393.372 1017.54 392.956 1018.43 392.569C1018.9 392.368 1019.16 392.21 1019.29 392.122C1019.3 392.118 1019.31 392.112 1019.31 392.108C1020.62 390.297 1021.66 387.673 1022.63 384.1C1023.65 380.336 1024.37 376.504 1025.5 371.832C1027.62 363.015 1030.86 352.766 1039.24 345.27Z" fill="#FECE6D"/>
<path d="M1039.24 345.27L1036.22 341.887L1036.22 341.887L1039.24 345.27ZM1090.15 330.069L1091.89 325.878L1091.89 325.878L1090.15 330.069ZM1104.51 342.664L1108.5 340.502L1108.5 340.502L1104.51 342.664ZM1108.61 359.276L1113.14 359.141L1113.14 359.118L1113.14 359.095L1108.61 359.276ZM1108.64 360.451L1113.18 360.406L1113.18 360.361L1113.18 360.316L1108.64 360.451ZM1108.65 361.618L1113.19 361.614L1113.19 361.594L1113.19 361.574L1108.65 361.618ZM1102.49 399.139L1106.91 400.169L1106.91 400.169L1102.49 399.139ZM1075.59 441.015L1078.62 444.392L1078.62 444.392L1075.59 441.015ZM1044.09 463.979L1041.59 460.193L1039.87 461.33L1039.59 463.374L1044.09 463.979ZM1040.13 493.398L1039.53 497.896L1044.03 498.501L1044.63 494.003L1040.13 493.398ZM1040.04 493.386L1040.65 488.888L1036.15 488.283L1035.54 492.78L1040.04 493.386ZM1033.81 539.7L1038.31 540.305L1038.31 540.305L1033.81 539.7ZM937.982 612.802L937.377 617.3V617.3L937.982 612.802ZM866.186 603.143L865.581 607.641V607.641L866.186 603.143ZM793.084 507.314L788.586 506.709L788.586 506.709L793.084 507.314ZM800.186 454.523L800.791 450.025L796.294 449.42L795.688 453.918L800.186 454.523ZM800.593 454.577L799.988 459.075L804.485 459.68L805.091 455.182L800.593 454.577ZM803.679 431.636L808.177 432.241L808.452 430.196L807.093 428.645L803.679 431.636ZM779.368 401.163L775.551 403.618L775.551 403.618L779.368 401.163ZM764.494 353.667L759.959 353.492L759.959 353.492L764.494 353.667ZM768.783 314.728L764.444 313.399L764.438 313.42L764.431 313.442L768.783 314.728ZM769.128 313.604L764.802 312.231L764.795 312.253L764.789 312.275L769.128 313.604ZM777.467 298.665L774.19 295.525L774.19 295.525L777.467 298.665ZM794.648 290.314L794.133 285.805L794.105 285.808L794.078 285.812L794.648 290.314ZM795.654 290.199L795.192 285.685L795.166 285.687L795.14 285.69L795.654 290.199ZM839.727 318.428L843.539 315.965L843.539 315.965L839.727 318.428ZM845.965 347.678L850.501 347.818L850.501 347.818L845.965 347.678ZM845.49 360.268L840.952 360.258L840.952 360.258L845.49 360.268ZM846.569 368.867L842.318 370.456L842.588 371.18L843.083 371.773L846.569 368.867ZM846.585 368.887L843.149 371.851L843.149 371.852L846.585 368.887ZM847.299 369.546L844.46 373.086L844.46 373.087L847.299 369.546ZM850.827 371.772L848.673 375.767L848.673 375.767L850.827 371.772ZM864.265 377.578L862.682 381.831L862.683 381.831L864.265 377.578ZM907.822 390.886L906.664 395.274V395.274L907.822 390.886ZM930.773 396.601L929.735 401.019L930.165 401.12L930.607 401.136L930.773 396.601ZM954.421 397.155L954.378 401.693V401.693L954.421 397.155ZM999.947 395.832L1000.35 400.352L1000.35 400.352L999.947 395.832ZM1014.44 393.784L1015.46 398.206L1015.46 398.206L1014.44 393.784ZM1018.43 392.569L1020.23 396.734L1020.23 396.734L1018.43 392.569ZM1019.29 392.122L1021.83 395.89L1021.83 395.886L1019.29 392.122ZM1019.31 392.108L1021.89 395.843L1022.53 395.399L1022.99 394.765L1019.31 392.108ZM1022.63 384.1L1027.01 385.289L1027.01 385.289L1022.63 384.1ZM1025.5 371.832L1021.09 370.768L1021.09 370.768L1025.5 371.832ZM1039.24 345.27L1042.27 348.654C1056.38 336.034 1071.01 327.041 1088.41 334.261L1090.15 330.069L1091.89 325.878C1069.06 316.404 1050.48 329.141 1036.22 341.887L1039.24 345.27ZM1090.15 330.069L1088.41 334.261C1094.22 336.672 1098.08 340.325 1100.52 344.827L1104.51 342.664L1108.5 340.502C1105.03 334.099 1099.54 329.053 1091.89 325.878L1090.15 330.069ZM1104.51 342.664L1100.52 344.827C1102.81 349.048 1103.86 354.028 1104.07 359.457L1108.61 359.276L1113.14 359.095C1112.89 352.792 1111.66 346.326 1108.5 340.502L1104.51 342.664ZM1108.61 359.276L1104.07 359.411L1104.11 360.586L1108.64 360.451L1113.18 360.316L1113.14 359.141L1108.61 359.276ZM1108.64 360.451L1104.11 360.496L1104.12 361.663L1108.65 361.618L1113.19 361.574L1113.18 360.406L1108.64 360.451ZM1108.65 361.618L1104.12 361.622C1104.13 373.087 1100.85 386.19 1098.07 398.109L1102.49 399.139L1106.91 400.169C1109.59 388.683 1113.2 374.375 1113.19 361.614L1108.65 361.618ZM1102.49 399.139L1098.07 398.109C1094.27 414.421 1084.01 427.351 1072.56 437.639L1075.59 441.015L1078.62 444.392C1090.79 433.463 1102.52 419.008 1106.91 400.169L1102.49 399.139ZM1075.59 441.015L1072.56 437.639C1061.85 447.262 1050.06 454.596 1041.59 460.193L1044.09 463.979L1046.59 467.766C1054.8 462.343 1067.29 454.576 1078.62 444.392L1075.59 441.015ZM1044.09 463.979L1039.59 463.374L1035.64 492.793L1040.13 493.398L1044.63 494.003L1048.59 464.584L1044.09 463.979ZM1040.13 493.398L1040.74 488.9L1040.65 488.888L1040.04 493.386L1039.44 497.883L1039.53 497.896L1040.13 493.398ZM1040.04 493.386L1035.54 492.78L1029.31 539.095L1033.81 539.7L1038.31 540.305L1044.54 493.991L1040.04 493.386ZM1033.81 539.7L1029.31 539.095C1023.37 583.259 982.752 614.246 938.587 608.304L937.982 612.802L937.377 617.3C986.51 623.91 1031.7 589.438 1038.31 540.305L1033.81 539.7ZM937.982 612.802L938.587 608.304L866.791 598.645L866.186 603.143L865.581 607.641L937.377 617.3L937.982 612.802ZM866.186 603.143L866.791 598.645C822.626 592.703 791.64 552.084 797.582 507.919L793.084 507.314L788.586 506.709C781.976 555.841 816.448 601.03 865.581 607.641L866.186 603.143ZM793.084 507.314L797.582 507.919L804.684 455.128L800.186 454.523L795.688 453.918L788.586 506.709L793.084 507.314ZM800.186 454.523L799.581 459.02L799.988 459.075L800.593 454.577L801.198 450.08L800.791 450.025L800.186 454.523ZM800.593 454.577L805.091 455.182L808.177 432.241L803.679 431.636L799.181 431.03L796.095 453.972L800.593 454.577ZM803.679 431.636L807.093 428.645C800.402 421.009 790.974 410.821 783.185 398.708L779.368 401.163L775.551 403.618C783.794 416.437 793.783 427.227 800.266 434.626L803.679 431.636ZM779.368 401.163L783.185 398.708C774.858 385.759 768.383 370.578 769.029 353.842L764.494 353.667L759.959 353.492C759.213 372.821 766.706 389.863 775.551 403.618L779.368 401.163ZM764.494 353.667L769.029 353.842C769.517 341.206 769.822 327.228 773.136 316.014L768.783 314.728L764.431 313.442C760.719 326.004 760.428 341.34 759.959 353.492L764.494 353.667ZM768.783 314.728L773.123 316.057L773.467 314.933L769.128 313.604L764.789 312.275L764.444 313.399L768.783 314.728ZM769.128 313.604L773.453 314.977C775.097 309.799 777.421 305.272 780.743 301.805L777.467 298.665L774.19 295.525C769.606 300.308 766.711 306.219 764.802 312.231L769.128 313.604ZM777.467 298.665L780.743 301.805C784.287 298.108 788.976 295.606 795.217 294.816L794.648 290.314L794.078 285.812C785.857 286.852 779.23 290.267 774.19 295.525L777.467 298.665ZM794.648 290.314L795.162 294.823L796.169 294.708L795.654 290.199L795.14 285.69L794.133 285.805L794.648 290.314ZM795.654 290.199L796.117 294.714C814.269 292.854 825.793 305.232 835.916 320.892L839.727 318.428L843.539 315.965C833.324 300.161 819.062 283.238 795.192 285.685L795.654 290.199ZM839.727 318.428L835.916 320.892C841.216 329.092 841.704 338.605 841.429 347.538L845.965 347.678L850.501 347.818C850.785 338.622 850.447 326.653 843.539 315.965L839.727 318.428ZM845.965 347.678L841.429 347.538C841.292 351.985 840.961 356.335 840.952 360.258L845.49 360.268L850.028 360.279C850.038 356.402 850.342 352.979 850.501 347.818L845.965 347.678ZM845.49 360.268L840.952 360.258C840.943 364.101 841.241 367.577 842.318 370.456L846.569 368.867L850.82 367.278C850.332 365.974 850.02 363.839 850.028 360.279L845.49 360.268ZM846.569 368.867L843.083 371.773C843.05 371.734 843.026 371.703 843.016 371.691C843.011 371.684 843.007 371.679 843.006 371.678C843.006 371.678 843.005 371.677 843.006 371.678C843.007 371.679 843.008 371.68 843.009 371.682C843.015 371.689 843.032 371.711 843.054 371.737C843.076 371.765 843.108 371.805 843.149 371.851L846.585 368.887L850.022 365.923C850.059 365.966 850.088 366.002 850.108 366.026C850.127 366.05 850.141 366.068 850.144 366.071C850.145 366.072 850.145 366.073 850.145 366.073C850.145 366.073 850.145 366.073 850.145 366.072C850.145 366.072 850.145 366.072 850.145 366.072C850.144 366.072 850.144 366.071 850.143 366.07C850.141 366.068 850.136 366.061 850.129 366.053C850.123 366.044 850.113 366.032 850.101 366.017C850.089 366.002 850.073 365.983 850.055 365.961L846.569 368.867ZM846.585 368.887L843.149 371.852C843.465 372.217 843.89 372.63 844.46 373.086L847.299 369.546L850.137 366.005C850.03 365.919 849.973 365.867 849.956 365.85C849.937 365.832 849.963 365.855 850.021 365.922L846.585 368.887ZM847.299 369.546L844.46 373.087C845.518 373.934 846.937 374.831 848.673 375.767L850.827 371.772L852.981 367.778C851.498 366.978 850.602 366.377 850.137 366.004L847.299 369.546ZM850.827 371.772L848.673 375.767C852.15 377.642 856.923 379.689 862.682 381.831L864.265 377.578L865.847 373.324C860.254 371.243 855.925 369.365 852.981 367.778L850.827 371.772ZM864.265 377.578L862.683 381.831C874.201 386.116 889.681 390.794 906.664 395.274L907.822 390.886L908.979 386.498C892.137 382.055 876.975 377.464 865.847 373.324L864.265 377.578ZM907.822 390.886L906.664 395.274C914.137 397.245 921.897 399.176 929.735 401.019L930.773 396.601L931.812 392.183C924.049 390.358 916.368 388.447 908.979 386.498L907.822 390.886ZM930.773 396.601L930.607 401.136C938.654 401.431 946.649 401.619 954.378 401.693L954.421 397.155L954.465 392.617C946.823 392.544 938.91 392.357 930.939 392.065L930.773 396.601ZM954.421 397.155L954.378 401.693C971.942 401.861 988.107 401.44 1000.35 400.352L999.947 395.832L999.545 391.311C987.719 392.363 971.883 392.784 954.465 392.617L954.421 397.155ZM999.947 395.832L1000.35 400.352C1006.47 399.808 1011.61 399.095 1015.46 398.206L1014.44 393.784L1013.42 389.362C1010.16 390.115 1005.49 390.783 999.545 391.311L999.947 395.832ZM1014.44 393.784L1015.46 398.206C1017.38 397.762 1018.99 397.273 1020.23 396.734L1018.43 392.569L1016.63 388.404C1016.08 388.64 1015.06 388.983 1013.42 389.362L1014.44 393.784ZM1018.43 392.569L1020.23 396.734C1020.9 396.444 1021.42 396.159 1021.83 395.89L1019.29 392.122L1016.76 388.355C1016.84 388.306 1016.87 388.29 1016.85 388.302C1016.83 388.314 1016.76 388.349 1016.63 388.404L1018.43 392.569ZM1019.29 392.122L1021.83 395.886C1021.93 395.819 1022.01 395.761 1022.06 395.721C1022.09 395.701 1022.11 395.684 1022.12 395.672C1022.14 395.661 1022.15 395.652 1022.15 395.649C1022.15 395.649 1022.15 395.648 1022.15 395.648C1022.15 395.647 1022.15 395.648 1022.15 395.648C1022.15 395.649 1022.15 395.651 1022.15 395.654C1022.14 395.66 1022.12 395.672 1022.1 395.688C1022.08 395.703 1022.05 395.725 1022.02 395.751C1021.99 395.777 1021.94 395.808 1021.89 395.843L1019.31 392.108L1016.74 388.373C1016.68 388.409 1016.64 388.442 1016.6 388.469C1016.57 388.495 1016.54 388.518 1016.51 388.535C1016.49 388.552 1016.48 388.566 1016.47 388.573C1016.46 388.576 1016.46 388.579 1016.46 388.58C1016.46 388.581 1016.46 388.581 1016.46 388.581C1016.46 388.581 1016.46 388.581 1016.46 388.581C1016.46 388.582 1016.46 388.581 1016.46 388.581C1016.46 388.58 1016.46 388.578 1016.47 388.574C1016.47 388.571 1016.47 388.567 1016.48 388.561C1016.5 388.551 1016.52 388.535 1016.54 388.516C1016.56 388.497 1016.6 388.474 1016.63 388.447C1016.67 388.421 1016.71 388.391 1016.76 388.359L1019.29 392.122ZM1019.31 392.108L1022.99 394.765C1024.79 392.272 1026 388.999 1027.01 385.289L1022.63 384.1L1018.25 382.911C1017.32 386.346 1016.45 388.323 1015.63 389.451L1019.31 392.108ZM1022.63 384.1L1027.01 385.289C1028.04 381.502 1028.87 377.223 1029.91 372.896L1025.5 371.832L1021.09 370.768C1019.88 375.785 1019.26 379.17 1018.25 382.911L1022.63 384.1ZM1025.5 371.832L1029.91 372.896C1032.01 364.206 1034.99 355.162 1042.27 348.653L1039.24 345.27L1036.22 341.887C1026.73 350.37 1023.24 361.824 1021.09 370.768L1025.5 371.832Z" fill="#F59313" mask="url(#path-22-inside-3_1617_326)"/>
<path d="M916.834 454.784C863.008 445.708 842.012 389.148 839.589 363.592L1028.76 385.626C995.193 453.283 939.344 459.851 916.834 454.784Z" fill="#FF8F57" stroke="#F15B2C" stroke-width="4.5463" stroke-linecap="round"/>
<path d="M917.439 450.278C863.613 441.202 840.653 384.23 842.111 357.527L1028.07 381.264C992.771 456.359 939.949 455.345 917.439 450.278Z" fill="#FF8F57"/>
<path d="M967.441 269.758C981.231 271.614 990.907 284.297 989.051 298.088C987.196 311.879 974.512 321.554 960.722 319.699C952.456 318.587 945.669 313.584 941.957 306.785C936.58 312.361 928.714 315.393 920.448 314.281C906.657 312.425 896.982 299.742 898.837 285.951C900.692 272.16 913.376 262.485 927.167 264.34C935.432 265.452 942.217 270.455 945.93 277.254C951.307 271.678 959.175 268.646 967.441 269.758Z" fill="#FDFFFB"/>
<path d="M962.271 275.694C961.369 282.396 951.933 287.385 944.837 286.431C937.74 285.476 929.959 278.171 930.86 271.468C931.587 260.664 941.005 261.204 948.102 262.159C955.199 263.114 964.521 264.368 962.271 275.694Z" fill="#5E3916"/>
<path d="M910.09 252.684C909.347 258.203 905.006 256.614 899.486 255.872C893.967 255.129 889.359 255.514 890.102 249.995C890.844 244.475 895.921 240.602 901.44 241.345C906.96 242.088 910.833 247.164 910.09 252.684Z" fill="#603C1F"/>
<path d="M1013.45 266.59C1012.71 272.109 1008.28 271.147 1002.76 270.404C997.244 269.662 992.721 269.42 993.464 263.9C994.207 258.381 999.283 254.508 1004.8 255.251C1010.32 255.993 1014.19 261.07 1013.45 266.59Z" fill="#603C1F"/>
<path d="M840.312 563.451C857.366 565.745 871.786 569.54 881.931 574.468C892.147 579.431 897.205 585.113 897.505 590.878C896.697 596.963 896.215 603.054 889.177 607.226C881.666 611.679 866.277 614.167 834.072 609.834C801.866 605.502 787.682 599.035 781.615 592.755C775.924 586.865 777.078 580.857 777.906 574.767C779.805 568.686 786.197 564.554 797.292 562.625C808.352 560.702 823.22 561.151 840.312 563.451Z" fill="#FECE6D" stroke="#F59313" stroke-width="4.92642"/>
<path d="M815.948 587.514L813.813 603.382" stroke="#F59313" stroke-width="4.92642" stroke-linecap="round"/>
<path d="M834.258 589.977L832.123 605.844" stroke="#F59313" stroke-width="4.92642" stroke-linecap="round"/>
<path d="M851.344 592.275L849.209 608.143" stroke="#F59313" stroke-width="4.92642" stroke-linecap="round"/>
<path d="M981.902 582.499C998.956 584.794 1013.38 588.588 1023.52 593.517C1033.74 598.48 1038.79 604.162 1039.1 609.927C1038.29 616.012 1037.81 622.102 1030.77 626.275C1023.26 630.727 1007.87 633.216 975.662 628.883C943.456 624.55 929.272 618.083 923.205 611.804C917.514 605.913 918.668 599.905 919.496 593.816C921.395 587.735 927.787 583.603 938.882 581.674C949.942 579.751 964.81 580.2 981.902 582.499Z" fill="#FECE6D" stroke="#F59313" stroke-width="4.92642"/>
<path d="M957.539 606.562L955.404 622.43" stroke="#F59313" stroke-width="4.92642" stroke-linecap="round"/>
<path d="M975.847 609.025L973.712 624.893" stroke="#F59313" stroke-width="4.92642" stroke-linecap="round"/>
<path d="M992.935 611.324L990.8 627.192" stroke="#F59313" stroke-width="4.92642" stroke-linecap="round"/>
<ellipse cx="913.103" cy="518.085" rx="56.4625" ry="45.8092" transform="rotate(7.66225 913.103 518.085)" fill="#F8A233"/>
<path d="M1002.02 276.577C1002.02 276.577 1009.49 287.836 1008.68 293.805C1008.02 298.744 1003.52 302.226 998.656 301.571C993.79 300.916 990.375 296.37 991.039 291.431C991.842 285.462 1002.02 276.577 1002.02 276.577Z" fill="#41C3D7"/>
<mask id="path-40-inside-4_1617_326" fill="white">
<path d="M394.868 302.83C402.972 294.054 414.58 287.234 430.012 288.398C437.741 288.981 443.736 291.568 448.231 295.54C452.698 299.486 455.494 304.629 457.149 310.04C460.433 320.774 459.389 333.062 457.486 341.083L457.416 341.38L457.287 341.656C451.984 353.102 435.033 376.678 406.974 386.836L414.753 428.39C424.855 482.35 388.493 534.027 334.292 542.742L272.48 552.681C219.9 561.135 170.245 525.89 160.878 473.464L155.254 441.996C143.967 443.054 128.847 442.833 115.37 439.104C99.9275 434.83 85.7934 425.649 83.2471 407.698C80.9152 391.259 82.053 381.463 84.534 375.256C87.0734 368.902 91.019 366.546 92.4638 365.297C101.156 357.785 124.407 349.592 150.989 371.024C153.506 373.053 157.813 374.563 164.044 375.343C170.194 376.113 177.838 376.129 186.665 375.493C204.309 374.224 226.281 370.389 249.674 365.176C295.743 354.911 346.941 339.39 380.623 328.023C382.78 320.792 387.392 310.927 394.868 302.83Z"/>
</mask>
<path d="M394.868 302.83C402.972 294.054 414.58 287.234 430.012 288.398C437.741 288.981 443.736 291.568 448.231 295.54C452.698 299.486 455.494 304.629 457.149 310.04C460.433 320.774 459.389 333.062 457.486 341.083L457.416 341.38L457.287 341.656C451.984 353.102 435.033 376.678 406.974 386.836L414.753 428.39C424.855 482.35 388.493 534.027 334.292 542.742L272.48 552.681C219.9 561.135 170.245 525.89 160.878 473.464L155.254 441.996C143.967 443.054 128.847 442.833 115.37 439.104C99.9275 434.83 85.7934 425.649 83.2471 407.698C80.9152 391.259 82.053 381.463 84.534 375.256C87.0734 368.902 91.019 366.546 92.4638 365.297C101.156 357.785 124.407 349.592 150.989 371.024C153.506 373.053 157.813 374.563 164.044 375.343C170.194 376.113 177.838 376.129 186.665 375.493C204.309 374.224 226.281 370.389 249.674 365.176C295.743 354.911 346.941 339.39 380.623 328.023C382.78 320.792 387.392 310.927 394.868 302.83Z" fill="#FFFBE8"/>
<path d="M394.868 302.83L389.489 297.863L389.489 297.863L394.868 302.83ZM430.012 288.398L430.563 281.097L430.563 281.097L430.012 288.398ZM448.231 295.54L453.079 290.052L453.079 290.052L448.231 295.54ZM457.149 310.04L464.151 307.898L464.151 307.898L457.149 310.04ZM457.486 341.083L450.362 339.393L450.359 339.405L457.486 341.083ZM457.416 341.38L464.057 344.464L464.372 343.785L464.543 343.057L457.416 341.38ZM457.287 341.656L450.647 338.572L450.644 338.578L457.287 341.656ZM406.974 386.836L404.482 379.951L398.632 382.069L399.777 388.183L406.974 386.836ZM414.753 428.39L421.95 427.042L421.95 427.042L414.753 428.39ZM334.292 542.742L335.454 549.971L335.454 549.971L334.292 542.742ZM272.48 552.681L273.643 559.91L273.643 559.91L272.48 552.681ZM160.878 473.464L168.086 472.176L168.086 472.176L160.878 473.464ZM155.254 441.996L162.462 440.708L161.277 434.077L154.571 434.706L155.254 441.996ZM115.37 439.104L113.417 446.16L113.417 446.16L115.37 439.104ZM83.2471 407.698L75.9977 408.727L75.9977 408.727L83.2471 407.698ZM84.534 375.256L77.735 372.538L77.7349 372.538L84.534 375.256ZM92.4638 365.297L87.6761 359.757L87.676 359.757L92.4638 365.297ZM150.989 371.024L155.585 365.324L155.585 365.324L150.989 371.024ZM164.044 375.343L163.134 382.609L163.134 382.609L164.044 375.343ZM186.665 375.493L187.19 382.797V382.797L186.665 375.493ZM249.674 365.176L251.266 372.323V372.323L249.674 365.176ZM380.623 328.023L382.964 334.961L386.555 333.749L387.639 330.117L380.623 328.023ZM394.868 302.83L400.248 307.797C407.235 300.23 416.787 294.743 429.461 295.699L430.012 288.398L430.563 281.097C412.373 279.725 398.709 287.878 389.489 297.863L394.868 302.83ZM430.012 288.398L429.461 295.699C435.782 296.176 440.216 298.228 443.384 301.027L448.231 295.54L453.079 290.052C447.257 284.908 439.7 281.786 430.563 281.097L430.012 288.398ZM448.231 295.54L443.384 301.027C446.592 303.862 448.78 307.711 450.148 312.182L457.149 310.04L464.151 307.898C462.208 301.548 458.804 295.11 453.079 290.052L448.231 295.54ZM457.149 310.04L450.148 312.182C452.921 321.247 452.087 332.119 450.362 339.393L457.486 341.083L464.61 342.773C466.69 334.004 467.946 320.302 464.151 307.898L457.149 310.04ZM457.486 341.083L450.359 339.405L450.289 339.702L457.416 341.38L464.543 343.057L464.613 342.76L457.486 341.083ZM457.416 341.38L450.775 338.295L450.647 338.572L457.287 341.656L463.928 344.741L464.057 344.464L457.416 341.38ZM457.287 341.656L450.644 338.578C445.905 348.806 430.201 370.64 404.482 379.951L406.974 386.836L409.466 393.721C439.866 382.715 458.063 357.397 463.931 344.735L457.287 341.656ZM406.974 386.836L399.777 388.183L407.556 429.737L414.753 428.39L421.95 427.042L414.171 385.489L406.974 386.836ZM414.753 428.39L407.556 429.737C416.9 479.65 383.266 527.451 333.129 535.513L334.292 542.742L335.454 549.971C393.721 540.602 432.809 485.05 421.95 427.042L414.753 428.39ZM334.292 542.742L333.129 535.513L271.318 545.451L272.48 552.681L273.643 559.91L335.454 549.971L334.292 542.742ZM272.48 552.681L271.318 545.451C222.681 553.272 176.751 520.67 168.086 472.176L160.878 473.464L153.67 474.752C163.74 531.11 217.119 568.998 273.643 559.91L272.48 552.681ZM160.878 473.464L168.086 472.176L162.462 440.708L155.254 441.996L148.047 443.284L153.67 474.752L160.878 473.464ZM155.254 441.996L154.571 434.706C143.829 435.713 129.665 435.462 117.322 432.047L115.37 439.104L113.417 446.16C128.029 450.204 144.105 450.395 155.938 449.286L155.254 441.996ZM115.37 439.104L117.322 432.047C103.088 428.108 92.4427 420.39 90.4965 406.67L83.2471 407.698L75.9977 408.727C79.1441 430.908 96.7666 441.553 113.417 446.16L115.37 439.104ZM83.2471 407.698L90.4965 406.67C88.2456 390.801 89.533 382.477 91.3331 377.973L84.534 375.256L77.7349 372.538C74.5729 380.45 73.5848 391.716 75.9977 408.727L83.2471 407.698ZM84.534 375.256L91.333 377.973C92.2137 375.77 93.2796 374.378 94.18 373.445C94.6468 372.961 95.1105 372.557 95.5778 372.179C95.8245 371.979 96.0465 371.807 96.3224 371.591C96.5558 371.409 96.9142 371.129 97.2516 370.837L92.4638 365.297L87.676 359.757C87.8543 359.603 85.3525 361.502 83.6388 363.279C81.5703 365.424 79.3937 368.388 77.735 372.538L84.534 375.256ZM92.4638 365.297L97.2515 370.837C103.392 365.53 122.695 357.617 146.393 376.724L150.989 371.024L155.585 365.324C126.119 341.567 98.919 350.041 87.6761 359.757L92.4638 365.297ZM150.989 371.024L146.393 376.724C150.499 380.034 156.441 381.771 163.134 382.609L164.044 375.343L164.953 368.078C159.186 367.356 156.513 366.073 155.585 365.324L150.989 371.024ZM164.044 375.343L163.134 382.609C169.942 383.461 178.112 383.45 187.19 382.797L186.665 375.493L186.139 368.19C177.565 368.807 170.445 368.766 164.953 368.078L164.044 375.343ZM186.665 375.493L187.19 382.797C205.359 381.489 227.732 377.567 251.266 372.323L249.674 365.176L248.081 358.03C224.829 363.211 203.26 366.958 186.139 368.19L186.665 375.493ZM249.674 365.176L251.266 372.323C297.669 361.984 349.128 346.38 382.964 334.961L380.623 328.023L378.281 321.086C344.753 332.401 293.818 347.839 248.081 358.03L249.674 365.176ZM380.623 328.023L387.639 330.117C389.551 323.711 393.685 314.905 400.248 307.797L394.868 302.83L389.489 297.863C381.098 306.95 376.01 317.874 373.606 325.93L380.623 328.023Z" fill="#FCE9B8" mask="url(#path-40-inside-4_1617_326)"/>
<path d="M375.154 66.1768C394.977 62.9894 413.646 76.5107 416.842 96.3892C418.428 106.253 415.601 113.847 410.036 119.43C404.385 125.097 395.737 128.855 385.497 130.502C375.256 132.149 365.866 131.291 358.724 127.68C351.689 124.124 346.624 117.798 345.038 107.935C341.842 88.0561 355.331 69.3644 375.154 66.1768Z" fill="#FFFBE8" stroke="#FCE9B8" stroke-width="4.54542"/>
<path d="M61.7325 121.176C41.9091 124.364 28.4204 143.055 31.6164 162.934C33.2024 172.797 38.2673 179.123 45.3026 182.68C52.4446 186.29 61.8348 187.148 72.0754 185.501C82.316 183.855 90.964 180.097 96.6142 174.429C102.18 168.847 105.007 161.252 103.421 151.389C100.224 131.51 81.5559 117.989 61.7325 121.176Z" fill="#FFFBE8" stroke="#FCE9B8" stroke-width="4.54542"/>
<path d="M124.508 120.29C74.0942 119.802 65.4294 156.901 67.3986 175.511C31.5293 192.941 39.3224 228.365 47.7026 243.898C44.1408 242.425 29.7514 246.785 30.9954 268.836C32.3458 292.774 53.4588 297.195 67.7014 296.695C51.3977 325.098 78.4254 337.94 93.9771 340.81C98.9802 371.926 136.196 377.503 154.178 376.401C176.224 406.618 210.584 393.164 225.009 382.66C269.654 415.995 307.615 384.213 321.015 364.155C366.834 366.609 379.862 338.835 380.649 324.641C449.729 319.058 442.599 286.802 430.399 271.371C463.201 250.137 447.911 229.167 436.165 221.337C476.04 183.006 439.5 160.951 416.246 154.716C417.653 117.659 390.322 114.38 376.48 117.373C379.406 93.5769 357.859 92.2331 346.72 94.5357C342.444 75.5803 320.397 80.3529 309.908 85.1086C290.277 50.8209 260.509 62.6152 248.08 72.7983C209.012 39.7943 182.436 66.9841 174.031 84.7045C134.314 78.2001 124.466 105.718 124.508 120.29Z" fill="#FAB2CD" stroke="#FD83C1" stroke-width="4.54542"/>
<path d="M223.641 121.231C306.443 107.917 377.108 159.455 387.574 224.546C392.787 256.966 381.084 286.194 357.669 309.071C334.214 331.988 298.999 348.512 257.424 355.197C215.747 361.898 180.318 358.991 154.088 346.399C127.979 333.866 110.772 311.647 105.539 279.102C95.031 213.746 141.109 134.501 223.641 121.231Z" fill="#FFFBE8" stroke="#FCE9B8" stroke-width="4.54542"/>
<path d="M304.128 248.083C304.128 248.083 314.54 256.713 315.498 262.666C316.289 267.591 312.989 272.228 308.136 273.009C303.283 273.789 298.695 270.42 297.903 265.495C296.946 259.542 304.128 248.083 304.128 248.083Z" fill="#41C3D7"/>
<path d="M183.194 267.528C183.194 267.528 193.606 276.158 194.563 282.111C195.355 287.036 192.054 291.673 187.201 292.454C182.348 293.234 177.761 289.865 176.969 284.94C176.012 278.987 183.194 267.528 183.194 267.528Z" fill="#41C3D7"/>
<path d="M352.621 236.219L377.33 227.642M352.489 259.259L379.603 265.642" stroke="#F1C67E" stroke-width="15.1514" stroke-linecap="round"/>
<path d="M143.86 283.597L117.707 283.198M151.207 305.435L128.208 319.875" stroke="#F1C67E" stroke-width="15.1514" stroke-linecap="round"/>
<path d="M222.479 128.324L233.904 199.38M186.058 159.501L265.342 146.753M194.875 185.706L265.931 174.281" stroke="#F1C67E" stroke-width="15.1514" stroke-linecap="round"/>
<path d="M210.137 108.824L228.074 86.7571" stroke="#E96F91" stroke-width="12.1211" stroke-linecap="round"/>
<path d="M242.084 97.5483L269.011 93.2188" stroke="#F1E488" stroke-width="12.1211" stroke-linecap="round"/>
<path d="M164.201 104.7L192.65 95.5223" stroke="#FDFCFF" stroke-width="12.1211" stroke-linecap="round"/>
<path d="M142.072 119.768L161.309 131.312" stroke="#F7DF83" stroke-width="12.1211" stroke-linecap="round"/>
<path d="M347.623 23.7989L278.614 90.9077L375.239 138.29C370.954 103.683 361.92 32.5491 360.071 24.8666C358.222 17.184 351.002 20.9537 347.623 23.7989Z" fill="#F4F1A4" stroke="#F8E26A" stroke-width="4.54542" stroke-linecap="round"/>
<path d="M329.085 42.1256L366.34 82.9407M296.513 97.2374L362.01 56.014M316.024 61.1063L373.676 128.566M297.873 77.0688L331.535 114.625L367.088 82.8204" stroke="#F8E26A" stroke-width="3.03028" stroke-linecap="round"/>
<path d="M264.325 107.017C271.937 97.0966 290.189 83.6754 302.298 109.351C313.036 104.556 335.75 100.75 340.699 123.894C353.423 120.314 377.71 120.245 373.064 148.615" stroke="#FD83C1" stroke-width="4.54542"/>
<path d="M302.449 110.297C290.341 84.621 272.088 98.0422 264.476 107.962L373.215 149.56C377.861 121.19 353.575 121.259 340.85 124.84C335.901 101.696 313.187 105.501 302.449 110.297Z" fill="#FAB2CD"/>
<mask id="path-59-inside-5_1617_326" fill="white">
<path d="M265.633 258.895C280.082 256.572 293.679 266.402 296.002 280.852C298.326 295.301 288.496 308.898 274.046 311.221C265.385 312.614 257.031 309.638 251.226 303.919C247.507 311.169 240.507 316.614 231.846 318.007C217.397 320.33 203.8 310.5 201.476 296.05C199.153 281.601 208.983 268.004 223.433 265.681C232.094 264.288 240.448 267.263 246.252 272.982C249.971 265.732 256.971 260.288 265.633 258.895Z"/>
</mask>
<path d="M265.633 258.895C280.082 256.572 293.679 266.402 296.002 280.852C298.326 295.301 288.496 308.898 274.046 311.221C265.385 312.614 257.031 309.638 251.226 303.919C247.507 311.169 240.507 316.614 231.846 318.007C217.397 320.33 203.8 310.5 201.476 296.05C199.153 281.601 208.983 268.004 223.433 265.681C232.094 264.288 240.448 267.263 246.252 272.982C249.971 265.732 256.971 260.288 265.633 258.895Z" fill="#FDFFFB"/>
<path d="M265.633 258.895L265.059 255.328V255.328L265.633 258.895ZM296.002 280.852L299.569 280.278L299.569 280.278L296.002 280.852ZM274.046 311.221L274.62 314.788V314.788L274.046 311.221ZM251.226 303.919L253.762 301.346L250.258 297.893L248.012 302.27L251.226 303.919ZM231.846 318.007L232.419 321.574L232.42 321.574L231.846 318.007ZM201.476 296.05L197.909 296.624L197.909 296.624L201.476 296.05ZM223.433 265.681L222.859 262.114L222.859 262.114L223.433 265.681ZM246.252 272.982L243.717 275.555L247.221 279.008L249.466 274.631L246.252 272.982ZM265.633 258.895L266.206 262.462C278.686 260.456 290.429 268.946 292.435 281.425L296.002 280.852L299.569 280.278C296.929 263.859 281.479 252.688 265.059 255.328L265.633 258.895ZM296.002 280.852L292.435 281.425C294.442 293.904 285.952 305.648 273.473 307.654L274.046 311.221L274.62 314.788C291.039 312.148 302.209 296.697 299.569 280.278L296.002 280.852ZM274.046 311.221L273.473 307.654C265.995 308.857 258.783 306.293 253.762 301.346L251.226 303.919L248.691 306.493C255.279 312.983 264.774 316.371 274.62 314.788L274.046 311.221ZM251.226 303.919L248.012 302.27C244.795 308.542 238.75 313.237 231.272 314.44L231.846 318.007L232.42 321.574C242.265 319.991 250.22 313.797 254.441 305.568L251.226 303.919ZM231.846 318.007L231.273 314.44C218.793 316.446 207.05 307.956 205.043 295.477L201.476 296.05L197.909 296.624C200.549 313.043 216 324.213 232.419 321.574L231.846 318.007ZM201.476 296.05L205.043 295.477C203.037 282.998 211.527 271.254 224.006 269.248L223.433 265.681L222.859 262.114C206.44 264.754 195.269 280.205 197.909 296.624L201.476 296.05ZM223.433 265.681L224.006 269.248C231.483 268.045 238.696 270.609 243.717 275.555L246.252 272.982L248.788 270.408C242.2 263.918 232.704 260.531 222.859 262.114L223.433 265.681ZM246.252 272.982L249.466 274.631C252.684 268.36 258.729 263.665 266.206 262.462L265.633 258.895L265.059 255.328C255.214 256.911 247.259 263.104 243.038 271.333L246.252 272.982Z" fill="#FAD699" mask="url(#path-59-inside-5_1617_326)"/>
<path d="M262.229 266.444C263.358 273.466 255.374 281.357 247.938 282.553C240.503 283.748 230.447 278.758 229.318 271.735C226.766 260.636 236.414 258.318 243.849 257.122C251.285 255.927 261.052 254.356 262.229 266.444Z" fill="#5E3916"/>
<path d="M227.325 530.277C244.159 527.571 258.923 527.042 269.958 528.812C281.07 530.595 287.495 534.536 289.43 539.919C290.405 545.923 291.692 551.837 286.211 557.809C280.361 564.184 266.476 570.951 234.686 576.062C202.897 581.174 187.59 579.101 180.036 574.881C172.951 570.923 172.326 564.893 171.368 558.879C171.429 552.568 176.309 546.819 186.28 541.813C196.221 536.821 210.453 532.99 227.325 530.277Z" fill="#FFFBE8" stroke="#FCE9B8" stroke-width="4.88133"/>
<path d="M211.104 560.078L213.623 575.741" stroke="#FCE9B8" stroke-width="4.88133" stroke-linecap="round"/>
<path d="M229.177 557.172L231.695 572.836" stroke="#FCE9B8" stroke-width="4.88133" stroke-linecap="round"/>
<path d="M246.046 554.46L248.564 570.123" stroke="#FCE9B8" stroke-width="4.88133" stroke-linecap="round"/>
<path d="M367.089 507.804C383.923 505.097 398.688 504.568 409.723 506.338C420.835 508.121 427.259 512.063 429.195 517.446C430.17 523.449 431.456 529.363 425.975 535.336C420.125 541.71 406.241 548.477 374.451 553.589C342.661 558.7 327.354 556.627 319.801 552.408C312.715 548.449 312.09 542.419 311.132 536.405C311.194 530.094 316.074 524.345 326.045 519.339C335.986 514.348 350.218 510.516 367.089 507.804Z" fill="#FFFBE8" stroke="#FCE9B8" stroke-width="4.88133"/>
<path d="M350.867 537.604L353.386 553.268" stroke="#FCE9B8" stroke-width="4.88133" stroke-linecap="round"/>
<path d="M368.942 534.698L371.461 550.361" stroke="#FCE9B8" stroke-width="4.88133" stroke-linecap="round"/>
<path d="M385.81 531.986L388.328 547.649" stroke="#FCE9B8" stroke-width="4.88133" stroke-linecap="round"/>
<ellipse cx="284.528" cy="455.571" rx="54.915" ry="45.1523" transform="rotate(-9.1344 284.528 455.571)" fill="#FCE9B8"/>
<path d="M280.06 229.262C280.06 229.262 283.165 238.558 295.084 236.166C307.002 233.773 306.28 224 306.28 224" stroke="#5E3916" stroke-width="4.86239" stroke-linecap="round"/>
<path d="M169 251.554C169 251.554 172.106 260.849 184.024 258.457C195.942 256.065 195.221 246.291 195.221 246.291" stroke="#5E3916" stroke-width="4.86239" stroke-linecap="round"/>
</svg>
