<svg width="247" height="180" viewBox="0 0 247 180" fill="none" xmlns="http://www.w3.org/2000/svg">
<g clip-path="url(#clip0_1002_1069)">
<path d="M117.737 254.492C86.24 253.442 71.6581 224.307 68.3043 209.871C28.7584 224.22 9.53957 194.56 4.87341 177.937C-2.12588 155.539 12.1643 133.317 20.1842 125.005C-5.36313 95.958 6.91477 68.8649 16.2472 58.9492C28.8459 35.8516 60.2843 38.2431 74.4287 42.326C81.7196 28.0358 103.826 0.680311 133.923 5.57981C164.019 10.4793 174.752 34.7435 176.356 46.2632C205.053 37.5141 227.101 55.7414 234.537 65.9487C256.235 101.295 235.121 125.005 221.851 132.442C237.599 147.84 236.87 165.105 234.537 171.813C226.838 207.159 191.667 209.58 175.043 206.372C161.045 247.668 131.006 255.658 117.737 254.492Z" fill="#FF8F57" stroke="#F15B2C" stroke-width="2.62473" stroke-linecap="round"/>
<mask id="path-2-inside-1_1002_1069" fill="white">
<path fill-rule="evenodd" clip-rule="evenodd" d="M63.4931 52.8247C71.8135 52.8247 78.9282 57.9866 81.8095 65.2827C94.9279 58.6336 110.134 55.0842 126.673 56.1177C142.875 57.1301 157.52 61.8185 169.915 69.0415C173.345 63.2616 179.647 59.3863 186.855 59.3862C197.727 59.3862 206.541 68.2 206.541 79.0718C206.541 85.6845 203.279 91.5343 198.278 95.104C207.786 108.887 212.723 124.978 211.715 141.118C209.151 182.152 166.941 205.961 115.195 202.727C63.4494 199.494 31.1086 176.586 33.6728 135.551C34.6989 119.133 41.5085 102.62 52.623 88.9224C47.3109 85.397 43.8076 79.3634 43.8076 72.5103C43.8076 61.6383 52.6212 52.8247 63.4931 52.8247Z"/>
</mask>
<path fill-rule="evenodd" clip-rule="evenodd" d="M63.4931 52.8247C71.8135 52.8247 78.9282 57.9866 81.8095 65.2827C94.9279 58.6336 110.134 55.0842 126.673 56.1177C142.875 57.1301 157.52 61.8185 169.915 69.0415C173.345 63.2616 179.647 59.3863 186.855 59.3862C197.727 59.3862 206.541 68.2 206.541 79.0718C206.541 85.6845 203.279 91.5343 198.278 95.104C207.786 108.887 212.723 124.978 211.715 141.118C209.151 182.152 166.941 205.961 115.195 202.727C63.4494 199.494 31.1086 176.586 33.6728 135.551C34.6989 119.133 41.5085 102.62 52.623 88.9224C47.3109 85.397 43.8076 79.3634 43.8076 72.5103C43.8076 61.6383 52.6212 52.8247 63.4931 52.8247Z" fill="#FECE6D"/>
<path d="M63.4931 52.8247V50.2H63.4931L63.4931 52.8247ZM81.8095 65.2827L79.3683 66.2468L80.4265 68.9264L82.9962 67.6239L81.8095 65.2827ZM126.673 56.1177L126.837 53.4981L126.837 53.4981L126.673 56.1177ZM169.915 69.0415L168.594 71.3093L170.843 72.6204L172.172 70.3809L169.915 69.0415ZM186.855 59.3862V56.7615H186.855L186.855 59.3862ZM206.541 79.0718H209.166V79.0717L206.541 79.0718ZM198.278 95.104L196.753 92.9677L194.651 94.4683L196.118 96.5945L198.278 95.104ZM211.715 141.118L214.334 141.281V141.281L211.715 141.118ZM115.195 202.727L115.032 205.347V205.347L115.195 202.727ZM33.6728 135.551L31.0532 135.388L31.0532 135.388L33.6728 135.551ZM52.623 88.9224L54.6612 90.5762L56.4814 88.3329L54.0744 86.7354L52.623 88.9224ZM43.8076 72.5103H41.1829V72.5103L43.8076 72.5103ZM63.4931 52.8247V55.4494C70.7 55.4494 76.8693 59.9189 79.3683 66.2468L81.8095 65.2827L84.2508 64.3186C80.9871 56.0543 72.927 50.2 63.4931 50.2V52.8247ZM81.8095 65.2827L82.9962 67.6239C95.7144 61.1776 110.456 57.7342 126.509 58.7373L126.673 56.1177L126.837 53.4981C109.812 52.4343 94.1414 56.0896 80.6229 62.9415L81.8095 65.2827ZM126.673 56.1177L126.509 58.7373C142.302 59.7242 156.55 64.2915 168.594 71.3093L169.915 69.0415L171.236 66.7737C158.489 59.3455 143.448 54.5361 126.837 53.4981L126.673 56.1177ZM169.915 69.0415L172.172 70.3809C175.149 65.3645 180.612 62.011 186.855 62.011L186.855 59.3862L186.855 56.7615C178.682 56.7616 171.54 61.1587 167.658 67.7021L169.915 69.0415ZM186.855 59.3862V62.011C196.278 62.011 203.916 69.6495 203.916 79.0718L206.541 79.0718L209.166 79.0717C209.165 66.7504 199.177 56.7615 186.855 56.7615V59.3862ZM206.541 79.0718H203.916C203.916 84.8002 201.094 89.8692 196.753 92.9677L198.278 95.104L199.803 97.2403C205.464 93.1995 209.166 86.5687 209.166 79.0718H206.541ZM198.278 95.104L196.118 96.5945C205.328 109.946 210.063 125.463 209.095 140.954L211.715 141.118L214.334 141.281C215.383 124.494 210.245 107.828 200.439 93.6136L198.278 95.104ZM211.715 141.118L209.095 140.954C207.874 160.498 197.247 175.99 180.522 186.288C163.741 196.62 140.82 201.698 115.359 200.107L115.195 202.727L115.032 205.347C141.316 206.989 165.373 201.78 183.274 190.758C201.231 179.701 212.992 162.772 214.334 141.281L211.715 141.118ZM115.195 202.727L115.359 200.107C89.7799 198.509 69.3538 192.061 55.6963 181.256C42.1618 170.548 35.062 155.405 36.2924 135.715L33.6728 135.551L31.0532 135.388C29.7194 156.732 37.5079 173.56 52.4392 185.373C67.2475 197.089 88.8647 203.712 115.032 205.347L115.195 202.727ZM33.6728 135.551L36.2924 135.715C37.281 119.897 43.8545 103.894 54.6612 90.5762L52.623 88.9224L50.5848 87.2686C39.1625 101.345 32.1167 118.37 31.0532 135.388L33.6728 135.551ZM52.623 88.9224L54.0744 86.7354C49.4634 83.6753 46.4324 78.4465 46.4323 72.5102L43.8076 72.5103L41.1829 72.5103C41.1829 80.2804 45.1584 87.1186 51.1716 91.1093L52.623 88.9224ZM43.8076 72.5103H46.4323C46.4323 63.0879 54.0707 55.4494 63.4931 55.4494L63.4931 52.8247L63.4931 50.2C51.1716 50.2 41.1829 60.1887 41.1829 72.5103H43.8076Z" fill="#F59313" mask="url(#path-2-inside-1_1002_1069)"/>
<path d="M145.692 127.548C145.692 127.548 146.403 121.86 153.514 121.86C160.624 121.86 161.335 127.548 161.335 127.548" stroke="#5E3916" stroke-width="2.84419" stroke-linecap="round"/>
<path d="M106.363 108.382C111.321 111.881 122.374 116.781 126.923 108.382C128.582 105.32 130.423 99.1492 122.986 98.7577C120.216 98.6119 115.024 99.7201 116.424 105.32C118.612 110.569 125.786 117.743 138.734 109.694" stroke="#603C1F" stroke-width="2.62473" stroke-linecap="round"/>
<ellipse cx="168.92" cy="138.566" rx="10.4989" ry="7.43674" fill="#F78F8B"/>
<ellipse cx="76.1796" cy="134.192" rx="10.4989" ry="7.43674" fill="#F78F8B"/>
<mask id="path-8-inside-2_1002_1069" fill="white">
<path fill-rule="evenodd" clip-rule="evenodd" d="M179.348 182.407C186.489 174.059 195.153 166.564 207.305 169.79C211.373 170.87 214.383 173 216.494 175.892C218.568 178.734 219.671 182.171 220.225 185.751C221.32 192.823 220.364 201.233 219.683 208.361C218.694 218.733 213.456 227.413 207.515 234.392C201.969 240.907 195.608 246.163 191.261 249.958V267.094H191.205V294.074C191.205 321.249 169.175 343.278 142.001 343.278H100.177C73.0022 343.278 50.9727 321.249 50.9725 294.074V263.321H51.2098V249.959C46.862 246.164 40.5004 240.908 34.9539 234.392C29.0137 227.413 23.7757 218.732 22.7859 208.361C22.1057 201.233 21.1491 192.823 22.2439 185.751C22.7983 182.171 23.9023 178.734 25.9764 175.892C28.0871 173 31.0969 170.87 35.1639 169.79C47.3168 166.563 55.9802 174.059 63.1209 182.407C67.3406 187.341 68.4034 193.455 68.9412 198.663C69.226 201.422 69.3456 203.672 69.6404 205.903C69.9203 208.022 70.3098 209.603 70.9178 210.739C70.9213 210.742 70.9253 210.746 70.9295 210.75C70.9975 210.81 71.1383 210.922 71.3885 211.072C71.8714 211.363 72.5916 211.703 73.5789 212.075C75.5487 212.819 78.304 213.59 81.7146 214.361C88.5177 215.9 97.6405 217.373 107.661 218.624C112.063 219.174 116.629 219.673 121.234 220.122C125.84 219.673 130.406 219.174 134.808 218.624C144.829 217.373 153.952 215.9 160.755 214.361C164.165 213.59 166.921 212.818 168.89 212.075C169.877 211.703 170.598 211.363 171.081 211.072C171.331 210.922 171.472 210.81 171.54 210.75C171.544 210.746 171.547 210.742 171.551 210.739C172.159 209.603 172.549 208.022 172.829 205.903C173.124 203.672 173.243 201.422 173.528 198.663C174.066 193.455 175.129 187.341 179.348 182.407Z"/>
</mask>
<path fill-rule="evenodd" clip-rule="evenodd" d="M179.348 182.407C186.489 174.059 195.153 166.564 207.305 169.79C211.373 170.87 214.383 173 216.494 175.892C218.568 178.734 219.671 182.171 220.225 185.751C221.32 192.823 220.364 201.233 219.683 208.361C218.694 218.733 213.456 227.413 207.515 234.392C201.969 240.907 195.608 246.163 191.261 249.958V267.094H191.205V294.074C191.205 321.249 169.175 343.278 142.001 343.278H100.177C73.0022 343.278 50.9727 321.249 50.9725 294.074V263.321H51.2098V249.959C46.862 246.164 40.5004 240.908 34.9539 234.392C29.0137 227.413 23.7757 218.732 22.7859 208.361C22.1057 201.233 21.1491 192.823 22.2439 185.751C22.7983 182.171 23.9023 178.734 25.9764 175.892C28.0871 173 31.0969 170.87 35.1639 169.79C47.3168 166.563 55.9802 174.059 63.1209 182.407C67.3406 187.341 68.4034 193.455 68.9412 198.663C69.226 201.422 69.3456 203.672 69.6404 205.903C69.9203 208.022 70.3098 209.603 70.9178 210.739C70.9213 210.742 70.9253 210.746 70.9295 210.75C70.9975 210.81 71.1383 210.922 71.3885 211.072C71.8714 211.363 72.5916 211.703 73.5789 212.075C75.5487 212.819 78.304 213.59 81.7146 214.361C88.5177 215.9 97.6405 217.373 107.661 218.624C112.063 219.174 116.629 219.673 121.234 220.122C125.84 219.673 130.406 219.174 134.808 218.624C144.829 217.373 153.952 215.9 160.755 214.361C164.165 213.59 166.921 212.818 168.89 212.075C169.877 211.703 170.598 211.363 171.081 211.072C171.331 210.922 171.472 210.81 171.54 210.75C171.544 210.746 171.547 210.742 171.551 210.739C172.159 209.603 172.549 208.022 172.829 205.903C173.124 203.672 173.243 201.422 173.528 198.663C174.066 193.455 175.129 187.341 179.348 182.407Z" fill="#FECE6D"/>
<path d="M179.348 182.407L177.357 180.704L177.357 180.704L179.348 182.407ZM207.305 169.79L207.978 167.258L207.978 167.258L207.305 169.79ZM216.494 175.892L218.61 174.347L218.61 174.347L216.494 175.892ZM220.225 185.751L222.815 185.35V185.35L220.225 185.751ZM219.683 208.361L222.292 208.61V208.61L219.683 208.361ZM207.515 234.392L209.511 236.09L209.511 236.09L207.515 234.392ZM191.261 249.958L189.538 247.984L188.64 248.767V249.958H191.261ZM191.261 267.094V269.714H193.881V267.094H191.261ZM191.205 267.094V264.474H188.585V267.094H191.205ZM191.205 294.074L193.825 294.074V294.074H191.205ZM142.001 343.278V345.898H142.001L142.001 343.278ZM100.177 343.278L100.177 345.898H100.177V343.278ZM50.9725 294.074H48.3523V294.074L50.9725 294.074ZM50.9725 263.321V260.701H48.3523V263.321H50.9725ZM51.2098 263.321V265.941H53.8299V263.321H51.2098ZM51.2098 249.959H53.8299V248.768L52.9327 247.985L51.2098 249.959ZM34.9539 234.392L32.9587 236.09L32.9587 236.09L34.9539 234.392ZM22.7859 208.361L20.1777 208.61L20.1777 208.61L22.7859 208.361ZM22.2439 185.751L19.6547 185.35L19.6547 185.35L22.2439 185.751ZM25.9764 175.892L23.8599 174.347L23.8599 174.347L25.9764 175.892ZM35.1639 169.79L34.4914 167.258L34.4913 167.258L35.1639 169.79ZM63.1209 182.407L65.1121 180.704L65.112 180.704L63.1209 182.407ZM68.9412 198.663L71.5475 198.394L71.5475 198.394L68.9412 198.663ZM69.6404 205.903L67.0429 206.246L67.0429 206.247L69.6404 205.903ZM70.9178 210.739L68.6075 211.975L68.819 212.371L69.1499 212.673L70.9178 210.739ZM70.9295 210.75L69.1881 212.708L69.1913 212.711L70.9295 210.75ZM71.3885 211.072L70.0366 213.317L70.037 213.317L71.3885 211.072ZM73.5789 212.075L72.6539 214.527L72.6539 214.527L73.5789 212.075ZM81.7146 214.361L81.1367 216.917H81.1367L81.7146 214.361ZM107.661 218.624L107.336 221.224L107.336 221.224L107.661 218.624ZM121.234 220.122L120.98 222.73L121.234 222.755L121.488 222.73L121.234 220.122ZM134.808 218.624L135.133 221.224H135.133L134.808 218.624ZM160.755 214.361L161.333 216.917L161.333 216.917L160.755 214.361ZM168.89 212.075L169.815 214.527L169.815 214.527L168.89 212.075ZM171.081 211.072L172.432 213.317L172.432 213.317L171.081 211.072ZM171.54 210.75L173.278 212.711L173.278 212.71L171.54 210.75ZM171.551 210.739L173.325 212.667L173.651 212.367L173.861 211.976L171.551 210.739ZM172.829 205.903L175.426 206.247L175.426 206.246L172.829 205.903ZM173.528 198.663L170.922 198.394V198.394L173.528 198.663ZM179.348 182.407L181.34 184.11C188.445 175.803 196.121 169.531 206.633 172.322L207.305 169.79L207.978 167.258C194.185 163.596 184.533 172.314 177.357 180.704L179.348 182.407ZM207.305 169.79L206.633 172.322C210.143 173.255 212.635 175.048 214.378 177.436L216.494 175.892L218.61 174.347C216.132 170.951 212.602 168.486 207.978 167.258L207.305 169.79ZM216.494 175.892L214.377 177.436C216.121 179.826 217.12 182.818 217.636 186.152L220.225 185.751L222.815 185.35C222.222 181.524 221.015 177.642 218.61 174.347L216.494 175.892ZM220.225 185.751L217.636 186.152C218.669 192.823 217.769 200.845 217.075 208.112L219.683 208.361L222.292 208.61C222.959 201.621 223.972 192.823 222.815 185.35L220.225 185.751ZM219.683 208.361L217.075 208.112C216.156 217.738 211.282 225.925 205.52 232.693L207.515 234.392L209.511 236.09C215.63 228.901 221.231 219.727 222.292 208.61L219.683 208.361ZM207.515 234.392L205.52 232.693C200.131 239.024 193.953 244.13 189.538 247.984L191.261 249.958L192.983 251.932C197.263 248.196 203.807 242.79 209.511 236.09L207.515 234.392ZM191.261 249.958H188.64V267.094H191.261H193.881V249.958H191.261ZM191.261 267.094V264.474H191.205V267.094V269.714H191.261V267.094ZM191.205 267.094H188.585V294.074H191.205H193.825V267.094H191.205ZM191.205 294.074L188.585 294.074C188.585 319.802 167.728 340.658 142.001 340.658L142.001 343.278L142.001 345.898C170.622 345.898 193.825 322.696 193.825 294.074L191.205 294.074ZM142.001 343.278V340.658H100.177V343.278V345.898H142.001V343.278ZM100.177 343.278L100.177 340.658C74.4493 340.658 53.5928 319.802 53.5926 294.074L50.9725 294.074L48.3523 294.074C48.3525 322.696 71.5552 345.898 100.177 345.898L100.177 343.278ZM50.9725 294.074H53.5926V263.321H50.9725H48.3523V294.074H50.9725ZM50.9725 263.321V265.941H51.2098V263.321V260.701H50.9725V263.321ZM51.2098 263.321H53.8299V249.959H51.2098H48.5896V263.321H51.2098ZM51.2098 249.959L52.9327 247.985C48.517 244.131 42.3385 239.025 36.9491 232.693L34.9539 234.392L32.9587 236.09C38.6623 242.79 45.207 248.197 49.4868 251.933L51.2098 249.959ZM34.9539 234.392L36.9491 232.693C31.1879 225.925 26.3128 217.738 25.3942 208.112L22.7859 208.361L20.1777 208.61C21.2386 219.727 26.8396 228.901 32.9587 236.09L34.9539 234.392ZM22.7859 208.361L25.3942 208.112C24.7007 200.845 23.8004 192.823 24.8332 186.152L22.2439 185.751L19.6547 185.35C18.4978 192.823 19.5107 201.621 20.1777 208.61L22.7859 208.361ZM22.2439 185.751L24.8332 186.152C25.3493 182.818 26.3488 179.826 28.0929 177.436L25.9764 175.892L23.8599 174.347C21.4559 177.641 20.2472 181.523 19.6547 185.35L22.2439 185.751ZM25.9764 175.892L28.0928 177.436C29.8358 175.048 32.3267 173.254 35.8364 172.322L35.1639 169.79L34.4913 167.258C29.867 168.486 26.3383 170.951 23.8599 174.347L25.9764 175.892ZM35.1639 169.79L35.8363 172.322C46.3487 169.531 54.0244 175.803 61.1297 184.11L63.1209 182.407L65.112 180.704C57.936 172.314 48.2848 163.595 34.4914 167.258L35.1639 169.79ZM63.1209 182.407L61.1297 184.11C64.7936 188.394 65.8049 193.799 66.3349 198.932L68.9412 198.663L71.5475 198.394C71.0019 193.111 69.8876 186.288 65.1121 180.704L63.1209 182.407ZM68.9412 198.663L66.3349 198.932C66.599 201.49 66.7461 204 67.0429 206.246L69.6404 205.903L72.238 205.56C71.9451 203.343 71.853 201.354 71.5475 198.394L68.9412 198.663ZM69.6404 205.903L67.0429 206.247C67.3333 208.444 67.7702 210.41 68.6075 211.975L70.9178 210.739L73.228 209.503C72.8494 208.796 72.5073 207.599 72.238 205.56L69.6404 205.903ZM70.9178 210.739L69.1499 212.673C69.1446 212.668 69.1408 212.665 69.1406 212.665C69.1404 212.664 69.1402 212.664 69.1411 212.665C69.1418 212.666 69.1431 212.667 69.1448 212.668C69.1505 212.674 69.1671 212.689 69.1881 212.708L70.9295 210.75L72.6709 208.792C72.6797 208.8 72.687 208.807 72.692 208.811C72.697 208.816 72.7007 208.819 72.702 208.821C72.7026 208.821 72.703 208.821 72.7027 208.821C72.7026 208.821 72.7026 208.821 72.7024 208.821C72.7023 208.821 72.7021 208.821 72.702 208.82C72.7016 208.82 72.7011 208.82 72.7004 208.819C72.6983 208.817 72.6927 208.812 72.6856 208.805L70.9178 210.739ZM70.9295 210.75L69.1913 212.711C69.3988 212.895 69.6738 213.098 70.0366 213.317L71.3885 211.072L72.7403 208.828C72.673 208.787 72.6368 208.762 72.6256 208.754C72.6137 208.745 72.6303 208.756 72.6677 208.79L70.9295 210.75ZM71.3885 211.072L70.037 213.317C70.7072 213.721 71.5883 214.125 72.6539 214.527L73.5789 212.075L74.5039 209.624C73.595 209.281 73.0357 209.006 72.74 208.828L71.3885 211.072ZM73.5789 212.075L72.6539 214.527C74.788 215.332 77.6771 216.135 81.1367 216.917L81.7146 214.361L82.2926 211.806C78.9308 211.045 76.3095 210.305 74.5039 209.624L73.5789 212.075ZM81.7146 214.361L81.1367 216.917C88.0572 218.482 97.2739 219.968 107.336 221.224L107.661 218.624L107.985 216.024C98.007 214.779 88.9782 213.318 82.2926 211.806L81.7146 214.361ZM107.661 218.624L107.336 221.224C111.765 221.777 116.355 222.279 120.98 222.73L121.234 220.122L121.488 217.514C116.903 217.068 112.361 216.57 107.985 216.024L107.661 218.624ZM121.234 220.122L121.488 222.73C126.114 222.279 130.704 221.777 135.133 221.224L134.808 218.624L134.484 216.024C130.108 216.57 125.566 217.068 120.98 217.514L121.234 220.122ZM134.808 218.624L135.133 221.224C145.195 219.968 154.412 218.482 161.333 216.917L160.755 214.361L160.177 211.806C153.491 213.318 144.462 214.779 134.484 216.024L134.808 218.624ZM160.755 214.361L161.333 216.917C164.792 216.135 167.681 215.332 169.815 214.527L168.89 212.075L167.966 209.624C166.16 210.305 163.538 211.046 160.177 211.806L160.755 214.361ZM168.89 212.075L169.815 214.527C170.881 214.125 171.762 213.72 172.432 213.317L171.081 211.072L169.73 208.827C169.434 209.006 168.874 209.281 167.965 209.624L168.89 212.075ZM171.081 211.072L172.432 213.317C172.796 213.098 173.07 212.895 173.278 212.711L171.54 210.75L169.802 208.789C169.839 208.756 169.855 208.745 169.844 208.754C169.832 208.762 169.796 208.787 169.729 208.828L171.081 211.072ZM171.54 210.75L173.278 212.71C173.329 212.666 173.368 212.627 173.395 212.6C173.421 212.575 173.441 212.554 173.444 212.55C173.445 212.549 173.446 212.548 173.446 212.548C173.446 212.548 173.446 212.548 173.445 212.549C173.445 212.549 173.444 212.55 173.444 212.551C173.441 212.553 173.434 212.56 173.425 212.57C173.416 212.579 173.403 212.592 173.387 212.608C173.371 212.624 173.35 212.644 173.325 212.667L171.551 210.739L169.776 208.812C169.751 208.835 169.729 208.856 169.712 208.873C169.695 208.89 169.681 208.904 169.671 208.914C169.661 208.924 169.653 208.932 169.65 208.936C169.648 208.938 169.647 208.939 169.646 208.94C169.645 208.94 169.646 208.94 169.647 208.939C169.648 208.937 169.653 208.932 169.66 208.925C169.667 208.917 169.678 208.907 169.69 208.894C169.715 208.869 169.753 208.832 169.801 208.79L171.54 210.75ZM171.551 210.739L173.861 211.976C174.698 210.411 175.136 208.446 175.426 206.247L172.829 205.903L170.231 205.56C169.962 207.598 169.619 208.795 169.24 209.503L171.551 210.739ZM172.829 205.903L175.426 206.246C175.723 204 175.87 201.49 176.134 198.932L173.528 198.663L170.922 198.394C170.616 201.354 170.524 203.343 170.231 205.56L172.829 205.903ZM173.528 198.663L176.134 198.932C176.664 193.799 177.676 188.394 181.34 184.11L179.348 182.407L177.357 180.704C172.582 186.288 171.467 193.111 170.922 198.394L173.528 198.663Z" fill="#F59313" mask="url(#path-8-inside-2_1002_1069)"/>
<path d="M132.45 130.058C140.484 130.058 146.996 136.57 146.996 144.604C146.996 152.637 140.484 159.15 132.45 159.15C127.635 159.15 123.367 156.809 120.72 153.204C118.072 156.809 113.805 159.149 108.989 159.149C100.956 159.149 94.4434 152.637 94.4434 144.604C94.4435 136.57 100.956 130.058 108.989 130.058C113.804 130.058 118.072 132.398 120.72 136.002C123.367 132.398 127.635 130.058 132.45 130.058Z" fill="#FDFFFB"/>
<path d="M129.949 133.851C129.949 137.756 124.934 141.337 120.8 141.337C116.666 141.337 111.651 137.756 111.651 133.851C111.235 127.614 116.666 127.198 120.8 127.198C124.934 127.198 130.364 127.198 129.949 133.851Z" fill="#5E3916"/>
<circle cx="92.4997" cy="124.703" r="5.82195" fill="#603C1F"/>
</g>
<defs>
<clipPath id="clip0_1002_1069">
<rect width="247" height="180" fill="white"/>
</clipPath>
</defs>
</svg>
