<svg width="393" height="852" viewBox="0 0 393 852" fill="none" xmlns="http://www.w3.org/2000/svg">
<g clip-path="url(#clip0_1198_405)">
<rect width="393" height="852" fill="#0A0E1A"/>
<rect width="393" height="852" fill="#FAFAFA"/>
<path d="M436.283 666.717C436.283 666.717 353.846 668.142 292.313 610.252C229.768 551.41 188.005 433.322 251.522 395.221C285.691 374.725 321.837 377.552 350.476 414.02C379.019 450.366 376.442 490.404 351.694 521.706C298.711 588.723 171.422 530.988 109.871 453.521C48.195 375.897 19.5133 236.376 97.1795 200.336C133.505 183.479 173.424 188.595 201.292 225.649C228.609 261.971 227.397 303.045 202.511 333.335C149.416 397.961 18.8641 351.072 -35.0138 270.578C-70.1928 218.02 -76.6637 168.755 -55.1918 116.957" stroke="#F4F4F4" stroke-width="34.7526" stroke-linecap="round"/>
<circle cx="196" cy="956" r="273" fill="#ED1C24"/>
</g>
<defs>
<clipPath id="clip0_1198_405">
<rect width="393" height="852" fill="white"/>
</clipPath>
</defs>
</svg>
