<svg width="393" height="852" viewBox="0 0 393 852" fill="none" xmlns="http://www.w3.org/2000/svg">
<g clip-path="url(#clip0_1196_320)">
<rect width="393" height="852" fill="#0A0E1A"/>
<rect width="393" height="852" fill="#ED1C24"/>
<path d="M-41.881 898.898C-41.881 898.898 -82.4016 799.683 -41.2144 697.884C0.649351 594.413 124.078 488.24 200.134 547.271C241.047 579.027 254.631 624.154 223.921 676.016C193.314 727.704 143.589 743.422 94.016 728.167C-12.1185 695.505 -2.06211 514.107 62.837 403.073C127.867 291.815 283.421 191.408 363.638 268.553C401.156 304.634 413.743 355.41 381.959 406.614C350.805 456.804 300.467 474.664 252.054 458.765C148.766 424.843 144.143 244.594 216.321 141.434C263.449 74.0769 320.096 43.0535 392.962 44.695" stroke="#FD3F47" stroke-opacity="0.55" stroke-width="57.0871" stroke-linecap="round"/>
</g>
<defs>
<clipPath id="clip0_1196_320">
<rect width="393" height="852" fill="white"/>
</clipPath>
</defs>
</svg>
