<svg width="545" height="447" viewBox="0 0 545 447" fill="none" xmlns="http://www.w3.org/2000/svg">
<path fill-rule="evenodd" clip-rule="evenodd" d="M310.116 0.268481C305.621 -0.19974 293.811 0.087021 288.781 0.0858637L247.231 0.0790277L199.032 0.0809809C191.051 0.083012 182.942 -0.0115929 174.949 0.196215C170.849 0.400872 168.097 1.3119 165.405 4.497C162.208 8.2777 162.129 15.0421 162.498 19.9159C163.17 28.7788 160.177 39.1335 166.216 46.2665C163.862 53.739 160.118 63.1705 157.406 70.6581L138.119 123.559L70.8928 306.594C59.5693 312.287 47.7691 317.277 36.341 322.791C34.2165 323.814 31.9086 324.927 29.6301 325.575C23.3144 326.921 16.0745 324.419 9.98553 327.145C6.17816 328.817 3.26233 332.025 1.966 335.975C-0.289368 342.97 0.917236 354.338 0.443542 361.999C-0.0534668 370.038 -0.155701 378.453 0.254089 386.486C0.826721 394.43 6.18945 400.417 14.3508 400.815C21.0966 401.144 27.9762 400.838 34.7424 400.891C35.6114 416.167 41.2904 428.525 52.7853 438.77C63.2747 448.016 77.0111 452.71 90.965 451.817C105.422 451.076 118.96 444.488 128.464 433.565C136.503 424.506 141.15 412.937 141.61 400.835L341.095 400.87C341.833 415.963 347.629 428.482 358.839 438.637C369.296 447.929 383.027 452.669 396.989 451.806C415.873 450.817 432.556 440.349 441.488 423.631C445.595 415.943 446.893 410.177 447.854 401.664C457.349 401.833 467.573 402.515 476.783 401.161C481.482 400.469 488.059 395.101 488.347 390.323C489.039 378.811 489.723 365.821 489.684 354.309C489.656 346.307 490.027 336.044 484.123 330.208C478.474 324.811 469.273 325.822 462.008 325.849L442.897 325.881C436.324 310.25 425.061 300.662 408.424 296.724L400.555 275.05C400.109 273.82 397.728 267.097 397.321 266.403L385.519 233.996C383.521 228.616 381.541 222.797 379.316 217.58L422.136 197.755C436.023 203.916 449.074 206.39 464.231 204.95C488.54 202.641 511.003 189.698 526.426 170.998C538.665 156.158 545.686 135.815 543.812 116.555C543.276 111.053 541.355 98.9812 536.737 95.3925C529.257 89.579 515.757 91.4689 507.047 92.7489C474.731 97.4983 412.474 121.817 392.879 148.471C389.727 152.759 388.168 156.845 388.972 162.228C383.058 165.183 376.849 167.723 370.886 170.777C368.461 171.921 366.206 172.99 363.711 173.991C360.686 167.002 357.488 157.56 354.812 150.273L339.766 109.249L324.713 68.1552C322.139 61.1141 319.085 53.3893 316.86 46.3398C321.559 40.9742 320.778 33.6423 320.581 26.7782C320.366 19.2395 322.373 8.33518 316.351 2.98821C314.612 1.44605 312.43 0.493731 310.116 0.268481ZM349.877 300.845C339.442 308.116 334.19 313.522 329.945 325.894L292.461 325.881L271.012 325.875L271.027 298.749C286.111 285.49 284.608 277.549 288.608 259.238C297.358 254.998 306.169 250.882 315.038 246.894C319.257 244.959 324.391 242.733 328.424 240.597L349.877 300.845ZM195.873 298.996C194.67 309.09 192.037 319.609 183.312 325.878L169.89 325.894C169.358 324.587 168.756 322.965 168.149 321.722C166.823 319.062 165.35 316.315 163.528 313.952C168.064 311.325 174.929 308.447 179.862 306.235C184.25 304.271 191.531 300.493 195.873 298.996ZM210.164 291.535C211.888 293.654 213.199 295.022 215.129 296.973C215.117 306.413 214.931 316.498 215.181 325.889L206.659 325.886L202.056 325.88C206.633 318.771 208.914 311.723 209.65 303.204C209.809 301.356 209.534 292.172 210.164 291.535ZM260.452 49.4687L290.572 134.22C297.881 154.781 305.216 176.37 312.875 196.732L264.862 219.243C255.52 215.683 245.028 215.16 235.844 219.371C219.928 226.666 211.366 228.59 203.466 245.622C198.104 248.81 186.687 253.632 180.563 256.466C168.6 262.029 154.393 268.156 142.84 274.018C144.985 267.017 148.264 258.715 150.801 251.696L163.655 215.7L201.451 109.582C208.398 90.0969 216.461 69.0302 222.768 49.4531L260.452 49.4687Z" fill="#71421F"/>
<path d="M372.295 207.332L314.221 48.4863C312.777 48.9421 311.591 49.1717 310.119 49.4789L304.653 49.5027L301.16 49.4954C294.316 49.4963 287.361 49.4318 280.525 49.5042L277.139 49.4925C272.776 49.4841 268.242 49.5379 263.894 49.4376L362.272 325.89L373.181 325.878L375.856 325.901L395.886 325.878L399.345 325.898C402.869 325.858 412.328 326.198 415.516 325.704C413.067 319.025 410.66 312.328 408.295 305.617L407.689 304.277C407.466 302.632 404.475 295.395 403.813 293.433C400.669 284.106 396.2 273.937 393.326 264.578C386.142 246.651 378.968 225.643 372.295 207.332Z" fill="#E5AF79"/>
<path d="M372.295 207.332L314.221 48.4863C312.777 48.9421 311.592 49.1717 310.119 49.4789C313.85 59.3945 317.025 69.6015 320.363 79.6651C323.878 90.2855 327.576 100.845 331.455 111.339C353.021 169.1 373.923 227.108 394.158 285.347C398.832 298.778 404.167 312.11 408.67 325.663C410.58 325.648 413.716 325.532 415.516 325.704C413.067 319.025 410.66 312.328 408.295 305.617L407.689 304.277C407.466 302.632 404.475 295.395 403.813 293.433C400.669 284.106 396.2 273.937 393.326 264.578C386.142 246.651 378.968 225.643 372.295 207.332Z" fill="#F6CB9C"/>
<path d="M280.525 49.5041L277.139 49.4924C278.263 53.7748 280.202 59.2869 281.536 63.7785C288.427 87.1081 296.412 110.102 305.457 132.684C311.406 147.762 318.509 162.041 323.242 177.729C324.786 182.848 333.521 212.445 336.503 213.895L337.13 213.665C337.704 212.256 335.743 208.666 335.208 207.17C331.729 197.451 328.631 187.401 325.783 177.49C320.684 159.748 312.914 143.236 306.21 126.133C298.748 107.203 292.088 87.9661 286.247 68.4742C284.585 62.9979 281.263 54.7537 280.525 49.5041Z" fill="#C98C5E"/>
<path d="M399.344 325.898C394.208 315.406 389.229 305.48 384.682 294.677C379.869 283.24 377.276 271.475 373.033 260.047C363.189 233.534 350.179 208.441 342.777 180.967C342.329 179.323 341.027 175.086 339.8 174.142C337.877 177.145 350.975 214.744 353.38 220.615C357.669 231.229 362.639 241.602 366.747 252.286C372.136 266.301 375.777 280.993 381.431 294.912C385.066 303.859 389.299 312.505 393.668 321.105C394.229 322.21 395.671 324.858 395.885 325.878L399.344 325.898Z" fill="#C98C5E"/>
<path d="M304.652 49.5025L301.159 49.4952C302.362 53.285 304.851 58.8936 306.394 62.7658C308.996 69.4533 311.493 76.1809 313.885 82.9459C318.545 96.454 322.357 110.395 327.291 123.812C327.512 124.412 327.67 124.353 328.189 124.501L328.626 124.09C329.043 121.271 326.642 114.21 325.823 111.202C320.045 89.977 312.937 69.8977 304.652 49.5025Z" fill="#C98C5E"/>
<path d="M375.856 325.901C374.881 322.166 372.846 318.196 371.345 314.566C363.629 295.915 356.595 277.108 350.529 257.858C350.162 256.696 349.281 254.144 348.137 253.705C347.761 253.92 347.577 253.882 347.499 254.356C346.747 258.942 361.345 297.842 363.797 303.803C365.717 308.445 367.684 313.063 369.699 317.661C370.717 319.99 372.447 323.623 373.181 325.878L375.856 325.901Z" fill="#C98C5E"/>
<path d="M422.136 197.755C436.023 203.916 449.075 206.39 464.231 204.95C488.54 202.641 511.004 189.698 526.427 170.998C538.666 156.158 545.686 135.815 543.812 116.555C543.276 111.053 541.355 98.9813 536.738 95.3927C529.257 89.5792 515.758 91.469 507.048 92.749C474.732 97.4981 412.474 121.816 392.879 148.47C389.727 152.759 388.168 156.845 388.972 162.228C383.058 165.183 376.85 167.723 370.887 170.777L371.307 171.047C369.982 172.044 368.768 171.868 368.234 173.66C368.526 174.328 368.373 174.163 368.933 174.548C369.928 173.682 378.099 169.856 379.259 170.045C374.906 172.371 368.49 174.749 364.685 177L366.83 183.154C368.14 186.569 371.156 194.058 372.075 197.432C371.555 197.104 366.93 185.375 366.597 184.232L366.29 184.065C363.169 185.503 366.458 188.607 366.764 190.537C367.591 195.753 372.098 202.248 372.295 207.332C378.968 225.643 386.141 246.651 393.326 264.578C395.132 265.679 394.894 270.684 396.746 270.786C397.411 270.306 397.497 270.333 397.88 269.632C397.599 268.493 397.43 267.99 397.007 266.891L397.322 266.403L385.519 233.996C383.522 228.616 381.542 222.798 379.316 217.58L422.136 197.755Z" fill="#664329"/>
<path d="M390.34 165.127C388.213 166.009 380.724 169.693 379.259 170.045C374.906 172.371 368.49 174.749 364.685 177L366.83 183.154C368.14 186.569 371.156 194.058 372.075 197.432C374.314 202.578 376.075 209.005 378.357 214.433C389.441 209.732 400.374 204.199 411.365 199.268C413.638 198.248 416.017 197.125 418.176 195.887C405.778 188.736 399.94 182.331 392.816 170.265L390.34 165.127Z" fill="#C98C5E"/>
<path d="M390.34 165.127C388.213 166.009 380.725 169.693 379.26 170.045C374.907 172.371 368.49 174.749 364.685 177L366.83 183.154C369.112 181.048 387.877 173.1 392.816 170.265L390.34 165.127Z" fill="#E5AF79"/>
<path d="M539.363 107.238C525.674 133.573 471.72 155.643 444.095 163.709C436.61 165.866 429.004 167.577 421.317 168.835C412.737 170.169 403.863 170.483 395.43 168.124C398.446 174.958 405.012 182.64 410.829 187.183C433.381 204.796 465.101 206.308 490.665 194.601C496.622 191.873 504.606 187.883 509.108 183.294C514.853 179.78 522.876 170.798 526.745 165.211C539.769 146.406 543.022 129.317 539.363 107.238Z" fill="#FEFFFF"/>
<path d="M421.317 168.835C412.737 170.169 403.863 170.483 395.43 168.124C398.446 174.958 405.012 182.64 410.829 187.183C433.381 204.796 465.101 206.308 490.665 194.601C496.622 191.873 504.606 187.883 509.108 183.294C507.749 183.531 500.188 187.811 498.274 188.706C484.578 195.109 468.081 197.896 453.333 193.677C440.489 190.002 427.965 180.355 421.317 168.835Z" fill="#AEC8D7"/>
<path d="M523.236 94.6667C520.75 94.4586 513.393 94.9934 510.537 95.4271C477.198 100.489 440.079 115.199 412.439 134.56C405.129 140.246 393.854 148.174 391.84 157.654C390.332 164.754 399.559 166.028 404.433 166.618C437.394 167.781 489.745 145.543 516.763 126.512C523.866 121.066 535.036 112.721 537.042 103.653C538.599 96.6184 528.224 95.0303 523.236 94.6667Z" fill="#FEFFFF"/>
<path d="M404.574 148.838C403.962 148.687 403.834 148.686 403.206 148.618C402.195 149.069 401.499 149.574 401.008 150.595C400.268 152.134 400.304 154.136 400.897 155.717C401.442 157.17 402.561 158.51 403.996 159.148C413.964 163.586 445.529 153.091 456.352 149.115C471.978 143.374 519.539 123.236 526.001 108.372C526.707 106.748 527.036 104.797 526.279 103.129C525.574 101.576 524.089 100.488 522.487 99.9977C521.044 99.5557 519.934 99.5563 518.615 100.305C518.541 100.347 518.468 100.392 518.394 100.435C486.143 102.206 441.055 120.38 414.89 139.494C412.203 141.487 409.661 143.669 407.283 146.022C406.691 146.6 405.019 148.461 404.574 148.838Z" fill="#AEC8D7"/>
<path d="M404.574 148.838C403.962 148.687 403.834 148.686 403.206 148.618C402.195 149.069 401.499 149.574 401.008 150.595C400.268 152.134 400.304 154.136 400.897 155.717C401.442 157.17 402.561 158.51 403.996 159.148C413.964 163.586 445.529 153.091 456.352 149.115C471.978 143.374 519.539 123.236 526.001 108.372C526.707 106.748 527.036 104.797 526.279 103.129C525.574 101.576 524.089 100.488 522.487 99.9977C521.044 99.5557 519.934 99.5563 518.615 100.305C518.541 100.347 518.468 100.392 518.394 100.435C519.726 102.857 525.246 103.189 523.771 106.133C519.142 115.37 506.783 121.165 498.304 126.558C474.182 139.651 448.114 150.599 421.107 155.939C416.613 156.827 410.816 157.609 406.339 156.682C400.884 155.552 404.586 151.26 404.574 148.838Z" fill="#664329"/>
<path d="M434.774 325.898C434.44 325.817 434.107 325.738 433.773 325.657C429.849 318.068 423.458 311.058 415.359 307.968C414.303 307.567 413.744 308.087 412.924 308.515C414.842 314.365 417.179 320.071 419.097 325.863L434.774 325.898Z" fill="#B5784C"/>
<path d="M439.509 325.849C435.337 314.435 421.726 302.307 409.698 300.197L410.837 303.216L410.943 303.644C411.662 305.28 412.277 306.849 412.924 308.515C413.744 308.088 414.303 307.567 415.359 307.968C423.458 311.058 429.849 318.068 433.773 325.657C434.107 325.739 434.44 325.817 434.774 325.898L439.509 325.849Z" fill="#C98C5E"/>
<path d="M410.836 303.216C409.52 303.234 408.772 303.42 407.688 304.277L408.295 305.617C409.721 305.036 410.327 304.96 410.943 303.643L410.836 303.216Z" fill="#664329"/>
<path d="M485.973 341.77C484.894 333.042 480.031 328.86 471.259 328.836C464.032 328.816 456.809 328.967 449.574 328.926L373.769 328.988L173.285 328.944L72.4543 328.985C58.1575 328.871 43.8606 328.86 29.5637 328.944C24.5704 329.005 19.1383 328.944 14.1711 329.121C11.7937 329.205 7.91354 331.722 6.53296 333.711C4.62634 336.451 4.19327 338.713 3.88519 341.979C3.55093 346.415 3.6759 351.611 3.72824 356.084C3.55093 364.967 2.86792 373.828 3.14694 382.713C3.28064 386.916 3.67593 391.011 6.68701 394.252C9.38132 397.147 12.8923 397.85 16.6852 397.801C22.7132 397.836 28.7499 397.795 34.7779 397.769C35.4493 383.126 40.7361 369.858 51.6877 359.831C62.3166 349.978 76.4885 344.854 90.9597 345.633C105.544 346.345 118.446 352.896 128.177 363.656C128.627 364.156 129.072 364.664 129.508 365.176C129.918 365.708 131.615 367.998 131.967 368.35C138.312 378.647 141.157 385.623 141.634 397.911C160.197 397.717 178.761 397.658 197.324 397.74L297.507 397.719C311.852 397.714 326.784 397.932 341.077 397.714C341.475 388.387 342.831 383.382 346.602 375.005C346.781 374.753 347.656 372.985 347.848 372.611C356.043 359.424 366.732 350.516 382.161 346.877C396.179 343.654 410.905 346.168 423.061 353.855C435.126 361.624 443.623 373.852 446.694 387.869C447.445 391.375 447.825 394.95 447.826 398.536C453.068 398.615 458.409 398.85 463.646 398.859C476.48 398.882 485.528 399.001 485.672 383.472L485.891 379.548C485.862 377.941 485.959 376.357 486.026 374.75C486.415 365.557 486.832 356.273 486.267 347.077C486.238 345.139 486.234 343.694 485.973 341.77Z" fill="#E5AF79"/>
<path d="M347.847 372.611C345.198 372.236 341.849 372.332 339.16 372.32C319.131 372.233 299.29 371.899 279.298 373.442C275.069 373.771 268.361 372.931 263.888 372.753C258.211 372.579 252.529 372.713 246.867 373.157C244.551 373.32 240.77 373.422 238.88 374.637L238.689 375.198C239.331 375.921 239.552 375.991 240.845 375.959C247.475 375.785 254.145 375.651 260.781 375.683C266.907 375.715 273.296 376.241 279.411 376.285C283.686 376.317 294.643 375.349 297.471 375.375C302.088 375.416 345.681 374.561 346.602 375.006C346.78 374.753 347.656 372.986 347.847 372.611Z" fill="#C98C5E"/>
<path d="M3.88492 341.98C3.55067 346.415 3.67564 351.612 3.72795 356.085C5.81189 356.067 8.06441 356.89 10.1803 357.064C12.4328 357.25 27.8428 357.119 29.1624 356.378C29.546 356.163 29.4995 355.931 29.6071 355.544L29.2961 355.001C28.2788 354.818 19.978 354.858 18.3823 354.896C14.7725 354.986 8.31144 354.053 5.3672 354.184C4.93995 355.082 5.20737 354.847 4.48075 355.358C3.57103 354.178 3.97212 348.383 4.00118 346.525C8.98576 346.726 15.0195 346.177 20.2948 346.27C31.3073 346.461 43.0785 346.999 53.9952 345.645C54.5299 344.97 54.3207 345.357 54.3003 344.241C53.7568 343.758 53.3325 343.517 52.5477 343.541C39.4338 343.918 26.3722 343.218 13.2699 342.904C11.7091 342.866 4.80338 344.113 4.15814 343.727L3.88492 341.98Z" fill="#C98C5E"/>
<path d="M131.966 368.35C133.428 368.297 135.056 368.39 136.524 368.492C154.186 369.719 171.907 370.954 189.622 370.503C191.319 370.46 193.525 370.849 194.766 369.626L194.577 369.163C192.214 368.015 180.92 368.504 177.554 368.251C164.772 367.298 151.931 366.658 139.142 365.702C136.018 365.466 132.626 365.057 129.508 365.176C129.917 365.708 131.615 367.998 131.966 368.35Z" fill="#C98C5E"/>
<path d="M486.267 347.077C486.237 345.139 486.233 343.694 485.973 341.77C485.961 342.927 486.13 343.386 485.611 344.284C481.751 344.764 477.221 344.296 473.293 344.497C459.588 345.206 445.997 345.502 432.297 344.47C431.32 344.398 430.017 344.761 429.116 345.162L428.899 345.621C430.371 346.97 433.349 346.984 435.277 347.179C452.432 348.926 469.079 347.476 486.267 347.077Z" fill="#C98C5E"/>
<path d="M485.89 379.548L485.415 380.569C481.035 382.074 469.512 380.728 464.539 381.324C462.681 381.548 457.977 380.65 456.944 382.667C458.5 385.701 481.782 383.873 485.671 383.472L485.89 379.548Z" fill="#C98C5E"/>
<path d="M135.96 348.438C132.769 351.088 141.323 351.693 142.657 351.96C170.477 357.393 198.592 353.899 226.68 353.736C240.477 353.658 255.099 355.094 268.727 354.556L269.611 354.012L269.718 353.469C268.085 352.138 236.899 351.693 232.391 351.379C229.685 351.193 220.756 350.728 217.809 350.804C201.373 351.219 185.123 352.393 168.667 351.774C161.915 351.458 155.181 350.844 148.481 349.937C144.406 349.42 140.012 348.694 135.96 348.438Z" fill="#C98C5E"/>
<path d="M164.142 384.15C162.674 383.958 162.462 383.74 161.459 384.853C161.319 385.792 161.229 385.364 161.755 386.17C166.723 389.082 246.606 388.12 257.511 388.035C258.7 388.03 259.215 388.146 259.851 387.044L259.482 386.571C257.904 386.047 254.143 386.21 252.335 386.161C222.942 385.35 193.5 385.835 164.142 384.15Z" fill="#C98C5E"/>
<path d="M346.801 348.412C332.314 347.412 316.768 349.086 302.177 348.548C300.987 348.505 299.007 348.766 299.021 350.26C299.751 351.065 299.863 350.853 301.174 351.161C304.493 351.394 307.82 351.489 311.146 351.446C319.294 351.341 327.535 350.76 335.689 350.536C338.027 350.472 346.703 350.464 348.049 349.077C347.635 348.388 347.912 348.696 346.801 348.412Z" fill="#C98C5E"/>
<path d="M15.1825 381.58C12.6685 381.437 6.98343 380.568 5.26571 382.394C5.17852 383.423 5.07098 382.96 5.55927 383.835C8.11985 384.704 14.8367 384.356 17.903 384.315C19.4376 384.315 26.5352 384.338 27.7326 383.829L27.9244 383.242L27.5059 382.699C25.1226 381.67 18.1733 381.693 15.1825 381.58Z" fill="#C98C5E"/>
<path d="M172.238 49.5206C171.035 49.1567 170.137 48.9021 168.977 48.3984L114.589 197.225L82.4405 284.673C80.9524 288.736 67.6437 324.637 67.821 325.744C68.7016 325.93 68.6958 325.916 69.5997 325.858C72.4161 325.939 75.6365 325.881 78.479 325.89L81.8214 325.884L99.5188 325.892L102.51 325.901L121.024 325.872C124.474 315.429 128.549 304.417 132.26 294.029L149.289 246.305L192.99 123.74L211.752 71.1708C212.72 68.41 219.416 50.6687 219.024 49.5962L218.355 49.5575C213.286 49.389 207.453 49.461 202.355 49.5476C198.774 49.4947 195.191 49.4913 191.61 49.5372C185.672 49.3709 178.194 49.3718 172.238 49.5206Z" fill="#E5AF79"/>
<path d="M172.239 49.5206C171.035 49.1567 170.137 48.9021 168.978 48.3984L114.589 197.225L82.4407 284.673C80.9526 288.736 67.6439 324.637 67.8212 325.744C68.7019 325.93 68.6961 325.916 69.6 325.858C70.5039 325.753 70.7974 325.747 71.6752 325.474C73.3377 323.963 73.9219 319.873 74.8171 317.586C88.088 283.763 99.5888 249.304 112.409 215.319C115.414 207.352 118.984 199.659 122.062 191.746C125.099 183.995 128.026 176.201 130.839 168.365C132.391 163.944 133.635 159.496 135.295 155.109L150.048 116.413C151.094 113.681 152.126 110.88 153.227 108.176C159.758 92.1499 164.31 75.4294 169.832 59.046C170.829 56.0907 172 52.8439 172.753 49.8278L172.239 49.5206Z" fill="#F6CB9C"/>
<path d="M191.61 49.5371C185.673 49.3709 178.194 49.3718 172.239 49.5206L172.753 49.8278C176.328 49.7118 179.906 49.7665 183.487 49.7915C181.903 53.2507 180.903 57.1059 179.694 60.7218C178.296 64.9059 176.715 68.9654 175.064 73.0559C169.53 86.7764 162.964 100.145 157.936 114.045C152.905 127.946 149.531 142.245 145.305 156.383C143.433 162.643 140.995 168.675 138.934 174.864C138.175 177.143 133.002 191.043 133.258 192.23C134.042 192.822 133.632 192.734 134.49 192.657C136.751 190.241 146.624 162.086 148.357 156.725C152.301 144.531 155.373 130.362 159.93 117.955C168.277 95.2351 180.287 73.1719 186.452 49.7453C188.172 49.7022 189.893 49.6328 191.61 49.5371Z" fill="#C98C5E"/>
<path d="M102.51 325.901C104.166 321.614 106.093 317.403 107.756 313.127C112.956 299.743 117.58 284.751 124.09 272.009C135.071 250.528 142.814 228.514 148.789 205.195C149.487 202.468 152.943 194.544 151.902 192.112C151.454 192.021 151.434 191.897 151.123 192.132C149.542 193.319 141.965 219.501 140.744 223.373C138.006 232.066 134.792 240.922 131.121 249.261C126.607 259.515 121.451 269.481 117.016 279.77C112.595 290.015 109.197 300.763 105.341 311.235C103.544 316.106 100.958 320.945 99.519 325.892L102.51 325.901Z" fill="#C98C5E"/>
<path d="M81.8216 325.883C85.8325 314.089 91.3432 302.46 97.0166 291.337C101.664 282.225 104.565 273.547 107.619 263.833C108.794 260.192 114.824 246.342 114.377 243.602C111.238 244.078 100.682 276.061 98.7517 280.453C93.1655 293.168 86.0476 304.989 81.4786 318.146C80.6154 320.672 79.2058 323.381 78.4792 325.889L81.8216 325.883Z" fill="#C98C5E"/>
<path d="M218.355 49.5575C213.286 49.3889 207.452 49.461 202.355 49.5476C203.622 49.7554 205.13 49.6932 206.435 49.6926C201.023 66.2007 193.6 82.1153 189.307 99.1001C188.863 100.861 188.034 102.326 187.886 104.206C190.397 104.02 197.411 82.585 198.66 79.3705C202.419 69.7097 207.028 59.7411 209.714 49.7624C212.37 49.7659 215.777 49.8684 218.355 49.5575Z" fill="#C98C5E"/>
<path d="M185.951 112.112C185.123 112.229 184.152 112.411 183.8 113.284C182.765 115.845 177.516 127.564 178.06 129.676C178.813 129.511 178.993 129.62 179.516 128.958C181.417 126.548 186.003 114.507 185.951 112.112Z" fill="#C98C5E"/>
<path d="M135.562 415.115C136.629 412.171 137.606 408.006 138.01 404.919C139.611 391.779 135.894 378.543 127.686 368.155C119.411 357.506 107.21 350.621 93.817 349.045C80.5664 347.397 67.6269 351.341 57.1491 359.514C53.9142 361.697 48.8773 366.891 47.1364 370.309C40.469 378.095 37.3009 392.601 38.1234 402.777C39.1872 416.24 45.6337 428.705 56.0068 437.352C71.1902 450.068 92.8724 452.166 110.488 443.461C113.938 441.755 118.071 439.183 120.867 436.48C126.677 431.751 133.708 422.448 135.562 415.115Z" fill="#C98C5E"/>
<path d="M47.1353 370.309C40.4679 378.095 37.2999 392.602 38.1224 402.777C39.1862 416.24 45.6327 428.706 56.0058 437.352C71.1892 450.068 92.8713 452.167 110.487 443.462C113.937 441.756 118.07 439.183 120.866 436.48C119.099 436.405 113.746 439.709 110.947 440.59C106.939 442.026 103.215 443.127 98.9662 443.424C63.9986 445.851 37.5353 415.173 44.2347 380.909C44.7666 378.186 47.487 372.454 47.1353 370.309Z" fill="#B5784C"/>
<path d="M135.562 415.115C136.629 412.171 137.606 408.006 138.01 404.919C139.611 391.779 135.894 378.543 127.686 368.155C119.411 357.506 107.21 350.621 93.817 349.045C80.5664 347.397 67.6269 351.341 57.1491 359.514C57.4572 359.619 57.7682 359.724 58.0762 359.831C59.6021 359.296 62.4098 358.081 63.7787 357.526C68.2314 355.721 72.8847 354.457 77.6396 353.76C98.5254 350.679 120.519 362.703 130.037 381.403C135.632 392.398 136.266 401.498 135.161 413.545C135.118 414.025 135.368 414.688 135.562 415.115Z" fill="#E5AF79"/>
<path d="M90.2096 381.955C80.9264 380.842 72.4977 387.454 71.3642 396.734C70.2336 406.015 76.8312 414.458 86.1086 415.606C95.4093 416.757 103.882 410.139 105.015 400.835C106.149 391.532 99.5161 383.071 90.2096 381.955Z" fill="#71421F"/>
<path d="M100.094 405.652C103.39 399.914 102.137 392.642 97.1093 388.341C92.0811 384.039 84.7045 383.923 79.5455 388.068C75.2323 391.532 73.4129 397.243 74.9272 402.562C76.4415 407.884 80.9959 411.778 86.4862 412.453C91.9764 413.127 97.336 410.447 100.094 405.652Z" fill="#C98C5E"/>
<path d="M100.094 405.652C103.39 399.914 102.137 392.642 97.1093 388.341C92.0811 384.039 84.7045 383.923 79.5455 388.068C80.4204 388.408 82.6671 387.722 83.5972 387.562C92.4735 386.059 100.364 394.043 99.8965 402.792C99.8617 403.446 99.9373 405.044 100.094 405.652Z" fill="#E5AF79"/>
<path d="M427.132 436.465C430.039 434.021 432.648 431.243 434.905 428.188C442.421 418.07 446.064 404.506 444.175 392.011C442.131 378.217 434.546 365.856 423.175 357.785C400.756 341.573 369.672 347.458 353.676 369.727C345.829 380.228 343.225 394.203 345.069 407.04C347.004 419.873 353.98 431.405 364.449 439.073C375.043 446.839 388.268 450.12 401.262 448.205C411.091 446.714 419.567 442.97 427.132 436.465Z" fill="#C98C5E"/>
<path d="M353.675 369.728C345.828 380.229 343.224 394.203 345.068 407.041C347.003 419.873 353.979 431.405 364.448 439.073C375.042 446.839 388.267 450.12 401.262 448.205C411.091 446.714 419.566 442.97 427.131 436.466C425.297 436.559 421.729 438.869 419.812 439.686C406.88 445.194 395.099 444.807 382.051 439.802C358.348 430.714 345.532 405.788 350.775 381.101C351.48 377.784 353.476 372.672 353.675 369.728Z" fill="#B5784C"/>
<path d="M396.261 381.914C386.96 380.882 378.579 387.576 377.527 396.874C376.476 406.172 383.152 414.568 392.449 415.638C401.772 416.71 410.194 410.011 411.249 400.687C412.303 391.36 405.588 382.952 396.261 381.914Z" fill="#71421F"/>
<path d="M406.57 405.282C409.662 399.472 408.224 392.288 403.133 388.114C398.042 383.94 390.714 383.937 385.622 388.111C381.297 391.654 379.535 397.455 381.158 402.806C382.781 408.157 387.47 411.999 393.035 412.543C398.6 413.086 403.943 410.22 406.57 405.282Z" fill="#C98C5E"/>
<path d="M406.57 405.282C409.662 399.472 408.224 392.288 403.133 388.114C398.042 383.94 390.714 383.937 385.622 388.111C386.471 388.503 388.387 388.169 389.299 387.971C395.297 386.687 400.817 388.724 404.016 394.075C406.739 398.098 405.566 403.687 406.57 405.282Z" fill="#E5AF79"/>
<path d="M316.96 9.7138C315.603 5.95575 312.823 3.35069 308.658 3.26524C301.437 3.11672 294.199 3.19403 286.973 3.20071L247.103 3.22194L195.734 3.21031C190.834 3.20915 185.916 3.16294 181.019 3.20043C174.898 3.24751 169.643 2.03668 166.643 8.7878C166.518 9.07583 166.393 9.3656 166.274 9.65683C166.056 10.2082 165.861 10.6372 165.713 11.2141C165.565 17.6345 165.539 24.0572 165.638 30.4784C165.646 31.9261 165.824 37.585 165.71 38.7598C165.777 39.0373 165.847 39.3137 165.92 39.5893C166.861 43.0622 168.887 44.6096 171.857 46.284L266.84 46.2968L294.656 46.3139C299.394 46.3215 304.137 46.3979 308.872 46.25C314.096 46.0872 316.711 43.0442 317.385 38.0593L317.372 35.2043C317.278 30.1279 317.361 24.8018 317.361 19.7056L317.393 16.5617C317.387 14.6216 317.467 11.4719 316.96 9.7138Z" fill="#E5AF79"/>
<path d="M316.961 9.7138C315.604 5.95575 312.824 3.35069 308.659 3.26524C301.439 3.11672 294.2 3.19403 286.975 3.20071L247.104 3.22194L195.735 3.21031C190.835 3.20915 185.917 3.16294 181.02 3.20043C174.899 3.24751 169.644 2.03668 166.644 8.7878C166.519 9.07583 166.394 9.3656 166.275 9.65683L166.726 9.78035C177.477 6.71462 183.993 8.29457 194.729 8.25999C199.624 8.24429 205.815 7.0977 210.977 7.06398C229.122 6.66405 247.682 8.32655 265.792 7.9583C280.063 7.66823 293.747 6.0412 308.136 8.00858C310.016 8.2658 315.768 10.1611 316.961 9.7138Z" fill="#F6CB9C"/>
<path d="M165.713 11.214C165.565 17.6344 165.539 24.057 165.638 30.4783C165.647 31.926 165.824 37.5849 165.711 38.7596C173.189 39.4668 179.147 37.8002 185.803 38.269C202.422 39.4395 218.227 40.9226 234.971 39.3831C238.436 39.0648 252.067 40.1329 254.224 38.5492L254.108 38.0264C251.736 36.2002 217.294 37.3375 211.545 37.178C203.567 36.9568 194.217 35.1484 186.152 35.2391C179.958 35.3088 172.32 35.9186 165.934 36.0665C165.836 29.5598 165.867 22.9529 165.847 16.4372C176.4 15.1031 186.532 15.4813 197.129 15.4949C199.954 15.4987 209.124 16.0922 211.013 14.6983L210.874 14.244C206.61 12.2661 174.628 12.2882 168.608 12.9826C167.876 13.0674 167.454 13.1343 166.449 13.1122C165.673 12.5399 165.92 12.551 165.713 11.214Z" fill="#C98C5E"/>
<path d="M317.393 16.5616C303.521 16.9885 290.371 16.7653 276.533 15.9146C271.578 15.61 265.681 16.849 260.615 16.6851C258.066 16.7331 248.486 16.8706 246.757 17.2652L246.469 17.6277C249.765 20.3339 274.694 18.7449 280.547 19.0135C292.409 19.5576 305.512 20.5016 317.361 19.7055L317.393 16.5616Z" fill="#C98C5E"/>
<path d="M317.372 35.2042C314.594 35.2972 287.287 36.9147 286.927 37.0664L286.575 37.6125C286.718 38.0842 286.973 38.7545 287.47 38.794C293.611 39.2843 312.628 39.1582 317.385 38.0592L317.372 35.2042Z" fill="#C98C5E"/>
<path d="M259.456 27.2306C258.302 27.1149 257.764 26.8716 257.023 27.822C257.805 31.7475 274.517 30.1954 277.711 30.0934C279.045 30.1019 280.641 30.3838 281.533 29.359C279.775 27.6793 263.223 27.5343 259.456 27.2306Z" fill="#C98C5E"/>
<path d="M226.842 23.1931C225.485 23.0958 223.171 22.6426 222.311 23.8044L222.677 24.299C225.461 25.6468 226.243 25.3936 229.4 25.4183C230.984 25.4581 233.751 25.9037 234.117 23.9131C232.934 22.8603 228.667 23.1835 226.842 23.1931Z" fill="#C98C5E"/>
<path d="M267.864 325.875L267.844 283.066C267.856 276.695 268.196 263.549 267.236 257.998C266.487 253.501 264.699 249.24 262.019 245.555C258.305 240.466 252.704 237.083 246.47 236.167C239.369 235.188 233.173 237.216 227.508 241.477C217.112 248.802 218.222 267.763 218.274 278.947L218.391 310.543C218.388 315.141 218.556 321.478 218.28 325.924L263.522 325.892L267.864 325.875Z" fill="#C98C5E"/>
<path d="M267.864 325.875L267.844 283.066C267.856 276.695 268.196 263.549 267.236 257.998C266.487 253.501 264.699 249.24 262.019 245.555C258.305 240.466 252.704 237.083 246.47 236.167C239.369 235.188 233.173 237.216 227.508 241.477C229.15 241.716 232.673 240.704 234.361 240.329C243.09 238.391 251.047 239.716 256.808 247.026C259.22 249.903 261.778 254.054 262.473 257.722C264.132 266.516 263.566 277.363 263.563 286.455L263.522 325.892L267.864 325.875Z" fill="#E5AF79"/>
<path d="M245.909 250.15C238.163 248.607 230.638 253.653 229.124 261.404C227.607 269.156 232.679 276.663 240.436 278.148C248.155 279.63 255.616 274.588 257.125 266.877C258.63 259.163 253.617 251.685 245.909 250.15Z" fill="#71421F"/>
<path d="M253.154 268.978C255.532 264.023 253.925 258.073 249.373 254.989C244.822 251.906 238.698 252.621 234.977 256.666C232.027 259.875 231.228 264.514 232.937 268.525C234.643 272.536 238.541 275.175 242.9 275.274C247.257 275.372 251.268 272.911 253.154 268.978Z" fill="#C98C5E"/>
<path d="M253.154 268.978C255.532 264.023 253.925 258.073 249.373 254.989C244.822 251.906 238.698 252.621 234.977 256.666C236.381 256.754 237.058 256.239 238.238 256.085C241.988 255.603 246.795 255.69 249.675 258.489C253.276 261.727 252.28 267.685 253.154 268.978Z" fill="#E5AF79"/>
<path d="M201.593 250.243C181.751 259.309 161.283 269.292 141.455 278.026C140.941 279.517 140.238 281.398 139.816 282.877C139.174 283.941 135.579 294.422 134.991 296.078L124.293 325.957C131.568 325.942 132.794 324.471 139.258 321.446L157.229 313.066L183.445 301.17C187.479 299.307 192.304 297.212 196.164 295.102C196.451 287.112 196.184 279.131 197.053 271.176C197.602 266.148 198.66 261.329 199.788 256.399C200.363 254.176 200.843 252.406 201.593 250.243Z" fill="#C98C5E"/>
<path d="M201.593 250.243C181.751 259.309 161.283 269.292 141.455 278.026C140.941 279.517 140.238 281.398 139.816 282.877C141.49 282.618 152.671 277.419 155.136 276.297L183.829 263.308C189.049 260.933 194.809 258.759 199.788 256.399C200.363 254.176 200.843 252.406 201.593 250.243Z" fill="#E5AF79"/>
<path d="M313.804 199.906C298.577 206.34 283.524 214.383 268.407 220.856C270.485 222.114 272.546 223.303 274.458 224.806C275.304 225.506 276.13 226.233 276.935 226.98C285.201 234.789 288.299 244.552 288.598 255.62C295.002 252.792 301.422 249.79 307.777 246.837C314.154 243.875 321.207 240.835 327.366 237.519C323.945 227.137 319.756 216.269 316.056 205.9L313.804 199.906Z" fill="#C98C5E"/>
<path d="M313.804 199.906C298.577 206.34 283.524 214.383 268.407 220.856C270.485 222.114 272.546 223.303 274.458 224.806C275.58 223.995 279.708 222.268 281.236 221.612C292.806 216.624 304.298 210.355 316.056 205.9L313.804 199.906Z" fill="#E5AF79"/>
<path d="M272.046 236.679C271.787 237.365 271.532 238.042 271.293 238.734C270.86 242.437 270.369 245.584 267.669 248.508C267.872 249.008 268.753 251.078 268.855 251.467C270.113 254.882 270.575 257.175 270.883 260.858L270.997 264.235C270.973 267.04 270.979 269.845 271.014 272.652L271.005 275.835C273.828 275.669 275.327 275.599 278.086 274.754C280.39 274.044 281.483 272.088 282.852 272.112C283.303 269.99 283.32 268.851 283.401 266.665C283.317 261.663 283.117 257.411 281.376 252.694C280.966 251.211 280.55 250.336 279.931 248.953C278.251 245.177 276.583 242.28 274.069 239.03C273.801 238.597 272.459 237.144 272.046 236.679Z" fill="#E5AF79"/>
<path d="M272.047 236.679C271.788 237.365 271.532 238.042 271.294 238.734C270.861 242.437 270.37 245.584 267.669 248.508C267.873 249.008 268.754 251.078 268.855 251.467C270.114 254.882 270.576 257.175 270.884 260.858C275.735 259.608 278.077 255.152 279.287 250.711L279.932 248.953C278.252 245.177 276.584 242.28 274.069 239.03C273.802 238.597 272.459 237.144 272.047 236.679Z" fill="#E5AF79"/>
<path d="M272.047 236.679C271.788 237.365 271.532 238.042 271.294 238.734C270.861 242.437 270.37 245.584 267.669 248.508C267.873 249.008 268.754 251.078 268.855 251.467C272.079 248.407 272.918 246.607 273.697 242.344C273.697 241.1 273.578 240.158 274.069 239.03C273.802 238.597 272.459 237.144 272.047 236.679Z" fill="#C98C5E"/>
<path d="M274.069 239.03C273.578 240.158 273.697 241.099 273.697 242.343C275.046 244.311 277.976 249.156 279.287 250.711L279.932 248.953C278.252 245.177 276.584 242.279 274.069 239.03Z" fill="#F6CB9C"/>
<path d="M279.931 248.953L279.286 250.711C278.077 255.152 275.734 259.608 270.883 260.857L270.997 264.235C277.923 261.869 278.556 258.55 281.262 252.923L281.376 252.693C280.966 251.211 280.55 250.336 279.931 248.953Z" fill="#C98C5E"/>
<path d="M283.401 266.665C280.492 271.333 276.411 272.803 271.014 272.652L271.005 275.835C273.828 275.669 275.327 275.599 278.086 274.753C280.39 274.044 281.483 272.088 282.852 272.111C283.303 269.99 283.32 268.85 283.401 266.665Z" fill="#C98C5E"/>
<path d="M350.896 303.987C341.952 309.861 337.128 315.833 333.255 325.904L339.623 325.875L358.592 325.933C356.993 320.46 354.59 314.148 352.576 308.75L350.896 303.987Z" fill="#B5784C"/>
<path d="M350.895 303.987C341.952 309.861 337.128 315.833 333.254 325.904L339.622 325.875C342.782 317.606 346.07 314.685 352.575 308.75L350.895 303.987Z" fill="#C98C5E"/>
<path d="M234.155 224.815L230.757 225.44C227.732 226.332 223.93 227.66 221.369 229.555C220.582 229.997 218.588 231.017 218.158 231.741C214.685 234.47 212.107 236.824 209.802 240.652L210.36 241.102C211.755 246.578 212.705 249.319 216.449 253.696C217.428 250.229 218.826 247.636 220.605 244.541L222.576 241.82C224.933 239.327 226.807 238.013 229.641 236.089L232.385 234.854C231.821 233.464 232.385 229.881 232.495 228.102L232.588 227.887C233.027 226.666 233.513 225.919 234.155 224.815Z" fill="#E5AF79"/>
<path d="M234.155 224.815L230.757 225.44C227.732 226.332 223.93 227.66 221.369 229.555C221.05 230.491 220.614 231.645 220.361 232.581C219.812 235.008 220.268 240.437 222.576 241.82C224.933 239.327 226.807 238.013 229.641 236.089L232.385 234.854C231.821 233.464 232.385 229.881 232.495 228.102L232.588 227.887C233.027 226.666 233.513 225.919 234.155 224.815Z" fill="#E5AF79"/>
<path d="M234.155 224.815L230.757 225.44C227.732 226.332 223.93 227.66 221.369 229.555C221.05 230.491 220.614 231.645 220.361 232.581C221.884 232.325 226.493 229.308 229.659 228.695L229.903 228.622L232.495 228.102L232.588 227.887C233.027 226.666 233.513 225.919 234.155 224.815Z" fill="#F6CB9C"/>
<path d="M234.155 224.815L230.757 225.44C231.019 226.686 230.504 227.326 229.903 228.622L232.495 228.102L232.588 227.887C233.027 226.666 233.513 225.919 234.155 224.815Z" fill="#B5784C"/>
<path d="M232.495 228.102L229.903 228.622L229.659 228.694C228.726 231.883 229.409 232.862 229.641 236.089L232.385 234.853C231.821 233.464 232.385 229.88 232.495 228.102Z" fill="#C98C5E"/>
<path d="M221.37 229.555C220.582 229.997 218.588 231.017 218.158 231.741C217.946 233.098 217.783 233.502 217.315 234.819C217.452 238.745 218.42 241.297 220.605 244.541L222.576 241.82C220.268 240.437 219.812 235.007 220.361 232.581C220.614 231.645 221.05 230.491 221.37 229.555Z" fill="#C98C5E"/>
<path d="M218.157 231.741C214.684 234.47 212.106 236.824 209.801 240.652L210.359 241.102C212.64 238.754 215.012 237.132 217.314 234.819C217.782 233.502 217.945 233.098 218.157 231.741Z" fill="#F6CB9C"/>
<path d="M215.115 266.816C209.465 265.566 206.61 262.509 203.745 257.809C203.065 262.323 203.283 266.926 204.384 271.356C204.733 272.963 205.061 274.556 205.486 276.146C206.503 279.325 208.226 283.386 210.305 286.019L212.197 288.734C213.042 289.667 213.688 290.434 214.667 291.242L214.987 291.457C215.533 290.626 215.173 286.85 215.118 285.661L215.129 278.343L215.086 275.314L215.115 266.816Z" fill="#E5AF79"/>
<path d="M215.129 278.343C211.302 277.747 209.584 277.18 205.901 275.811L205.486 276.145C206.503 279.325 208.226 283.385 210.305 286.019L212.197 288.733C213.042 289.666 213.688 290.433 214.667 291.241L214.987 291.456C215.533 290.625 215.173 286.85 215.118 285.661L215.129 278.343Z" fill="#E5AF79"/>
<path d="M215.118 285.662L210.305 286.019L212.197 288.734C213.042 289.667 213.688 290.434 214.667 291.242L214.987 291.457C215.533 290.626 215.173 286.85 215.118 285.662Z" fill="#C98C5E"/>
<path d="M214.667 291.242C215.225 290.088 215.315 289.318 214.307 288.536C213.278 288.492 213.217 288.44 212.197 288.733C213.042 289.666 213.688 290.434 214.667 291.242Z" fill="#E5AF79"/>
<path d="M215.086 275.314C209.965 274.962 208.631 274.213 204.384 271.355C204.733 272.963 205.062 274.555 205.486 276.145L205.902 275.811C209.584 277.18 211.302 277.747 215.13 278.343L215.086 275.314Z" fill="#C98C5E"/>
<path d="M206.192 305.559C204.515 305.015 200.486 299.441 199.018 297.813C198.946 298.816 198.76 300.618 198.789 301.559C198.312 304.193 197.783 307.678 197.045 310.183L195.714 314.272C193.551 319.085 191.799 321.759 188.488 325.889L198.045 325.828C198.62 325.096 199.483 324.084 199.922 323.303C200.565 322.387 201.227 321.172 201.803 320.184C203.759 316.356 204.468 314.252 205.421 310.107C205.7 308.843 205.971 306.881 206.192 305.559Z" fill="#E5AF79"/>
<path d="M199.922 323.303C197.655 319.693 197.429 317.688 195.714 314.273C193.552 319.086 191.799 321.76 188.488 325.89L198.045 325.829C198.62 325.096 199.484 324.085 199.922 323.303Z" fill="#E5AF79"/>
<path d="M206.192 305.559C204.515 305.015 200.486 299.441 199.018 297.813C198.946 298.816 198.76 300.618 198.789 301.559C199.231 301.853 203.785 308.526 205.421 310.107C205.7 308.843 205.971 306.881 206.192 305.559Z" fill="#C98C5E"/>
<path d="M197.045 310.183L195.714 314.272C197.429 317.688 197.656 319.693 199.923 323.303C200.565 322.387 201.228 321.172 201.803 320.184C199.321 316.726 198.56 314.118 197.045 310.183Z" fill="#C98C5E"/>
<path d="M69.3468 310.938C58.7411 316.013 47.9669 320.736 37.3206 325.805C40.8461 325.878 44.3716 325.91 47.8972 325.904L63.9873 325.86C65.0685 323.486 66.2514 319.818 67.1524 317.277C67.8907 315.188 68.6812 313.043 69.3468 310.938Z" fill="#E5AF79"/>
<path d="M67.1525 317.278C64.6006 318.199 49.5713 324.553 47.8972 325.904L63.9873 325.861C65.0685 323.486 66.2515 319.818 67.1525 317.278Z" fill="#C98C5E"/>
<path d="M209.801 240.652C209.516 241.061 209.33 241.285 209.112 241.736C206.63 246.13 205.567 248.734 204.34 253.597L203.744 257.808C206.61 262.508 209.464 265.566 215.114 266.816C215.106 265.429 215.204 264.217 215.303 262.84C215.225 261.072 215.547 258.997 215.762 257.218C215.934 256.018 216.196 254.879 216.448 253.696C212.705 249.319 211.754 246.578 210.359 241.102L209.801 240.652Z" fill="#E5AF79"/>
<path d="M204.34 253.597L203.744 257.809C206.61 262.509 209.464 265.566 215.114 266.816C215.106 265.43 215.205 264.218 215.303 262.84L214.818 263.299C209.598 263.235 206.854 257.239 204.34 253.597Z" fill="#C98C5E"/>
<path d="M209.801 240.652C209.516 241.061 209.33 241.285 209.112 241.736C209.583 243.326 209.049 246.165 209.819 248.557C210.816 251.658 215.077 255.14 215.762 257.218C215.934 256.018 216.196 254.879 216.448 253.696C212.705 249.319 211.754 246.578 210.359 241.102L209.801 240.652Z" fill="#C98C5E"/>
<path d="M206.834 288.608C206.872 287.411 206.875 286.995 206.302 285.949C203.059 280.005 201.422 274.573 200.431 267.865C200.068 272.065 199.792 276.273 199.597 280.485C199.379 282.455 199.211 286.446 199.333 288.483C199.28 291.593 199.176 294.703 199.019 297.813C200.487 299.441 204.515 305.015 206.192 305.559C206.672 303.024 206.89 300.452 206.84 297.874C206.872 294.785 206.872 291.698 206.834 288.608Z" fill="#E5AF79"/>
<path d="M206.834 288.608C206.872 287.411 206.875 286.995 206.302 285.949C203.059 280.005 201.422 274.573 200.431 267.865C200.068 272.065 199.792 276.273 199.597 280.485L199.722 280.691C202.678 285.65 202.259 286.333 206.421 291.201C206.587 290.3 206.721 289.515 206.834 288.608Z" fill="#E5AF79"/>
<path d="M206.422 291.201C202.26 286.333 202.678 285.65 199.722 280.691L199.597 280.485C199.379 282.455 199.211 286.446 199.333 288.483L199.754 285.903C201.643 289.98 206.395 295.128 206.84 297.874C206.872 294.785 206.872 291.698 206.834 288.608C206.721 289.515 206.587 290.3 206.422 291.201Z" fill="#C98C5E"/>
<path d="M160.61 315.022C158.739 316.173 155.742 317.432 153.676 318.373C148.148 320.783 142.73 323.492 137.269 325.852C144.355 325.913 152.301 326.075 159.346 325.849C161.709 325.927 164.162 325.866 166.531 325.843C165.235 322.251 162.694 318.199 160.61 315.022Z" fill="#C98C5E"/>
<path d="M153.675 318.374C148.147 320.783 142.729 323.492 137.268 325.852C144.354 325.913 152.3 326.076 159.345 325.849L157.561 325.68C156.32 325.029 155.207 320.911 153.942 318.815L153.675 318.374Z" fill="#B5784C"/>
<path d="M260.575 228.311C259.415 227.692 258.54 227.291 257.328 226.776C257.482 227.616 257.587 228.427 257.886 229.226C258.773 232.139 259.337 234.656 258.566 237.742L261.2 239.922C263.961 242.692 265.83 245.005 267.669 248.508C270.369 245.584 270.861 242.436 271.294 238.733C271.532 238.042 271.788 237.364 272.047 236.678C268.132 233.031 265.53 230.636 260.575 228.311Z" fill="#E5AF79"/>
<path d="M260.575 228.311C259.415 227.692 258.54 227.291 257.328 226.776C257.482 227.616 257.587 228.427 257.886 229.226C258.773 232.139 259.337 234.656 258.566 237.742L261.2 239.922C262.013 237.367 262.089 234.449 261.484 231.839C260.979 230.505 260.572 229.741 260.575 228.311Z" fill="#C98C5E"/>
<path d="M260.575 228.311C260.572 229.741 260.979 230.505 261.484 231.839C264.458 232.833 269.073 236.522 271.294 238.734C271.532 238.042 271.788 237.365 272.047 236.679C268.132 233.031 265.53 230.636 260.575 228.311Z" fill="#F6CB9C"/>
<path d="M282.853 272.112C281.484 272.088 280.391 274.044 278.086 274.754C275.328 275.599 273.828 275.669 271.006 275.835C270.971 278.654 270.91 281.479 271.012 284.295C270.913 286.99 270.616 291.16 271.047 293.715L271.137 293.936L271.465 294.055C273.221 292.681 274.999 290.265 276.313 288.472C277.418 287.161 277.973 286.068 278.816 284.592C280.987 280.959 282.239 276.268 282.853 272.112Z" fill="#E5AF79"/>
<path d="M271.012 284.295C270.913 286.99 270.616 291.16 271.047 293.715L271.137 293.936L271.465 294.055C273.221 292.681 274.999 290.265 276.313 288.472C277.418 287.161 277.973 286.068 278.816 284.592L277.813 284.938C274.537 286.077 273.982 285.946 271.012 284.295Z" fill="#C98C5E"/>
<path d="M276.313 288.472C274.755 288.289 272.624 288.097 271.13 287.826C271.116 289.678 271.154 291.898 271.046 293.715L271.136 293.936L271.465 294.055C273.22 292.68 274.999 290.265 276.313 288.472Z" fill="#E5AF79"/>
<path d="M246.098 224.129C244.624 224.123 242.674 223.949 241.165 223.853C238.753 223.966 236.451 224.001 234.155 224.815C233.513 225.919 233.027 226.666 232.588 227.887L232.495 228.102C232.385 229.881 231.821 233.464 232.385 234.854C237.442 232.851 240.468 232.715 245.842 232.996C245.845 230.793 245.487 229.189 244.764 227.125C245.659 226.954 246.717 227.038 247.658 227.061L246.098 224.129Z" fill="#E5AF79"/>
<path d="M246.098 224.129C244.624 224.123 242.674 223.949 241.165 223.853C238.753 223.966 236.451 224.001 234.155 224.815C233.513 225.919 233.027 226.666 232.588 227.887C235.349 228.082 238.509 226.14 244.467 226.864L244.764 227.125C245.659 226.954 246.717 227.038 247.658 227.061L246.098 224.129Z" fill="#F6CB9C"/>
<path d="M246.098 224.129C244.624 224.123 242.674 223.949 241.165 223.853C243.043 224.428 243.566 225.085 244.467 226.864L244.764 227.125C245.659 226.954 246.717 227.038 247.658 227.061L246.098 224.129Z" fill="#B5784C"/>
<path d="M257.328 226.776C253.14 225.102 250.539 224.686 246.098 224.128L247.658 227.061C246.717 227.038 245.659 226.954 244.764 227.125C245.487 229.189 245.845 230.793 245.842 232.996C246.792 233.121 247.786 233.269 248.74 233.33C252.64 234.525 255.099 235.539 258.566 237.742C259.337 234.656 258.773 232.139 257.886 229.226C257.587 228.427 257.482 227.616 257.328 226.776Z" fill="#E5AF79"/>
<path d="M257.328 226.776C253.14 225.102 250.538 224.686 246.097 224.128L247.658 227.061L247.87 227.296C249.661 227.372 256.299 228.503 257.886 229.226C257.586 228.427 257.482 227.616 257.328 226.776Z" fill="#F6CB9C"/>
<path d="M247.658 227.061C246.717 227.038 245.659 226.953 244.764 227.125C245.487 229.189 245.845 230.793 245.842 232.996C246.792 233.121 247.786 233.269 248.74 233.33C248.777 231.287 248.484 229.25 247.871 227.296L247.658 227.061Z" fill="#C98C5E"/>
<path d="M273.346 227.872C269.652 224.853 267.358 223.585 262.97 221.891C262.569 222.928 263.182 224.73 263.406 226.044C267.727 228.602 270.291 230.445 273.88 234.017C274.555 234.793 275.383 235.798 276.11 236.496C276.098 234.865 275.56 231.782 276.133 230.526C275.398 229.654 274.215 228.657 273.346 227.872Z" fill="#E5AF79"/>
<path d="M273.346 227.872C273.546 229.444 274.046 232.627 273.88 234.016C274.555 234.792 275.383 235.798 276.11 236.496C276.098 234.865 275.56 231.781 276.133 230.526C275.398 229.654 274.215 228.657 273.346 227.872Z" fill="#C98C5E"/>
<path d="M276.133 230.526C275.561 231.781 276.098 234.865 276.11 236.496C281.071 243.71 282.173 245.773 285.088 253.85C285.071 244.32 282.295 237.789 276.133 230.526Z" fill="#E5AF79"/>
<path d="M258.383 220.545C252.86 218.705 246.643 219.362 241.112 220.841C248.69 220.972 252.166 221.446 259.443 224.094C259.319 223.05 258.743 221.582 258.383 220.545Z" fill="#E5AF79"/>
<path d="M262.969 221.891C261.772 221.324 259.7 220.85 258.383 220.545C258.743 221.583 259.319 223.05 259.444 224.094C260.752 224.742 262.089 225.428 263.405 226.044C263.182 224.73 262.568 222.928 262.969 221.891Z" fill="#C98C5E"/>
</svg>
