<svg width="393" height="771" viewBox="0 0 393 771" fill="none" xmlns="http://www.w3.org/2000/svg">
<path d="M0 61C0 27.3106 27.3106 0 61 0H332C365.689 0 393 27.3106 393 61V771H0V61Z" fill="#FAFAFA"/>
<path d="M-0.00157589 771.123C-0.00157589 771.123 -37.2188 685.112 -3.04567 595.365C31.6887 504.145 137.687 409.091 205.247 459.331C241.59 486.356 254.281 525.565 228.367 571.462C202.54 617.205 159.349 631.845 115.732 619.402C22.3499 592.761 27.8691 433.983 82.6068 335.735C137.455 237.29 271.644 146.697 343.169 212.697C376.622 243.566 388.543 287.733 361.679 333.073C335.346 377.517 291.658 394.04 249.044 381.012C158.127 353.218 150.833 195.711 212.077 104.216C252.065 44.4754 301.031 16.3296 364.768 16.45" stroke="#F4F4F4" stroke-width="39.5025" stroke-linecap="round"/>
</svg>
