<svg width="217" height="185" viewBox="0 0 217 185" fill="none" xmlns="http://www.w3.org/2000/svg">
<path d="M108.217 1.66504C167.32 1.66521 214.768 42.5258 214.768 92.4004C214.767 142.275 167.32 183.136 108.217 183.136C49.1136 183.136 1.66517 142.275 1.66504 92.4004C1.66504 42.5257 49.1136 1.66504 108.217 1.66504Z" fill="#B8E7EE" stroke="#8ACAF0" stroke-width="3.32974"/>
<path d="M22.2881 86.4542C24.0955 63.9995 39.8367 46.9458 57.4473 48.3633C74.3307 49.7225 86.7997 67.5655 86.208 88.8233C93.3757 89.0955 100.997 89.295 109.05 89.295C120.919 89.295 132.002 88.5281 142.169 87.5128C141.783 68.1322 152.512 51.6747 168.131 49.2501C185.589 46.5401 202.543 62.389 205.999 84.6495C206.065 85.0766 206.124 85.5033 206.18 85.9288C210.166 88.6646 212.271 93.3022 212.271 100.725C212.271 133.366 171.574 180.862 109.05 180.862C46.5251 180.862 9.98926 142.747 9.98926 110.106C9.98934 99.0643 14.1704 93.1119 22.123 90.0684C22.1368 88.8743 22.1903 87.6688 22.2881 86.4542Z" fill="white"/>
<path d="M108.217 67.4268C118.237 67.4268 127.247 69.3949 133.72 72.9043C140.19 76.4123 144.012 81.3825 144.012 87.4053C144.012 93.4994 140.109 100.151 133.599 105.315C127.11 110.464 118.133 114.044 108.217 114.044C98.3377 114.044 89.3713 109.867 82.8701 104.097C76.346 98.3062 72.4219 91.0229 72.4219 84.9082C72.4219 78.9209 76.2008 74.5764 82.6582 71.6836C89.1338 68.7827 98.1571 67.4268 108.217 67.4268Z" fill="#F1D453" stroke="#E1BA43" stroke-width="1.66487"/>
<path d="M84.9092 91.5676C84.9092 91.5676 95.7308 99.0595 109.882 99.0595C124.034 99.0595 133.19 91.5676 133.19 91.5676" stroke="#583921" stroke-width="2.4973" stroke-linecap="round"/>
<path d="M46.6162 79.0814C46.6162 79.0814 48.2811 74.9192 54.1081 74.9192C59.9352 74.9192 61.6 79.0814 61.6 79.0814" stroke="#583921" stroke-width="2.4973" stroke-linecap="round"/>
<path d="M156.497 79.0814C156.497 79.0814 158.162 74.9192 163.989 74.9192C169.816 74.9192 171.481 79.0814 171.481 79.0814" stroke="#583921" stroke-width="2.4973" stroke-linecap="round"/>
</svg>
