<svg width="119" height="96" viewBox="0 0 119 96" fill="none" xmlns="http://www.w3.org/2000/svg">
<path d="M95.9024 20.121C103.814 24.1603 96.1826 34.4252 96.1826 34.4252C109.892 38.8937 105.08 48.2316 100.961 52.342C117.296 51.8246 118.169 61.6269 116.564 66.5928C115.127 76.687 104.29 77.4421 99.0511 76.5578C88.0404 84.6685 72.4665 81.1906 66.0558 78.4377C61.0247 85.8392 51.3122 84.8945 47.0848 83.497C40.1783 92.5142 28.1525 90.5293 23.0029 88.4097C4.15657 99.8318 -11.4304 92.2093 -16.8681 86.9702C-29.3874 87.6102 -28.5901 79.6338 -26.6266 75.5656C-41.8652 76.4562 -47.2265 67.005 -48.0023 62.168C-61.4391 57.6942 -54.9836 47.6661 -50.0764 43.2113C-49.7095 34.1249 -36.4232 33.2396 -29.8259 33.9328C-37.4144 22.0415 -25.2639 17.6422 -18.2401 16.9289C-13.2553 7.15991 -5.76586 10.5166 -2.64423 13.4161C8.48426 -2.5919 23.0141 2.0579 28.888 6.3838C61.0319 -7.66735 70.6503 11.6515 71.4414 23.0673C84.3855 16.3004 87.9907 16.0817 95.9024 20.121Z" fill="#EDFDFF" stroke="#BDF3FF" stroke-width="2.91459" stroke-linecap="square" stroke-linejoin="round"/>
<path d="M70.4451 44.2244C69.2352 39.5391 65.174 31.2851 54.0657 36.6522C51.2142 33.0839 44.0643 28.428 37.6102 36.5471C35.9251 31.267 28.0701 28.4609 25.8401 35.2319" stroke="#BDF3FF" stroke-width="3.88611" stroke-linecap="round" stroke-linejoin="round"/>
<path d="M7.05964 58.4328C4.5869 55.1832 -1.3103 50.0531 -8.45487 57.6262C-11.8794 55.7461 -19.086 54.3499 -21.6291 62.6163" stroke="#BDF3FF" stroke-width="3.88611" stroke-linecap="round" stroke-linejoin="round"/>
</svg>
