<svg width="156" height="101" viewBox="0 0 156 101" fill="none" xmlns="http://www.w3.org/2000/svg">
<path d="M23.8745 21.1789C15.5468 25.4306 23.5796 36.2352 23.5796 36.2352C9.14954 40.9386 14.2143 50.7675 18.5504 55.0939C1.35587 54.5494 0.436883 64.8671 2.12671 70.094C3.6391 80.719 15.0459 81.5137 20.5602 80.583C32.1499 89.1201 48.5426 85.4593 55.2903 82.5617C60.586 90.3523 70.8091 89.358 75.2587 87.887C82.5284 97.3782 95.1864 95.289 100.607 93.0579C120.444 105.081 136.851 97.0573 142.574 91.5428C155.752 92.2164 154.912 83.8206 152.846 79.5385C168.885 80.476 174.529 70.5279 175.345 65.4366C189.488 60.7276 182.694 50.1722 177.528 45.4832C177.142 35.919 163.157 34.9872 156.213 35.7168C164.201 23.2004 151.411 18.5698 144.018 17.819C138.771 7.53636 130.888 11.0695 127.602 14.1215C115.889 -2.72816 100.595 2.16611 94.4123 6.71944C60.5783 -8.07046 50.4543 12.2641 49.6215 24.2801C35.9969 17.1574 32.2022 16.9272 23.8745 21.1789Z" fill="#EDFDFF" stroke="#BDF3FF" stroke-width="3.06782" stroke-linecap="square" stroke-linejoin="round"/>
<path d="M50.6705 46.5496C51.944 41.6179 56.2188 32.9299 67.9111 38.5792C70.9126 34.8233 78.4384 29.9226 85.2318 38.4686C87.0055 32.9109 95.2735 29.9573 97.6207 37.0843" stroke="#BDF3FF" stroke-width="4.09043" stroke-linecap="round" stroke-linejoin="round"/>
<path d="M117.388 61.5052C119.99 58.0847 126.198 52.6849 133.718 60.6561C137.322 58.6772 144.908 57.2075 147.585 65.9086" stroke="#BDF3FF" stroke-width="4.09043" stroke-linecap="round" stroke-linejoin="round"/>
</svg>
