<svg width="496" height="576" viewBox="0 0 496 576" fill="none" xmlns="http://www.w3.org/2000/svg">
<mask id="path-1-inside-1_1374_241" fill="white">
<path d="M450.725 175.636C457.072 175.563 463.833 178.063 470.899 183.776C485.12 195.274 491.744 214.557 494.429 233.419C497.126 252.371 495.931 271.487 493.992 283.362C491.029 305.129 478.716 327.423 464.779 346.307C451.696 364.033 436.99 379.011 426.656 388.079C428.598 390.619 430.265 393.77 431.702 397.175C433.608 401.693 435.195 406.864 436.497 412.092C439.1 422.548 440.618 433.465 441.222 440.355L441.243 440.593H441.469L441.627 450.585C442.556 509.165 395.325 557.152 336.737 557.152H181.711C123.07 557.152 75.8167 509.081 76.8231 450.449L76.9725 441.686L76.9256 440.729C76.3326 428.868 78.9234 416.158 82.324 405.184C84.2455 398.984 86.4442 393.276 88.5242 388.511C59.9132 405.079 29.2086 397.975 16.3768 391.671L16.2156 391.592L16.0662 391.493C8.21912 386.261 -0.626448 376.316 0.0349672 363.649C0.702381 350.872 10.9485 336.842 37.7518 323.296C89.7301 297.028 122.067 274.15 132.26 265.618C137.429 251.421 150.51 242.822 167.431 238.046C184.661 233.184 206.417 232.108 229.507 233.328C274.28 235.692 324.831 246.734 358.972 256.534L362.224 257.478L363.175 257.756L363.723 258.581L376.665 277.992C387.426 272.246 396.124 260.829 402.702 248.219C409.656 234.889 414.004 220.686 415.863 211.738L415.892 211.597L415.935 211.462C418.862 202.317 425.032 189.726 434.207 182.169C438.848 178.346 444.387 175.71 450.725 175.636Z"/>
</mask>
<path d="M450.725 175.636C457.072 175.563 463.833 178.063 470.899 183.776C485.12 195.274 491.744 214.557 494.429 233.419C497.126 252.371 495.931 271.487 493.992 283.362C491.029 305.129 478.716 327.423 464.779 346.307C451.696 364.033 436.99 379.011 426.656 388.079C428.598 390.619 430.265 393.77 431.702 397.175C433.608 401.693 435.195 406.864 436.497 412.092C439.1 422.548 440.618 433.465 441.222 440.355L441.243 440.593H441.469L441.627 450.585C442.556 509.165 395.325 557.152 336.737 557.152H181.711C123.07 557.152 75.8167 509.081 76.8231 450.449L76.9725 441.686L76.9256 440.729C76.3326 428.868 78.9234 416.158 82.324 405.184C84.2455 398.984 86.4442 393.276 88.5242 388.511C59.9132 405.079 29.2086 397.975 16.3768 391.671L16.2156 391.592L16.0662 391.493C8.21912 386.261 -0.626448 376.316 0.0349672 363.649C0.702381 350.872 10.9485 336.842 37.7518 323.296C89.7301 297.028 122.067 274.15 132.26 265.618C137.429 251.421 150.51 242.822 167.431 238.046C184.661 233.184 206.417 232.108 229.507 233.328C274.28 235.692 324.831 246.734 358.972 256.534L362.224 257.478L363.175 257.756L363.723 258.581L376.665 277.992C387.426 272.246 396.124 260.829 402.702 248.219C409.656 234.889 414.004 220.686 415.863 211.738L415.892 211.597L415.935 211.462C418.862 202.317 425.032 189.726 434.207 182.169C438.848 178.346 444.387 175.71 450.725 175.636Z" fill="#B8E7EE"/>
<path d="M450.725 175.636L450.644 168.643L450.644 168.643L450.725 175.636ZM470.899 183.776L475.296 178.338L475.296 178.338L470.899 183.776ZM494.429 233.419L501.352 232.433V232.433L494.429 233.419ZM493.992 283.362L487.09 282.235L487.075 282.327L487.062 282.419L493.992 283.362ZM464.779 346.307L470.406 350.46L470.406 350.46L464.779 346.307ZM426.656 388.079L422.044 382.822L417.13 387.133L421.1 392.326L426.656 388.079ZM431.702 397.175L438.145 394.457L438.145 394.457L431.702 397.175ZM436.497 412.092L443.283 410.403L443.283 410.403L436.497 412.092ZM441.222 440.355L448.19 439.755L448.189 439.744L441.222 440.355ZM441.243 440.593L434.275 441.193L434.825 447.587H441.243V440.593ZM441.469 440.593L448.461 440.483L448.352 433.6H441.469V440.593ZM441.627 450.585L434.634 450.695V450.696L441.627 450.585ZM181.711 557.152L181.711 564.146H181.711V557.152ZM76.8231 450.449L83.8156 450.569L83.8156 450.568L76.8231 450.449ZM76.9725 441.686L83.965 441.805L83.9689 441.575L83.9576 441.344L76.9725 441.686ZM76.9256 440.729L83.9108 440.387L83.9104 440.38L76.9256 440.729ZM82.324 405.184L75.6439 403.114L75.6439 403.114L82.324 405.184ZM88.5242 388.511L94.9337 391.309L103.458 371.782L85.0197 382.459L88.5242 388.511ZM16.3768 391.671L19.4602 385.394L19.4586 385.394L16.3768 391.671ZM16.2156 391.592L12.3363 397.411L12.7199 397.667L13.1338 397.87L16.2156 391.592ZM16.0662 391.493L12.1869 397.312L12.1869 397.312L16.0662 391.493ZM0.0349672 363.649L-6.94905 363.284L-6.94906 363.284L0.0349672 363.649ZM37.7518 323.296L34.5973 317.055H34.5973L37.7518 323.296ZM132.26 265.618L136.749 270.98L138.189 269.775L138.831 268.011L132.26 265.618ZM167.431 238.046L165.532 231.316L165.532 231.316L167.431 238.046ZM229.507 233.328L229.875 226.344V226.344L229.507 233.328ZM358.972 256.534L360.923 249.818L360.912 249.815L360.902 249.812L358.972 256.534ZM362.224 257.478L364.19 250.767L364.182 250.764L364.175 250.762L362.224 257.478ZM363.175 257.756L368.996 253.88L367.584 251.761L365.14 251.045L363.175 257.756ZM363.723 258.581L357.902 262.457L357.905 262.46L363.723 258.581ZM376.665 277.992L370.846 281.871L374.364 287.148L379.959 284.161L376.665 277.992ZM402.702 248.219L408.903 251.454V251.454L402.702 248.219ZM415.863 211.738L409.017 210.312L409.016 210.315L415.863 211.738ZM415.892 211.597L409.225 209.487L409.118 209.824L409.046 210.171L415.892 211.597ZM415.935 211.462L409.275 209.33L409.271 209.34L409.268 209.351L415.935 211.462ZM434.207 182.169L429.761 176.77L429.761 176.77L434.207 182.169ZM450.725 175.636L450.806 182.629C455.133 182.579 460.359 184.248 466.502 189.214L470.899 183.776L475.296 178.338C467.307 171.878 459.012 168.546 450.644 168.643L450.725 175.636ZM470.899 183.776L466.502 189.214C478.648 199.035 484.904 216.13 487.505 234.404L494.429 233.419L501.352 232.433C498.584 212.984 491.592 191.513 475.296 178.338L470.899 183.776ZM494.429 233.419L487.505 234.404C490.085 252.535 488.936 270.929 487.09 282.235L493.992 283.362L500.894 284.489C502.926 272.045 504.166 252.206 501.352 232.433L494.429 233.419ZM493.992 283.362L487.062 282.419C484.334 302.463 472.831 323.62 459.152 342.154L464.779 346.307L470.406 350.46C484.601 331.227 497.725 307.795 500.922 284.305L493.992 283.362ZM464.779 346.307L459.152 342.154C446.402 359.43 432.048 374.044 422.044 382.822L426.656 388.079L431.269 393.336C441.933 383.979 456.991 368.637 470.406 350.46L464.779 346.307ZM426.656 388.079L421.1 392.326C422.556 394.231 423.953 396.8 425.259 399.894L431.702 397.175L438.145 394.457C436.577 390.74 434.64 387.008 432.212 383.831L426.656 388.079ZM431.702 397.175L425.258 399.894C426.977 403.968 428.462 408.766 429.711 413.782L436.497 412.092L443.283 410.403C441.928 404.962 440.239 399.418 438.145 394.457L431.702 397.175ZM436.497 412.092L429.711 413.782C432.209 423.816 433.677 434.364 434.256 440.966L441.222 440.355L448.189 439.744C447.56 432.566 445.991 421.279 443.283 410.403L436.497 412.092ZM441.222 440.355L434.255 440.955L434.275 441.193L441.243 440.593L448.211 439.994L448.19 439.755L441.222 440.355ZM441.243 440.593V447.587H441.469V440.593V433.6H441.243V440.593ZM441.469 440.593L434.476 440.704L434.634 450.695L441.627 450.585L448.619 450.474L448.461 440.483L441.469 440.593ZM441.627 450.585L434.634 450.696C435.502 505.37 391.419 550.158 336.737 550.158V557.152V564.146C399.23 564.146 449.611 512.959 448.619 450.474L441.627 450.585ZM336.737 557.152V550.158H181.711V557.152V564.146H336.737V557.152ZM181.711 557.152L181.711 550.158C126.979 550.158 82.8763 505.292 83.8156 450.569L76.8231 450.449L69.8305 450.329C68.7571 512.87 119.161 564.145 181.711 564.146L181.711 557.152ZM76.8231 450.449L83.8156 450.568L83.965 441.805L76.9725 441.686L69.9799 441.567L69.8305 450.33L76.8231 450.449ZM76.9725 441.686L83.9576 441.344L83.9108 440.387L76.9256 440.729L69.9404 441.071L69.9873 442.028L76.9725 441.686ZM76.9256 440.729L83.9104 440.38C83.3747 429.664 85.7254 417.835 89.0042 407.254L82.324 405.184L75.6439 403.114C72.1215 414.481 69.2906 428.073 69.9408 441.078L76.9256 440.729ZM82.324 405.184L89.0042 407.254C90.841 401.327 92.946 395.863 94.9337 391.309L88.5242 388.511L82.1148 385.713C79.9425 390.69 77.65 396.64 75.6439 403.114L82.324 405.184ZM88.5242 388.511L85.0197 382.459C59.0469 397.499 30.9299 391.029 19.4602 385.394L16.3768 391.671L13.2933 397.949C27.4872 404.921 60.7795 412.659 92.0288 394.563L88.5242 388.511ZM16.3768 391.671L19.4586 385.394L19.2975 385.315L16.2156 391.592L13.1338 397.87L13.2949 397.949L16.3768 391.671ZM16.2156 391.592L20.0949 385.773L19.9455 385.674L16.0662 391.493L12.1869 397.312L12.3363 397.411L16.2156 391.592ZM16.0662 391.493L19.9456 385.674C13.0038 381.046 6.54481 373.095 7.01899 364.014L0.0349672 363.649L-6.94906 363.284C-7.79771 379.537 3.43441 391.477 12.1869 397.312L16.0662 391.493ZM0.0349672 363.649L7.01899 364.014C7.48446 355.103 14.7737 342.745 40.9062 329.538L37.7518 323.296L34.5973 317.055C7.12328 330.94 -6.0797 346.641 -6.94905 363.284L0.0349672 363.649ZM37.7518 323.296L40.9062 329.538C93.2121 303.104 126.035 279.949 136.749 270.98L132.26 265.618L127.77 260.255C118.099 268.352 86.2482 290.952 34.5973 317.055L37.7518 323.296ZM132.26 265.618L138.831 268.011C142.894 256.853 153.407 249.271 169.331 244.777L167.431 238.046L165.532 231.316C147.613 236.373 131.964 245.989 125.688 263.225L132.26 265.618ZM167.431 238.046L169.331 244.777C185.489 240.217 206.365 239.109 229.138 240.312L229.507 233.328L229.875 226.344C206.469 225.108 183.833 226.151 165.532 231.316L167.431 238.046ZM229.507 233.328L229.138 240.312C273.198 242.638 323.194 253.54 357.043 263.256L358.972 256.534L360.902 249.812C326.468 239.928 275.363 228.746 229.875 226.344L229.507 233.328ZM358.972 256.534L357.022 263.25L360.274 264.194L362.224 257.478L364.175 250.762L360.923 249.818L358.972 256.534ZM362.224 257.478L360.259 264.19L361.209 264.468L363.175 257.756L365.14 251.045L364.19 250.767L362.224 257.478ZM363.175 257.756L357.354 261.633L357.902 262.457L363.723 258.581L369.545 254.705L368.996 253.88L363.175 257.756ZM363.723 258.581L357.905 262.46L370.846 281.871L376.665 277.992L382.484 274.112L369.542 254.701L363.723 258.581ZM376.665 277.992L379.959 284.161C392.561 277.432 402.081 264.531 408.903 251.454L402.702 248.219L396.501 244.985C390.167 257.127 382.291 267.06 373.371 271.823L376.665 277.992ZM402.702 248.219L408.903 251.454C416.197 237.47 420.74 222.642 422.71 213.161L415.863 211.738L409.016 210.315C407.267 218.73 403.114 232.308 396.501 244.985L402.702 248.219ZM415.863 211.738L422.71 213.164L422.739 213.024L415.892 211.597L409.046 210.171L409.017 210.312L415.863 211.738ZM415.892 211.597L422.56 213.708L422.603 213.572L415.935 211.462L409.268 209.351L409.225 209.487L415.892 211.597ZM415.935 211.462L422.596 213.593C425.336 205.031 430.962 193.901 438.653 187.567L434.207 182.169L429.761 176.77C419.101 185.55 412.387 199.602 409.275 209.33L415.935 211.462ZM434.207 182.169L438.653 187.567C442.417 184.467 446.467 182.68 450.807 182.629L450.725 175.636L450.644 168.643C442.307 168.74 435.279 172.225 429.761 176.77L434.207 182.169Z" fill="#8ACAF0" mask="url(#path-1-inside-1_1374_241)"/>
<path d="M420.671 381.378L399.268 331.437C412.11 327.87 432.086 298.619 437.794 290.771C443.501 282.923 453.49 257.239 453.49 228.701C453.49 200.164 466.331 196.597 470.612 196.597C474.037 196.597 477.746 204.682 479.173 208.725C497.723 254.385 485.594 277.215 477.746 310.034C471.468 336.288 437.08 368.536 420.671 381.378Z" fill="white" stroke="white" stroke-width="1.42688"/>
<path d="M114.607 338.571C111.754 342.566 101.528 365.444 96.7715 376.383C68.2339 403.208 27.8056 388.511 11.1587 377.81C22.3359 377.81 45.2611 377.524 47.5441 376.383C50.3979 374.956 74.6549 367.108 84.643 348.559C94.6312 330.009 126.023 301.472 128.876 298.618C131.159 296.335 133.157 297.667 133.87 298.618C131.017 300.758 118.175 333.577 114.607 338.571Z" fill="white" stroke="white" stroke-width="1.42688" stroke-linejoin="round"/>
<circle cx="262.652" cy="399.797" r="120.056" fill="white"/>
<path d="M258.394 2.72559C355.168 2.72569 432.858 69.6303 432.858 151.294C432.858 232.958 355.168 299.862 258.394 299.862C161.619 299.862 83.9277 232.958 83.9277 151.294C83.9278 69.6302 161.619 2.72559 258.394 2.72559Z" fill="#B8E7EE" stroke="#8ACAF0" stroke-width="5.45204"/>
<path d="M117.696 141.558C120.655 104.791 146.429 76.8677 175.264 79.1885C202.91 81.4137 223.331 110.632 222.361 145.44C234.096 145.886 246.574 146.209 259.757 146.209C279.191 146.209 297.337 144.956 313.984 143.294C313.35 111.56 330.921 84.6118 356.496 80.6416C385.081 76.2043 412.841 102.155 418.5 138.604C418.608 139.303 418.707 140.001 418.797 140.698C425.325 145.178 428.77 152.771 428.77 164.924C428.77 218.37 362.134 296.14 259.757 296.141C157.381 296.141 97.5591 233.732 97.5591 180.285C97.5591 162.208 104.403 152.462 117.422 147.479C117.445 145.523 117.536 143.547 117.696 141.558Z" fill="white"/>
<path d="M258.394 110.404C274.8 110.404 289.553 113.626 300.151 119.373C310.745 125.117 317.003 133.254 317.003 143.116C317.003 153.094 310.613 163.985 299.954 172.442C289.329 180.871 274.631 186.732 258.394 186.732C242.218 186.732 227.537 179.894 216.892 170.446C206.21 160.965 199.785 149.039 199.785 139.027C199.785 129.223 205.971 122.11 216.544 117.374C227.148 112.624 241.922 110.404 258.394 110.404Z" fill="#F1D453" stroke="#E1BA43" stroke-width="2.72602"/>
<path d="M220.231 149.931C220.231 149.931 237.95 162.198 261.121 162.198C284.292 162.198 299.285 149.931 299.285 149.931" stroke="#583921" stroke-width="4.08903" stroke-linecap="round"/>
<path d="M157.53 129.485C157.53 129.485 160.256 122.67 169.797 122.67C179.338 122.67 182.064 129.485 182.064 129.485" stroke="#583921" stroke-width="4.08903" stroke-linecap="round"/>
<path d="M337.448 129.485C337.448 129.485 340.174 122.67 349.715 122.67C359.256 122.67 361.982 129.485 361.982 129.485" stroke="#583921" stroke-width="4.08903" stroke-linecap="round"/>
<path d="M159.638 536.536C178.506 536.536 194.774 538.029 206.578 540.915C212.49 542.36 217.14 544.12 220.412 546.122C223.563 548.049 225.137 550.01 225.656 551.859C225.665 554.354 225.744 556.463 225.057 558.593C224.399 560.632 222.952 562.86 219.318 564.989C215.592 567.172 209.604 569.224 199.984 570.714C190.392 572.201 177.351 573.107 159.638 573.107C141.924 573.107 128.883 572.201 119.29 570.714C109.671 569.224 103.682 567.172 99.9561 564.989C96.3228 562.86 94.8751 560.632 94.2178 558.593C93.5286 556.456 93.6092 554.34 93.6172 551.834C94.1454 549.717 95.7558 547.641 98.8848 545.687C102.135 543.657 106.763 541.93 112.671 540.546C124.471 537.783 140.738 536.536 159.638 536.536Z" fill="#B8E7EE" stroke="#8ACAF0" stroke-width="5.39006"/>
<path d="M369.443 536.536C388.312 536.536 404.579 538.029 416.384 540.915C422.295 542.36 426.946 544.12 430.218 546.122C433.369 548.049 434.943 550.01 435.462 551.859C435.47 554.354 435.549 556.463 434.862 558.593C434.205 560.632 432.757 562.86 429.124 564.989C425.398 567.172 419.409 569.224 409.79 570.714C400.198 572.201 387.157 573.107 369.443 573.107C351.73 573.107 338.688 572.201 329.096 570.714C319.476 569.224 313.488 567.172 309.762 564.989C306.128 562.86 304.681 560.632 304.023 558.593C303.334 556.456 303.415 554.34 303.423 551.834C303.951 549.717 305.561 547.641 308.69 545.687C311.941 543.657 316.569 541.93 322.477 540.546C334.277 537.783 350.544 536.536 369.443 536.536Z" fill="#B8E7EE" stroke="#8ACAF0" stroke-width="5.39006"/>
</svg>
