<svg width="313" height="384" viewBox="0 0 313 384" fill="none" xmlns="http://www.w3.org/2000/svg">
<mask id="path-1-inside-1_142_220" fill="white">
<path fill-rule="evenodd" clip-rule="evenodd" d="M255.913 206.516C262.659 201.217 271.668 197.704 282.477 200.289C287.891 201.584 291.846 204.102 294.581 207.43C297.298 210.737 298.695 214.703 299.252 218.729C300.356 226.714 298.215 235.307 295.951 240.778L295.867 240.981L295.744 241.162C290.678 248.673 275.971 263.456 254.918 267.459L255.697 297.811C256.708 337.223 225.034 369.72 185.608 369.72H140.647C102.401 369.72 71.2109 339.068 70.5458 300.827L70.1463 277.871C62.0226 277.335 51.327 275.457 42.1961 271.277C31.734 266.486 22.758 258.364 22.9989 245.346C23.2197 233.423 25.1434 226.607 27.6102 222.488C30.1351 218.273 33.202 217.052 34.369 216.331C41.3886 211.996 58.8091 208.837 75.2137 227.065C76.7669 228.79 79.6491 230.352 83.9774 231.615C88.2504 232.863 93.6691 233.745 99.9999 234.301C112.656 235.412 128.672 235.198 145.853 234.169C179.69 232.143 217.761 226.973 242.939 222.753C245.294 217.872 249.689 211.404 255.913 206.516Z"/>
</mask>
<path fill-rule="evenodd" clip-rule="evenodd" d="M255.913 206.516C262.659 201.217 271.668 197.704 282.477 200.289C287.891 201.584 291.846 204.102 294.581 207.43C297.298 210.737 298.695 214.703 299.252 218.729C300.356 226.714 298.215 235.307 295.951 240.778L295.867 240.981L295.744 241.162C290.678 248.673 275.971 263.456 254.918 267.459L255.697 297.811C256.708 337.223 225.034 369.72 185.608 369.72H140.647C102.401 369.72 71.2109 339.068 70.5458 300.827L70.1463 277.871C62.0226 277.335 51.327 275.457 42.1961 271.277C31.734 266.486 22.758 258.364 22.9989 245.346C23.2197 233.423 25.1434 226.607 27.6102 222.488C30.1351 218.273 33.202 217.052 34.369 216.331C41.3886 211.996 58.8091 208.837 75.2137 227.065C76.7669 228.79 79.6491 230.352 83.9774 231.615C88.2504 232.863 93.6691 233.745 99.9999 234.301C112.656 235.412 128.672 235.198 145.853 234.169C179.69 232.143 217.761 226.973 242.939 222.753C245.294 217.872 249.689 211.404 255.913 206.516Z" fill="#FFFBE8"/>
<path d="M255.913 206.516L252.665 202.381L252.665 202.381L255.913 206.516ZM282.477 200.289L283.7 195.175L283.7 195.175L282.477 200.289ZM294.581 207.43L298.644 204.092L298.644 204.092L294.581 207.43ZM299.252 218.729L304.461 218.008L304.461 218.008L299.252 218.729ZM295.951 240.778L291.092 238.767L291.092 238.768L295.951 240.778ZM295.867 240.981L300.221 243.93L300.521 243.486L300.726 242.99L295.867 240.981ZM295.744 241.162L291.39 238.213L291.384 238.222L295.744 241.162ZM254.918 267.459L253.936 262.293L249.546 263.128L249.661 267.594L254.918 267.459ZM255.697 297.811L260.954 297.676V297.676L255.697 297.811ZM185.608 369.72V374.978H185.608L185.608 369.72ZM70.5458 300.827L75.8033 300.736V300.736L70.5458 300.827ZM70.1463 277.871L75.4039 277.78L75.3198 272.943L70.493 272.624L70.1463 277.871ZM42.1961 271.277L40.007 276.058L40.007 276.058L42.1961 271.277ZM22.9989 245.346L17.7414 245.249L17.7414 245.249L22.9989 245.346ZM27.6102 222.488L23.0991 219.787L23.099 219.787L27.6102 222.488ZM34.369 216.331L37.132 220.805L37.1321 220.805L34.369 216.331ZM75.2137 227.065L71.3052 230.582L71.3054 230.583L75.2137 227.065ZM83.9774 231.615L82.5041 236.663L82.5041 236.663L83.9774 231.615ZM99.9999 234.301L99.5399 239.539H99.5399L99.9999 234.301ZM145.853 234.169L146.168 239.418H146.168L145.853 234.169ZM242.939 222.753L243.808 227.939L246.493 227.489L247.675 225.038L242.939 222.753ZM255.913 206.516L259.161 210.651C264.978 206.082 272.377 203.281 281.254 205.403L282.477 200.289L283.7 195.175C270.959 192.128 260.341 196.352 252.665 202.381L255.913 206.516ZM282.477 200.289L281.254 205.403C285.681 206.462 288.591 208.422 290.518 210.768L294.581 207.43L298.644 204.092C295.102 199.781 290.1 196.706 283.7 195.175L282.477 200.289ZM294.581 207.43L290.518 210.768C292.47 213.144 293.583 216.123 294.043 219.449L299.252 218.729L304.461 218.008C303.807 213.284 302.126 208.33 298.644 204.092L294.581 207.43ZM299.252 218.729L294.043 219.449C294.976 226.193 293.145 233.807 291.092 238.767L295.951 240.778L300.81 242.788C303.284 236.808 305.737 227.236 304.461 218.008L299.252 218.729ZM295.951 240.778L291.092 238.768L291.008 238.972L295.867 240.981L300.726 242.99L300.81 242.787L295.951 240.778ZM295.867 240.981L291.514 238.032L291.39 238.213L295.744 241.162L300.098 244.111L300.221 243.93L295.867 240.981ZM295.744 241.162L291.384 238.222C286.858 244.934 273.234 258.624 253.936 262.293L254.918 267.459L255.9 272.625C278.709 268.288 294.499 252.412 300.104 244.103L295.744 241.162ZM254.918 267.459L249.661 267.594L250.44 297.946L255.697 297.811L260.954 297.676L260.174 267.324L254.918 267.459ZM255.697 297.811L250.44 297.946C251.375 334.402 222.077 364.461 185.608 364.462L185.608 369.72L185.608 374.978C227.991 374.978 262.04 340.044 260.954 297.676L255.697 297.811ZM185.608 369.72V364.462H140.647V369.72V374.978H185.608V369.72ZM140.647 369.72V364.462C105.269 364.462 76.4186 336.108 75.8033 300.736L70.5458 300.827L65.2882 300.919C66.0032 342.027 99.5325 374.978 140.647 374.978V369.72ZM70.5458 300.827L75.8033 300.736L75.4039 277.78L70.1463 277.871L64.8887 277.963L65.2882 300.919L70.5458 300.827ZM70.1463 277.871L70.493 272.624C62.7603 272.113 52.7467 270.324 44.3853 266.496L42.1961 271.277L40.007 276.058C49.9072 280.591 61.2849 282.556 69.7997 283.118L70.1463 277.871ZM42.1961 271.277L44.3853 266.496C34.7416 262.08 28.0723 255.393 28.2564 245.443L22.9989 245.346L17.7414 245.249C17.4438 261.335 28.7264 270.892 40.007 276.058L42.1961 271.277ZM22.9989 245.346L28.2564 245.443C28.4695 233.935 30.3315 228.179 32.1214 225.19L27.6102 222.488L23.099 219.787C19.9552 225.036 17.9698 232.912 17.7414 245.249L22.9989 245.346ZM27.6102 222.488L32.1213 225.19C32.9969 223.729 33.9113 222.864 34.6563 222.304C35.0426 222.014 35.4175 221.781 35.7921 221.566C35.9898 221.452 36.1669 221.356 36.3871 221.234C36.5734 221.131 36.8595 220.974 37.132 220.805L34.369 216.331L31.606 211.857C31.7497 211.769 29.7593 212.83 28.3413 213.894C26.6299 215.18 24.7484 217.033 23.0991 219.787L27.6102 222.488ZM34.369 216.331L37.1321 220.805C42.0914 217.742 56.6803 214.332 71.3052 230.582L75.2137 227.065L79.1223 223.547C60.9379 203.342 40.6857 206.25 31.6059 211.857L34.369 216.331ZM75.2137 227.065L71.3054 230.583C73.8388 233.397 77.8542 235.306 82.5041 236.663L83.9774 231.615L85.4507 226.568C81.4439 225.398 79.6951 224.183 79.1221 223.547L75.2137 227.065ZM83.9774 231.615L82.5041 236.663C87.2341 238.044 93.028 238.967 99.5399 239.539L99.9999 234.301L100.46 229.063C94.3102 228.523 89.2667 227.681 85.4507 226.568L83.9774 231.615ZM99.9999 234.301L99.5399 239.539C112.572 240.684 128.883 240.453 146.168 239.418L145.853 234.169L145.539 228.92C128.461 229.943 112.74 230.141 100.46 229.063L99.9999 234.301ZM145.853 234.169L146.168 239.418C180.249 237.377 218.515 232.178 243.808 227.939L242.939 222.753L242.07 217.567C217.007 221.768 179.131 226.909 145.539 228.92L145.853 234.169ZM242.939 222.753L247.675 225.038C249.761 220.714 253.698 214.942 259.161 210.651L255.913 206.516L252.665 202.381C245.681 207.866 240.827 215.03 238.203 220.469L242.939 222.753Z" fill="#FCE9B8" mask="url(#path-1-inside-1_142_220)"/>
<path d="M268.913 36.4668C283.333 36.4668 295.028 48.183 295.028 62.6426C295.028 69.817 292.158 74.8792 287.575 78.2031C282.923 81.5775 276.362 83.2558 268.913 83.2559C261.464 83.2559 254.903 81.5775 250.251 78.2031C245.668 74.8792 242.798 69.817 242.798 62.6426C242.798 48.183 254.494 36.4668 268.913 36.4668Z" fill="#FFFBE8" stroke="#FCE9B8" stroke-width="3.26435"/>
<path d="M40.4082 39.731C25.9888 39.731 14.293 51.4472 14.293 65.9067C14.293 73.0811 17.1634 78.1434 21.7461 81.4673C26.3986 84.8416 32.9592 86.52 40.4082 86.52C47.8572 86.52 54.4178 84.8416 59.0703 81.4673C63.6531 78.1434 66.5234 73.0812 66.5234 65.9067C66.5234 51.4472 54.8277 39.731 40.4082 39.731Z" fill="#FFFBE8" stroke="#FCE9B8" stroke-width="3.26435"/>
<path d="M85.0213 46.2602C49.331 40.1667 38.9576 65.4836 38.2322 78.9037C10.8117 87.1734 12.2987 113.179 16.4699 125.149C14.1123 123.698 3.41233 125.149 1.78032 140.927C0.00873733 158.054 14.475 163.596 24.6307 164.865C9.83234 183.145 27.5324 195.332 38.2322 199.141C38.2322 221.774 63.9843 229.971 76.8604 231.24C89.0473 255.179 114.944 249.557 126.37 243.754C154.226 272.48 184.765 254.272 196.553 241.577C228.762 248.541 241.166 230.334 243.342 220.359C292.961 224.276 291.582 200.592 284.691 188.26C310.37 176.943 301.919 160.331 294.484 153.44C327.127 130.807 303.733 111.003 287.955 103.931C293.178 77.8157 274.172 72.3751 264.017 72.9192C268.804 56.3798 253.68 52.9703 245.519 53.333C244.648 39.4051 228.471 40.2756 220.492 42.4519C210.481 15.9018 188.03 20.8708 178.055 26.6741C154.117 -1.18172 132.173 15.0675 124.194 26.6741C96.7729 17.5339 86.6535 35.9231 85.0213 46.2602Z" fill="#FAB2CD" stroke="#FD83C1" stroke-width="3.26435"/>
<path d="M155.204 58.229C215.434 58.229 259.663 102.829 259.663 150.175C259.663 173.757 248.033 193.147 228.822 206.699C209.578 220.274 182.726 227.976 152.484 227.976C122.169 227.976 97.3792 221.875 80.2158 209.957C63.1326 198.094 53.4648 180.376 53.4648 156.704C53.4651 109.165 95.1716 58.2291 155.204 58.229Z" fill="#FFFBE8" stroke="#FCE9B8" stroke-width="3.26435"/>
<path d="M233.548 144.735L252.046 141.471M230.828 161.057L249.326 168.674" stroke="#F1C67E" stroke-width="10.8812" stroke-linecap="round"/>
<path d="M80.1244 154.528L61.6264 151.264M82.8447 170.85L64.8908 178.467" stroke="#F1C67E" stroke-width="10.8812" stroke-linecap="round"/>
<path d="M153.573 63.126V114.812M124.193 81.0799H181.864M127.458 100.666H179.143" stroke="#F1C67E" stroke-width="10.8812" stroke-linecap="round"/>
<path d="M147.044 47.8925L162.278 34.291" stroke="#E96F91" stroke-width="8.70494" stroke-linecap="round"/>
<path d="M170.982 43.54H190.569" stroke="#F1E488" stroke-width="8.70494" stroke-linecap="round"/>
<path d="M114.944 39.7316L136.163 36.4673" stroke="#FDFCFF" stroke-width="8.70494" stroke-linecap="round"/>
<path d="M97.5352 47.8926L109.859 58.2708" stroke="#F7DF83" stroke-width="8.70494" stroke-linecap="round"/>
<path d="M254.224 3.27948L197.642 42.9958L260.752 87.6086C261.659 62.5819 263.364 11.1139 262.929 5.45572C262.493 -0.202493 256.944 1.64731 254.224 3.27948Z" fill="#F4F1A4" stroke="#F8E26A" stroke-width="3.26435" stroke-linecap="round"/>
<path d="M238.99 14.1606L260.752 47.3482M209.61 49.5245L260.752 27.7621M227.564 26.1299L260.752 80.5358M212.875 35.3789L232.461 65.8462L261.296 47.3482" stroke="#F8E26A" stroke-width="2.17624" stroke-linecap="round"/>
<path d="M185.672 52.7885C192.201 46.6225 206.673 39.187 212.331 58.7732C220.492 56.597 237.031 56.4882 237.902 73.4629C247.332 72.3748 264.56 75.095 258.032 94.6812" stroke="#FD83C1" stroke-width="3.26435"/>
<path d="M212.331 59.4612C206.673 39.875 192.201 47.3105 185.672 53.4765L258.032 95.3692C264.56 75.783 247.332 73.0627 237.902 74.1509C237.031 57.1762 220.492 57.285 212.331 59.4612Z" fill="#FAB2CD"/>
<mask id="path-18-inside-2_142_220" fill="white">
<path d="M172.652 143.036C183.162 143.036 191.683 151.556 191.683 162.066C191.683 172.576 183.163 181.096 172.652 181.096C166.352 181.096 160.768 178.034 157.305 173.318C153.841 178.034 148.257 181.097 141.957 181.097C131.447 181.097 122.927 172.576 122.927 162.066C122.927 151.556 131.447 143.036 141.957 143.036C148.257 143.036 153.841 146.097 157.305 150.813C160.768 146.097 166.353 143.036 172.652 143.036Z"/>
</mask>
<path d="M172.652 143.036C183.162 143.036 191.683 151.556 191.683 162.066C191.683 172.576 183.163 181.096 172.652 181.096C166.352 181.096 160.768 178.034 157.305 173.318C153.841 178.034 148.257 181.097 141.957 181.097C131.447 181.097 122.927 172.576 122.927 162.066C122.927 151.556 131.447 143.036 141.957 143.036C148.257 143.036 153.841 146.097 157.305 150.813C160.768 146.097 166.353 143.036 172.652 143.036Z" fill="#FDFFFB"/>
<path d="M172.652 143.036L172.652 140.441H172.652V143.036ZM191.683 162.066H194.277V162.066L191.683 162.066ZM172.652 181.096V183.691H172.652L172.652 181.096ZM157.305 173.318L159.396 171.782L157.305 168.935L155.213 171.782L157.305 173.318ZM141.957 181.097L141.957 183.692H141.957V181.097ZM122.927 162.066L120.332 162.066V162.066H122.927ZM141.957 143.036V140.441H141.957L141.957 143.036ZM157.305 150.813L155.214 152.349L157.305 155.196L159.396 152.349L157.305 150.813ZM172.652 143.036L172.652 145.63C181.73 145.63 189.088 152.989 189.088 162.066L191.683 162.066L194.277 162.066C194.277 150.123 184.595 140.441 172.652 140.441L172.652 143.036ZM191.683 162.066H189.088C189.088 171.143 181.73 178.501 172.652 178.502L172.652 181.096L172.652 183.691C184.595 183.691 194.277 174.009 194.277 162.066H191.683ZM172.652 181.096V178.502C167.213 178.502 162.392 175.862 159.396 171.782L157.305 173.318L155.213 174.854C159.145 180.207 165.491 183.691 172.652 183.691V181.096ZM157.305 173.318L155.213 171.782C152.217 175.862 147.396 178.503 141.957 178.503V181.097V183.692C149.119 183.692 155.465 180.207 159.396 174.854L157.305 173.318ZM141.957 181.097L141.957 178.503C132.88 178.502 125.521 171.143 125.521 162.066H122.927H120.332C120.332 174.009 130.014 183.692 141.957 183.692L141.957 181.097ZM122.927 162.066L125.521 162.066C125.521 152.989 132.88 145.63 141.957 145.63L141.957 143.036L141.957 140.441C130.014 140.441 120.332 150.123 120.332 162.066L122.927 162.066ZM141.957 143.036V145.63C147.396 145.63 152.218 148.27 155.214 152.349L157.305 150.813L159.396 149.277C155.465 143.925 149.118 140.441 141.957 140.441V143.036ZM157.305 150.813L159.396 152.349C162.392 148.27 167.214 145.63 172.652 145.63V143.036V140.441C165.492 140.441 159.145 143.925 155.214 149.277L157.305 150.813Z" fill="#FAD699" mask="url(#path-18-inside-2_142_220)"/>
<path d="M169.38 147.999C169.38 153.107 162.819 157.792 157.411 157.792C152.002 157.792 145.442 153.107 145.442 147.999C144.898 139.838 152.002 139.294 157.411 139.294C162.819 139.294 169.924 139.294 169.38 147.999Z" fill="#5E3916"/>
<path d="M111.182 348.687C123.426 348.687 133.956 349.994 141.578 352.508C149.252 355.038 153.358 358.564 154.118 362.6C154.125 366.969 154.365 371.311 149.797 374.922C144.922 378.775 134.305 381.989 111.182 381.989C88.0581 381.989 77.4411 378.775 72.5664 374.922C67.9939 371.308 68.2378 366.961 68.2441 362.588C69.0067 358.119 73.1225 354.599 80.7637 352.186C88.3814 349.78 98.9095 348.687 111.182 348.687Z" fill="#FFFBE8" stroke="#FCE9B8" stroke-width="3.5056"/>
<path d="M96.2832 367.967V379.36" stroke="#FCE9B8" stroke-width="3.5056" stroke-linecap="round"/>
<path d="M109.429 367.967V379.36" stroke="#FCE9B8" stroke-width="3.5056" stroke-linecap="round"/>
<path d="M121.698 367.967V379.36" stroke="#FCE9B8" stroke-width="3.5056" stroke-linecap="round"/>
<path d="M212.844 348.687C225.089 348.687 235.618 349.994 243.24 352.508C250.914 355.038 255.02 358.564 255.78 362.6C255.787 366.969 256.027 371.311 251.459 374.922C246.584 378.775 235.967 381.989 212.844 381.989C189.72 381.989 179.103 378.775 174.229 374.922C169.656 371.308 169.9 366.961 169.906 362.588C170.669 358.119 174.785 354.599 182.426 352.186C190.043 349.78 200.572 348.687 212.844 348.687Z" fill="#FFFBE8" stroke="#FCE9B8" stroke-width="3.5056"/>
<path d="M197.944 367.967V379.36" stroke="#FCE9B8" stroke-width="3.5056" stroke-linecap="round"/>
<path d="M211.091 367.967V379.36" stroke="#FCE9B8" stroke-width="3.5056" stroke-linecap="round"/>
<path d="M223.36 367.967V379.36" stroke="#FCE9B8" stroke-width="3.5056" stroke-linecap="round"/>
<ellipse cx="160.26" cy="302.237" rx="39.4379" ry="32.4268" fill="#FCE9B8"/>
<circle cx="122.633" cy="135.367" r="7.46434" fill="#603C1F"/>
<circle cx="189.482" cy="135.367" r="7.46434" fill="#603C1F"/>
</svg>
