<svg width="393" height="302" viewBox="0 0 393 302" fill="none" xmlns="http://www.w3.org/2000/svg">
<path d="M0 18.8889C0 18.8889 113.5 -23.6111 197.5 18.8889C281.5 61.3888 395 18.8889 395 18.8889V301.889H0V18.8889Z" fill="#68C0FF"/>
<path d="M-27 75.5977C-19.7308 69.7321 -8.82692 58.8464 17.2212 72.1C43.2692 85.3536 51.75 67.1038 71.1346 65.1053C90.5192 63.1067 99 75.5977 99 75.5977" stroke="#A9DBFF" stroke-width="8" stroke-linecap="round"/>
<path d="M-10 176.598C-2.73077 170.732 8.17308 159.846 34.2212 173.1C60.2692 186.354 68.75 168.104 88.1346 166.105C107.519 164.107 116 176.598 116 176.598" stroke="#A9DBFF" stroke-width="8" stroke-linecap="round"/>
<path d="M292 74.6053C298 68.7355 307 57.8421 328.5 71.1051C350 84.3682 357 66.1054 373 64.1054C389 62.1054 396 74.6053 396 74.6053" stroke="#A9DBFF" stroke-width="8" stroke-linecap="round"/>
<path d="M276 180.598C283.269 174.732 294.173 163.846 320.221 177.1C346.269 190.354 354.75 172.104 374.135 170.105C393.519 168.107 402 180.598 402 180.598" stroke="#A9DBFF" stroke-width="8" stroke-linecap="round"/>
</svg>
