<svg width="256" height="495" viewBox="0 0 256 495" fill="none" xmlns="http://www.w3.org/2000/svg">
<path d="M84.907 85.7395C83.841 66.4012 71.868 43.8837 57.4795 30.7254C34.9077 10.0824 8.42152 4.30591 -21.2882 5.28813C-23.0671 5.34656 -25.054 5.56261 -26.6157 6.45324C-27.609 8.90321 -11.169 26.5419 -8.85442 30.4538C-1.51313 30.9345 4.5017 31.2614 11.6443 33.4632C5.90497 35.3744 2.15476 37.2638 -3.26869 39.9726C4.73285 48.7781 13.2585 57.0976 21.5918 65.5866C22.7694 66.7862 23.8919 67.8525 25.2361 68.8684L25.4875 69.0615C25.5385 69.0991 25.59 69.1367 25.641 69.1743C31.0942 68.9188 36.4694 68.8033 41.8316 69.9542C39.6346 71.1201 34.5258 73.7791 32.9137 75.3157C12.2534 66.187 -14.4809 65.7449 -35.5395 73.9099C-52.9026 80.6765 -68.2019 91.8513 -79.9278 106.333C-82.0992 108.977 -86.0715 114.245 -87.4424 117.398C-87.6748 117.941 -87.8885 118.492 -88.0759 119.052C-79.3874 120.112 -63.4848 120.337 -54.2997 120.567C-50.5 114.871 -43.9808 110.256 -38.6597 106.093C-40.3259 111.42 -41.8617 117.043 -43.5679 122.282C-35.8998 123.37 -8.03894 122.999 0.166124 121.93C3.8256 117.539 7.80527 112.524 12.5488 109.345C12.1721 110.963 11.7438 112.622 11.3757 114.237C10.3402 118.782 7.92932 121.42 12.6658 124.24C8.61763 125.985 5.67073 128.36 2.15091 130.96C-21.5691 148.483 -33.2242 178.691 -34.1302 207.485C-34.2009 209.726 -34.8573 215.575 -32.938 217.049C-30.1712 216.918 -9.50857 202.719 -6.41436 200.14C-5.05557 191.549 -3.62556 188.128 -1.57603 180.121C-0.635874 183.702 2.11316 192.524 3.42237 196.089C15.5922 188.729 26.8904 179.416 38.2584 171.021C37.8286 166.09 38.7942 158.663 39.3641 153.569C40.9798 156.488 44.0972 163.669 46.5019 165C49.7202 165.673 56.7272 159.79 59.5514 157.786C61.0084 156.095 62.296 154.839 64.3409 153.954C65.3925 151.974 72.4287 144.729 74.3712 141.733C76.4529 138.524 78.3609 134.257 80.2398 131.488L80.4285 131.213C82.1531 141.027 83.2571 144.148 87.3696 153.362L89.3363 156.91C92.2109 162.17 99.9777 172.166 104.848 175.668C106.215 176.651 113.903 166.201 115.208 164.722C114.66 171.304 113.747 177.85 112.472 184.33C121.441 195.762 130.855 206.837 140.694 217.529C144.774 212.414 147.245 208.417 149.869 202.346C151.801 211.027 150.029 217.138 150.345 225.07C155.888 231.236 167.307 243.899 173.386 249.171C179.012 238.49 179.797 214.656 179.138 202.667C178.052 182.889 166.163 155.499 150.482 142.711C151.067 138.031 150.665 132.326 150.478 127.551C155.73 134.256 156.313 137.87 160.504 144.296C168.945 146.924 177.895 149.225 186.428 151.608C191.203 152.941 197.273 154.882 202.024 155.397C202.571 149.345 202.095 143.899 200.816 137.948C205.446 142.703 210.285 149.482 212.737 155.675C215.236 156.682 243.249 162.844 245.345 162.47C246.781 159.732 240.193 146.994 238.635 144.074C228.434 124.956 212.875 107.997 193.347 98.2283C178.847 90.6682 155.759 87.0785 139.574 89.098C136.34 85.9554 133.773 83.581 130.299 80.6466C137.511 81.2888 141.646 83.2095 147.354 83.9589C150.745 81.0399 160.857 74.6657 165.174 71.9078C169.705 69.0131 177.157 63.5468 181.421 61.0472C176.384 56.4819 174.512 55.2103 168.677 51.7259C175.561 50.9745 181.47 51.4447 188.344 52.2861C191.979 49.3624 210.722 35.0438 211.182 32.2845C209.473 30.1092 200.207 28.5382 197.214 27.85C157.206 18.6441 112.649 33.6654 92.1104 70.6872C89.4054 75.5629 87.0658 80.6024 84.907 85.7395Z" fill="#5C9359"/>
<path d="M100.116 120.912C94.7069 120.265 88.9943 119.952 83.5421 119.566C82.2532 132.922 86.7884 147.556 94.3163 158.511C97.0993 162.561 101.684 167.975 104.876 171.913C106.774 169.533 114.701 157.912 117.002 158.117C119.133 160.596 116.75 179.891 116.458 184.462C125.229 194.221 131.459 202.573 140.879 212.476C142.216 209.972 148.498 196.756 149.911 196.021L150.622 196.395C153.12 200.027 153.965 211.307 153.945 215.738C154.054 216.646 153.791 221.664 153.744 222.868C157.331 228.692 167.164 238.335 172.377 243.689C180.314 212.684 176.877 179.064 156.351 153.634C143.034 137.137 121.258 123.616 100.116 120.912Z" fill="#86BB73"/>
<path d="M56.1353 92.0364C26.2171 70.9139 -6.4954 63.7299 -40.772 79.7937C-52.9417 85.4972 -67.2108 95.8451 -75.651 106.566C-78.5052 108.945 -81.2437 113.329 -83.098 116.519C-80.2698 116.172 -74.7338 116.663 -71.7105 116.843C-66.4432 117.157 -61.9242 117.312 -56.617 117.124C-53.0344 113.449 -39.2309 100.584 -34.2468 101.26C-33.1976 103.917 -38.8031 116.277 -40.242 119.793C-37.0599 119.354 -29.9737 119.515 -26.4751 119.505C-18.0179 119.483 -10.2375 119.406 -1.79827 118.856C0.383466 116.077 13.581 101.05 17.0927 103.558C17.7339 105.519 14.0214 117.04 13.3075 120.395C22.4394 120.659 27.0033 117.419 35.2997 115.203C47.9825 111.815 65.3396 112.78 78.0833 115.243C73.4413 107.8 67.5251 101.233 60.6052 95.8427C59.5067 94.6425 57.4569 93.0986 56.1353 92.0364Z" fill="#86BB73"/>
<path d="M56.1348 92.0361C26.2166 70.9136 -6.49597 63.7296 -40.7726 79.7934C-52.9423 85.4969 -67.2113 95.8448 -75.6515 106.565C-73.393 107.559 -70.012 103.742 -68.2364 102.307C-30.4779 71.8131 13.5228 68.6403 55.3101 93.2856L56.1348 92.0361Z" fill="#9CD087"/>
<path d="M60.6048 95.8427C59.5064 94.6424 57.4566 93.0985 56.135 92.0363L55.3103 93.2859C56.7508 94.2688 58.2668 95.3893 59.8593 96.0632L60.6048 95.8427Z" fill="#9CD087"/>
<path d="M163.379 92.9338C162.923 92.8513 162.465 92.7782 162.006 92.7139C142.274 89.9627 119.835 95.1175 102.683 104.976C96.8061 108.354 91.5188 112.528 86.1127 116.6C106.314 114.986 132.288 126.986 147.677 139.787C147.857 134.769 145.947 124.36 146.761 121.446C147.807 120.644 147.301 120.831 148.706 120.813C153.81 124.079 159.322 135.891 162.156 141.25C166.712 142.775 174.161 144.847 178.768 146.066C184.487 147.943 194.094 150.317 199.817 151.581C199.365 149.337 196.728 133.749 197.221 132.467C198.36 131.782 197.835 131.926 199.243 132.001C204.984 135.801 212.368 146.743 215.526 152.851C221.58 155.455 235.418 157.971 241.947 158.932L241.886 158.73C239.013 149.502 231.244 136.531 225.258 128.956C213.453 114.019 196.904 101.424 178.589 95.7126C174.123 94.3195 167.982 93.4974 163.379 92.9338Z" fill="#86BB73"/>
<path d="M66.7433 116.127C65.6038 115.831 62.5949 115.632 61.3363 115.58C38.1202 114.801 15.5096 123.076 -1.7181 138.658C-17.641 153.323 -25.834 172.782 -30.2423 193.848C-31.3376 199.081 -31.4474 207.745 -31.6814 213.262C-24.5122 207.712 -16.7238 204.838 -9.69579 197.885L-8.25578 192.014C-7.89423 189.088 -3.65373 173.803 -1.00185 173.339C1.98013 174.765 2.25501 183.227 3.24563 186.411C3.91102 188.55 4.03777 188.999 5.09657 191.14C11.6804 186.812 18.3013 181.602 24.7647 177.046C27.8465 174.873 31.781 171.634 35.0215 169.958C35.4583 162.451 35.4489 151.968 39.1957 145.687C41.3131 148.159 45.3672 157.726 47.4529 161.53C48.0917 161.278 48.7154 160.989 49.3207 160.664C59.545 155.207 71.6082 141.92 76.266 131.273C77.8574 127.634 79.227 122.866 80.3604 119.031C77.4485 118.721 70.2496 116.783 66.7433 116.127Z" fill="#86BB73"/>
<path d="M198.216 31.2514C177.839 25.0415 147.028 29.323 128.355 39.6629C114.079 47.568 101.46 60.4252 93.8353 74.809C92.3115 77.1172 90.3654 80.8887 89.4356 83.5095C87.1418 87.8097 85.1847 94.8723 85.2704 99.7094C85.3187 102.422 83.5837 111.332 84.7028 113.091C85.7672 112.774 92.3157 107.327 94.1836 106.198C107.863 97.9309 121.351 91.2626 137.385 90.0946C134.431 88.023 124.67 81.893 123.763 79.4998C125.054 74.3616 145.54 81.325 147.243 80.1046C154.53 74.8844 168.613 65.3327 175.962 60.6719C173.199 58.6812 161.331 52.3121 162.462 49.438C166.307 46.4218 181.947 48.0606 187.561 48.3548C192.925 44.7505 201.244 37.6368 205.521 32.9903L198.216 31.2514Z" fill="#86BB73"/>
<path d="M198.216 31.2514C177.839 25.0415 147.028 29.323 128.355 39.6629C114.079 47.568 101.46 60.4252 93.8352 74.809L94.521 75.8558C96.6484 74.2435 99.7709 68.4099 101.892 66.1286C109.888 57.529 118.336 50.1696 128.84 44.7198C143.835 36.9393 161.546 33.4364 178.269 31.6681C183.769 31.0866 191.564 32.2202 197.232 31.9752C197.621 31.6891 197.949 31.4477 198.216 31.2514Z" fill="#9CD087"/>
<path d="M93.8348 74.809C92.311 77.1171 90.365 80.8887 89.4351 83.5094C93.4701 82.2084 92.0818 78.4964 94.5205 75.8557L93.8348 74.809Z" fill="#9CD087"/>
<path d="M-2.95933 8.39288C-8.7253 7.27859 -16.0284 8.03472 -21.9355 8.48116C-17.2246 13.8681 -12.7451 22.0269 -7.06549 26.6089C-5.52943 27.4063 -2.92009 27.653 -1.35935 27.9137C2.66637 28.5849 15.7507 29.7038 17.4521 33.6015C16.3269 35.858 5.1766 39.6024 2.23962 40.7147C10.4287 50.4098 18.2088 57.5724 27.2387 66.3198C34.8285 66.1691 42.2108 65.9225 49.5323 68.2677L49.8279 68.9189C48.5869 71.7857 40.4567 74.0988 36.8128 76.121C44.11 81.1513 51.0922 84.2476 59.0077 90.1708C68.8401 99.0724 73.5543 102.901 81.2775 114.006C87.219 90.2235 78.499 61.2412 63.6823 42.3616C46.6482 20.6571 23.4483 11.8247 -2.95933 8.39288Z" fill="#86BB73"/>
<path d="M80.4287 131.213L80.2399 131.488C78.3611 134.257 76.4531 138.524 74.3714 141.733C72.4289 144.728 65.3927 151.973 64.341 153.954C62.2962 154.839 61.0086 156.095 59.5515 157.786C59.4949 160.726 56.6544 168.127 55.7343 171.437C32.754 254.095 19.4733 339.873 21.034 425.804C21.1869 434.215 21.9615 442.803 22.1196 451.368C22.2262 452.683 22.3593 453.888 22.3046 455.211C22.5616 460.727 23.0665 465.327 23.7 470.81L24.1062 471.432C25.5843 471.687 25.8823 471.675 27.3602 471.596C30.4467 471.878 37.3388 470.696 40.4739 470.097C53.294 467.65 59.5134 465.511 72.641 467.392C73.6101 467.752 74.9711 468.337 75.9564 468.452C77.4644 469.479 77.9309 469.736 79.8701 469.806C78.9025 465.464 77.8771 461.132 76.7941 456.816C76.5719 455.735 76.4579 454.677 76.3212 453.583C74.4707 446.023 73.1594 437.222 71.9779 429.454C69.3607 413.287 67.5822 396.998 66.649 380.649C66.2611 374.304 65.3508 367.302 65.3421 360.981C65.5072 342.987 64.6913 324.644 65.2567 306.696C65.9645 284.224 68.5593 261.912 72.1784 239.754C74.7778 223.839 76.5208 208.241 80.5859 192.556C82.4811 185.244 83.554 177.516 85.8683 170.228C87.1172 166.094 87.5275 160.814 89.3365 156.91L87.3698 153.361C83.2573 144.148 82.1533 141.027 80.4287 131.213Z" fill="#BC9062"/>
<path d="M66.3631 434.363C62.3449 434.943 58.0775 435.908 54.1832 436.35C44.4246 437.466 34.0683 436.263 24.5054 434.253C25.2363 443.733 25.5984 452.94 26.0386 462.422C26.1719 465.299 26.9682 468.699 27.3596 471.596C30.4461 471.878 37.3382 470.696 40.4733 470.097C53.2934 467.65 59.5128 465.511 72.6404 467.392C72.5203 465.657 70.7578 459.195 70.2506 456.882C68.5325 449.04 67.2494 442.36 66.3631 434.363Z" fill="#E8BE8E"/>
<path d="M80.4284 131.213L80.2397 131.488C78.3609 134.257 76.4528 138.524 74.3711 141.733C72.4287 144.728 65.3925 151.973 64.3408 153.954C63.8048 158.095 60.3071 168 58.8985 172.163C67.5334 175.072 71.6672 176.127 80.7122 176.526C82.8285 169.332 83.6709 159.667 87.3696 153.361C83.2571 144.148 82.1531 141.027 80.4284 131.213Z" fill="#E8BE8E"/>
<path d="M65.5197 430.983C66.7168 430.895 67.0513 430.989 67.8746 430.231C68.3912 426.648 66.5768 416.999 66.1754 412.952C65.4797 406.981 65.0501 400.74 64.3366 394.79C64.0782 392.638 63.6198 383.305 62.9603 382.314L61.9249 382.326C42.5813 383.495 43.6298 385.172 24.3322 380.028C24.1019 388.242 24.3773 397.119 24.3755 405.419C24.3738 412.65 23.7199 424.353 24.4704 431.348C38.001 432.525 51.8085 435.448 65.5197 430.983Z" fill="#E8BE8E"/>
<path d="M58.82 331.202C50.0142 331.307 36.4718 331.142 28.2559 327.821C26.5264 340.855 23.8294 363.806 24.2583 376.77C33.1199 378.448 38.8443 381.051 48.5932 380.518C51.128 380.379 59.3193 378.831 60.59 378.89C61.6673 378.743 61.8435 378.737 62.7574 378.163C63.3363 376.452 62.6118 365.408 62.451 362.782C62.028 356.377 61.7985 349.963 61.7632 343.544C61.762 340.757 62.0528 333.509 61.7328 331.113C60.7228 330.662 59.9493 330.974 58.82 331.202Z" fill="#E8BE8E"/>
<path d="M36.3687 276.894C36.0726 276.771 36.0097 276.857 35.5918 276.915C34.7061 279.421 33.288 292.569 32.8453 296.14C31.653 305.583 30.3027 315.005 28.7954 324.403C38.9905 327.482 46.6326 328.423 57.3188 327.895C58.8593 327.654 60.5473 327.503 62.1095 327.333C62.1923 325.652 62.196 323.802 62.1849 322.11C62.0945 308.016 62.9604 294.209 64.0083 280.167C54.0791 280.767 45.8697 279.05 36.3687 276.894Z" fill="#E8BE8E"/>
<path d="M46.6669 226.508C46.3903 226.475 46.1809 226.603 45.8691 226.712C41.7722 239.264 38.8533 259.188 36.0869 273.014C42.0804 274.961 51.5472 277.315 57.781 277.301C59.7763 277.382 62.1543 277.212 64.1777 277.121C65.4638 262.254 68.488 245.298 70.1961 230.017C60.6239 229.526 55.8747 228.641 46.6669 226.508Z" fill="#E8BE8E"/>
<path d="M58.663 175.13C57.0377 176.904 47.3422 216.733 46.3132 222.578C52.8206 224.812 58.6254 226.852 65.5045 227.427L70.5098 227.634C73.3232 211.561 76.5792 196.432 79.2344 180.038C72.2637 179.464 64.955 178.314 58.663 175.13Z" fill="#E8BE8E"/>
<path d="M60.9692 460.86C49.3981 460.701 45.4301 468.584 34.1139 470.778C27.9563 471.969 17.5055 468.906 14.0842 469.825L13.6764 470.646C15.4887 478.096 35.8964 475.091 41.1049 473.237C51.865 469.214 54.6819 466.817 71.673 467.959C75.3946 469.369 78.7692 470.854 82.3955 472.569C82.9029 472.81 83.3949 472.286 83.8521 471.946C83.8218 470.597 83.7485 470.168 82.6634 469.002C76.8526 462.773 68.5053 461.052 60.9692 460.86Z" fill="#FFCA1C"/>
</svg>
