<svg width="393" height="275" viewBox="0 0 393 275" fill="none" xmlns="http://www.w3.org/2000/svg">
<path d="M93.2253 17.2674C43.8532 -9.20002 26.7241 4.75538 -3 21.5038V280.5H395V12.4554C395 12.4554 372.572 13.4179 358.596 26.8923C344.62 40.3667 296.625 41.056 270.058 26.8923C248.395 15.3428 211.114 -3.90642 171.818 12.4554C132.522 28.8173 116.859 29.9368 93.2253 17.2674Z" fill="#FFDC6A" stroke="#FFCA1C" stroke-width="5"/>
<path d="M-9 99.7927C-4.03846 94.9389 4.23077 83.2544 21.1827 96.8984C38.1346 110.542 44.75 92.764 57.9808 91.1101C71.2115 89.4563 77 99.7928 77 99.7928" stroke="#FFCA1C" stroke-width="4.13462" stroke-linecap="round"/>
<path d="M269 178.172C273.096 174.165 279.923 164.518 293.918 175.782C307.913 187.047 313.375 172.369 324.298 171.004C335.221 169.638 340 178.172 340 178.172" stroke="#FFCA1C" stroke-width="3.41346" stroke-linecap="round"/>
<path d="M60 167.738C66 161.868 76 147.738 96.5 164.237C117 180.737 125 159.238 141 157.238C157 155.238 164 167.738 164 167.738" stroke="#FFCA1C" stroke-width="5" stroke-linecap="round"/>
<path d="M303 83.2171C309 77.3473 318 66.4539 339.5 79.7169C361 92.98 368 74.7172 384 72.7172C400 70.7172 407 83.2171 407 83.2171" stroke="#FFCA1C" stroke-width="5" stroke-linecap="round"/>
</svg>
