<svg width="434" height="619" viewBox="0 0 434 619" fill="none" xmlns="http://www.w3.org/2000/svg">
<path d="M206.511 446.309C150.462 444.44 124.514 392.595 118.545 366.906C48.1732 392.44 13.9731 339.66 5.66968 310.079C-6.7856 270.222 18.6438 230.676 32.9154 215.886C-12.5463 164.196 9.30231 115.984 25.9093 98.339C48.3288 57.2366 104.274 61.4923 129.444 68.7579C142.418 43.3284 181.756 -5.35098 235.314 3.36771C288.871 12.0864 307.969 55.2647 310.824 75.7641C361.89 60.195 401.125 92.6306 414.358 110.795C452.97 173.694 415.396 215.886 391.783 229.12C419.807 256.521 418.51 287.244 414.358 299.181C400.657 362.08 338.07 366.387 308.488 360.678C283.578 434.165 230.124 448.384 206.511 446.309Z" fill="#FF8F57" stroke="#F15B2C" stroke-width="4.67073" stroke-linecap="round"/>
<mask id="path-2-inside-1_1374_264" fill="white">
<path d="M109.986 87.4399C124.793 87.44 137.454 96.6271 142.581 109.612C165.925 97.7793 192.984 91.4602 222.416 93.2993C251.247 95.101 277.307 103.446 299.365 116.299C305.468 106.014 316.683 99.1177 329.511 99.1177C348.857 99.1177 364.541 114.801 364.541 134.148C364.541 145.915 358.739 156.326 349.84 162.678C366.759 187.204 375.544 215.84 373.749 244.559C369.186 317.58 294.073 359.947 201.991 354.193C109.909 348.439 52.3588 307.675 56.9217 234.654C58.7474 205.438 70.8644 176.052 90.6424 151.677C81.1892 145.404 74.9559 134.666 74.9559 122.47C74.9561 103.124 90.6395 87.4399 109.986 87.4399Z"/>
</mask>
<path d="M109.986 87.4399C124.793 87.44 137.454 96.6271 142.581 109.612C165.925 97.7793 192.984 91.4602 222.416 93.2993C251.247 95.101 277.307 103.446 299.365 116.299C305.468 106.014 316.683 99.1177 329.511 99.1177C348.857 99.1177 364.541 114.801 364.541 134.148C364.541 145.915 358.739 156.326 349.84 162.678C366.759 187.204 375.544 215.84 373.749 244.559C369.186 317.58 294.073 359.947 201.991 354.193C109.909 348.439 52.3588 307.675 56.9217 234.654C58.7474 205.438 70.8644 176.052 90.6424 151.677C81.1892 145.404 74.9559 134.666 74.9559 122.47C74.9561 103.124 90.6395 87.4399 109.986 87.4399Z" fill="#FECE6D"/>
<path d="M109.986 87.4399L109.986 82.7692H109.986V87.4399ZM142.581 109.612L138.237 111.327L140.119 116.096L144.693 113.778L142.581 109.612ZM222.416 93.2993L222.707 88.6377V88.6377L222.416 93.2993ZM299.365 116.299L297.013 120.335L301.017 122.668L303.382 118.683L299.365 116.299ZM329.511 99.1177V94.4469H329.511L329.511 99.1177ZM364.541 134.148H369.212V134.148L364.541 134.148ZM349.84 162.678L347.126 158.877L343.385 161.547L345.995 165.33L349.84 162.678ZM373.749 244.559L378.411 244.85V244.85L373.749 244.559ZM201.991 354.193L201.7 358.854L201.7 358.855L201.991 354.193ZM56.9217 234.654L52.2601 234.363V234.363L56.9217 234.654ZM90.6424 151.677L94.2694 154.62L97.5086 150.628L93.2251 147.786L90.6424 151.677ZM74.9559 122.47L70.2852 122.47V122.47H74.9559ZM109.986 87.4399L109.986 92.1107C122.811 92.1107 133.79 100.065 138.237 111.327L142.581 109.612L146.925 107.897C141.118 93.1888 126.775 82.7693 109.986 82.7692L109.986 87.4399ZM142.581 109.612L144.693 113.778C167.325 102.306 193.557 96.1759 222.125 97.961L222.416 93.2993L222.707 88.6377C192.41 86.7445 164.526 93.2524 140.469 105.446L142.581 109.612ZM222.416 93.2993L222.125 97.961C250.228 99.7171 275.582 107.846 297.013 120.335L299.365 116.299L301.717 112.264C279.032 99.0451 252.267 90.4849 222.707 88.6377L222.416 93.2993ZM299.365 116.299L303.382 118.683C308.679 109.756 318.4 103.788 329.511 103.788L329.511 99.1177L329.511 94.4469C314.966 94.447 302.258 102.272 295.348 113.916L299.365 116.299ZM329.511 99.1177V103.788C346.278 103.788 359.87 117.381 359.87 134.148L364.541 134.148L369.212 134.148C369.212 112.222 351.437 94.4469 329.511 94.4469V99.1177ZM364.541 134.148H359.87C359.87 144.342 354.85 153.363 347.126 158.877L349.84 162.678L352.553 166.48C362.628 159.289 369.212 147.488 369.212 134.148H364.541ZM349.84 162.678L345.995 165.33C362.384 189.088 370.81 216.702 369.087 244.268L373.749 244.559L378.411 244.85C380.277 214.977 371.133 185.32 353.684 160.026L349.84 162.678ZM373.749 244.559L369.087 244.268C366.914 279.046 348.003 306.614 318.241 324.939C288.379 343.326 247.591 352.362 202.282 349.531L201.991 354.193L201.7 358.855C248.473 361.777 291.282 352.508 323.138 332.894C355.093 313.219 376.021 283.093 378.411 244.85L373.749 244.559ZM201.991 354.193L202.282 349.531C156.764 346.687 120.416 335.213 96.1125 315.986C72.0279 296.931 59.3939 269.984 61.5834 234.945L56.9217 234.654L52.2601 234.363C49.8866 272.346 63.7462 302.29 90.3165 323.312C116.668 344.16 155.136 355.945 201.7 358.854L201.991 354.193ZM56.9217 234.654L61.5834 234.945C63.3423 206.797 75.0392 178.32 94.2694 154.62L90.6424 151.677L87.0155 148.734C66.6896 173.784 54.1525 204.079 52.2601 234.363L56.9217 234.654ZM90.6424 151.677L93.2251 147.786C85.0199 142.34 79.6266 133.035 79.6266 122.47H74.9559H70.2852C70.2852 136.297 77.3584 148.467 88.0598 155.569L90.6424 151.677ZM74.9559 122.47L79.6266 122.47C79.6268 105.703 93.2191 92.1107 109.986 92.1107V87.4399V82.7692C88.0599 82.7692 70.2854 100.544 70.2852 122.47L74.9559 122.47Z" fill="#F59313" mask="url(#path-2-inside-1_1374_264)"/>
<path d="M256.257 220.412C256.257 220.412 257.522 210.289 270.175 210.289C282.828 210.289 284.094 220.412 284.094 220.412" stroke="#5E3916" stroke-width="5.06125" stroke-linecap="round"/>
<path d="M186.27 186.304C195.092 192.532 214.761 201.251 222.857 186.304C225.809 180.855 229.085 169.875 215.851 169.178C210.921 168.919 201.683 170.891 204.174 180.855C208.066 190.197 220.833 202.963 243.875 188.64" stroke="#603C1F" stroke-width="4.67073" stroke-linecap="round"/>
<ellipse cx="297.592" cy="240.017" rx="18.6829" ry="13.2337" fill="#F78F8B"/>
<ellipse cx="132.558" cy="232.233" rx="18.6829" ry="13.2337" fill="#F78F8B"/>
<rect x="112.318" y="415.17" width="96.5284" height="46.7073" fill="#FECE6D"/>
<mask id="path-9-inside-2_1374_264" fill="white">
<path d="M316.151 318.032C328.858 303.176 344.273 289.84 365.9 295.582C373.136 297.504 378.494 301.291 382.25 306.438C385.941 311.496 387.903 317.612 388.89 323.984C390.838 336.569 389.136 351.533 387.925 364.218C386.164 382.674 376.845 398.122 366.274 410.541C356.405 422.135 345.083 431.484 337.347 438.237V468.733H337.247V516.744C337.247 565.102 298.046 604.304 249.689 604.304H175.264C126.906 604.304 87.7043 565.102 87.7043 516.744V462.021H88.1252V438.238C80.3887 431.485 69.0666 422.135 59.1975 410.541C48.6264 398.122 39.3074 382.674 37.5461 364.218C36.3356 351.533 34.633 336.569 36.5813 323.984C37.5676 317.612 39.5298 311.496 43.2209 306.438C46.9773 301.291 52.3345 297.504 59.5715 295.582C81.1978 289.84 96.6144 303.176 109.321 318.032C116.831 326.813 118.723 337.692 119.68 346.96C120.187 351.87 120.397 355.872 120.922 359.844C121.421 363.617 122.116 366.432 123.2 368.455C123.206 368.46 123.212 368.466 123.218 368.472C123.338 368.579 123.588 368.775 124.032 369.043C124.891 369.56 126.172 370.164 127.931 370.827C131.437 372.15 136.34 373.524 142.409 374.897C154.515 377.634 170.75 380.255 188.581 382.481C196.416 383.459 204.541 384.356 212.736 385.155C220.93 384.356 229.055 383.459 236.89 382.481C254.722 380.255 270.957 377.635 283.063 374.897C289.132 373.524 294.035 372.15 297.54 370.827C299.299 370.164 300.58 369.56 301.439 369.043C301.883 368.775 302.133 368.579 302.253 368.472C302.26 368.466 302.266 368.459 302.272 368.453C303.355 366.431 304.051 363.616 304.549 359.844C305.074 355.872 305.284 351.87 305.791 346.96C306.748 337.692 308.641 326.813 316.151 318.032Z"/>
</mask>
<path d="M316.151 318.032C328.858 303.176 344.273 289.84 365.9 295.582C373.136 297.504 378.494 301.291 382.25 306.438C385.941 311.496 387.903 317.612 388.89 323.984C390.838 336.569 389.136 351.533 387.925 364.218C386.164 382.674 376.845 398.122 366.274 410.541C356.405 422.135 345.083 431.484 337.347 438.237V468.733H337.247V516.744C337.247 565.102 298.046 604.304 249.689 604.304H175.264C126.906 604.304 87.7043 565.102 87.7043 516.744V462.021H88.1252V438.238C80.3887 431.485 69.0666 422.135 59.1975 410.541C48.6264 398.122 39.3074 382.674 37.5461 364.218C36.3356 351.533 34.633 336.569 36.5813 323.984C37.5676 317.612 39.5298 311.496 43.2209 306.438C46.9773 301.291 52.3345 297.504 59.5715 295.582C81.1978 289.84 96.6144 303.176 109.321 318.032C116.831 326.813 118.723 337.692 119.68 346.96C120.187 351.87 120.397 355.872 120.922 359.844C121.421 363.617 122.116 366.432 123.2 368.455C123.206 368.46 123.212 368.466 123.218 368.472C123.338 368.579 123.588 368.775 124.032 369.043C124.891 369.56 126.172 370.164 127.931 370.827C131.437 372.15 136.34 373.524 142.409 374.897C154.515 377.634 170.75 380.255 188.581 382.481C196.416 383.459 204.541 384.356 212.736 385.155C220.93 384.356 229.055 383.459 236.89 382.481C254.722 380.255 270.957 377.635 283.063 374.897C289.132 373.524 294.035 372.15 297.54 370.827C299.299 370.164 300.58 369.56 301.439 369.043C301.883 368.775 302.133 368.579 302.253 368.472C302.26 368.466 302.266 368.459 302.272 368.453C303.355 366.431 304.051 363.616 304.549 359.844C305.074 355.872 305.284 351.87 305.791 346.96C306.748 337.692 308.641 326.813 316.151 318.032Z" fill="#FECE6D"/>
<path d="M316.151 318.032L312.607 315.002L312.607 315.002L316.151 318.032ZM365.9 295.582L367.096 291.076L367.096 291.076L365.9 295.582ZM382.25 306.438L386.017 303.689L386.016 303.689L382.25 306.438ZM388.89 323.984L393.497 323.27V323.27L388.89 323.984ZM387.925 364.218L392.566 364.661V364.661L387.925 364.218ZM366.274 410.541L369.824 413.563V413.563L366.274 410.541ZM337.347 438.237L334.281 434.724L332.684 436.117V438.237H337.347ZM337.347 468.733V473.395H342.009V468.733H337.347ZM337.247 468.733V464.07H332.585V468.733H337.247ZM249.689 604.304V608.966V608.966V604.304ZM87.7043 462.021V457.358H83.0418V462.021H87.7043ZM88.1252 462.021V466.683H92.7877V462.021H88.1252ZM88.1252 438.238H92.7877V436.118L91.1911 434.725L88.1252 438.238ZM59.1975 410.541L55.647 413.563L55.6471 413.563L59.1975 410.541ZM37.5461 364.218L32.9047 364.661L32.9047 364.661L37.5461 364.218ZM36.5813 323.984L31.9736 323.27L31.9736 323.27L36.5813 323.984ZM43.2209 306.438L39.4547 303.689L39.4546 303.689L43.2209 306.438ZM59.5715 295.582L58.3749 291.076L58.3747 291.076L59.5715 295.582ZM109.321 318.032L112.865 315.002L112.865 315.002L109.321 318.032ZM119.68 346.96L124.318 346.481V346.481L119.68 346.96ZM120.922 359.844L116.3 360.455L116.3 360.455L120.922 359.844ZM123.2 368.455L119.091 370.657L119.467 371.359L120.055 371.897L123.2 368.455ZM123.218 368.472L120.122 371.958L120.122 371.959L123.218 368.472ZM124.032 369.043L121.627 373.037L121.627 373.038L124.032 369.043ZM127.931 370.827L126.285 375.19L126.285 375.19L127.931 370.827ZM142.409 374.897L141.381 379.444L141.381 379.444L142.409 374.897ZM188.581 382.481L188.004 387.107V387.107L188.581 382.481ZM212.736 385.155L212.283 389.795L212.736 389.839L213.188 389.795L212.736 385.155ZM236.89 382.481L237.467 387.107V387.107L236.89 382.481ZM283.063 374.897L284.091 379.444L284.091 379.444L283.063 374.897ZM297.54 370.827L299.186 375.19L299.186 375.19L297.54 370.827ZM301.439 369.043L303.844 373.037L303.844 373.037L301.439 369.043ZM302.253 368.472L305.349 371.958L305.359 371.949L302.253 368.472ZM302.272 368.453L305.415 371.897L306.005 371.358L306.382 370.655L302.272 368.453ZM304.549 359.844L309.171 360.455V360.455L304.549 359.844ZM305.791 346.96L301.153 346.481V346.481L305.791 346.96ZM316.151 318.032L319.694 321.063C332.338 306.28 345.996 295.121 364.703 300.089L365.9 295.582L367.096 291.076C342.551 284.558 325.377 300.071 312.607 315.002L316.151 318.032ZM365.9 295.582L364.703 300.089C370.949 301.748 375.383 304.937 378.484 309.186L382.25 306.438L386.016 303.689C381.605 297.644 375.324 293.261 367.096 291.076L365.9 295.582ZM382.25 306.438L378.484 309.186C381.587 313.439 383.364 318.763 384.282 324.697L388.89 323.984L393.497 323.27C392.443 316.461 390.295 309.553 386.017 303.689L382.25 306.438ZM388.89 323.984L384.282 324.697C386.12 336.569 384.518 350.843 383.284 363.775L387.925 364.218L392.566 364.661C393.753 352.223 395.556 336.569 393.497 323.27L388.89 323.984ZM387.925 364.218L383.284 363.775C381.649 380.904 372.975 395.475 362.723 407.519L366.274 410.541L369.824 413.563C380.714 400.77 390.678 384.444 392.566 364.661L387.925 364.218ZM366.274 410.541L362.723 407.519C353.134 418.784 342.139 427.865 334.281 434.724L337.347 438.237L340.413 441.749C348.027 435.103 359.676 425.486 369.824 413.563L366.274 410.541ZM337.347 438.237H332.684V468.733H337.347H342.009V438.237H337.347ZM337.347 468.733V464.07H337.247V468.733V473.395H337.347V468.733ZM337.247 468.733H332.585V516.744H337.247H341.91V468.733H337.247ZM337.247 516.744H332.585C332.585 562.527 295.471 599.641 249.689 599.641V604.304V608.966C300.621 608.966 341.91 567.677 341.91 516.744H337.247ZM249.689 604.304V599.641H175.264V604.304V608.966H249.689V604.304ZM175.264 604.304V599.641C129.481 599.641 92.3668 562.527 92.3668 516.744H87.7043H83.0418C83.0418 567.677 124.331 608.966 175.264 608.966V604.304ZM87.7043 516.744H92.3668V462.021H87.7043H83.0418V516.744H87.7043ZM87.7043 462.021V466.683H88.1252V462.021V457.358H87.7043V462.021ZM88.1252 462.021H92.7877V438.238H88.1252H83.4627V462.021H88.1252ZM88.1252 438.238L91.1911 434.725C83.3327 427.866 72.3373 418.785 62.7479 407.519L59.1975 410.541L55.6471 413.563C65.796 425.486 77.4447 435.104 85.0593 441.75L88.1252 438.238ZM59.1975 410.541L62.7479 407.519C52.4957 395.475 43.8222 380.904 42.1875 363.775L37.5461 364.218L32.9047 364.661C34.7926 384.444 44.7572 400.77 55.647 413.563L59.1975 410.541ZM37.5461 364.218L42.1875 363.775C40.9534 350.843 39.351 336.569 41.1889 324.697L36.5813 323.984L31.9736 323.27C29.9149 336.569 31.7178 352.223 32.9047 364.661L37.5461 364.218ZM36.5813 323.984L41.1889 324.697C42.1075 318.763 43.8838 313.439 46.9872 309.186L43.2209 306.438L39.4546 303.689C35.1758 309.553 33.0278 316.461 31.9736 323.27L36.5813 323.984ZM43.2209 306.438L46.9871 309.186C50.0884 304.937 54.5216 301.748 60.7683 300.089L59.5715 295.582L58.3747 291.076C50.1474 293.261 43.8661 297.644 39.4547 303.689L43.2209 306.438ZM59.5715 295.582L60.7681 300.089C79.4753 295.121 93.1344 306.28 105.778 321.063L109.321 318.032L112.865 315.002C100.095 300.071 82.9203 284.558 58.3749 291.076L59.5715 295.582ZM109.321 318.032L105.778 321.063C112.298 328.687 114.099 338.305 115.042 347.439L119.68 346.96L124.318 346.481C123.347 337.079 121.363 324.938 112.865 315.002L109.321 318.032ZM119.68 346.96L115.042 347.439C115.512 351.987 115.772 356.458 116.3 360.455L120.922 359.844L125.544 359.233C125.023 355.286 124.862 351.754 124.318 346.481L119.68 346.96ZM120.922 359.844L116.3 360.455C116.817 364.372 117.598 367.872 119.091 370.657L123.2 368.455L127.31 366.253C126.635 364.993 126.024 362.862 125.544 359.233L120.922 359.844ZM123.2 368.455L120.055 371.897C120.018 371.863 119.99 371.836 119.978 371.825C119.971 371.819 119.966 371.814 119.965 371.813C119.965 371.812 119.964 371.812 119.965 371.812C119.965 371.813 119.966 371.814 119.968 371.815C119.973 371.82 119.992 371.839 120.016 371.862C120.041 371.885 120.078 371.919 120.122 371.958L123.218 368.472L126.314 364.986C126.355 365.022 126.388 365.053 126.41 365.074C126.421 365.084 126.431 365.093 126.437 365.099C126.443 365.105 126.448 365.11 126.45 365.111C126.451 365.112 126.451 365.113 126.451 365.112C126.451 365.112 126.45 365.111 126.448 365.11C126.446 365.107 126.439 365.101 126.431 365.094C126.423 365.086 126.412 365.075 126.398 365.062C126.384 365.049 126.367 365.033 126.346 365.014L123.2 368.455ZM123.218 368.472L120.122 371.959C120.496 372.29 120.987 372.652 121.627 373.037L124.032 369.043L126.438 365.049C126.317 364.976 126.252 364.931 126.232 364.917C126.211 364.901 126.243 364.923 126.314 364.985L123.218 368.472ZM124.032 369.043L121.627 373.038C122.82 373.756 124.388 374.474 126.285 375.19L127.931 370.827L129.577 366.465C127.956 365.853 126.962 365.365 126.438 365.049L124.032 369.043ZM127.931 370.827L126.285 375.19C130.082 376.623 135.224 378.052 141.381 379.444L142.409 374.897L143.438 370.349C137.456 368.996 132.791 367.678 129.577 366.465L127.931 370.827ZM142.409 374.897L141.381 379.444C153.696 382.229 170.098 384.872 188.004 387.107L188.581 382.481L189.159 377.854C171.402 375.638 155.335 373.039 143.438 370.349L142.409 374.897ZM188.581 382.481L188.004 387.107C195.883 388.091 204.05 388.993 212.283 389.795L212.736 385.155L213.188 380.514C205.032 379.719 196.949 378.827 189.159 377.854L188.581 382.481ZM212.736 385.155L213.188 389.795C221.421 388.993 229.588 388.091 237.467 387.107L236.89 382.481L236.312 377.854C228.522 378.827 220.439 379.719 212.283 380.514L212.736 385.155ZM236.89 382.481L237.467 387.107C255.374 384.872 271.776 382.23 284.091 379.444L283.063 374.897L282.034 370.349C270.137 373.04 254.07 375.638 236.312 377.854L236.89 382.481ZM283.063 374.897L284.091 379.444C290.248 378.052 295.389 376.623 299.186 375.19L297.54 370.827L295.894 366.465C292.68 367.678 288.016 368.996 282.034 370.349L283.063 374.897ZM297.54 370.827L299.186 375.19C301.083 374.474 302.651 373.756 303.844 373.037L301.439 369.043L299.033 365.049C298.509 365.365 297.515 365.853 295.894 366.465L297.54 370.827ZM301.439 369.043L303.844 373.037C304.484 372.652 304.975 372.29 305.349 371.958L302.253 368.472L299.157 364.986C299.228 364.923 299.26 364.901 299.239 364.917C299.219 364.931 299.154 364.976 299.033 365.049L301.439 369.043ZM302.253 368.472L305.359 371.949C305.447 371.871 305.516 371.804 305.561 371.759C305.583 371.736 305.602 371.716 305.615 371.703C305.628 371.69 305.638 371.679 305.641 371.676C305.641 371.676 305.645 371.671 305.643 371.674C305.642 371.675 305.64 371.677 305.637 371.68C305.631 371.686 305.618 371.7 305.601 371.717C305.584 371.735 305.559 371.76 305.529 371.789C305.499 371.818 305.461 371.855 305.415 371.897L302.272 368.453L299.128 365.01C299.081 365.053 299.041 365.091 299.01 365.122C298.978 365.153 298.952 365.179 298.934 365.198C298.924 365.208 298.916 365.216 298.909 365.223C298.903 365.23 298.897 365.236 298.893 365.24C298.889 365.244 298.886 365.247 298.885 365.248C298.885 365.249 298.884 365.249 298.884 365.249C298.884 365.249 298.884 365.249 298.884 365.249C298.884 365.249 298.884 365.249 298.884 365.25C298.884 365.25 298.884 365.249 298.885 365.249C298.886 365.248 298.888 365.245 298.891 365.242C298.895 365.238 298.9 365.233 298.906 365.227C298.917 365.215 298.934 365.197 298.956 365.176C298.977 365.154 299.004 365.128 299.036 365.098C299.067 365.068 299.104 365.033 299.147 364.995L302.253 368.472ZM302.272 368.453L306.382 370.655C307.874 367.869 308.654 364.371 309.171 360.455L304.549 359.844L299.927 359.233C299.447 362.861 298.837 364.992 298.162 366.252L302.272 368.453ZM304.549 359.844L309.171 360.455C309.699 356.458 309.959 351.987 310.429 347.439L305.791 346.96L301.153 346.481C300.609 351.754 300.448 355.286 299.927 359.233L304.549 359.844ZM305.791 346.96L310.429 347.439C311.372 338.305 313.173 328.687 319.694 321.063L316.151 318.032L312.607 315.002C304.109 324.938 302.124 337.078 301.153 346.481L305.791 346.96Z" fill="#F59313" mask="url(#path-9-inside-2_1374_264)"/>
<path d="M206.512 446.309C150.463 444.44 121.337 389.727 115.369 364.038L311.001 360.561C286.09 434.047 230.125 448.385 206.512 446.309Z" fill="#FF8F57" stroke="#F15B2C" stroke-width="4.67073" stroke-linecap="round"/>
<path d="M206.51 441.638C150.461 439.769 119.279 384.906 117.105 357.518L309.695 356.213C284.045 437.51 230.123 443.714 206.51 441.638Z" fill="#FF8F57"/>
<path d="M232.693 224.877C246.989 224.877 258.578 236.466 258.578 250.762C258.578 265.058 246.989 276.647 232.693 276.647C224.125 276.647 216.529 272.482 211.818 266.068C207.107 272.482 199.513 276.647 190.944 276.647C176.649 276.647 165.059 265.058 165.059 250.762C165.059 236.466 176.648 224.877 190.944 224.877C199.513 224.878 207.107 229.042 211.818 235.456C216.53 229.041 224.125 224.877 232.693 224.877Z" fill="#FDFFFB"/>
<path d="M228.242 231.628C228.242 238.576 219.319 244.949 211.962 244.949C204.605 244.949 195.682 238.576 195.682 231.628C194.942 220.528 204.605 219.788 211.962 219.788C219.319 219.788 228.982 219.788 228.242 231.628Z" fill="#5E3916"/>
<circle cx="161.6" cy="215.348" r="10.3602" fill="#603C1F"/>
<path d="M143.481 567.433C161.16 567.433 176.362 569.321 187.367 572.95C198.447 576.603 204.375 581.695 205.472 587.523C205.482 593.83 205.827 600.098 199.232 605.311C192.194 610.874 176.866 615.515 143.481 615.515C110.096 615.515 94.7684 610.874 87.7305 605.311C81.1298 600.094 81.4799 593.82 81.4893 587.507C82.5888 581.054 88.5312 575.97 99.5654 572.486C110.564 569.013 125.763 567.433 143.481 567.433Z" fill="#FECE6D" stroke="#F59313" stroke-width="5.06125"/>
<path d="M121.97 595.271V611.72" stroke="#F59313" stroke-width="5.06125" stroke-linecap="round"/>
<path d="M140.95 595.271V611.72" stroke="#F59313" stroke-width="5.06125" stroke-linecap="round"/>
<path d="M158.664 595.271V611.72" stroke="#F59313" stroke-width="5.06125" stroke-linecap="round"/>
<path d="M290.258 567.433C307.936 567.433 323.138 569.321 334.144 572.95C345.224 576.603 351.151 581.695 352.248 587.523C352.258 593.83 352.604 600.098 346.009 605.311C338.971 610.874 323.643 615.515 290.258 615.515C256.873 615.515 241.545 610.874 234.507 605.311C227.906 600.094 228.256 593.82 228.266 587.507C229.365 581.054 235.308 575.97 246.342 572.486C257.34 569.013 272.54 567.433 290.258 567.433Z" fill="#FECE6D" stroke="#F59313" stroke-width="5.06125"/>
<path d="M268.747 595.271V611.72" stroke="#F59313" stroke-width="5.06125" stroke-linecap="round"/>
<path d="M287.726 595.271V611.72" stroke="#F59313" stroke-width="5.06125" stroke-linecap="round"/>
<path d="M305.44 595.271V611.72" stroke="#F59313" stroke-width="5.06125" stroke-linecap="round"/>
<ellipse cx="211.383" cy="511.272" rx="58.0078" ry="47.0629" fill="#F8A233"/>
</svg>
