<svg width="393" height="506" viewBox="0 0 393 506" fill="none" xmlns="http://www.w3.org/2000/svg">
<path d="M312.445 113.103C329.176 120.074 333.604 149.66 334.513 165.544C335.373 180.541 333.655 199.358 330.292 214.084C326.601 230.238 319.209 248.784 308.63 261.758C299.929 271.822 279.215 283.972 265.555 285.143C262.523 285.403 257.762 284.301 254.732 283.393C237.588 278.258 224.263 267.902 211.333 256.111C211.686 258.115 211.944 261.596 212.166 263.737L213.618 277.983C214.873 290.592 215.953 303.227 217.42 315.807C222.299 357.616 228.005 399.485 231.132 441.467C231.511 446.498 231.974 451.522 232.518 456.536C232.926 460.064 233.628 464.507 233.628 467.908C233.629 493.198 189.995 497.32 176.492 481.763C171.984 476.567 172.259 473.712 171.484 467.285C170.746 461.632 170.177 455.957 169.78 450.269C168.729 437.543 167.938 424.795 167.411 412.036C166.915 394.496 167.056 376.945 167.829 359.413C168.001 349.663 168.675 339.075 169.113 329.294L171.011 283.028C171.513 270.523 171.087 257.327 171.862 245.027C167.678 248.341 162.642 252.371 157.995 255.217C135.592 268.937 107.399 278.378 81.0134 273.036C70.0835 270.823 62.666 263.172 57.0207 254.02C38.5261 224.032 35.8913 180.952 43.7022 147.243C46.5481 134.961 54.0662 114.472 61.7798 104.576C67.8082 98.0128 74.6014 92.3297 82.1534 87.667C101.372 75.8011 114.632 74.4326 135.013 84.2983C158.778 95.802 178.005 113.92 191.888 136.186C201.96 134.556 211.515 135.698 221.224 138.677C234.865 123.336 260.818 113.783 280.788 111.275C290.884 110.006 302.911 109.015 312.445 113.103Z" fill="#562D0B"/>
<path d="M191.969 237.031C197.754 236.655 201.348 237.684 206.346 240.786C207.594 244.004 208.827 256.162 208.872 260.024C209.09 262.29 210.436 273.352 210.218 275.092C211.755 287.348 212.542 299.837 213.92 312.11L222.73 387.725L228.591 446.541C229.026 451.352 230.252 455.334 230.563 460.521C230.796 462.923 230.736 465.501 230.737 467.928C231.395 473.893 226.067 480.189 221.192 483.038C221.749 480.334 222.275 477.739 222.382 474.961C222.437 472.873 222.573 468.793 222.226 466.879C221.213 461.263 219.716 456.176 218.97 450.42C218.015 445.808 217.43 441.126 217.227 436.419C217.085 433.769 217.021 428.95 216.597 426.56C215.574 434.267 216.884 446.917 218.295 454.506C219.962 463.471 221.532 466.933 220.548 476.277C220.289 479.143 219.836 481.246 219.144 484.048C216.612 485.128 211.783 486.929 208.996 487.179L207.923 487.364C205.161 487.914 202.345 488.146 199.53 488.057C196.242 480.937 194.265 474.98 194.856 467.186C194.979 465.586 194.518 463.696 194.76 462.097C194.321 458.606 193.884 454.693 193.146 451.263C192.303 447.331 191.05 443.335 190.105 439.4C188.658 433.469 187.776 427.416 187.466 421.319L186.949 421.388C187.411 426.25 187.411 432.034 188.408 436.752C190.391 446.119 193.309 455.009 193.343 464.727C193.354 468.206 192.992 471.992 193.496 475.433C193.623 475.667 194.028 478.066 194.132 478.526C194.922 481.942 196.277 484.906 197.755 488.048C196.076 487.751 194.408 487.404 192.753 487.006C186.351 485.424 176.448 481.114 175.121 474.04C174.131 468.755 173.743 461.542 173.269 456.039C171.184 433.564 170.11 411.004 170.055 388.431C170.115 374.399 170.934 359.244 171.554 345.165L174.128 280.981C174.509 269.068 174.183 257.099 174.773 245.226C174.864 243.42 181.067 240.628 182.592 239.853C182.421 250.011 183.556 259.976 183.678 270.124C183.718 273.262 184.374 277.593 184.118 280.585C184.378 290.923 185.601 301.601 185.579 312.012C185.574 314.262 185.955 319.658 185.782 321.555L186.212 321.458C187.501 302.814 185.037 286.138 185.223 268.214C185.063 266.417 184.98 264.415 184.867 262.598C184.432 260.654 183.612 250.534 184.637 248.736C184.368 245.518 184.148 242.297 183.977 239.071C186.658 238.107 188.575 237.525 191.398 237.176L191.969 237.031Z" fill="#BC834A"/>
<path d="M182.592 239.853C182.42 250.011 183.555 259.976 183.678 270.124C183.717 273.262 184.374 277.593 184.118 280.585L183.568 281.051C183.449 286.522 182.008 292.878 181.634 298.698C181.125 306.624 181.662 318.395 179.984 325.973L179.753 325.82C180.168 324.512 180.103 323.249 180.199 321.896C180.521 317.409 181.296 312.824 180.845 308.332C180.765 307.529 181.288 306.459 180.939 305.63C180.1 305.954 180.43 305.706 179.881 306.368C178.377 328.604 176.429 350.939 175.028 373.187C174.876 375.563 175.843 378.938 175.802 381.415C176.367 396.195 178.186 411.233 178.814 426.028C179.314 437.784 177.489 444.405 181.726 456.364C181.916 456.524 182.181 456.77 182.377 456.899C183.852 458.796 183.928 466.145 185.89 466.536C187.293 470.04 189.9 473.904 193.495 475.433C193.622 475.667 194.027 478.066 194.132 478.526C194.922 481.942 196.276 484.906 197.754 488.048C196.076 487.751 194.408 487.404 192.753 487.006C186.351 485.424 176.448 481.114 175.121 474.04C174.131 468.755 173.742 461.542 173.269 456.039C171.184 433.564 170.11 411.004 170.055 388.431C170.114 374.399 170.933 359.244 171.554 345.165L174.128 280.981C174.509 269.068 174.182 257.099 174.773 245.226C174.863 243.42 181.067 240.628 182.592 239.853Z" fill="#91592F"/>
<path d="M175.389 406.056C175.792 407.364 174.991 418.262 175.044 420.862C175.057 431.506 176.517 441.765 178.066 452.238C179.655 462.997 181.4 469.489 186.523 479.143C185.571 478.302 184.74 477.332 184.053 476.261C179.141 468.69 177.695 460.78 176.456 452.037C174.361 437.272 172.139 420.813 175.389 406.056Z" fill="#79441E"/>
<path d="M214.267 358.462C214.633 354.242 212.842 344.864 212.378 340.499C211.939 334.887 210.589 325.652 210.315 320.467C210.056 315.554 208.996 276.342 210.218 275.092C211.755 287.349 212.542 299.837 213.92 312.11L222.73 387.725L228.591 446.541C229.026 451.353 230.252 455.335 230.563 460.521C230.796 462.923 230.736 465.501 230.737 467.929C231.395 473.893 226.067 480.189 221.192 483.039C221.749 480.335 222.275 477.739 222.382 474.962C222.437 472.873 222.573 468.793 222.227 466.879C221.213 461.263 219.716 456.176 218.97 450.421C220.071 452.023 220.585 457.12 221.242 459.575L221.456 459.804L221.343 459.92L221.415 460.137L221.494 459.971L221.311 459.743L221.454 459.635C220.733 455.267 220.082 450.888 219.507 446.498L219.906 446.535C219.435 441.932 218.913 436.703 219.141 432.079C219.981 415.036 220.876 397.903 219.565 380.861C219.466 379.597 219.22 376.587 218.766 375.497C218.36 370.758 215.703 363.166 214.267 358.462Z" fill="#DEAA72"/>
<path d="M224.263 416.129C225.938 423.153 223.002 432.182 223.672 439.102C224.725 449.978 227.656 458.484 227.106 469.728C227.054 470.435 226.97 470.762 227.224 471.43C226.997 471.363 226.101 471.077 225.924 471.055C225.691 466.99 226.045 462.247 225.471 458.249C224.354 450.473 222.4 443.156 222.509 435.212C222.545 432.464 223.012 430.043 223.321 427.315C223.718 423.593 224.032 419.864 224.263 416.129Z" fill="#A96E3C"/>
<path d="M230.737 467.928C231.394 473.893 226.067 480.189 221.192 483.039C221.749 480.334 222.275 477.739 222.382 474.961C223.616 474.499 224.861 473.59 225.983 472.856L225.886 472.461L226.029 472.091L225.924 471.054C226.101 471.077 226.996 471.362 227.224 471.43C227.78 471.247 230.007 468.661 230.737 467.928Z" fill="#91592F"/>
<path d="M226.03 472.092L226.629 471.828C227.315 472.453 227.594 475.09 227.007 475.83C226.45 475.168 226.251 473.778 225.984 472.857L225.886 472.461L226.03 472.092Z" fill="#79441E"/>
<path d="M218.97 450.42C220.071 452.022 220.585 457.12 221.242 459.574L221.456 459.803L221.343 459.92L221.415 460.136L221.494 459.97L221.311 459.742L221.453 459.635C220.733 455.266 220.082 450.888 219.507 446.497L219.906 446.534C220.389 449.763 223.279 471.42 225.886 472.461L225.984 472.856C224.861 473.59 223.616 474.499 222.382 474.961C222.437 472.873 222.573 468.793 222.226 466.879C221.213 461.263 219.716 456.176 218.97 450.42Z" fill="#CB9153"/>
<path d="M230.563 460.521C230.796 462.923 230.735 465.501 230.737 467.928C230.007 468.661 227.78 471.247 227.224 471.43C226.97 470.761 227.054 470.434 227.106 469.727C229.474 468.699 229.003 463.053 230.563 460.521Z" fill="#CB9153"/>
<path d="M191.969 237.03C197.753 236.655 201.348 237.684 206.346 240.786C207.594 244.004 208.827 256.162 208.872 260.023C206.742 258.849 205.289 258.209 202.933 257.525L201.922 257.489C202.119 259.355 203.64 272.293 203.08 273.165L202.986 273.21C201.694 268.705 201.359 262.192 200.771 257.304C193.618 256.895 188.173 260.861 185.661 267.473C185.541 267.789 185.429 267.952 185.223 268.213C185.063 266.416 184.98 264.415 184.867 262.598C184.432 260.654 183.612 250.534 184.637 248.736C184.368 245.518 184.148 242.296 183.977 239.071C186.658 238.107 188.575 237.525 191.398 237.176L191.969 237.03Z" fill="#91592F"/>
<path d="M200.771 257.304C200.715 254.568 199.437 240.522 200.768 238.609C201.207 239.838 201.069 240.925 201.038 242.243C200.529 244.52 200.771 251.069 201.721 253.356C201.764 254.661 201.925 256.252 201.922 257.489C202.118 259.355 203.64 272.293 203.08 273.166L202.986 273.211C201.693 268.706 201.359 262.192 200.771 257.304Z" fill="#79441E"/>
<path d="M184.637 248.737C185.264 253.122 186.128 258.357 184.867 262.598C184.431 260.655 183.611 250.535 184.637 248.737Z" fill="#79441E"/>
<path d="M201.037 242.243C201.389 242.786 201.321 242.833 201.337 243.499C202.704 245.205 202.45 251.331 201.72 253.357C200.77 251.069 200.529 244.52 201.037 242.243Z" fill="#79441E"/>
<path d="M191.969 237.031C192.255 241.024 193.505 246.73 193.535 250.313L193.282 250.268C192.099 248.053 191.131 239.787 191.398 237.176L191.969 237.031Z" fill="#79441E"/>
<path d="M208.871 260.024C209.09 262.29 210.435 273.352 210.218 275.092C208.996 276.342 210.055 315.553 210.314 320.467C210.589 325.651 211.939 334.887 212.378 340.499C212.842 344.863 214.633 354.242 214.267 358.461C215.703 363.166 218.36 370.758 218.766 375.497C217.321 372.579 215.087 358.348 212.73 357.65L212.457 357.841C211.216 356.371 207.25 343.874 206.513 341.274L205.909 337.707C205.836 334.961 205.64 331.001 205.835 328.348C206.261 322.532 206.954 316.863 207.254 311.007C207.628 303.652 207.038 296.578 206.388 289.254C206.162 286.687 205.633 280.791 204.77 278.47C203.869 277.569 203.043 274.52 202.986 273.211L203.08 273.166C203.64 272.294 202.118 259.356 201.922 257.489L202.933 257.525C205.289 258.21 206.742 258.85 208.871 260.024Z" fill="#B77A44"/>
<path d="M204.77 278.471C204.81 278.177 204.865 278.082 204.964 277.8L205.709 277.956C207.187 287.555 208.658 295.097 208.832 305.045C209.07 318.69 204.984 332.203 209.306 345.469C209.988 347.457 213.258 357.385 214.267 358.462C215.703 363.166 218.36 370.758 218.766 375.497C217.321 372.58 215.088 358.348 212.73 357.65L212.457 357.841C211.216 356.372 207.25 343.874 206.513 341.274L205.909 337.708C205.837 334.961 205.64 331.002 205.835 328.349C206.261 322.532 206.954 316.863 207.254 311.008C207.628 303.653 207.038 296.578 206.388 289.254C206.162 286.688 205.633 280.791 204.77 278.471Z" fill="#91592F"/>
<path d="M201.922 257.489L202.933 257.525C203.029 259.658 203.542 261.478 203.806 263.564L205.709 277.955L204.964 277.8C204.865 278.081 204.81 278.176 204.77 278.47C203.869 277.569 203.044 274.52 202.986 273.211L203.08 273.166C203.64 272.293 202.118 259.356 201.922 257.489Z" fill="#A96E3C"/>
<path d="M217.081 406.417C215.863 411.244 216.773 413.386 216.356 417.937C215.631 425.805 213.949 437.023 214.492 444.689C214.655 447.029 214.954 449.355 215.382 451.657C216.126 455.639 218.763 463.948 216.694 467.3C215.857 466.49 214.206 459.143 213.832 457.516C212.52 451.816 210.59 445.502 210.754 439.643C210.979 431.526 213.104 423.447 214.924 415.578C216.431 407.751 217.098 392.052 216.304 384.265C215.008 373.188 209.945 363.213 206.273 352.917C204.695 348.49 202.445 336.808 201.892 332.168C201.163 326.048 200.943 313.859 202.552 308.268L202.811 308.311C201.935 312.127 203.95 334.237 205.909 337.707L206.513 341.274C207.25 343.874 211.216 356.371 212.457 357.841C213.928 360.14 218.364 374.354 217.813 376.834C217.954 377.979 218.374 383.041 218.617 383.694C218.268 385.484 218.328 388.304 218.365 390.191C218.467 395.524 217.805 400.599 217.162 405.857C217.086 406.48 217.238 405.856 217.081 406.417Z" fill="#DEAA72"/>
<path d="M206.513 341.274C207.249 343.874 211.216 356.371 212.457 357.841C213.927 360.14 218.364 374.354 217.812 376.834C216.16 375.19 212.177 360.964 210.11 357.77C208.861 355.834 205.948 343.333 206.513 341.274Z" fill="#B77A44"/>
<path d="M185.075 352.649L185.145 352.359C186.985 344.487 186.563 333.943 187.826 325.797C188.169 323.579 187.976 316.676 189.12 315.058C188.592 318.307 189.825 322.484 189.311 325.868C189.167 326.81 189.29 328.101 189.187 329.076C189.757 340.124 187.67 350.978 187.227 361.979C186.962 370.226 186.783 378.612 186.853 386.862C186.88 388.682 186.861 390.524 186.93 392.338C186.969 393.393 187.48 395.301 187.343 396.32C184.805 394.244 185.234 373.736 183.605 370.994C183.791 366.724 184.558 356.751 185.075 352.649Z" fill="#DEAA72"/>
<path d="M194.76 462.097C195.432 460.967 195.249 457.678 195.263 456.263C195.338 448.691 194.379 441.252 192.765 433.863C192.163 431.068 190.82 427.203 190.53 424.565C190.978 425.145 192.404 429.76 192.756 430.697C196.995 442 197.155 452.923 196.762 464.807C196.661 467.902 196.535 475.294 197.234 478.145C199.689 478.944 204.948 479.792 207.428 479.271C207.572 481.416 207.955 485.348 207.923 487.364C205.161 487.914 202.345 488.146 199.53 488.057C196.242 480.937 194.265 474.98 194.856 467.187C194.979 465.586 194.517 463.696 194.76 462.097Z" fill="#91592F"/>
<path d="M182.378 456.899C181.714 453.965 181.281 450.985 181.083 447.981C180.337 437.978 180.342 427.496 179.867 417.465C179.385 407.28 178.057 397.06 177.456 386.893C177.371 385.447 176.797 380.964 177.002 379.909L177.252 379.819C178.272 380.744 178.611 388.737 178.756 390.727C179.35 398.858 181.295 408.081 181.578 416.124C182.026 428.846 181.572 441.482 183.042 454.155C183.377 457.218 185.045 463.494 185.89 466.537C183.929 466.145 183.852 458.797 182.378 456.899Z" fill="#79441E"/>
<path d="M220.548 476.278C220.289 479.143 219.836 481.247 219.144 484.048C216.612 485.128 211.783 486.93 208.996 487.18L207.923 487.364C207.955 485.348 207.572 481.416 207.428 479.272L207.482 478.944C207.814 478.895 208.44 478.924 208.801 478.927C209.744 479.296 211.541 479.237 212.545 478.937C213.193 478.365 212.977 478.726 213.085 477.756L213.85 477.744C214.018 478.225 213.981 478.151 214.237 478.613C215.557 478.931 219.159 476.93 220.548 476.278Z" fill="#91592F"/>
<path d="M208.801 478.927C208.91 480.597 209.323 485.758 208.996 487.18L207.923 487.364C207.955 485.348 207.573 481.416 207.428 479.271L207.483 478.944C207.815 478.895 208.44 478.924 208.801 478.927Z" fill="#79441E"/>
<path d="M186.212 321.458C186.32 323.01 185.864 325.29 185.977 326.488C186.54 332.465 183.52 347.72 185.075 352.649C184.558 356.751 183.791 366.724 183.605 370.994C183.19 375.463 182.706 380.822 183.049 385.258C181.607 383.431 182.821 365.172 183.014 361.328C183.425 353.11 183.531 344.556 184.179 336.345C184.565 331.437 185.45 326.535 185.782 321.555L186.212 321.458Z" fill="#885025"/>
<path d="M205.977 458.571L206.075 458.325C206.419 457.444 206.493 457.353 206.508 456.443L206.974 456.247C207.201 457.74 207.497 459.718 207.703 461.188C208.422 466.261 210.667 469.263 212.704 473.734C213.365 475.234 212.27 476.201 213.085 477.755C212.977 478.725 213.193 478.364 212.545 478.936C211.541 479.236 209.744 479.296 208.801 478.927C207.262 471.69 206.566 465.901 205.977 458.571Z" fill="#CB9153"/>
<path d="M204.581 450.294C205.217 452.041 205.686 456.455 205.977 458.572C206.566 465.902 207.262 471.691 208.801 478.927C208.44 478.924 207.814 478.895 207.482 478.944C205.015 473.402 204.723 456.305 204.581 450.294Z" fill="#91592F"/>
<path d="M218.617 383.693C219.459 386.771 218.483 396.305 218.422 399.678C218.385 401.838 219.036 404.21 219.15 406.359C219.22 407.69 219.007 409.686 218.938 411.134L218.72 411.396C218.193 409.798 218.481 406.999 217.525 406.285L217.081 406.417C217.238 405.856 217.086 406.48 217.162 405.857C217.805 400.599 218.467 395.523 218.365 390.191C218.328 388.304 218.268 385.484 218.617 383.693Z" fill="#B77A44"/>
<path d="M186.949 421.388C186.892 419.852 187.058 418.796 187.249 417.273C187.432 418.787 187.608 419.797 187.465 421.32L186.949 421.388Z" fill="#91592F"/>
<path d="M193.37 344.263L192.978 344.59C193.296 343.391 193.118 341.691 193.386 340.353C195.516 329.755 195.87 318.935 196.538 308.194C196.569 307.69 196.942 307.562 197.285 307.404L197.665 307.799C197.752 308.601 197.734 308.651 197.558 309.459L197.513 309.66C196.78 313.37 197.168 318.467 196.949 322.345C196.745 325.952 196.344 329.571 196.006 333.17C195.91 334.211 195.689 337.9 195.419 338.712C196.246 341.651 195.735 343.414 195.835 346.273C196.078 353.136 194.446 359.671 193.924 366.374C193.094 377.064 194.263 388.37 196.613 398.81C197.443 402.264 202.143 415.904 200.691 418.66C201.537 421.403 205.155 439.833 202.872 441.166C203.569 435.682 201.119 429.107 200.239 423.73C198.585 413.62 193.919 404.032 192.06 394.079C189.879 382.401 191.239 369.739 192.146 357.983C192.508 353.274 193.259 349.119 193.37 344.263Z" fill="#945C2D"/>
<path d="M195.418 338.712C196.246 341.651 195.734 343.414 195.835 346.273C196.078 353.136 194.445 359.672 193.924 366.374C193.093 377.064 194.263 388.371 196.612 398.81C197.442 402.264 202.142 415.904 200.69 418.66C199.859 417.306 198.382 411.372 197.828 409.608C196.665 405.905 195.327 402.115 194.404 398.349C192.371 390.067 192.06 381.532 192.447 373.049C192.634 368.936 193.276 364.66 193.433 360.509C193.599 356.13 194.126 351.647 194.485 347.265C194.701 344.648 194.861 341.211 195.418 338.712Z" fill="#B77A44"/>
<path d="M193.37 344.263L192.978 344.59C193.296 343.391 193.118 341.691 193.386 340.353C195.516 329.755 195.87 318.935 196.538 308.194C196.569 307.69 196.942 307.562 197.285 307.404L197.665 307.799C197.752 308.601 197.734 308.651 197.558 309.459L197.513 309.66C197.352 309.831 197.191 310 197.03 310.172C195.939 320.129 195.896 330.159 193.974 340.045C193.755 341.176 193.65 343.324 193.37 344.263Z" fill="#CB9153"/>
<path d="M204.294 372.935C206.482 378.043 207.165 382.142 207.182 387.685C207.194 391.606 207.795 402.347 204.474 404.729C200.06 405.573 199.133 386.803 198.797 383.642C198.125 377.282 198.851 370.85 199.189 364.498C199.377 360.942 199.213 354.567 200.533 351.738L200.844 351.527L201.579 352.258C201.119 352.568 200.523 351.914 200.472 352.889C199.704 367.81 198.62 382.907 201.881 397.631C202.184 398.997 202.832 402.192 203.79 403.205C205.419 402.987 205.974 395.956 206.027 394.593C206.253 389.063 206.315 378.275 203.89 373.277L204.294 372.935Z" fill="#91592F"/>
<path d="M204.82 362.555C205.51 363.337 207.788 369.84 208.282 371.271C212.355 383.029 212.609 396.562 210.615 408.766C210.238 411.09 209.963 414.344 208.998 416.382C208.967 415.646 209.439 412.076 209.559 411.179C210.022 407.716 210.362 404.441 210.571 400.969C211.184 390.872 210.253 382.072 207.559 372.296C206.668 369.059 205.633 365.84 204.82 362.555Z" fill="#91592F"/>
<path d="M194.857 258.997L194.923 259.037C195.698 263.305 195.799 270.929 196.33 275.841C196.79 279.846 197.327 283.842 197.94 287.826C198.631 292.211 200.109 298.99 199.545 303.121C199.331 302.618 198.843 297.312 198.674 296.242C196.957 285.469 194.87 274.847 194.943 263.883C194.95 262.691 194.688 259.93 194.857 258.997Z" fill="#91592F"/>
<path d="M202.882 388.484C201.911 385.525 201.77 374.276 204.064 372.462L204.294 372.935L203.89 373.278C202.461 377.54 203.095 383.842 202.882 388.484Z" fill="#A96E3C"/>
<path d="M94.8468 83.8324C84.2934 94.5054 77.9665 117.493 75.9716 132.079C75.7117 133.978 74.5956 138.756 74.5911 140.225C75.7712 143.151 80.7513 143.01 83.4125 143.152C76.0252 147.068 74.6118 147.101 74.0691 156.284C72.3492 185.384 77.4314 240.88 109.992 251.791C124.531 256.662 153.192 248.583 166.035 241.217C170.494 238.855 176.591 234.591 180.654 231.922C164.488 252.048 131.601 268.318 106.139 270.991C94.6711 272.084 78.7545 272.23 69.5173 264.379C60.5257 256.739 54.4322 244.558 50.6414 233.563C50.1817 232.23 48.7484 227.784 48.8101 226.625L49.3902 226.744C49.1233 225.556 48.1457 224.304 47.7914 223.092C41.7368 202.412 41.4284 177.42 44.9359 156.426C45.6285 152.401 46.5074 148.41 47.5697 144.466C48.0548 142.647 49.2263 138.819 49.4399 137.225L50.1083 135.67C53.2254 126.807 58.2034 113.858 64.0437 106.476C68.3625 101.018 77.4943 94.2765 83.38 90.4557C87.0392 88.0801 91.3176 86.1106 94.8468 83.8324Z" fill="#9B6336"/>
<path d="M50.1083 135.67C50.3361 135.612 50.5638 135.554 50.7915 135.497C51.5914 134.211 52.869 132.111 53.7021 130.95C55.4871 128.462 57.4237 125.813 59.4374 123.575C63.3827 119.191 68.1665 116.554 73.2107 113.73L73.4015 113.9C72.2684 114.898 68.3731 117.329 66.6359 118.609C61.5139 122.384 57.0096 127.666 53.4945 132.902C52.5156 134.36 50.4916 138.407 49.9233 138.524L49.4399 137.225L50.1083 135.67Z" fill="#562D0B"/>
<path d="M61.4473 191.786C62.8857 190.036 67.3059 183.684 68.7304 182.798L68.541 182.883L68.6317 183.149L68.3725 183.038L68.2769 183.133L68.464 183.484C66.7454 186.556 64.1754 189.951 62.2324 193.228L63.1996 195.668C64.3224 194.492 65.7773 192.733 67.0463 191.895L67.1112 192.134C65.9955 194.182 65.477 194.873 63.7396 196.425C64.6628 199.446 66.5397 203.123 67.651 206.384C66.1101 204.12 63.4272 198.792 62.2168 196.253C61.0194 197.289 61.1745 200.025 60.787 201.613C61.0226 202.137 61.9381 203.936 61.8721 204.328C61.3925 203.812 61.1319 203.534 60.7135 202.947L59.8839 202.103C59.6307 200.962 58.7491 199.529 58.1438 198.478C56.9145 200.181 54.5897 203.543 53.2281 204.989L53.129 204.806C54.1625 202.609 56.2641 199.556 57.6294 197.462C56.2282 194.871 55.6285 193.301 55.1671 190.43C56.2307 192.361 57.2734 194.488 58.2797 196.464L60.6661 192.852C59.6913 190.37 55.8985 180.559 55.4674 178.468L55.6808 178.284C56.534 179.302 60.6951 189.82 61.4473 191.786Z" fill="#562D0B"/>
<path d="M60.8542 194.773C61.9686 195.531 61.0859 199.467 60.1605 200.067C59.3958 199.538 58.9815 198.257 58.8097 197.36C59.4963 196.501 60.1778 195.639 60.8542 194.773Z" fill="#91592F"/>
<path d="M51.0029 192.127L51.0508 192.416C51.5981 195.885 51.5873 201.73 52.5691 204.833L52.8533 205.001L53.129 204.806L53.228 204.989C54.5897 203.543 56.9145 200.181 58.1437 198.479C58.7491 199.529 59.6307 200.962 59.8838 202.104L60.7135 202.948L60.6246 203.138C59.4595 205.683 58.7902 209.643 55.8693 210.68C52.6308 211.829 50.83 204.007 50.4526 202.022C49.7958 198.559 49.7569 195.403 51.0029 192.127Z" fill="#A96E3C"/>
<path d="M51.0029 192.127L51.0508 192.416C51.5981 195.885 51.5873 201.73 52.5691 204.833L52.8533 205.001L53.129 204.806L53.228 204.989C52.2738 206.272 54.0766 210.283 55.9606 209.392C58.2247 208.321 59.1603 204.322 59.8838 202.104L60.7135 202.948L60.6246 203.138C59.4595 205.683 58.7902 209.643 55.8693 210.68C52.6308 211.829 50.83 204.007 50.4526 202.022C49.7958 198.559 49.7569 195.403 51.0029 192.127Z" fill="#79441E"/>
<path d="M97.5798 265.743C107.228 266.312 119.464 264.16 129.012 262.447C129.646 262.334 130.1 262.185 130.558 262.607L130.392 263C120.411 265.117 110.006 266.748 99.783 266.403C97.3357 266.32 88.9908 266.102 87.2281 265.089C86.7266 264.708 86.8733 264.963 86.7092 264.358C87.3259 263.378 88.4825 262.685 89.4534 261.978C91.6948 263.341 97.1063 265.079 97.5798 265.743Z" fill="#562D0B"/>
<path d="M89.4533 261.978C91.6947 263.341 97.1063 265.078 97.5797 265.743C94.1784 265.806 89.4955 264.966 87.228 265.089C86.7266 264.708 86.8732 264.963 86.7091 264.357C87.3258 263.378 88.4824 262.685 89.4533 261.978Z" fill="#A16738"/>
<path d="M93.8195 245.308L93.9428 245.733C93.4484 248.772 89.204 253.428 86.7352 255.174C81.3145 259.008 76.5474 261.455 69.9095 260.617L69.6481 260.345C70.0628 260.052 73.295 260.097 74.9044 259.574C82.516 257.102 89.8121 252.242 93.8195 245.308Z" fill="#562D0B"/>
<path d="M78.2021 212.265L78.4914 212.882C78.2864 214.331 76.0327 218.731 75.488 220.577C74.188 224.983 74.0583 230.191 71.9153 234.204C70.5243 236.809 68.6305 237.853 65.9248 238.569C65.593 238.146 65.789 238.318 65.3393 238.052C65.8249 237.587 66.0129 237.752 66.6657 237.541C72.6803 235.596 72.4036 226.237 74.2345 220.999C75.6865 216.845 76.0822 215.937 78.2021 212.265Z" fill="#562D0B"/>
<path d="M71.7466 177.421C73.1137 179.58 70.0123 207.203 68.7715 211.467C66.9809 217.622 66.0391 220.182 60.6251 223.371L60.2653 223.303C60.3937 222.823 63.4162 220.772 64.2623 219.521C70.6218 210.118 69.9488 197.3 71.2068 186.386C71.5445 183.457 71.0407 180.236 71.7466 177.421Z" fill="#79441E"/>
<path d="M82.6435 231.462C82.7665 231.795 82.8367 231.843 82.7477 232.219C80.3445 242.437 73.7145 251.094 62.3218 250.261L62.1821 250.03C62.7642 249.647 64.3483 249.979 65.5375 249.821C66.7869 249.653 68.0144 249.346 69.1969 248.904C77.414 245.792 79.5202 238.286 82.6435 231.462Z" fill="#562D0B"/>
<path d="M88.5195 257.543L89.7342 256.648C90.1915 256.308 90.2446 256.199 90.8037 256.214C91.7576 256.655 95.1377 258.334 95.8565 258.546C100.829 260.009 107.423 259.726 112.622 259.687C111.547 260.649 106.837 260.847 105.389 260.712C98.5803 260.071 96.1984 260.471 90.5324 256.694C89.7952 257.192 88.8708 257.693 88.431 258.429L88.5195 257.543Z" fill="#562D0B"/>
<path d="M70.8952 126.776C71.0219 127.429 68.2398 129.789 67.5966 130.402C61.1615 136.54 58.553 142.464 54.2643 149.713L54.0414 149.709C54.1713 149.091 58.5832 141.634 59.1619 140.669C57.6081 140.847 54.9426 148.341 53.5929 149.121C57.929 139.992 63.0835 133.178 70.8952 126.776Z" fill="#562D0B"/>
<path d="M78.2425 99.4674C78.3059 100.098 77.1387 100.81 76.4499 101.31C71.2929 105.061 64.8565 110.318 60.8861 115.377L60.7048 115.195C62.4788 111.409 74.4488 101.654 78.2425 99.4674Z" fill="#562D0B"/>
<path d="M88.5195 257.542L88.431 258.429C86.1254 260.705 81.6631 264.418 79.1313 266.501C81.9402 261.717 84.1598 260.845 88.5195 257.542Z" fill="#79441E"/>
<path d="M76.511 144.192L76.5934 144.465C76.4691 145.071 71.5113 151.59 70.5827 153.153C71.1315 148.996 73.6307 146.914 76.511 144.192Z" fill="#562D0B"/>
<path d="M331.612 172.051C331.599 174.738 331.629 177.387 331.398 180.067C330.979 189.042 330.008 195.632 329.108 204.264L328.939 205.558C327.614 209.963 326.67 215.685 325.358 220.55L325.036 221.872C316.6 249.074 305.057 276.329 271.518 264.159C250.77 256.629 236.753 243.094 224.979 224.928C225.398 223.897 225.833 222.873 226.279 221.853C226.584 220.455 226.961 219.007 227.303 217.613C227.269 217.055 227.968 212.376 228.246 211.725C229.193 212.843 230.208 213.904 231.283 214.901C238.537 221.664 244.211 226.107 253.735 229.588C260.979 232.235 261.68 231.465 268.883 231.222L269.044 230.738C270.723 229.749 271.933 229.293 273.762 228.092C273.921 227.879 275.885 225.948 276.162 225.669C277.461 224.351 278.187 223.4 279.301 221.914C280.701 220.049 281.991 217.756 283.199 215.735C284.392 213.435 286.129 210.127 286.848 207.69C286.913 207.399 287.47 205.949 287.604 205.581C290.853 195.467 291.743 189.199 292.228 178.493C292.462 178.295 293.281 177.553 293.572 177.593C300.189 178.478 307.415 180.008 314.082 179.376C320.137 178.803 326.252 174.864 331.612 172.051Z" fill="#B77A44"/>
<path d="M284.284 222.728C287.783 222.89 291.931 222.116 295.587 221.915C303.958 221.457 309.951 222.037 318.077 223.255C317.358 224.821 314.365 231.847 313.212 232.383C314.358 232.913 315.742 233.706 316.443 234.796L316.295 235.193C313.87 236.215 313.663 235.32 311.981 235.278C311.516 236.752 310.853 237.162 310.088 238.41L309.714 237.544C307.936 237.008 302.018 238.559 300.147 239.187C298.986 239.204 298.886 239.012 298.066 239.533C297.895 240.092 297.865 240.23 297.788 240.811C297.497 240.68 296.554 239.911 296.863 239.824C291.248 241.383 283.938 243.878 277.971 243.639C265.942 243.156 252.506 237.465 241.219 233.275C239.683 232.689 235.944 231.752 235.057 230.972C232.164 228.426 228.858 224.697 226.28 221.853C226.584 220.455 226.961 219.007 227.304 217.613C227.269 217.055 227.968 212.376 228.246 211.724C229.193 212.842 230.209 213.904 231.283 214.901C238.538 221.664 244.211 226.107 253.735 229.587C260.98 232.235 261.68 231.465 268.884 231.222L269.044 230.737C270.723 229.749 271.933 229.293 273.762 228.092C273.921 227.878 275.885 225.948 276.162 225.668C277.462 224.35 278.187 223.399 279.302 221.914C281.583 223.397 279.953 223.184 280.222 224.635C282.23 224.474 282.665 223.934 284.284 222.728Z" fill="#CB9153"/>
<path d="M269.044 230.737C269.911 230.791 270.37 230.776 271.191 231.031C271.484 231.601 271.417 231.3 271.273 231.967C269.312 232.34 267.039 234.003 265.423 234.232C252.806 236.021 240.682 229.664 231.399 221.634C230.062 220.48 228.627 218.602 227.304 217.613C227.269 217.055 227.968 212.376 228.246 211.724C229.193 212.842 230.208 213.904 231.283 214.901C238.538 221.664 244.211 226.107 253.735 229.587C260.979 232.235 261.68 231.465 268.884 231.222L269.044 230.737Z" fill="#91592F"/>
<path d="M271.971 231.465C279.375 232.692 284.45 232.265 291.678 230.952L291.649 231.091C287.04 232.816 282.179 233.165 277.261 232.936C275.397 232.848 273.303 232.418 271.506 232.333L271.971 231.465Z" fill="#91592F"/>
<path d="M273.762 228.092C273.478 230.47 272.13 230.446 271.971 231.466L271.506 232.334L271.273 231.968C271.416 231.3 271.484 231.601 271.191 231.031C270.369 230.777 269.911 230.792 269.044 230.738C270.723 229.749 271.932 229.293 273.762 228.092Z" fill="#A16738"/>
<path d="M331.612 172.051C331.599 174.738 331.629 177.387 331.398 180.066C330.979 189.041 330.008 195.632 329.109 204.263L328.939 205.557C327.192 205.225 323.966 205.073 322.084 204.929C319.397 204.723 313.365 203.78 310.8 203.992L310.242 203.986C308.281 205.003 302.35 204.757 299.704 205.319C298.171 205.647 293.039 206.493 291.819 206.109L290.117 206.481L289.672 205.873L288.296 205.635L287.605 205.581C290.853 195.467 291.743 189.199 292.228 178.493C292.463 178.295 293.281 177.553 293.572 177.592C300.189 178.477 307.415 180.007 314.082 179.375C320.137 178.802 326.253 174.863 331.612 172.051Z" fill="#CB9153"/>
<path d="M331.398 180.067C330.979 189.041 330.008 195.632 329.109 204.264L328.939 205.557C327.192 205.225 323.966 205.073 322.084 204.929C319.397 204.723 313.365 203.78 310.8 203.992L310.242 203.986C308.281 205.003 302.35 204.757 299.704 205.319C298.171 205.647 293.039 206.493 291.819 206.109L290.117 206.482L289.672 205.874L288.296 205.635C291.393 203.49 296.903 202.192 300.64 201.67C301.901 201.494 303.626 201.698 304.752 201.377C303.837 199.763 291.624 201.826 291.474 198.136C295.618 195.678 309.508 196.72 314.422 197.672C317.973 198.359 321.702 199.592 325.243 200.378C325.759 198.737 326.645 196.367 327.173 194.687C328.155 191.558 329.889 182.221 331.398 180.067Z" fill="#B77A44"/>
<path d="M329.108 204.263L328.938 205.557C327.192 205.225 323.966 205.072 322.084 204.929C319.397 204.723 313.365 203.78 310.8 203.992L310.241 203.986C308.28 205.003 302.35 204.756 299.704 205.319C298.171 205.647 293.038 206.493 291.819 206.109L290.117 206.481L289.671 205.873C297.433 204.327 301.273 201.896 310.033 202.477C312.314 202.628 328.679 204.388 329.108 204.263Z" fill="#91592F"/>
<path d="M291.819 206.108C296.468 204.096 305.162 203.203 310.242 203.985C308.28 205.003 302.35 204.756 299.704 205.319C298.171 205.646 293.039 206.492 291.819 206.108Z" fill="#B77A44"/>
<path d="M327.045 188.016L327.238 188.189C327.518 188.895 327.287 189.792 327.173 190.583C320.941 192.163 315.11 191.13 308.78 190.298C308.168 190.204 308.437 190.304 307.983 189.946C309.529 188.486 324.337 187.88 327.045 188.016Z" fill="#B77A44"/>
<path d="M326.45 181.019L326.604 181.224L326.369 181.434C326.284 181.43 326.202 181.428 326.117 181.425L325.7 181.419C322.513 181.356 316.558 182.069 313.098 182.313C312.849 182.069 312.941 182.223 312.858 181.828C314.621 181.371 324.707 180.772 326.45 181.019Z" fill="#A96E3C"/>
<path d="M310.8 203.992C313.365 203.78 319.398 204.723 322.084 204.929C323.967 205.073 327.192 205.225 328.939 205.557C327.614 209.963 326.671 215.684 325.359 220.549C323.527 220.298 321.35 220.054 319.564 219.691C314.866 219.09 311.59 219.08 306.806 219.035C302.471 218.412 296.028 220.411 291.677 220.99C288.476 221.417 282.871 221.994 279.72 221.937C280.328 220.951 283.208 216.562 283.2 215.734C284.393 213.435 286.129 210.127 286.849 207.69C286.914 207.399 287.471 205.949 287.605 205.581L288.296 205.635L289.672 205.873L290.117 206.481L291.819 206.109C293.039 206.493 298.171 205.647 299.705 205.319C302.35 204.757 308.281 205.003 310.242 203.986L310.8 203.992Z" fill="#CB9153"/>
<path d="M310.8 203.992C313.365 203.78 319.398 204.723 322.084 204.929C323.966 205.073 327.192 205.225 328.939 205.557C327.614 209.963 326.671 215.684 325.359 220.549C323.526 220.298 321.349 220.054 319.564 219.691C320.77 215.397 322.424 211.747 323.588 207.019C319.903 206.525 313.945 205.772 310.8 203.992Z" fill="#B77A44"/>
<path d="M289.672 205.873L290.117 206.481C289.035 206.786 287.47 207.013 286.849 207.689C286.913 207.399 287.47 205.949 287.605 205.581L288.296 205.635L289.672 205.873Z" fill="#A96E3C"/>
<path d="M291.383 249.549C292.059 250.469 292.869 251.629 293.577 252.492C284.765 254.852 273.805 251.892 265.166 250.139C257.873 248.658 253.717 246.735 248.087 241.767C256.655 246.329 269.206 250.274 279.083 250.437C282.456 250.493 287.39 249.551 291.075 249.548L291.383 249.549Z" fill="#CB9153"/>
<path d="M293.502 253.093C294.543 253.569 294.387 253.435 295.124 254.556C293.429 255.639 291.399 256.719 289.443 257.184C281.345 259.108 266.591 253.624 259.804 249.544C264.342 250.455 269.14 252.02 273.737 252.91C278.024 253.74 290.186 255.348 293.502 253.093Z" fill="#CB9153"/>
<path d="M304.348 245.794L304.929 246.248C302.799 249.201 301.438 251.055 297.657 251.815C296.819 250.61 295.858 249.409 294.956 248.245C295.196 248.11 295.58 247.887 295.882 247.767C298.227 246.835 300.767 245.742 303.262 245.359C303.704 245.536 304.066 245.681 304.348 245.794Z" fill="#CB9153"/>
<path d="M300.147 239.187C302.018 238.56 307.936 237.008 309.714 237.544L310.088 238.41C309.462 239.418 307.545 242.391 306.779 243.16C304.965 241.862 303.053 240.797 301.108 239.718L300.147 239.187Z" fill="#B77A44"/>
<path d="M325.359 220.549L325.036 221.871C322.474 221.487 308.178 219.78 306.806 219.035C311.589 219.079 314.866 219.09 319.564 219.691C321.349 220.054 323.526 220.298 325.359 220.549Z" fill="#91592F"/>
<path d="M83.3587 128.244C106.522 126.819 121.799 123.565 143.325 136.119C140.164 139.045 140.14 139.976 137.78 142.749L136.612 144.741C135.937 146.028 135.031 147.646 134.446 148.94L133.682 151.172L132.802 153.466C129.948 162.762 129.089 170.41 129.378 180.133L129.364 180.954C130.397 193.176 130.795 200.612 136.262 212.199L136.957 213.548C135.713 213.412 133.041 213.242 131.88 213.51L131.898 213.641L130.994 213.241L130.971 212.69C121.768 212.462 112.876 212.307 103.764 210.777C102.507 210.566 101.246 210.329 99.9869 210.147C99.3494 209.405 98.6417 208.644 97.9845 207.911C96.7344 207.749 95.8841 207.866 95.2287 207.065C94.602 207.073 93.8712 207.012 93.314 207.201C92.3317 208.464 90.0342 207.824 88.3499 208.25C87.2077 208.19 86.5757 208.283 85.663 207.624L84.8985 207.621L83.2179 207.763C82.4346 207.729 81.6541 207.617 80.924 207.806C80.582 207.24 80.5126 206.735 80.6093 206.103C80.0758 202.667 79.2031 198.773 78.6028 195.208C78.5398 195.029 78.2597 193.426 78.2102 193.164L77.3908 186.825C77.1439 182.631 76.695 178.175 76.3951 173.94C76.1619 167.422 75.7258 155.802 77.3025 149.58C77.8153 148.343 82.7179 145.676 84.1053 144.884C85.1806 144.063 86.111 143.076 87.0741 142.121C83.6622 141.266 80.1116 141.134 76.9759 140.261C77.2173 137.648 78.8974 129.575 79.4302 126.645C80.7796 127.552 81.981 128.571 83.453 127.379C83.4398 127.522 83.3957 128.13 83.3587 128.244Z" fill="#CB9153"/>
<path d="M83.3591 128.244C106.523 126.819 121.799 123.565 143.325 136.119C140.164 139.046 140.14 139.977 137.78 142.749L138.965 140.432C137.094 139.745 132.677 139.377 130.472 138.928C123.246 136.735 115.745 135.577 108.194 135.488C103.463 135.429 99.0702 135.825 94.2362 135.518C90.4203 135.276 86.0319 134.191 82.4548 134.152C81.3247 134.073 79.34 133.506 78.1715 133.209C80.1336 132.906 80.9086 132.793 82.8702 132.844C82.8643 131.446 83.1643 129.662 83.3591 128.244Z" fill="#B77A44"/>
<path d="M137.81 135.319C138.252 135.528 138.127 135.467 138.502 135.801C137.719 135.758 134.115 134.335 132.96 133.993C129.206 132.881 126.049 132.059 122.195 131.336L121.671 131.123C125.09 130.578 134.635 133.669 137.81 135.319Z" fill="#79441E"/>
<path d="M129.364 180.954C130.398 193.175 130.796 200.611 136.262 212.198L136.958 213.548C135.714 213.411 133.041 213.242 131.881 213.51L131.898 213.641L130.994 213.241L130.971 212.69C131.141 211.701 128.203 203.977 127.665 202.031L127.279 200.504C126.058 193.005 126.043 190.096 125.741 182.427L125.777 181.935C126.674 182.547 126.831 182.721 127.806 182.39C128.363 181.671 128.599 181.445 129.364 180.954Z" fill="#91592F"/>
<path d="M136.262 212.199L136.958 213.548C135.714 213.411 133.041 213.242 131.88 213.51C131.709 213.362 131.548 213.148 131.397 212.969C132.226 212.371 134.462 212.784 136.262 212.199Z" fill="#79441E"/>
<path d="M129.378 180.133L129.364 180.955C128.598 181.446 128.363 181.671 127.806 182.391C126.83 182.722 126.674 182.548 125.777 181.936L125.741 182.427C124.055 182.34 118.302 183.983 116.06 184.31C112.386 184.847 92.6144 185.297 90.1841 183.591L89.9821 183.012C90.3005 182.546 90.8111 182.163 91.3859 182.178C95.2007 182.28 101.245 180.817 104.753 180.908C107.946 180.99 118.647 179.792 121.01 180.345C122.093 180.399 124.335 180.253 125.502 180.212C126.98 180.677 127.938 180.471 129.378 180.133Z" fill="#B77A44"/>
<path d="M129.378 180.133L129.364 180.954C128.598 181.445 128.363 181.671 127.806 182.391C126.83 182.721 126.674 182.548 125.777 181.935C121.957 182.05 118.174 182.324 114.37 182.693C113.69 182.759 110.76 183.396 110.414 183.112C112.671 181.631 118.667 181.934 121.009 180.345C122.092 180.399 124.335 180.252 125.502 180.212C126.98 180.677 127.938 180.47 129.378 180.133Z" fill="#79441E"/>
<path d="M86.72 190.439C94.6071 191.98 101.145 193.221 109.24 193.538C114.679 193.75 120.085 193.545 125.445 193.692C120.001 195.217 98.0031 195.692 92.098 195.047C90.1079 195.215 83.6882 194.869 81.5278 194.637C80.338 194.667 79.5489 194.541 78.6027 195.207C78.5397 195.028 78.2595 193.426 78.2101 193.163L77.3907 186.824C78.8992 188.628 78.4602 190.283 81.133 190.633C82.9896 190.818 84.899 190.88 86.72 190.439Z" fill="#AA6D3A"/>
<path d="M84.255 193.72C86.8059 194.079 90.2703 193.495 92.0981 195.048C90.108 195.216 83.6883 194.87 81.5278 194.638C80.338 194.668 79.5489 194.542 78.6027 195.208C78.5397 195.029 78.2596 193.426 78.2101 193.164L77.3907 186.825C78.8992 188.629 78.4603 190.284 81.133 190.634C81.54 191.285 83.5954 193.302 84.255 193.72Z" fill="#B77A44"/>
<path d="M77.3911 186.824C78.8996 188.628 78.4606 190.283 81.1334 190.633C81.5404 191.284 83.5958 193.301 84.2554 193.72C82.2644 193.531 79.9977 192.964 78.2105 193.163L77.3911 186.824Z" fill="#A96E3C"/>
<path d="M88.9858 145.395C97.4334 143.442 114.946 149.152 122.799 152.266C120.281 152.616 116.971 152.345 114.576 151.489L114.977 152.301C113.748 152.032 113.4 152.005 112.148 152.208C108.151 150.651 106.001 149.881 101.784 148.998C101.221 148.603 100.638 148.263 100.051 147.905L100.471 147.585C97.5684 146.964 92.4106 146.269 89.4149 146.13C88.9605 145.72 89.1142 145.953 88.9858 145.395Z" fill="#B77A44"/>
<path d="M100.471 147.586C102.391 147.363 111.862 150.762 114.576 151.49L114.977 152.301C113.748 152.033 113.4 152.006 112.148 152.209C108.151 150.651 106.001 149.882 101.784 148.998C101.221 148.603 100.638 148.263 100.051 147.905L100.471 147.586Z" fill="#A96E3C"/>
<path d="M131.163 152.846C131.812 153.008 132.199 153.2 132.802 153.466C129.948 162.762 129.089 170.41 129.378 180.133C127.938 180.471 126.98 180.677 125.502 180.212C125.901 178.003 125.949 175.29 126.335 173.019C127.183 168.04 128.181 162.476 129.584 157.649C129.863 155.585 130.937 154.679 131.163 152.846Z" fill="#91592F"/>
<path d="M93.3141 207.201C92.3318 208.464 90.0344 207.824 88.3501 208.25C87.2079 208.19 86.5758 208.283 85.6631 207.624C88.198 207.279 90.7567 207.138 93.3141 207.201Z" fill="#CB9153"/>
<path d="M133.682 151.172L132.802 153.466C132.199 153.2 131.812 153.008 131.164 152.846C130.938 154.679 129.863 155.585 129.584 157.649C128.634 156.414 116.175 154.679 112.148 152.208C113.4 152.005 113.748 152.033 114.977 152.301L114.576 151.489C116.971 152.345 120.281 152.616 122.799 152.266C125.887 152.366 128.263 152.458 131.327 152.093L131.585 152.121L132.503 152.567C133.257 152.27 133.151 152.073 133.682 151.172Z" fill="#B77A44"/>
<path d="M133.682 151.172L132.802 153.466C132.199 153.2 131.812 153.008 131.163 152.846C123.872 153.605 122.617 153.944 114.977 152.301L114.576 151.489C116.971 152.345 120.28 152.616 122.799 152.266C125.887 152.366 128.263 152.459 131.327 152.093L131.584 152.121L132.503 152.567C133.257 152.27 133.151 152.073 133.682 151.172Z" fill="#91592F"/>
<path d="M83.4532 127.38C83.44 127.522 83.3959 128.131 83.3589 128.244C83.164 129.662 82.8641 131.446 82.87 132.844C80.9083 132.793 80.1334 132.906 78.1713 133.209C79.3398 133.506 81.3244 134.073 82.4546 134.153C82.6927 135.316 82.339 136.523 82.1292 137.74C83.4614 138.575 84.851 139.315 86.2869 139.955C87.9756 140.718 90.6081 140.981 91.4164 142.721L90.9788 142.884C90.8193 142.517 90.8578 142.72 90.903 142.268C88.7137 141.15 83.1572 139.431 81.8757 138.189C81.4391 136.609 82.4024 135.587 81.8872 134.636C81.2899 134.591 80.4066 134.96 79.7959 135.166C80.0614 134.656 80.0245 134.795 80.5156 134.393C79.9585 133.901 79.846 134.029 78.9753 133.871C78.4708 134.403 78.147 136.315 77.8376 137.181C76.0288 142.246 84.7758 139.771 86.7812 141.915C86.9348 143.333 85.4214 144.532 84.3151 145.219L84.1167 145.089L84.1055 144.884C85.1808 144.063 86.1112 143.076 87.0743 142.121C83.6623 141.266 80.1118 141.135 76.9761 140.262C77.2175 137.648 78.8976 129.575 79.4304 126.645C80.7798 127.552 81.9812 128.571 83.4532 127.38Z" fill="#DEAA72"/>
<path d="M76.3953 173.94C77.0284 174.196 77.4828 174.344 78.0498 174.739L78.0826 174.962C78.2644 176.258 78.1986 177.287 78.3587 178.529C78.7485 181.553 79.4695 184.571 80.3147 187.498C82.6052 188.647 84.3416 189.467 86.7203 190.439C84.8993 190.88 82.99 190.819 81.1333 190.634C78.4605 190.283 78.8995 188.628 77.391 186.825C77.144 182.63 76.6952 178.175 76.3953 173.94Z" fill="#BB8049"/>
<path d="M127.279 200.505L127.665 202.032C126.535 202.158 124.713 203.175 123.046 203.395C119.569 203.853 109.064 204.398 106.504 202.455L106.629 202.117C110.19 200.537 119.739 203.219 126.928 200.633L127.279 200.505Z" fill="#B77A44"/>
<path d="M81.5282 194.637C82.1464 197.488 83.7948 202.611 83.7853 204.993C82.9534 205.312 81.4237 205.957 80.6095 206.103C80.076 202.667 79.2033 198.773 78.6031 195.208C79.5493 194.541 80.3384 194.667 81.5282 194.637Z" fill="#DEAA72"/>
<path d="M130.472 138.928C132.676 139.378 137.093 139.745 138.965 140.432L137.78 142.749L136.612 144.741C135.938 146.028 135.031 147.647 134.446 148.94L133.682 151.173C133.151 152.074 133.257 152.27 132.503 152.568L131.584 152.122L131.327 152.094L132.903 149.188C132.888 148.355 136.178 143.372 136.821 142.34C134.307 141.047 132.961 140.508 130.472 138.928Z" fill="#CB9153"/>
<path d="M132.903 149.188C133.859 147.632 135.053 145.592 136.396 144.397L136.613 144.741C135.938 146.028 135.031 147.646 134.446 148.939L133.682 151.172C133.151 152.073 133.257 152.27 132.503 152.567L131.585 152.121L131.327 152.093L132.903 149.188Z" fill="#A96E3C"/>
<path d="M134.446 148.94L133.682 151.172C133.151 152.073 133.257 152.27 132.503 152.567L131.584 152.121C132.516 150.35 132.638 149.84 134.446 148.94Z" fill="#91592F"/>
<path d="M77.3025 149.58L77.6768 149.454C76.7136 154.001 76.7164 160.899 76.4796 165.571C76.3877 167.389 77.8502 172.144 78.0497 174.739C77.4826 174.344 77.0282 174.196 76.3952 173.94C76.1619 167.422 75.7259 155.803 77.3025 149.58Z" fill="#DEAA72"/>
<path d="M100.471 147.586L100.051 147.905C97.0757 147.478 92.1992 146.699 89.3218 147.321C88.1534 147.49 85.1056 147.483 83.9672 147.167L83.8103 146.856C85.2315 145.622 86.9844 145.913 88.7248 145.465L88.9856 145.396C89.114 145.953 88.9602 145.72 89.4146 146.131C92.4104 146.27 97.5681 146.965 100.471 147.586Z" fill="#AA6D38"/>
<path d="M100.051 147.905C100.638 148.263 101.221 148.603 101.784 148.998C99.052 149.212 91.5899 148.563 89.322 147.321C92.1994 146.699 97.0759 147.477 100.051 147.905Z" fill="#B77A44"/>
<path d="M83.6711 160.194C88.5681 159.171 100.36 159.614 105.016 161.097C109.688 162.585 116.875 164.295 121.332 166.538C122.711 167.232 124.973 169.627 123.403 171.271C119.703 175 113.076 175.596 108.101 176.232C104.136 176.635 86.2291 177.077 83.3662 175.684C83.4194 174.533 85.2585 173.127 86.2487 173.044C92.0423 172.564 97.9736 172.734 103.796 172.655C105.292 172.635 109.306 172.401 110.524 172.791L110.885 172.799C112.145 171.823 113.603 171.549 114.564 170.713C114.623 170.054 114.666 169.717 114.23 169.178C111.62 165.954 86.7142 161.762 82.5719 162.006C82.4722 162.012 82.3752 162.048 82.2754 162.047C82.1906 162.047 81.8183 161.969 81.7241 161.95C82.412 161.241 82.9067 160.823 83.6711 160.194Z" fill="#B77A44"/>
<path d="M116.807 170.802L117.747 170.228C117.104 173.747 103.451 174.988 100.418 174.852C103.141 174.109 108.472 173.733 110.28 172.901L110.525 172.791L110.886 172.799C112.925 172.587 113.324 172.477 115.312 171.816C115.865 171.542 116.312 171.171 116.807 170.802Z" fill="#91592F"/>
<path d="M115.312 171.816C115.294 170.373 114.763 168.28 115.204 167.374C116.185 167.414 116.977 168.197 117.651 168.918C117.751 169.871 117.549 169.753 116.807 170.801C116.312 171.171 115.865 171.542 115.312 171.816Z" fill="#CB9153"/>
<path d="M82.9584 169.496L83.2482 169.891C82.8693 170.223 81.9309 170.205 81.3182 170.268C80.9397 170.081 81.1156 170.191 80.8468 169.776C81.4062 169.418 82.2576 169.505 82.9584 169.496Z" fill="#B77A44"/>
<path d="M132.7 171.678C132.705 161.358 137.798 142.987 146.489 137.475C162.343 127.421 190.877 150.838 199.059 162.923C198.365 163.434 197.54 163.929 196.806 164.394C195.741 165.322 190.657 171.051 190.346 171.115L190.145 170.969C187.025 169.852 185.377 169.224 181.953 169.461C169.795 170.3 164.81 183.278 173.839 192.098C175.804 193.554 177.716 194.589 180.087 195.176C183.757 195.384 183.316 195.881 187.483 195.044C188.022 196.822 189.088 199.103 189.852 200.827C190.3 201.408 191.36 202.858 191.822 203.311L192.065 203.856C193.015 205.198 194.078 206.212 195.227 207.383C185.428 215.313 175.714 221.871 163.047 224.73C151.902 227.246 142.632 220.021 138.519 209.792L137.923 207.756C136.479 206.846 134.405 197.676 134.045 195.612L133.837 194.083C132.784 192.165 132.445 178.477 132.552 175.55C132.545 174.14 132.52 173.08 132.7 171.678Z" fill="#CB9153"/>
<path d="M132.7 171.678C132.705 161.358 137.798 142.987 146.489 137.475C162.343 127.421 190.877 150.838 199.059 162.923C198.365 163.434 197.54 163.929 196.806 164.394C195.741 165.322 190.657 171.051 190.346 171.115L190.145 170.969C186.529 168.28 183.596 169.75 181.327 168.313C172.846 162.944 165.433 162.12 155.825 164.31C155.107 164.474 152.996 163.652 152.227 164.177L152.729 164.726C148.151 163.937 144.848 162.167 141.149 159.423C140.622 159.033 139.008 157.734 138.499 157.792L138.383 158.084L137.595 157.785C136.606 160.22 133.519 170.612 132.7 171.678Z" fill="#B77A44"/>
<path d="M132.7 171.678C132.705 161.358 137.798 142.987 146.489 137.475C162.343 127.421 190.877 150.838 199.059 162.923C198.365 163.434 197.54 163.929 196.806 164.394C193.315 162.581 188.417 156.273 185.094 153.411C176.68 146.166 163.841 139.188 152.422 141.503C146.035 142.954 139.871 152.156 137.595 157.785C136.606 160.22 133.519 170.612 132.7 171.678Z" fill="#ECC6A2"/>
<path d="M156.574 145.076C162.085 149.051 154.694 158.375 147.917 156.313C146.564 155.07 146.362 154.595 145.873 152.819C146.966 147.649 150.805 143.045 156.574 145.076Z" fill="#ECC6A2"/>
<path d="M165.908 153.442C169.286 155.22 168.621 159.114 164.509 159.379C160.632 157.933 162.121 154.037 165.908 153.442Z" fill="#ECC6A2"/>
<path d="M180.238 155.829C185.045 158.03 189.353 162.352 191.808 167.026C187.461 162.874 186.198 160.85 180.899 157.306C179.125 156.194 177.251 155.249 175.301 154.484C173.621 153.831 167.551 151.98 166.556 151.212L166.939 151.08C171.758 152.546 175.633 153.503 180.238 155.829Z" fill="#91592F"/>
<path d="M187.483 195.044C188.023 196.823 189.088 199.103 189.852 200.827C190.3 201.408 191.36 202.858 191.822 203.312L192.066 203.856C193.015 205.198 194.078 206.212 195.227 207.383C185.428 215.313 175.714 221.871 163.048 224.73C151.902 227.246 142.633 220.022 138.52 209.792L137.924 207.756C136.48 206.846 134.406 197.676 134.046 195.613C135.238 195.878 137.061 196.467 138.283 196.82L138.739 196.998C138.502 198.182 139.837 200.174 140.506 201.184C141.092 202.056 141.696 202.916 142.319 203.763C152.376 205.834 160.791 206.096 170.251 201.407C172.533 200.277 176.428 198.033 178.706 197.281C179.894 196.69 179.774 196.338 180.087 195.177C183.758 195.384 183.316 195.881 187.483 195.044Z" fill="#A16738"/>
<path d="M187.483 195.044C188.023 196.823 189.088 199.103 189.852 200.827C188.805 201.81 188.082 202.388 186.94 203.26C186.413 203.142 186.413 203.027 185.823 203.498C183.432 205.407 181.11 206.545 178.36 207.789C177.312 208.264 174.742 208.842 174.382 209.059C173.64 209.314 171.381 210.029 170.798 210.302L170.929 210.959C163.406 212.984 160.062 213.919 152.097 213.14C149.669 212.579 147.038 213.046 144.44 212.045C142.936 211.465 139.921 209.939 138.52 209.792L137.924 207.756C136.48 206.846 134.406 197.676 134.046 195.613C135.238 195.878 137.061 196.467 138.283 196.82L138.739 196.998C138.502 198.182 139.837 200.174 140.506 201.184C141.092 202.056 141.696 202.916 142.319 203.763C152.376 205.834 160.791 206.096 170.251 201.407C172.533 200.277 176.428 198.033 178.706 197.281C179.894 196.69 179.774 196.338 180.087 195.177C183.758 195.384 183.316 195.881 187.483 195.044Z" fill="#C5894E"/>
<path d="M138.283 196.82L138.739 196.998C138.502 198.182 139.837 200.173 140.506 201.184C141.092 202.056 141.696 202.916 142.319 203.763C144.071 206.823 146.644 208.836 148.54 211.528C144.988 211.07 140.981 209.624 137.923 207.755C136.479 206.846 134.405 197.676 134.045 195.612C135.238 195.877 137.061 196.467 138.283 196.82Z" fill="#A16738"/>
<path d="M170.798 210.301L170.929 210.959C163.405 212.984 160.062 213.919 152.097 213.139C149.669 212.579 147.038 213.046 144.44 212.045C142.936 211.465 139.921 209.938 138.519 209.792L137.923 207.755C140.981 209.624 144.987 211.07 148.54 211.528C154.192 213.166 165.188 212.323 170.798 210.301Z" fill="#91592F"/>
<path d="M183.443 197.115C182.643 198.387 179.941 199.733 178.698 200.653C171.263 206.164 164.922 208.91 155.622 209.392C155.663 209.298 155.945 208.847 156.013 208.84C161.488 208.321 166.507 206.593 171.328 204.041C174.788 202.209 179.856 198.002 183.443 197.115Z" fill="#91592F"/>
<path d="M174.382 209.059C174.741 208.842 177.312 208.263 178.36 207.789C181.11 206.544 183.431 205.407 185.823 203.498C186.413 203.026 186.413 203.141 186.94 203.26C180.467 209.308 168.691 215.851 159.534 215.538C157.485 215.468 153.182 215.162 152.097 213.139C160.062 213.919 163.405 212.984 170.929 210.959L170.798 210.301C171.381 210.028 173.64 209.314 174.382 209.059Z" fill="#CB9153"/>
<path d="M174.382 209.059L174.849 209.342C174.215 210.003 171.923 210.633 170.929 210.958L170.798 210.301C171.381 210.028 173.64 209.314 174.382 209.059Z" fill="#B77A44"/>
<path d="M191.822 203.311L192.065 203.856C183.469 214.67 172.712 221.27 158.691 221.832C157.175 221.893 148.831 220.822 148.04 220.024C148.258 220.009 151.911 220.478 152.402 220.529C154.817 220.764 157.244 220.842 159.668 220.764C169.605 220.4 177.361 216.26 184.811 209.765C186.923 207.923 189.689 204.852 191.822 203.311Z" fill="#79441E"/>
<path d="M132.552 175.55C134.84 179.34 133.058 190.192 138.197 195.466L138.147 195.592L138.283 196.82C137.061 196.467 135.238 195.878 134.046 195.613L133.837 194.083C132.785 192.165 132.445 178.477 132.552 175.55Z" fill="#A16738"/>
<path d="M138.147 195.592L138.283 196.82C137.061 196.467 135.238 195.877 134.045 195.612L133.837 194.083C135.339 194.811 136.634 194.934 138.147 195.592Z" fill="#79441E"/>
<path d="M138.197 195.466C140.188 195.585 144.782 197.169 147.434 197.635C149.395 197.98 154.078 198.024 154.634 198.202L154.637 198.507C152.091 199.739 141.467 197.613 138.739 196.998L138.283 196.82L138.147 195.592L138.197 195.466Z" fill="#91592F"/>
<path d="M173.839 192.098C175.805 193.554 177.716 194.589 180.087 195.176C179.775 196.337 179.894 196.689 178.706 197.281C176.339 195.978 174.865 194.664 172.79 192.972L173.839 192.098Z" fill="#DEAA72"/>
<path d="M158.768 196.461C159.842 195.415 167.152 195.368 168.961 194.553C169.75 194.198 172.168 192.854 172.789 192.972L172.676 193.34C169.81 195.987 162.688 196.304 158.768 196.461Z" fill="#A16738"/>
<path d="M136.128 182.051C137.855 182.698 142.873 187.304 145.355 188.361C146.252 188.743 150.262 190.445 150.579 190.802L150.388 191.066L148.983 191.195C145.482 190.822 134.454 186.399 136.128 182.051Z" fill="#DEAA72"/>
<path d="M149.538 171.987C151.154 172.756 152.681 173.365 153.044 175.217C152.22 177.672 149.48 176.197 147.887 175.489C146.578 174.791 143.552 172.716 145.058 171.079C146.703 170.571 147.917 171.322 149.538 171.987Z" fill="#DEAA72"/>
<path d="M171.051 172.176L171.306 172.376C170.874 172.604 167.58 172.211 166.84 172.148C162.269 171.763 156.127 172.586 151.756 171.962L151.495 171.85L151.44 171.549C152.673 171.205 154.961 171.327 156.343 171.252C161.894 170.951 165.643 170.279 171.051 172.176Z" fill="#91592F"/>
<path d="M161.863 189.055L161.913 189.365C161.059 189.876 159.506 190.079 158.472 190.284L158.326 189.938L158.541 189.632C159.695 189.133 160.609 189.152 161.863 189.055Z" fill="#DEAA72"/>
<path d="M88.1148 97.6747C94.1452 85.8883 99.482 79.2624 113.513 80.7182C120.369 81.4298 125.651 83.5204 131.844 86.2121C151.277 94.6563 166.593 108.526 180.04 124.626C182.449 127.446 187.023 133.192 188.973 136.244C193.159 141.328 197.85 151.925 199.136 158.466C197.004 156.039 192.918 151.341 190.341 149.194C181.194 141.574 168.51 133.049 156.373 132.029C151.407 131.611 147.152 133.283 143.325 136.12C121.799 123.566 106.523 126.82 83.3589 128.244C83.3958 128.131 83.44 127.523 83.4532 127.38C81.9812 128.571 80.7797 127.552 79.4304 126.645C80.0966 121.533 81.4871 116.695 82.9077 111.756C83.6141 111.341 87.0398 110.951 87.7754 111.446L87.9661 111.314L88.3306 109.861L88.8252 108.679C89.1956 107.901 89.4717 107.02 89.7555 106.2L89.7309 105.906C87.8452 106.417 86.1552 106.405 84.4504 107.043C85.3874 104.202 86.2122 102.222 87.4145 99.4731C87.4433 99.1964 87.9741 98.0091 88.1148 97.6747Z" fill="#CB9153"/>
<path d="M88.1148 97.6747C94.1452 85.8883 99.482 79.2624 113.513 80.7182C120.369 81.4298 125.651 83.5204 131.844 86.2121C151.277 94.6563 166.593 108.526 180.04 124.626C178.019 125.608 175.534 123.714 173.638 123.345L171.328 122.229L170.932 122.123C167.211 121.105 163.56 119.447 159.851 118.284C155.243 116.84 150.685 115.148 146.052 113.767C144.143 113.198 142.341 112.169 140.485 111.444C138.674 110.736 136.825 110.198 134.993 109.558C125.136 105.477 114.311 102.861 103.59 103.97C101.03 104.235 91.4449 104.99 89.7555 106.2L89.7309 105.906C87.8452 106.417 86.1552 106.405 84.4504 107.043C85.3874 104.202 86.2122 102.222 87.4145 99.4731C87.4433 99.1964 87.9741 98.0091 88.1148 97.6747Z" fill="#CB9153"/>
<path d="M88.1148 97.6747C94.1452 85.8883 99.482 79.2624 113.513 80.7182C120.369 81.4298 125.651 83.5204 131.844 86.2121C151.277 94.6563 166.593 108.526 180.04 124.626C178.019 125.608 175.534 123.714 173.638 123.345L171.328 122.229C156.4 107.955 142.151 94.2233 121.33 89.5996C115.133 88.2237 104.552 85.1047 99.4146 90.6447C97.9736 92.1986 96.0986 94.3677 95.0091 96.1327C94.07 96.3609 88.6719 97.7925 88.1148 97.6747Z" fill="#DEAA72"/>
<path d="M87.4146 99.4727C88.4478 98.1034 91.7661 97.7015 93.4426 97.4406C92.5852 100.995 90.439 103.429 89.731 105.905C87.8453 106.417 86.1553 106.405 84.4505 107.042C85.3874 104.201 86.2123 102.221 87.4146 99.4727Z" fill="#DEAA72"/>
<path d="M95.0092 96.1322C109.705 94.6415 121.413 95.9779 135.302 100.851C136.194 101.164 136.149 101.087 136.915 101.749C127.68 98.1589 114.788 96.0874 104.834 96.1928C101.484 96.2284 96.814 96.9275 93.4427 97.4406C91.7662 97.7014 88.4479 98.1033 87.4147 99.4726C87.4435 99.1959 87.9743 98.0087 88.115 97.6742C88.6721 97.7921 94.0702 96.3604 95.0092 96.1322Z" fill="#91592F"/>
<path d="M171.328 122.229L173.638 123.345C174.068 123.812 174.054 123.769 174.214 124.381C171.109 123.426 168.431 123.678 165.632 122.92C160.355 121.49 155.181 120.142 149.865 118.846C138.313 116.03 127.27 110.87 115.328 109.8C109.331 109.296 100.563 110.963 94.3791 111.337C91.6761 111.5 90.3349 111.281 87.966 111.314L88.3305 109.861L88.8251 108.679C89.1954 107.9 89.4716 107.02 89.7554 106.2C91.4448 104.99 101.03 104.235 103.59 103.97C114.311 102.861 125.136 105.477 134.993 109.558C136.825 110.198 138.674 110.736 140.485 111.444C142.341 112.169 144.143 113.198 146.052 113.767C150.684 115.148 155.242 116.84 159.851 118.284C163.56 119.447 167.211 121.105 170.932 122.122L171.328 122.229Z" fill="#AE723E"/>
<path d="M88.8252 108.679C91.0639 108.948 93.2617 108.747 94.9568 108.988C93.4811 109.362 89.8035 110.204 88.3306 109.861L88.8252 108.679Z" fill="#A96E3C"/>
<path d="M82.9076 111.755C83.614 111.34 87.0397 110.951 87.7753 111.446C86.4269 115.129 84.1182 123.664 83.4531 127.379C81.9811 128.571 80.7796 127.552 79.4303 126.645C80.0965 121.533 81.487 116.695 82.9076 111.755Z" fill="#DEAA72"/>
<path d="M180.04 124.625C182.449 127.446 187.023 133.191 188.973 136.244C187.485 135.456 184.34 130.255 182.958 128.835C180.021 125.815 178.08 125.317 174.214 124.381C174.054 123.769 174.068 123.812 173.638 123.344C175.534 123.714 178.019 125.608 180.04 124.625Z" fill="#B77A44"/>
<path d="M185.343 138.263L185.286 138.767C174.429 133.876 163.225 129.798 151.764 126.565L152.226 125.801C165.527 128.522 173.206 132.148 185.343 138.263Z" fill="#79441E"/>
<path d="M117.875 119.879L118.001 119.989L117.835 120.204C112.438 119.574 106.367 119.767 100.969 120.473C97.9035 120.874 94.251 121.763 91.2533 122.021C91.8733 121.614 92.4419 121.436 92.5595 120.907C92.0321 120.704 91.6765 120.841 91.1143 120.948C90.398 121.128 89.576 121.393 88.8608 121.344C92.7128 120.057 96.6743 119.681 100.63 118.965C107.068 117.801 111.723 117.807 117.875 119.879Z" fill="#B77A44"/>
<path d="M151.764 126.565C147.438 125.617 143.25 124.882 138.831 124.482C138.174 124.423 136.059 124.336 135.6 124.141L136.195 123.699C137.995 124.158 141.557 124.278 143.523 124.525C146.457 124.894 149.306 125.343 152.226 125.8L151.764 126.565Z" fill="#91592F"/>
<path d="M185.343 138.263C186.99 138.68 189.226 140.14 190.63 141.092L190.529 141.195C188.542 140.43 187.164 139.728 185.285 138.767L185.343 138.263Z" fill="#A96E3C"/>
<path d="M235.45 150.487C244.382 137.728 265.138 122.901 279.758 117.702C289.387 114.276 302.007 111.169 311.594 115.909C319.37 119.754 322.916 126.617 325.723 134.372L326.28 136.089C328.7 142.975 330.241 154.572 331.137 161.904L331.222 163.089C331.601 165.55 331.601 169.511 331.612 172.051C326.253 174.863 320.138 178.802 314.082 179.375C307.415 180.007 300.19 178.477 293.572 177.592C293.282 177.553 292.463 178.295 292.229 178.493C292.265 176.777 292.427 173.818 292.17 172.255L292.282 171.313L292.181 169.961C291.563 164.936 291.17 161.449 289.21 156.672C285.224 146.958 277.366 143.381 267.13 144.635C258.073 145.745 249.915 150.391 242.423 155.396C240.396 156.754 237.803 158.794 235.843 159.997C236.052 157.973 236.068 156.974 236.004 154.931C235.951 154.731 235.901 153.819 235.882 153.557C235.795 152.576 235.598 151.472 235.45 150.487Z" fill="#CB9153"/>
<path d="M235.45 150.487C244.382 137.728 265.138 122.901 279.758 117.702C289.387 114.276 302.007 111.169 311.594 115.909C319.37 119.754 322.916 126.617 325.723 134.372C323.364 133.98 322.229 133.705 319.821 133.665C318.669 131.166 315.388 125.862 313.025 124.432L313.035 124.892L313.215 125.059C313.574 125.397 315.525 127.514 315.611 127.808C313.842 127.691 311.87 127.487 310.13 127.701C311.594 127.778 315.566 127.846 316.468 129.144C315.613 130.317 309.885 129.929 308.124 130.011C303.151 130.226 298.188 130.678 293.258 131.369C285.475 132.462 277.965 134.304 270.75 137.405C268.321 138.448 265.824 139.359 263.478 140.581C259.712 142.542 256.118 144.823 252.339 146.758C251.028 147.393 248.166 149.004 246.643 149.16L245.618 148.639C243.024 150.222 238.329 153.556 236.004 154.931C235.951 154.731 235.901 153.819 235.882 153.557C235.795 152.576 235.598 151.472 235.45 150.487Z" fill="#C5894E"/>
<path d="M235.45 150.487C244.382 137.728 265.138 122.901 279.758 117.702C289.387 114.276 302.007 111.169 311.594 115.909C319.37 119.754 322.916 126.617 325.723 134.372C323.364 133.98 322.229 133.705 319.821 133.665C318.669 131.166 315.388 125.862 313.025 124.432C308.903 120.383 303.639 120.313 298.094 120.27C294.288 120.408 289.52 120.702 285.887 121.855C273.501 125.807 262.298 132.692 251.514 139.808C250.563 140.563 249.582 141.412 248.676 142.216C245.289 145.233 241.893 148.131 238.199 150.772C237.329 151.396 237.087 153.427 235.882 153.557C235.795 152.576 235.598 151.472 235.45 150.487Z" fill="#DEAA72"/>
<path d="M286.589 129.236C288.717 127.435 300.987 126.216 303.018 127.455L302.954 127.878C302.022 127.909 300.786 127.919 299.883 128.035L299.494 128.089C297.979 128.88 291.858 129.385 289.818 129.662C277.981 131.28 267.68 135.279 257.464 141.422C255.266 142.742 251.621 145.35 249.313 146.243L249.297 146.058C255.489 140.243 266.315 134.624 274.466 131.875C278.034 130.672 282.882 129.916 286.589 129.236Z" fill="#91592F"/>
<path d="M286.589 129.236C288.717 127.436 300.987 126.217 303.017 127.456L302.954 127.878C302.022 127.909 300.786 127.919 299.883 128.035L299.494 128.089C294.717 128.163 291.056 128.958 286.589 129.236Z" fill="#B77A44"/>
<path d="M331.223 163.089C331.602 165.549 331.601 169.51 331.612 172.051C326.253 174.863 320.138 178.802 314.082 179.375C307.415 180.007 300.19 178.477 293.572 177.592C293.282 177.553 292.463 178.294 292.229 178.493C292.266 176.776 292.427 173.818 292.17 172.254C301.226 172.403 306.638 175.315 316.267 172.467C320.949 171.083 328.637 163.041 331.223 163.089Z" fill="#B77A44"/>
<path d="M320.691 135.397C322.477 135.484 324.539 135.69 326.28 136.089C328.7 142.975 330.24 154.572 331.137 161.904L327.453 164.738C327.164 162.873 327.018 160.903 326.855 159.054C326.407 154.018 325.238 149.028 323.397 144.326C323.294 144.066 323.461 143.517 323.535 143.263L323.745 143.106L324.479 142.612L323.423 142.541C323.19 141.203 321.335 136.94 320.691 135.397Z" fill="#DEAA72"/>
<path d="M324.479 142.612C325.872 142.616 327.355 142.594 328.738 142.632C327.468 142.9 324.86 143.645 323.745 143.106L324.479 142.612Z" fill="#CB9153"/>
<path d="M324.479 142.612L323.745 143.106L323.535 143.263C315.277 142.453 303.022 143.834 295.46 147.254C294.325 147.767 292.172 148.485 292.078 149.797C293.489 151.284 305.376 152.273 307.7 152.132C313.196 151.8 318.496 151.21 324.065 151.29C314.823 154.299 304.634 153.291 295.197 151.884C292.726 151.515 289.819 149.414 292.631 147.761C301.046 142.818 313.914 141.6 323.423 142.541L324.479 142.612Z" fill="#9E6232"/>
<path d="M292.181 169.96C295.279 169.373 297.364 169.747 300.416 169.694C304.268 169.625 308.535 169.424 312.366 168.942C314.205 168.71 315.75 167.965 317.56 168.749L317.775 169.188C316.981 170.306 314.265 170.516 312.783 170.766C308.896 171.424 305.012 171.818 301.077 171.833C299.549 171.839 293.191 171.176 292.282 171.312L292.181 169.96Z" fill="#B77A44"/>
<path d="M322.747 145.099C322.78 145.25 322.712 145.408 322.684 145.56C320.489 146.573 315.155 147.04 312.254 147.745C314.8 148.151 317.035 148.514 319.618 148.571C320.907 148.6 322.153 148.367 323.285 148.445L323.203 148.841L321.931 149.357C319.517 149.832 313.323 149.665 311.588 147.836L311.64 147.365C313.285 146.028 320.433 145.397 322.747 145.099Z" fill="#B27843"/>
<path d="M233.846 165.124C238.088 161.589 242.866 158.665 247.508 155.712C260.097 147.706 279.782 140.388 286.819 158.926C287.811 161.466 288.189 163.514 288.412 166.255C288.908 168.212 289.276 173.169 289.159 175.309C289.386 180.506 288.359 189.003 287.48 194.122C286.863 196.701 285.663 201.966 284.783 204.311C283.037 210.011 280.975 214.193 277.695 219.145C277.102 220.082 276.352 221.378 275.445 222.006C264.046 235.574 249.497 225.26 238.091 216.973C236.876 216.091 230.786 210.51 230.607 209.664C230.837 208.996 231.323 208.791 231.931 208.383L233.16 207.375C234.053 206.491 234.591 205.762 235.602 204.824L236.409 203.769C237.137 202.921 237.75 202.109 238.42 201.221L239.796 198.948C241.153 199.503 242.414 200.11 243.867 200.288L244.423 200.424C252.71 201.134 258.83 195.811 259.136 187.487L258.941 186.151C256.621 177.607 249.63 174.81 241.462 177.006C240.904 175.377 240.553 174.341 239.795 172.806L239.288 171.993C238.488 170.543 237.544 169.16 236.632 167.777C235.807 166.782 234.818 165.98 233.846 165.124Z" fill="#CB9153"/>
<path d="M287.48 194.122C286.863 196.701 285.664 201.966 284.783 204.311C283.038 210.011 280.976 214.193 277.695 219.145C277.102 220.082 276.352 221.377 275.445 222.006C264.046 235.574 249.497 225.26 238.091 216.973C236.876 216.091 230.787 210.51 230.608 209.663C230.837 208.996 231.323 208.791 231.931 208.383L233.16 207.375C234.053 206.491 234.591 205.761 235.602 204.824L236.41 203.769C238.202 203.933 243.982 211.31 249.444 212.474L249.642 212.278L249.491 211.814C250.113 211.834 252.246 213.041 253.481 213.298C253.288 212.245 252.499 211.406 252.631 210.782C255.449 210.032 261.717 212.497 266.768 210.766L266.782 210.628C267.224 210.371 269.711 210.554 270.841 210.366C273.518 209.919 275.703 209.135 278.319 208.496C278.83 206.767 282.526 199.983 283.655 198.852L283.72 198.788C284.725 196.898 286.074 195.821 287.48 194.122Z" fill="#CB9153"/>
<path d="M277.695 219.145C277.102 220.082 276.352 221.377 275.445 222.006C264.046 235.573 249.497 225.259 238.091 216.973C236.876 216.091 230.786 210.509 230.607 209.663C230.837 208.996 231.323 208.791 231.931 208.382L233.16 207.375C234.053 206.491 234.59 205.761 235.602 204.823C236.166 206.854 246.528 214.007 249.218 215.516C249.617 215.74 250.025 215.949 250.44 216.142C251.406 217.631 259.136 221.903 261.217 223.202C269.7 222.864 269.897 222.536 277.695 219.145Z" fill="#A16738"/>
<path d="M231.931 208.383L233.16 207.375C233.183 207.543 233.208 207.713 233.232 207.881C239.973 212.779 246.071 218.967 253.779 222.307C254.355 222.557 256.206 222.871 256.386 223.204C255.358 223.386 254.441 223.113 253.446 222.878C244.697 220.807 239.064 213.189 231.931 208.383Z" fill="#79441E"/>
<path d="M277.695 219.144C277.102 220.082 276.352 221.377 275.445 222.005L275.205 221.742L274.958 222.1L274.701 222.228L274.663 221.419C269.983 223.156 264.561 225.086 259.456 223.528L259.553 223.309C260.235 223.229 260.511 223.201 261.217 223.202C269.7 222.864 269.896 222.535 277.695 219.144Z" fill="#79441E"/>
<path d="M287.48 194.122C286.863 196.701 285.663 201.965 284.783 204.311C283.037 210.01 280.975 214.193 277.695 219.145C269.897 222.535 269.7 222.864 261.217 223.202C259.136 221.903 251.406 217.631 250.44 216.142L251.419 216.524C259.986 219.83 266.27 220.411 273.559 214.112C274.904 212.95 277.721 210.124 278.319 208.495C278.83 206.767 282.525 199.982 283.655 198.852L283.719 198.787C284.725 196.898 286.073 195.82 287.48 194.122Z" fill="#A96E3C"/>
<path d="M287.48 194.122C286.863 196.701 285.663 201.966 284.783 204.311C282.863 203.981 281.467 207.292 279.408 207.741C279.411 206.414 283.343 201.105 283.655 198.852L283.72 198.788C284.725 196.898 286.074 195.821 287.48 194.122Z" fill="#A16738"/>
<path d="M266.768 210.766C268.112 211.086 267.682 210.789 268.436 211.826C268.963 214.65 265.177 215.634 263.003 215.934C259.291 216.448 256.499 215.404 253.481 213.298C253.287 212.245 252.499 211.406 252.63 210.782C255.449 210.032 261.716 212.497 266.768 210.766Z" fill="#ECC6A2"/>
<path d="M233.846 165.124C238.088 161.589 242.866 158.665 247.508 155.712C260.097 147.706 279.782 140.388 286.819 158.926C285.775 159.076 284.193 159.303 283.22 158.843C270.918 146.083 248.109 159.957 236.632 167.777C235.807 166.782 234.818 165.98 233.846 165.124Z" fill="#ECC6A2"/>
<path d="M239.288 171.993C240.872 170.647 242.142 168.928 243.649 167.504C248.098 163.3 253.277 160.683 259.122 159.009C260.485 158.614 263.176 157.417 264.321 157.368L264.55 157.694C256.305 160.762 246.184 166.769 239.795 172.806L239.288 171.993Z" fill="#91592F"/>
<path d="M279.18 182.632C275.881 184.304 267.571 185.359 263.76 186.295C262.34 186.644 260.492 186.839 259.135 187.486L258.941 186.151C266.713 183.261 270.997 183.254 279.18 182.632Z" fill="#B77A44"/>
<path d="M289.159 175.309C289.386 180.505 288.359 189.003 287.48 194.122C286.073 195.82 284.725 196.898 283.719 198.788L283.326 198.045C283.515 197.762 284.623 196.125 284.712 195.938C286.114 193.001 289.28 180.095 288.605 177.334C288.033 177.521 287.898 178.092 287.494 178.785C287.752 177.446 288.45 176.477 289.159 175.309Z" fill="#A96E3C"/>
<path d="M244.422 200.423L244.616 200.563C247.491 202.604 251.369 204.704 254.525 206.364C255.706 206.985 258.224 207.641 258.827 208.091C256.91 209.32 244.137 202.66 243.867 200.288L244.422 200.423Z" fill="#91592F"/>
<path d="M286.819 158.925C287.811 161.466 288.189 163.514 288.412 166.255C288.285 166.163 283.943 159.753 283.221 158.842C284.193 159.302 285.775 159.076 286.819 158.925Z" fill="#DEAA72"/>
<path d="M238.42 201.221C238.036 201.943 237.57 202.496 237.655 203.186C240.424 206.353 245.625 210.146 249.491 211.814L249.642 212.278L249.444 212.474C243.982 211.31 238.202 203.933 236.409 203.769C237.137 202.92 237.75 202.109 238.42 201.221Z" fill="#91592F"/>
<path d="M267.72 164.751C265.743 161.61 266.896 158.276 270.581 157.413C272.237 157.024 273.979 157.32 275.412 158.234C277.375 159.46 278.011 161.096 278.459 163.203L278.461 163.559C276.899 169.515 270.924 168.872 267.72 164.751Z" fill="#ECC6A2"/>
<path d="M268.834 194.77C274.816 194.093 279.076 193.337 283.275 188.624C284.783 186.929 287.376 180.228 287.541 180.107C289.301 181.412 283.759 190.48 282.165 191.857C278.821 194.746 273.462 195.743 269.155 195.25L268.834 194.77Z" fill="#A16738"/>
<path d="M281.699 170.052C284.083 172.605 282.91 175.666 279.13 175.114C276.179 172.224 278.092 170.161 281.699 170.052Z" fill="#ECC6A2"/>
<path d="M245.197 175.49C246.155 172.403 264.545 163.841 267.72 164.751C265.912 166.355 250.425 170.51 248.023 173.327C247.731 173.669 245.54 175.393 245.197 175.49Z" fill="#91592F"/>
<path d="M282.304 198.928L282.39 199.135C282.247 199.48 282.228 199.527 281.899 199.729C275.704 203.532 269.853 205.77 262.524 204.072L262.426 203.85C268.08 204.381 272.754 203.872 277.918 201.208C279.305 200.49 280.862 199.28 282.304 198.928Z" fill="#91592F"/>
<path d="M276.52 179.788L276.672 179.906C275.853 180.056 273.535 179.716 272.633 179.61C266.794 178.922 263.656 179.247 258.465 181.861L258.355 181.862C258.612 181.284 258.878 181.143 259.494 180.779C264.622 177.761 271.039 178.619 276.52 179.788Z" fill="#91592F"/>
<path d="M269.155 195.25C267.439 195.217 262.268 194.998 260.931 194.078C262.074 193.642 267.226 194.602 268.834 194.77L269.155 195.25Z" fill="#B77A44"/>
<path d="M278.458 163.203C279.4 162.554 281.402 162.951 282.628 163.102C281.332 163.529 279.826 163.614 278.461 163.559L278.458 163.203Z" fill="#B77A44"/>
<path d="M198.196 208.398C196.33 212.446 189.092 222.258 185.633 224.304C183.995 225.998 180.986 228.245 180.055 229.265C179.6 229.62 178.491 230.536 178.044 230.763C173.597 234.077 162.336 241.284 157.019 242.699C144.738 247.819 132.403 251.191 118.962 250.467C115.241 250.267 111.86 250.054 108.385 248.584C91.4214 241.407 86.2264 223.444 80.9242 207.806C81.6543 207.617 82.4347 207.73 83.218 207.763L84.8986 207.621L85.6631 207.624C86.5759 208.283 87.2079 208.191 88.3501 208.25C90.0344 207.824 92.3318 208.464 93.3141 207.201C93.8713 207.013 94.6021 207.073 95.2289 207.065C95.8843 207.866 96.7346 207.749 97.9846 207.911C98.6418 208.644 99.3495 209.405 99.9871 210.147C101.247 210.329 102.507 210.566 103.765 210.777C112.876 212.307 121.769 212.462 130.971 212.69L130.994 213.241L131.898 213.642L131.88 213.51C133.041 213.242 135.714 213.412 136.958 213.548C141.393 221.181 145.78 224.855 153.86 227.946C154.025 227.881 159.018 228.146 159.768 228.084C174.512 226.855 187.662 217.626 198.196 208.398Z" fill="#CB9153"/>
<path d="M130.971 212.69L130.994 213.241L131.898 213.641C132.752 215.134 133.293 216.231 134.011 217.799L134.102 218.271C135.493 219.752 135.791 221.154 136.866 222.616C128.171 223.777 102.95 224.543 95.6275 220.635C93.9263 221.237 92.6372 221.728 90.8722 222.083L90.4387 221.868C89.5961 222.345 89.5084 222.346 88.5435 222.547C87.6202 222.261 87.9178 222.54 87.517 221.805L87.518 221.099C88.7263 219.481 89.0851 219.218 90.7304 218.191C90.1517 217.221 89.4183 217.313 89.101 216.93C87.0355 214.444 85.5993 210.595 84.8987 207.621L85.6632 207.624C86.576 208.283 87.208 208.19 88.3502 208.25C90.0345 207.824 92.3319 208.464 93.3142 207.201C93.8714 207.012 94.6022 207.073 95.229 207.065C95.8844 207.866 96.7347 207.749 97.9847 207.911C98.6419 208.644 99.3496 209.405 99.9872 210.147C101.247 210.329 102.507 210.566 103.765 210.777C112.876 212.307 121.769 212.462 130.971 212.69Z" fill="#B77A44"/>
<path d="M130.97 212.69L130.994 213.241C128.653 213.565 123.962 213.453 121.765 213.383C117.755 213.255 92.841 210.533 90.5015 209.005C89.8198 208.779 88.9923 208.531 88.3498 208.25C90.0342 207.824 92.3316 208.464 93.3139 207.202C93.8711 207.013 94.6019 207.073 95.2287 207.065C95.8841 207.866 96.7343 207.749 97.9844 207.911C98.6416 208.644 99.3493 209.405 99.9869 210.147C101.246 210.329 102.507 210.566 103.764 210.777C112.876 212.307 121.768 212.463 130.97 212.69Z" fill="#91592F"/>
<path d="M97.9844 207.911C98.6416 208.644 99.3493 209.404 99.9869 210.147C96.9625 209.73 93.5089 209.179 90.5015 209.004C89.8198 208.779 88.9923 208.53 88.3498 208.249C90.0342 207.824 92.3316 208.464 93.3139 207.201C93.8711 207.012 94.6019 207.073 95.2287 207.065C95.8841 207.866 96.7343 207.749 97.9844 207.911Z" fill="#B77A44"/>
<path d="M134.01 217.799L134.102 218.271C129.807 218.762 111.688 219.633 108.799 217.448C110.042 216.729 130.966 217.774 134.01 217.799Z" fill="#91592F"/>
<path d="M104.659 240.277C106.542 241.9 115.554 245.481 118.071 245.928C128.114 247.709 139.923 247.029 149.664 243.898C151.831 243.202 154.216 242.684 156.456 242.204L157.019 242.699C144.737 247.819 132.403 251.191 118.962 250.467C115.24 250.267 111.859 250.054 108.385 248.584C91.4212 241.407 86.2262 223.444 80.9239 207.806C81.6541 207.617 82.4345 207.73 83.2178 207.763L84.8984 207.621C85.599 210.595 87.0352 214.445 89.1006 216.931C89.4179 217.313 90.1514 217.221 90.7301 218.191C89.0848 219.218 88.726 219.481 87.5177 221.1L87.5166 221.805C87.9175 222.54 87.6199 222.261 88.5432 222.548C89.5081 222.346 89.5957 222.345 90.4383 221.869L90.8719 222.083C92.1456 225.935 94.8148 228.951 96.4827 232.142C95.7248 232.939 95.1264 233.431 94.7235 234.449C94.7574 235.362 94.5844 235.005 95.1621 235.599C96.7373 235.989 97.8193 235.228 99.0902 234.33C100.274 235.425 104.027 238.281 104.473 239.217C103.418 239.225 101.988 239.106 101.101 239.543C101.132 239.533 101.162 239.525 101.193 239.515L101.823 239.344L101.489 239.864C102.843 240.169 103.309 240.203 104.659 240.277Z" fill="#DEAA72"/>
<path d="M84.8985 207.621C85.5991 210.595 87.0354 214.445 89.1008 216.931C89.4181 217.313 90.1515 217.221 90.7303 218.191C89.0849 219.218 88.7261 219.481 87.5179 221.1C87.7364 220.629 87.9188 220.204 88.1172 219.728C86.4925 217.233 84.2604 208.841 83.2179 207.763L84.8985 207.621Z" fill="#CB9153"/>
<path d="M198.196 208.398C196.33 212.446 189.092 222.257 185.633 224.303C183.996 225.997 180.986 228.245 180.055 229.264C179.6 229.619 178.491 230.535 178.044 230.763L177.947 230.293C176.201 230.236 173.683 231.136 171.881 231.519C163.097 233.387 153.716 237.5 144.968 239.035L144.69 238.725L144.431 238.838L144.526 239.097L144.279 238.91L144.42 239.101L144.051 239.008L144.405 238.773L144.584 239.015L144.776 238.983L144.896 238.549C149.715 236.78 154.864 235.227 159.715 233.467C161.138 232.951 163.865 232.598 164.6 232.31C163.87 231.821 162.064 232.239 161.186 232.35C156.088 232.995 150.816 232.04 146.113 230.168C149.132 229.215 152.065 229.831 153.861 227.946C154.025 227.88 159.018 228.146 159.768 228.083C174.512 226.854 187.662 217.625 198.196 208.398Z" fill="#91592F"/>
<path d="M172.572 229.186C176.372 227.894 181.011 225.469 184.9 224.139C185.145 224.194 185.389 224.249 185.633 224.303C183.995 225.997 180.986 228.245 180.055 229.265C177.919 228.205 175.276 228.816 173.099 229.557L172.804 229.66L172.572 229.186Z" fill="#B77A44"/>
<path d="M172.804 229.661C172.058 229.89 171.133 230.293 170.422 230.103C170.893 229.549 171.826 229.398 172.572 229.186L172.804 229.661Z" fill="#A96E3C"/>
<path d="M136.958 213.549C141.393 221.181 145.78 224.855 153.86 227.946C152.065 229.832 149.132 229.216 146.112 230.169C143.104 230.297 139.858 230.737 136.769 230.933C131.868 231.23 126.954 231.25 122.05 230.993L121.869 230.457C129.526 230.853 136.716 230.315 144.324 229.296C141.087 227.17 139.392 225.508 136.866 222.616C135.791 221.155 135.492 219.753 134.102 218.272L134.01 217.8C133.293 216.232 132.752 215.135 131.898 213.642L131.88 213.511C133.041 213.242 135.714 213.412 136.958 213.549Z" fill="#965930"/>
<path d="M123.976 239.718C117.24 240.697 111.087 239.98 104.659 240.276C103.309 240.202 102.844 240.169 101.489 239.864L101.823 239.344L101.193 239.515C101.162 239.525 101.132 239.533 101.101 239.543C101.988 239.106 103.418 239.224 104.473 239.217C110.376 239.295 118.216 239.218 123.976 239.718Z" fill="#91592F"/>
<path d="M121.869 230.456L122.05 230.992C119.452 231.059 111.485 230.543 109.271 229.641C109.847 229.511 120.2 230.374 121.869 230.456Z" fill="#A96E3C"/>
<path d="M212.724 160.793C220.522 160.116 231.74 164.295 235.463 171.575C236.701 173.314 238.184 175.929 238.59 178.031C243.281 189.879 234.527 207.171 222.101 210.363C221.341 210.685 221.34 210.686 220.522 210.795C217.082 211.539 211.619 212.128 208.278 210.792C206.892 210.811 205.522 210.496 204.283 209.874C202.767 209.239 201.174 208.425 199.901 207.385C199.287 207.01 198.709 206.583 198.17 206.107C193.214 201.808 189.392 194.653 188.984 188.06C188.635 182.444 190.868 175.18 194.62 170.943C197.118 167.292 200.877 164.667 204.847 162.832C204.821 165.048 204.786 165.088 206.914 166.007L207.037 166.621L207.897 166.574L209.6 166.548C209.65 165.966 209.666 166.119 209.982 165.551C211.013 164.801 210.798 165.167 211.228 164.101L211.27 163.857L210.905 162.141C211.477 161.866 212.204 161.218 212.724 160.793Z" fill="#CB9153"/>
<path d="M204.847 162.832C204.821 165.048 204.786 165.088 206.914 166.008L207.037 166.622L207.897 166.574L209.6 166.549C211.045 167.108 211.238 167.163 212.445 168.184C214.752 171.962 213.026 174.404 209.914 176.93L208.383 177.968C203.952 185.785 202.043 191.651 203.813 200.656L203.859 200.782L203.569 200.852C200.437 199.113 198.373 197.177 196.148 194.419C195.754 197.641 197.35 200.907 199.079 203.459C201.323 206.767 206.853 209.067 208.278 210.793C206.892 210.811 205.521 210.496 204.283 209.875C202.767 209.239 201.174 208.425 199.9 207.386C199.286 207.011 198.709 206.584 198.17 206.107C193.214 201.809 189.392 194.654 188.983 188.06C188.635 182.444 190.867 175.181 194.62 170.944C197.117 167.293 200.876 164.667 204.847 162.832Z" fill="#CB9153"/>
<path d="M209.6 166.548C211.045 167.108 211.239 167.162 212.446 168.184C214.753 171.962 213.027 174.403 209.915 176.93L208.383 177.967C197.986 180.177 198.692 170.831 207.038 166.622L207.898 166.574L209.6 166.548Z" fill="#ECC6A2"/>
<path d="M194.62 170.943C192.357 174.436 191.476 181.355 192.239 185.456C192.388 186.259 193.63 189.196 194.221 189.653C194.346 190.701 194.276 191.695 194.32 192.749C194.55 198.281 196.156 202.917 200.242 206.821L199.901 207.385C199.287 207.01 198.709 206.583 198.171 206.107C193.214 201.809 189.392 194.654 188.984 188.06C188.635 182.444 190.868 175.18 194.62 170.943Z" fill="#A16738"/>
<path d="M194.22 189.653C194.714 182.581 196.591 175.3 199.213 168.704C199.503 167.974 200.09 166.385 200.719 165.976C200.972 166.711 199.418 169.862 199.176 170.899C197.924 176.273 194.191 189.48 196.148 194.419C195.755 197.641 197.35 200.907 199.08 203.459C201.323 206.767 206.853 209.067 208.278 210.793C206.892 210.811 205.522 210.496 204.283 209.875C202.767 209.239 201.174 208.425 199.9 207.386L200.242 206.821C196.156 202.917 194.55 198.281 194.32 192.75C194.276 191.695 194.346 190.701 194.22 189.653Z" fill="#91592F"/>
<path d="M200.241 206.821C201.335 207.549 203.564 208.884 204.283 209.874C202.767 209.239 201.174 208.425 199.9 207.385L200.241 206.821Z" fill="#91592F"/>
<path d="M212.723 160.794C220.521 160.117 231.74 164.295 235.463 171.576C236.701 173.315 238.183 175.929 238.59 178.032C243.28 189.879 234.526 207.172 222.1 210.364C221.34 210.685 221.339 210.687 220.522 210.796C217.081 211.54 211.619 212.128 208.278 210.792C206.853 209.067 201.323 206.767 199.08 203.458C197.35 200.907 195.754 197.641 196.148 194.419C198.373 197.176 200.438 199.113 203.569 200.852L203.859 200.782L203.813 200.656L204.482 200.232C204.65 200.727 204.814 201.063 205.035 201.537C208.478 204.391 218.846 204.433 222.398 201.981C220.769 204.812 218.721 205.435 217.172 209.103L217.275 209.302C217.682 208.916 218.133 208.457 218.587 208.136C220.868 206.523 222.913 203.397 224.523 201.052C226.752 200.428 230.135 196.942 230.73 194.665C233.065 185.729 232.487 177.842 228.585 169.601C229.751 170.858 230.39 172.26 231.595 173.172C231.41 171.841 231.331 171.353 230.145 170.557C225.889 167.702 220.809 165.155 215.787 164.112C214.542 163.853 212.425 164.239 211.27 163.857L210.905 162.142C211.476 161.867 212.204 161.218 212.723 160.794Z" fill="#A96E3C"/>
<path d="M212.723 160.794C220.521 160.117 231.74 164.295 235.463 171.576C235.321 172.785 235.516 174.008 235.623 175.233C235.953 179.004 235.91 180.917 234.68 184.444C234.433 182.094 234.528 179.578 232.864 177.988C232.711 176.516 232.112 174.561 231.595 173.172C231.41 171.841 231.331 171.353 230.145 170.557C225.889 167.702 220.809 165.155 215.787 164.112C214.542 163.853 212.425 164.239 211.27 163.857L210.905 162.142C211.476 161.867 212.204 161.218 212.723 160.794Z" fill="#DEAA72"/>
<path d="M235.463 171.575C236.701 173.314 238.184 175.929 238.59 178.031C238.002 179.432 238.24 181.016 237.938 182.651C236.987 187.827 235.118 191.16 232.341 195.458C233.013 191.777 233.397 189.586 233.308 185.756C233.256 183.578 232.79 179.977 232.864 177.987C234.528 179.578 234.433 182.094 234.68 184.443C235.91 180.917 235.953 179.004 235.624 175.233C235.516 174.008 235.321 172.784 235.463 171.575Z" fill="#CB9153"/>
<path d="M220.522 210.796C222.686 208.098 225.778 205.443 227.656 202.356C228.647 200.731 229.376 198.648 230.339 196.885C231.13 196.456 231.01 196.339 231.674 196.495C231.917 197.98 228.163 203.795 227.052 205.26C226.119 206.496 222.444 209.309 222.101 210.364C221.34 210.685 221.34 210.687 220.522 210.796Z" fill="#79441E"/>
<path d="M227.735 189.455C227.031 195.166 227.025 195.957 224.523 201.052C222.914 203.397 220.868 206.523 218.588 208.136C218.133 208.457 217.683 208.915 217.275 209.302L217.173 209.103C218.722 205.434 220.769 204.811 222.399 201.981C225.956 196.451 225.028 194.239 227.735 189.455Z" fill="#91592F"/>
<path d="M209.914 176.929C209.319 178.727 208.068 181.083 207.17 182.83C204.24 188.531 202.891 193.913 204.482 200.232L203.814 200.655C202.044 191.65 203.952 185.785 208.383 177.967L209.914 176.929Z" fill="#91592F"/>
<path d="M211.227 164.102C212.54 164.777 212.577 166.861 212.445 168.184C211.238 167.163 211.045 167.108 209.6 166.549C209.65 165.966 209.666 166.12 209.981 165.551C211.012 164.801 210.798 165.168 211.227 164.102Z" fill="#B77A44"/>
<path d="M214.598 185.434C213.51 188.838 211.847 192.658 211.574 196.244C211.46 197.725 212.859 201.35 212.497 202.696C210.45 200.959 209.864 198.479 210.113 195.908C210.382 193.135 212.519 187.134 214.598 185.434Z" fill="#A96E3C"/>
<path d="M224.908 180.366C226.738 184.008 221.986 194 219.395 196.867L219.253 196.82L219.149 196.493C221.486 192.737 223.41 188.462 224.271 184.123C224.518 182.88 224.566 181.852 224.854 180.59L224.908 180.366Z" fill="#B77A44"/>
<path d="M227.667 232.675C242.391 253.238 271.805 276.105 298.508 267.132C289.522 273.213 273.107 283.463 261.983 281.964C245.82 279.786 221.285 263.838 210.908 251.626C210.435 249.495 210.446 244.954 209.965 242.125C215.792 239.152 219.233 235.082 222.778 229.757C223.297 228.823 223.365 228.339 224.19 227.866C225.297 228.289 226.562 231.152 227.667 232.675Z" fill="#91592F"/>
<path d="M222.778 229.757C223.297 228.823 223.365 228.339 224.19 227.866C225.297 228.289 226.562 231.152 227.667 232.675C226.759 232.665 224.337 230.478 222.778 229.757Z" fill="#A16738"/>
<path d="M245.298 274.443C235.355 269.222 227.742 264.88 221.277 255.481C219.98 253.595 213.277 246.667 213.047 245.15L213.349 245.094C220.068 253.555 231.483 264.833 240.336 270.713C242.679 272.016 246.165 273.996 248.224 275.635C247.705 275.717 245.783 274.745 245.298 274.443Z" fill="#562D0B"/>
<path d="M240.336 270.713C242.679 272.016 246.165 273.996 248.223 275.635C247.705 275.717 245.783 274.744 245.298 274.443C244.952 273.441 241.587 271.621 240.336 270.713Z" fill="#79441E"/>
<path d="M220.414 243.854C226.406 249.852 233.047 255.61 239.17 261.525C239.857 262.188 244.821 265.963 244.854 266.225C237.284 261.773 223.661 250.274 218.495 243.276C219.127 243.217 219.796 243.595 220.414 243.854Z" fill="#562D0B"/>
<path d="M285.784 273.741L286.036 274.053C285.288 274.218 284.061 273.837 283.18 273.734C274.696 272.737 263.546 271.885 255.432 269.225L255.26 268.951L255.413 268.777C261.491 270.495 269.684 270.847 275.951 271.624C279.447 272.057 282.415 272.814 285.784 273.741Z" fill="#562D0B"/>
<path d="M221.1 234.77C224.096 236.384 228.521 241.343 231.224 243.936C234.668 247.241 238.206 250.447 241.833 253.549C243.985 255.388 251.695 260.622 252.729 261.806C250.128 260.553 247.95 258.757 245.597 257.147C237.337 251.494 230.455 244.392 223.457 237.307C222.641 236.48 221.675 235.783 221.1 234.77Z" fill="#562D0B"/>
<path d="M273.023 277.647L273.637 278.142C273.322 278.505 273.201 278.572 272.614 278.628C265.681 279.285 259.733 275.925 254.489 272.2L254.044 271.471C255.028 271.608 258.696 274.284 260.093 274.959C264.876 277.266 267.961 277.374 273.023 277.647Z" fill="#562D0B"/>
<path d="M218.495 243.276C217.867 242.564 216.608 241.419 216.477 240.646C217.362 241.104 219.354 243.021 220.414 243.855C219.797 243.596 219.127 243.218 218.495 243.276Z" fill="#79441E"/>
<path d="M225.926 211.882C225.802 213.985 225.304 215.658 224.643 217.633C223.787 219.951 222.413 223.419 221.744 225.704L221.421 226.474C220.862 227.841 218.62 231.579 217.662 232.688C216.285 234.635 211.484 239.17 209.289 239.876C207.951 239.275 206.273 237.213 204.699 236.468C195.155 231.952 186.575 233.762 177.991 238.989C182.167 234.558 184.844 231.782 188.551 226.956C189.271 225.648 191.322 221.758 192.253 220.93C193.104 219.692 195.2 217.334 196.244 216.067C197.249 214.264 198.503 212.35 199.608 210.587C206.854 215.136 218.278 215.883 225.926 211.882Z" fill="#A96E3C"/>
<path d="M219.939 228.458C219.315 229.793 218.389 231.372 217.662 232.687C216.285 234.634 211.484 239.17 209.289 239.876C207.951 239.275 206.273 237.213 204.699 236.468C195.156 231.952 186.575 233.762 177.991 238.988C182.167 234.558 184.845 231.782 188.551 226.956C189.959 226.82 195.086 230.288 197.052 230.663C204.968 232.17 213.437 234.255 219.939 228.458Z" fill="#91592F"/>
<path d="M225.926 211.882C225.802 213.985 225.304 215.658 224.643 217.633C222.737 217.928 221.197 218.776 219.338 219.031C211.327 220.131 203.93 217.602 196.244 216.067C197.249 214.264 198.503 212.35 199.608 210.587C206.854 215.136 218.278 215.883 225.926 211.882Z" fill="#91592F"/>
<path d="M221.421 226.475C220.862 227.841 218.619 231.58 217.662 232.688C218.389 231.373 219.315 229.793 219.939 228.458C213.437 234.256 204.968 232.171 197.052 230.663C195.086 230.288 189.958 226.82 188.551 226.957C189.271 225.649 191.322 221.759 192.253 220.93C191.852 221.826 189.846 225.195 189.254 226.263C195.815 228.407 217.359 232.534 221.421 226.475Z" fill="#79441E"/>
<path d="M218.278 220.893L218.285 221.174C214.588 222.704 199.651 221.48 194.796 221.069L194.69 220.817C195.989 220.117 209.309 221.123 211.866 221.181C213.681 221.22 216.396 221.003 218.278 220.893Z" fill="#91592F"/>
<path d="M193.252 138.315C201.357 137.402 214.568 139.027 222.383 141.835C224.648 142.648 228.563 145.109 230.667 146.468C233.048 149.248 233.768 151.268 233.848 154.922C234.117 157.167 233.835 159.394 234.043 161.562L232.053 163.474C222.28 157.391 211.983 155.609 201.461 161.402C201.016 158.505 199.469 153.552 199.232 151.564C198.561 148.859 196.852 144.814 195.598 142.328C194.827 140.912 194.101 139.689 193.252 138.315Z" fill="#CB9153"/>
<path d="M230.239 152.33C230.645 151.925 230.433 152.102 231.096 151.938C231.721 153.011 232.184 154.024 233.14 154.785L233.848 154.921C234.117 157.166 233.835 159.393 234.043 161.561L232.053 163.474C222.28 157.391 211.983 155.609 201.461 161.401C201.016 158.504 199.469 153.552 199.233 151.563C200.332 151.677 200.475 151.68 201.535 151.373C203.148 151.269 205.624 151.853 207.42 151.895C210.583 151.968 213.481 151.916 216.644 152.186C217.98 152.079 228.208 152.203 229.239 152.57L230.239 152.33Z" fill="#B77A44"/>
<path d="M230.238 152.33C228.795 156.433 206.19 152.954 202.316 152.097C201.981 152.023 201.715 151.635 201.534 151.373C203.148 151.269 205.624 151.853 207.42 151.895C210.582 151.969 213.481 151.917 216.643 152.187C217.979 152.08 228.208 152.203 229.239 152.57L230.238 152.33Z" fill="#A16738"/>
<path d="M216.643 152.187C217.979 152.08 228.208 152.203 229.239 152.57C226.141 153.568 219.048 155.005 216.643 152.187Z" fill="#B77A44"/>
<path d="M193.252 138.315C201.357 137.402 214.568 139.027 222.383 141.835C224.648 142.648 228.563 145.109 230.667 146.468C229.038 147.153 228.825 147.151 227.09 146.971C225.63 146.958 224.837 147.085 223.427 147.498C223.317 147.533 222.737 147.726 222.644 147.725C222.424 147.133 222.306 147.113 221.833 146.666L220.021 146.689C215.901 144.615 208.452 142.725 203.673 142.32C202.885 142.875 196.757 142.528 195.598 142.328C194.827 140.912 194.101 139.689 193.252 138.315Z" fill="#DCA771"/>
<path d="M217.64 143.328C216.215 143.315 214.219 143.239 212.857 143.386C215.09 144.385 224.101 142.608 224.998 145.621C224.402 146.444 223.456 146.249 222.289 146.545L221.834 146.665L220.021 146.689C215.901 144.614 208.453 142.724 203.673 142.319C203.117 142.13 202.901 142.002 202.386 141.733C202.443 141.717 216.49 142.766 217.746 142.852L217.64 143.328Z" fill="#CE9A65"/>
<path d="M222.289 146.546C224.367 146.883 225.982 145.603 227.09 146.971C225.63 146.958 224.837 147.085 223.427 147.498C223.317 147.532 222.737 147.725 222.644 147.725C222.425 147.132 222.306 147.113 221.834 146.666L222.289 146.546Z" fill="#B77A44"/>
<path d="M217.746 142.853C218.455 142.907 218.997 142.791 219.334 143.181C218.514 143.359 218.485 143.352 217.64 143.329L217.746 142.853Z" fill="#CB9153"/>
<path d="M230.668 146.468C233.048 149.247 233.768 151.268 233.848 154.922L233.14 154.786C232.183 154.024 231.721 153.012 231.096 151.938C230.482 150.697 229.337 150.073 228.192 149.243C226.293 149.167 224.423 149.281 223.427 147.498C224.837 147.085 225.63 146.958 227.09 146.971C228.825 147.151 229.038 147.153 230.668 146.468Z" fill="#DEAA72"/>
<path d="M221.833 146.665C222.306 147.113 222.425 147.132 222.644 147.725C217.271 148.179 207.629 148.098 202.987 145.405C208.025 146.178 214.924 146.965 220.021 146.689L221.833 146.665Z" fill="#985D2E"/>
<path d="M243.264 126.124C253.762 120.058 271.625 115.016 283.634 113.877L283.358 114.005C279.865 115.621 276.107 116.646 272.228 118.468C257.783 125.315 245.065 135.327 235.017 147.761C231.545 143.517 228.678 142.155 223.82 139.693C225.356 138.285 226.92 136.908 228.51 135.563C233.161 131.995 237.827 128.445 243.264 126.124Z" fill="#91592F"/>
<path d="M243.264 126.124C243.206 126.313 243.147 126.501 243.089 126.69C239.668 128.852 232.436 137.417 228.287 137.256L227.889 137.029C227.928 136.424 228.2 136.09 228.51 135.563C233.161 131.994 237.827 128.444 243.264 126.124Z" fill="#A16738"/>
<path d="M236.986 137.733C241.432 131.678 251.346 125.505 257.95 122.116C259.215 121.467 261.892 120.057 263.196 119.743L263.314 119.927C261.575 121.371 259.094 121.862 257.379 123.031C250.864 127.474 243.735 131.383 238.752 137.634C238.261 138.25 237.021 139.362 236.749 140.049C237.552 139.574 238.335 138.718 239.034 138.528C238.778 139.182 236.383 140.846 235.727 141.186C235.244 141.877 234.723 142.289 233.908 142.388C233.912 140.916 235.961 138.744 236.986 137.733Z" fill="#7A461F"/>
<path d="M235.727 141.185C235.244 141.877 234.723 142.289 233.908 142.388C233.913 140.916 235.961 138.744 236.986 137.732C237.209 139.612 235.989 139.416 235.727 141.185Z" fill="#79441E"/>
<path d="M175.285 174.997C177.558 172.045 186.871 170.704 188.705 173.671C188.761 174.558 187.784 176.93 187.427 177.911C186.259 181.173 186.114 184.584 186.009 188.014L186.243 188.993C186.398 190.24 186.544 191.473 186.747 192.714C178.904 194.499 171.419 189.789 171.77 181.221L171.922 180.502C172.011 178.508 173.559 175.954 175.285 174.997Z" fill="#A96E3C"/>
<path d="M175.285 174.997C177.558 172.045 186.871 170.704 188.704 173.671C188.761 174.558 187.783 176.93 187.427 177.911C185.418 175.582 178.161 175.917 175.285 174.997Z" fill="#995F33"/>
<path d="M186.009 188.014L186.243 188.993C183.341 187.898 177.825 186.684 174.781 186.829C174.043 186.864 173.636 186.722 173.221 186.271C174.772 185.487 177.977 185.76 179.716 185.939C181.826 186.156 184.25 187.699 186.009 188.014Z" fill="#79441E"/>
<path d="M171.922 180.501C173.886 181.052 177.28 180.599 178.749 181.515C177.476 181.697 173.16 181.367 171.77 181.221L171.922 180.501Z" fill="#91592F"/>
<path d="M245.169 178.792C249.558 178.596 250.598 179.356 254.111 181.902C255.047 183.091 255.434 183.797 256.004 185.207L256.372 186.542C256.578 187.819 256.713 188.735 256.315 190.029C255.818 192.258 255.072 193.639 253.297 195.101C251.596 196.583 250.74 197.031 248.579 197.675C247.619 197.752 246.306 197.903 245.379 197.831C244.856 197.784 244.403 197.757 243.888 197.64C242.865 197.48 241.477 197.156 240.433 196.942C240.893 195.861 241.086 195.316 241.396 194.183C241.569 193.399 241.929 192.5 242.207 191.733C242.677 188.687 242.8 186.508 242.91 183.463C242.683 183.081 242.339 179.734 242.265 179.089C243.217 178.928 244.205 178.871 245.169 178.792Z" fill="#A96E3C"/>
<path d="M256.005 185.208L256.373 186.543C256.579 187.82 256.713 188.736 256.316 190.029C255.819 192.259 255.072 193.639 253.298 195.101C251.596 196.584 250.741 197.031 248.579 197.676C247.619 197.753 246.307 197.904 245.379 197.831C245.69 196.673 248.518 194.868 249.529 193.661C251.66 191.119 253.563 188.188 255.191 185.33L256.005 185.208Z" fill="#A96E3C"/>
<path d="M256.372 186.542C256.578 187.82 256.712 188.736 256.315 190.029C255.818 192.259 255.072 193.639 253.297 195.101C251.596 196.584 250.74 197.031 248.578 197.676C250.318 195.686 252.382 193.776 253.778 191.556C254.804 189.93 255.155 188.132 256.372 186.542Z" fill="#91592F"/>
<path d="M256.316 190.029C255.819 192.259 255.072 193.639 253.297 195.101C253.257 193.658 255.26 191.002 256.316 190.029Z" fill="#A16738"/>
<path d="M253.661 185.43C254.7 185.009 254.206 185.007 255.191 185.33C253.563 188.188 251.66 191.119 249.529 193.662C248.518 194.868 245.69 196.673 245.379 197.831C244.857 197.784 244.403 197.757 243.888 197.641C248.058 193.571 251.435 191.182 253.661 185.43Z" fill="#79441E"/>
<path d="M242.207 191.734C244.132 189.506 248.973 183.596 249.549 180.82L250 180.404L250.131 180.617C248.477 186.429 245.407 190 241.397 194.183C241.569 193.399 241.929 192.501 242.207 191.734Z" fill="#79441E"/>
<path d="M242.265 179.09C243.217 178.929 244.205 178.872 245.169 178.792C243.405 180.795 243.823 181.804 242.91 183.464C242.683 183.082 242.339 179.735 242.265 179.09Z" fill="#91592F"/>
<path d="M254.111 181.902C255.048 183.091 255.434 183.798 256.005 185.208L255.191 185.329C254.206 185.007 254.7 185.009 253.661 185.429C253.785 184.189 253.882 183.137 254.111 181.902Z" fill="#91592F"/>
<path d="M225.926 211.882C226.814 211.449 227.124 211.11 227.984 211.212L228.245 211.724C227.967 212.376 227.268 217.055 227.303 217.612C226.961 219.007 226.583 220.455 226.279 221.852C225.833 222.872 225.398 223.896 224.979 224.928C224.262 224.445 223.943 224.117 223.086 224.1C222.178 224.643 222.311 224.643 221.744 225.703C222.413 223.418 223.787 219.951 224.643 217.632C225.304 215.658 225.802 213.985 225.926 211.882Z" fill="#79441E"/>
<path d="M84.4505 107.042C86.1552 106.405 87.8453 106.416 89.731 105.905L89.7555 106.2C89.4717 107.02 89.1956 107.9 88.8252 108.679L88.3307 109.86L87.9662 111.314L87.7755 111.445C87.0399 110.951 83.6142 111.34 82.9078 111.755C83.4014 110.131 83.8498 108.63 84.4505 107.042Z" fill="#CB9153"/>
<path d="M209.422 163.082L210.904 162.141L211.27 163.857L211.227 164.101C210.798 165.168 211.012 164.801 209.981 165.551C209.666 166.12 209.65 165.966 209.6 166.548L207.897 166.574L207.037 166.621L206.914 166.007C204.786 165.088 204.82 165.048 204.847 162.832C206.531 162.058 207.612 161.803 209.417 161.322L209.422 163.082Z" fill="#DEAA72"/>
<path d="M209.422 163.082L210.905 162.142L211.27 163.857L211.227 164.102C210.798 165.168 211.012 164.801 209.982 165.551C209.764 164.787 209.558 164.496 209.169 163.82L209.422 163.082Z" fill="#DEAA72"/>
<path d="M209.169 163.82C209.558 164.496 209.764 164.786 209.982 165.55C209.666 166.119 209.65 165.965 209.6 166.548L207.897 166.573L209.169 163.82Z" fill="#CB9153"/>
<path d="M209.418 161.322C210.619 161.038 211.512 160.939 212.724 160.794C212.204 161.218 211.477 161.867 210.905 162.142L209.422 163.082L209.418 161.322Z" fill="#DEAA72"/>
</svg>
