<svg width="393" height="852" viewBox="0 0 393 852" fill="none" xmlns="http://www.w3.org/2000/svg">
<g clip-path="url(#clip0_1237_209)">
<rect width="393" height="852" fill="#0A0E1A"/>
<rect width="393" height="852" fill="#FAFAFA"/>
<path d="M24.7226 144.755C24.7226 144.755 3.52318 217.386 39.8882 285.858C76.8505 355.455 171.286 420.986 220.376 373.972C246.783 348.682 253.023 316.001 227.666 281.828C202.394 247.771 166.328 240.369 132.633 254.706C60.4933 285.401 80.8181 412.045 134.509 485.268C188.308 558.638 304.88 617.771 355.568 557.735C379.275 529.655 384.401 493.08 358.339 459.448C332.792 426.482 296.139 417.621 263.306 432.326C193.256 463.698 203.19 590.607 261.416 657.769C299.434 701.622 341.48 719.264 392.527 712.784" stroke="#F1F1F1" stroke-width="40.3035" stroke-linecap="round"/>
</g>
<defs>
<clipPath id="clip0_1237_209">
<rect width="393" height="852" fill="white"/>
</clipPath>
</defs>
</svg>
