<svg width="119" height="119" viewBox="0 0 119 119" fill="none" xmlns="http://www.w3.org/2000/svg">
<circle cx="59.5" cy="59.5" r="56.5738" fill="#FAFAFA" stroke="#ED1C24" stroke-width="5.85246"/>
<path d="M87.1018 30.1909C91.7946 29.8395 96.789 32.247 99.5224 37.499C101.279 40.8764 101.586 44.3746 100.417 47.9985L100.416 48.0036C99.3351 51.4421 96.9144 54.3 93.7011 55.9326C93.1046 56.2306 92.4122 56.5329 91.7494 56.807C91.1328 55.323 90.6378 54.2284 89.8143 52.7018C87.8203 48.2898 84.4023 44.7698 80.82 41.7785L80.7943 41.7576L80.7669 41.7388L79.5759 40.9463C78.5642 40.2826 77.634 39.7049 76.5001 39.0758C78.2301 33.4733 82.5484 30.5319 87.1018 30.1909Z" fill="#ACE0EC" stroke="black" stroke-width="1.25913"/>
<path d="M81.9304 40.9463C84.0213 37.2201 87.7116 35.2242 91.6902 37.6012C93.3593 38.5994 94.5509 40.2304 94.9969 42.1221C95.8272 45.7365 93.555 49.5351 90.7673 51.6746C88.8328 47.377 85.4926 43.9208 81.9304 40.9463Z" fill="#FFFFFC"/>
<path d="M81.9304 40.9463C84.0213 37.2201 87.7116 35.2242 91.6902 37.6012C93.3593 38.5994 94.5509 40.2304 94.9969 42.1221C95.8272 45.7365 93.555 49.5351 90.7673 51.6746C88.8328 47.377 85.4926 43.9208 81.9304 40.9463Z" stroke="black"/>
<path d="M26.9906 34.2284C31.6917 33.5995 36.748 35.6545 39.9177 40.9204C37.9709 42.1812 36.6599 43.3819 34.9577 44.9845L34.9416 44.9999L34.9274 45.0151C33.1312 46.9553 31.8613 48.3958 30.7658 49.9785C29.6672 51.5657 28.7559 53.2789 27.6517 55.7607L27.6477 55.769L27.6437 55.7782C27.0307 57.2794 26.3623 59.3531 25.8102 60.9881C25.6994 60.96 25.5882 60.933 25.4767 60.9043L25.4777 60.9042C18.019 58.9696 13.6859 51.7746 15.8287 44.4161C17.5769 38.4081 22.1301 34.8787 26.9906 34.2284Z" fill="#ACE0EC" stroke="black" stroke-width="1.25913"/>
<path d="M23.9972 42.0906C27.4128 39.8171 31.7312 40.8641 33.8964 44.2902C30.3068 48.1675 28.9245 49.9389 26.7337 54.8633C23.2441 53.4728 20.4832 50.0839 21.2473 46.1689C21.5785 44.4961 22.5697 43.0262 23.9972 42.0906Z" fill="#FFFFFC"/>
<path d="M23.9972 42.0906C27.4128 39.8171 31.7312 40.8641 33.8964 44.2902C30.3068 48.1675 28.9245 49.9389 26.7337 54.8633C23.2441 53.4728 20.4832 50.0839 21.2473 46.1689C21.5785 44.4961 22.5697 43.0262 23.9972 42.0906Z" stroke="black"/>
<path d="M56.2773 34.6289C66.28 33.4183 74.0488 34.536 82.0473 40.8007C87.9966 45.4598 91.6819 52.0189 92.7008 59.4284L92.7905 60.1487C93.5118 66.5177 92.5831 71.766 88.7303 76.7779L88.3487 77.2624C86.8652 79.0979 85.0323 80.6261 83.0509 81.9701C76.9159 86.1369 70.6863 86.9873 63.3523 87.7561C58.9608 88.1731 53.9845 88.4725 49.1564 88.0444C44.4742 87.6292 39.9758 86.5336 36.2977 84.2357L35.9442 84.0101C30.9241 80.6606 27.418 75.4755 26.1793 69.567L26.1783 69.5671C24.6716 62.03 27.0832 54.4996 31.3632 48.1778C36.8389 40.0939 45.6911 36.6239 55.0765 34.8114C55.4758 34.738 55.8757 34.6776 56.2773 34.6289Z" fill="#A2DDF7" stroke="black" stroke-width="1.24735"/>
<path d="M60.1175 41.185C61.6443 40.9908 62.6864 40.989 64.151 41.6086C66.7963 42.7303 68.9599 45.2597 69.9743 47.9188C70.8933 50.3325 71.0234 53.5113 69.9143 55.8735C69.0032 57.8165 67.5817 58.6631 65.6398 59.3135C63.8624 59.6097 62.1069 59.9057 60.3127 59.5589C58.63 59.233 57.1319 58.3102 56.1969 56.8571C54.7207 54.5633 54.6298 51.0105 55.1876 48.3995C55.8361 45.3519 57.4967 42.8724 60.1175 41.185Z" fill="black"/>
<path d="M60.7424 42.7092C62.1366 42.502 63.1096 42.8332 64.332 43.5182C66.4511 44.7109 68.0908 47.0903 68.7325 49.3937C69.2735 51.3368 69.2487 53.7825 68.1836 55.5535C67.2747 57.0685 66.1957 57.428 64.5829 57.8216C63.519 58.0087 62.342 58.1589 61.263 58.0469C59.9085 57.9061 58.6203 57.321 57.7834 56.2225C56.4107 54.4199 56.3509 51.5347 56.6667 49.3611C57.0829 46.5012 58.4405 44.4034 60.7424 42.7092Z" fill="#6966EC"/>
<path d="M66.8303 59.6959C67.4458 59.6793 68.0673 59.7193 68.6673 59.9345C70.2572 60.5045 71.5529 62.1181 72.3724 64.0307C74.6927 69.4448 74.6995 80.6158 72.7036 82.52C70.7077 84.4242 66.0245 84.3677 66.0245 84.3677C64.0658 84.6871 62.4073 83.3763 61.0085 81.0677C58.1761 76.3928 59.2909 70.5794 61.7419 64.8721C62.9836 61.9806 64.5106 60.5068 66.8303 59.6959Z" fill="black"/>
<path d="M66.3815 62.1607C66.6819 62.1041 66.9824 62.0502 67.2847 62.0208C68.2748 61.9294 69.2083 62.4722 69.9404 63.3731C71.9359 65.8262 72.4396 70.8402 72.6477 74.3176C72.765 76.2858 72.8956 79.7654 71.8583 81.2722C71.5608 81.706 71.4765 81.6954 71.0748 81.6972C70.6341 80.7283 70.8075 78.0039 70.3384 76.5453C70.308 76.4536 69.9861 75.6568 69.9556 75.5624C69.5477 74.2679 68.6804 73.6305 67.8859 72.6914C67.0937 71.7548 66.0964 71.267 65.0512 71.3958C63.4243 71.5969 62.4785 72.8782 61.4628 74.4642C61.6101 72.0749 61.8267 69.876 62.5048 67.651C63.3085 65.0069 64.4552 63.2474 66.3815 62.1607Z" fill="#B33B3C"/>
<path d="M64.9522 73.3878C65.5102 73.3461 65.9838 73.3758 66.4943 73.7316C68.287 74.975 70.6392 78.6605 69.2365 81.3715C68.5167 82.7626 67.7727 83.1823 66.4218 83.404L64.3812 82.9013C63.5879 82.3179 62.4362 81.3101 62.0792 79.5897C61.5061 76.8282 63.2892 74.9346 64.9522 73.3878Z" fill="#E66564"/>
<path d="M48.6697 50.1807C49.136 50.2508 49.4799 50.4322 49.8054 50.7727C51.8294 52.8899 52.5537 60.1754 52.5249 63.1528C52.5084 65.0287 52.2648 66.5944 50.8883 67.9659C50.2871 67.8791 49.9367 67.8356 49.4884 67.3777C47.4391 65.2869 46.9909 57.8949 47.0196 55.1005C47.0394 53.1567 47.23 51.5981 48.6697 50.1807Z" fill="black"/>
<path d="M76.8466 47.0589C77.3064 47.1853 77.7298 47.3053 78.113 47.6043C79.9171 49.0147 80.2085 52.7488 80.4252 54.8747C80.7221 57.7846 81.2405 62.5234 79.2657 64.9419C78.8117 64.8766 78.4179 64.8154 78.0274 64.543C76.8901 63.7503 76.3631 62.0545 76.0987 60.767C75.3663 57.1831 74.7993 50.1649 76.8466 47.0589Z" fill="black"/>
<path d="M44.4902 49.3719C46.9234 49.9802 47.6059 50.2073 48.5383 50.4744C49.2673 50.6832 50.0414 50.9309 50.4037 51.045C51.1276 51.273 48.5258 50.3238 47.8975 50.1714C47.1882 49.9994 46.5103 49.6778 45.862 49.3919C45.7091 49.3343 45.5585 49.2966 45.3679 49.2772C45.1773 49.2578 44.9513 49.2578 44.7185 49.2578" stroke="black" stroke-width="2.65779" stroke-linecap="round"/>
<path d="M74.793 48.6038C77.2262 47.9955 77.9086 47.7684 78.8411 47.5013C79.5701 47.2925 80.3441 47.0448 80.7065 46.9307C81.4304 46.7027 78.8285 47.652 78.2002 47.8043C77.4909 47.9763 76.813 48.2979 76.1648 48.5838C76.0118 48.6414 75.8612 48.6791 75.6706 48.6985C75.48 48.7179 75.254 48.7179 75.0212 48.7179" stroke="black" stroke-width="2.65779" stroke-linecap="round"/>
</svg>
