<svg width="545" height="452" viewBox="0 0 545 452" fill="none" xmlns="http://www.w3.org/2000/svg">
<path d="M233.995 0.268483C238.49 -0.199747 250.301 0.0870284 255.331 0.0858658L296.882 0.0790299L345.079 0.080983C353.06 0.0830175 361.169 -0.0125696 369.162 0.195241C373.263 0.399855 376.016 1.31152 378.707 4.497C381.904 8.27773 381.982 15.0421 381.613 19.9159C380.942 28.7787 383.936 39.1336 377.896 46.2665C380.251 53.739 383.993 63.1706 386.705 70.6581L405.993 123.559L473.219 306.594C484.542 312.287 496.343 317.277 507.771 322.791C509.896 323.814 512.204 324.927 514.482 325.575C520.798 326.921 528.038 324.418 534.127 327.144C537.934 328.816 540.849 332.025 542.145 335.975C544.401 342.97 543.195 354.338 543.669 361.999C544.166 370.038 544.267 378.453 543.857 386.486C543.285 394.429 537.923 400.416 529.762 400.814C523.016 401.143 516.135 400.838 509.369 400.891C508.5 416.167 502.821 428.525 491.326 438.77C480.837 448.016 467.101 452.709 453.147 451.817C438.691 451.076 425.153 444.487 415.648 433.564C407.609 424.505 402.961 412.937 402.502 400.835L203.017 400.87C202.278 415.963 196.483 428.482 185.272 438.637C174.815 447.928 161.085 452.669 147.122 451.806C128.238 450.817 111.555 440.348 102.623 423.631C98.5168 415.943 97.2193 410.176 96.2587 401.663C86.764 401.832 76.5398 402.515 67.3291 401.161C62.6299 400.469 56.053 395.1 55.7656 390.322C55.0733 378.81 54.3894 365.821 54.4287 354.309C54.456 346.307 54.0856 336.044 59.9892 330.208C65.6388 324.811 74.8386 325.822 82.1035 325.849L101.216 325.881C107.788 310.25 119.051 300.661 135.687 296.723L143.558 275.05C144.004 273.82 146.384 267.096 146.791 266.403L158.593 233.996C160.59 228.616 162.57 222.797 164.796 217.58L121.977 197.754C108.089 203.915 95.0377 206.39 79.8808 204.95C55.5719 202.641 33.108 189.698 17.6855 170.998C5.44649 156.158 -1.57381 135.815 0.300738 116.555C0.836398 111.053 2.75776 98.9811 7.37496 95.3925C14.8553 89.5791 28.3544 91.469 37.0644 92.749C69.3804 97.4981 131.638 121.816 151.233 148.47C154.386 152.758 155.945 156.845 155.141 162.228C161.055 165.183 167.263 167.723 173.226 170.777C175.651 171.921 177.905 172.99 180.4 173.991C183.426 167.002 186.624 157.559 189.301 150.272L204.346 109.248L219.399 68.1552C221.974 61.1141 225.028 53.3893 227.253 46.3398C222.554 40.9742 223.335 33.6424 223.531 26.7782C223.747 19.2395 221.738 8.33424 227.761 2.98723C229.499 1.44523 231.682 0.493816 233.995 0.268483ZM348.238 298.996C349.442 309.09 352.075 319.609 360.8 325.878L374.222 325.895C374.753 324.588 375.355 322.966 375.963 321.722C377.288 319.062 378.762 316.315 380.584 313.952C376.047 311.325 369.182 308.448 364.25 306.236C359.861 304.271 352.58 300.493 348.238 298.996ZM194.235 300.845C204.67 308.116 209.922 313.522 214.167 325.894L251.651 325.881L273.101 325.875L273.086 298.749C258.001 285.49 259.504 277.549 255.505 259.238C246.754 254.998 237.943 250.882 229.074 246.894C224.856 244.959 219.721 242.733 215.688 240.597L194.235 300.845ZM333.947 291.535C332.224 293.654 330.913 295.023 328.983 296.973C328.995 306.413 329.181 316.498 328.931 325.889L337.453 325.886L342.057 325.88C337.479 318.771 335.197 311.723 334.462 303.204C334.302 301.355 334.578 292.169 333.947 291.535ZM283.66 49.4687L253.54 134.22C246.231 154.781 238.896 176.37 231.237 196.732L279.251 219.243C288.592 215.683 299.084 215.16 308.269 219.371C324.184 226.666 332.747 228.59 340.646 245.622C346.009 248.81 357.426 253.632 363.55 256.466C375.513 262.029 389.719 268.156 401.272 274.018C399.127 267.017 395.849 258.715 393.311 251.696L380.457 215.7L342.661 109.582C335.715 90.0969 327.652 69.0302 321.345 49.4531L283.66 49.4687Z" fill="#71421F"/>
<path d="M171.817 207.332L229.891 48.4861C231.335 48.9418 232.52 49.1714 233.993 49.4786L239.459 49.5025L242.952 49.4952C249.796 49.4961 256.751 49.4315 263.587 49.5039L266.973 49.4923C271.336 49.4839 275.87 49.5376 280.218 49.4374L181.84 325.889L170.931 325.878L168.255 325.901L148.226 325.878L144.767 325.898C141.243 325.857 131.784 326.197 128.596 325.703C131.045 319.024 133.452 312.328 135.817 305.617L136.423 304.277C136.646 302.632 139.637 295.395 140.299 293.433C143.443 284.106 147.912 273.936 150.786 264.578C157.97 246.651 165.144 225.643 171.817 207.332Z" fill="#E5AF79"/>
<path d="M171.817 207.332L229.891 48.4861C231.335 48.9418 232.52 49.1714 233.993 49.4786C230.262 59.3943 227.087 69.6012 223.749 79.6648C220.234 90.2853 216.536 100.845 212.657 111.339C191.091 169.1 170.189 227.108 149.954 285.347C145.28 298.778 139.945 312.11 135.442 325.663C133.532 325.648 130.396 325.532 128.596 325.703C131.045 319.024 133.452 312.328 135.817 305.617L136.423 304.277C136.646 302.632 139.637 295.395 140.299 293.433C143.443 284.106 147.912 273.936 150.786 264.578C157.97 246.651 165.144 225.643 171.817 207.332Z" fill="#F6CB9C"/>
<path d="M263.588 49.5041L266.974 49.4924C265.849 53.7748 263.91 59.2869 262.576 63.7785C255.685 87.1081 247.701 110.102 238.655 132.684C232.707 147.762 225.604 162.041 220.871 177.729C219.326 182.848 210.592 212.445 207.609 213.895L206.983 213.665C206.409 212.256 208.369 208.666 208.905 207.17C212.383 197.451 215.481 187.401 218.33 177.49C223.428 159.748 231.199 143.236 237.903 126.133C245.365 107.203 252.024 87.9661 257.865 68.4742C259.527 62.9979 262.85 54.7537 263.588 49.5041Z" fill="#C98C5E"/>
<path d="M144.768 325.898C149.904 315.406 154.883 305.48 159.43 294.677C164.243 283.24 166.836 271.475 171.079 260.047C180.922 233.534 193.933 208.441 201.334 180.968C201.783 179.323 203.085 175.086 204.312 174.142C206.234 177.145 193.137 214.744 190.732 220.615C186.443 231.229 181.473 241.602 177.365 252.286C171.976 266.301 168.335 280.994 162.681 294.913C159.046 303.859 154.813 312.505 150.444 321.106C149.883 322.21 148.441 324.858 148.227 325.878L144.768 325.898Z" fill="#C98C5E"/>
<path d="M239.46 49.5025L242.953 49.4952C241.75 53.285 239.261 58.8936 237.718 62.7658C235.116 69.4533 232.619 76.1809 230.227 82.9459C225.567 96.454 221.755 110.395 216.821 123.812C216.6 124.412 216.442 124.353 215.923 124.501L215.486 124.09C215.069 121.271 217.47 114.21 218.289 111.202C224.067 89.977 231.175 69.8977 239.46 49.5025Z" fill="#C98C5E"/>
<path d="M168.256 325.901C169.232 322.166 171.267 318.196 172.768 314.566C180.484 295.915 187.517 277.108 193.584 257.858C193.95 256.695 194.832 254.144 195.976 253.705C196.352 253.92 196.535 253.882 196.613 254.356C197.365 258.942 182.767 297.842 180.316 303.803C178.396 308.445 176.428 313.063 174.413 317.661C173.396 319.989 171.665 323.622 170.932 325.878L168.256 325.901Z" fill="#C98C5E"/>
<path d="M121.976 197.754C108.089 203.916 95.0379 206.39 79.881 204.95C55.572 202.641 33.1083 189.698 17.6857 170.998C5.44665 156.158 -1.5739 135.815 0.300763 116.554C0.836423 111.053 2.75759 98.9812 7.37479 95.3926C14.8551 89.5791 28.3545 91.4688 37.0645 92.7488C69.3806 97.498 131.638 121.816 151.233 148.47C154.386 152.758 155.945 156.845 155.141 162.228C161.055 165.183 167.263 167.723 173.226 170.777L172.805 171.046C174.13 172.044 175.344 171.868 175.878 173.66C175.586 174.328 175.739 174.163 175.179 174.548C174.184 173.682 166.014 169.856 164.853 170.045C169.206 172.371 175.623 174.749 179.427 177L177.282 183.154C175.972 186.569 172.956 194.058 172.038 197.432C172.557 197.103 177.183 185.374 177.516 184.232L177.822 184.065C180.944 185.503 177.654 188.607 177.348 190.537C176.522 195.753 172.015 202.248 171.817 207.332C165.145 225.643 157.971 246.651 150.787 264.578C148.98 265.679 149.219 270.684 147.367 270.786C146.702 270.306 146.615 270.333 146.233 269.632C146.514 268.493 146.682 267.99 147.105 266.891L146.791 266.403L158.593 233.996C160.591 228.616 162.57 222.797 164.796 217.58L121.976 197.754Z" fill="#664329"/>
<path d="M153.773 165.126C155.9 166.009 163.388 169.693 164.853 170.044C169.206 172.371 175.623 174.749 179.428 177L177.283 183.153C175.972 186.569 172.956 194.058 172.038 197.432C169.798 202.577 168.037 209.005 165.756 214.432C154.672 209.732 143.738 204.199 132.747 199.268C130.474 198.248 128.096 197.125 125.937 195.887C138.335 188.736 144.173 182.331 151.297 170.265L153.773 165.126Z" fill="#C98C5E"/>
<path d="M153.772 165.126C155.899 166.009 163.388 169.693 164.853 170.044C169.206 172.371 175.622 174.749 179.427 177L177.282 183.153C175 181.047 156.236 173.1 151.296 170.265L153.772 165.126Z" fill="#E5AF79"/>
<path d="M4.74928 107.238C18.4381 133.573 72.3921 155.642 100.018 163.709C107.502 165.866 115.108 167.577 122.795 168.835C131.375 170.169 140.249 170.483 148.683 168.124C145.666 174.958 139.1 182.64 133.283 187.183C110.731 204.796 79.0116 206.308 53.4473 194.601C47.4902 191.873 39.5064 187.883 35.0043 183.294C29.2597 179.779 21.2362 170.798 17.3671 165.211C4.34354 146.405 1.09034 129.317 4.74928 107.238Z" fill="#FEFFFF"/>
<path d="M122.795 168.835C131.375 170.169 140.249 170.483 148.682 168.124C145.666 174.958 139.1 182.64 133.283 187.183C110.731 204.796 79.0111 206.308 53.4468 194.601C47.4898 191.873 39.506 187.883 35.0039 183.294C36.3633 183.531 43.9241 187.811 45.838 188.706C59.5341 195.108 76.0306 197.896 90.7788 193.677C103.623 190.002 116.147 180.355 122.795 168.835Z" fill="#AEC8D7"/>
<path d="M20.8763 94.6665C23.3628 94.4584 30.7199 94.9932 33.5755 95.4268C66.9149 100.489 104.033 115.199 131.673 134.56C138.983 140.246 150.259 148.174 152.272 157.654C153.78 164.753 144.554 166.028 139.68 166.617C106.719 167.78 54.3671 145.543 27.3496 126.512C20.2468 121.066 9.07609 112.721 7.07005 103.653C5.51365 96.6182 15.8885 95.0301 20.8763 94.6665Z" fill="#FEFFFF"/>
<path d="M139.538 148.838C140.15 148.687 140.278 148.686 140.905 148.618C141.917 149.069 142.612 149.574 143.104 150.595C143.844 152.134 143.808 154.136 143.215 155.717C142.67 157.17 141.551 158.51 140.116 159.148C130.148 163.586 98.5831 153.091 87.7595 149.115C72.1338 143.374 24.5725 123.236 18.1109 108.372C17.4046 106.748 17.0759 104.797 17.8333 103.129C18.5378 101.576 20.0233 100.488 21.6251 99.9977C23.0681 99.5557 24.1778 99.5563 25.4968 100.305C25.5712 100.347 25.6444 100.392 25.7182 100.435C57.9689 102.206 103.057 120.38 129.222 139.494C131.909 141.487 134.451 143.669 136.829 146.022C137.421 146.6 139.093 148.461 139.538 148.838Z" fill="#AEC8D7"/>
<path d="M139.538 148.838C140.15 148.687 140.278 148.686 140.905 148.618C141.917 149.069 142.612 149.574 143.104 150.595C143.844 152.134 143.808 154.136 143.215 155.717C142.67 157.17 141.551 158.51 140.116 159.148C130.148 163.586 98.5831 153.091 87.7595 149.115C72.1338 143.374 24.5725 123.236 18.1109 108.372C17.4046 106.748 17.0759 104.797 17.8333 103.129C18.5378 101.576 20.0233 100.488 21.6251 99.9977C23.0681 99.5557 24.1778 99.5563 25.4968 100.305C25.5712 100.347 25.6444 100.392 25.7182 100.435C24.3862 102.857 18.8663 103.189 20.3413 106.133C24.9701 115.37 37.3292 121.165 45.808 126.558C69.9301 139.651 95.9975 150.599 123.005 155.939C127.499 156.827 133.296 157.609 137.773 156.682C143.228 155.552 139.526 151.26 139.538 148.838Z" fill="#664329"/>
<path d="M109.339 325.898C109.673 325.817 110.006 325.738 110.34 325.657C114.263 318.068 120.654 311.058 128.754 307.968C129.81 307.567 130.369 308.087 131.188 308.515C129.27 314.365 126.933 320.071 125.015 325.863L109.339 325.898Z" fill="#B5784C"/>
<path d="M104.603 325.849C108.775 314.435 122.386 302.307 134.414 300.197L133.276 303.216L133.169 303.644C132.45 305.28 131.835 306.849 131.188 308.515C130.368 308.088 129.81 307.567 128.754 307.968C120.654 311.058 114.263 318.068 110.34 325.657C110.006 325.739 109.672 325.817 109.339 325.898L104.603 325.849Z" fill="#C98C5E"/>
<path d="M133.276 303.216C134.592 303.234 135.34 303.42 136.423 304.277L135.817 305.617C134.391 305.036 133.785 304.96 133.169 303.643L133.276 303.216Z" fill="#664329"/>
<path d="M58.1395 341.77C59.2187 333.042 64.0823 328.86 72.8537 328.836C80.0812 328.816 87.3043 328.967 94.5385 328.926L170.344 328.988L370.828 328.944L471.659 328.985C485.955 328.871 500.252 328.86 514.549 328.944C519.542 329.005 524.975 328.944 529.942 329.121C532.319 329.205 536.199 331.722 537.58 333.711C539.487 336.451 539.92 338.713 540.228 341.979C540.562 346.415 540.437 351.611 540.385 356.084C540.562 364.967 541.245 373.828 540.966 382.713C540.832 386.916 540.437 391.011 537.426 394.252C534.732 397.147 531.221 397.85 527.428 397.801C521.4 397.836 515.363 397.795 509.335 397.769C508.664 383.126 503.377 369.858 492.425 359.831C481.796 349.978 467.624 344.854 453.153 345.633C438.569 346.345 425.667 352.896 415.936 363.656C415.485 364.156 415.041 364.664 414.605 365.176C414.195 365.708 412.498 367.998 412.146 368.35C405.801 378.647 402.956 385.623 402.479 397.911C383.916 397.717 365.352 397.658 346.788 397.74L246.606 397.719C232.261 397.714 217.329 397.932 203.036 397.714C202.638 388.387 201.282 383.382 197.511 375.005C197.332 374.753 196.457 372.985 196.265 372.611C188.069 359.424 177.381 350.516 161.952 346.877C147.934 343.654 133.208 346.168 121.052 353.855C108.987 361.624 100.49 373.852 97.4194 387.869C96.6678 391.375 96.2882 394.95 96.2864 398.536C91.0449 398.615 85.7043 398.85 80.4669 398.859C67.6328 398.882 58.585 399.001 58.4412 383.472L58.222 379.548C58.2508 377.941 58.1543 376.357 58.0866 374.75C57.6977 365.557 57.2812 356.273 57.8459 347.077C57.8753 345.139 57.8794 343.694 58.1395 341.77Z" fill="#E5AF79"/>
<path d="M196.265 372.611C198.914 372.236 202.263 372.332 204.952 372.32C224.981 372.233 244.822 371.899 264.814 373.442C269.043 373.771 275.751 372.931 280.224 372.753C285.901 372.579 291.583 372.713 297.245 373.157C299.561 373.32 303.342 373.422 305.231 374.637L305.423 375.198C304.781 375.921 304.56 375.991 303.267 375.959C296.637 375.785 289.967 375.651 283.331 375.683C277.205 375.715 270.816 376.241 264.701 376.285C260.426 376.317 249.469 375.349 246.641 375.375C242.024 375.416 198.431 374.561 197.51 375.006C197.332 374.753 196.456 372.986 196.265 372.611Z" fill="#C98C5E"/>
<path d="M540.227 341.98C540.561 346.415 540.436 351.612 540.384 356.085C538.3 356.067 536.048 356.89 533.932 357.064C531.679 357.25 516.269 357.119 514.95 356.378C514.566 356.163 514.612 355.931 514.505 355.544L514.816 355.001C515.833 354.818 524.134 354.858 525.73 354.896C529.339 354.986 535.8 354.053 538.745 354.184C539.172 355.082 538.905 354.847 539.631 355.358C540.541 354.178 540.14 348.383 540.111 346.525C535.126 346.726 529.092 346.177 523.817 346.27C512.805 346.461 501.033 346.999 490.117 345.645C489.582 344.97 489.791 345.357 489.812 344.241C490.355 343.758 490.779 343.517 491.564 343.541C504.678 343.918 517.74 343.218 530.842 342.904C532.403 342.866 539.309 344.113 539.954 343.727L540.227 341.98Z" fill="#C98C5E"/>
<path d="M412.146 368.35C410.684 368.297 409.056 368.39 407.588 368.492C389.926 369.719 372.205 370.954 354.49 370.503C352.793 370.46 350.587 370.849 349.346 369.626L349.535 369.163C351.898 368.015 363.192 368.504 366.558 368.251C379.34 367.298 392.181 366.658 404.969 365.702C408.094 365.466 411.486 365.057 414.604 365.176C414.195 365.708 412.497 367.998 412.146 368.35Z" fill="#C98C5E"/>
<path d="M57.8457 347.078C57.8751 345.139 57.8791 343.695 58.1393 341.771C58.1515 342.927 57.9829 343.387 58.5011 344.285C62.3612 344.764 66.8912 344.296 70.8193 344.497C84.5247 345.206 98.1155 345.502 111.816 344.471C112.792 344.398 114.095 344.761 114.997 345.162L115.214 345.622C113.741 346.97 110.763 346.985 108.835 347.179C91.6806 348.926 75.033 347.476 57.8457 347.078Z" fill="#C98C5E"/>
<path d="M58.2217 379.548L58.6966 380.569C63.0772 382.074 74.5999 380.728 79.5734 381.324C81.4309 381.548 86.1353 380.65 87.1682 382.667C85.6124 385.701 62.33 383.873 58.4408 383.472L58.2217 379.548Z" fill="#C98C5E"/>
<path d="M408.152 348.438C411.343 351.088 402.79 351.693 401.456 351.96C373.635 357.393 345.521 353.899 317.433 353.736C303.636 353.658 289.014 355.094 275.385 354.556L274.502 354.012L274.394 353.469C276.027 352.138 307.214 351.693 311.722 351.379C314.428 351.193 323.356 350.728 326.303 350.804C342.739 351.219 358.989 352.393 375.446 351.774C382.197 351.458 388.932 350.844 395.631 349.937C399.706 349.42 404.101 348.694 408.152 348.438Z" fill="#C98C5E"/>
<path d="M379.971 384.15C381.439 383.958 381.651 383.74 382.654 384.853C382.793 385.792 382.883 385.364 382.357 386.17C377.39 389.082 297.506 388.12 286.601 388.035C285.412 388.03 284.898 388.146 284.261 387.044L284.63 386.571C286.209 386.047 289.97 386.21 291.777 386.161C321.17 385.35 350.613 385.835 379.971 384.15Z" fill="#C98C5E"/>
<path d="M197.311 348.412C211.797 347.412 227.344 349.086 241.935 348.548C243.124 348.505 245.105 348.766 245.091 350.26C244.361 351.065 244.249 350.853 242.938 351.161C239.619 351.394 236.292 351.489 232.966 351.446C224.818 351.341 216.577 350.76 208.423 350.536C206.085 350.472 197.409 350.464 196.062 349.077C196.477 348.388 196.2 348.696 197.311 348.412Z" fill="#C98C5E"/>
<path d="M528.93 381.58C531.444 381.438 537.129 380.569 538.847 382.394C538.934 383.423 539.041 382.961 538.553 383.836C535.993 384.705 529.276 384.356 526.209 384.315C524.675 384.315 517.577 384.338 516.38 383.83L516.188 383.243L516.607 382.699C518.99 381.67 525.939 381.693 528.93 381.58Z" fill="#C98C5E"/>
<path d="M371.874 49.5206C373.077 49.1567 373.975 48.9021 375.135 48.3984L429.524 197.225L461.672 284.673C463.16 288.736 476.469 324.637 476.291 325.744C475.411 325.93 475.417 325.916 474.513 325.858C471.696 325.939 468.476 325.881 465.633 325.89L462.291 325.884L444.594 325.892L441.603 325.901L423.089 325.872C419.639 315.429 415.564 304.417 411.852 294.029L394.823 246.305L351.122 123.74L332.361 71.1708C331.393 68.41 324.696 50.6687 325.089 49.5962L325.757 49.5575C330.826 49.389 336.659 49.461 341.757 49.5476C345.338 49.4947 348.922 49.4913 352.503 49.5372C358.44 49.3709 365.919 49.3718 371.874 49.5206Z" fill="#E5AF79"/>
<path d="M371.874 49.5206C373.077 49.1567 373.975 48.9021 375.135 48.3984L429.523 197.225L461.672 284.673C463.16 288.736 476.469 324.637 476.291 325.744C475.411 325.93 475.416 325.916 474.512 325.858C473.609 325.753 473.315 325.747 472.437 325.474C470.775 323.963 470.191 319.873 469.295 317.586C456.024 283.763 444.524 249.304 431.703 215.319C428.698 207.352 425.129 199.659 422.051 191.746C419.014 183.995 416.087 176.201 413.273 168.365C411.721 163.944 410.477 159.496 408.818 155.109L394.065 116.413C393.018 113.681 391.987 110.88 390.885 108.176C384.354 92.1499 379.803 75.4294 374.28 59.046C373.283 56.0907 372.112 52.8439 371.359 49.8278L371.874 49.5206Z" fill="#F6CB9C"/>
<path d="M352.502 49.5371C358.44 49.3709 365.918 49.3718 371.873 49.5206L371.359 49.8278C367.784 49.7118 364.206 49.7665 360.625 49.7915C362.21 53.2507 363.209 57.1059 364.418 60.7218C365.816 64.9059 367.398 68.9654 369.048 73.0559C374.582 86.7764 381.148 100.145 386.176 114.045C391.207 127.946 394.582 142.245 398.808 156.383C400.679 162.643 403.118 168.675 405.179 174.864C405.937 177.143 411.111 191.043 410.855 192.23C410.07 192.822 410.48 192.734 409.623 192.657C407.361 190.241 397.488 162.086 395.756 156.725C391.812 144.531 388.74 130.362 384.182 117.955C375.835 95.2351 363.826 73.1719 357.661 49.7453C355.94 49.7022 354.22 49.6328 352.502 49.5371Z" fill="#C98C5E"/>
<path d="M441.603 325.901C439.946 321.614 438.019 317.402 436.357 313.127C431.157 299.743 426.533 284.751 420.022 272.009C409.042 250.528 401.299 228.514 395.323 205.195C394.626 202.468 391.17 194.544 392.21 192.112C392.658 192.021 392.678 191.897 392.989 192.132C394.57 193.319 402.148 219.501 403.368 223.373C406.106 232.066 409.321 240.922 412.992 249.26C417.505 259.514 422.661 269.481 427.097 279.769C431.517 290.015 434.915 300.763 438.772 311.235C440.568 316.106 443.155 320.945 444.593 325.892L441.603 325.901Z" fill="#C98C5E"/>
<path d="M462.291 325.883C458.28 314.089 452.769 302.46 447.096 291.337C442.448 282.226 439.548 273.547 436.493 263.834C435.319 260.192 429.288 246.342 429.736 243.602C432.875 244.078 443.431 276.061 445.361 280.453C450.947 293.168 458.065 304.989 462.634 318.146C463.497 320.672 464.907 323.381 465.633 325.889L462.291 325.883Z" fill="#C98C5E"/>
<path d="M325.757 49.5575C330.826 49.3889 336.659 49.461 341.757 49.5476C340.49 49.7554 338.982 49.6932 337.677 49.6926C343.089 66.2007 350.512 82.1153 354.804 99.1001C355.249 100.861 356.078 102.326 356.226 104.206C353.715 104.02 346.701 82.585 345.451 79.3705C341.693 69.7097 337.084 59.7411 334.398 49.7624C331.742 49.7659 328.335 49.8684 325.757 49.5575Z" fill="#C98C5E"/>
<path d="M358.162 112.112C358.99 112.229 359.961 112.411 360.312 113.285C361.347 115.845 366.596 127.564 366.053 129.676C365.3 129.511 365.12 129.621 364.596 128.958C362.696 126.548 358.109 114.508 358.162 112.112Z" fill="#C98C5E"/>
<path d="M408.55 415.115C407.483 412.17 406.507 408.005 406.103 404.919C404.501 391.779 408.219 378.543 416.427 368.155C424.701 357.506 436.903 350.62 450.295 349.045C463.546 347.397 476.486 351.341 486.963 359.514C490.198 361.697 495.235 366.891 496.976 370.309C503.643 378.095 506.812 392.601 505.989 402.777C504.925 416.239 498.479 428.705 488.106 437.352C472.922 450.068 451.24 452.166 433.624 443.461C430.174 441.755 426.041 439.183 423.245 436.48C417.435 431.751 410.404 422.448 408.55 415.115Z" fill="#C98C5E"/>
<path d="M496.977 370.309C503.644 378.095 506.812 392.602 505.99 402.777C504.926 416.24 498.479 428.706 488.106 437.352C472.923 450.068 451.241 452.167 433.625 443.462C430.175 441.756 426.042 439.183 423.246 436.48C425.013 436.405 430.366 439.709 433.165 440.59C437.173 442.026 440.897 443.127 445.146 443.424C480.113 445.851 506.577 415.173 499.877 380.909C499.345 378.186 496.625 372.454 496.977 370.309Z" fill="#B5784C"/>
<path d="M408.55 415.115C407.483 412.17 406.507 408.005 406.103 404.919C404.501 391.779 408.219 378.543 416.427 368.155C424.701 357.506 436.903 350.62 450.295 349.045C463.546 347.397 476.486 351.341 486.963 359.514C486.655 359.619 486.344 359.723 486.036 359.831C484.51 359.296 481.703 358.081 480.334 357.526C475.881 355.721 471.228 354.457 466.473 353.759C445.587 350.678 423.594 362.702 414.075 381.403C408.48 392.398 407.847 401.498 408.951 413.545C408.995 414.025 408.745 414.687 408.55 415.115Z" fill="#E5AF79"/>
<path d="M453.903 381.955C463.186 380.842 471.615 387.454 472.748 396.734C473.879 406.015 467.281 414.458 458.004 415.606C448.703 416.757 440.231 410.139 439.097 400.835C437.964 391.532 444.596 383.071 453.903 381.955Z" fill="#71421F"/>
<path d="M444.018 405.651C440.722 399.914 441.975 392.642 447.003 388.341C452.031 384.039 459.408 383.923 464.567 388.067C468.88 391.532 470.699 397.243 469.185 402.562C467.671 407.884 463.117 411.778 457.626 412.452C452.136 413.127 446.776 410.447 444.018 405.651Z" fill="#C98C5E"/>
<path d="M444.018 405.651C440.722 399.914 441.975 392.642 447.003 388.341C452.031 384.039 459.408 383.923 464.567 388.067C463.692 388.407 461.445 387.721 460.515 387.562C451.639 386.059 443.748 394.043 444.216 402.791C444.251 403.445 444.175 405.044 444.018 405.651Z" fill="#E5AF79"/>
<path d="M116.981 436.465C114.073 434.021 111.464 431.243 109.207 428.188C101.691 418.07 98.0484 404.506 99.937 392.011C101.982 378.217 109.567 365.856 120.937 357.785C143.357 341.573 174.44 347.458 190.437 369.727C198.284 380.228 200.888 394.203 199.044 407.04C197.109 419.873 190.133 431.405 179.663 439.073C169.07 446.839 155.845 450.12 142.85 448.205C133.021 446.714 124.546 442.97 116.981 436.465Z" fill="#C98C5E"/>
<path d="M190.437 369.728C198.284 380.229 200.888 394.203 199.044 407.041C197.109 419.873 190.133 431.405 179.663 439.073C169.07 446.839 155.844 450.12 142.85 448.205C133.021 446.714 124.546 442.97 116.98 436.466C118.815 436.559 122.383 438.869 124.299 439.686C137.231 445.194 149.013 444.807 162.06 439.802C185.764 430.714 198.58 405.788 193.337 381.101C192.632 377.784 190.636 372.672 190.437 369.728Z" fill="#B5784C"/>
<path d="M147.852 381.914C157.153 380.882 165.534 387.576 166.585 396.874C167.636 406.172 160.961 414.568 151.664 415.638C142.341 416.71 133.918 410.011 132.864 400.687C131.81 391.36 138.525 382.952 147.852 381.914Z" fill="#71421F"/>
<path d="M137.542 405.282C134.45 399.472 135.888 392.288 140.979 388.114C146.069 383.94 153.398 383.937 158.49 388.111C162.815 391.654 164.577 397.455 162.954 402.806C161.33 408.157 156.642 411.999 151.077 412.543C145.512 413.086 140.169 410.22 137.542 405.282Z" fill="#C98C5E"/>
<path d="M137.542 405.282C134.45 399.472 135.888 392.288 140.979 388.114C146.069 383.94 153.398 383.937 158.49 388.111C157.641 388.503 155.724 388.169 154.813 387.971C148.815 386.687 143.295 388.724 140.096 394.075C137.373 398.098 138.546 403.687 137.542 405.282Z" fill="#E5AF79"/>
<path d="M227.152 9.71356C228.509 5.95551 231.289 3.35045 235.455 3.265C242.675 3.11648 249.914 3.19378 257.139 3.20047L297.01 3.22169L348.378 3.21007C353.279 3.2089 358.196 3.16269 363.094 3.20018C369.215 3.24727 374.47 2.03644 377.469 8.78756C377.594 9.07559 377.719 9.36536 377.838 9.65659C378.056 10.2079 378.251 10.6369 378.399 11.2139C378.547 17.6342 378.574 24.0569 378.475 30.4782C378.466 31.9259 378.289 37.5847 378.402 38.7595C378.335 39.0371 378.266 39.3135 378.193 39.589C377.251 43.0619 375.225 44.6093 372.255 46.2838L277.272 46.2965L249.457 46.3137C244.718 46.3213 239.976 46.3977 235.24 46.2498C230.016 46.087 227.402 43.0439 226.728 38.0591L226.74 35.2041C226.834 30.1276 226.752 24.8016 226.751 19.7054L226.72 16.5615C226.726 14.6214 226.645 11.4717 227.152 9.71356Z" fill="#E5AF79"/>
<path d="M227.151 9.71356C228.508 5.95551 231.288 3.35045 235.454 3.265C242.674 3.11648 249.913 3.19378 257.138 3.20047L297.009 3.22169L348.377 3.21007C353.278 3.2089 358.195 3.16269 363.093 3.20018C369.214 3.24727 374.469 2.03644 377.468 8.78756C377.593 9.07559 377.718 9.36536 377.837 9.65659L377.387 9.78011C366.636 6.71438 360.119 8.29433 349.383 8.25974C344.489 8.24405 338.298 7.09745 333.136 7.06374C314.991 6.66381 296.43 8.3263 278.32 7.95805C264.049 7.66799 250.365 6.04096 235.976 8.00834C234.096 8.26556 228.345 10.1609 227.151 9.71356Z" fill="#F6CB9C"/>
<path d="M378.398 11.214C378.547 17.6344 378.573 24.057 378.474 30.4783C378.465 31.926 378.288 37.5849 378.401 38.7596C370.923 39.4668 364.965 37.8002 358.309 38.269C341.69 39.4395 325.885 40.9226 309.141 39.3831C305.676 39.0648 292.045 40.1329 289.888 38.5492L290.004 38.0263C292.376 36.2002 326.818 37.3375 332.567 37.178C340.545 36.9568 349.895 35.1484 357.96 35.2391C364.154 35.3088 371.792 35.9186 378.178 36.0665C378.276 29.5598 378.244 22.9529 378.265 16.4372C367.711 15.1031 357.58 15.4813 346.983 15.4949C344.158 15.4987 334.988 16.0922 333.098 14.6983L333.238 14.244C337.502 12.2661 369.484 12.2882 375.504 12.9826C376.236 13.0674 376.658 13.1343 377.663 13.1122C378.439 12.5399 378.192 12.551 378.398 11.214Z" fill="#C98C5E"/>
<path d="M226.719 16.5616C240.591 16.9885 253.741 16.7653 267.579 15.9146C272.534 15.61 278.431 16.849 283.497 16.6851C286.046 16.7331 295.626 16.8706 297.355 17.2652L297.643 17.6277C294.347 20.3339 269.418 18.7449 263.565 19.0135C251.703 19.5576 238.6 20.5016 226.751 19.7055L226.719 16.5616Z" fill="#C98C5E"/>
<path d="M226.74 35.2042C229.518 35.2972 256.825 36.9147 257.185 37.0664L257.537 37.6125C257.395 38.0842 257.139 38.7545 256.642 38.794C250.501 39.2843 231.485 39.1582 226.728 38.0592L226.74 35.2042Z" fill="#C98C5E"/>
<path d="M284.657 27.2304C285.81 27.1148 286.348 26.8715 287.089 27.8219C286.307 31.7474 269.595 30.1953 266.401 30.0933C265.067 30.1017 263.471 30.3837 262.579 29.3588C264.338 27.6792 280.89 27.5342 284.657 27.2304Z" fill="#C98C5E"/>
<path d="M317.27 23.193C318.628 23.0956 320.941 22.6425 321.802 23.8042L321.435 24.2989C318.651 25.6466 317.869 25.3935 314.713 25.4182C313.129 25.458 310.362 25.9036 309.996 23.9129C311.179 22.8602 315.445 23.1834 317.27 23.193Z" fill="#C98C5E"/>
<path d="M276.248 325.875L276.269 283.066C276.257 276.695 275.917 263.549 276.876 257.998C277.626 253.501 279.413 249.24 282.093 245.555C285.808 240.466 291.408 237.083 297.643 236.167C304.743 235.188 310.94 237.216 316.604 241.477C327.001 248.802 325.89 267.763 325.838 278.947L325.722 310.543C325.725 315.141 325.556 321.478 325.832 325.924L280.59 325.892L276.248 325.875Z" fill="#C98C5E"/>
<path d="M276.248 325.875L276.269 283.066C276.257 276.695 275.917 263.549 276.876 257.998C277.626 253.501 279.413 249.24 282.093 245.555C285.808 240.466 291.408 237.083 297.643 236.167C304.743 235.188 310.94 237.216 316.604 241.477C314.962 241.716 311.44 240.704 309.751 240.329C301.023 238.391 293.065 239.716 287.304 247.026C284.892 249.903 282.334 254.054 281.64 257.722C279.98 266.516 280.547 277.363 280.55 286.455L280.59 325.892L276.248 325.875Z" fill="#E5AF79"/>
<path d="M298.204 250.15C305.949 248.607 313.474 253.652 314.989 261.404C316.506 269.155 311.434 276.663 303.677 278.148C295.957 279.63 288.496 274.588 286.988 266.877C285.482 259.163 290.496 251.685 298.204 250.15Z" fill="#71421F"/>
<path d="M290.958 268.978C288.581 264.023 290.188 258.073 294.739 254.989C299.291 251.906 305.415 252.621 309.135 256.666C312.085 259.875 312.884 264.514 311.175 268.525C309.469 272.536 305.572 275.175 301.212 275.274C296.855 275.372 292.844 272.911 290.958 268.978Z" fill="#C98C5E"/>
<path d="M290.958 268.978C288.581 264.023 290.188 258.073 294.739 254.989C299.291 251.906 305.415 252.621 309.135 256.666C307.731 256.754 307.054 256.239 305.874 256.085C302.125 255.603 297.317 255.69 294.437 258.489C290.836 261.727 291.833 267.685 290.958 268.978Z" fill="#E5AF79"/>
<path d="M342.519 250.243C362.361 259.308 382.829 269.292 402.657 278.026C403.171 279.517 403.874 281.397 404.296 282.877C404.938 283.941 408.533 294.421 409.121 296.078L419.819 325.956C412.544 325.942 411.318 324.471 404.854 321.446L386.883 313.066L360.667 301.17C356.633 299.307 351.808 297.212 347.948 295.101C347.661 287.112 347.928 279.13 347.059 271.175C346.51 266.147 345.452 261.328 344.324 256.399C343.748 254.176 343.269 252.406 342.519 250.243Z" fill="#C98C5E"/>
<path d="M342.519 250.243C362.361 259.308 382.829 269.292 402.657 278.026C403.171 279.517 403.874 281.397 404.296 282.877C402.622 282.618 391.441 277.419 388.976 276.297L360.283 263.308C355.063 260.933 349.303 258.759 344.324 256.399C343.748 254.176 343.269 252.406 342.519 250.243Z" fill="#E5AF79"/>
<path d="M230.309 199.905C245.535 206.34 260.589 214.383 275.705 220.856C273.627 222.114 271.567 223.303 269.654 224.806C268.808 225.506 267.983 226.233 267.178 226.98C258.912 234.789 255.814 244.552 255.514 255.62C249.11 252.792 242.69 249.789 236.336 246.837C229.958 243.875 222.906 240.835 216.746 237.518C220.168 227.137 224.356 216.269 228.056 205.9L230.309 199.905Z" fill="#C98C5E"/>
<path d="M230.308 199.905C245.535 206.34 260.588 214.383 275.705 220.856C273.627 222.114 271.566 223.303 269.653 224.806C268.532 223.995 264.404 222.268 262.876 221.611C251.306 216.624 239.814 210.355 228.056 205.9L230.308 199.905Z" fill="#E5AF79"/>
<path d="M272.066 236.679C272.325 237.365 272.58 238.042 272.819 238.733C273.252 242.436 273.743 245.584 276.443 248.508C276.24 249.008 275.359 251.077 275.257 251.467C273.999 254.882 273.537 257.175 273.229 260.857L273.115 264.235C273.138 267.039 273.133 269.844 273.098 272.652L273.106 275.834C270.284 275.669 268.785 275.599 266.026 274.753C263.722 274.044 262.629 272.088 261.26 272.111C260.809 269.989 260.792 268.85 260.71 266.664C260.795 261.662 260.995 257.41 262.736 252.693C263.146 251.211 263.562 250.336 264.181 248.953C265.861 245.177 267.529 242.279 270.043 239.03C270.31 238.597 271.653 237.144 272.066 236.679Z" fill="#E5AF79"/>
<path d="M272.065 236.679C272.324 237.365 272.58 238.042 272.818 238.733C273.251 242.436 273.742 245.584 276.443 248.508C276.239 249.008 275.358 251.077 275.257 251.467C273.998 254.882 273.536 257.175 273.228 260.857C268.377 259.608 266.034 255.152 264.825 250.711L264.18 248.953C265.86 245.177 267.528 242.279 270.043 239.03C270.31 238.597 271.653 237.144 272.065 236.679Z" fill="#E5AF79"/>
<path d="M272.065 236.679C272.324 237.365 272.58 238.042 272.818 238.733C273.251 242.436 273.742 245.584 276.443 248.508C276.239 249.008 275.358 251.077 275.257 251.467C272.033 248.406 271.193 246.607 270.415 242.343C270.415 241.099 270.534 240.158 270.042 239.03C270.31 238.597 271.653 237.144 272.065 236.679Z" fill="#C98C5E"/>
<path d="M270.043 239.03C270.534 240.158 270.415 241.099 270.415 242.343C269.066 244.311 266.136 249.156 264.825 250.711L264.18 248.953C265.86 245.177 267.528 242.279 270.043 239.03Z" fill="#F6CB9C"/>
<path d="M264.181 248.953L264.827 250.711C266.036 255.152 268.378 259.608 273.229 260.857L273.116 264.235C266.19 261.869 265.556 258.55 262.85 252.923L262.737 252.693C263.147 251.211 263.562 250.336 264.181 248.953Z" fill="#C98C5E"/>
<path d="M260.71 266.665C263.62 271.333 267.7 272.803 273.098 272.652L273.106 275.835C270.284 275.669 268.785 275.599 266.026 274.753C263.722 274.044 262.629 272.088 261.26 272.111C260.809 269.99 260.792 268.85 260.71 266.665Z" fill="#C98C5E"/>
<path d="M193.217 303.987C202.16 309.861 206.984 315.833 210.858 325.904L204.49 325.875L185.52 325.933C187.12 320.46 189.522 314.148 191.537 308.75L193.217 303.987Z" fill="#B5784C"/>
<path d="M193.217 303.987C202.16 309.861 206.984 315.833 210.858 325.904L204.49 325.875C201.33 317.606 198.042 314.685 191.537 308.75L193.217 303.987Z" fill="#C98C5E"/>
<path d="M309.958 224.815L313.355 225.439C316.381 226.332 320.182 227.66 322.743 229.555C323.531 229.997 325.525 231.017 325.955 231.741C329.428 234.47 332.006 236.824 334.311 240.652L333.753 241.102C332.358 246.578 331.407 249.319 327.664 253.696C326.684 250.229 325.286 247.636 323.507 244.541L321.537 241.82C319.18 239.327 317.305 238.013 314.471 236.089L311.728 234.853C312.291 233.464 311.728 229.881 311.617 228.102L311.524 227.887C311.085 226.666 310.6 225.919 309.958 224.815Z" fill="#E5AF79"/>
<path d="M309.958 224.815L313.355 225.439C316.381 226.332 320.182 227.66 322.743 229.555C323.063 230.491 323.499 231.645 323.752 232.581C324.301 235.008 323.845 240.437 321.537 241.82C319.18 239.327 317.305 238.013 314.471 236.089L311.728 234.853C312.291 233.464 311.728 229.881 311.617 228.102L311.524 227.887C311.085 226.666 310.6 225.919 309.958 224.815Z" fill="#E5AF79"/>
<path d="M309.958 224.815L313.355 225.439C316.381 226.332 320.182 227.66 322.743 229.555C323.063 230.491 323.499 231.645 323.752 232.581C322.229 232.325 317.619 229.308 314.454 228.695L314.21 228.622L311.617 228.102L311.524 227.887C311.085 226.666 310.6 225.919 309.958 224.815Z" fill="#F6CB9C"/>
<path d="M309.958 224.815L313.355 225.439C313.094 226.686 313.608 227.326 314.21 228.622L311.617 228.102L311.524 227.887C311.085 226.666 310.6 225.919 309.958 224.815Z" fill="#B5784C"/>
<path d="M311.617 228.102L314.21 228.622L314.454 228.694C315.387 231.883 314.704 232.862 314.471 236.089L311.728 234.853C312.291 233.464 311.728 229.88 311.617 228.102Z" fill="#C98C5E"/>
<path d="M322.743 229.555C323.53 229.997 325.524 231.017 325.954 231.74C326.167 233.098 326.329 233.502 326.797 234.818C326.661 238.745 325.693 241.297 323.507 244.54L321.537 241.82C323.844 240.437 324.301 235.007 323.751 232.58C323.498 231.645 323.063 230.491 322.743 229.555Z" fill="#C98C5E"/>
<path d="M325.955 231.741C329.428 234.47 332.006 236.824 334.311 240.652L333.753 241.102C331.472 238.754 329.1 237.132 326.798 234.819C326.33 233.502 326.167 233.098 325.955 231.741Z" fill="#F6CB9C"/>
<path d="M328.997 266.816C334.647 265.566 337.501 262.508 340.367 257.809C341.047 262.322 340.829 266.926 339.728 271.356C339.379 272.963 339.051 274.556 338.626 276.145C337.609 279.325 335.885 283.385 333.807 286.019L331.915 288.733C331.069 289.666 330.424 290.434 329.445 291.242L329.125 291.457C328.579 290.625 328.939 286.85 328.994 285.661L328.983 278.343L329.026 275.314L328.997 266.816Z" fill="#E5AF79"/>
<path d="M328.983 278.343C332.81 277.747 334.528 277.18 338.211 275.811L338.626 276.145C337.609 279.325 335.885 283.385 333.807 286.019L331.915 288.733C331.069 289.666 330.424 290.433 329.445 291.241L329.125 291.456C328.579 290.625 328.939 286.85 328.994 285.661L328.983 278.343Z" fill="#E5AF79"/>
<path d="M328.994 285.661L333.807 286.019L331.915 288.733C331.069 289.666 330.424 290.434 329.445 291.242L329.125 291.457C328.579 290.626 328.939 286.85 328.994 285.661Z" fill="#C98C5E"/>
<path d="M329.445 291.241C328.887 290.088 328.797 289.317 329.806 288.535C330.835 288.492 330.896 288.44 331.916 288.733C331.07 289.666 330.425 290.433 329.445 291.241Z" fill="#E5AF79"/>
<path d="M329.027 275.314C334.148 274.962 335.482 274.213 339.728 271.355C339.379 272.963 339.051 274.555 338.627 276.145L338.211 275.811C334.528 277.18 332.811 277.747 328.983 278.343L329.027 275.314Z" fill="#C98C5E"/>
<path d="M337.921 305.559C339.598 305.015 343.626 299.441 345.094 297.813C345.167 298.816 345.353 300.618 345.324 301.559C345.8 304.193 346.329 307.678 347.068 310.183L348.399 314.272C350.561 319.085 352.314 321.759 355.624 325.889L346.068 325.828C345.492 325.096 344.629 324.084 344.19 323.303C343.548 322.387 342.885 321.172 342.31 320.184C340.354 316.356 339.644 314.252 338.691 310.107C338.412 308.843 338.142 306.881 337.921 305.559Z" fill="#E5AF79"/>
<path d="M344.19 323.303C346.457 319.693 346.684 317.688 348.398 314.272C350.561 319.086 352.313 321.759 355.624 325.89L346.068 325.829C345.492 325.096 344.629 324.085 344.19 323.303Z" fill="#E5AF79"/>
<path d="M337.921 305.559C339.598 305.015 343.626 299.441 345.094 297.813C345.167 298.816 345.353 300.618 345.324 301.559C344.882 301.853 340.327 308.526 338.691 310.107C338.412 308.843 338.142 306.881 337.921 305.559Z" fill="#C98C5E"/>
<path d="M347.067 310.183L348.398 314.272C346.683 317.687 346.457 319.693 344.19 323.303C343.547 322.387 342.885 321.172 342.309 320.184C344.791 316.725 345.553 314.118 347.067 310.183Z" fill="#C98C5E"/>
<path d="M474.766 310.938C485.371 316.013 496.146 320.736 506.792 325.805C503.266 325.878 499.741 325.91 496.215 325.904L480.125 325.86C479.044 323.486 477.861 319.818 476.96 317.277C476.222 315.188 475.431 313.043 474.766 310.938Z" fill="#E5AF79"/>
<path d="M476.959 317.277C479.511 318.199 494.541 324.552 496.215 325.904L480.125 325.86C479.043 323.486 477.86 319.818 476.959 317.277Z" fill="#C98C5E"/>
<path d="M334.311 240.652C334.595 241.062 334.781 241.285 334.999 241.736C337.482 246.13 338.545 248.735 339.772 253.597L340.368 257.809C337.502 262.508 334.648 265.566 328.998 266.816C329.006 265.429 328.908 264.217 328.809 262.84C328.887 261.073 328.565 258.997 328.349 257.219C328.178 256.018 327.916 254.879 327.664 253.696C331.407 249.319 332.357 246.578 333.753 241.102L334.311 240.652Z" fill="#E5AF79"/>
<path d="M339.772 253.597L340.368 257.809C337.502 262.508 334.648 265.566 328.998 266.816C329.007 265.429 328.908 264.217 328.809 262.84L329.294 263.299C334.514 263.235 337.258 257.239 339.772 253.597Z" fill="#C98C5E"/>
<path d="M334.311 240.652C334.595 241.062 334.781 241.285 334.999 241.736C334.529 243.326 335.063 246.165 334.293 248.557C333.296 251.659 329.035 255.14 328.349 257.219C328.178 256.018 327.916 254.879 327.664 253.696C331.407 249.319 332.357 246.578 333.753 241.102L334.311 240.652Z" fill="#C98C5E"/>
<path d="M337.278 288.608C337.24 287.411 337.237 286.995 337.81 285.949C341.054 280.005 342.69 274.573 343.681 267.865C344.044 272.065 344.32 276.273 344.515 280.485C344.733 282.455 344.902 286.446 344.78 288.483C344.832 291.593 344.937 294.703 345.094 297.813C343.626 299.441 339.597 305.015 337.92 305.559C337.441 303.024 337.223 300.452 337.272 297.874C337.24 294.785 337.24 291.698 337.278 288.608Z" fill="#E5AF79"/>
<path d="M337.278 288.608C337.241 287.411 337.238 286.995 337.81 285.949C341.054 280.005 342.69 274.573 343.681 267.865C344.045 272.065 344.321 276.273 344.515 280.485L344.39 280.691C341.435 285.65 341.853 286.333 337.691 291.201C337.525 290.3 337.392 289.515 337.278 288.608Z" fill="#E5AF79"/>
<path d="M337.691 291.201C341.853 286.333 341.434 285.65 344.39 280.691L344.515 280.485C344.733 282.455 344.902 286.446 344.78 288.483L344.358 285.903C342.469 289.98 337.717 295.128 337.272 297.874C337.24 294.785 337.24 291.698 337.278 288.608C337.391 289.515 337.525 290.3 337.691 291.201Z" fill="#C98C5E"/>
<path d="M383.502 315.022C385.374 316.173 388.37 317.432 390.437 318.373C395.965 320.783 401.383 323.492 406.844 325.852C399.758 325.913 391.812 326.075 384.766 325.849C382.403 325.927 379.95 325.866 377.582 325.843C378.878 322.251 381.418 318.199 383.502 315.022Z" fill="#C98C5E"/>
<path d="M390.438 318.374C395.966 320.783 401.383 323.492 406.845 325.852C399.759 325.913 391.812 326.076 384.767 325.849L386.552 325.68C387.793 325.029 388.906 320.911 390.17 318.815L390.438 318.374Z" fill="#B5784C"/>
<path d="M283.538 228.311C284.697 227.692 285.572 227.291 286.784 226.776C286.63 227.616 286.526 228.427 286.226 229.226C285.34 232.139 284.776 234.656 285.546 237.742L282.913 239.922C280.152 242.692 278.283 245.006 276.443 248.508C273.743 245.584 273.252 242.436 272.819 238.733C272.58 238.042 272.325 237.364 272.066 236.679C275.981 233.031 278.582 230.636 283.538 228.311Z" fill="#E5AF79"/>
<path d="M283.538 228.311C284.697 227.692 285.572 227.291 286.784 226.776C286.63 227.616 286.526 228.427 286.226 229.226C285.34 232.139 284.776 234.656 285.546 237.742L282.913 239.922C282.099 237.367 282.023 234.449 282.628 231.839C283.134 230.505 283.541 229.741 283.538 228.311Z" fill="#C98C5E"/>
<path d="M283.538 228.311C283.541 229.741 283.134 230.505 282.628 231.839C279.655 232.833 275.039 236.522 272.819 238.734C272.58 238.042 272.325 237.365 272.066 236.679C275.981 233.031 278.582 230.636 283.538 228.311Z" fill="#F6CB9C"/>
<path d="M261.26 272.112C262.629 272.088 263.722 274.044 266.026 274.754C268.785 275.599 270.284 275.669 273.106 275.835C273.141 278.654 273.202 281.479 273.101 284.295C273.199 286.99 273.496 291.16 273.066 293.715L272.976 293.936L272.647 294.055C270.892 292.681 269.113 290.265 267.799 288.472C266.695 287.161 266.14 286.068 265.297 284.592C263.126 280.959 261.873 276.268 261.26 272.112Z" fill="#E5AF79"/>
<path d="M273.101 284.295C273.2 286.989 273.496 291.16 273.066 293.715L272.976 293.936L272.647 294.055C270.892 292.68 269.113 290.265 267.799 288.471C266.695 287.161 266.14 286.068 265.297 284.591L266.3 284.937C269.575 286.077 270.13 285.946 273.101 284.295Z" fill="#C98C5E"/>
<path d="M267.799 288.472C269.357 288.289 271.488 288.097 272.982 287.826C272.996 289.678 272.958 291.898 273.066 293.715L272.976 293.936L272.647 294.055C270.892 292.68 269.113 290.265 267.799 288.472Z" fill="#E5AF79"/>
<path d="M298.015 224.129C299.488 224.123 301.439 223.948 302.947 223.853C305.359 223.966 307.661 224.001 309.957 224.815C310.6 225.919 311.085 226.666 311.524 227.887L311.617 228.102C311.728 229.881 312.291 233.464 311.728 234.853C306.67 232.851 303.645 232.714 298.271 232.996C298.268 230.793 298.625 229.189 299.349 227.125C298.454 226.954 297.396 227.038 296.454 227.061L298.015 224.129Z" fill="#E5AF79"/>
<path d="M298.015 224.129C299.488 224.123 301.439 223.948 302.947 223.853C305.359 223.966 307.661 224.001 309.957 224.815C310.6 225.919 311.085 226.666 311.524 227.887C308.763 228.081 305.604 226.14 299.645 226.864L299.349 227.125C298.454 226.954 297.396 227.038 296.454 227.061L298.015 224.129Z" fill="#F6CB9C"/>
<path d="M298.015 224.129C299.488 224.123 301.439 223.948 302.947 223.853C301.07 224.428 300.546 225.085 299.645 226.864L299.349 227.125C298.454 226.954 297.396 227.038 296.454 227.061L298.015 224.129Z" fill="#B5784C"/>
<path d="M286.784 226.776C290.972 225.102 293.573 224.687 298.014 224.129L296.454 227.061C297.395 227.038 298.453 226.954 299.348 227.125C298.625 229.189 298.267 230.793 298.27 232.996C297.32 233.121 296.326 233.269 295.372 233.33C291.472 234.525 289.013 235.539 285.546 237.742C284.775 234.656 285.339 232.139 286.226 229.226C286.525 228.427 286.63 227.616 286.784 226.776Z" fill="#E5AF79"/>
<path d="M286.785 226.776C290.973 225.102 293.574 224.687 298.015 224.129L296.454 227.061L296.242 227.297C294.452 227.372 287.813 228.503 286.227 229.226C286.526 228.427 286.631 227.616 286.785 226.776Z" fill="#F6CB9C"/>
<path d="M296.454 227.061C297.396 227.038 298.454 226.953 299.349 227.125C298.625 229.189 298.268 230.793 298.271 232.996C297.32 233.121 296.326 233.269 295.373 233.33C295.335 231.287 295.629 229.25 296.242 227.296L296.454 227.061Z" fill="#C98C5E"/>
<path d="M270.767 227.872C274.461 224.852 276.754 223.585 281.143 221.891C281.544 222.928 280.931 224.73 280.707 226.044C276.385 228.602 273.821 230.444 270.232 234.016C269.558 234.793 268.729 235.798 268.003 236.496C268.014 234.865 268.552 231.781 267.979 230.526C268.715 229.654 269.898 228.657 270.767 227.872Z" fill="#E5AF79"/>
<path d="M270.767 227.872C270.566 229.445 270.066 232.627 270.232 234.016C269.558 234.792 268.729 235.798 268.003 236.496C268.014 234.865 268.552 231.781 267.979 230.526C268.715 229.654 269.898 228.657 270.767 227.872Z" fill="#C98C5E"/>
<path d="M267.979 230.526C268.552 231.781 268.014 234.865 268.002 236.496C263.041 243.71 261.94 245.773 259.024 253.85C259.042 244.32 261.818 237.789 267.979 230.526Z" fill="#E5AF79"/>
<path d="M285.73 220.545C291.252 218.705 297.469 219.362 303 220.841C295.423 220.972 291.947 221.446 284.669 224.094C284.794 223.05 285.369 221.583 285.73 220.545Z" fill="#E5AF79"/>
<path d="M281.143 221.89C282.34 221.324 284.413 220.85 285.729 220.545C285.369 221.582 284.794 223.05 284.669 224.093C283.361 224.742 282.024 225.428 280.707 226.044C280.931 224.73 281.544 222.928 281.143 221.89Z" fill="#C98C5E"/>
</svg>
