<svg width="544" height="492" viewBox="0 0 544 492" fill="none" xmlns="http://www.w3.org/2000/svg">
<path d="M3.62182 384.588C3.73608 380.609 4.27537 375.765 7.34606 372.894C9.6342 370.751 13.3737 369.513 16.458 369.452C25.4779 369.278 34.5974 369.356 43.6202 369.361L94.9609 369.366L257.041 369.369L401.693 369.366L443.783 369.342C452.255 369.292 460.899 369.134 469.368 369.31C473.164 369.39 476.721 370.522 479.358 373.412C482.147 376.473 482.881 380.585 483.09 384.657C483.159 385.49 483.244 386.306 483.255 387.144C483.375 398.865 482.988 408.698 482.687 420.322L482.478 422.863C482.377 438.511 474.954 438.925 461.695 438.882C456.17 438.866 450.546 438.647 445.019 438.479C444.843 434.503 444.522 431.015 443.663 427.114C440.615 413.315 432.144 401.325 420.157 393.837C408.296 386.242 393.867 383.758 380.149 386.949C365.381 390.344 354.078 399.796 346.124 412.402C345.884 412.853 344.905 414.756 344.664 415.047C340.698 423.962 339.753 428.093 339.132 437.78L140.585 437.681C140.148 425.916 137.287 418.679 131.268 408.824C130.301 407.436 129.51 406.39 128.444 405.074C118.521 394.032 107.765 387.32 92.6853 385.911C78.5121 384.596 64.4046 389.026 53.5278 398.205C40.6539 408.885 35.7557 421.665 34.2872 437.793C33.8164 437.809 33.3456 437.823 32.8748 437.836C28.2564 437.938 15.1369 438.354 11.155 437.254C9.58135 436.817 8.1481 435.976 6.99589 434.818C2.25347 430.071 3.19544 421.401 3.27268 415.172L3.63609 396.295L3.63577 394.179L3.62339 386.939L3.62182 384.588Z" fill="#E1AB75"/>
<path d="M344.664 415.047C343.801 414.943 339 415.183 337.695 415.202C332.605 415.274 327.518 415.3 322.428 415.282C314.245 415.22 306.059 415.308 297.879 415.549C283.602 416.005 269.875 416.539 255.575 415.621C251.529 415.362 240.562 416.645 237.37 415.295L237.29 414.935C240.457 412.872 256.829 412.618 261.19 412.872C265.365 412.869 271.002 414.265 275.077 413.865C298.842 411.53 322.353 412.867 346.123 412.402C345.883 412.853 344.904 414.756 344.664 415.047Z" fill="#C78A5E"/>
<path d="M128.443 405.074C143.536 406.112 158.657 407.07 173.739 408.231C177.02 408.481 192.234 408.097 193.453 409.65L193.349 410.088C192.444 410.579 188.873 410.52 187.634 410.566C181.924 410.755 176.208 410.758 170.497 410.576C165.998 410.438 132.288 408.409 131.268 408.823C130.301 407.435 129.51 406.389 128.443 405.074Z" fill="#C78A5E"/>
<path d="M3.62109 384.588C6.49313 383.817 10.0456 383.045 13.0458 383.067C25.8108 383.158 38.5914 384.001 51.3738 384.028C52.2956 384.03 53.4049 384.262 54.2443 384.623L54.3793 385.01C51.2574 387.609 22.5488 386.688 16.9086 386.669C12.4784 386.643 8.04809 386.733 3.62267 386.939L3.62109 384.588Z" fill="#C78A5E"/>
<path d="M483.09 384.657C483.159 385.489 483.245 386.306 483.255 387.144C476.639 387.237 427.868 389.791 426.678 385.593L426.969 385.102C429.163 384.595 434.45 384.982 436.884 385.012C441.576 385.057 446.34 385.359 451.024 385.311C460.208 385.217 469.384 384.689 478.574 384.862C479.663 384.884 482.161 384.998 483.09 384.657Z" fill="#C78A5E"/>
<path d="M482.479 422.863C474.031 424.773 465.12 425.174 456.424 423.954C455.535 423.831 455.041 423.522 454.585 422.836C455.605 419.588 479.359 422.526 482.687 420.322L482.479 422.863Z" fill="#C78A5E"/>
<path d="M3.63574 394.178C11.6066 394.522 19.5583 395.318 27.5667 395.315C28.1909 395.315 28.7341 395.438 29.2732 395.742C28.3017 398.106 6.89577 397.076 3.63606 396.294L3.63574 394.178Z" fill="#C78A5E"/>
<path d="M134.842 388.601C137.854 388.414 144.838 389.586 148.271 390.082C155.673 391.155 161.815 391.71 169.233 392.076C184.272 392.823 198.693 391.403 213.653 391.101C224.43 390.885 236.108 392.038 247.109 392.324C252.159 392.454 262.274 392.679 267.612 393.407C267.986 393.458 267.981 393.749 268.128 394.168L267.805 394.763C255.306 395.286 240.881 394.037 228.202 393.93C216.862 393.834 206.276 394.536 195.038 394.875C177.184 395.414 159.36 395.75 141.77 392.238C139.551 391.795 136.073 391.702 134.504 390.232C134.241 389.295 134.24 389.687 134.842 388.601Z" fill="#C78A5E"/>
<path d="M161.35 424.387C166.732 424.264 173.198 424.579 178.627 424.755C188.979 425.12 199.334 425.411 209.69 425.625L241.568 425.889C244.438 425.918 257.011 425.414 258.453 427.071C258.116 427.816 258.373 427.485 257.382 427.885C253.019 428.389 243.211 428.061 238.255 428.168C221.796 428.485 205.331 428.421 188.875 427.976C180.57 427.797 172.203 427.776 163.93 426.999C162.615 426.876 160.725 426.596 160.658 425.067L161.35 424.387Z" fill="#C78A5E"/>
<path d="M327.511 388.161C330.284 387.894 343.669 387.835 345.719 388.97L345.649 389.33C342.567 390.926 320.726 391.459 316.208 391.542C312.332 391.724 299.927 392.786 297.477 389.933L297.551 389.498C299.294 388.42 323.47 388.326 327.511 388.161Z" fill="#C78A5E"/>
<path d="M6.99867 421.427C10.9904 421.36 23.8278 421.208 27.1219 422.55C27.7029 423.252 27.6271 422.879 27.5631 423.647C26.946 424.234 26.6868 424.194 25.8432 424.312C22.7623 424.426 5.54407 425.95 5.19336 422.758C5.72609 421.929 6.10856 421.849 6.99867 421.427Z" fill="#C78A5E"/>
<path d="M167.775 89.9561C169.167 90.5469 170.077 90.778 171.515 91.1649C171.602 91.4902 157.289 136.095 155.733 140.13C154.307 143.828 149.644 155.516 147.995 159.873L133.103 200.185C130.191 207.932 127.8 215.947 124.731 223.659C120.663 233.883 116.147 243.81 112.271 254.13C104.792 274.045 97.8807 294.217 90.5207 314.159L79.2113 344.474C77.3577 349.48 73.1023 361.112 72.1492 366.191L66.8613 366.167C78.9351 334.672 90.3123 301.793 101.975 270.016L167.775 89.9561Z" fill="#F5C494"/>
<path d="M167.775 89.9561C169.167 90.5469 170.077 90.778 171.515 91.1649C173.711 91.2335 175.907 91.2653 178.103 91.2596C182.337 90.9368 188.016 91.0667 192.366 91.0942C197.736 91.1284 203.58 91.0286 208.908 91.2391L218.037 91.2383L119.902 366.255L102.24 366.201L98.9732 366.231C93.1606 366.183 87.3478 366.175 81.5352 366.209L78.1819 366.215L72.1492 366.191L66.8613 366.167C78.9351 334.672 90.3123 301.793 101.975 270.016L167.775 89.9561Z" fill="#E1AB75"/>
<path d="M178.103 91.2594C182.337 90.9365 188.016 91.0665 192.366 91.0939C197.736 91.1281 203.58 91.0283 208.908 91.2388C208.045 94.3176 206.237 98.58 205.058 101.703L196.668 123.3C194.372 129.079 190.432 142.214 186.64 146.188C187.491 140.73 190.227 132.654 192.024 127.463C196.246 115.267 201.097 103.723 204.935 91.3595L185.703 91.3309C179.959 112.173 169.573 131.982 161.579 151.978C154.897 168.689 151.334 186.324 145.614 203.255C143.988 208.067 135.961 231.561 133.133 233.571L132.813 233.346C132.537 230.126 137.269 217.994 138.496 214.442C140.593 208.278 142.588 202.079 144.479 195.848C149.009 181.118 152.724 165.847 158.149 151.421C163.279 137.782 170.166 124.685 175.276 111.001C177.708 104.49 179.969 97.9217 182.257 91.3584C180.804 91.3824 179.551 91.3277 178.103 91.2594Z" fill="#C78A5E"/>
<path d="M98.9727 366.231C99.8804 363.496 100.975 360.822 102.015 358.134C106.886 345.541 110.754 332.599 116.158 320.206C120.893 309.35 126.414 298.762 131.094 287.895C133.956 281.152 136.501 274.28 138.719 267.299C140.768 260.871 142.749 254.418 144.662 247.95C145.593 244.831 148.018 235.23 150.378 233.386L150.692 233.638C151.021 236.8 148.179 245.023 147.249 248.529C142.866 265.058 137.914 281.272 130.888 296.899C126.465 306.735 121.191 316.257 117.096 326.242C111.974 339.756 107.806 352.755 102.24 366.201L98.9727 366.231Z" fill="#C78A5E"/>
<path d="M78.1826 366.214C81.6785 352.573 91.6363 334.653 97.5943 321.727C100.467 315.496 108.919 287.945 113.024 284.789L113.303 284.999C113.395 287.959 110.565 295.121 109.448 298.211C106.221 307.135 103.368 316.499 99.5742 325.169C95.7084 334.005 90.925 342.357 87.0971 351.254C84.9037 356.351 83.4342 361.099 81.536 366.209L78.1826 366.214Z" fill="#C78A5E"/>
<path d="M183.726 153.043L184.314 153.219C185.802 155.564 179.612 168.583 177.921 171.208L177.257 170.971C176.302 168.048 181.87 155.624 183.726 153.043Z" fill="#C78A5E"/>
<path d="M308.406 91.1233C309.677 90.6565 310.963 90.1639 312.247 89.7412L365.301 235.285C381 279.017 396.969 322.653 413.205 366.191L406.036 366.156L396.71 366.166L393.19 366.18L373.719 366.182L370.842 366.177L359.891 366.201C351.436 341.584 342.762 317.041 333.877 292.578L282.909 149.124C276.189 129.987 268.937 110.436 262.553 91.2257C266.615 91.1918 270.752 91.2441 274.822 91.2543L278.209 91.2076L299.195 91.226C300.21 91.2311 301.568 91.1942 302.55 91.2481C304.704 91.286 306.263 91.2751 308.406 91.1233Z" fill="#E1AB75"/>
<path d="M308.405 91.1233C309.676 90.6565 310.962 90.1639 312.246 89.7412L365.3 235.285C380.999 279.017 396.968 322.653 413.204 366.19L406.035 366.156C405.709 364.547 403.296 358.409 402.634 356.573L395.359 336.268C388.51 317.318 382.043 298.036 375.344 279.011L341.88 186.001C334.674 166.407 326.843 147.126 320.651 127.169C318.644 120.698 315.964 114.193 313.847 107.713C312.083 102.305 310.583 96.3101 308.405 91.1233Z" fill="#F5C494"/>
<path d="M274.822 91.2542L278.209 91.2075C280.291 95.541 282.981 105.504 284.583 110.514C288.584 123.064 292.737 135.564 297.044 148.012C302.906 164.822 310.389 181.337 316.782 197.982C322.13 211.914 326.153 226.298 330.468 240.552C331.515 243.999 334.918 251.026 334.907 254.474L334.619 254.634C329.929 250.255 320.831 217.305 317.684 208.872C311.671 192.759 304.566 176.978 298.294 160.948C291.784 144.309 286.419 126.868 281.025 109.815C279.077 103.655 276.664 97.294 274.822 91.2542Z" fill="#C78A5E"/>
<path d="M337.462 214.28C339.977 218.831 341.837 225.665 343.481 230.806C345.36 236.797 347.386 242.74 349.556 248.632C356.1 266.322 364.406 282.683 370.876 300.343C374.866 311.236 377.439 322.821 381.618 333.687C384.65 341.567 388.94 349.437 392.489 357.133C393.493 359.305 396.111 364.159 396.709 366.166L393.189 366.179C388.371 355.206 382.47 344.617 377.919 333.364C372.688 320.427 369.707 307.076 364.822 294.072C361.056 284.039 356.242 274.141 352.118 264.211C347.65 253.155 343.812 241.853 340.628 230.361C339.229 225.331 337.382 219.455 337.462 214.28Z" fill="#C78A5E"/>
<path d="M299.194 91.2259C300.209 91.2309 301.567 91.1941 302.549 91.248C305.085 95.8358 307.58 103.489 309.521 108.568C314.432 121.441 318.974 134.225 322.54 147.55C324.275 154.025 326.413 160.204 326.706 166.993C323.549 162.48 321.163 153.182 319.388 147.601L313.783 130.516C309.547 117.877 304.455 103.573 299.194 91.2259Z" fill="#C78A5E"/>
<path d="M370.841 366.177C366.427 356.875 343.687 301.545 345.432 295.119C345.456 295.023 345.502 294.932 345.539 294.841L345.937 294.759C346.999 295.583 347.8 297.222 348.213 298.495C352.265 310.901 356.816 323.043 361.34 335.275C365.218 345.758 369.648 355.807 373.718 366.183L370.841 366.177Z" fill="#C78A5E"/>
<path d="M206.317 0.125265C234.9 -1.69023 260.524 16.4169 271.563 42.1897L295.624 42.1536C299.318 42.1442 303.725 41.9748 307.44 42.2259C322.533 43.2454 317.784 62.318 318.601 72.4212C319.087 78.4193 318.601 82.7027 315.166 87.7317C316.768 94.1809 319.698 101.302 322.015 107.568C325.645 117.617 329.349 127.639 333.131 137.633L364.952 224.81L393.657 303.888L401.485 325.212C402.651 328.39 404.527 334.061 405.974 336.844C409.187 338.504 414.358 339.457 418.065 341.435C428.338 346.908 435.997 355.333 439.686 366.282C445.339 366.087 451.381 366.292 456.952 366.111C476.046 365.489 485.718 366.249 486.407 388.243C486.617 398.029 486.447 407.82 485.9 417.595C485.646 423.004 485.814 433.836 481.373 437.454C473.025 444.251 455.182 441.9 444.882 441.647C444.25 453.407 440.27 463.347 432.717 472.423C423.52 483.575 410.177 490.5 395.762 491.602C381.827 492.776 368.009 488.28 357.435 479.132C345.176 468.629 340.373 456.55 339.108 440.886C319.589 440.689 299.758 440.876 280.218 440.884L140.666 440.865C139.815 452.763 137.117 461.565 129.574 471.203C120.583 482.593 107.383 489.884 92.9535 491.426C79.0408 492.979 65.0824 488.931 54.1615 480.173C41.033 469.614 36.0313 457.116 34.2514 440.889C30.6826 440.876 27.1135 440.907 23.5453 440.985C17.1873 441.121 9.96919 441.836 4.97205 437.113C0.960676 433.321 0.114588 427.664 0.030648 422.436C-0.0865463 415.137 0.155223 407.655 0.369515 400.354C0.563148 393.76 -0.0532953 384.046 1.37147 377.828C1.99431 375.213 3.29518 372.809 5.14198 370.856C10.8755 364.881 24.4448 366.204 32.2426 366.225C42.6323 366.294 53.0227 366.284 63.4125 366.196C66.6388 356.367 71.3008 344.706 74.9418 334.862L91.8637 288.389L134.35 172.073L153.938 118.768L160.117 102.031C161.717 97.8081 164.045 92.1323 165.136 87.8938C159.809 80.6906 161.957 74.0261 161.574 65.8128C160.38 40.2321 166.02 42.3733 187.402 42.1096C187.807 35.3396 188.36 28.7004 190.029 22.1155C192.405 12.7372 194.969 1.28609 206.317 0.125265ZM205.203 137.589C202.057 145.367 199.374 153.67 196.615 161.59L187.8 186.202L161.228 260.615L141.305 316.433C139.191 322.504 135.509 331.377 134.004 337.101C145.671 339.446 155.581 344.783 162.455 354.758C165.256 358.934 166.698 361.55 168.59 366.265C173.106 366.254 178.292 366.391 182.734 366.188C198.208 352.65 194.017 333.637 195.487 315.432C196.661 300.878 200.857 281.766 212.438 271.745C215.563 269.125 218.298 267.44 221.422 265.114C220.551 253.727 220.237 241.275 219.733 229.802C218.983 211.191 218.13 192.583 217.172 173.982C216.745 164.723 216.583 152.948 215.743 143.928C211.482 143.694 210.077 142.871 207.096 139.696C206.578 139.144 205.731 138.008 205.203 137.589ZM266.57 113.359C263.575 118.287 261.221 120.956 257.129 125.094C257.682 143.035 258.798 161.34 259.59 179.308C260.685 206.136 261.982 232.957 263.479 259.766C269.436 263.222 274.198 265.988 278.634 271.515C284.146 278.381 286.403 285.491 286.809 294.246C287.097 300.488 285.8 304.92 284.663 310.927C283.508 317.046 282.538 322.843 279.127 328.268C276.266 332.983 273.597 335.43 269.471 339.022L269.396 366.289C286.245 366.185 303.519 366.068 320.369 366.236C322.861 366.236 325.454 366.279 327.936 366.228C331.328 357.859 334.339 351.708 341.684 345.808C343.584 344.282 346.115 342.952 347.633 341.733C345.01 333.327 341.612 324.369 338.625 316.073L329.815 290.943L290.751 181.443L274.019 134.056C272.279 128.962 270.496 123.882 268.673 118.818C268.233 117.62 267.093 114.309 266.57 113.359Z" fill="#744728"/>
<path d="M46.6432 410.315C57.8591 394.21 77.4822 386.186 96.77 389.815C116.058 393.447 131.42 408.055 136.012 427.135C140.604 446.213 133.571 466.211 118.047 478.217C98.5777 493.273 71.0309 491.869 53.1958 474.908C35.3608 457.946 32.5773 430.511 46.6432 410.315Z" fill="#C78A5E"/>
<path d="M118.047 478.216C98.5777 493.272 71.0309 491.869 53.1958 474.907C35.3608 457.946 32.5773 430.511 46.6432 410.315C46.0691 414.769 44.1658 419.439 43.4233 424.103C41.247 437.772 45.1304 452.582 53.4961 463.78C64.9189 479.068 88.9274 488.226 107.42 481.629C111.541 480.159 113.618 478.966 118.047 478.216Z" fill="#B1764C"/>
<path d="M86.2802 421.931C95.5659 421.195 103.704 428.093 104.496 437.374C105.288 446.653 98.4369 454.829 89.1608 455.678C79.8065 456.532 71.5438 449.612 70.745 440.254C69.9461 430.895 76.9165 422.676 86.2802 421.931Z" fill="#744728"/>
<path d="M78.0493 429.118C82.7296 424.541 90 423.93 95.3772 427.664C100.754 431.397 102.724 438.421 100.072 444.403C97.8442 449.431 92.8171 452.631 87.3192 452.519C81.8216 452.409 76.9267 449.012 74.902 443.899C72.877 438.789 74.1178 432.961 78.0493 429.118Z" fill="#C78A5E"/>
<path d="M78.0498 429.118C82.7302 424.541 90.0005 423.93 95.3778 427.664C100.755 431.397 102.725 438.421 100.073 444.403C99.547 443.542 99.3775 437.487 97.659 434.554C93.9709 428.259 88.772 426.065 81.6978 428.003C80.1223 428.435 79.1091 429.449 78.0498 429.118Z" fill="#E1AB75"/>
<path d="M351.836 409.968C358.917 399.532 370.938 391.894 383.274 389.554C395.938 387.24 409.003 390.016 419.636 397.271C430.9 404.96 438.597 416.851 440.997 430.274C443.327 442.925 440.489 455.982 433.118 466.529C430.401 470.451 426.659 474.894 422.703 477.643C405.816 492.536 379.361 491.746 361.788 478.385C351.449 470.622 344.629 459.059 342.844 446.253C341.184 433.609 344.002 420.189 351.836 409.968Z" fill="#C78A5E"/>
<path d="M351.836 409.968L351.769 410.302C350.795 414.932 348.812 419.487 347.984 424.21C345.753 436.966 349.524 450.106 356.496 461.012C367.191 477.739 392.581 487.845 411.702 481.339C415.649 479.997 418.355 478.411 422.703 477.643C405.816 492.536 379.361 491.746 361.788 478.385C351.449 470.622 344.629 459.059 342.844 446.253C341.184 433.609 344.002 420.189 351.836 409.968Z" fill="#B1764C"/>
<path d="M390.575 421.915C399.935 421.152 408.134 428.146 408.852 437.51C409.567 446.874 402.532 455.035 393.163 455.707C383.859 456.374 375.767 449.399 375.054 440.099C374.342 430.802 381.278 422.676 390.575 421.915Z" fill="#744728"/>
<path d="M382.484 429.009C387.398 424.285 395.039 423.901 400.401 428.107C405.763 432.312 407.21 439.824 403.794 445.719C401.114 450.344 395.987 452.983 390.668 452.476C385.346 451.969 380.808 448.412 379.049 443.365C377.29 438.319 378.633 432.713 382.484 429.009Z" fill="#C78A5E"/>
<path d="M382.484 429.009C387.398 424.285 395.039 423.901 400.401 428.107C405.763 432.312 407.21 439.824 403.794 445.719C403.425 443.963 403.775 441.041 403.457 438.989C402.15 430.49 394.511 425.201 386.128 427.933C385.017 428.293 383.637 428.899 382.484 429.009Z" fill="#E1AB75"/>
<path d="M165.151 51.2796C166.649 47.5225 168.833 45.1432 173.119 45.1133C181.288 45.0562 189.459 45.1246 197.629 45.1326L242.355 45.115L283.295 45.1168C290.979 45.1128 302.213 44.7093 309.961 45.6348C311.616 45.8325 314.029 48.9505 314.702 50.6786C314.923 51.2481 315.115 51.8285 315.275 52.418C315.726 54.4933 315.652 56.3437 315.657 58.4561L315.652 61.7596L315.67 76.6674C315.66 77.3519 315.678 79.2103 315.574 79.7878C314.467 84.0212 311.888 87.7841 307.081 87.972C301.351 88.1959 295.578 88.1027 289.84 88.0958L257.644 88.0235L197.569 88.0547C190.661 88.0697 183.744 88.0598 176.838 88.0886C171.868 88.1092 168.181 88.0275 165.64 82.8868C165.219 82.016 164.857 81.1173 164.558 80.1971L164.528 77.4974C164.561 70.9786 164.552 64.4599 164.5 57.9414L164.481 54.7356C164.639 53.3293 164.812 52.6339 165.151 51.2796Z" fill="#E1AB75"/>
<path d="M165.151 51.2796C166.649 47.5225 168.833 45.1432 173.119 45.1133C181.288 45.0562 189.459 45.1246 197.629 45.1326L242.355 45.115L283.295 45.1168C290.979 45.1128 302.213 44.7093 309.961 45.6348C311.616 45.8325 314.029 48.9505 314.702 50.6786C314.923 51.2481 315.115 51.8285 315.275 52.418C315.113 52.6763 315.233 52.5303 314.843 52.7849C310.383 50.213 306.614 49.4321 301.522 49.1042C286.722 48.1507 272.019 50.0424 257.176 49.8866C243.645 49.7446 230.19 49.0842 216.668 48.8475C209.15 48.7866 201.655 49.7745 194.152 49.964C187.505 50.1318 180.844 49.4119 174.189 49.8255C171.04 50.0211 168.209 50.8017 165.151 51.2796Z" fill="#F5C494"/>
<path d="M164.528 77.4979C171.466 77.5409 179.168 76.791 185.813 76.873C193.516 76.9677 203.077 78.4002 210.823 78.7917C216.919 79.0999 249.394 77.4157 252.458 79.7964L252.479 80.2663C251.033 81.3273 238.162 80.7987 235.831 81.0327C219.44 82.6781 203.696 81.0706 187.363 80.0651C179.844 79.6021 172.35 80.8344 164.558 80.1977L164.528 77.4979Z" fill="#C78A5E"/>
<path d="M315.652 61.7598C308.766 61.7406 302.363 62.0557 295.317 61.7672C289.194 61.5874 282.831 61.0675 276.746 60.8781C272.155 60.7353 247.592 62.5609 245.596 59.0792C247.25 57.9907 257.275 58.6485 260 58.36C262.24 58.1231 265.616 58.0857 267.981 57.8749C276.134 57.1474 284.358 58.2127 292.525 58.3576C300.236 58.5404 307.938 58.4924 315.657 58.4564L315.652 61.7598Z" fill="#C78A5E"/>
<path d="M164.481 54.7357C169.046 54.5457 173.615 54.2458 178.183 54.1817C181.98 54.1283 206.59 54.2316 208.849 56.0559C208.935 56.126 209.008 56.2117 209.088 56.2896L208.929 56.7128C207.852 57.1782 206.421 57.4067 205.244 57.3744C193.52 57.052 181.834 57.0008 170.117 57.6957C168.267 57.8056 166.355 57.939 164.5 57.9414L164.481 54.7357Z" fill="#C78A5E"/>
<path d="M315.67 76.6675C315.66 77.352 315.678 79.2103 315.574 79.7878C314.696 79.2875 290.744 81.8624 285.551 80.1193C285.03 79.945 285.001 79.906 284.769 79.3988C285.847 78.3607 293.205 78.1408 295.14 77.9991C301.978 77.475 308.822 77.0312 315.67 76.6675Z" fill="#C78A5E"/>
<path d="M257.372 68.9654C260.909 68.8298 277.881 68.9445 279.536 71.3209C279.066 71.963 278.994 71.7836 277.974 72.0179C274.158 72.376 256.521 73.1179 255.325 69.644C256.019 68.9918 256.222 69.1634 257.372 68.9654Z" fill="#C78A5E"/>
<path d="M223.234 64.7209C225.117 64.5715 230.731 64.6219 232.318 65.7288L232.297 66.2292C231.396 66.9772 230.811 66.9836 229.622 67.2443C227.043 67.4282 222.673 67.4138 220.554 65.7889L220.582 65.3456C221.488 64.738 222.099 64.8124 223.234 64.7209Z" fill="#C78A5E"/>
<path d="M222.571 142.94C224.93 142.445 228.647 141.808 230.843 141.16C238.999 138.755 247.881 133.613 254.233 127.904C254.423 144.416 255.677 163.204 256.515 179.797L260.66 266.191C251.54 262.247 239.885 260.206 230.163 262.653C228.05 263.157 226.419 263.715 224.355 264.417L221.074 192.127C220.329 175.923 219.845 159.486 218.927 143.319C220.098 143.167 221.386 143.062 222.571 142.94Z" fill="#C78A5E"/>
<path d="M218.927 143.319C220.098 143.168 221.386 143.062 222.571 142.94C222.834 143.016 223.363 143.058 223.391 143.348C226.206 172.042 227.144 201.658 228.506 230.396L229.648 253.116C229.742 254.837 229.944 261.3 230.163 262.653C228.05 263.157 226.419 263.715 224.355 264.417L221.074 192.127C220.329 175.923 219.845 159.486 218.927 143.319Z" fill="#E1AB75"/>
<path d="M224.713 283.577C233.466 274.893 248.572 274.202 257.449 283.129C261.13 286.825 263.745 291.447 265.019 296.506C266.804 303.743 266.204 321.35 266.174 329.559L266.19 366.153L262.235 366.177L216.873 366.134L216.907 331.784C216.872 322.276 216.731 312.787 217.123 303.287C217.407 296.421 219.343 288.348 224.713 283.577Z" fill="#C78A5E"/>
<path d="M224.713 283.577C233.466 274.893 248.572 274.202 257.449 283.129C261.13 286.825 263.745 291.447 265.018 296.506C266.804 303.743 266.203 321.35 266.174 329.559L266.19 366.153L262.235 366.177C262.379 351.075 262.312 335.974 262.032 320.875C261.946 315.744 262.365 309.419 261.853 304.445C261.146 297.56 257.396 288.733 251.831 284.38C245.852 279.702 238.139 279.16 231.092 281.589C229.692 282.053 226.012 283.481 224.713 283.577Z" fill="#E1AB75"/>
<path d="M240.409 290.751C248.137 290.083 254.964 295.757 255.719 303.477C256.475 311.194 250.88 318.085 243.171 318.931C238.103 319.486 233.127 317.276 230.144 313.142C227.16 309.009 226.629 303.592 228.754 298.956C230.878 294.324 235.33 291.188 240.409 290.751Z" fill="#744728"/>
<path d="M239.932 293.95C245.879 292.987 251.494 296.981 252.527 302.916C253.56 308.848 249.626 314.509 243.705 315.611C239.813 316.334 235.833 314.911 233.283 311.883C230.734 308.856 230.008 304.691 231.384 300.982C232.76 297.27 236.025 294.585 239.932 293.95Z" fill="#C78A5E"/>
<path d="M233.388 91.0439L259.083 91.0962L261.344 97.5155C262.611 101.538 264.226 105.471 265.454 109.361C256.612 123.657 243.467 135.187 226.765 139.059C225.395 139.366 224.01 139.602 222.616 139.765C226.565 133.508 229.756 124.75 230.862 117.364C232.545 109.922 233.319 98.6392 233.388 91.0439Z" fill="#B0C5D0"/>
<path d="M233.386 91.0439L259.082 91.0962L261.343 97.5155C254.262 108.241 243.209 114.562 230.861 117.364C232.544 109.922 233.318 98.6392 233.386 91.0439Z" fill="#FEFEFE"/>
<path d="M211.769 3.24691C217.499 3.12891 226.835 5.2419 232.133 7.37029C248.914 14.1113 261.026 25.6739 268.309 42.0541C255.549 41.72 241.396 42.013 228.555 42.0228C225.804 28.8941 221.307 12.9889 211.769 3.24691Z" fill="#FEFEFE"/>
<path d="M190.43 42.0658C190.571 31.8036 192.748 19.1362 197.117 9.90779C201.174 1.33867 208.247 1.5188 213.368 9.19688C220.1 19.2912 222.902 30.5291 225.834 42.1077L219.444 42.0898C217.719 34.1636 214.129 18.8077 207.09 13.8954C204.263 11.9225 197.771 15.1254 199.426 19.549C199.581 19.5261 200.658 19.3665 200.658 19.3665C202.21 18.4941 203.787 14.4054 206.415 16.8503C211.615 21.6868 214.872 35.4243 216.361 42.0922L195.487 42.0575L190.43 42.0658Z" fill="#FEFEFE"/>
<path d="M199.426 19.5489C199.58 19.5259 200.658 19.3663 200.658 19.3663C202.209 18.494 203.786 14.4052 206.415 16.8501C211.615 21.6866 214.871 35.4241 216.36 42.092L195.486 42.0573C195.963 35.5202 197.376 25.6647 199.426 19.5489Z" fill="#B0C5D0"/>
<path d="M132.922 340.143C147.775 341.853 159.948 352.543 165.342 366.244L156.256 366.236L123.471 366.182C126.187 359.703 128.512 351.628 131.23 344.823L132.922 340.143Z" fill="#B1764C"/>
<path d="M132.923 340.143C147.776 341.853 159.949 352.543 165.342 366.244L156.256 366.236C152.219 357.413 147.217 351.278 138.186 347.204C136.243 346.328 132.722 345.736 131.23 344.823L132.923 340.143Z" fill="#C78A5E"/>
<path d="M407.287 340.893C418.401 343.46 427.262 349.755 433.305 359.492C434.607 361.595 435.688 363.826 436.537 366.15L431.434 366.201L416.583 366.247C414.336 360.627 411.726 352.914 409.625 347.073C408.897 344.994 408.117 342.934 407.287 340.893Z" fill="#B1764C"/>
<path d="M407.287 340.893C418.401 343.46 427.262 349.755 433.305 359.492C434.607 361.595 435.688 363.826 436.537 366.15L431.434 366.201C425.778 355.444 420.747 351.794 409.625 347.073C408.897 344.994 408.117 342.934 407.287 340.893Z" fill="#C78A5E"/>
<path d="M227.42 91.1651L230.72 91.0415C230.335 105.431 228.402 124.681 220.64 137.259C217.862 141.76 214.004 141.827 210.101 138.685C208.464 137.134 207.57 135.727 206.388 133.835C206.892 132.309 207.582 130.628 208.168 129.11C213.901 133.5 217.9 131.435 219.971 124.732C223.197 114.285 224.063 102.161 224.06 91.2545L227.42 91.1651Z" fill="#FEFEFE"/>
<path d="M345.553 346.606C346.821 345.685 347.264 345.405 348.676 344.679C351.375 351.724 354.158 358.967 356.456 366.158C350.504 366.182 343.912 366.348 338.011 366.209L331.362 366.169C334.506 358.388 338.331 351.321 345.553 346.606Z" fill="#B1764C"/>
<path d="M345.553 346.606C346.589 346.286 347.019 346.147 347.993 345.686C348.783 346.04 350.04 349.123 349.562 349.59C343.989 355.039 340.789 358.569 338.011 366.209L331.362 366.169C334.506 358.388 338.331 351.322 345.553 346.606Z" fill="#C78A5E"/>
<path d="M269.425 305.403C273.145 302.297 276.193 301.526 278.275 296.733C278.697 295.765 278.953 294.761 279.335 293.886L279.505 293.499C281.219 298.74 281.873 302.74 281.555 308.302C281.459 309.916 281.432 311.541 281.037 313.105C280.151 318.375 278.769 322.237 276.07 326.835C275.673 327.459 275.096 328.425 274.675 328.991C273.009 331.342 271.432 332.938 269.321 334.878C269.425 332.636 269.401 330.395 269.395 328.15V325.535C269.107 323.547 269.115 307.242 269.425 305.403Z" fill="#E1AB75"/>
<path d="M269.492 316.547C272.583 316.513 275.628 315.79 278.404 314.426C279.293 313.986 280.131 313.31 281.038 313.105C280.152 318.375 278.77 322.237 276.071 326.835C275.674 327.459 275.097 328.425 274.675 328.991C273.01 331.342 271.432 332.938 269.321 334.878C269.425 332.636 269.401 330.395 269.396 328.15V325.535C269.612 323.371 269.497 318.885 269.492 316.547Z" fill="#E1AB75"/>
<path d="M269.396 328.15C271.112 328.455 272.956 328.818 274.675 328.991C273.01 331.342 271.432 332.938 269.321 334.878C269.425 332.636 269.401 330.395 269.396 328.15Z" fill="#E1AB75"/>
<path d="M269.396 325.535C271.595 325.922 273.917 326.285 276.071 326.835C275.673 327.459 275.097 328.425 274.675 328.991C272.956 328.817 271.112 328.455 269.396 328.15V325.535Z" fill="#C78A5E"/>
<path d="M269.425 305.403C269.649 307.768 269.513 310.941 269.475 313.374C275.238 313.313 277.506 312.31 281.555 308.301C281.459 309.916 281.432 311.541 281.037 313.105C280.13 313.31 279.292 313.985 278.403 314.426C275.627 315.789 272.582 316.512 269.491 316.547C269.497 318.885 269.611 323.371 269.395 325.535C269.107 323.547 269.115 307.242 269.425 305.403Z" fill="#C78A5E"/>
<path d="M207.116 283.692C207.468 282.902 208.55 281.379 209.072 280.597C209.679 285.814 210.773 290.478 215.167 293.913C214.814 295.346 214.56 296.381 214.356 297.862C214.017 300.139 213.798 301.876 213.644 304.168L213.68 307.61L213.668 315.715C209.953 315.894 206.109 314.175 203.131 312.08C202.08 307.103 202.112 304.155 202.172 299.175C202.417 297.227 202.848 295.111 203.205 293.166C204.03 289.83 205.348 286.638 207.116 283.692Z" fill="#E1AB75"/>
<path d="M202.172 299.175L202.613 298.836L203.108 299.396C204.24 300.229 205.746 301.014 207.182 300.49C209.4 302.567 210.586 303.455 213.644 304.168L213.68 307.61L213.668 315.715C209.953 315.893 206.109 314.175 203.131 312.08C202.08 307.103 202.112 304.154 202.172 299.175Z" fill="#E1AB75"/>
<path d="M203.108 299.396C204.24 300.229 205.746 301.014 207.182 300.491C209.401 302.567 210.586 303.455 213.644 304.168L213.681 307.61C208.57 306.071 205.97 303.962 203.108 299.396Z" fill="#C78A5E"/>
<path d="M207.116 283.692C207.469 282.902 208.551 281.379 209.073 280.597C209.68 285.814 210.774 290.478 215.168 293.913C214.815 295.346 214.561 296.381 214.357 297.862C213.961 296.154 210.785 294.1 209.827 292.41C208.251 289.632 207.617 286.766 207.116 283.692Z" fill="#C78A5E"/>
<path d="M202.172 299.175C202.417 297.227 202.849 295.111 203.206 293.166C204.13 295.805 205.472 298.279 207.182 300.491C205.746 301.014 204.24 300.229 203.108 299.397L202.614 298.836L202.172 299.175Z" fill="#C78A5E"/>
<path d="M228.899 266.445L232.834 265.706L231.918 268.177C231.511 269.653 230.324 274.352 230.741 275.628C229.925 276.068 229.022 276.591 228.184 276.965C225.31 278.795 223.248 280.348 220.968 282.934L218.982 285.696C217.097 288.792 216.372 290.478 215.168 293.913C210.774 290.478 209.68 285.814 209.073 280.597C209.592 279.777 209.905 279.337 210.506 278.577C211.984 276.271 214.815 273.805 217.067 272.255C217.362 271.865 218.82 270.934 219.312 270.595C222.558 268.505 225.221 267.462 228.899 266.445Z" fill="#E1AB75"/>
<path d="M228.899 266.445L232.834 265.706L231.918 268.177C231.511 269.653 230.324 274.352 230.741 275.628C229.925 276.068 229.022 276.591 228.184 276.965C225.31 278.795 223.248 280.348 220.968 282.934C219.359 281.024 218.823 275.892 218.92 273.359L219.312 270.595C222.558 268.505 225.221 267.462 228.899 266.445Z" fill="#E1AB75"/>
<path d="M228.899 266.445L232.834 265.706L231.918 268.177C231.511 269.653 230.324 274.352 230.741 275.628C229.925 276.068 229.021 276.591 228.184 276.965C228.044 274.4 228.308 271.673 228.665 269.132C228.852 268.214 229.133 267.331 228.899 266.445Z" fill="#C78A5E"/>
<path d="M228.899 266.445C229.133 267.331 228.852 268.215 228.665 269.133C224.91 270.296 222.361 271.449 218.92 273.36L219.312 270.595C222.558 268.505 225.22 267.462 228.899 266.445Z" fill="#F5C494"/>
<path d="M219.312 270.595L218.92 273.359C218.822 275.892 219.359 281.023 220.968 282.934L218.981 285.696C216.956 281.464 216.412 280.068 216.189 275.395L217.066 272.255C217.361 271.865 218.819 270.934 219.312 270.595Z" fill="#C78A5E"/>
<path d="M210.506 278.577C211.983 276.271 214.814 273.805 217.067 272.255L216.19 275.396C215.382 276.218 212.192 278.291 211.139 278.801L210.506 278.577Z" fill="#F5C494"/>
<path d="M245.078 265.186C248.022 265.554 252.437 266.197 255.151 267.462C256.867 268.054 257.524 268.27 259.128 269.154C263.009 270.99 266.513 273.527 269.467 276.642L269.662 276.884C269.612 281.381 269.153 285.992 266.059 289.528C264.129 285.846 262.851 284.178 260.062 281.136C259.251 280.551 258.322 279.745 257.537 279.097C254.009 276.434 251.574 275.342 247.451 273.872C247.301 271.475 247.045 270.173 246.445 267.886C246.068 266.989 245.537 266.055 245.078 265.186Z" fill="#E1AB75"/>
<path d="M245.078 265.186C248.022 265.554 252.437 266.197 255.151 267.462L256.058 269.856C257.078 273.722 257.465 275.158 257.537 279.097C254.009 276.434 251.574 275.342 247.451 273.872C247.301 271.475 247.045 270.173 246.445 267.886C246.068 266.989 245.537 266.055 245.078 265.186Z" fill="#E1AB75"/>
<path d="M245.078 265.186C248.022 265.554 252.437 266.197 255.151 267.462L256.058 269.856C254.414 269.877 249.124 268.206 246.445 267.886C246.068 266.989 245.537 266.055 245.078 265.186Z" fill="#F5C494"/>
<path d="M255.151 267.462C256.868 268.054 257.524 268.27 259.128 269.154C258.864 269.904 259.779 271.908 260.028 273.066C260.1 275.849 260.15 278.344 260.062 281.136C259.251 280.551 258.322 279.745 257.537 279.097C257.465 275.158 257.078 273.722 256.059 269.856L255.151 267.462Z" fill="#C78A5E"/>
<path d="M259.127 269.154C263.008 270.99 266.513 273.528 269.467 276.642C269.39 277.352 269.505 278.619 269.174 279.052C267.788 278.246 267.209 277.578 265.984 276.754C264.113 275.497 261.967 274.235 260.027 273.066C259.779 271.908 258.863 269.904 259.127 269.154Z" fill="#F5C494"/>
<path d="M208.31 331.393C210.268 333.746 211.72 335.198 213.89 337.314C214.114 346.486 213.789 356.947 213.748 366.239L205.602 366.268L200.19 366.332C208.698 355.116 208.587 344.661 208.31 331.393Z" fill="#212121"/>
<path d="M269.663 276.884C270.493 277.77 271.312 278.619 272.081 279.558L272.265 279.838C274.849 282.939 276.274 285.165 277.779 288.933C278.374 290.377 279.119 292.007 279.506 293.499L279.335 293.886C278.954 294.761 278.697 295.764 278.276 296.733C276.194 301.526 273.146 302.297 269.425 305.403C269.417 304.21 269.326 302.825 269.278 301.616C268.934 297.921 268.347 295.732 267.167 292.255L266.06 289.528C269.153 285.992 269.612 281.381 269.663 276.884Z" fill="#E1AB75"/>
<path d="M277.779 288.933C278.374 290.377 279.119 292.007 279.506 293.499L279.335 293.886C278.953 294.761 278.697 295.765 278.276 296.733C276.194 301.526 273.146 302.297 269.425 305.403C269.417 304.211 269.326 302.826 269.278 301.617C272.097 301.323 275.759 296.571 276.797 294.099C277.464 292.279 277.568 290.838 277.779 288.933Z" fill="#C78A5E"/>
<path d="M269.663 276.884C270.493 277.77 271.312 278.619 272.081 279.558C271.87 280.399 271.883 280.692 271.862 281.57C271.769 286.059 270.527 288.968 267.383 292.047L267.167 292.255L266.06 289.528C269.153 285.992 269.612 281.381 269.663 276.884Z" fill="#C78A5E"/>
<path d="M272.264 279.838C274.848 282.939 276.273 285.165 277.778 288.933C277.568 290.838 277.463 292.279 276.796 294.099C276.588 293.79 275.662 290.51 275.443 289.784C274.501 286.641 271.738 283.073 272.264 279.838Z" fill="#F5C494"/>
<path d="M197.835 338.956C198.563 339.988 204.012 345.888 204.845 346.187C204.612 347.799 204.34 349.403 204.029 350.999C203.092 354.567 202.192 357.702 200.269 360.912C199.536 362.084 198.842 363.234 198.028 364.352L196.628 366.239L187.757 366.226C190.31 362.663 192.401 359.37 194.339 355.431C194.954 353.87 195.295 352.867 195.751 351.255C196.693 348.165 197.138 345.755 197.609 342.571C197.617 341.408 197.745 340.124 197.835 338.956Z" fill="#E1AB75"/>
<path d="M194.339 355.431C195.746 356.938 197.174 362.163 198.028 364.352L196.628 366.238L187.757 366.225C190.31 362.662 192.401 359.369 194.339 355.431Z" fill="#E1AB75"/>
<path d="M195.751 351.254C197.242 354.158 199.001 357.899 200.27 360.912C199.537 362.083 198.843 363.234 198.029 364.352C197.175 362.163 195.747 356.938 194.34 355.431C194.955 353.87 195.296 352.866 195.751 351.254Z" fill="#C78A5E"/>
<path d="M197.836 338.956C198.564 339.988 204.013 345.888 204.846 346.187C204.613 347.799 204.341 349.403 204.029 350.999C202.687 348.186 199.694 344.997 197.609 342.571C197.617 341.408 197.746 340.124 197.836 338.956Z" fill="#C78A5E"/>
<path d="M199.253 309.667C200.626 317.019 201.369 319.928 204.536 326.074C205.634 328.203 205.447 343.766 204.845 346.187C204.012 345.888 198.563 339.988 197.835 338.955C198.073 328.82 198.038 319.76 199.253 309.667Z" fill="#E1AB75"/>
<path d="M221.279 92.5708C221.344 93.9536 221.057 97.0836 221.005 98.6394C220.688 106.641 219.984 114.84 217.638 122.539C216.401 126.596 215.421 130.22 210.643 127.641L209.075 126.132C213.159 115.684 216.825 102.498 221.279 92.5708Z" fill="#B0C5D0"/>
<path d="M241.277 265.015L245.078 265.186C245.537 266.055 246.068 266.989 246.444 267.886C247.045 270.173 247.301 271.475 247.45 273.872C244.864 273.477 242.503 273.463 239.895 273.458C236.36 273.693 234.025 274.219 230.74 275.628C230.323 274.352 231.51 269.653 231.917 268.177L232.833 265.706C235.846 264.897 238.191 264.993 241.277 265.015Z" fill="#E1AB75"/>
<path d="M241.279 265.015L245.079 265.185C245.538 266.055 246.069 266.989 246.445 267.886C247.046 270.173 247.302 271.475 247.452 273.872C244.865 273.477 242.504 273.463 239.896 273.458C240.62 272.991 243.828 273.282 244.847 273.33C244.452 271.491 244.045 269.17 243.02 267.606C242.452 266.56 241.986 265.965 241.279 265.015Z" fill="#C78A5E"/>
<path d="M232.833 265.706C235.847 264.897 238.192 264.993 241.278 265.015C241.985 265.965 242.451 266.56 243.019 267.606C238.747 267.51 236.243 267.515 231.917 268.177L232.833 265.706Z" fill="#F5C494"/>
<path d="M263.54 263.35C275.852 269.503 283.197 279.951 283.323 293.929C282.477 292.13 281.486 289.467 280.582 287.5C276.13 277.856 272.158 273.984 263.743 268.105C263.612 266.731 263.593 264.775 263.54 263.35Z" fill="#C78A5E"/>
<path d="M203.131 312.08C206.109 314.175 209.953 315.893 213.668 315.715C213.679 317.585 213.77 320.171 213.64 321.986L213.662 325.692L213.739 332.553C212.338 331.11 210.534 329.124 209.493 327.387C206.873 323.694 205.602 320.988 204.145 316.726C203.537 314.829 203.415 314.068 203.131 312.08Z" fill="#E1AB75"/>
<path d="M203.131 312.08C206.109 314.175 209.953 315.893 213.668 315.715C213.679 317.585 213.77 320.171 213.64 321.986C213.495 321.118 213.517 319.461 213.501 318.522C209.628 318.335 208.001 317.924 204.486 316.339L204.145 316.726C203.537 314.829 203.415 314.068 203.131 312.08Z" fill="#C78A5E"/>
<path d="M213.663 325.692L213.739 332.553C212.339 331.11 210.535 329.124 209.494 327.387C211.017 326.824 212.186 326.384 213.663 325.692Z" fill="#C78A5E"/>
<path d="M3.62084 384.588C3.7351 380.609 4.2744 375.765 7.34509 372.894C9.63322 370.751 13.3728 369.513 16.4571 369.452C25.477 369.278 34.5964 369.356 43.6192 369.361L94.9599 369.366L257.04 369.369L401.692 369.366L443.782 369.342C452.254 369.292 460.898 369.134 469.367 369.31C473.163 369.39 476.72 370.522 479.357 373.412C482.146 376.473 482.88 380.585 483.089 384.657C483.158 385.49 483.243 386.306 483.254 387.144C483.374 398.865 482.987 408.698 482.686 420.322L482.477 422.863C482.376 438.511 474.953 438.925 461.694 438.882C456.169 438.866 450.545 438.647 445.018 438.479C444.842 434.503 444.521 431.015 443.662 427.114C440.614 413.315 432.143 401.325 420.156 393.837C408.295 386.242 393.866 383.758 380.148 386.949C365.38 390.344 354.077 399.796 346.123 412.402C345.883 412.853 344.904 414.756 344.663 415.047C340.697 423.962 339.752 428.093 339.131 437.78L140.584 437.681C140.147 425.916 137.286 418.679 131.267 408.824C130.3 407.436 129.509 406.39 128.443 405.074C118.52 394.032 107.764 387.32 92.6843 385.911C78.5111 384.596 64.4036 389.026 53.5269 398.205C40.6529 408.885 35.7548 421.665 34.2863 437.793C33.8155 437.809 33.3447 437.823 32.8738 437.836C28.2554 437.938 15.1359 438.354 11.154 437.254C9.58038 436.817 8.14712 435.976 6.99491 434.818C2.25249 430.071 3.19446 421.401 3.27171 415.172L3.63512 396.295L3.6348 394.179L3.62241 386.939L3.62084 384.588Z" fill="#E1AB75"/>
<path d="M344.663 415.047C343.8 414.943 338.999 415.183 337.694 415.202C332.604 415.274 327.517 415.3 322.427 415.282C314.244 415.22 306.058 415.308 297.878 415.549C283.601 416.005 269.874 416.539 255.574 415.621C251.528 415.362 240.561 416.645 237.369 415.295L237.289 414.935C240.456 412.872 256.828 412.618 261.189 412.872C265.364 412.869 271.001 414.265 275.076 413.865C298.841 411.53 322.352 412.867 346.122 412.402C345.882 412.853 344.903 414.756 344.663 415.047Z" fill="#C78A5E"/>
<path d="M128.442 405.074C143.535 406.112 158.656 407.07 173.738 408.231C177.019 408.481 192.233 408.097 193.452 409.65L193.348 410.088C192.443 410.579 188.872 410.52 187.633 410.566C181.923 410.755 176.207 410.758 170.496 410.576C165.997 410.438 132.287 408.409 131.267 408.823C130.3 407.435 129.509 406.389 128.442 405.074Z" fill="#C78A5E"/>
<path d="M3.62012 384.588C6.49215 383.817 10.0446 383.045 13.0448 383.067C25.8099 383.158 38.5904 384.001 51.3728 384.028C52.2947 384.03 53.4039 384.262 54.2433 384.623L54.3783 385.01C51.2564 387.609 22.5478 386.688 16.9077 386.669C12.4774 386.643 8.04711 386.733 3.62169 386.939L3.62012 384.588Z" fill="#C78A5E"/>
<path d="M483.089 384.657C483.158 385.489 483.244 386.306 483.254 387.144C476.638 387.237 427.867 389.791 426.677 385.593L426.968 385.102C429.162 384.595 434.449 384.982 436.883 385.012C441.575 385.057 446.339 385.359 451.023 385.311C460.207 385.217 469.383 384.689 478.573 384.862C479.662 384.884 482.16 384.998 483.089 384.657Z" fill="#C78A5E"/>
<path d="M482.478 422.863C474.03 424.773 465.119 425.174 456.423 423.954C455.534 423.831 455.04 423.522 454.584 422.836C455.604 419.588 479.358 422.526 482.686 420.322L482.478 422.863Z" fill="#C78A5E"/>
<path d="M3.63477 394.178C11.6056 394.522 19.5573 395.318 27.5657 395.315C28.19 395.315 28.7331 395.438 29.2723 395.742C28.3007 398.106 6.89479 397.076 3.63509 396.294L3.63477 394.178Z" fill="#C78A5E"/>
<path d="M134.841 388.601C137.853 388.414 144.837 389.586 148.27 390.082C155.672 391.155 161.814 391.71 169.232 392.076C184.271 392.823 198.692 391.403 213.652 391.101C224.429 390.885 236.107 392.038 247.108 392.324C252.158 392.454 262.273 392.679 267.611 393.407C267.985 393.458 267.98 393.749 268.127 394.168L267.804 394.763C255.305 395.286 240.88 394.037 228.202 393.93C216.861 393.834 206.275 394.536 195.037 394.875C177.183 395.414 159.359 395.75 141.769 392.238C139.55 391.795 136.072 391.702 134.503 390.232C134.24 389.295 134.239 389.687 134.841 388.601Z" fill="#C78A5E"/>
<path d="M161.349 424.387C166.731 424.264 173.197 424.579 178.626 424.755C188.978 425.12 199.333 425.411 209.689 425.625L241.567 425.889C244.437 425.918 257.01 425.414 258.452 427.071C258.115 427.816 258.372 427.485 257.381 427.885C253.018 428.389 243.21 428.061 238.254 428.168C221.795 428.485 205.33 428.421 188.874 427.976C180.569 427.797 172.202 427.776 163.929 426.999C162.614 426.876 160.724 426.596 160.657 425.067L161.349 424.387Z" fill="#C78A5E"/>
<path d="M327.51 388.161C330.283 387.894 343.668 387.835 345.718 388.97L345.648 389.33C342.566 390.926 320.725 391.459 316.207 391.542C312.331 391.724 299.926 392.786 297.476 389.933L297.55 389.498C299.293 388.42 323.469 388.326 327.51 388.161Z" fill="#C78A5E"/>
<path d="M6.9977 421.427C10.9895 421.36 23.8268 421.208 27.1209 422.55C27.702 423.252 27.6262 422.879 27.5621 423.647C26.945 424.234 26.6859 424.194 25.8422 424.312C22.7614 424.426 5.54309 425.95 5.19238 422.758C5.72512 421.929 6.10758 421.849 6.9977 421.427Z" fill="#C78A5E"/>
<path d="M167.774 89.9561C169.166 90.5469 170.076 90.778 171.514 91.1649C173.71 91.2335 175.906 91.2653 178.102 91.2596C182.336 90.9368 188.015 91.0667 192.365 91.0942C197.735 91.1284 203.579 91.0286 208.907 91.2391L218.036 91.2383L119.901 366.255L102.239 366.201L98.9722 366.231C93.1596 366.183 87.3468 366.175 81.5343 366.209L78.1809 366.215L72.1482 366.191L66.8604 366.167C78.9341 334.672 90.3113 301.793 101.974 270.016L167.774 89.9561Z" fill="#E1AB75"/>
<path d="M167.774 89.9561C169.166 90.5469 170.076 90.778 171.514 91.1649C171.601 91.4902 157.288 136.095 155.732 140.13C154.306 143.828 149.643 155.516 147.994 159.873L133.102 200.185C130.19 207.932 127.799 215.947 124.73 223.659C120.662 233.883 116.146 243.81 112.27 254.13C104.791 274.045 97.8798 294.217 90.5197 314.159L79.2104 344.474C77.3567 349.48 73.1013 361.112 72.1482 366.191L66.8604 366.167C78.9341 334.672 90.3113 301.793 101.974 270.016L167.774 89.9561Z" fill="#F5C494"/>
<path d="M178.102 91.2594C182.336 90.9365 188.015 91.0665 192.365 91.0939C197.735 91.1281 203.579 91.0283 208.907 91.2388C208.044 94.3176 206.236 98.58 205.057 101.703L196.667 123.3C194.371 129.079 190.431 142.214 186.639 146.188C187.49 140.73 190.226 132.654 192.023 127.463C196.245 115.267 201.096 103.723 204.934 91.3595L185.702 91.3309C179.958 112.173 169.572 131.982 161.578 151.978C154.896 168.689 151.333 186.324 145.613 203.255C143.987 208.067 135.96 231.561 133.132 233.571L132.812 233.346C132.536 230.126 137.268 217.994 138.495 214.442C140.592 208.278 142.587 202.079 144.478 195.848C149.008 181.118 152.723 165.847 158.148 151.421C163.278 137.782 170.165 124.685 175.275 111.001C177.707 104.49 179.968 97.9217 182.256 91.3584C180.803 91.3824 179.55 91.3277 178.102 91.2594Z" fill="#C78A5E"/>
<path d="M98.9717 366.231C99.8794 363.496 100.974 360.822 102.014 358.134C106.885 345.541 110.753 332.599 116.157 320.206C120.892 309.35 126.413 298.762 131.093 287.895C133.955 281.152 136.5 274.28 138.718 267.299C140.767 260.871 142.748 254.418 144.661 247.95C145.592 244.831 148.017 235.23 150.377 233.386L150.691 233.638C151.02 236.8 148.178 245.023 147.248 248.529C142.865 265.058 137.913 281.272 130.887 296.899C126.464 306.735 121.19 316.257 117.095 326.242C111.973 339.756 107.805 352.755 102.239 366.201L98.9717 366.231Z" fill="#C78A5E"/>
<path d="M78.1816 366.214C81.6775 352.573 91.6353 334.653 97.5933 321.727C100.466 315.496 108.918 287.945 113.023 284.789L113.302 284.999C113.394 287.959 110.564 295.121 109.447 298.211C106.22 307.135 103.367 316.499 99.5732 325.169C95.7074 334.005 90.924 342.357 87.0961 351.254C84.9027 356.351 83.4332 361.099 81.535 366.209L78.1816 366.214Z" fill="#C78A5E"/>
<path d="M183.725 153.043L184.313 153.219C185.801 155.564 179.611 168.583 177.92 171.208L177.256 170.971C176.301 168.048 181.869 155.624 183.725 153.043Z" fill="#C78A5E"/>
<path d="M308.405 91.1233C309.676 90.6565 310.962 90.1639 312.246 89.7412L365.3 235.285C380.999 279.017 396.968 322.653 413.204 366.191L406.035 366.156L396.709 366.166L393.189 366.18L373.718 366.182L370.841 366.177L359.89 366.201C351.435 341.584 342.761 317.041 333.876 292.578L282.908 149.124C276.188 129.987 268.936 110.436 262.552 91.2257C266.614 91.1918 270.751 91.2441 274.821 91.2543L278.208 91.2076L299.195 91.226C300.209 91.2311 301.567 91.1942 302.549 91.2481C304.703 91.286 306.262 91.2751 308.405 91.1233Z" fill="#E1AB75"/>
<path d="M308.404 91.1233C309.675 90.6565 310.961 90.1639 312.245 89.7412L365.299 235.285C380.999 279.017 396.967 322.653 413.203 366.19L406.034 366.156C405.708 364.547 403.295 358.409 402.633 356.573L395.358 336.268C388.509 317.318 382.042 298.036 375.343 279.011L341.879 186.001C334.673 166.407 326.842 147.126 320.65 127.169C318.643 120.698 315.963 114.193 313.846 107.713C312.082 102.305 310.582 96.3101 308.404 91.1233Z" fill="#F5C494"/>
<path d="M274.821 91.2542L278.208 91.2075C280.29 95.541 282.98 105.504 284.582 110.514C288.583 123.064 292.736 135.564 297.043 148.012C302.905 164.822 310.388 181.337 316.781 197.982C322.129 211.914 326.152 226.298 330.467 240.552C331.514 243.999 334.917 251.026 334.906 254.474L334.618 254.634C329.928 250.255 320.83 217.305 317.683 208.872C311.67 192.759 304.565 176.978 298.293 160.948C291.783 144.309 286.418 126.868 281.024 109.815C279.076 103.655 276.663 97.294 274.821 91.2542Z" fill="#C78A5E"/>
<path d="M337.462 214.28C339.976 218.831 341.836 225.665 343.48 230.806C345.359 236.797 347.385 242.74 349.555 248.632C356.099 266.322 364.405 282.683 370.875 300.343C374.865 311.236 377.438 322.821 381.617 333.687C384.649 341.567 388.939 349.437 392.488 357.133C393.492 359.305 396.11 364.159 396.708 366.166L393.188 366.179C388.37 355.206 382.469 344.617 377.918 333.364C372.687 320.427 369.706 307.076 364.821 294.072C361.055 284.039 356.241 274.141 352.117 264.211C347.649 253.155 343.811 241.853 340.627 230.361C339.228 225.331 337.381 219.455 337.462 214.28Z" fill="#C78A5E"/>
<path d="M299.193 91.2259C300.208 91.2309 301.566 91.1941 302.548 91.248C305.084 95.8358 307.579 103.489 309.52 108.568C314.431 121.441 318.973 134.225 322.539 147.55C324.274 154.025 326.412 160.204 326.705 166.993C323.548 162.48 321.162 153.182 319.387 147.601L313.782 130.516C309.546 117.877 304.454 103.573 299.193 91.2259Z" fill="#C78A5E"/>
<path d="M370.84 366.177C366.426 356.875 343.686 301.545 345.431 295.119C345.455 295.023 345.501 294.932 345.538 294.841L345.936 294.759C346.998 295.583 347.799 297.222 348.212 298.495C352.264 310.901 356.815 323.043 361.339 335.275C365.217 345.758 369.647 355.807 373.717 366.183L370.84 366.177Z" fill="#C78A5E"/>
</svg>
