<svg width="544" height="492" viewBox="0 0 544 492" fill="none" xmlns="http://www.w3.org/2000/svg">
<path d="M540.378 384.588C540.264 380.609 539.725 375.766 536.654 372.895C534.366 370.752 530.626 369.514 527.542 369.452C518.522 369.279 509.403 369.356 500.38 369.361L449.039 369.367L286.959 369.369L142.307 369.367L100.217 369.343C91.7454 369.292 83.1005 369.135 74.6318 369.311C70.8365 369.391 67.2787 370.522 64.6417 373.412C61.8526 376.473 61.1186 380.585 60.9104 384.658C60.841 385.49 60.7556 386.307 60.745 387.145C60.6249 398.865 61.0119 408.699 61.3135 420.323L61.5216 422.863C61.6231 438.512 69.0456 438.925 82.3052 438.883C87.83 438.867 93.4536 438.648 98.9811 438.48C99.1573 434.504 99.4776 431.016 100.337 427.114C103.385 413.315 111.856 401.325 123.843 393.837C135.704 386.243 150.133 383.758 163.851 386.95C178.619 390.344 189.922 399.796 197.876 412.403C198.116 412.854 199.095 414.756 199.336 415.047C203.302 423.963 204.247 428.094 204.868 437.781L403.415 437.682C403.852 425.916 406.713 418.679 412.732 408.824C413.699 407.436 414.49 406.39 415.556 405.075C425.479 394.032 436.235 387.321 451.315 385.912C465.488 384.596 479.595 389.026 490.472 398.206C503.346 408.885 508.244 421.665 509.713 437.794C510.184 437.81 510.654 437.823 511.125 437.837C515.744 437.938 528.863 438.354 532.845 437.255C534.419 436.817 535.852 435.977 537.004 434.819C541.747 430.071 540.805 421.401 540.727 415.173L540.364 396.295L540.364 394.179L540.377 386.939L540.378 384.588Z" fill="#E1AB75"/>
<path d="M199.336 415.047C200.199 414.943 205 415.183 206.305 415.202C211.395 415.274 216.482 415.301 221.572 415.282C229.755 415.221 237.941 415.309 246.121 415.549C260.398 416.005 274.125 416.539 288.425 415.621C292.471 415.362 303.438 416.646 306.63 415.296L306.71 414.935C303.543 412.872 287.171 412.619 282.81 412.873C278.635 412.87 272.998 414.265 268.923 413.865C245.158 411.53 221.647 412.867 197.877 412.403C198.117 412.854 199.096 414.757 199.336 415.047Z" fill="#C78A5E"/>
<path d="M415.557 405.074C400.464 406.112 385.343 407.07 370.261 408.231C366.98 408.482 351.766 408.098 350.547 409.651L350.651 410.088C351.556 410.579 355.127 410.521 356.366 410.566C362.076 410.756 367.792 410.758 373.503 410.577C378.002 410.438 411.712 408.41 412.732 408.824C413.699 407.436 414.49 406.39 415.557 405.074Z" fill="#C78A5E"/>
<path d="M540.379 384.588C537.507 383.817 533.954 383.046 530.954 383.067C518.189 383.158 505.409 384.001 492.626 384.028C491.704 384.031 490.595 384.263 489.756 384.623L489.621 385.01C492.743 387.609 521.451 386.689 527.091 386.67C531.522 386.643 535.952 386.734 540.377 386.939L540.379 384.588Z" fill="#C78A5E"/>
<path d="M60.9102 384.657C60.8408 385.49 60.7554 386.306 60.7447 387.144C67.3612 387.238 116.132 389.792 117.322 385.594L117.031 385.103C114.837 384.596 109.55 384.983 107.116 385.012C102.424 385.057 97.6597 385.359 92.9756 385.311C83.7916 385.218 74.6156 384.689 65.4262 384.863C64.3372 384.884 61.839 384.999 60.9102 384.657Z" fill="#C78A5E"/>
<path d="M61.5213 422.863C69.9687 424.774 78.8805 425.174 87.5761 423.955C88.4649 423.832 88.9586 423.522 89.415 422.837C88.3955 419.589 64.6413 422.527 61.3131 420.323L61.5213 422.863Z" fill="#C78A5E"/>
<path d="M540.364 394.179C532.393 394.523 524.442 395.318 516.433 395.316C515.809 395.316 515.266 395.438 514.727 395.742C515.698 398.107 537.104 397.077 540.364 396.295L540.364 394.179Z" fill="#C78A5E"/>
<path d="M409.158 388.602C406.146 388.415 399.162 389.586 395.729 390.083C388.327 391.155 382.185 391.71 374.767 392.076C359.728 392.823 345.307 391.404 330.347 391.102C319.57 390.886 307.892 392.039 296.891 392.324C291.841 392.455 281.726 392.679 276.388 393.408C276.014 393.458 276.019 393.749 275.872 394.168L276.195 394.763C288.694 395.286 303.119 394.037 315.798 393.931C327.138 393.835 337.724 394.536 348.962 394.875C366.816 395.414 384.64 395.751 402.23 392.239C404.449 391.796 407.927 391.702 409.496 390.232C409.759 389.295 409.76 389.688 409.158 388.602Z" fill="#C78A5E"/>
<path d="M382.65 424.387C377.268 424.264 370.802 424.579 365.373 424.755C355.021 425.121 344.666 425.412 334.31 425.625L302.432 425.889C299.562 425.919 286.989 425.414 285.547 427.072C285.884 427.816 285.627 427.485 286.618 427.886C290.981 428.39 300.789 428.062 305.745 428.168C322.204 428.486 338.669 428.422 355.125 427.976C363.43 427.797 371.797 427.776 380.07 427C381.385 426.877 383.275 426.597 383.342 425.068L382.65 424.387Z" fill="#C78A5E"/>
<path d="M216.489 388.161C213.716 387.895 200.331 387.836 198.281 388.97L198.351 389.33C201.433 390.926 223.274 391.46 227.792 391.543C231.668 391.724 244.073 392.786 246.523 389.933L246.449 389.498C244.706 388.42 220.53 388.327 216.489 388.161Z" fill="#C78A5E"/>
<path d="M537.001 421.427C533.01 421.361 520.172 421.209 516.878 422.551C516.297 423.253 516.373 422.879 516.437 423.648C517.054 424.235 517.313 424.195 518.157 424.312C521.238 424.427 538.456 425.951 538.807 422.759C538.274 421.929 537.891 421.849 537.001 421.427Z" fill="#C78A5E"/>
<path d="M376.225 89.9565C374.833 90.5474 373.923 90.7785 372.485 91.1654C372.398 91.4907 386.711 136.095 388.267 140.131C389.693 143.829 394.356 155.516 396.005 159.874L410.897 200.186C413.809 207.933 416.2 215.948 419.269 223.66C423.337 233.884 427.853 243.811 431.729 254.13C439.208 274.046 446.119 294.217 453.479 314.159L464.789 344.474C466.642 349.48 470.898 361.113 471.851 366.191L477.139 366.167C465.065 334.673 453.688 301.793 442.025 270.016L376.225 89.9565Z" fill="#F5C494"/>
<path d="M376.225 89.9565C374.833 90.5474 373.923 90.7785 372.485 91.1654C370.289 91.234 368.093 91.2657 365.897 91.2601C361.663 90.9372 355.984 91.0672 351.634 91.0947C346.264 91.1288 340.42 91.029 335.092 91.2396L325.963 91.2388L424.098 366.255L441.76 366.202L445.027 366.231C450.839 366.183 456.652 366.175 462.465 366.21L465.818 366.215L471.851 366.191L477.139 366.167C465.065 334.673 453.688 301.793 442.025 270.016L376.225 89.9565Z" fill="#E1AB75"/>
<path d="M365.897 91.2599C361.663 90.937 355.984 91.0669 351.634 91.0944C346.264 91.1286 340.42 91.0288 335.092 91.2393C335.955 94.318 337.763 98.5805 338.942 101.704L347.332 123.301C349.628 129.079 353.568 142.214 357.36 146.188C356.509 140.73 353.773 132.654 351.976 127.463C347.754 115.267 342.903 103.724 339.065 91.3599L358.297 91.3314C364.041 112.174 374.427 131.982 382.421 151.978C389.103 168.689 392.666 186.325 398.386 203.255C400.012 208.067 408.039 231.562 410.867 233.572L411.187 233.347C411.463 230.126 406.731 217.994 405.504 214.443C403.407 208.279 401.412 202.079 399.521 195.848C394.991 181.119 391.276 165.847 385.851 151.422C380.721 137.783 373.834 124.685 368.724 111.002C366.292 104.49 364.031 97.9222 361.743 91.3589C363.196 91.3829 364.449 91.3282 365.897 91.2599Z" fill="#C78A5E"/>
<path d="M445.027 366.231C444.12 363.496 443.025 360.822 441.985 358.135C437.114 345.542 433.246 332.599 427.842 320.207C423.107 309.351 417.586 298.762 412.906 287.896C410.044 281.152 407.499 274.281 405.281 267.3C403.232 260.871 401.251 254.419 399.338 247.95C398.407 244.831 395.982 235.231 393.622 233.387L393.308 233.638C392.979 236.801 395.821 245.024 396.751 248.529C401.134 265.058 406.086 281.272 413.112 296.899C417.535 306.736 422.809 316.257 426.904 326.243C432.026 339.757 436.194 352.755 441.76 366.202L445.027 366.231Z" fill="#C78A5E"/>
<path d="M465.817 366.215C462.322 352.573 452.364 334.654 446.406 321.727C443.533 315.496 435.081 287.946 430.976 284.789L430.697 285C430.605 287.959 433.435 295.122 434.552 298.212C437.779 307.136 440.632 316.5 444.426 325.17C448.292 334.005 453.075 342.358 456.903 351.255C459.096 356.352 460.566 361.099 462.464 366.209L465.817 366.215Z" fill="#C78A5E"/>
<path d="M360.274 153.043L359.686 153.219C358.198 155.565 364.388 168.583 366.079 171.208L366.743 170.972C367.698 168.049 362.13 155.624 360.274 153.043Z" fill="#C78A5E"/>
<path d="M235.594 91.1237C234.323 90.657 233.037 90.1644 231.753 89.7417L178.699 235.285C163 279.017 147.031 322.653 130.795 366.191L137.964 366.156L147.29 366.167L150.81 366.18L170.281 366.183L173.158 366.178L184.109 366.202C192.564 341.584 201.238 317.041 210.123 292.579L261.091 149.124C267.811 129.988 275.063 110.437 281.447 91.2262C277.385 91.1923 273.248 91.2446 269.178 91.2548L265.791 91.2081L244.805 91.2265C243.79 91.2316 242.432 91.1947 241.45 91.2486C239.296 91.2865 237.737 91.2756 235.594 91.1237Z" fill="#E1AB75"/>
<path d="M235.595 91.1237C234.324 90.657 233.038 90.1644 231.754 89.7417L178.7 235.285C163.001 279.017 147.032 322.653 130.796 366.191L137.965 366.156C138.291 364.547 140.704 358.409 141.366 356.573L148.641 336.268C155.49 317.319 161.957 298.036 168.656 279.012L202.12 186.002C209.326 166.407 217.157 147.127 223.349 127.17C225.356 120.698 228.036 114.194 230.153 107.714C231.917 102.305 233.417 96.3106 235.595 91.1237Z" fill="#F5C494"/>
<path d="M269.178 91.2547L265.791 91.208C263.709 95.5415 261.019 105.505 259.417 110.514C255.416 123.064 251.263 135.565 246.956 148.013C241.094 164.823 233.611 181.337 227.218 197.983C221.87 211.915 217.847 226.299 213.532 240.552C212.485 244 209.082 251.027 209.093 254.474L209.381 254.635C214.071 250.255 223.169 217.306 226.316 208.872C232.329 192.759 239.434 176.978 245.706 160.948C252.216 144.31 257.581 126.869 262.975 109.816C264.923 103.655 267.336 97.2945 269.178 91.2547Z" fill="#C78A5E"/>
<path d="M206.538 214.281C204.023 218.831 202.163 225.666 200.519 230.807C198.64 236.797 196.614 242.74 194.444 248.633C187.9 266.322 179.594 282.683 173.124 300.344C169.134 311.237 166.561 322.821 162.382 333.688C159.35 341.568 155.06 349.437 151.511 357.133C150.507 359.306 147.889 364.16 147.291 366.167L150.811 366.18C155.629 355.207 161.53 344.618 166.081 333.365C171.312 320.427 174.293 307.077 179.178 294.073C182.944 284.039 187.758 274.141 191.882 264.212C196.35 253.156 200.188 241.854 203.372 230.361C204.771 225.331 206.618 219.455 206.538 214.281Z" fill="#C78A5E"/>
<path d="M244.806 91.2264C243.791 91.2314 242.433 91.1946 241.451 91.2485C238.915 95.8363 236.42 103.49 234.479 108.569C229.568 121.441 225.026 134.225 221.46 147.551C219.725 154.025 217.587 160.205 217.294 166.993C220.451 162.48 222.837 153.182 224.612 147.601L230.217 130.516C234.453 117.878 239.545 103.574 244.806 91.2264Z" fill="#C78A5E"/>
<path d="M173.159 366.178C177.573 356.875 200.313 301.545 198.568 295.12C198.544 295.023 198.498 294.933 198.461 294.842L198.063 294.759C197.001 295.584 196.2 297.222 195.787 298.495C191.735 310.901 187.184 323.043 182.66 335.276C178.782 345.758 174.352 355.808 170.282 366.183L173.159 366.178Z" fill="#C78A5E"/>
<path d="M337.682 0.125233C309.099 -1.69005 283.476 16.4179 272.437 42.1907L248.376 42.1536C244.682 42.1442 240.275 41.9747 236.56 42.2258C221.467 43.2452 226.215 62.318 225.398 72.4211C224.912 78.4194 225.399 82.7026 228.834 87.7317C227.232 94.181 224.302 101.303 221.985 107.569C218.355 117.618 214.65 127.64 210.868 137.634L179.049 224.81L150.343 303.888L142.515 325.212C141.349 328.39 139.473 334.062 138.026 336.845C134.813 338.505 129.643 339.457 125.935 341.435C115.662 346.908 108.002 355.332 104.313 366.281C98.6604 366.087 92.6176 366.292 87.0476 366.111C67.9538 365.489 58.2812 366.25 57.5925 388.243C57.3816 398.029 57.5532 407.82 58.1003 417.595C58.3539 423.004 58.1855 433.836 62.6267 437.454C70.9753 444.251 88.8172 441.9 99.1169 441.647C99.7495 453.407 103.73 463.347 111.283 472.423C120.48 483.575 133.822 490.501 148.237 491.603C162.172 492.777 175.99 488.28 186.564 479.132C198.823 468.629 203.627 456.55 204.892 440.886C224.411 440.689 244.241 440.876 263.781 440.884L403.333 440.865C404.184 452.764 406.883 461.566 414.426 471.204C423.417 482.593 436.616 489.883 451.046 491.426C464.959 492.979 478.918 488.931 489.839 480.173C502.967 469.614 507.969 457.116 509.749 440.889C513.317 440.876 516.886 440.908 520.454 440.986C526.812 441.122 534.031 441.837 539.028 437.114C543.039 433.321 543.885 427.663 543.969 422.436C544.087 415.137 543.844 407.655 543.63 400.354C543.436 393.76 544.052 384.046 542.628 377.828C542.005 375.213 540.705 372.809 538.858 370.856C533.125 364.881 519.555 366.204 511.758 366.226C501.368 366.295 490.977 366.285 480.588 366.197C477.361 356.368 472.699 344.706 469.058 334.862L452.136 288.389L409.649 172.072L390.061 118.768L383.883 102.031C382.282 97.8081 379.955 92.1322 378.864 87.8938C384.191 80.6908 382.043 74.0267 382.426 65.8137C383.62 40.2328 377.979 42.3732 356.598 42.1096C356.193 35.3396 355.64 28.7003 353.971 22.1155C351.595 12.7371 349.03 1.28595 337.682 0.125233ZM338.797 137.59C341.944 145.368 344.625 153.671 347.384 161.591L356.199 186.202L382.772 260.614L402.695 316.433C404.809 322.504 408.49 331.377 409.995 337.101C398.328 339.447 388.418 344.784 381.544 354.759C378.743 358.935 377.302 361.551 375.41 366.266C370.894 366.255 365.707 366.391 361.265 366.188C345.792 352.65 349.982 333.637 348.512 315.432C347.338 300.878 343.143 281.766 331.562 271.745C328.437 269.125 325.701 267.44 322.577 265.114C323.448 253.727 323.762 241.275 324.266 229.802C325.016 211.191 325.87 192.583 326.828 173.982C327.255 164.723 327.417 152.948 328.258 143.928C332.518 143.694 333.923 142.872 336.903 139.697C337.421 139.145 338.269 138.009 338.797 137.59ZM277.429 113.359C280.424 118.287 282.778 120.957 286.87 125.095C286.317 143.036 285.202 161.34 284.409 179.308C283.315 206.136 282.018 232.957 280.52 259.766C274.563 263.222 269.802 265.989 265.366 271.516C259.855 278.382 257.597 285.491 257.191 294.246C256.903 300.488 258.2 304.921 259.337 310.928C260.492 317.047 261.461 322.843 264.872 328.268C267.733 332.983 270.403 335.43 274.529 339.022L274.603 366.289C257.754 366.185 240.48 366.067 223.631 366.236C221.138 366.236 218.546 366.278 216.064 366.228C212.672 357.859 209.661 351.708 202.316 345.808C200.416 344.282 197.886 342.953 196.367 341.734C198.991 333.328 202.388 324.369 205.375 316.072L214.185 290.943L253.249 181.443L269.981 134.057C271.721 128.963 273.504 123.883 275.327 118.819C275.767 117.621 276.906 114.309 277.429 113.359Z" fill="#744728"/>
<path d="M497.357 410.316C486.141 394.211 466.518 386.187 447.23 389.816C427.942 393.448 412.58 408.055 407.988 427.136C403.396 446.213 410.429 466.211 425.953 478.217C445.422 493.273 472.969 491.869 490.804 474.908C508.639 457.947 511.423 430.511 497.357 410.316Z" fill="#C78A5E"/>
<path d="M425.953 478.217C445.422 493.273 472.969 491.869 490.804 474.908C508.639 457.947 511.423 430.511 497.357 410.315C497.931 414.769 499.834 419.439 500.577 424.104C502.753 437.772 498.87 452.583 490.504 463.78C479.081 479.068 455.073 488.227 436.58 481.63C432.459 480.16 430.382 478.967 425.953 478.217Z" fill="#B1764C"/>
<path d="M457.72 421.932C448.434 421.195 440.296 428.094 439.504 437.375C438.712 446.653 445.563 454.83 454.839 455.678C464.193 456.532 472.456 449.613 473.255 440.254C474.054 430.896 467.083 422.676 457.72 421.932Z" fill="#744728"/>
<path d="M465.951 429.118C461.27 424.542 454 423.931 448.623 427.664C443.246 431.397 441.276 438.421 443.928 444.404C446.156 449.432 451.183 452.631 456.681 452.519C462.178 452.41 467.073 449.013 469.098 443.9C471.123 438.789 469.882 432.961 465.951 429.118Z" fill="#C78A5E"/>
<path d="M465.95 429.118C461.27 424.542 453.999 423.931 448.622 427.664C443.245 431.397 441.275 438.421 443.927 444.404C444.453 443.542 444.622 437.487 446.341 434.554C450.029 428.259 455.228 426.066 462.302 428.003C463.878 428.435 464.891 429.449 465.95 429.118Z" fill="#E1AB75"/>
<path d="M192.164 409.969C185.083 399.532 173.062 391.895 160.726 389.555C148.062 387.241 134.997 390.016 124.364 397.272C113.1 404.96 105.403 416.851 103.003 430.274C100.673 442.926 103.511 455.983 110.882 466.529C113.599 470.452 117.341 474.895 121.297 477.644C138.184 492.537 164.639 491.747 182.212 478.385C192.551 470.623 199.371 459.06 201.156 446.253C202.816 433.61 199.998 420.19 192.164 409.969Z" fill="#C78A5E"/>
<path d="M192.164 409.969L192.231 410.302C193.205 414.932 195.188 419.487 196.016 424.211C198.247 436.967 194.476 450.107 187.504 461.013C176.809 477.739 151.419 487.845 132.298 481.339C128.351 479.997 125.645 478.412 121.297 477.643C138.184 492.537 164.639 491.747 182.212 478.385C192.551 470.622 199.371 459.06 201.156 446.253C202.816 433.609 199.998 420.189 192.164 409.969Z" fill="#B1764C"/>
<path d="M153.425 421.916C144.065 421.153 135.866 428.147 135.148 437.511C134.433 446.875 141.468 455.035 150.837 455.708C160.141 456.375 168.233 449.399 168.946 440.099C169.658 430.802 162.722 422.676 153.425 421.916Z" fill="#744728"/>
<path d="M161.516 429.009C156.602 424.286 148.961 423.901 143.599 428.107C138.237 432.313 136.79 439.825 140.206 445.72C142.886 450.344 148.013 452.983 153.332 452.476C158.654 451.969 163.192 448.412 164.951 443.366C166.71 438.32 165.367 432.713 161.516 429.009Z" fill="#C78A5E"/>
<path d="M161.516 429.009C156.602 424.286 148.961 423.901 143.599 428.107C138.237 432.313 136.79 439.825 140.206 445.72C140.575 443.964 140.225 441.042 140.543 438.99C141.85 430.49 149.489 425.201 157.872 427.934C158.983 428.294 160.363 428.9 161.516 429.009Z" fill="#E1AB75"/>
<path d="M378.849 51.2801C377.351 47.523 375.167 45.1437 370.881 45.1138C362.712 45.0567 354.541 45.125 346.371 45.1331L301.645 45.1154L260.705 45.1173C253.021 45.1133 241.787 44.7098 234.039 45.6353C232.384 45.833 229.971 48.951 229.298 50.6791C229.077 51.2486 228.885 51.829 228.725 52.4185C228.274 54.4938 228.348 56.3442 228.343 58.4566L228.348 61.76L228.33 76.6679C228.34 77.3524 228.322 79.2108 228.426 79.7883C229.533 84.0217 232.112 87.7846 236.919 87.9725C242.649 88.1964 248.422 88.1032 254.16 88.0963L286.356 88.024L346.431 88.0552C353.339 88.0701 360.256 88.0603 367.162 88.0891C372.132 88.1096 375.819 88.028 378.36 82.8873C378.781 82.0165 379.143 81.1178 379.442 80.1976L379.472 77.4979C379.439 70.9791 379.448 64.4603 379.5 57.9419L379.519 54.7361C379.361 53.3298 379.188 52.6344 378.849 51.2801Z" fill="#E1AB75"/>
<path d="M378.849 51.2801C377.351 47.523 375.167 45.1437 370.881 45.1138C362.712 45.0567 354.541 45.125 346.371 45.1331L301.645 45.1154L260.705 45.1173C253.021 45.1133 241.787 44.7098 234.039 45.6353C232.384 45.833 229.971 48.951 229.298 50.6791C229.077 51.2486 228.885 51.829 228.725 52.4185C228.887 52.6768 228.767 52.5308 229.157 52.7854C233.617 50.2135 237.386 49.4326 242.478 49.1047C257.278 48.1512 271.981 50.0429 286.824 49.8871C300.355 49.7451 313.81 49.0847 327.332 48.8479C334.85 48.7871 342.345 49.775 349.848 49.9645C356.495 50.1323 363.156 49.4124 369.811 49.826C372.96 50.0216 375.791 50.8021 378.849 51.2801Z" fill="#F5C494"/>
<path d="M379.472 77.4984C372.534 77.5414 364.832 76.7915 358.187 76.8734C350.484 76.9682 340.923 78.4007 333.177 78.7921C327.081 79.1004 294.606 77.4162 291.542 79.7969L291.521 80.2668C292.967 81.3278 305.838 80.7992 308.169 81.0332C324.56 82.6786 340.304 81.0711 356.637 80.0656C364.156 79.6026 371.65 80.8349 379.442 80.1982L379.472 77.4984Z" fill="#C78A5E"/>
<path d="M228.348 61.7603C235.234 61.7411 241.637 62.0562 248.683 61.7677C254.806 61.5879 261.169 61.068 267.254 60.8786C271.845 60.7358 296.408 62.5614 298.404 59.0797C296.75 57.9912 286.725 58.649 284 58.3605C281.76 58.1235 278.384 58.0862 276.019 57.8754C267.866 57.1479 259.642 58.2132 251.475 58.3581C243.764 58.5409 236.062 58.4929 228.343 58.4569L228.348 61.7603Z" fill="#C78A5E"/>
<path d="M379.519 54.7362C374.954 54.5462 370.385 54.2463 365.817 54.1822C362.02 54.1288 337.41 54.2321 335.151 56.0563C335.065 56.1265 334.992 56.2122 334.912 56.2901L335.071 56.7133C336.148 57.1787 337.579 57.4072 338.756 57.3749C350.48 57.0525 362.166 57.0013 373.883 57.6962C375.733 57.8061 377.645 57.9395 379.5 57.9419L379.519 54.7362Z" fill="#C78A5E"/>
<path d="M228.33 76.668C228.34 77.3525 228.322 79.2108 228.426 79.7883C229.304 79.288 253.256 81.8628 258.449 80.1197C258.97 79.9455 258.999 79.9065 259.231 79.3992C258.153 78.3612 250.795 78.1413 248.86 77.9996C242.022 77.4755 235.178 77.0317 228.33 76.668Z" fill="#C78A5E"/>
<path d="M286.628 68.9659C283.091 68.8303 266.119 68.945 264.464 71.3214C264.934 71.9634 265.006 71.7841 266.026 72.0184C269.842 72.3765 287.479 73.1184 288.675 69.6445C287.981 68.9923 287.778 69.1639 286.628 68.9659Z" fill="#C78A5E"/>
<path d="M320.766 64.7214C318.883 64.572 313.269 64.6224 311.682 65.7293L311.703 66.2297C312.604 66.9777 313.189 66.9841 314.378 67.2448C316.957 67.4287 321.327 67.4142 323.446 65.7894L323.418 65.3461C322.512 64.7385 321.901 64.8129 320.766 64.7214Z" fill="#C78A5E"/>
<path d="M321.429 142.941C319.07 142.446 315.353 141.809 313.157 141.161C305.001 138.755 296.119 133.613 289.767 127.905C289.577 144.416 288.323 163.205 287.485 179.798L283.34 266.192C292.46 262.248 304.115 260.206 313.837 262.653C315.95 263.158 317.581 263.715 319.645 264.417L322.926 192.128C323.671 175.924 324.155 159.486 325.073 143.319C323.902 143.168 322.614 143.063 321.429 142.941Z" fill="#C78A5E"/>
<path d="M325.073 143.319C323.902 143.168 322.614 143.062 321.429 142.94C321.166 143.016 320.637 143.058 320.609 143.348C317.794 172.042 316.856 201.658 315.494 230.396L314.352 253.116C314.258 254.837 314.056 261.3 313.837 262.653C315.95 263.157 317.581 263.715 319.645 264.417L322.926 192.127C323.671 175.923 324.155 159.486 325.073 143.319Z" fill="#E1AB75"/>
<path d="M319.287 283.577C310.534 274.894 295.428 274.203 286.551 283.129C282.87 286.825 280.255 291.447 278.981 296.507C277.196 303.744 277.796 321.351 277.826 329.559L277.81 366.153L281.765 366.177L327.127 366.135L327.093 331.785C327.128 322.277 327.269 312.787 326.877 303.287C326.593 296.421 324.657 288.349 319.287 283.577Z" fill="#C78A5E"/>
<path d="M319.287 283.577C310.534 274.894 295.428 274.203 286.551 283.129C282.87 286.825 280.255 291.447 278.982 296.507C277.196 303.744 277.797 321.351 277.826 329.559L277.81 366.153L281.765 366.177C281.621 351.076 281.688 335.975 281.968 320.876C282.054 315.744 281.635 309.42 282.147 304.446C282.854 297.561 286.604 288.733 292.169 284.381C298.148 279.703 305.861 279.161 312.908 281.589C314.308 282.054 317.988 283.481 319.287 283.577Z" fill="#E1AB75"/>
<path d="M303.591 290.751C295.863 290.084 289.036 295.757 288.281 303.477C287.525 311.195 293.12 318.085 300.829 318.931C305.897 319.486 310.873 317.277 313.856 313.143C316.84 309.009 317.371 303.592 315.246 298.957C313.122 294.324 308.67 291.189 303.591 290.751Z" fill="#744728"/>
<path d="M304.068 293.95C298.121 292.987 292.506 296.982 291.473 302.917C290.44 308.849 294.374 314.509 300.295 315.611C304.187 316.334 308.167 314.912 310.717 311.883C313.266 308.857 313.992 304.691 312.616 300.982C311.24 297.27 307.975 294.586 304.068 293.95Z" fill="#C78A5E"/>
<path d="M310.612 91.0444L284.917 91.0967L282.656 97.5159C281.389 101.538 279.774 105.472 278.546 109.362C287.388 123.658 300.533 135.187 317.235 139.06C318.605 139.366 319.99 139.602 321.384 139.766C317.435 133.508 314.244 124.75 313.138 117.364C311.455 109.922 310.681 98.6397 310.612 91.0444Z" fill="#B0C5D0"/>
<path d="M310.614 91.0444L284.918 91.0967L282.657 97.5159C289.738 108.241 300.791 114.563 313.139 117.364C311.456 109.922 310.682 98.6397 310.614 91.0444Z" fill="#FEFEFE"/>
<path d="M332.231 3.2474C326.501 3.1294 317.165 5.24239 311.867 7.37077C295.086 14.1118 282.974 25.6744 275.691 42.0546C288.451 41.7205 302.604 42.0135 315.445 42.0233C318.196 28.8946 322.693 12.9894 332.231 3.2474Z" fill="#FEFEFE"/>
<path d="M353.57 42.0663C353.429 31.8041 351.252 19.1367 346.883 9.90827C342.826 1.33916 335.753 1.51929 330.632 9.19737C323.9 19.2917 321.098 30.5296 318.166 42.1082L324.556 42.0903C326.281 34.1641 329.871 18.8082 336.91 13.8959C339.737 11.923 346.229 15.1258 344.574 19.5495C344.419 19.5266 343.342 19.367 343.342 19.367C341.79 18.4946 340.213 14.4059 337.585 16.8508C332.385 21.6873 329.128 35.4248 327.639 42.0927L348.513 42.058L353.57 42.0663Z" fill="#FEFEFE"/>
<path d="M344.574 19.5493C344.42 19.5264 343.342 19.3668 343.342 19.3668C341.791 18.4945 340.214 14.4057 337.585 16.8506C332.385 21.6871 329.129 35.4246 327.64 42.0925L348.514 42.0578C348.037 35.5207 346.624 25.6651 344.574 19.5493Z" fill="#B0C5D0"/>
<path d="M411.078 340.143C396.225 341.854 384.052 352.544 378.658 366.244L387.744 366.236L420.529 366.183C417.813 359.704 415.488 351.629 412.77 344.824L411.078 340.143Z" fill="#B1764C"/>
<path d="M411.077 340.143C396.224 341.854 384.051 352.544 378.658 366.244L387.744 366.236C391.781 357.414 396.783 351.279 405.814 347.204C407.757 346.329 411.278 345.736 412.77 344.824L411.077 340.143Z" fill="#C78A5E"/>
<path d="M136.713 340.893C125.599 343.46 116.738 349.755 110.695 359.493C109.393 361.596 108.312 363.827 107.463 366.151L112.566 366.202L127.417 366.247C129.664 360.627 132.274 352.915 134.375 347.073C135.103 344.995 135.883 342.935 136.713 340.893Z" fill="#B1764C"/>
<path d="M136.713 340.893C125.599 343.46 116.738 349.755 110.695 359.493C109.393 361.596 108.312 363.827 107.463 366.151L112.566 366.202C118.222 355.445 123.253 351.794 134.375 347.073C135.103 344.995 135.883 342.935 136.713 340.893Z" fill="#C78A5E"/>
<path d="M316.58 91.1655L313.28 91.042C313.665 105.432 315.598 124.681 323.36 137.259C326.138 141.761 329.996 141.827 333.899 138.686C335.536 137.134 336.43 135.727 337.612 133.836C337.108 132.309 336.418 130.629 335.832 129.111C330.099 133.501 326.1 131.435 324.029 124.733C320.803 114.286 319.937 102.161 319.94 91.2549L316.58 91.1655Z" fill="#FEFEFE"/>
<path d="M198.447 346.606C197.179 345.686 196.736 345.406 195.324 344.68C192.625 351.725 189.842 358.967 187.544 366.159C193.496 366.183 200.088 366.348 205.989 366.21L212.638 366.17C209.494 358.388 205.669 351.322 198.447 346.606Z" fill="#B1764C"/>
<path d="M198.447 346.607C197.411 346.286 196.981 346.148 196.007 345.686C195.217 346.041 193.96 349.123 194.438 349.59C200.011 355.039 203.211 358.57 205.989 366.21L212.638 366.17C209.494 358.388 205.669 351.322 198.447 346.607Z" fill="#C78A5E"/>
<path d="M274.575 305.404C270.855 302.298 267.807 301.527 265.725 296.734C265.303 295.765 265.047 294.762 264.665 293.886L264.495 293.5C262.781 298.741 262.127 302.741 262.445 308.302C262.541 309.917 262.568 311.542 262.963 313.105C263.849 318.376 265.231 322.237 267.93 326.835C268.327 327.46 268.904 328.426 269.325 328.991C270.991 331.342 272.568 332.938 274.679 334.878C274.575 332.637 274.599 330.395 274.605 328.151V325.536C274.893 323.547 274.885 307.243 274.575 305.404Z" fill="#E1AB75"/>
<path d="M274.508 316.548C271.417 316.513 268.372 315.79 265.596 314.426C264.707 313.986 263.869 313.311 262.962 313.105C263.848 318.376 265.23 322.237 267.929 326.835C268.326 327.46 268.903 328.426 269.325 328.991C270.99 331.342 272.568 332.938 274.679 334.878C274.575 332.637 274.599 330.395 274.604 328.151V325.536C274.388 323.371 274.503 318.886 274.508 316.548Z" fill="#E1AB75"/>
<path d="M274.604 328.151C272.888 328.455 271.044 328.818 269.325 328.991C270.99 331.342 272.568 332.938 274.679 334.878C274.575 332.637 274.599 330.395 274.604 328.151Z" fill="#E1AB75"/>
<path d="M274.604 325.536C272.405 325.923 270.083 326.286 267.929 326.835C268.327 327.46 268.903 328.426 269.325 328.991C271.044 328.818 272.888 328.455 274.604 328.151V325.536Z" fill="#C78A5E"/>
<path d="M274.575 305.404C274.351 307.768 274.487 310.941 274.525 313.375C268.762 313.313 266.494 312.31 262.445 308.302C262.541 309.916 262.568 311.541 262.963 313.105C263.87 313.311 264.708 313.986 265.597 314.426C268.373 315.79 271.418 316.513 274.509 316.548C274.503 318.885 274.389 323.371 274.605 325.535C274.893 323.547 274.885 307.242 274.575 305.404Z" fill="#C78A5E"/>
<path d="M336.884 283.693C336.532 282.903 335.45 281.379 334.928 280.597C334.321 285.814 333.227 290.479 328.833 293.913C329.186 295.346 329.44 296.382 329.644 297.863C329.983 300.139 330.202 301.876 330.356 304.169L330.32 307.611L330.332 315.715C334.047 315.894 337.891 314.176 340.869 312.081C341.92 307.104 341.888 304.155 341.828 299.176C341.583 297.228 341.152 295.111 340.795 293.166C339.97 289.83 338.652 286.639 336.884 283.693Z" fill="#E1AB75"/>
<path d="M341.828 299.175L341.387 298.836L340.892 299.397C339.76 300.229 338.254 301.014 336.818 300.491C334.6 302.567 333.414 303.456 330.356 304.168L330.32 307.611L330.332 315.715C334.047 315.894 337.891 314.175 340.869 312.08C341.92 307.104 341.888 304.155 341.828 299.175Z" fill="#E1AB75"/>
<path d="M340.892 299.397C339.76 300.23 338.254 301.014 336.818 300.491C334.599 302.567 333.414 303.456 330.356 304.168L330.319 307.611C335.43 306.071 338.03 303.963 340.892 299.397Z" fill="#C78A5E"/>
<path d="M336.884 283.693C336.531 282.903 335.449 281.379 334.927 280.597C334.32 285.814 333.226 290.479 328.832 293.913C329.185 295.346 329.439 296.382 329.643 297.863C330.039 296.155 333.215 294.1 334.173 292.411C335.749 289.633 336.383 286.767 336.884 283.693Z" fill="#C78A5E"/>
<path d="M341.828 299.176C341.583 297.228 341.151 295.111 340.794 293.166C339.87 295.805 338.528 298.279 336.818 300.491C338.254 301.014 339.76 300.23 340.892 299.397L341.386 298.837L341.828 299.176Z" fill="#C78A5E"/>
<path d="M315.101 266.446L311.166 265.707L312.082 268.178C312.489 269.653 313.676 274.353 313.259 275.628C314.075 276.069 314.978 276.592 315.816 276.965C318.69 278.796 320.752 280.349 323.032 282.935L325.018 285.697C326.903 288.792 327.628 290.479 328.832 293.913C333.226 290.479 334.32 285.814 334.927 280.597C334.408 279.778 334.095 279.338 333.494 278.577C332.016 276.271 329.185 273.806 326.933 272.255C326.638 271.866 325.18 270.934 324.688 270.595C321.442 268.506 318.779 267.462 315.101 266.446Z" fill="#E1AB75"/>
<path d="M315.101 266.446L311.166 265.707L312.082 268.178C312.489 269.653 313.676 274.353 313.259 275.628C314.075 276.069 314.978 276.592 315.816 276.965C318.69 278.796 320.752 280.349 323.032 282.935C324.641 281.024 325.177 275.892 325.08 273.36L324.688 270.595C321.442 268.506 318.779 267.462 315.101 266.446Z" fill="#E1AB75"/>
<path d="M315.101 266.446L311.166 265.707L312.082 268.178C312.489 269.653 313.676 274.353 313.259 275.628C314.075 276.069 314.979 276.592 315.816 276.965C315.956 274.401 315.692 271.673 315.335 269.133C315.148 268.215 314.867 267.332 315.101 266.446Z" fill="#C78A5E"/>
<path d="M315.101 266.446C314.867 267.332 315.148 268.215 315.335 269.133C319.09 270.297 321.639 271.449 325.08 273.36L324.688 270.595C321.442 268.506 318.78 267.463 315.101 266.446Z" fill="#F5C494"/>
<path d="M324.688 270.595L325.08 273.36C325.178 275.892 324.641 281.024 323.032 282.935L325.019 285.697C327.044 281.464 327.588 280.069 327.811 275.396L326.934 272.255C326.639 271.865 325.181 270.934 324.688 270.595Z" fill="#C78A5E"/>
<path d="M333.494 278.577C332.017 276.272 329.186 273.806 326.933 272.255L327.81 275.396C328.618 276.218 331.808 278.292 332.861 278.801L333.494 278.577Z" fill="#F5C494"/>
<path d="M298.922 265.186C295.978 265.554 291.563 266.197 288.849 267.462C287.133 268.055 286.476 268.271 284.872 269.154C280.991 270.99 277.487 273.528 274.533 276.642L274.338 276.885C274.388 281.382 274.847 285.993 277.941 289.529C279.871 285.846 281.149 284.178 283.938 281.136C284.749 280.552 285.678 279.746 286.463 279.097C289.991 276.434 292.426 275.343 296.549 273.872C296.699 271.476 296.955 270.174 297.555 267.887C297.932 266.99 298.463 266.056 298.922 265.186Z" fill="#E1AB75"/>
<path d="M298.922 265.186C295.978 265.554 291.563 266.197 288.849 267.462L287.942 269.856C286.922 273.723 286.535 275.158 286.463 279.097C289.991 276.434 292.426 275.343 296.549 273.872C296.699 271.476 296.955 270.174 297.555 267.887C297.932 266.99 298.463 266.056 298.922 265.186Z" fill="#E1AB75"/>
<path d="M298.922 265.186C295.978 265.554 291.563 266.197 288.849 267.462L287.942 269.856C289.586 269.877 294.876 268.207 297.555 267.887C297.932 266.99 298.463 266.056 298.922 265.186Z" fill="#F5C494"/>
<path d="M288.849 267.462C287.132 268.055 286.476 268.271 284.872 269.154C285.136 269.904 284.221 271.908 283.972 273.066C283.9 275.85 283.85 278.345 283.938 281.136C284.749 280.552 285.678 279.746 286.463 279.097C286.535 275.159 286.922 273.723 287.941 269.856L288.849 267.462Z" fill="#C78A5E"/>
<path d="M284.873 269.154C280.992 270.99 277.487 273.528 274.533 276.642C274.61 277.352 274.495 278.62 274.826 279.052C276.212 278.246 276.791 277.579 278.016 276.754C279.887 275.497 282.033 274.235 283.973 273.066C284.221 271.908 285.137 269.904 284.873 269.154Z" fill="#F5C494"/>
<path d="M335.69 331.393C333.732 333.747 332.28 335.198 330.11 337.315C329.886 346.486 330.211 356.947 330.252 366.239L338.398 366.268L343.81 366.333C335.302 355.117 335.413 344.661 335.69 331.393Z" fill="#212121"/>
<path d="M274.337 276.885C273.507 277.771 272.688 278.619 271.919 279.559L271.735 279.839C269.151 282.94 267.726 285.165 266.221 288.933C265.626 290.377 264.881 292.007 264.494 293.499L264.665 293.886C265.046 294.761 265.303 295.765 265.724 296.734C267.806 301.526 270.854 302.297 274.575 305.404C274.583 304.211 274.674 302.826 274.722 301.617C275.066 297.921 275.653 295.733 276.833 292.256L277.94 289.528C274.847 285.993 274.388 281.381 274.337 276.885Z" fill="#E1AB75"/>
<path d="M266.221 288.934C265.626 290.377 264.881 292.008 264.494 293.499L264.665 293.886C265.047 294.762 265.303 295.765 265.724 296.734C267.806 301.527 270.854 302.298 274.575 305.404C274.583 304.211 274.674 302.826 274.722 301.617C271.903 301.324 268.241 296.571 267.203 294.1C266.536 292.28 266.432 290.839 266.221 288.934Z" fill="#C78A5E"/>
<path d="M274.337 276.885C273.507 277.771 272.688 278.619 271.919 279.559C272.13 280.399 272.117 280.693 272.138 281.571C272.231 286.059 273.473 288.968 276.617 292.048L276.833 292.256L277.94 289.528C274.847 285.993 274.388 281.381 274.337 276.885Z" fill="#C78A5E"/>
<path d="M271.736 279.839C269.152 282.94 267.727 285.165 266.222 288.933C266.432 290.839 266.537 292.28 267.204 294.1C267.412 293.79 268.338 290.51 268.557 289.785C269.499 286.641 272.262 283.073 271.736 279.839Z" fill="#F5C494"/>
<path d="M346.165 338.956C345.437 339.989 339.988 345.889 339.155 346.188C339.388 347.8 339.66 349.403 339.971 350.999C340.908 354.567 341.808 357.703 343.731 360.913C344.464 362.084 345.158 363.235 345.972 364.353L347.372 366.239L356.243 366.226C353.69 362.664 351.599 359.371 349.661 355.432C349.046 353.871 348.705 352.867 348.249 351.255C347.307 348.165 346.862 345.756 346.391 342.572C346.383 341.408 346.255 340.125 346.165 338.956Z" fill="#E1AB75"/>
<path d="M349.661 355.431C348.254 356.939 346.826 362.164 345.972 364.352L347.372 366.239L356.243 366.225C353.69 362.663 351.599 359.37 349.661 355.431Z" fill="#E1AB75"/>
<path d="M348.249 351.255C346.758 354.158 344.999 357.9 343.73 360.912C344.463 362.084 345.157 363.234 345.971 364.352C346.825 362.164 348.253 356.939 349.66 355.431C349.045 353.87 348.704 352.867 348.249 351.255Z" fill="#C78A5E"/>
<path d="M346.164 338.956C345.436 339.989 339.987 345.889 339.154 346.188C339.387 347.8 339.659 349.403 339.971 350.999C341.313 348.187 344.306 344.998 346.391 342.572C346.383 341.408 346.254 340.125 346.164 338.956Z" fill="#C78A5E"/>
<path d="M344.747 309.668C343.374 317.02 342.631 319.929 339.464 326.074C338.366 328.204 338.553 343.767 339.155 346.187C339.988 345.888 345.437 339.988 346.165 338.955C345.927 328.82 345.962 319.76 344.747 309.668Z" fill="#E1AB75"/>
<path d="M322.721 92.5713C322.656 93.9541 322.943 97.0841 322.995 98.6399C323.312 106.642 324.016 114.84 326.362 122.539C327.599 126.597 328.579 130.221 333.357 127.641L334.925 126.132C330.841 115.685 327.175 102.499 322.721 92.5713Z" fill="#B0C5D0"/>
<path d="M302.723 265.015L298.922 265.186C298.463 266.056 297.932 266.99 297.556 267.887C296.955 270.174 296.699 271.476 296.55 273.872C299.136 273.477 301.497 273.464 304.105 273.459C307.64 273.693 309.975 274.219 313.26 275.628C313.677 274.353 312.49 269.653 312.083 268.177L311.167 265.706C308.154 264.898 305.809 264.994 302.723 265.015Z" fill="#E1AB75"/>
<path d="M302.721 265.015L298.921 265.186C298.462 266.056 297.931 266.99 297.555 267.887C296.954 270.173 296.698 271.476 296.548 273.872C299.135 273.477 301.496 273.464 304.104 273.458C303.38 272.991 300.172 273.282 299.153 273.33C299.548 271.492 299.955 269.17 300.98 267.606C301.548 266.56 302.014 265.965 302.721 265.015Z" fill="#C78A5E"/>
<path d="M311.167 265.706C308.153 264.898 305.808 264.994 302.722 265.015C302.015 265.965 301.549 266.56 300.981 267.606C305.253 267.51 307.757 267.516 312.083 268.177L311.167 265.706Z" fill="#F5C494"/>
<path d="M280.46 263.35C268.148 269.504 260.803 279.951 260.677 293.929C261.523 292.131 262.514 289.467 263.418 287.501C267.87 277.856 271.842 273.984 280.257 268.105C280.388 266.731 280.407 264.775 280.46 263.35Z" fill="#C78A5E"/>
<path d="M340.869 312.081C337.891 314.175 334.047 315.894 330.332 315.715C330.321 317.586 330.23 320.172 330.36 321.986L330.338 325.693L330.261 332.554C331.662 331.11 333.466 329.125 334.507 327.387C337.127 323.694 338.398 320.988 339.855 316.727C340.463 314.829 340.585 314.069 340.869 312.081Z" fill="#E1AB75"/>
<path d="M340.869 312.081C337.891 314.175 334.047 315.894 330.332 315.715C330.321 317.586 330.23 320.172 330.36 321.986C330.505 321.119 330.483 319.462 330.499 318.522C334.372 318.336 335.999 317.925 339.514 316.34L339.855 316.727C340.463 314.829 340.585 314.069 340.869 312.081Z" fill="#C78A5E"/>
<path d="M330.337 325.693L330.261 332.554C331.661 331.11 333.465 329.125 334.506 327.387C332.983 326.824 331.814 326.384 330.337 325.693Z" fill="#C78A5E"/>
<path d="M540.378 384.588C540.264 380.609 539.725 375.765 536.654 372.894C534.366 370.751 530.626 369.513 527.542 369.452C518.522 369.278 509.403 369.356 500.38 369.361L449.039 369.366L286.959 369.369L142.307 369.366L100.217 369.342C91.7454 369.292 83.1005 369.134 74.6318 369.31C70.8365 369.39 67.2787 370.522 64.6417 373.412C61.8526 376.473 61.1186 380.585 60.9104 384.657C60.841 385.49 60.7556 386.306 60.745 387.144C60.6249 398.865 61.0119 408.698 61.3135 420.322L61.5216 422.863C61.6231 438.511 69.0456 438.925 82.3052 438.882C87.83 438.866 93.4536 438.647 98.9811 438.479C99.1573 434.503 99.4776 431.015 100.337 427.114C103.385 413.315 111.856 401.325 123.843 393.837C135.704 386.242 150.133 383.758 163.851 386.949C178.619 390.344 189.922 399.796 197.876 412.402C198.116 412.853 199.095 414.756 199.336 415.047C203.302 423.962 204.247 428.093 204.868 437.78L403.415 437.681C403.852 425.916 406.713 418.679 412.732 408.824C413.699 407.436 414.49 406.39 415.556 405.074C425.479 394.032 436.235 387.32 451.315 385.911C465.488 384.596 479.595 389.026 490.472 398.205C503.346 408.885 508.244 421.665 509.713 437.793C510.184 437.809 510.654 437.823 511.125 437.836C515.744 437.938 528.863 438.354 532.845 437.254C534.419 436.817 535.852 435.976 537.004 434.818C541.747 430.071 540.805 421.401 540.727 415.172L540.364 396.295L540.364 394.179L540.377 386.939L540.378 384.588Z" fill="#E1AB75"/>
<path d="M199.336 415.047C200.199 414.943 205 415.183 206.305 415.202C211.395 415.274 216.482 415.3 221.572 415.282C229.755 415.22 237.941 415.308 246.121 415.549C260.398 416.005 274.125 416.539 288.425 415.621C292.471 415.362 303.438 416.645 306.63 415.295L306.71 414.935C303.543 412.872 287.171 412.618 282.81 412.872C278.635 412.869 272.998 414.265 268.923 413.865C245.158 411.53 221.647 412.867 197.877 412.402C198.117 412.853 199.096 414.756 199.336 415.047Z" fill="#C78A5E"/>
<path d="M415.557 405.074C400.464 406.112 385.343 407.07 370.261 408.231C366.98 408.481 351.766 408.097 350.547 409.65L350.651 410.088C351.556 410.579 355.127 410.52 356.366 410.566C362.076 410.755 367.792 410.758 373.503 410.576C378.002 410.438 411.712 408.409 412.732 408.823C413.699 407.435 414.49 406.389 415.557 405.074Z" fill="#C78A5E"/>
<path d="M540.379 384.588C537.507 383.817 533.954 383.045 530.954 383.067C518.189 383.158 505.409 384.001 492.626 384.028C491.704 384.03 490.595 384.262 489.756 384.623L489.621 385.01C492.743 387.609 521.451 386.688 527.091 386.669C531.522 386.643 535.952 386.733 540.377 386.939L540.379 384.588Z" fill="#C78A5E"/>
<path d="M60.9102 384.657C60.8408 385.489 60.7554 386.306 60.7447 387.144C67.3612 387.237 116.132 389.791 117.322 385.593L117.031 385.102C114.837 384.595 109.55 384.982 107.116 385.012C102.424 385.057 97.6597 385.359 92.9756 385.311C83.7916 385.217 74.6156 384.689 65.4262 384.862C64.3372 384.884 61.839 384.998 60.9102 384.657Z" fill="#C78A5E"/>
<path d="M61.5213 422.863C69.9687 424.773 78.8805 425.174 87.5761 423.954C88.4649 423.831 88.9586 423.522 89.415 422.836C88.3955 419.588 64.6413 422.526 61.3131 420.322L61.5213 422.863Z" fill="#C78A5E"/>
<path d="M540.364 394.178C532.393 394.522 524.442 395.318 516.433 395.315C515.809 395.315 515.266 395.438 514.727 395.742C515.698 398.106 537.104 397.076 540.364 396.294L540.364 394.178Z" fill="#C78A5E"/>
<path d="M409.158 388.601C406.146 388.414 399.162 389.586 395.729 390.082C388.327 391.155 382.185 391.71 374.767 392.076C359.728 392.823 345.307 391.403 330.347 391.101C319.57 390.885 307.892 392.038 296.891 392.324C291.841 392.454 281.726 392.679 276.388 393.407C276.014 393.458 276.019 393.749 275.872 394.168L276.195 394.763C288.694 395.286 303.119 394.037 315.798 393.93C327.138 393.834 337.724 394.536 348.962 394.875C366.816 395.414 384.64 395.75 402.23 392.238C404.449 391.795 407.927 391.702 409.496 390.232C409.759 389.295 409.76 389.687 409.158 388.601Z" fill="#C78A5E"/>
<path d="M382.65 424.387C377.268 424.264 370.802 424.579 365.373 424.755C355.021 425.12 344.666 425.411 334.31 425.625L302.432 425.889C299.562 425.918 286.989 425.414 285.547 427.071C285.884 427.816 285.627 427.485 286.618 427.885C290.981 428.389 300.789 428.061 305.745 428.168C322.204 428.485 338.669 428.421 355.125 427.976C363.43 427.797 371.797 427.776 380.07 426.999C381.385 426.876 383.275 426.596 383.342 425.067L382.65 424.387Z" fill="#C78A5E"/>
<path d="M216.489 388.161C213.716 387.894 200.331 387.835 198.281 388.97L198.351 389.33C201.433 390.926 223.274 391.459 227.792 391.542C231.668 391.724 244.073 392.786 246.523 389.933L246.449 389.498C244.706 388.42 220.53 388.326 216.489 388.161Z" fill="#C78A5E"/>
<path d="M537.001 421.427C533.01 421.36 520.172 421.208 516.878 422.55C516.297 423.252 516.373 422.879 516.437 423.647C517.054 424.234 517.313 424.194 518.157 424.312C521.238 424.426 538.456 425.95 538.807 422.758C538.274 421.929 537.891 421.849 537.001 421.427Z" fill="#C78A5E"/>
<path d="M376.225 89.9561C374.833 90.5469 373.923 90.778 372.485 91.1649C370.289 91.2335 368.093 91.2653 365.897 91.2596C361.663 90.9368 355.984 91.0667 351.634 91.0942C346.264 91.1284 340.42 91.0286 335.092 91.2391L325.963 91.2383L424.098 366.255L441.76 366.201L445.027 366.231C450.839 366.183 456.652 366.175 462.465 366.209L465.818 366.215L471.851 366.191L477.139 366.167C465.065 334.672 453.688 301.793 442.025 270.016L376.225 89.9561Z" fill="#E1AB75"/>
<path d="M376.225 89.9561C374.833 90.5469 373.923 90.778 372.485 91.1649C372.398 91.4902 386.711 136.095 388.267 140.13C389.693 143.828 394.356 155.516 396.005 159.873L410.897 200.185C413.809 207.932 416.2 215.947 419.269 223.659C423.337 233.883 427.853 243.81 431.729 254.13C439.208 274.045 446.119 294.217 453.479 314.159L464.789 344.474C466.642 349.48 470.898 361.112 471.851 366.191L477.139 366.167C465.065 334.672 453.688 301.793 442.025 270.016L376.225 89.9561Z" fill="#F5C494"/>
<path d="M365.897 91.2594C361.663 90.9365 355.984 91.0665 351.634 91.0939C346.264 91.1281 340.42 91.0283 335.092 91.2388C335.955 94.3176 337.763 98.58 338.942 101.703L347.332 123.3C349.628 129.079 353.568 142.214 357.36 146.188C356.509 140.73 353.773 132.654 351.976 127.463C347.754 115.267 342.903 103.723 339.065 91.3595L358.297 91.3309C364.041 112.173 374.427 131.982 382.421 151.978C389.103 168.689 392.666 186.324 398.386 203.255C400.012 208.067 408.039 231.561 410.867 233.571L411.187 233.346C411.463 230.126 406.731 217.994 405.504 214.442C403.407 208.278 401.412 202.079 399.521 195.848C394.991 181.118 391.276 165.847 385.851 151.421C380.721 137.782 373.834 124.685 368.724 111.001C366.292 104.49 364.031 97.9217 361.743 91.3584C363.196 91.3824 364.449 91.3277 365.897 91.2594Z" fill="#C78A5E"/>
<path d="M445.027 366.231C444.12 363.496 443.025 360.822 441.985 358.134C437.114 345.541 433.246 332.599 427.842 320.206C423.107 309.35 417.586 298.762 412.906 287.895C410.044 281.152 407.499 274.28 405.281 267.299C403.232 260.871 401.251 254.418 399.338 247.95C398.407 244.831 395.982 235.23 393.622 233.386L393.308 233.638C392.979 236.8 395.821 245.023 396.751 248.529C401.134 265.058 406.086 281.272 413.112 296.899C417.535 306.735 422.809 316.257 426.904 326.242C432.026 339.756 436.194 352.755 441.76 366.201L445.027 366.231Z" fill="#C78A5E"/>
<path d="M465.817 366.214C462.322 352.573 452.364 334.653 446.406 321.727C443.533 315.496 435.081 287.945 430.976 284.789L430.697 284.999C430.605 287.959 433.435 295.121 434.552 298.211C437.779 307.135 440.632 316.499 444.426 325.169C448.292 334.005 453.075 342.357 456.903 351.254C459.096 356.351 460.566 361.099 462.464 366.209L465.817 366.214Z" fill="#C78A5E"/>
<path d="M360.274 153.043L359.686 153.219C358.198 155.564 364.388 168.583 366.079 171.208L366.743 170.971C367.698 168.048 362.13 155.624 360.274 153.043Z" fill="#C78A5E"/>
<path d="M235.594 91.1233C234.323 90.6565 233.037 90.1639 231.753 89.7412L178.699 235.285C163 279.017 147.031 322.653 130.795 366.191L137.964 366.156L147.29 366.166L150.81 366.18L170.281 366.182L173.158 366.177L184.109 366.201C192.564 341.584 201.238 317.041 210.123 292.578L261.091 149.124C267.811 129.987 275.063 110.436 281.447 91.2257C277.385 91.1918 273.248 91.2441 269.178 91.2543L265.791 91.2076L244.805 91.226C243.79 91.2311 242.432 91.1942 241.45 91.2481C239.296 91.286 237.737 91.2751 235.594 91.1233Z" fill="#E1AB75"/>
<path d="M235.595 91.1233C234.324 90.6565 233.038 90.1639 231.754 89.7412L178.7 235.285C163.001 279.017 147.032 322.653 130.796 366.19L137.965 366.156C138.291 364.547 140.704 358.409 141.366 356.573L148.641 336.268C155.49 317.318 161.957 298.036 168.656 279.011L202.12 186.001C209.326 166.407 217.157 147.126 223.349 127.169C225.356 120.698 228.036 114.193 230.153 107.713C231.917 102.305 233.417 96.3101 235.595 91.1233Z" fill="#F5C494"/>
<path d="M269.178 91.2542L265.791 91.2075C263.709 95.541 261.019 105.504 259.417 110.514C255.416 123.064 251.263 135.564 246.956 148.012C241.094 164.822 233.611 181.337 227.218 197.982C221.87 211.914 217.847 226.298 213.532 240.552C212.485 243.999 209.082 251.026 209.093 254.474L209.381 254.634C214.071 250.255 223.169 217.305 226.316 208.872C232.329 192.759 239.434 176.978 245.706 160.948C252.216 144.309 257.581 126.868 262.975 109.815C264.923 103.655 267.336 97.294 269.178 91.2542Z" fill="#C78A5E"/>
<path d="M206.538 214.28C204.023 218.831 202.163 225.665 200.519 230.806C198.64 236.797 196.614 242.74 194.444 248.632C187.9 266.322 179.594 282.683 173.124 300.343C169.134 311.236 166.561 322.821 162.382 333.687C159.35 341.567 155.06 349.437 151.511 357.133C150.507 359.305 147.889 364.159 147.291 366.166L150.811 366.179C155.629 355.206 161.53 344.617 166.081 333.364C171.312 320.427 174.293 307.076 179.178 294.072C182.944 284.039 187.758 274.141 191.882 264.211C196.35 253.155 200.188 241.853 203.372 230.361C204.771 225.331 206.618 219.455 206.538 214.28Z" fill="#C78A5E"/>
<path d="M244.806 91.2259C243.791 91.2309 242.433 91.1941 241.451 91.248C238.915 95.8358 236.42 103.489 234.479 108.568C229.568 121.441 225.026 134.225 221.46 147.55C219.725 154.025 217.587 160.204 217.294 166.993C220.451 162.48 222.837 153.182 224.612 147.601L230.217 130.516C234.453 117.877 239.545 103.573 244.806 91.2259Z" fill="#C78A5E"/>
<path d="M173.159 366.177C177.573 356.875 200.313 301.545 198.568 295.119C198.544 295.023 198.498 294.932 198.461 294.841L198.063 294.759C197.001 295.583 196.2 297.222 195.787 298.495C191.735 310.901 187.184 323.043 182.66 335.275C178.782 345.758 174.352 355.807 170.282 366.183L173.159 366.177Z" fill="#C78A5E"/>
</svg>
