<svg width="545" height="492" viewBox="0 0 545 492" fill="none" xmlns="http://www.w3.org/2000/svg">
<path fill-rule="evenodd" clip-rule="evenodd" d="M233.997 40.2685C238.492 39.8003 250.302 40.087 255.332 40.0859L296.882 40.079L345.081 40.081C353.062 40.083 361.171 39.9884 369.164 40.1962C373.264 40.4009 376.016 41.3119 378.708 44.497C381.905 48.2777 381.984 55.0421 381.615 59.9159C380.943 68.7788 383.936 79.1335 377.897 86.2665C380.251 93.739 383.995 103.17 386.707 110.658L405.994 163.559L473.22 346.594C484.544 352.287 496.344 357.277 507.772 362.791C509.896 363.814 512.204 364.927 514.483 365.575C520.798 366.921 528.038 364.419 534.127 367.145C537.935 368.817 540.85 372.025 542.147 375.975C544.402 382.97 543.196 394.338 543.669 401.999C544.166 410.038 544.269 418.453 543.859 426.486C543.286 434.43 537.923 440.417 529.762 440.815C523.016 441.144 516.137 440.838 509.37 440.891C508.501 456.167 502.822 468.525 491.328 478.77C480.838 488.016 467.102 492.71 453.148 491.817C438.691 491.076 425.153 484.488 415.649 473.565C407.61 464.506 402.963 452.937 402.503 440.835L203.018 440.87C202.28 455.963 196.484 468.482 185.274 478.637C174.817 487.929 161.086 492.669 147.124 491.806C128.24 490.817 111.557 480.349 102.625 463.631C98.5178 455.943 97.2198 450.177 96.2588 441.664C86.7638 441.833 76.5398 442.515 67.3298 441.161C62.6308 440.469 56.0538 435.101 55.7658 430.323C55.0738 418.811 54.3898 405.821 54.4288 394.309C54.4568 386.307 54.0858 376.044 59.9898 370.208C65.6388 364.811 74.8398 365.822 82.1048 365.849L101.216 365.881C107.789 350.25 119.052 340.662 135.689 336.724L143.558 315.05C144.004 313.82 146.385 307.097 146.792 306.403L158.594 273.996C160.592 268.616 162.572 262.797 164.797 257.58L121.977 237.755C108.09 243.916 95.0388 246.39 79.8818 244.95C55.5728 242.641 33.1098 229.698 17.6868 210.998C5.44777 196.158 -1.57322 175.815 0.300781 156.555C0.836781 151.053 2.75779 138.981 7.37579 135.393C14.8558 129.579 28.3558 131.469 37.0658 132.749C69.3818 137.498 131.639 161.817 151.234 188.471C154.386 192.759 155.945 196.845 155.141 202.228C161.055 205.183 167.264 207.723 173.227 210.777C175.652 211.921 177.907 212.99 180.402 213.991C183.427 207.002 186.625 197.56 189.301 190.273L204.347 149.249L219.4 108.155C221.974 101.114 225.028 93.3893 227.253 86.3398C222.554 80.9742 223.335 73.6423 223.532 66.7782C223.747 59.2395 221.74 48.3352 227.762 42.9882C229.501 41.446 231.683 40.4937 233.997 40.2685ZM194.236 340.845C204.671 348.116 209.923 353.522 214.168 365.894L251.652 365.881L273.101 365.875L273.086 338.749C258.002 325.49 259.505 317.549 255.505 299.238C246.755 294.998 237.944 290.882 229.075 286.894C224.856 284.959 219.722 282.733 215.689 280.597L194.236 340.845ZM348.24 338.996C349.443 349.09 352.076 359.609 360.801 365.878L374.223 365.894C374.755 364.587 375.357 362.965 375.964 361.722C377.29 359.062 378.763 356.315 380.585 353.952C376.049 351.325 369.184 348.447 364.251 346.235C359.863 344.271 352.582 340.493 348.24 338.996ZM333.949 331.535C332.225 333.654 330.914 335.022 328.984 336.973C328.996 346.413 329.182 356.498 328.932 365.889L337.454 365.886L342.057 365.88C337.48 358.771 335.199 351.723 334.463 343.204C334.304 341.356 334.579 332.172 333.949 331.535ZM283.661 89.4687L253.541 174.22C246.232 194.781 238.897 216.37 231.238 236.732L279.251 259.243C288.593 255.683 299.085 255.16 308.269 259.371C324.185 266.666 332.747 268.59 340.647 285.622C346.009 288.81 357.426 293.632 363.55 296.466C375.513 302.029 389.72 308.156 401.273 314.018C399.128 307.017 395.849 298.715 393.312 291.696L380.458 255.7L342.662 149.582C335.715 130.097 327.652 109.03 321.345 89.4531L283.661 89.4687Z" fill="#71421F"/>
<path d="M171.818 247.332L229.892 88.4863C231.336 88.9421 232.522 89.1717 233.994 89.4789L239.46 89.5027L242.953 89.4954C249.797 89.4963 256.752 89.4318 263.588 89.5042L266.974 89.4925C271.337 89.4841 275.871 89.5379 280.219 89.4376L181.841 365.89L170.932 365.878L168.257 365.901L148.227 365.878L144.768 365.898C141.244 365.858 131.785 366.198 128.597 365.704C131.046 359.025 133.453 352.328 135.818 345.617L136.424 344.277C136.647 342.632 139.638 335.395 140.3 333.433C143.444 324.106 147.913 313.937 150.787 304.578C157.971 286.651 165.145 265.643 171.818 247.332Z" fill="#E5AF79"/>
<path d="M171.818 247.332L229.892 88.4863C231.336 88.9421 232.521 89.1717 233.994 89.4789C230.263 99.3945 227.088 109.602 223.75 119.665C220.235 130.286 216.537 140.845 212.658 151.339C191.092 209.1 170.19 267.108 149.955 325.347C145.281 338.778 139.946 352.11 135.443 365.663C133.533 365.648 130.397 365.532 128.597 365.704C131.046 359.025 133.453 352.328 135.818 345.617L136.424 344.277C136.647 342.632 139.638 335.395 140.3 333.433C143.444 324.106 147.913 313.937 150.787 304.578C157.971 286.651 165.145 265.643 171.818 247.332Z" fill="#F6CB9C"/>
<path d="M263.588 89.5039L266.974 89.4922C265.85 93.7746 263.911 99.2867 262.577 103.778C255.686 127.108 247.701 150.102 238.656 172.684C232.707 187.762 225.604 202.041 220.871 217.729C219.327 222.848 210.592 252.445 207.61 253.895L206.983 253.665C206.409 252.256 208.37 248.666 208.905 247.17C212.384 237.451 215.482 227.401 218.33 217.49C223.429 199.748 231.199 183.236 237.903 166.133C245.365 147.203 252.025 127.966 257.866 108.474C259.528 102.998 262.85 94.7535 263.588 89.5039Z" fill="#C98C5E"/>
<path d="M144.769 365.898C149.905 355.406 154.884 345.48 159.431 334.677C164.244 323.24 166.837 311.475 171.08 300.047C180.924 273.534 193.934 248.441 201.336 220.967C201.784 219.323 203.086 215.086 204.313 214.142C206.236 217.145 193.138 254.744 190.733 260.615C186.444 271.229 181.474 281.602 177.366 292.286C171.977 306.301 168.336 320.993 162.682 334.912C159.047 343.859 154.814 352.505 150.445 361.105C149.884 362.21 148.442 364.858 148.228 365.878L144.769 365.898Z" fill="#C98C5E"/>
<path d="M239.461 89.5024L242.954 89.4951C241.751 93.2849 239.262 98.8935 237.719 102.766C235.117 109.453 232.62 116.181 230.228 122.946C225.568 136.454 221.756 150.395 216.822 163.812C216.601 164.412 216.443 164.353 215.924 164.501L215.487 164.09C215.07 161.271 217.471 154.21 218.29 151.202C224.068 129.977 231.176 109.898 239.461 89.5024Z" fill="#C98C5E"/>
<path d="M168.257 365.901C169.232 362.166 171.267 358.196 172.768 354.566C180.484 335.915 187.518 317.108 193.584 297.858C193.951 296.696 194.832 294.144 195.976 293.705C196.352 293.92 196.536 293.882 196.614 294.356C197.366 298.942 182.768 337.842 180.316 343.803C178.396 348.445 176.429 353.063 174.414 357.661C173.396 359.99 171.666 363.623 170.932 365.878L168.257 365.901Z" fill="#C98C5E"/>
<path d="M121.977 237.755C108.09 243.916 95.0377 246.39 79.8817 244.95C55.5727 242.641 33.1087 229.698 17.6857 210.998C5.44673 196.158 -1.57328 175.815 0.30072 156.555C0.83672 151.053 2.75776 138.982 7.37476 135.393C14.8558 129.579 28.3547 131.469 37.0647 132.749C69.3807 137.498 131.639 161.816 151.234 188.47C154.386 192.759 155.945 196.845 155.141 202.228C161.055 205.183 167.263 207.723 173.226 210.777L172.806 211.047C174.131 212.044 175.345 211.868 175.879 213.66C175.587 214.328 175.74 214.163 175.18 214.548C174.185 213.682 166.014 209.856 164.854 210.045C169.207 212.371 175.623 214.749 179.428 217L177.283 223.154C175.973 226.569 172.957 234.058 172.038 237.432C172.558 237.104 177.183 225.375 177.516 224.232L177.823 224.065C180.944 225.503 177.655 228.607 177.349 230.537C176.522 235.753 172.015 242.248 171.818 247.332C165.145 265.643 157.972 286.651 150.787 304.578C148.981 305.679 149.219 310.684 147.367 310.786C146.702 310.306 146.616 310.333 146.233 309.632C146.514 308.493 146.683 307.99 147.106 306.891L146.791 306.403L158.594 273.996C160.591 268.616 162.571 262.798 164.797 257.58L121.977 237.755Z" fill="#664329"/>
<path d="M153.773 205.127C155.9 206.009 163.389 209.693 164.854 210.045C169.207 212.371 175.623 214.749 179.428 217L177.283 223.154C175.973 226.569 172.957 234.058 172.038 237.432C169.799 242.578 168.038 249.005 165.756 254.433C154.672 249.732 143.739 244.199 132.748 239.268C130.475 238.248 128.096 237.125 125.937 235.887C138.335 228.736 144.173 222.331 151.297 210.265L153.773 205.127Z" fill="#C98C5E"/>
<path d="M153.773 205.127C155.9 206.009 163.388 209.693 164.853 210.045C169.206 212.371 175.623 214.749 179.428 217L177.283 223.154C175.001 221.048 156.236 213.1 151.297 210.265L153.773 205.127Z" fill="#E5AF79"/>
<path d="M4.74963 147.238C18.4386 173.573 72.3926 195.643 100.018 203.709C107.503 205.866 115.109 207.577 122.796 208.835C131.376 210.169 140.25 210.483 148.683 208.124C145.667 214.958 139.101 222.64 133.284 227.183C110.732 244.796 79.0116 246.308 53.4476 234.601C47.4906 231.873 39.5066 227.883 35.0046 223.294C29.2596 219.78 21.2366 210.798 17.3676 205.211C4.34361 186.406 1.09063 169.317 4.74963 147.238Z" fill="#FEFFFF"/>
<path d="M122.796 208.835C131.376 210.169 140.25 210.483 148.683 208.124C145.667 214.958 139.101 222.64 133.284 227.183C110.732 244.796 79.0116 246.308 53.4476 234.601C47.4906 231.873 39.5066 227.883 35.0046 223.294C36.3636 223.531 43.9246 227.811 45.8386 228.706C59.5346 235.109 76.0316 237.896 90.7796 233.677C103.624 230.002 116.148 220.355 122.796 208.835Z" fill="#AEC8D7"/>
<path d="M20.8769 134.666C23.3629 134.458 30.72 134.993 33.576 135.427C66.915 140.489 104.034 155.199 131.674 174.56C138.984 180.246 150.259 188.174 152.273 197.654C153.781 204.754 144.554 206.028 139.68 206.618C106.719 207.781 54.368 185.543 27.35 166.512C20.247 161.066 9.07697 152.721 7.07097 143.653C5.51397 136.618 15.8889 135.03 20.8769 134.666Z" fill="#FEFFFF"/>
<path d="M139.539 188.838C140.151 188.687 140.279 188.686 140.907 188.618C141.918 189.069 142.614 189.574 143.105 190.595C143.845 192.134 143.809 194.136 143.216 195.717C142.671 197.17 141.552 198.51 140.117 199.148C130.149 203.586 98.5839 193.091 87.7609 189.115C72.1349 183.374 24.5739 163.236 18.1119 148.372C17.4059 146.748 17.0769 144.797 17.8339 143.129C18.5389 141.576 20.0239 140.488 21.6259 139.998C23.0689 139.556 24.1789 139.556 25.4979 140.305C25.5719 140.347 25.6449 140.392 25.7189 140.435C57.9699 142.206 103.058 160.38 129.223 179.494C131.91 181.487 134.452 183.669 136.83 186.022C137.422 186.6 139.094 188.461 139.539 188.838Z" fill="#AEC8D7"/>
<path d="M139.539 188.838C140.151 188.687 140.279 188.686 140.907 188.618C141.918 189.069 142.614 189.574 143.105 190.595C143.845 192.134 143.809 194.136 143.216 195.717C142.671 197.17 141.552 198.51 140.117 199.148C130.149 203.586 98.5839 193.091 87.7609 189.115C72.1349 183.374 24.5739 163.236 18.1119 148.372C17.4059 146.748 17.0769 144.797 17.8339 143.129C18.5389 141.576 20.0239 140.488 21.6259 139.998C23.0689 139.556 24.1789 139.556 25.4979 140.305C25.5719 140.347 25.6449 140.392 25.7189 140.435C24.3869 142.857 18.8669 143.189 20.3419 146.133C24.9709 155.37 37.3299 161.165 45.8089 166.558C69.9309 179.651 95.9989 190.599 123.006 195.939C127.5 196.827 133.297 197.609 137.774 196.682C143.229 195.552 139.527 191.26 139.539 188.838Z" fill="#664329"/>
<path d="M109.339 365.898C109.673 365.817 110.006 365.738 110.34 365.657C114.264 358.068 120.655 351.058 128.754 347.968C129.81 347.567 130.369 348.087 131.189 348.515C129.271 354.365 126.934 360.071 125.016 365.863L109.339 365.898Z" fill="#B5784C"/>
<path d="M104.604 365.849C108.776 354.435 122.387 342.307 134.415 340.197L133.276 343.216L133.17 343.644C132.451 345.28 131.836 346.849 131.189 348.515C130.369 348.088 129.81 347.567 128.754 347.968C120.655 351.058 114.264 358.068 110.34 365.657C110.006 365.739 109.673 365.817 109.339 365.898L104.604 365.849Z" fill="#C98C5E"/>
<path d="M133.277 343.216C134.593 343.234 135.341 343.42 136.425 344.277L135.818 345.617C134.392 345.036 133.786 344.96 133.17 343.643L133.277 343.216Z" fill="#664329"/>
<path d="M58.14 381.77C59.219 373.042 64.082 368.86 72.854 368.836C80.081 368.816 87.304 368.967 94.539 368.926L170.344 368.988L370.828 368.944L471.659 368.985C485.956 368.871 500.252 368.86 514.549 368.944C519.543 369.005 524.975 368.944 529.942 369.121C532.319 369.205 536.199 371.722 537.58 373.711C539.487 376.451 539.92 378.713 540.228 381.979C540.562 386.415 540.437 391.611 540.385 396.084C540.562 404.967 541.245 413.828 540.966 422.713C540.832 426.916 540.437 431.011 537.426 434.252C534.732 437.147 531.221 437.85 527.428 437.801C521.4 437.836 515.363 437.795 509.335 437.769C508.664 423.126 503.377 409.858 492.425 399.831C481.796 389.978 467.625 384.854 453.153 385.633C438.569 386.345 425.667 392.896 415.936 403.656C415.486 404.156 415.041 404.664 414.605 405.176C414.195 405.708 412.498 407.998 412.146 408.35C405.801 418.647 402.956 425.623 402.479 437.911C383.916 437.717 365.352 437.658 346.789 437.74L246.606 437.719C232.261 437.714 217.329 437.932 203.036 437.714C202.638 428.387 201.282 423.382 197.511 415.005C197.332 414.753 196.457 412.985 196.265 412.611C188.07 399.424 177.381 390.516 161.952 386.877C147.934 383.654 133.208 386.168 121.052 393.855C108.987 401.624 100.49 413.852 97.419 427.869C96.668 431.375 96.288 434.95 96.287 438.536C91.045 438.615 85.704 438.85 80.467 438.859C67.633 438.882 58.585 439.001 58.441 423.472L58.222 419.548C58.251 417.941 58.154 416.357 58.087 414.75C57.698 405.557 57.281 396.273 57.846 387.077C57.875 385.139 57.879 383.694 58.14 381.77Z" fill="#E5AF79"/>
<path d="M196.266 412.611C198.915 412.236 202.264 412.332 204.953 412.32C224.982 412.233 244.823 411.899 264.815 413.442C269.044 413.771 275.752 412.931 280.225 412.753C285.902 412.579 291.584 412.713 297.246 413.157C299.562 413.32 303.343 413.422 305.233 414.637L305.424 415.198C304.782 415.921 304.561 415.991 303.268 415.959C296.638 415.785 289.968 415.651 283.332 415.683C277.206 415.715 270.817 416.241 264.702 416.285C260.427 416.317 249.47 415.349 246.642 415.375C242.025 415.416 198.432 414.561 197.511 415.006C197.333 414.753 196.457 412.986 196.266 412.611Z" fill="#C98C5E"/>
<path d="M540.228 381.98C540.562 386.415 540.437 391.612 540.385 396.085C538.301 396.067 536.048 396.89 533.933 397.064C531.68 397.25 516.27 397.119 514.95 396.378C514.567 396.163 514.613 395.931 514.506 395.544L514.817 395.001C515.834 394.818 524.135 394.858 525.731 394.896C529.34 394.986 535.801 394.053 538.746 394.184C539.173 395.082 538.906 394.847 539.632 395.358C540.542 394.178 540.141 388.383 540.112 386.525C535.127 386.726 529.093 386.177 523.818 386.27C512.806 386.461 501.034 386.999 490.118 385.645C489.583 384.97 489.792 385.357 489.813 384.241C490.356 383.758 490.78 383.517 491.565 383.541C504.679 383.918 517.741 383.218 530.843 382.904C532.404 382.866 539.31 384.113 539.955 383.727L540.228 381.98Z" fill="#C98C5E"/>
<path d="M412.147 408.35C410.685 408.297 409.057 408.39 407.589 408.492C389.927 409.719 372.206 410.954 354.491 410.503C352.794 410.46 350.588 410.849 349.347 409.626L349.536 409.163C351.899 408.015 363.193 408.504 366.559 408.251C379.341 407.298 392.182 406.658 404.971 405.702C408.095 405.466 411.487 405.057 414.605 405.176C414.196 405.708 412.498 407.998 412.147 408.35Z" fill="#C98C5E"/>
<path d="M57.8459 387.077C57.8759 385.139 57.8799 383.694 58.1399 381.77C58.1519 382.927 57.9829 383.386 58.5019 384.284C62.3619 384.764 66.8919 384.296 70.8199 384.497C84.5249 385.206 98.1159 385.502 111.816 384.47C112.793 384.398 114.096 384.761 114.997 385.162L115.214 385.621C113.742 386.97 110.764 386.984 108.836 387.179C91.6808 388.926 75.0339 387.476 57.8459 387.077Z" fill="#C98C5E"/>
<path d="M58.2229 419.548L58.6979 420.569C63.0779 422.074 74.6009 420.728 79.5739 421.324C81.4319 421.548 86.1359 420.65 87.1689 422.667C85.6129 425.701 62.331 423.873 58.442 423.472L58.2229 419.548Z" fill="#C98C5E"/>
<path d="M408.153 388.438C411.344 391.088 402.79 391.693 401.456 391.96C373.636 397.393 345.521 393.899 317.433 393.736C303.636 393.658 289.014 395.094 275.386 394.556L274.502 394.012L274.395 393.469C276.028 392.138 307.214 391.693 311.722 391.379C314.428 391.193 323.357 390.728 326.304 390.804C342.74 391.219 358.99 392.393 375.446 391.774C382.198 391.458 388.932 390.844 395.632 389.937C399.707 389.42 404.101 388.694 408.153 388.438Z" fill="#C98C5E"/>
<path d="M379.971 424.15C381.439 423.958 381.651 423.74 382.654 424.853C382.794 425.792 382.884 425.364 382.358 426.17C377.39 429.082 297.507 428.12 286.602 428.035C285.413 428.03 284.898 428.146 284.262 427.044L284.631 426.571C286.209 426.047 289.97 426.21 291.778 426.161C321.171 425.35 350.613 425.835 379.971 424.15Z" fill="#C98C5E"/>
<path d="M197.312 388.412C211.799 387.412 227.345 389.086 241.936 388.548C243.126 388.505 245.106 388.766 245.092 390.26C244.362 391.065 244.25 390.853 242.939 391.161C239.62 391.394 236.293 391.489 232.967 391.446C224.819 391.341 216.578 390.76 208.424 390.536C206.086 390.472 197.41 390.464 196.064 389.077C196.478 388.388 196.201 388.696 197.312 388.412Z" fill="#C98C5E"/>
<path d="M528.931 421.58C531.445 421.437 537.13 420.568 538.847 422.394C538.935 423.423 539.042 422.96 538.554 423.835C535.993 424.704 529.276 424.356 526.21 424.315C524.675 424.315 517.578 424.338 516.38 423.829L516.189 423.242L516.607 422.699C518.99 421.67 525.94 421.693 528.931 421.58Z" fill="#C98C5E"/>
<path d="M371.875 89.5206C373.078 89.1567 373.976 88.9021 375.136 88.3984L429.524 237.225L461.672 324.673C463.16 328.736 476.469 364.637 476.292 365.744C475.411 365.93 475.417 365.916 474.513 365.858C471.697 365.939 468.476 365.881 465.634 365.89L462.291 365.884L444.594 365.892L441.603 365.901L423.089 365.872C419.639 355.429 415.564 344.417 411.853 334.029L394.824 286.305L351.123 163.74L332.361 111.171C331.393 108.41 324.697 90.6687 325.089 89.5962L325.758 89.5575C330.827 89.389 336.66 89.461 341.758 89.5476C345.339 89.4947 348.922 89.4913 352.503 89.5372C358.441 89.3709 365.919 89.3718 371.875 89.5206Z" fill="#E5AF79"/>
<path d="M371.874 89.5206C373.078 89.1567 373.976 88.9021 375.135 88.3984L429.524 237.225L461.672 324.673C463.16 328.736 476.469 364.637 476.292 365.744C475.411 365.93 475.417 365.916 474.513 365.858C473.609 365.753 473.315 365.747 472.438 365.474C470.775 363.963 470.191 359.873 469.296 357.586C456.025 323.763 444.524 289.304 431.704 255.319C428.699 247.352 425.129 239.659 422.051 231.746C419.014 223.995 416.087 216.201 413.274 208.365C411.722 203.944 410.478 199.496 408.818 195.109L394.065 156.413C393.019 153.681 391.987 150.88 390.886 148.176C384.355 132.15 379.803 115.429 374.281 99.046C373.284 96.0907 372.113 92.8439 371.36 89.8278L371.874 89.5206Z" fill="#F6CB9C"/>
<path d="M352.503 89.5371C358.44 89.3709 365.919 89.3718 371.874 89.5206L371.36 89.8278C367.785 89.7118 364.207 89.7665 360.626 89.7915C362.21 93.2507 363.21 97.1059 364.419 100.722C365.817 104.906 367.398 108.965 369.049 113.056C374.583 126.776 381.149 140.145 386.177 154.045C391.208 167.946 394.582 182.245 398.808 196.383C400.68 202.643 403.118 208.675 405.179 214.864C405.938 217.143 411.111 231.043 410.855 232.23C410.071 232.822 410.481 232.734 409.623 232.657C407.362 230.241 397.489 202.086 395.756 196.725C391.812 184.531 388.74 170.362 384.183 157.955C375.836 135.235 363.826 113.172 357.661 89.7453C355.941 89.7022 354.22 89.6328 352.503 89.5371Z" fill="#C98C5E"/>
<path d="M441.603 365.901C439.947 361.614 438.02 357.403 436.357 353.127C431.157 339.743 426.533 324.751 420.023 312.009C409.042 290.528 401.299 268.514 395.324 245.195C394.626 242.468 391.17 234.544 392.211 232.112C392.659 232.021 392.679 231.897 392.99 232.132C394.571 233.319 402.148 259.501 403.369 263.373C406.107 272.066 409.321 280.922 412.992 289.261C417.506 299.515 422.662 309.481 427.097 319.77C431.518 330.015 434.916 340.763 438.772 351.235C440.569 356.106 443.155 360.945 444.594 365.892L441.603 365.901Z" fill="#C98C5E"/>
<path d="M462.291 365.883C458.28 354.089 452.77 342.46 447.096 331.337C442.449 322.225 439.548 313.547 436.494 303.833C435.319 300.192 429.289 286.342 429.736 283.602C432.875 284.078 443.431 316.061 445.361 320.453C450.947 333.168 458.065 344.989 462.634 358.146C463.498 360.672 464.907 363.381 465.634 365.889L462.291 365.883Z" fill="#C98C5E"/>
<path d="M325.758 89.5576C330.827 89.389 336.661 89.4611 341.758 89.5477C340.491 89.7555 338.983 89.6933 337.678 89.6927C343.09 106.201 350.513 122.115 354.806 139.1C355.25 140.861 356.079 142.326 356.227 144.206C353.716 144.02 346.702 122.585 345.453 119.371C341.694 109.71 337.085 99.7412 334.399 89.7625C331.743 89.766 328.336 89.8685 325.758 89.5576Z" fill="#C98C5E"/>
<path d="M358.162 152.112C358.99 152.229 359.961 152.411 360.313 153.284C361.348 155.845 366.597 167.564 366.053 169.676C365.3 169.511 365.12 169.62 364.597 168.958C362.696 166.548 358.11 154.507 358.162 152.112Z" fill="#C98C5E"/>
<path d="M408.551 455.115C407.484 452.171 406.507 448.006 406.103 444.919C404.502 431.779 408.219 418.543 416.427 408.155C424.702 397.506 436.903 390.621 450.296 389.045C463.547 387.397 476.486 391.341 486.964 399.514C490.199 401.697 495.236 406.891 496.977 410.309C503.644 418.095 506.812 432.601 505.99 442.777C504.926 456.24 498.479 468.705 488.106 477.352C472.923 490.068 451.241 492.166 433.625 483.461C430.175 481.755 426.042 479.183 423.246 476.48C417.436 471.751 410.405 462.448 408.551 455.115Z" fill="#C98C5E"/>
<path d="M496.978 410.309C503.645 418.095 506.813 432.602 505.99 442.777C504.927 456.24 498.48 468.706 488.107 477.352C472.924 490.068 451.242 492.167 433.626 483.462C430.176 481.756 426.043 479.183 423.247 476.48C425.014 476.405 430.367 479.709 433.166 480.59C437.174 482.026 440.898 483.127 445.147 483.424C480.114 485.851 506.578 455.173 499.878 420.909C499.346 418.186 496.626 412.454 496.978 410.309Z" fill="#B5784C"/>
<path d="M408.551 455.115C407.484 452.171 406.507 448.006 406.103 444.919C404.502 431.779 408.219 418.543 416.427 408.155C424.702 397.506 436.903 390.621 450.296 389.045C463.547 387.397 476.486 391.341 486.964 399.514C486.656 399.619 486.345 399.724 486.037 399.831C484.511 399.296 481.703 398.081 480.334 397.526C475.882 395.721 471.228 394.457 466.473 393.76C445.588 390.679 423.594 402.703 414.076 421.403C408.481 432.398 407.847 441.498 408.952 453.545C408.995 454.025 408.745 454.688 408.551 455.115Z" fill="#E5AF79"/>
<path d="M453.903 421.955C463.186 420.842 471.615 427.454 472.748 436.734C473.879 446.015 467.281 454.458 458.004 455.606C448.703 456.757 440.231 450.139 439.098 440.835C437.964 431.532 444.597 423.071 453.903 421.955Z" fill="#71421F"/>
<path d="M444.019 445.652C440.723 439.914 441.976 432.642 447.004 428.341C452.032 424.039 459.408 423.923 464.567 428.068C468.881 431.532 470.7 437.243 469.186 442.562C467.671 447.884 463.117 451.778 457.627 452.453C452.137 453.127 446.777 450.447 444.019 445.652Z" fill="#C98C5E"/>
<path d="M444.019 445.652C440.723 439.914 441.976 432.642 447.004 428.341C452.032 424.039 459.408 423.923 464.567 428.068C463.692 428.408 461.446 427.722 460.516 427.562C451.639 426.059 443.749 434.043 444.216 442.792C444.251 443.446 444.176 445.044 444.019 445.652Z" fill="#E5AF79"/>
<path d="M116.981 476.465C114.074 474.021 111.465 471.243 109.208 468.188C101.692 458.07 98.0489 444.506 99.9379 432.011C101.982 418.217 109.567 405.856 120.938 397.785C143.357 381.573 174.441 387.458 190.437 409.727C198.284 420.228 200.888 434.203 199.044 447.04C197.109 459.873 190.133 471.405 179.664 479.073C169.07 486.839 155.845 490.12 142.851 488.205C133.022 486.714 124.546 482.97 116.981 476.465Z" fill="#C98C5E"/>
<path d="M190.438 409.728C198.285 420.229 200.889 434.203 199.045 447.041C197.11 459.873 190.134 471.405 179.665 479.073C169.071 486.839 155.846 490.12 142.851 488.205C133.022 486.714 124.547 482.97 116.982 476.466C118.816 476.559 122.384 478.869 124.301 479.686C137.233 485.194 149.014 484.807 162.062 479.802C185.765 470.714 198.581 445.788 193.338 421.101C192.633 417.784 190.637 412.672 190.438 409.728Z" fill="#B5784C"/>
<path d="M147.852 421.914C157.153 420.882 165.534 427.576 166.586 436.874C167.637 446.172 160.961 454.568 151.664 455.638C142.341 456.71 133.919 450.011 132.864 440.687C131.81 431.36 138.525 422.952 147.852 421.914Z" fill="#71421F"/>
<path d="M137.543 445.282C134.451 439.472 135.889 432.288 140.98 428.114C146.071 423.94 153.399 423.937 158.491 428.111C162.816 431.654 164.578 437.455 162.955 442.806C161.332 448.157 156.643 451.999 151.078 452.543C145.513 453.086 140.17 450.22 137.543 445.282Z" fill="#C98C5E"/>
<path d="M137.543 445.282C134.451 439.472 135.889 432.288 140.98 428.114C146.071 423.94 153.399 423.937 158.491 428.111C157.642 428.503 155.726 428.169 154.814 427.971C148.816 426.687 143.296 428.724 140.097 434.075C137.374 438.098 138.547 443.687 137.543 445.282Z" fill="#E5AF79"/>
<path d="M227.153 49.7139C228.51 45.9559 231.29 43.3508 235.455 43.2654C242.676 43.1168 249.914 43.1942 257.14 43.2008L297.01 43.2221L348.379 43.2104C353.279 43.2093 358.197 43.1631 363.094 43.2006C369.215 43.2476 374.47 42.0368 377.47 48.7879C377.595 49.076 377.72 49.3657 377.839 49.657C378.057 50.2083 378.252 50.6373 378.4 51.2142C378.548 57.6346 378.574 64.0573 378.475 70.4785C378.467 71.9262 378.289 77.5851 378.403 78.7599C378.336 79.0374 378.266 79.3138 378.193 79.5894C377.252 83.0623 375.226 84.6097 372.256 86.2841L277.273 86.2969L249.457 86.314C244.719 86.3216 239.976 86.398 235.241 86.2501C230.017 86.0873 227.402 83.0443 226.728 78.0594L226.741 75.2044C226.835 70.128 226.752 64.8019 226.752 59.7057L226.72 56.5618C226.726 54.6217 226.646 51.472 227.153 49.7139Z" fill="#E5AF79"/>
<path d="M227.152 49.7139C228.509 45.9559 231.289 43.3508 235.454 43.2654C242.674 43.1168 249.913 43.1942 257.138 43.2008L297.009 43.2221L348.378 43.2104C353.278 43.2093 358.196 43.1631 363.093 43.2006C369.214 43.2476 374.469 42.0368 377.469 48.7879C377.594 49.076 377.719 49.3657 377.838 49.657L377.387 49.7805C366.636 46.7147 360.12 48.2947 349.384 48.2601C344.489 48.2444 338.298 47.0978 333.136 47.0641C314.991 46.6642 296.431 48.3267 278.321 47.9584C264.05 47.6684 250.366 46.0413 235.977 48.0087C234.097 48.2659 228.345 50.1612 227.152 49.7139Z" fill="#F6CB9C"/>
<path d="M378.4 51.2139C378.548 57.6343 378.574 64.0569 378.475 70.4782C378.466 71.9259 378.289 77.5848 378.402 78.7595C370.924 79.4667 364.966 77.8001 358.31 78.2689C341.691 79.4394 325.886 80.9225 309.142 79.383C305.677 79.0647 292.046 80.1328 289.889 78.5491L290.005 78.0263C292.377 76.2001 326.819 77.3374 332.568 77.1779C340.546 76.9567 349.896 75.1483 357.961 75.239C364.155 75.3087 371.793 75.9185 378.179 76.0664C378.277 69.5597 378.246 62.9528 378.266 56.4371C367.713 55.103 357.581 55.4812 346.984 55.4948C344.159 55.4986 334.989 56.0921 333.1 54.6982L333.239 54.2439C337.503 52.266 369.485 52.2881 375.505 52.9825C376.237 53.0673 376.659 53.1342 377.664 53.1121C378.44 52.5398 378.193 52.5509 378.4 51.2139Z" fill="#C98C5E"/>
<path d="M226.72 56.5616C240.592 56.9885 253.742 56.7653 267.58 55.9146C272.535 55.61 278.432 56.849 283.498 56.6851C286.047 56.7331 295.627 56.8706 297.356 57.2652L297.644 57.6277C294.348 60.3339 269.419 58.7449 263.566 59.0135C251.704 59.5576 238.601 60.5016 226.752 59.7055L226.72 56.5616Z" fill="#C98C5E"/>
<path d="M226.741 75.2041C229.519 75.2971 256.826 76.9146 257.186 77.0663L257.538 77.6124C257.395 78.0841 257.14 78.7544 256.643 78.7939C250.502 79.2842 231.485 79.1581 226.728 78.0591L226.741 75.2041Z" fill="#C98C5E"/>
<path d="M284.657 67.2308C285.811 67.1151 286.349 66.8718 287.09 67.8222C286.308 71.7477 269.596 70.1956 266.402 70.0936C265.068 70.1021 263.472 70.384 262.58 69.3592C264.338 67.6795 280.89 67.5345 284.657 67.2308Z" fill="#C98C5E"/>
<path d="M317.271 63.1933C318.628 63.096 320.942 62.6428 321.802 63.8046L321.436 64.2992C318.652 65.647 317.87 65.3938 314.713 65.4185C313.129 65.4583 310.362 65.9039 309.996 63.9133C311.179 62.8605 315.446 63.1837 317.271 63.1933Z" fill="#C98C5E"/>
<path d="M276.249 365.875L276.269 323.066C276.257 316.695 275.917 303.549 276.877 297.998C277.626 293.501 279.414 289.24 282.094 285.555C285.808 280.466 291.409 277.083 297.643 276.167C304.744 275.188 310.94 277.216 316.605 281.477C327.001 288.802 325.891 307.763 325.839 318.947L325.722 350.543C325.725 355.141 325.557 361.478 325.833 365.924L280.591 365.892L276.249 365.875Z" fill="#C98C5E"/>
<path d="M276.249 365.875L276.269 323.066C276.257 316.695 275.917 303.549 276.877 297.998C277.626 293.501 279.414 289.24 282.094 285.555C285.808 280.466 291.409 277.083 297.643 276.167C304.744 275.188 310.94 277.216 316.605 281.477C314.963 281.716 311.44 280.704 309.752 280.329C301.023 278.391 293.066 279.716 287.305 287.026C284.893 289.903 282.335 294.054 281.64 297.722C279.981 306.516 280.547 317.363 280.55 326.455L280.591 365.892L276.249 365.875Z" fill="#E5AF79"/>
<path d="M298.204 290.15C305.95 288.607 313.475 293.653 314.989 301.404C316.506 309.156 311.434 316.663 303.677 318.148C295.958 319.63 288.497 314.588 286.988 306.877C285.483 299.163 290.496 291.685 298.204 290.15Z" fill="#71421F"/>
<path d="M290.959 308.978C288.581 304.023 290.188 298.073 294.74 294.989C299.291 291.906 305.415 292.621 309.136 296.666C312.086 299.875 312.885 304.514 311.176 308.525C309.47 312.536 305.572 315.175 301.213 315.274C296.856 315.372 292.845 312.911 290.959 308.978Z" fill="#C98C5E"/>
<path d="M290.959 308.978C288.581 304.023 290.188 298.073 294.74 294.989C299.291 291.906 305.415 292.621 309.136 296.666C307.732 296.754 307.055 296.239 305.875 296.085C302.125 295.603 297.318 295.69 294.438 298.489C290.837 301.727 291.833 307.685 290.959 308.978Z" fill="#E5AF79"/>
<path d="M342.52 290.243C362.362 299.309 382.83 309.292 402.658 318.026C403.172 319.517 403.875 321.398 404.297 322.877C404.939 323.941 408.534 334.422 409.122 336.078L419.82 365.957C412.545 365.942 411.319 364.471 404.855 361.446L386.884 353.066L360.668 341.17C356.634 339.307 351.809 337.212 347.949 335.102C347.662 327.112 347.929 319.131 347.06 311.176C346.511 306.148 345.453 301.329 344.325 296.399C343.75 294.176 343.27 292.406 342.52 290.243Z" fill="#C98C5E"/>
<path d="M342.52 290.243C362.362 299.309 382.83 309.292 402.658 318.026C403.172 319.517 403.875 321.398 404.297 322.877C402.623 322.618 391.442 317.419 388.977 316.297L360.284 303.308C355.064 300.933 349.304 298.759 344.325 296.399C343.75 294.176 343.27 292.406 342.52 290.243Z" fill="#E5AF79"/>
<path d="M230.309 239.906C245.536 246.34 260.589 254.383 275.706 260.856C273.628 262.114 271.567 263.303 269.655 264.806C268.809 265.506 267.983 266.233 267.178 266.98C258.912 274.789 255.814 284.552 255.515 295.62C249.111 292.792 242.691 289.79 236.336 286.837C229.959 283.875 222.906 280.835 216.747 277.519C220.168 267.137 224.357 256.269 228.057 245.9L230.309 239.906Z" fill="#C98C5E"/>
<path d="M230.309 239.906C245.536 246.34 260.589 254.383 275.706 260.856C273.628 262.114 271.567 263.303 269.655 264.806C268.533 263.995 264.405 262.268 262.877 261.612C251.307 256.624 239.815 250.355 228.057 245.9L230.309 239.906Z" fill="#E5AF79"/>
<path d="M272.067 276.679C272.326 277.365 272.581 278.042 272.82 278.734C273.253 282.437 273.744 285.584 276.444 288.508C276.241 289.008 275.36 291.078 275.258 291.467C274 294.882 273.538 297.175 273.23 300.858L273.116 304.235C273.14 307.04 273.134 309.845 273.099 312.652L273.108 315.835C270.285 315.669 268.786 315.599 266.027 314.754C263.723 314.044 262.63 312.088 261.261 312.112C260.81 309.99 260.793 308.851 260.712 306.665C260.796 301.663 260.996 297.411 262.737 292.694C263.147 291.211 263.563 290.336 264.182 288.953C265.862 285.177 267.53 282.28 270.044 279.03C270.312 278.597 271.654 277.144 272.067 276.679Z" fill="#E5AF79"/>
<path d="M272.066 276.679C272.325 277.365 272.581 278.042 272.819 278.734C273.252 282.437 273.743 285.584 276.444 288.508C276.24 289.008 275.359 291.078 275.258 291.467C273.999 294.882 273.537 297.175 273.229 300.858C268.378 299.608 266.036 295.152 264.826 290.711L264.181 288.953C265.861 285.177 267.529 282.28 270.044 279.03C270.311 278.597 271.654 277.144 272.066 276.679Z" fill="#E5AF79"/>
<path d="M272.066 276.679C272.325 277.365 272.581 278.042 272.819 278.734C273.252 282.437 273.743 285.584 276.444 288.508C276.24 289.008 275.359 291.078 275.258 291.467C272.034 288.407 271.195 286.607 270.416 282.344C270.416 281.1 270.535 280.158 270.044 279.03C270.311 278.597 271.654 277.144 272.066 276.679Z" fill="#C98C5E"/>
<path d="M270.044 279.03C270.535 280.158 270.416 281.099 270.416 282.343C269.067 284.311 266.137 289.156 264.826 290.711L264.181 288.953C265.861 285.177 267.529 282.279 270.044 279.03Z" fill="#F6CB9C"/>
<path d="M264.182 288.953L264.827 290.711C266.036 295.152 268.379 299.608 273.23 300.857L273.116 304.235C266.19 301.869 265.557 298.55 262.851 292.923L262.737 292.693C263.147 291.211 263.563 290.336 264.182 288.953Z" fill="#C98C5E"/>
<path d="M260.712 306.665C263.621 311.333 267.702 312.803 273.099 312.652L273.108 315.835C270.285 315.669 268.786 315.599 266.027 314.753C263.723 314.044 262.63 312.088 261.261 312.111C260.81 309.99 260.793 308.85 260.712 306.665Z" fill="#C98C5E"/>
<path d="M193.217 343.987C202.161 349.861 206.985 355.833 210.858 365.904L204.49 365.875L185.521 365.933C187.12 360.46 189.523 354.148 191.537 348.75L193.217 343.987Z" fill="#B5784C"/>
<path d="M193.218 343.987C202.161 349.861 206.985 355.833 210.859 365.904L204.491 365.875C201.331 357.606 198.043 354.685 191.538 348.75L193.218 343.987Z" fill="#C98C5E"/>
<path d="M309.958 264.815L313.356 265.44C316.381 266.332 320.183 267.66 322.744 269.555C323.531 269.997 325.525 271.017 325.955 271.741C329.428 274.47 332.006 276.824 334.311 280.652L333.753 281.102C332.358 286.578 331.408 289.319 327.664 293.696C326.685 290.229 325.287 287.636 323.508 284.541L321.537 281.82C319.18 279.327 317.306 278.013 314.472 276.089L311.728 274.854C312.292 273.464 311.728 269.881 311.618 268.102L311.525 267.887C311.086 266.666 310.6 265.919 309.958 264.815Z" fill="#E5AF79"/>
<path d="M309.958 264.815L313.356 265.44C316.381 266.332 320.183 267.66 322.744 269.555C323.063 270.491 323.499 271.645 323.752 272.581C324.301 275.008 323.845 280.437 321.537 281.82C319.18 279.327 317.306 278.013 314.472 276.089L311.728 274.854C312.292 273.464 311.728 269.881 311.618 268.102L311.525 267.887C311.086 266.666 310.6 265.919 309.958 264.815Z" fill="#E5AF79"/>
<path d="M309.958 264.815L313.356 265.44C316.381 266.332 320.183 267.66 322.744 269.555C323.063 270.491 323.499 271.645 323.752 272.581C322.229 272.325 317.62 269.308 314.454 268.695L314.21 268.622L311.618 268.102L311.525 267.887C311.086 266.666 310.6 265.919 309.958 264.815Z" fill="#F6CB9C"/>
<path d="M309.958 264.815L313.356 265.44C313.094 266.686 313.609 267.326 314.21 268.622L311.618 268.102L311.525 267.887C311.086 266.666 310.6 265.919 309.958 264.815Z" fill="#B5784C"/>
<path d="M311.618 268.102L314.21 268.622L314.454 268.694C315.387 271.883 314.704 272.862 314.472 276.089L311.728 274.853C312.292 273.464 311.728 269.88 311.618 268.102Z" fill="#C98C5E"/>
<path d="M322.743 269.555C323.531 269.997 325.525 271.017 325.955 271.741C326.167 273.098 326.33 273.502 326.798 274.819C326.661 278.745 325.693 281.297 323.508 284.541L321.537 281.82C323.845 280.437 324.301 275.007 323.752 272.581C323.499 271.645 323.063 270.491 322.743 269.555Z" fill="#C98C5E"/>
<path d="M325.956 271.741C329.429 274.47 332.007 276.824 334.312 280.652L333.754 281.102C331.473 278.754 329.101 277.132 326.799 274.819C326.331 273.502 326.168 273.098 325.956 271.741Z" fill="#F6CB9C"/>
<path d="M328.998 306.816C334.648 305.566 337.503 302.509 340.368 297.809C341.048 302.323 340.83 306.926 339.729 311.356C339.38 312.963 339.052 314.556 338.627 316.146C337.61 319.325 335.887 323.386 333.808 326.019L331.916 328.734C331.071 329.667 330.425 330.434 329.446 331.242L329.126 331.457C328.58 330.626 328.94 326.85 328.995 325.661L328.984 318.343L329.027 315.314L328.998 306.816Z" fill="#E5AF79"/>
<path d="M328.984 318.343C332.811 317.747 334.529 317.18 338.212 315.811L338.627 316.145C337.61 319.325 335.887 323.385 333.808 326.019L331.916 328.733C331.071 329.666 330.425 330.433 329.446 331.241L329.126 331.456C328.58 330.625 328.94 326.85 328.995 325.661L328.984 318.343Z" fill="#E5AF79"/>
<path d="M328.995 325.662L333.808 326.019L331.916 328.734C331.071 329.667 330.425 330.434 329.446 331.242L329.126 331.457C328.58 330.626 328.94 326.85 328.995 325.662Z" fill="#C98C5E"/>
<path d="M329.446 331.242C328.888 330.088 328.798 329.318 329.806 328.536C330.835 328.492 330.896 328.44 331.916 328.733C331.071 329.666 330.425 330.434 329.446 331.242Z" fill="#E5AF79"/>
<path d="M329.027 315.314C334.148 314.962 335.482 314.213 339.729 311.355C339.38 312.963 339.051 314.555 338.627 316.145L338.211 315.811C334.529 317.18 332.811 317.747 328.983 318.343L329.027 315.314Z" fill="#C98C5E"/>
<path d="M337.921 345.559C339.598 345.015 343.627 339.441 345.095 337.813C345.167 338.816 345.353 340.618 345.324 341.559C345.801 344.193 346.33 347.678 347.068 350.183L348.399 354.272C350.562 359.085 352.314 361.759 355.625 365.889L346.068 365.828C345.493 365.096 344.63 364.084 344.191 363.303C343.548 362.387 342.886 361.172 342.31 360.184C340.354 356.356 339.645 354.252 338.692 350.107C338.413 348.843 338.142 346.881 337.921 345.559Z" fill="#E5AF79"/>
<path d="M344.191 363.303C346.458 359.693 346.684 357.688 348.399 354.273C350.561 359.086 352.314 361.76 355.625 365.89L346.068 365.829C345.493 365.096 344.629 364.085 344.191 363.303Z" fill="#E5AF79"/>
<path d="M337.921 345.559C339.598 345.015 343.627 339.441 345.095 337.813C345.167 338.816 345.353 340.618 345.324 341.559C344.882 341.853 340.328 348.526 338.692 350.107C338.413 348.843 338.142 346.881 337.921 345.559Z" fill="#C98C5E"/>
<path d="M347.068 350.183L348.399 354.272C346.684 357.688 346.457 359.693 344.19 363.303C343.548 362.387 342.885 361.172 342.31 360.184C344.792 356.726 345.553 354.118 347.068 350.183Z" fill="#C98C5E"/>
<path d="M474.766 350.938C485.371 356.013 496.146 360.736 506.792 365.805C503.266 365.878 499.741 365.91 496.215 365.904L480.125 365.86C479.044 363.486 477.861 359.818 476.96 357.277C476.222 355.188 475.431 353.043 474.766 350.938Z" fill="#E5AF79"/>
<path d="M476.961 357.278C479.512 358.199 494.542 364.553 496.216 365.904L480.126 365.861C479.045 363.486 477.862 359.818 476.961 357.278Z" fill="#C98C5E"/>
<path d="M334.312 280.652C334.597 281.061 334.783 281.285 335.001 281.736C337.483 286.13 338.546 288.734 339.773 293.597L340.369 297.808C337.503 302.508 334.649 305.566 328.999 306.816C329.007 305.429 328.909 304.217 328.81 302.84C328.888 301.072 328.566 298.997 328.351 297.218C328.179 296.018 327.917 294.879 327.665 293.696C331.408 289.319 332.359 286.578 333.754 281.102L334.312 280.652Z" fill="#E5AF79"/>
<path d="M339.773 293.597L340.369 297.809C337.503 302.509 334.649 305.566 328.999 306.816C329.007 305.43 328.908 304.218 328.81 302.84L329.295 303.299C334.515 303.235 337.259 297.239 339.773 293.597Z" fill="#C98C5E"/>
<path d="M334.312 280.652C334.597 281.061 334.783 281.285 335.001 281.736C334.53 283.326 335.064 286.165 334.294 288.557C333.297 291.658 329.036 295.14 328.351 297.218C328.179 296.018 327.917 294.879 327.665 293.696C331.408 289.319 332.359 286.578 333.754 281.102L334.312 280.652Z" fill="#C98C5E"/>
<path d="M337.279 328.608C337.241 327.411 337.238 326.995 337.811 325.949C341.054 320.005 342.691 314.573 343.682 307.865C344.045 312.065 344.321 316.273 344.516 320.485C344.734 322.455 344.902 326.446 344.78 328.483C344.833 331.593 344.937 334.703 345.094 337.813C343.626 339.441 339.598 345.015 337.921 345.559C337.441 343.024 337.223 340.452 337.273 337.874C337.241 334.785 337.241 331.698 337.279 328.608Z" fill="#E5AF79"/>
<path d="M337.279 328.608C337.241 327.411 337.238 326.995 337.811 325.949C341.054 320.005 342.691 314.573 343.682 307.865C344.045 312.065 344.321 316.273 344.516 320.485L344.391 320.691C341.435 325.65 341.854 326.333 337.692 331.201C337.526 330.3 337.392 329.515 337.279 328.608Z" fill="#E5AF79"/>
<path d="M337.691 331.201C341.853 326.333 341.435 325.65 344.391 320.691L344.516 320.485C344.734 322.455 344.902 326.446 344.78 328.483L344.359 325.903C342.47 329.98 337.718 335.128 337.273 337.874C337.241 334.785 337.241 331.698 337.279 328.608C337.392 329.515 337.526 330.3 337.691 331.201Z" fill="#C98C5E"/>
<path d="M383.503 355.022C385.374 356.173 388.371 357.432 390.437 358.373C395.965 360.783 401.383 363.492 406.844 365.852C399.758 365.913 391.812 366.075 384.767 365.849C382.404 365.927 379.951 365.866 377.582 365.843C378.878 362.251 381.419 358.199 383.503 355.022Z" fill="#C98C5E"/>
<path d="M390.438 358.374C395.966 360.783 401.384 363.492 406.845 365.852C399.759 365.913 391.813 366.076 384.768 365.849L386.552 365.68C387.793 365.029 388.906 360.911 390.171 358.815L390.438 358.374Z" fill="#B5784C"/>
<path d="M283.538 268.311C284.698 267.692 285.573 267.291 286.785 266.776C286.631 267.616 286.526 268.427 286.227 269.226C285.34 272.139 284.776 274.656 285.547 277.742L282.913 279.922C280.152 282.692 278.283 285.005 276.444 288.508C273.744 285.584 273.252 282.436 272.819 278.733C272.581 278.042 272.325 277.364 272.066 276.678C275.981 273.031 278.583 270.636 283.538 268.311Z" fill="#E5AF79"/>
<path d="M283.538 268.311C284.698 267.692 285.573 267.291 286.785 266.776C286.631 267.616 286.526 268.427 286.227 269.226C285.34 272.139 284.776 274.656 285.547 277.742L282.913 279.922C282.1 277.367 282.024 274.449 282.629 271.839C283.134 270.505 283.541 269.741 283.538 268.311Z" fill="#C98C5E"/>
<path d="M283.538 268.311C283.541 269.741 283.134 270.505 282.629 271.839C279.655 272.833 275.04 276.522 272.819 278.734C272.581 278.042 272.325 277.365 272.066 276.679C275.981 273.031 278.583 270.636 283.538 268.311Z" fill="#F6CB9C"/>
<path d="M261.26 312.112C262.629 312.088 263.722 314.044 266.027 314.754C268.785 315.599 270.285 315.669 273.107 315.835C273.142 318.654 273.203 321.479 273.101 324.295C273.2 326.99 273.497 331.16 273.066 333.715L272.976 333.936L272.648 334.055C270.892 332.681 269.114 330.265 267.8 328.472C266.695 327.161 266.14 326.068 265.297 324.592C263.126 320.959 261.874 316.268 261.26 312.112Z" fill="#E5AF79"/>
<path d="M273.101 324.295C273.2 326.99 273.497 331.16 273.066 333.715L272.976 333.936L272.648 334.055C270.892 332.681 269.114 330.265 267.8 328.472C266.695 327.161 266.14 326.068 265.297 324.592L266.3 324.938C269.576 326.077 270.131 325.946 273.101 324.295Z" fill="#C98C5E"/>
<path d="M267.8 328.472C269.358 328.289 271.489 328.097 272.983 327.826C272.997 329.678 272.959 331.898 273.067 333.715L272.977 333.936L272.648 334.055C270.893 332.68 269.114 330.265 267.8 328.472Z" fill="#E5AF79"/>
<path d="M298.015 264.129C299.489 264.123 301.439 263.949 302.948 263.853C305.36 263.966 307.662 264.001 309.958 264.815C310.6 265.919 311.086 266.666 311.525 267.887L311.618 268.102C311.728 269.881 312.292 273.464 311.728 274.854C306.671 272.851 303.645 272.715 298.271 272.996C298.268 270.793 298.626 269.189 299.349 267.125C298.454 266.954 297.396 267.038 296.455 267.061L298.015 264.129Z" fill="#E5AF79"/>
<path d="M298.015 264.129C299.489 264.123 301.439 263.949 302.948 263.853C305.36 263.966 307.662 264.001 309.958 264.815C310.6 265.919 311.086 266.666 311.525 267.887C308.764 268.082 305.604 266.14 299.646 266.864L299.349 267.125C298.454 266.954 297.396 267.038 296.455 267.061L298.015 264.129Z" fill="#F6CB9C"/>
<path d="M298.015 264.129C299.489 264.123 301.439 263.949 302.948 263.853C301.07 264.428 300.547 265.085 299.646 266.864L299.349 267.125C298.454 266.954 297.396 267.038 296.455 267.061L298.015 264.129Z" fill="#B5784C"/>
<path d="M286.785 266.776C290.973 265.102 293.574 264.686 298.015 264.128L296.455 267.061C297.396 267.038 298.454 266.954 299.349 267.125C298.626 269.189 298.268 270.793 298.271 272.996C297.321 273.121 296.327 273.269 295.373 273.33C291.473 274.525 289.014 275.539 285.547 277.742C284.776 274.656 285.34 272.139 286.227 269.226C286.526 268.427 286.631 267.616 286.785 266.776Z" fill="#E5AF79"/>
<path d="M286.785 266.776C290.973 265.102 293.575 264.686 298.016 264.128L296.455 267.061L296.243 267.296C294.452 267.372 287.814 268.503 286.227 269.226C286.527 268.427 286.631 267.616 286.785 266.776Z" fill="#F6CB9C"/>
<path d="M296.455 267.061C297.396 267.038 298.454 266.953 299.349 267.125C298.626 269.189 298.268 270.793 298.271 272.996C297.321 273.121 296.327 273.269 295.373 273.33C295.336 271.287 295.629 269.25 296.242 267.296L296.455 267.061Z" fill="#C98C5E"/>
<path d="M270.767 267.872C274.461 264.853 276.755 263.585 281.143 261.891C281.544 262.928 280.931 264.73 280.707 266.044C276.386 268.602 273.822 270.445 270.233 274.017C269.558 274.793 268.73 275.798 268.003 276.496C268.015 274.865 268.553 271.782 267.98 270.526C268.715 269.654 269.898 268.657 270.767 267.872Z" fill="#E5AF79"/>
<path d="M270.767 267.872C270.567 269.444 270.067 272.627 270.233 274.016C269.558 274.792 268.73 275.798 268.003 276.496C268.015 274.865 268.553 271.781 267.98 270.526C268.715 269.654 269.898 268.657 270.767 267.872Z" fill="#C98C5E"/>
<path d="M267.98 270.526C268.552 271.781 268.015 274.865 268.003 276.496C263.042 283.71 261.94 285.773 259.025 293.85C259.042 284.32 261.818 277.789 267.98 270.526Z" fill="#E5AF79"/>
<path d="M285.73 260.545C291.253 258.705 297.47 259.362 303.001 260.841C295.423 260.972 291.947 261.446 284.67 264.094C284.794 263.05 285.37 261.582 285.73 260.545Z" fill="#E5AF79"/>
<path d="M281.144 261.891C282.341 261.324 284.413 260.85 285.73 260.545C285.37 261.583 284.794 263.05 284.669 264.094C283.361 264.742 282.024 265.428 280.708 266.044C280.931 264.73 281.545 262.928 281.144 261.891Z" fill="#C98C5E"/>
<path d="M145.481 139.704C148.827 146.469 138.481 153.315 138.481 153.315C145.552 162.649 137.588 169.671 132.723 172.016C144.084 177.621 139.751 187.203 136.164 191.293C130.114 200.289 122.37 196.96 119.254 194.171C107.694 197.722 98.8589 188.629 95.886 183.638C88.7467 188.751 82.6212 184.236 80.4508 181.339C71.225 187.278 64.0498 180.918 61.6158 176.996C43.0678 180.752 36.3058 167.74 35.2438 160.764C26.4148 156.699 30.9658 149.464 34.3448 146.355C23.5408 141.512 24.6478 130.588 26.5518 125.731C19.6698 116.494 29.0968 109.433 34.6708 107.057C39.4868 98.6135 48.9608 102.733 53.0958 105.849C53.9158 91.7896 64.3848 92.1676 69.5162 94.114C77.8139 86.7486 81.2165 92.7119 81.8805 96.6142C97.4892 85.6491 105.026 95.4595 106.844 101.735C135.751 100.457 132.577 122.287 127.377 133.362C139.574 131.8 142.134 132.938 145.481 139.704Z" fill="#FFFFFA" stroke="#FFEAD5" stroke-width="2.25904" stroke-linecap="square" stroke-linejoin="round"/>
<path d="M90.9131 121.099C90.1283 117.431 87.2515 110.908 78.4749 114.703C76.3825 111.847 70.9969 108.009 65.7356 114.087C64.6016 109.943 58.6096 107.515 56.6636 112.686" stroke="#FFEAD5" stroke-width="3.01205" stroke-linecap="round" stroke-linejoin="round"/>
</svg>
