<svg width="545" height="492" viewBox="0 0 545 492" fill="none" xmlns="http://www.w3.org/2000/svg">
<path fill-rule="evenodd" clip-rule="evenodd" d="M310.116 40.2685C305.621 39.8003 293.811 40.087 288.781 40.0859L247.231 40.079L199.032 40.081C191.051 40.083 182.942 39.9884 174.949 40.1962C170.849 40.4009 168.097 41.3119 165.405 44.497C162.208 48.2777 162.129 55.0421 162.498 59.9159C163.17 68.7788 160.177 79.1335 166.216 86.2665C163.862 93.739 160.118 103.17 157.406 110.658L138.119 163.559L70.8928 346.594C59.5693 352.287 47.7691 357.277 36.341 362.791C34.2165 363.814 31.9086 364.927 29.6301 365.575C23.3144 366.921 16.0745 364.419 9.9855 367.145C6.17813 368.817 3.2623 372.025 1.96597 375.975C-0.289398 382.97 0.917206 394.338 0.443512 401.999C-0.0534966 410.038 -0.155731 418.453 0.254059 426.486C0.826691 434.43 6.18942 440.417 14.3508 440.815C21.0966 441.144 27.9762 440.838 34.7424 440.891C35.6114 456.167 41.2904 468.525 52.7853 478.77C63.2747 488.016 77.0111 492.71 90.965 491.817C105.422 491.076 118.96 484.488 128.464 473.565C136.503 464.506 141.15 452.937 141.61 440.835L341.095 440.87C341.833 455.963 347.629 468.482 358.839 478.637C369.296 487.929 383.027 492.669 396.989 491.806C415.873 490.817 432.556 480.349 441.488 463.631C445.595 455.943 446.893 450.177 447.854 441.664C457.349 441.833 467.573 442.515 476.783 441.161C481.482 440.469 488.059 435.101 488.347 430.323C489.039 418.811 489.723 405.821 489.684 394.309C489.656 386.307 490.027 376.044 484.123 370.208C478.474 364.811 469.273 365.822 462.008 365.849L442.897 365.881C436.324 350.25 425.061 340.662 408.424 336.724L400.555 315.05C400.109 313.82 397.728 307.097 397.321 306.403L385.519 273.996C383.521 268.616 381.541 262.797 379.316 257.58L422.136 237.755C436.023 243.916 449.074 246.39 464.231 244.95C488.54 242.641 511.003 229.698 526.426 210.998C538.665 196.158 545.686 175.815 543.812 156.555C543.276 151.053 541.355 138.981 536.737 135.393C529.257 129.579 515.757 131.469 507.047 132.749C474.731 137.498 412.474 161.817 392.879 188.471C389.727 192.759 388.168 196.845 388.972 202.228C383.058 205.183 376.849 207.723 370.886 210.777C368.461 211.921 366.206 212.99 363.711 213.991C360.686 207.002 357.488 197.56 354.812 190.273L339.766 149.249L324.713 108.155C322.139 101.114 319.085 93.3893 316.86 86.3398C321.559 80.9742 320.778 73.6423 320.581 66.7782C320.366 59.2395 322.373 48.3352 316.351 42.9882C314.612 41.446 312.43 40.4937 310.116 40.2685ZM349.877 340.845C339.442 348.116 334.19 353.522 329.945 365.894L292.461 365.881L271.012 365.875L271.027 338.749C286.111 325.49 284.608 317.549 288.608 299.238C297.358 294.998 306.169 290.882 315.038 286.894C319.257 284.959 324.391 282.733 328.424 280.597L349.877 340.845ZM195.873 338.996C194.67 349.09 192.037 359.609 183.312 365.878L169.89 365.894C169.358 364.587 168.756 362.965 168.149 361.722C166.823 359.062 165.35 356.315 163.528 353.952C168.064 351.325 174.929 348.447 179.862 346.235C184.25 344.271 191.531 340.493 195.873 338.996ZM210.164 331.535C211.888 333.654 213.199 335.022 215.129 336.973C215.117 346.413 214.931 356.498 215.181 365.889L206.659 365.886L202.056 365.88C206.633 358.771 208.914 351.723 209.65 343.204C209.809 341.356 209.534 332.172 210.164 331.535ZM260.452 89.4687L290.572 174.22C297.881 194.781 305.216 216.37 312.875 236.732L264.862 259.243C255.52 255.683 245.028 255.16 235.844 259.371C219.928 266.666 211.366 268.59 203.466 285.622C198.104 288.81 186.687 293.632 180.563 296.466C168.6 302.029 154.393 308.156 142.84 314.018C144.985 307.017 148.264 298.715 150.801 291.696L163.655 255.7L201.451 149.582C208.398 130.097 216.461 109.03 222.768 89.4531L260.452 89.4687Z" fill="#71421F"/>
<path d="M372.295 247.332L314.221 88.4863C312.777 88.9421 311.591 89.1717 310.119 89.4789L304.653 89.5027L301.16 89.4954C294.316 89.4963 287.361 89.4318 280.525 89.5042L277.139 89.4925C272.776 89.4841 268.242 89.5379 263.894 89.4376L362.272 365.89L373.181 365.878L375.856 365.901L395.886 365.878L399.345 365.898C402.869 365.858 412.328 366.198 415.516 365.704C413.067 359.025 410.66 352.328 408.295 345.617L407.689 344.277C407.466 342.632 404.475 335.395 403.813 333.433C400.669 324.106 396.2 313.937 393.326 304.578C386.142 286.651 378.968 265.643 372.295 247.332Z" fill="#E5AF79"/>
<path d="M372.295 247.332L314.221 88.4863C312.777 88.9421 311.592 89.1717 310.119 89.4789C313.85 99.3945 317.025 109.602 320.363 119.665C323.878 130.286 327.576 140.845 331.455 151.339C353.021 209.1 373.923 267.108 394.158 325.347C398.832 338.778 404.167 352.11 408.67 365.663C410.58 365.648 413.716 365.532 415.516 365.704C413.067 359.025 410.66 352.328 408.295 345.617L407.689 344.277C407.466 342.632 404.475 335.395 403.813 333.433C400.669 324.106 396.2 313.937 393.326 304.578C386.142 286.651 378.968 265.643 372.295 247.332Z" fill="#F6CB9C"/>
<path d="M280.525 89.5039L277.139 89.4922C278.263 93.7746 280.202 99.2867 281.536 103.778C288.427 127.108 296.412 150.102 305.457 172.684C311.406 187.762 318.509 202.041 323.242 217.729C324.786 222.848 333.521 252.445 336.503 253.895L337.13 253.665C337.704 252.256 335.743 248.666 335.208 247.17C331.729 237.451 328.631 227.401 325.783 217.49C320.684 199.748 312.914 183.236 306.21 166.133C298.748 147.203 292.088 127.966 286.247 108.474C284.585 102.998 281.263 94.7535 280.525 89.5039Z" fill="#C98C5E"/>
<path d="M399.344 365.898C394.208 355.406 389.229 345.48 384.682 334.677C379.869 323.24 377.276 311.475 373.033 300.047C363.189 273.534 350.179 248.441 342.777 220.967C342.329 219.323 341.027 215.086 339.8 214.142C337.877 217.145 350.975 254.744 353.38 260.615C357.669 271.229 362.639 281.602 366.747 292.286C372.136 306.301 375.777 320.993 381.431 334.912C385.066 343.859 389.299 352.505 393.668 361.105C394.229 362.21 395.671 364.858 395.885 365.878L399.344 365.898Z" fill="#C98C5E"/>
<path d="M304.652 89.5024L301.159 89.4951C302.362 93.2849 304.851 98.8935 306.394 102.766C308.996 109.453 311.493 116.181 313.885 122.946C318.545 136.454 322.357 150.395 327.291 163.812C327.512 164.412 327.67 164.353 328.189 164.501L328.626 164.09C329.043 161.271 326.642 154.21 325.823 151.202C320.045 129.977 312.937 109.898 304.652 89.5024Z" fill="#C98C5E"/>
<path d="M375.856 365.901C374.881 362.166 372.846 358.196 371.345 354.566C363.629 335.915 356.595 317.108 350.529 297.858C350.162 296.696 349.281 294.144 348.137 293.705C347.761 293.92 347.577 293.882 347.499 294.356C346.747 298.942 361.345 337.842 363.797 343.803C365.717 348.445 367.684 353.063 369.699 357.661C370.717 359.99 372.447 363.623 373.181 365.878L375.856 365.901Z" fill="#C98C5E"/>
<path d="M422.136 237.755C436.023 243.916 449.075 246.39 464.231 244.95C488.54 242.641 511.004 229.698 526.427 210.998C538.666 196.158 545.686 175.815 543.812 156.555C543.276 151.053 541.355 138.982 536.738 135.393C529.257 129.579 515.758 131.469 507.048 132.749C474.732 137.498 412.474 161.816 392.879 188.47C389.727 192.759 388.168 196.845 388.972 202.228C383.058 205.183 376.85 207.723 370.887 210.777L371.307 211.047C369.982 212.044 368.768 211.868 368.234 213.66C368.526 214.328 368.373 214.163 368.933 214.548C369.928 213.682 378.099 209.856 379.259 210.045C374.906 212.371 368.49 214.749 364.685 217L366.83 223.154C368.14 226.569 371.156 234.058 372.075 237.432C371.555 237.104 366.93 225.375 366.597 224.232L366.29 224.065C363.169 225.503 366.458 228.607 366.764 230.537C367.591 235.753 372.098 242.248 372.295 247.332C378.968 265.643 386.141 286.651 393.326 304.578C395.132 305.679 394.894 310.684 396.746 310.786C397.411 310.306 397.497 310.333 397.88 309.632C397.599 308.493 397.43 307.99 397.007 306.891L397.322 306.403L385.519 273.996C383.522 268.616 381.542 262.798 379.316 257.58L422.136 237.755Z" fill="#664329"/>
<path d="M390.34 205.127C388.213 206.009 380.724 209.693 379.259 210.045C374.906 212.371 368.49 214.749 364.685 217L366.83 223.154C368.14 226.569 371.156 234.058 372.075 237.432C374.314 242.578 376.075 249.005 378.357 254.433C389.441 249.732 400.374 244.199 411.365 239.268C413.638 238.248 416.017 237.125 418.176 235.887C405.778 228.736 399.94 222.331 392.816 210.265L390.34 205.127Z" fill="#C98C5E"/>
<path d="M390.34 205.127C388.213 206.009 380.725 209.693 379.26 210.045C374.907 212.371 368.49 214.749 364.685 217L366.83 223.154C369.112 221.048 387.877 213.1 392.816 210.265L390.34 205.127Z" fill="#E5AF79"/>
<path d="M539.363 147.238C525.674 173.573 471.72 195.643 444.095 203.709C436.61 205.866 429.004 207.577 421.317 208.835C412.737 210.169 403.863 210.483 395.43 208.124C398.446 214.958 405.012 222.64 410.829 227.183C433.381 244.796 465.101 246.308 490.665 234.601C496.622 231.873 504.606 227.883 509.108 223.294C514.853 219.78 522.876 210.798 526.745 205.211C539.769 186.406 543.022 169.317 539.363 147.238Z" fill="#FEFFFF"/>
<path d="M421.317 208.835C412.737 210.169 403.863 210.483 395.43 208.124C398.446 214.958 405.012 222.64 410.829 227.183C433.381 244.796 465.101 246.308 490.665 234.601C496.622 231.873 504.606 227.883 509.108 223.294C507.749 223.531 500.188 227.811 498.274 228.706C484.578 235.109 468.081 237.896 453.333 233.677C440.489 230.002 427.965 220.355 421.317 208.835Z" fill="#AEC8D7"/>
<path d="M523.236 134.666C520.75 134.458 513.393 134.993 510.537 135.427C477.198 140.489 440.079 155.199 412.439 174.56C405.129 180.246 393.854 188.174 391.84 197.654C390.332 204.754 399.559 206.028 404.433 206.618C437.394 207.781 489.745 185.543 516.763 166.512C523.866 161.066 535.036 152.721 537.042 143.653C538.599 136.618 528.224 135.03 523.236 134.666Z" fill="#FEFFFF"/>
<path d="M404.574 188.838C403.962 188.687 403.834 188.686 403.206 188.618C402.195 189.069 401.499 189.574 401.008 190.595C400.268 192.134 400.304 194.136 400.897 195.717C401.442 197.17 402.561 198.51 403.996 199.148C413.964 203.586 445.529 193.091 456.352 189.115C471.978 183.374 519.539 163.236 526.001 148.372C526.707 146.748 527.036 144.797 526.279 143.129C525.574 141.576 524.089 140.488 522.487 139.998C521.044 139.556 519.934 139.556 518.615 140.305C518.541 140.347 518.468 140.392 518.394 140.435C486.143 142.206 441.055 160.38 414.89 179.494C412.203 181.487 409.661 183.669 407.283 186.022C406.691 186.6 405.019 188.461 404.574 188.838Z" fill="#AEC8D7"/>
<path d="M404.574 188.838C403.962 188.687 403.834 188.686 403.206 188.618C402.195 189.069 401.499 189.574 401.008 190.595C400.268 192.134 400.304 194.136 400.897 195.717C401.442 197.17 402.561 198.51 403.996 199.148C413.964 203.586 445.529 193.091 456.352 189.115C471.978 183.374 519.539 163.236 526.001 148.372C526.707 146.748 527.036 144.797 526.279 143.129C525.574 141.576 524.089 140.488 522.487 139.998C521.044 139.556 519.934 139.556 518.615 140.305C518.541 140.347 518.468 140.392 518.394 140.435C519.726 142.857 525.246 143.189 523.771 146.133C519.142 155.37 506.783 161.165 498.304 166.558C474.182 179.651 448.114 190.599 421.107 195.939C416.613 196.827 410.816 197.609 406.339 196.682C400.884 195.552 404.586 191.26 404.574 188.838Z" fill="#664329"/>
<path d="M434.774 365.898C434.44 365.817 434.107 365.738 433.773 365.657C429.849 358.068 423.458 351.058 415.359 347.968C414.303 347.567 413.744 348.087 412.924 348.515C414.842 354.365 417.179 360.071 419.097 365.863L434.774 365.898Z" fill="#B5784C"/>
<path d="M439.509 365.849C435.337 354.435 421.726 342.307 409.698 340.197L410.837 343.216L410.943 343.644C411.662 345.28 412.277 346.849 412.924 348.515C413.744 348.088 414.303 347.567 415.359 347.968C423.458 351.058 429.849 358.068 433.773 365.657C434.107 365.739 434.44 365.817 434.774 365.898L439.509 365.849Z" fill="#C98C5E"/>
<path d="M410.836 343.216C409.52 343.234 408.772 343.42 407.688 344.277L408.295 345.617C409.721 345.036 410.327 344.96 410.943 343.643L410.836 343.216Z" fill="#664329"/>
<path d="M485.973 381.77C484.894 373.042 480.031 368.86 471.259 368.836C464.032 368.816 456.809 368.967 449.574 368.926L373.769 368.988L173.285 368.944L72.4541 368.985C58.1573 368.871 43.8604 368.86 29.5635 368.944C24.5702 369.005 19.1381 368.944 14.1709 369.121C11.7935 369.205 7.9133 371.722 6.53272 373.711C4.6261 376.451 4.19303 378.713 3.88495 381.979C3.55069 386.415 3.67566 391.611 3.728 396.084C3.55069 404.967 2.86768 413.828 3.1467 422.713C3.2804 426.916 3.67569 431.011 6.68677 434.252C9.38108 437.147 12.8921 437.85 16.685 437.801C22.713 437.836 28.7497 437.795 34.7777 437.769C35.4491 423.126 40.7359 409.858 51.6875 399.831C62.3164 389.978 76.4883 384.854 90.9595 385.633C105.544 386.345 118.446 392.896 128.177 403.656C128.627 404.156 129.072 404.664 129.508 405.176C129.918 405.708 131.615 407.998 131.967 408.35C138.312 418.647 141.157 425.623 141.634 437.911C160.197 437.717 178.761 437.658 197.324 437.74L297.507 437.719C311.852 437.714 326.784 437.932 341.077 437.714C341.475 428.387 342.831 423.382 346.602 415.005C346.781 414.753 347.656 412.985 347.848 412.611C356.043 399.424 366.732 390.516 382.161 386.877C396.179 383.654 410.905 386.168 423.061 393.855C435.126 401.624 443.623 413.852 446.694 427.869C447.445 431.375 447.825 434.95 447.826 438.536C453.068 438.615 458.409 438.85 463.646 438.859C476.48 438.882 485.528 439.001 485.672 423.472L485.891 419.548C485.862 417.941 485.959 416.357 486.026 414.75C486.415 405.557 486.832 396.273 486.267 387.077C486.238 385.139 486.234 383.694 485.973 381.77Z" fill="#E5AF79"/>
<path d="M347.847 412.611C345.198 412.236 341.849 412.332 339.16 412.32C319.131 412.233 299.29 411.899 279.298 413.442C275.069 413.771 268.361 412.931 263.888 412.753C258.211 412.579 252.529 412.713 246.867 413.157C244.551 413.32 240.77 413.422 238.88 414.637L238.689 415.198C239.331 415.921 239.552 415.991 240.845 415.959C247.475 415.785 254.145 415.651 260.781 415.683C266.907 415.715 273.296 416.241 279.411 416.285C283.686 416.317 294.643 415.349 297.471 415.375C302.088 415.416 345.681 414.561 346.602 415.006C346.78 414.753 347.656 412.986 347.847 412.611Z" fill="#C98C5E"/>
<path d="M3.88483 381.98C3.55058 386.415 3.67555 391.612 3.72786 396.085C5.8118 396.067 8.06432 396.89 10.1802 397.064C12.4327 397.25 27.8427 397.119 29.1623 396.378C29.5459 396.163 29.4994 395.931 29.607 395.544L29.296 395.001C28.2787 394.818 19.9779 394.858 18.3822 394.896C14.7724 394.986 8.31135 394.053 5.36711 394.184C4.93986 395.082 5.20728 394.847 4.48066 395.358C3.57094 394.178 3.97203 388.383 4.00109 386.525C8.98567 386.726 15.0194 386.177 20.2947 386.27C31.3072 386.461 43.0784 386.999 53.9951 385.645C54.5298 384.97 54.3206 385.357 54.3002 384.241C53.7567 383.758 53.3324 383.517 52.5476 383.541C39.4337 383.918 26.3721 383.218 13.2698 382.904C11.709 382.866 4.80329 384.113 4.15805 383.727L3.88483 381.98Z" fill="#C98C5E"/>
<path d="M131.966 408.35C133.428 408.297 135.056 408.39 136.524 408.492C154.186 409.719 171.907 410.954 189.622 410.503C191.319 410.46 193.525 410.849 194.766 409.626L194.577 409.163C192.214 408.015 180.92 408.504 177.554 408.251C164.772 407.298 151.931 406.658 139.142 405.702C136.018 405.466 132.626 405.057 129.508 405.176C129.917 405.708 131.615 407.998 131.966 408.35Z" fill="#C98C5E"/>
<path d="M486.267 387.077C486.237 385.139 486.233 383.694 485.973 381.77C485.961 382.927 486.13 383.386 485.611 384.284C481.751 384.764 477.221 384.296 473.293 384.497C459.588 385.206 445.997 385.502 432.297 384.47C431.32 384.398 430.017 384.761 429.116 385.162L428.899 385.621C430.371 386.97 433.349 386.984 435.277 387.179C452.432 388.926 469.079 387.476 486.267 387.077Z" fill="#C98C5E"/>
<path d="M485.89 419.548L485.415 420.569C481.035 422.074 469.512 420.728 464.539 421.324C462.681 421.548 457.977 420.65 456.944 422.667C458.5 425.701 481.782 423.873 485.671 423.472L485.89 419.548Z" fill="#C98C5E"/>
<path d="M135.96 388.438C132.769 391.088 141.323 391.693 142.657 391.96C170.477 397.393 198.592 393.899 226.68 393.736C240.477 393.658 255.099 395.094 268.727 394.556L269.611 394.012L269.718 393.469C268.085 392.138 236.899 391.693 232.391 391.379C229.685 391.193 220.756 390.728 217.809 390.804C201.373 391.219 185.123 392.393 168.667 391.774C161.915 391.458 155.181 390.844 148.481 389.937C144.406 389.42 140.012 388.694 135.96 388.438Z" fill="#C98C5E"/>
<path d="M164.142 424.15C162.674 423.958 162.462 423.74 161.459 424.853C161.319 425.792 161.229 425.364 161.755 426.17C166.723 429.082 246.606 428.12 257.511 428.035C258.7 428.03 259.215 428.146 259.851 427.044L259.482 426.571C257.904 426.047 254.143 426.21 252.335 426.161C222.942 425.35 193.5 425.835 164.142 424.15Z" fill="#C98C5E"/>
<path d="M346.801 388.412C332.314 387.412 316.768 389.086 302.177 388.548C300.987 388.505 299.007 388.766 299.021 390.26C299.751 391.065 299.863 390.853 301.174 391.161C304.493 391.394 307.82 391.489 311.146 391.446C319.294 391.341 327.535 390.76 335.689 390.536C338.027 390.472 346.703 390.464 348.049 389.077C347.635 388.388 347.912 388.696 346.801 388.412Z" fill="#C98C5E"/>
<path d="M15.1823 421.58C12.6683 421.437 6.98319 420.568 5.26547 422.394C5.17828 423.423 5.07074 422.96 5.55903 423.835C8.11961 424.704 14.8365 424.356 17.9028 424.315C19.4374 424.315 26.535 424.338 27.7324 423.829L27.9242 423.242L27.5057 422.699C25.1224 421.67 18.1731 421.693 15.1823 421.58Z" fill="#C98C5E"/>
<path d="M172.238 89.5206C171.035 89.1567 170.137 88.9021 168.977 88.3984L114.589 237.225L82.4406 324.673C80.9525 328.736 67.6438 364.637 67.8211 365.744C68.7017 365.93 68.6959 365.916 69.5998 365.858C72.4162 365.939 75.6366 365.881 78.4791 365.89L81.8215 365.884L99.5189 365.892L102.51 365.901L121.024 365.872C124.474 355.429 128.549 344.417 132.26 334.029L149.289 286.305L192.99 163.74L211.752 111.171C212.72 108.41 219.416 90.6687 219.024 89.5962L218.355 89.5575C213.286 89.389 207.453 89.461 202.355 89.5476C198.774 89.4947 195.191 89.4913 191.61 89.5372C185.672 89.3709 178.194 89.3718 172.238 89.5206Z" fill="#E5AF79"/>
<path d="M172.239 89.5206C171.035 89.1567 170.137 88.9021 168.978 88.3984L114.589 237.225L82.4406 324.673C80.9525 328.736 67.6438 364.637 67.8211 365.744C68.7018 365.93 68.696 365.916 69.5999 365.858C70.5038 365.753 70.7973 365.747 71.6751 365.474C73.3376 363.963 73.9218 359.873 74.817 357.586C88.0879 323.763 99.5887 289.304 112.409 255.319C115.414 247.352 118.984 239.659 122.062 231.746C125.099 223.995 128.026 216.201 130.839 208.365C132.391 203.944 133.635 199.496 135.295 195.109L150.048 156.413C151.094 153.681 152.126 150.88 153.227 148.176C159.758 132.15 164.31 115.429 169.832 99.046C170.829 96.0907 172 92.8439 172.753 89.8278L172.239 89.5206Z" fill="#F6CB9C"/>
<path d="M191.61 89.5371C185.673 89.3709 178.194 89.3718 172.239 89.5206L172.753 89.8278C176.328 89.7118 179.906 89.7665 183.487 89.7915C181.903 93.2507 180.903 97.1059 179.694 100.722C178.296 104.906 176.715 108.965 175.064 113.056C169.53 126.776 162.964 140.145 157.936 154.045C152.905 167.946 149.531 182.245 145.305 196.383C143.433 202.643 140.995 208.675 138.934 214.864C138.175 217.143 133.002 231.043 133.258 232.23C134.042 232.822 133.632 232.734 134.49 232.657C136.751 230.241 146.624 202.086 148.357 196.725C152.301 184.531 155.373 170.362 159.93 157.955C168.277 135.235 180.287 113.172 186.452 89.7453C188.172 89.7022 189.893 89.6328 191.61 89.5371Z" fill="#C98C5E"/>
<path d="M102.51 365.901C104.166 361.614 106.093 357.403 107.756 353.127C112.956 339.743 117.58 324.751 124.09 312.009C135.071 290.528 142.814 268.514 148.789 245.195C149.487 242.468 152.943 234.544 151.902 232.112C151.454 232.021 151.434 231.897 151.123 232.132C149.542 233.319 141.965 259.501 140.744 263.373C138.006 272.066 134.792 280.922 131.121 289.261C126.607 299.515 121.451 309.481 117.016 319.77C112.595 330.015 109.197 340.763 105.341 351.235C103.544 356.106 100.958 360.945 99.519 365.892L102.51 365.901Z" fill="#C98C5E"/>
<path d="M81.8214 365.883C85.8323 354.089 91.343 342.46 97.0164 331.337C101.664 322.225 104.565 313.547 107.619 303.833C108.794 300.192 114.824 286.342 114.377 283.602C111.238 284.078 100.682 316.061 98.7515 320.453C93.1653 333.168 86.0474 344.989 81.4784 358.146C80.6152 360.672 79.2056 363.381 78.479 365.889L81.8214 365.883Z" fill="#C98C5E"/>
<path d="M218.355 89.5576C213.286 89.389 207.452 89.4611 202.355 89.5477C203.622 89.7555 205.13 89.6933 206.435 89.6927C201.023 106.201 193.6 122.115 189.307 139.1C188.863 140.861 188.034 142.326 187.886 144.206C190.397 144.02 197.411 122.585 198.66 119.371C202.419 109.71 207.028 99.7412 209.714 89.7625C212.37 89.766 215.777 89.8685 218.355 89.5576Z" fill="#C98C5E"/>
<path d="M185.951 152.112C185.123 152.229 184.152 152.411 183.8 153.284C182.765 155.845 177.516 167.564 178.06 169.676C178.813 169.511 178.993 169.62 179.516 168.958C181.417 166.548 186.003 154.507 185.951 152.112Z" fill="#C98C5E"/>
<path d="M135.562 455.115C136.629 452.171 137.606 448.006 138.01 444.919C139.611 431.779 135.894 418.543 127.686 408.155C119.411 397.506 107.21 390.621 93.8169 389.045C80.5663 387.397 67.6268 391.341 57.149 399.514C53.9141 401.697 48.8772 406.891 47.1363 410.309C40.4689 418.095 37.3008 432.601 38.1233 442.777C39.1871 456.24 45.6336 468.705 56.0067 477.352C71.1901 490.068 92.8723 492.166 110.488 483.461C113.938 481.755 118.071 479.183 120.867 476.48C126.677 471.751 133.708 462.448 135.562 455.115Z" fill="#C98C5E"/>
<path d="M47.1352 410.309C40.4678 418.095 37.2998 432.602 38.1223 442.777C39.1861 456.24 45.6326 468.706 56.0057 477.352C71.1891 490.068 92.8712 492.167 110.487 483.462C113.937 481.756 118.07 479.183 120.866 476.48C119.099 476.405 113.746 479.709 110.947 480.59C106.939 482.026 103.215 483.127 98.9661 483.424C63.9985 485.851 37.5352 455.173 44.2346 420.909C44.7665 418.186 47.4869 412.454 47.1352 410.309Z" fill="#B5784C"/>
<path d="M135.562 455.115C136.629 452.171 137.606 448.006 138.01 444.919C139.611 431.779 135.894 418.543 127.686 408.155C119.411 397.506 107.21 390.621 93.8168 389.045C80.5662 387.397 67.6267 391.341 57.1489 399.514C57.457 399.619 57.768 399.724 58.076 399.831C59.6019 399.296 62.4096 398.081 63.7785 397.526C68.2312 395.721 72.8845 394.457 77.6394 393.76C98.5252 390.679 120.519 402.703 130.037 421.403C135.632 432.398 136.266 441.498 135.161 453.545C135.118 454.025 135.368 454.688 135.562 455.115Z" fill="#E5AF79"/>
<path d="M90.2098 421.955C80.9266 420.842 72.4979 427.454 71.3644 436.734C70.2338 446.015 76.8314 454.458 86.1088 455.606C95.4095 456.757 103.882 450.139 105.015 440.835C106.149 431.532 99.5163 423.071 90.2098 421.955Z" fill="#71421F"/>
<path d="M100.094 445.652C103.39 439.914 102.137 432.642 97.1092 428.341C92.081 424.039 84.7044 423.923 79.5454 428.068C75.2322 431.532 73.4128 437.243 74.9271 442.562C76.4414 447.884 80.9958 451.778 86.4861 452.453C91.9763 453.127 97.3359 450.447 100.094 445.652Z" fill="#C98C5E"/>
<path d="M100.094 445.652C103.39 439.914 102.137 432.642 97.1092 428.341C92.081 424.039 84.7044 423.923 79.5454 428.068C80.4203 428.408 82.667 427.722 83.5971 427.562C92.4734 426.059 100.364 434.043 99.8964 442.792C99.8616 443.446 99.9372 445.044 100.094 445.652Z" fill="#E5AF79"/>
<path d="M427.132 476.465C430.039 474.021 432.648 471.243 434.905 468.188C442.421 458.07 446.064 444.506 444.175 432.011C442.131 418.217 434.546 405.856 423.175 397.785C400.756 381.573 369.672 387.458 353.676 409.727C345.829 420.228 343.225 434.203 345.069 447.04C347.004 459.873 353.98 471.405 364.449 479.073C375.043 486.839 388.268 490.12 401.262 488.205C411.091 486.714 419.567 482.97 427.132 476.465Z" fill="#C98C5E"/>
<path d="M353.675 409.728C345.828 420.229 343.224 434.203 345.068 447.041C347.003 459.873 353.979 471.405 364.448 479.073C375.042 486.839 388.267 490.12 401.262 488.205C411.091 486.714 419.566 482.97 427.131 476.466C425.297 476.559 421.729 478.869 419.812 479.686C406.88 485.194 395.099 484.807 382.051 479.802C358.348 470.714 345.532 445.788 350.775 421.101C351.48 417.784 353.476 412.672 353.675 409.728Z" fill="#B5784C"/>
<path d="M396.261 421.914C386.96 420.882 378.579 427.576 377.527 436.874C376.476 446.172 383.152 454.568 392.449 455.638C401.772 456.71 410.194 450.011 411.249 440.687C412.303 431.36 405.588 422.952 396.261 421.914Z" fill="#71421F"/>
<path d="M406.57 445.282C409.662 439.472 408.224 432.288 403.133 428.114C398.042 423.94 390.714 423.937 385.622 428.111C381.297 431.654 379.535 437.455 381.158 442.806C382.781 448.157 387.47 451.999 393.035 452.543C398.6 453.086 403.943 450.22 406.57 445.282Z" fill="#C98C5E"/>
<path d="M406.57 445.282C409.662 439.472 408.224 432.288 403.133 428.114C398.042 423.94 390.714 423.937 385.622 428.111C386.471 428.503 388.387 428.169 389.299 427.971C395.297 426.687 400.817 428.724 404.016 434.075C406.739 438.098 405.566 443.687 406.57 445.282Z" fill="#E5AF79"/>
<path d="M316.96 49.7139C315.603 45.9559 312.823 43.3508 308.658 43.2654C301.437 43.1168 294.199 43.1942 286.973 43.2008L247.103 43.2221L195.734 43.2104C190.834 43.2093 185.916 43.1631 181.019 43.2006C174.898 43.2476 169.643 42.0368 166.643 48.7879C166.518 49.076 166.393 49.3657 166.274 49.657C166.056 50.2083 165.861 50.6373 165.713 51.2142C165.565 57.6346 165.539 64.0573 165.638 70.4785C165.646 71.9262 165.824 77.5851 165.71 78.7599C165.777 79.0374 165.847 79.3138 165.92 79.5894C166.861 83.0623 168.887 84.6097 171.857 86.2841L266.84 86.2969L294.656 86.314C299.394 86.3216 304.137 86.398 308.872 86.2501C314.096 86.0873 316.711 83.0443 317.385 78.0594L317.372 75.2044C317.278 70.128 317.361 64.8019 317.361 59.7057L317.393 56.5618C317.387 54.6217 317.467 51.472 316.96 49.7139Z" fill="#E5AF79"/>
<path d="M316.961 49.7139C315.604 45.9559 312.824 43.3508 308.659 43.2654C301.439 43.1168 294.2 43.1942 286.975 43.2008L247.104 43.2221L195.735 43.2104C190.835 43.2093 185.917 43.1631 181.02 43.2006C174.899 43.2476 169.644 42.0368 166.644 48.7879C166.519 49.076 166.394 49.3657 166.275 49.657L166.726 49.7805C177.477 46.7147 183.993 48.2947 194.729 48.2601C199.624 48.2444 205.815 47.0978 210.977 47.0641C229.122 46.6642 247.682 48.3267 265.792 47.9584C280.063 47.6684 293.747 46.0413 308.136 48.0087C310.016 48.2659 315.768 50.1612 316.961 49.7139Z" fill="#F6CB9C"/>
<path d="M165.713 51.2139C165.565 57.6343 165.539 64.0569 165.638 70.4782C165.647 71.9259 165.824 77.5848 165.711 78.7595C173.189 79.4667 179.147 77.8001 185.803 78.2689C202.422 79.4394 218.227 80.9225 234.971 79.383C238.436 79.0647 252.067 80.1328 254.224 78.5491L254.108 78.0263C251.736 76.2001 217.294 77.3374 211.545 77.1779C203.567 76.9567 194.217 75.1483 186.152 75.239C179.958 75.3087 172.32 75.9185 165.934 76.0664C165.836 69.5597 165.867 62.9528 165.847 56.4371C176.4 55.103 186.532 55.4812 197.129 55.4948C199.954 55.4986 209.124 56.0921 211.013 54.6982L210.874 54.2439C206.61 52.266 174.628 52.2881 168.608 52.9825C167.876 53.0673 167.454 53.1342 166.449 53.1121C165.673 52.5398 165.92 52.5509 165.713 51.2139Z" fill="#C98C5E"/>
<path d="M317.393 56.5616C303.521 56.9885 290.371 56.7653 276.533 55.9146C271.578 55.61 265.681 56.849 260.615 56.6851C258.066 56.7331 248.486 56.8706 246.757 57.2652L246.469 57.6277C249.765 60.3339 274.694 58.7449 280.547 59.0135C292.409 59.5576 305.512 60.5016 317.361 59.7055L317.393 56.5616Z" fill="#C98C5E"/>
<path d="M317.372 75.2041C314.594 75.2971 287.287 76.9146 286.927 77.0663L286.575 77.6124C286.718 78.0841 286.973 78.7544 287.47 78.7939C293.611 79.2842 312.628 79.1581 317.385 78.0591L317.372 75.2041Z" fill="#C98C5E"/>
<path d="M259.456 67.2308C258.302 67.1151 257.764 66.8718 257.023 67.8222C257.805 71.7477 274.517 70.1956 277.711 70.0936C279.045 70.1021 280.641 70.384 281.533 69.3592C279.775 67.6795 263.223 67.5345 259.456 67.2308Z" fill="#C98C5E"/>
<path d="M226.842 63.1933C225.485 63.096 223.171 62.6428 222.311 63.8046L222.677 64.2992C225.461 65.647 226.243 65.3938 229.4 65.4185C230.984 65.4583 233.751 65.9039 234.117 63.9133C232.934 62.8605 228.667 63.1837 226.842 63.1933Z" fill="#C98C5E"/>
<path d="M267.864 365.875L267.844 323.066C267.856 316.695 268.196 303.549 267.236 297.998C266.487 293.501 264.699 289.24 262.019 285.555C258.305 280.466 252.704 277.083 246.47 276.167C239.369 275.188 233.173 277.216 227.508 281.477C217.112 288.802 218.222 307.763 218.274 318.947L218.391 350.543C218.388 355.141 218.556 361.478 218.28 365.924L263.522 365.892L267.864 365.875Z" fill="#C98C5E"/>
<path d="M267.864 365.875L267.844 323.066C267.856 316.695 268.196 303.549 267.236 297.998C266.487 293.501 264.699 289.24 262.019 285.555C258.305 280.466 252.704 277.083 246.47 276.167C239.369 275.188 233.173 277.216 227.508 281.477C229.15 281.716 232.673 280.704 234.361 280.329C243.09 278.391 251.047 279.716 256.808 287.026C259.22 289.903 261.778 294.054 262.473 297.722C264.132 306.516 263.566 317.363 263.563 326.455L263.522 365.892L267.864 365.875Z" fill="#E5AF79"/>
<path d="M245.909 290.15C238.163 288.607 230.638 293.653 229.124 301.404C227.607 309.156 232.679 316.663 240.436 318.148C248.155 319.63 255.616 314.588 257.125 306.877C258.63 299.163 253.617 291.685 245.909 290.15Z" fill="#71421F"/>
<path d="M253.154 308.978C255.532 304.023 253.925 298.073 249.373 294.989C244.822 291.906 238.698 292.621 234.977 296.666C232.027 299.875 231.228 304.514 232.937 308.525C234.643 312.536 238.541 315.175 242.9 315.274C247.257 315.372 251.268 312.911 253.154 308.978Z" fill="#C98C5E"/>
<path d="M253.154 308.978C255.532 304.023 253.925 298.073 249.373 294.989C244.822 291.906 238.698 292.621 234.977 296.666C236.381 296.754 237.058 296.239 238.238 296.085C241.988 295.603 246.795 295.69 249.675 298.489C253.276 301.727 252.28 307.685 253.154 308.978Z" fill="#E5AF79"/>
<path d="M201.593 290.243C181.751 299.309 161.283 309.292 141.455 318.026C140.941 319.517 140.238 321.398 139.816 322.877C139.174 323.941 135.579 334.422 134.991 336.078L124.293 365.957C131.568 365.942 132.794 364.471 139.258 361.446L157.229 353.066L183.445 341.17C187.479 339.307 192.304 337.212 196.164 335.102C196.451 327.112 196.184 319.131 197.053 311.176C197.602 306.148 198.66 301.329 199.788 296.399C200.363 294.176 200.843 292.406 201.593 290.243Z" fill="#C98C5E"/>
<path d="M201.593 290.243C181.751 299.309 161.283 309.292 141.455 318.026C140.941 319.517 140.238 321.398 139.816 322.877C141.49 322.618 152.671 317.419 155.136 316.297L183.829 303.308C189.049 300.933 194.809 298.759 199.788 296.399C200.363 294.176 200.843 292.406 201.593 290.243Z" fill="#E5AF79"/>
<path d="M313.804 239.906C298.577 246.34 283.524 254.383 268.407 260.856C270.485 262.114 272.546 263.303 274.458 264.806C275.304 265.506 276.13 266.233 276.935 266.98C285.201 274.789 288.299 284.552 288.598 295.62C295.002 292.792 301.422 289.79 307.777 286.837C314.154 283.875 321.207 280.835 327.366 277.519C323.945 267.137 319.756 256.269 316.056 245.9L313.804 239.906Z" fill="#C98C5E"/>
<path d="M313.804 239.906C298.577 246.34 283.524 254.383 268.407 260.856C270.485 262.114 272.546 263.303 274.458 264.806C275.58 263.995 279.708 262.268 281.236 261.612C292.806 256.624 304.298 250.355 316.056 245.9L313.804 239.906Z" fill="#E5AF79"/>
<path d="M272.046 276.679C271.787 277.365 271.532 278.042 271.293 278.734C270.86 282.437 270.369 285.584 267.669 288.508C267.872 289.008 268.753 291.078 268.855 291.467C270.113 294.882 270.575 297.175 270.883 300.858L270.997 304.235C270.973 307.04 270.979 309.845 271.014 312.652L271.005 315.835C273.828 315.669 275.327 315.599 278.086 314.754C280.39 314.044 281.483 312.088 282.852 312.112C283.303 309.99 283.32 308.851 283.401 306.665C283.317 301.663 283.117 297.411 281.376 292.694C280.966 291.211 280.55 290.336 279.931 288.953C278.251 285.177 276.583 282.28 274.069 279.03C273.801 278.597 272.459 277.144 272.046 276.679Z" fill="#E5AF79"/>
<path d="M272.047 276.679C271.788 277.365 271.532 278.042 271.294 278.734C270.861 282.437 270.37 285.584 267.669 288.508C267.873 289.008 268.754 291.078 268.855 291.467C270.114 294.882 270.576 297.175 270.884 300.858C275.735 299.608 278.077 295.152 279.287 290.711L279.932 288.953C278.252 285.177 276.584 282.28 274.069 279.03C273.802 278.597 272.459 277.144 272.047 276.679Z" fill="#E5AF79"/>
<path d="M272.047 276.679C271.788 277.365 271.532 278.042 271.294 278.734C270.861 282.437 270.37 285.584 267.669 288.508C267.873 289.008 268.754 291.078 268.855 291.467C272.079 288.407 272.918 286.607 273.697 282.344C273.697 281.1 273.578 280.158 274.069 279.03C273.802 278.597 272.459 277.144 272.047 276.679Z" fill="#C98C5E"/>
<path d="M274.069 279.03C273.578 280.158 273.697 281.099 273.697 282.343C275.046 284.311 277.976 289.156 279.287 290.711L279.932 288.953C278.252 285.177 276.584 282.279 274.069 279.03Z" fill="#F6CB9C"/>
<path d="M279.931 288.953L279.286 290.711C278.077 295.152 275.734 299.608 270.883 300.857L270.997 304.235C277.923 301.869 278.556 298.55 281.262 292.923L281.376 292.693C280.966 291.211 280.55 290.336 279.931 288.953Z" fill="#C98C5E"/>
<path d="M283.401 306.665C280.492 311.333 276.411 312.803 271.014 312.652L271.005 315.835C273.828 315.669 275.327 315.599 278.086 314.753C280.39 314.044 281.483 312.088 282.852 312.111C283.303 309.99 283.32 308.85 283.401 306.665Z" fill="#C98C5E"/>
<path d="M350.896 343.987C341.952 349.861 337.128 355.833 333.255 365.904L339.623 365.875L358.592 365.933C356.993 360.46 354.59 354.148 352.576 348.75L350.896 343.987Z" fill="#B5784C"/>
<path d="M350.895 343.987C341.952 349.861 337.128 355.833 333.254 365.904L339.622 365.875C342.782 357.606 346.07 354.685 352.575 348.75L350.895 343.987Z" fill="#C98C5E"/>
<path d="M234.155 264.815L230.757 265.44C227.732 266.332 223.93 267.66 221.369 269.555C220.582 269.997 218.588 271.017 218.158 271.741C214.685 274.47 212.107 276.824 209.802 280.652L210.36 281.102C211.755 286.578 212.705 289.319 216.449 293.696C217.428 290.229 218.826 287.636 220.605 284.541L222.576 281.82C224.933 279.327 226.807 278.013 229.641 276.089L232.385 274.854C231.821 273.464 232.385 269.881 232.495 268.102L232.588 267.887C233.027 266.666 233.513 265.919 234.155 264.815Z" fill="#E5AF79"/>
<path d="M234.155 264.815L230.757 265.44C227.732 266.332 223.93 267.66 221.369 269.555C221.05 270.491 220.614 271.645 220.361 272.581C219.812 275.008 220.268 280.437 222.576 281.82C224.933 279.327 226.807 278.013 229.641 276.089L232.385 274.854C231.821 273.464 232.385 269.881 232.495 268.102L232.588 267.887C233.027 266.666 233.513 265.919 234.155 264.815Z" fill="#E5AF79"/>
<path d="M234.155 264.815L230.757 265.44C227.732 266.332 223.93 267.66 221.369 269.555C221.05 270.491 220.614 271.645 220.361 272.581C221.884 272.325 226.493 269.308 229.659 268.695L229.903 268.622L232.495 268.102L232.588 267.887C233.027 266.666 233.513 265.919 234.155 264.815Z" fill="#F6CB9C"/>
<path d="M234.155 264.815L230.757 265.44C231.019 266.686 230.504 267.326 229.903 268.622L232.495 268.102L232.588 267.887C233.027 266.666 233.513 265.919 234.155 264.815Z" fill="#B5784C"/>
<path d="M232.495 268.102L229.903 268.622L229.659 268.694C228.726 271.883 229.409 272.862 229.641 276.089L232.385 274.853C231.821 273.464 232.385 269.88 232.495 268.102Z" fill="#C98C5E"/>
<path d="M221.37 269.555C220.582 269.997 218.588 271.017 218.158 271.741C217.946 273.098 217.783 273.502 217.315 274.819C217.452 278.745 218.42 281.297 220.605 284.541L222.576 281.82C220.268 280.437 219.812 275.007 220.361 272.581C220.614 271.645 221.05 270.491 221.37 269.555Z" fill="#C98C5E"/>
<path d="M218.157 271.741C214.684 274.47 212.106 276.824 209.801 280.652L210.359 281.102C212.64 278.754 215.012 277.132 217.314 274.819C217.782 273.502 217.945 273.098 218.157 271.741Z" fill="#F6CB9C"/>
<path d="M215.115 306.816C209.465 305.566 206.61 302.509 203.745 297.809C203.065 302.323 203.283 306.926 204.384 311.356C204.733 312.963 205.061 314.556 205.486 316.146C206.503 319.325 208.226 323.386 210.305 326.019L212.197 328.734C213.042 329.667 213.688 330.434 214.667 331.242L214.987 331.457C215.533 330.626 215.173 326.85 215.118 325.661L215.129 318.343L215.086 315.314L215.115 306.816Z" fill="#E5AF79"/>
<path d="M215.129 318.343C211.302 317.747 209.584 317.18 205.901 315.811L205.486 316.145C206.503 319.325 208.226 323.385 210.305 326.019L212.197 328.733C213.042 329.666 213.688 330.433 214.667 331.241L214.987 331.456C215.533 330.625 215.173 326.85 215.118 325.661L215.129 318.343Z" fill="#E5AF79"/>
<path d="M215.118 325.662L210.305 326.019L212.197 328.734C213.042 329.667 213.688 330.434 214.667 331.242L214.987 331.457C215.533 330.626 215.173 326.85 215.118 325.662Z" fill="#C98C5E"/>
<path d="M214.667 331.242C215.225 330.088 215.315 329.318 214.307 328.536C213.278 328.492 213.217 328.44 212.197 328.733C213.042 329.666 213.688 330.434 214.667 331.242Z" fill="#E5AF79"/>
<path d="M215.086 315.314C209.965 314.962 208.631 314.213 204.384 311.355C204.733 312.963 205.062 314.555 205.486 316.145L205.902 315.811C209.584 317.18 211.302 317.747 215.13 318.343L215.086 315.314Z" fill="#C98C5E"/>
<path d="M206.192 345.559C204.515 345.015 200.486 339.441 199.018 337.813C198.946 338.816 198.76 340.618 198.789 341.559C198.312 344.193 197.783 347.678 197.045 350.183L195.714 354.272C193.551 359.085 191.799 361.759 188.488 365.889L198.045 365.828C198.62 365.096 199.483 364.084 199.922 363.303C200.565 362.387 201.227 361.172 201.803 360.184C203.759 356.356 204.468 354.252 205.421 350.107C205.7 348.843 205.971 346.881 206.192 345.559Z" fill="#E5AF79"/>
<path d="M199.922 363.303C197.655 359.693 197.429 357.688 195.714 354.273C193.552 359.086 191.799 361.76 188.488 365.89L198.045 365.829C198.62 365.096 199.484 364.085 199.922 363.303Z" fill="#E5AF79"/>
<path d="M206.192 345.559C204.515 345.015 200.486 339.441 199.018 337.813C198.946 338.816 198.76 340.618 198.789 341.559C199.231 341.853 203.785 348.526 205.421 350.107C205.7 348.843 205.971 346.881 206.192 345.559Z" fill="#C98C5E"/>
<path d="M197.045 350.183L195.714 354.272C197.429 357.688 197.656 359.693 199.923 363.303C200.565 362.387 201.228 361.172 201.803 360.184C199.321 356.726 198.56 354.118 197.045 350.183Z" fill="#C98C5E"/>
<path d="M69.347 350.938C58.7413 356.013 47.9671 360.736 37.3208 365.805C40.8463 365.878 44.3718 365.91 47.8974 365.904L63.9875 365.86C65.0687 363.486 66.2516 359.818 67.1526 357.277C67.8909 355.188 68.6814 353.043 69.347 350.938Z" fill="#E5AF79"/>
<path d="M67.1523 357.278C64.6004 358.199 49.5711 364.553 47.897 365.904L63.9871 365.861C65.0683 363.486 66.2513 359.818 67.1523 357.278Z" fill="#C98C5E"/>
<path d="M209.801 280.652C209.516 281.061 209.33 281.285 209.112 281.736C206.63 286.13 205.567 288.734 204.34 293.597L203.744 297.808C206.61 302.508 209.464 305.566 215.114 306.816C215.106 305.429 215.204 304.217 215.303 302.84C215.225 301.072 215.547 298.997 215.762 297.218C215.934 296.018 216.196 294.879 216.448 293.696C212.705 289.319 211.754 286.578 210.359 281.102L209.801 280.652Z" fill="#E5AF79"/>
<path d="M204.34 293.597L203.744 297.809C206.61 302.509 209.464 305.566 215.114 306.816C215.106 305.43 215.205 304.218 215.303 302.84L214.818 303.299C209.598 303.235 206.854 297.239 204.34 293.597Z" fill="#C98C5E"/>
<path d="M209.801 280.652C209.516 281.061 209.33 281.285 209.112 281.736C209.583 283.326 209.049 286.165 209.819 288.557C210.816 291.658 215.077 295.14 215.762 297.218C215.934 296.018 216.196 294.879 216.448 293.696C212.705 289.319 211.754 286.578 210.359 281.102L209.801 280.652Z" fill="#C98C5E"/>
<path d="M206.834 328.608C206.872 327.411 206.875 326.995 206.302 325.949C203.059 320.005 201.422 314.573 200.431 307.865C200.068 312.065 199.792 316.273 199.597 320.485C199.379 322.455 199.211 326.446 199.333 328.483C199.28 331.593 199.176 334.703 199.019 337.813C200.487 339.441 204.515 345.015 206.192 345.559C206.672 343.024 206.89 340.452 206.84 337.874C206.872 334.785 206.872 331.698 206.834 328.608Z" fill="#E5AF79"/>
<path d="M206.834 328.608C206.872 327.411 206.875 326.995 206.302 325.949C203.059 320.005 201.422 314.573 200.431 307.865C200.068 312.065 199.792 316.273 199.597 320.485L199.722 320.691C202.678 325.65 202.259 326.333 206.421 331.201C206.587 330.3 206.721 329.515 206.834 328.608Z" fill="#E5AF79"/>
<path d="M206.422 331.201C202.26 326.333 202.678 325.65 199.722 320.691L199.597 320.485C199.379 322.455 199.211 326.446 199.333 328.483L199.754 325.903C201.643 329.98 206.395 335.128 206.84 337.874C206.872 334.785 206.872 331.698 206.834 328.608C206.721 329.515 206.587 330.3 206.422 331.201Z" fill="#C98C5E"/>
<path d="M160.61 355.022C158.739 356.173 155.742 357.432 153.676 358.373C148.148 360.783 142.73 363.492 137.269 365.852C144.355 365.913 152.301 366.075 159.346 365.849C161.709 365.927 164.162 365.866 166.531 365.843C165.235 362.251 162.694 358.199 160.61 355.022Z" fill="#C98C5E"/>
<path d="M153.675 358.374C148.147 360.783 142.729 363.492 137.268 365.852C144.354 365.913 152.3 366.076 159.345 365.849L157.561 365.68C156.32 365.029 155.207 360.911 153.942 358.815L153.675 358.374Z" fill="#B5784C"/>
<path d="M260.575 268.311C259.415 267.692 258.54 267.291 257.328 266.776C257.482 267.616 257.587 268.427 257.886 269.226C258.773 272.139 259.337 274.656 258.566 277.742L261.2 279.922C263.961 282.692 265.83 285.005 267.669 288.508C270.369 285.584 270.861 282.436 271.294 278.733C271.532 278.042 271.788 277.364 272.047 276.678C268.132 273.031 265.53 270.636 260.575 268.311Z" fill="#E5AF79"/>
<path d="M260.575 268.311C259.415 267.692 258.54 267.291 257.328 266.776C257.482 267.616 257.587 268.427 257.886 269.226C258.773 272.139 259.337 274.656 258.566 277.742L261.2 279.922C262.013 277.367 262.089 274.449 261.484 271.839C260.979 270.505 260.572 269.741 260.575 268.311Z" fill="#C98C5E"/>
<path d="M260.575 268.311C260.572 269.741 260.979 270.505 261.484 271.839C264.458 272.833 269.073 276.522 271.294 278.734C271.532 278.042 271.788 277.365 272.047 276.679C268.132 273.031 265.53 270.636 260.575 268.311Z" fill="#F6CB9C"/>
<path d="M282.853 312.112C281.484 312.088 280.391 314.044 278.086 314.754C275.328 315.599 273.828 315.669 271.006 315.835C270.971 318.654 270.91 321.479 271.012 324.295C270.913 326.99 270.616 331.16 271.047 333.715L271.137 333.936L271.465 334.055C273.221 332.681 274.999 330.265 276.313 328.472C277.418 327.161 277.973 326.068 278.816 324.592C280.987 320.959 282.239 316.268 282.853 312.112Z" fill="#E5AF79"/>
<path d="M271.012 324.295C270.913 326.99 270.616 331.16 271.047 333.715L271.137 333.936L271.465 334.055C273.221 332.681 274.999 330.265 276.313 328.472C277.418 327.161 277.973 326.068 278.816 324.592L277.813 324.938C274.537 326.077 273.982 325.946 271.012 324.295Z" fill="#C98C5E"/>
<path d="M276.313 328.472C274.755 328.289 272.624 328.097 271.13 327.826C271.116 329.678 271.154 331.898 271.046 333.715L271.136 333.936L271.465 334.055C273.22 332.68 274.999 330.265 276.313 328.472Z" fill="#E5AF79"/>
<path d="M246.098 264.129C244.624 264.123 242.674 263.949 241.165 263.853C238.753 263.966 236.451 264.001 234.155 264.815C233.513 265.919 233.027 266.666 232.588 267.887L232.495 268.102C232.385 269.881 231.821 273.464 232.385 274.854C237.442 272.851 240.468 272.715 245.842 272.996C245.845 270.793 245.487 269.189 244.764 267.125C245.659 266.954 246.717 267.038 247.658 267.061L246.098 264.129Z" fill="#E5AF79"/>
<path d="M246.098 264.129C244.624 264.123 242.674 263.949 241.165 263.853C238.753 263.966 236.451 264.001 234.155 264.815C233.513 265.919 233.027 266.666 232.588 267.887C235.349 268.082 238.509 266.14 244.467 266.864L244.764 267.125C245.659 266.954 246.717 267.038 247.658 267.061L246.098 264.129Z" fill="#F6CB9C"/>
<path d="M246.098 264.129C244.624 264.123 242.674 263.949 241.165 263.853C243.043 264.428 243.566 265.085 244.467 266.864L244.764 267.125C245.659 266.954 246.717 267.038 247.658 267.061L246.098 264.129Z" fill="#B5784C"/>
<path d="M257.328 266.776C253.14 265.102 250.539 264.686 246.098 264.128L247.658 267.061C246.717 267.038 245.659 266.954 244.764 267.125C245.487 269.189 245.845 270.793 245.842 272.996C246.792 273.121 247.786 273.269 248.74 273.33C252.64 274.525 255.099 275.539 258.566 277.742C259.337 274.656 258.773 272.139 257.886 269.226C257.587 268.427 257.482 267.616 257.328 266.776Z" fill="#E5AF79"/>
<path d="M257.328 266.776C253.14 265.102 250.538 264.686 246.097 264.128L247.658 267.061L247.87 267.296C249.661 267.372 256.299 268.503 257.886 269.226C257.586 268.427 257.482 267.616 257.328 266.776Z" fill="#F6CB9C"/>
<path d="M247.658 267.061C246.717 267.038 245.659 266.953 244.764 267.125C245.487 269.189 245.845 270.793 245.842 272.996C246.792 273.121 247.786 273.269 248.74 273.33C248.777 271.287 248.484 269.25 247.871 267.296L247.658 267.061Z" fill="#C98C5E"/>
<path d="M273.346 267.872C269.652 264.853 267.358 263.585 262.97 261.891C262.569 262.928 263.182 264.73 263.406 266.044C267.727 268.602 270.291 270.445 273.88 274.017C274.555 274.793 275.383 275.798 276.11 276.496C276.098 274.865 275.56 271.782 276.133 270.526C275.398 269.654 274.215 268.657 273.346 267.872Z" fill="#E5AF79"/>
<path d="M273.346 267.872C273.546 269.444 274.046 272.627 273.88 274.016C274.555 274.792 275.383 275.798 276.11 276.496C276.098 274.865 275.56 271.781 276.133 270.526C275.398 269.654 274.215 268.657 273.346 267.872Z" fill="#C98C5E"/>
<path d="M276.133 270.526C275.561 271.781 276.098 274.865 276.11 276.496C281.071 283.71 282.173 285.773 285.088 293.85C285.071 284.32 282.295 277.789 276.133 270.526Z" fill="#E5AF79"/>
<path d="M258.383 260.545C252.86 258.705 246.643 259.362 241.112 260.841C248.69 260.972 252.166 261.446 259.443 264.094C259.319 263.05 258.743 261.582 258.383 260.545Z" fill="#E5AF79"/>
<path d="M262.969 261.891C261.772 261.324 259.7 260.85 258.383 260.545C258.743 261.583 259.319 263.05 259.444 264.094C260.752 264.742 262.089 265.428 263.405 266.044C263.182 264.73 262.568 262.928 262.969 261.891Z" fill="#C98C5E"/>
<path d="M398.632 139.704C395.286 146.469 405.631 153.315 405.631 153.315C398.561 162.649 406.524 169.671 411.39 172.016C400.028 177.621 404.362 187.203 407.949 191.293C413.999 200.289 421.743 196.96 424.859 194.171C436.418 197.722 445.254 188.629 448.227 183.638C455.366 188.751 461.492 184.236 463.662 181.339C472.888 187.278 480.063 180.918 482.497 176.996C501.045 180.752 507.807 167.74 508.869 160.764C517.698 156.699 513.147 149.464 509.768 146.355C520.572 141.512 519.465 130.588 517.561 125.731C524.443 116.494 515.016 109.433 509.442 107.057C504.626 98.6135 495.152 102.733 491.017 105.849C490.197 91.7896 479.728 92.1676 474.597 94.114C466.299 86.7486 462.896 92.7119 462.232 96.6142C446.624 85.6491 439.086 95.4595 437.269 101.735C408.362 100.457 411.536 122.287 416.736 133.362C404.538 131.8 401.979 132.938 398.632 139.704Z" fill="#FFFFFA" stroke="#FFEAD5" stroke-width="2.25904" stroke-linecap="square" stroke-linejoin="round"/>
<path d="M453.2 121.099C453.985 117.431 456.861 110.908 465.638 114.703C467.73 111.847 473.116 108.009 478.377 114.087C479.511 109.943 485.503 107.515 487.449 112.686" stroke="#FFEAD5" stroke-width="3.01205" stroke-linecap="round" stroke-linejoin="round"/>
</svg>
