<svg width="286" height="280" viewBox="0 0 286 280" fill="none" xmlns="http://www.w3.org/2000/svg">
<path d="M181.214 219.717C181.674 227.909 182.006 236.545 181.481 244.357C180.918 252.715 179.389 259.867 176.215 264.512C173.373 268.672 169.324 271.214 164.383 272.008C161.808 272.421 158.214 272.476 154.723 272C151.191 271.519 148.008 270.527 146.077 269.032C143.284 266.868 142.092 263.591 141.496 259.706C141.2 257.769 141.061 255.754 140.922 253.717C140.785 251.707 140.646 249.659 140.338 247.774L140.338 247.77L140.242 247.25C140.004 246.07 139.651 245.117 139.057 244.27C138.397 243.33 137.518 242.638 136.522 241.919L136.209 241.693L135.828 241.647L135.164 241.578C131.908 241.31 129.548 242.163 128.028 244.117C126.538 246.033 126.117 248.723 125.931 251.301C125.835 252.624 125.797 254.025 125.75 255.388C125.703 256.769 125.645 258.129 125.511 259.442C125.24 262.097 124.675 264.369 123.445 266.056L123.424 266.085L123.405 266.115C122.348 267.721 120.497 269.057 118.055 270.04C115.627 271.017 112.725 271.599 109.738 271.768C106.754 271.936 103.74 271.691 101.101 271.055C98.4475 270.416 96.2835 269.41 94.8794 268.144C90.1948 263.711 87.6516 257.462 86.3403 250.285C85.1032 243.514 84.9895 236.059 85.1224 228.784L181.214 219.717Z" fill="#A2DDF7" stroke="black" stroke-width="3"/>
<path d="M223.043 12.7179C236.948 11.6766 251.733 18.6813 260.04 33.9801L260.43 34.7158C265.717 44.8815 266.643 55.4115 263.124 66.3194L263.122 66.3255L263.12 66.3326C259.867 76.683 252.581 85.2867 242.908 90.2012C241.115 91.0972 239.033 92.0063 237.04 92.8305C235.186 88.369 233.689 85.0805 231.216 80.4944C225.215 67.2053 214.922 56.6031 204.134 47.5951L204.058 47.5322L203.976 47.4768L202.14 46.2485C198.376 43.7424 195.187 41.7097 191.133 39.4598C196.34 22.597 209.337 13.7444 223.043 12.7179Z" fill="#ACE0EC" stroke="black" stroke-width="3.79"/>
<path d="M207.478 45.0916C213.771 33.8757 224.879 27.8672 236.855 35.0217C241.879 38.0264 245.467 42.936 246.809 48.6301C249.308 59.5093 242.469 70.9423 234.078 77.3822C228.255 64.4465 218.2 54.0449 207.478 45.0916Z" fill="#FFFFFC"/>
<path d="M207.478 45.0916C213.771 33.8757 224.879 27.8672 236.855 35.0217C241.879 38.0264 245.467 42.936 246.809 48.6301C249.308 59.5093 242.469 70.9423 234.078 77.3822C228.255 64.4465 218.2 54.0449 207.478 45.0916Z" stroke="black"/>
<path d="M42.1107 24.8697C56.2617 22.9765 71.4811 29.1634 81.0219 45.0149C75.1622 48.8098 71.2155 52.4229 66.0918 57.2467L66.0444 57.2918L66.0002 57.3395C60.5933 63.1797 56.7719 67.5149 53.4744 72.2789C50.1675 77.0565 47.4238 82.2117 44.1005 89.6818L44.0885 89.7085L44.0776 89.7362C42.2321 94.2556 40.2262 100.5 38.5641 105.422C38.2281 105.337 37.8905 105.252 37.5523 105.165C15.455 99.4311 2.47435 78.3559 8.22599 56.5728L8.51374 55.5344C13.7758 37.4503 27.4807 26.827 42.1107 24.8697Z" fill="#ACE0EC" stroke="black" stroke-width="3.79"/>
<path d="M33.0965 48.5363C43.3775 41.6919 56.3755 44.8412 62.8931 55.1545C52.0885 66.8251 47.9276 72.1578 41.3334 86.9801C30.8298 82.7947 22.5193 72.5944 24.8193 60.8103C25.8161 55.7752 28.7998 51.3524 33.0965 48.5363Z" fill="#FFFFFC"/>
<path d="M33.0965 48.5363C43.3775 41.6919 56.3755 44.8412 62.8931 55.1545C52.0885 66.8251 47.9276 72.1578 41.3334 86.9801C30.8298 82.7947 22.5193 72.5944 24.8193 60.8103C25.8161 55.7752 28.7998 51.3524 33.0965 48.5363Z" stroke="black"/>
<mask id="path-6-inside-1_1120_255" fill="white">
<path fill-rule="evenodd" clip-rule="evenodd" d="M66.1155 171.493C80.0629 180.139 94.3025 181.749 110 184.319C126.846 186.316 167.309 182.615 184.054 178.526C184.13 178.505 184.203 178.482 184.272 178.462C184.273 178.455 184.274 178.448 184.274 178.441C187.612 177.237 190.782 175.665 193.982 174.15L194.896 174.684C198.707 181.614 201.262 188.175 202.61 196.009C203.815 202.983 204.367 211.374 199.907 217.353C196.84 221.467 193.319 222.145 188.547 222.818C187.074 222.839 185.406 222.82 183.869 222.486C183.416 226.553 183.055 229.811 182.903 231.593C174.674 232.255 166.13 233.553 157.76 234.295C157.716 234.299 135.388 236.514 115.369 238.25L115.381 238.375L83.9908 241.427L83.3131 234.457C76.7835 239.162 67.9594 241.366 61.6974 236.712C41.9611 222.041 56.0362 187.727 66.1155 171.493Z"/>
</mask>
<path fill-rule="evenodd" clip-rule="evenodd" d="M66.1155 171.493C80.0629 180.139 94.3025 181.749 110 184.319C126.846 186.316 167.309 182.615 184.054 178.526C184.13 178.505 184.203 178.482 184.272 178.462C184.273 178.455 184.274 178.448 184.274 178.441C187.612 177.237 190.782 175.665 193.982 174.15L194.896 174.684C198.707 181.614 201.262 188.175 202.61 196.009C203.815 202.983 204.367 211.374 199.907 217.353C196.84 221.467 193.319 222.145 188.547 222.818C187.074 222.839 185.406 222.82 183.869 222.486C183.416 226.553 183.055 229.811 182.903 231.593C174.674 232.255 166.13 233.553 157.76 234.295C157.716 234.299 135.388 236.514 115.369 238.25L115.381 238.375L83.9908 241.427L83.3131 234.457C76.7835 239.162 67.9594 241.366 61.6974 236.712C41.9611 222.041 56.0362 187.727 66.1155 171.493Z" fill="#A2DDF7"/>
<path fill-rule="evenodd" clip-rule="evenodd" d="M66.1155 171.493L67.698 168.94L65.1469 167.359L63.5637 169.909L66.1155 171.493ZM110 184.319L109.515 187.283L109.581 187.294L109.647 187.302L110 184.319ZM184.054 178.526L184.766 181.443L184.805 181.434L184.843 181.424L184.054 178.526ZM184.272 178.462L185.09 181.352L187.164 180.765L187.272 178.613L184.272 178.462ZM184.274 178.441L183.254 175.616L181.374 176.295L181.274 178.291L184.274 178.441ZM193.982 174.15L195.497 171.556L194.128 170.757L192.696 171.435L193.982 174.15ZM194.896 174.684L197.528 173.236L197.128 172.509L196.411 172.09L194.896 174.684ZM202.61 196.009L199.65 196.519L199.65 196.521L202.61 196.009ZM199.907 217.353L197.5 215.557L197.499 215.558L199.907 217.353ZM188.547 222.818L188.589 225.822L188.779 225.819L188.967 225.792L188.547 222.818ZM183.869 222.486L184.505 219.551L181.252 218.845L180.884 222.154L183.869 222.486ZM182.903 231.593L183.144 234.587L185.679 234.383L185.895 231.849L182.903 231.593ZM157.76 234.295L157.495 231.303L157.479 231.304L157.464 231.306L157.76 234.295ZM115.369 238.25L115.109 235.257L112.085 235.52L112.379 238.541L115.369 238.25ZM115.381 238.375L115.671 241.365L118.661 241.074L118.37 238.085L115.381 238.375ZM83.9908 241.427L81.0012 241.718L81.2919 244.708L84.2814 244.417L83.9908 241.427ZM83.3131 234.457L86.3026 234.167L85.7969 228.965L81.5572 232.02L83.3131 234.457ZM61.6974 236.712L59.9055 239.123L59.9058 239.123L61.6974 236.712ZM66.1155 171.493L64.533 174.046C79.0987 183.075 94.0252 184.747 109.515 187.283L110 184.319L110.486 181.355C94.5798 178.751 81.027 177.202 67.698 168.94L66.1155 171.493ZM110 184.319L109.647 187.302C118.392 188.339 132.979 187.887 147.313 186.698C161.678 185.507 176.165 183.544 184.766 181.443L184.054 178.526L183.341 175.608C175.198 177.596 161.081 179.529 146.817 180.712C132.522 181.897 118.454 182.297 110.354 181.336L110 184.319ZM184.054 178.526L184.843 181.424C184.916 181.404 184.981 181.385 185.02 181.373C185.069 181.358 185.079 181.355 185.09 181.352L184.272 178.462L183.454 175.572C183.396 175.589 183.335 175.607 183.311 175.614C183.278 175.624 183.268 175.627 183.264 175.628L184.054 178.526ZM184.272 178.462L187.272 178.613C187.271 178.642 187.269 178.669 187.267 178.691C187.265 178.713 187.264 178.732 187.262 178.746C187.261 178.76 187.26 178.772 187.259 178.778C187.259 178.781 187.258 178.784 187.258 178.785C187.258 178.787 187.258 178.788 187.258 178.787C187.258 178.787 187.258 178.785 187.259 178.783C187.259 178.781 187.259 178.777 187.26 178.773C187.261 178.765 187.262 178.752 187.263 178.736C187.265 178.72 187.267 178.699 187.269 178.675C187.271 178.652 187.272 178.623 187.274 178.592L184.274 178.441L181.274 178.291C181.276 178.261 181.278 178.235 181.279 178.213C181.281 178.19 181.283 178.172 181.284 178.157C181.285 178.143 181.287 178.132 181.287 178.125C181.288 178.122 181.288 178.119 181.288 178.118C181.288 178.117 181.288 178.116 181.288 178.116C181.288 178.117 181.288 178.119 181.288 178.121C181.288 178.123 181.287 178.126 181.287 178.131C181.286 178.139 181.285 178.152 181.283 178.168C181.281 178.184 181.28 178.204 181.278 178.228C181.276 178.252 181.274 178.28 181.272 178.312L184.272 178.462ZM184.274 178.441L185.294 181.267C188.803 180 192.141 178.344 195.267 176.865L193.982 174.15L192.696 171.435C189.423 172.985 186.42 174.473 183.254 175.616L184.274 178.441ZM193.982 174.15L192.467 176.743L193.381 177.277L194.896 174.684L196.411 172.09L195.497 171.556L193.982 174.15ZM194.896 174.684L192.264 176.131C195.948 182.829 198.369 189.075 199.65 196.519L202.61 196.009L205.57 195.5C204.155 187.275 201.467 180.398 197.528 173.236L194.896 174.684ZM202.61 196.009L199.65 196.521C200.858 203.51 201.125 210.697 197.5 215.557L199.907 217.353L202.315 219.149C207.61 212.05 206.772 202.456 205.57 195.498L202.61 196.009ZM199.907 217.353L197.499 215.558C196.285 217.186 195.072 218.041 193.721 218.599C192.257 219.203 190.542 219.503 188.127 219.844L188.547 222.818L188.967 225.792C191.324 225.46 193.755 225.084 196.013 224.152C198.382 223.174 200.462 221.634 202.315 219.149L199.907 217.353ZM188.547 222.818L188.505 219.815C187.046 219.835 185.678 219.805 184.505 219.551L183.869 222.486L183.232 225.422C185.133 225.834 187.102 225.842 188.589 225.822L188.547 222.818ZM183.869 222.486L180.884 222.154C180.433 226.199 180.067 229.507 179.91 231.337L182.903 231.593L185.895 231.849C186.044 230.116 186.399 226.907 186.854 222.818L183.869 222.486ZM182.903 231.593L182.662 228.599C178.483 228.936 174.236 229.432 170.031 229.931C165.806 230.433 161.626 230.937 157.495 231.303L157.76 234.295L158.025 237.287C162.264 236.911 166.541 236.395 170.739 235.897C174.955 235.396 179.094 234.913 183.144 234.587L182.903 231.593ZM157.76 234.295L157.464 231.306C157.421 231.31 135.108 233.523 115.109 235.257L115.369 238.25L115.628 241.242C135.667 239.505 158.011 237.288 158.057 237.284L157.76 234.295ZM115.369 238.25L112.379 238.541L112.391 238.666L115.381 238.375L118.37 238.085L118.358 237.959L115.369 238.25ZM115.381 238.375L115.09 235.386L83.7001 238.438L83.9908 241.427L84.2814 244.417L115.671 241.365L115.381 238.375ZM83.9908 241.427L86.9803 241.137L86.3026 234.167L83.3131 234.457L80.3235 234.748L81.0012 241.718L83.9908 241.427ZM83.3131 234.457L81.5572 232.02C75.4125 236.448 68.1576 237.771 63.489 234.301L61.6974 236.712L59.9058 239.123C67.7611 244.961 78.1545 241.876 85.0689 236.894L83.3131 234.457ZM61.6974 236.712L63.4893 234.301C55.0205 228.006 53.439 217.292 55.6787 205.238C57.9008 193.278 63.7519 180.994 68.6673 173.077L66.1155 171.493L63.5637 169.909C58.3999 178.226 52.1737 191.216 49.7725 204.14C47.3889 216.969 48.638 230.747 59.9055 239.123L61.6974 236.712Z" fill="black" mask="url(#path-6-inside-1_1120_255)"/>
<path d="M110.051 187.591C126.897 189.589 167.36 185.888 184.105 181.798C181.424 199.859 177.761 218.409 159.247 226.845C150.109 231.082 139.645 231.416 130.251 227.784C119.999 223.702 113.047 213.79 110.928 203.138C110.183 199.419 108.633 190.987 110.051 187.591Z" fill="white"/>
<path d="M129.047 25.1051C159.156 21.4607 182.539 24.8255 206.615 43.6827C224.812 57.933 235.973 78.0886 238.826 100.835L238.955 101.92C241.196 121.709 238.145 137.905 225.584 153.433L225.583 153.433C221.118 158.958 215.603 163.559 209.639 167.605L209.638 167.605C191.172 180.147 172.421 182.707 150.346 185.021C137.127 186.276 122.148 187.178 107.615 185.889C93.072 184.599 79.1179 181.129 67.8582 173.752L67.8591 173.752C52.9779 163.827 42.5134 148.547 38.6327 131.102L38.4527 130.27C33.9175 107.584 41.1723 84.9164 54.055 65.8879C70.5341 41.5593 97.1751 31.1173 125.42 25.6609L125.421 25.6617C126.627 25.4397 127.834 25.252 129.047 25.1051Z" fill="#A2DDF7" stroke="black" stroke-width="3.75454"/>
<path d="M150.016 60.1165C154.612 59.5319 157.749 59.5264 162.157 61.3915C170.12 64.7678 176.632 72.3814 179.685 80.3853C182.452 87.6506 182.843 97.219 179.505 104.329C176.762 110.178 172.484 112.726 166.638 114.684C161.288 115.575 156.004 116.466 150.604 115.422C145.539 114.441 141.029 111.664 138.215 107.29C133.772 100.385 133.498 89.6914 135.177 81.8323C137.129 72.6589 142.128 65.1956 150.016 60.1165Z" fill="black"/>
<path d="M151.9 64.7065C156.096 64.0828 159.025 65.0796 162.705 67.1415C169.083 70.7316 174.019 77.8938 175.95 84.8269C177.579 90.6756 177.504 98.0374 174.298 103.368C171.562 107.928 168.314 109.01 163.46 110.195C160.257 110.758 156.715 111.21 153.467 110.873C149.39 110.449 145.512 108.688 142.993 105.382C138.861 99.956 138.682 91.2714 139.632 84.7288C140.885 76.1205 144.971 69.806 151.9 64.7065Z" fill="#6966EC"/>
<path d="M162.028 142.195C163.881 142.171 165.752 142.228 167.558 142.534C172.343 143.345 176.243 145.64 178.71 148.36C185.694 156.061 185.715 171.949 179.707 174.657C173.7 177.365 159.603 177.285 159.603 177.285C153.707 177.739 148.715 175.875 144.505 172.591C135.979 165.943 139.335 157.674 146.712 149.557C150.45 145.444 155.046 143.348 162.028 142.195Z" fill="black"/>
<path d="M160.679 145.701C161.583 145.62 162.487 145.543 163.397 145.502C166.377 145.372 169.187 146.144 171.391 147.425C177.398 150.914 178.914 158.045 179.54 162.991C179.893 165.79 180.286 170.739 177.164 172.882C176.268 173.499 176.015 173.484 174.805 173.487C173.479 172.109 174.001 168.234 172.589 166.159C172.497 166.029 171.528 164.896 171.436 164.761C170.209 162.92 167.598 162.014 165.207 160.678C162.822 159.346 159.82 158.652 156.674 158.835C151.777 159.121 148.931 160.944 145.873 163.2C146.317 159.801 146.968 156.674 149.01 153.509C151.429 149.749 154.88 147.246 160.679 145.701Z" fill="#B33B3C"/>
<path d="M156.378 161.668C158.057 161.609 159.483 161.651 161.02 162.157C166.415 163.926 173.496 169.167 169.274 173.023C167.107 175.002 164.868 175.598 160.801 175.914L154.659 175.199C152.271 174.369 148.805 172.936 147.73 170.489C146.005 166.561 151.372 163.868 156.378 161.668Z" fill="#E66564"/>
<path d="M107.364 72.8871C108.767 73.098 109.802 73.6442 110.782 74.6689C116.875 81.0418 119.055 102.971 118.968 111.933C118.918 117.58 118.185 122.293 114.042 126.421C112.232 126.159 111.178 126.028 109.828 124.65C103.66 118.357 102.311 96.1069 102.397 87.6959C102.457 81.8447 103.03 77.1534 107.364 72.8871Z" fill="black"/>
<path d="M192.18 63.4905C193.564 63.871 194.838 64.2321 195.992 65.1321C201.422 69.3774 202.299 80.6174 202.951 87.0161C203.845 95.7751 205.406 110.039 199.461 117.319C198.095 117.122 196.909 116.938 195.734 116.118C192.311 113.732 190.725 108.628 189.929 104.752C187.724 93.9647 186.017 72.8396 192.18 63.4905Z" fill="black"/>
<path d="M86.2715 232.167L180.207 228.689L180.281 230.687C180.445 235.103 176.998 238.814 172.583 238.978L91.6381 241.975C88.8785 242.077 86.5587 239.923 86.4565 237.163L86.2715 232.167Z" fill="#A2DDF7"/>
<rect x="86.4565" y="237.163" width="2" height="4" transform="rotate(-2.12045 86.4565 237.163)" fill="#A2DDF7"/>
</svg>
