<svg width="286" height="280" viewBox="0 0 286 280" fill="none" xmlns="http://www.w3.org/2000/svg">
<path d="M181.214 219.717C181.674 227.909 182.006 236.545 181.481 244.357C180.918 252.715 179.389 259.868 176.215 264.512C173.373 268.672 169.324 271.214 164.383 272.008C161.808 272.421 158.214 272.476 154.723 272C151.191 271.519 148.008 270.527 146.077 269.032C143.284 266.868 142.092 263.591 141.496 259.706C141.2 257.769 141.061 255.755 140.922 253.717C140.785 251.707 140.646 249.66 140.338 247.775L140.338 247.77L140.242 247.25C140.004 246.071 139.651 245.117 139.057 244.27C138.397 243.33 137.518 242.638 136.522 241.919L136.209 241.693L135.828 241.647L135.164 241.578C131.908 241.31 129.548 242.163 128.028 244.117C126.538 246.033 126.117 248.723 125.931 251.301C125.835 252.624 125.797 254.025 125.75 255.389C125.703 256.769 125.645 258.129 125.511 259.443C125.24 262.097 124.675 264.369 123.445 266.057L123.424 266.086L123.405 266.115C122.348 267.721 120.497 269.058 118.055 270.04C115.627 271.018 112.725 271.599 109.738 271.768C106.754 271.937 103.74 271.691 101.101 271.055C98.4475 270.416 96.2835 269.41 94.8794 268.144C90.1948 263.711 87.6516 257.462 86.3403 250.285C85.1032 243.514 84.9895 236.059 85.1224 228.784L181.214 219.717Z" fill="#A2DDF7" stroke="black" stroke-width="3"/>
<path d="M223.043 12.7181C236.948 11.6768 251.733 18.6815 260.04 33.9803L260.43 34.716C265.717 44.8817 266.643 55.4117 263.124 66.3196L263.122 66.3257L263.12 66.3328C259.867 76.6832 252.581 85.2869 242.908 90.2014C241.115 91.0974 239.033 92.0065 237.04 92.8307C235.186 88.3692 233.689 85.0807 231.216 80.4946C225.215 67.2055 214.922 56.6033 204.134 47.5953L204.058 47.5324L203.976 47.477L202.14 46.2487C198.376 43.7426 195.187 41.7099 191.133 39.46C196.34 22.5972 209.337 13.7446 223.043 12.7181Z" fill="#ACE0EC" stroke="black" stroke-width="3.79"/>
<path d="M207.478 45.0918C213.771 33.8759 224.879 27.8674 236.855 35.0219C241.879 38.0266 245.467 42.9362 246.809 48.6303C249.308 59.5095 242.469 70.9425 234.078 77.3824C228.255 64.4467 218.2 54.0451 207.478 45.0918Z" fill="#FFFFFC"/>
<path d="M207.478 45.0918C213.771 33.8759 224.879 27.8674 236.855 35.0219C241.879 38.0266 245.467 42.9362 246.809 48.6303C249.308 59.5095 242.469 70.9425 234.078 77.3824C228.255 64.4467 218.2 54.0451 207.478 45.0918Z" stroke="black"/>
<path d="M42.1107 24.8699C56.2617 22.9767 71.4811 29.1636 81.0219 45.0151C75.1622 48.81 71.2155 52.4231 66.0918 57.2469L66.0444 57.292L66.0002 57.3397C60.5933 63.1799 56.7719 67.5151 53.4744 72.2791C50.1675 77.0567 47.4238 82.2119 44.1005 89.682L44.0885 89.7087L44.0776 89.7364C42.2321 94.2558 40.2262 100.501 38.5641 105.422C38.2281 105.337 37.8905 105.252 37.5523 105.165C15.455 99.4313 2.47435 78.3561 8.22599 56.573L8.51374 55.5346C13.7758 37.4505 27.4807 26.8272 42.1107 24.8699Z" fill="#ACE0EC" stroke="black" stroke-width="3.79"/>
<path d="M33.0965 48.5365C43.3775 41.6921 56.3755 44.8414 62.8931 55.1547C52.0885 66.8253 47.9276 72.158 41.3334 86.9803C30.8298 82.7949 22.5193 72.5946 24.8193 60.8105C25.8161 55.7754 28.7998 51.3526 33.0965 48.5365Z" fill="#FFFFFC"/>
<path d="M33.0965 48.5365C43.3775 41.6921 56.3755 44.8414 62.8931 55.1547C52.0885 66.8253 47.9276 72.158 41.3334 86.9803C30.8298 82.7949 22.5193 72.5946 24.8193 60.8105C25.8161 55.7754 28.7998 51.3526 33.0965 48.5365Z" stroke="black"/>
<mask id="path-6-inside-1_1126_1133" fill="white">
<path fill-rule="evenodd" clip-rule="evenodd" d="M66.1155 171.493C80.0629 180.139 94.3025 181.749 110 184.319C126.846 186.316 167.309 182.615 184.054 178.526C184.13 178.505 184.203 178.482 184.272 178.462C184.273 178.455 184.274 178.449 184.274 178.442C187.612 177.237 190.782 175.665 193.982 174.15L194.896 174.684C198.707 181.614 201.262 188.175 202.61 196.009C203.815 202.983 204.367 211.374 199.907 217.354C196.84 221.467 193.319 222.145 188.547 222.818C187.074 222.839 185.406 222.82 183.869 222.486C183.416 226.553 183.055 229.812 182.903 231.593C174.674 232.256 166.13 233.553 157.76 234.295C157.716 234.299 135.388 236.514 115.369 238.25L115.381 238.375L83.9908 241.428L83.3131 234.457C76.7835 239.162 67.9594 241.366 61.6974 236.712C41.9611 222.042 56.0362 187.727 66.1155 171.493Z"/>
</mask>
<path fill-rule="evenodd" clip-rule="evenodd" d="M66.1155 171.493C80.0629 180.139 94.3025 181.749 110 184.319C126.846 186.316 167.309 182.615 184.054 178.526C184.13 178.505 184.203 178.482 184.272 178.462C184.273 178.455 184.274 178.449 184.274 178.442C187.612 177.237 190.782 175.665 193.982 174.15L194.896 174.684C198.707 181.614 201.262 188.175 202.61 196.009C203.815 202.983 204.367 211.374 199.907 217.354C196.84 221.467 193.319 222.145 188.547 222.818C187.074 222.839 185.406 222.82 183.869 222.486C183.416 226.553 183.055 229.812 182.903 231.593C174.674 232.256 166.13 233.553 157.76 234.295C157.716 234.299 135.388 236.514 115.369 238.25L115.381 238.375L83.9908 241.428L83.3131 234.457C76.7835 239.162 67.9594 241.366 61.6974 236.712C41.9611 222.042 56.0362 187.727 66.1155 171.493Z" fill="#A2DDF7"/>
<path fill-rule="evenodd" clip-rule="evenodd" d="M66.1155 171.493L67.698 168.94L65.1469 167.359L63.5637 169.909L66.1155 171.493ZM110 184.319L109.515 187.283L109.581 187.294L109.647 187.302L110 184.319ZM184.054 178.526L184.766 181.444L184.805 181.434L184.843 181.424L184.054 178.526ZM184.272 178.462L185.09 181.352L187.164 180.765L187.272 178.613L184.272 178.462ZM184.274 178.442L183.254 175.616L181.374 176.295L181.274 178.291L184.274 178.442ZM193.982 174.15L195.497 171.556L194.128 170.757L192.696 171.435L193.982 174.15ZM194.896 174.684L197.528 173.237L197.128 172.509L196.411 172.091L194.896 174.684ZM202.61 196.009L199.65 196.519L199.65 196.521L202.61 196.009ZM199.907 217.354L197.5 215.558L197.499 215.558L199.907 217.354ZM188.547 222.818L188.589 225.822L188.779 225.819L188.967 225.793L188.547 222.818ZM183.869 222.486L184.505 219.551L181.252 218.845L180.884 222.154L183.869 222.486ZM182.903 231.593L183.144 234.587L185.679 234.383L185.895 231.849L182.903 231.593ZM157.76 234.295L157.495 231.303L157.479 231.305L157.464 231.306L157.76 234.295ZM115.369 238.25L115.109 235.258L112.085 235.52L112.379 238.541L115.369 238.25ZM115.381 238.375L115.671 241.365L118.661 241.074L118.37 238.085L115.381 238.375ZM83.9908 241.428L81.0012 241.718L81.2919 244.708L84.2814 244.417L83.9908 241.428ZM83.3131 234.457L86.3026 234.167L85.7969 228.966L81.5572 232.021L83.3131 234.457ZM61.6974 236.712L59.9055 239.123L59.9058 239.123L61.6974 236.712ZM66.1155 171.493L64.533 174.046C79.0987 183.075 94.0252 184.747 109.515 187.283L110 184.319L110.486 181.355C94.5798 178.751 81.027 177.203 67.698 168.94L66.1155 171.493ZM110 184.319L109.647 187.302C118.392 188.339 132.979 187.887 147.313 186.698C161.678 185.507 176.165 183.544 184.766 181.444L184.054 178.526L183.341 175.608C175.198 177.597 161.081 179.529 146.817 180.712C132.522 181.897 118.454 182.297 110.354 181.336L110 184.319ZM184.054 178.526L184.843 181.424C184.916 181.404 184.981 181.385 185.02 181.373C185.069 181.359 185.079 181.356 185.09 181.352L184.272 178.462L183.454 175.572C183.396 175.589 183.335 175.607 183.311 175.614C183.278 175.624 183.268 175.627 183.264 175.628L184.054 178.526ZM184.272 178.462L187.272 178.613C187.271 178.643 187.269 178.669 187.267 178.691C187.265 178.713 187.264 178.732 187.262 178.746C187.261 178.761 187.26 178.772 187.259 178.778C187.259 178.782 187.258 178.784 187.258 178.786C187.258 178.787 187.258 178.788 187.258 178.787C187.258 178.787 187.258 178.785 187.259 178.783C187.259 178.781 187.259 178.777 187.26 178.773C187.261 178.765 187.262 178.752 187.263 178.736C187.265 178.72 187.267 178.699 187.269 178.676C187.271 178.652 187.272 178.624 187.274 178.592L184.274 178.442L181.274 178.291C181.276 178.261 181.278 178.235 181.279 178.213C181.281 178.191 181.283 178.172 181.284 178.158C181.285 178.143 181.287 178.132 181.287 178.126C181.288 178.122 181.288 178.12 181.288 178.118C181.288 178.117 181.288 178.116 181.288 178.117C181.288 178.117 181.288 178.119 181.288 178.121C181.288 178.123 181.287 178.127 181.287 178.131C181.286 178.139 181.285 178.152 181.283 178.168C181.281 178.184 181.28 178.204 181.278 178.228C181.276 178.252 181.274 178.28 181.272 178.312L184.272 178.462ZM184.274 178.442L185.294 181.267C188.803 180 192.141 178.345 195.267 176.865L193.982 174.15L192.696 171.435C189.423 172.985 186.42 174.474 183.254 175.616L184.274 178.442ZM193.982 174.15L192.467 176.744L193.381 177.278L194.896 174.684L196.411 172.091L195.497 171.556L193.982 174.15ZM194.896 174.684L192.264 176.132C195.948 182.83 198.369 189.075 199.65 196.519L202.61 196.009L205.57 195.5C204.155 187.275 201.467 180.398 197.528 173.237L194.896 174.684ZM202.61 196.009L199.65 196.521C200.858 203.51 201.125 210.698 197.5 215.558L199.907 217.354L202.315 219.149C207.61 212.051 206.772 202.456 205.57 195.498L202.61 196.009ZM199.907 217.354L197.499 215.558C196.285 217.186 195.072 218.042 193.721 218.599C192.257 219.203 190.542 219.503 188.127 219.844L188.547 222.818L188.967 225.793C191.324 225.46 193.755 225.084 196.013 224.152C198.382 223.174 200.462 221.634 202.315 219.149L199.907 217.354ZM188.547 222.818L188.505 219.815C187.046 219.835 185.678 219.805 184.505 219.551L183.869 222.486L183.232 225.422C185.133 225.834 187.102 225.843 188.589 225.822L188.547 222.818ZM183.869 222.486L180.884 222.154C180.433 226.199 180.067 229.507 179.91 231.337L182.903 231.593L185.895 231.849C186.044 230.116 186.399 226.907 186.854 222.819L183.869 222.486ZM182.903 231.593L182.662 228.599C178.483 228.936 174.236 229.432 170.031 229.932C165.806 230.433 161.626 230.937 157.495 231.303L157.76 234.295L158.025 237.287C162.264 236.911 166.541 236.395 170.739 235.897C174.955 235.396 179.094 234.913 183.144 234.587L182.903 231.593ZM157.76 234.295L157.464 231.306C157.421 231.31 135.108 233.523 115.109 235.258L115.369 238.25L115.628 241.242C135.667 239.505 158.011 237.288 158.057 237.284L157.76 234.295ZM115.369 238.25L112.379 238.541L112.391 238.666L115.381 238.375L118.37 238.085L118.358 237.959L115.369 238.25ZM115.381 238.375L115.09 235.386L83.7001 238.438L83.9908 241.428L84.2814 244.417L115.671 241.365L115.381 238.375ZM83.9908 241.428L86.9803 241.137L86.3026 234.167L83.3131 234.457L80.3235 234.748L81.0012 241.718L83.9908 241.428ZM83.3131 234.457L81.5572 232.021C75.4125 236.448 68.1576 237.771 63.489 234.301L61.6974 236.712L59.9058 239.123C67.7611 244.961 78.1545 241.877 85.0689 236.894L83.3131 234.457ZM61.6974 236.712L63.4893 234.302C55.0205 228.006 53.439 217.292 55.6787 205.238C57.9008 193.278 63.7519 180.995 68.6673 173.078L66.1155 171.493L63.5637 169.909C58.3999 178.226 52.1737 191.217 49.7725 204.14C47.3889 216.969 48.638 230.747 59.9055 239.123L61.6974 236.712Z" fill="black" mask="url(#path-6-inside-1_1126_1133)"/>
<path d="M110.051 187.592C126.897 189.589 167.36 185.888 184.105 181.799C181.424 199.859 177.761 218.41 159.247 226.846C150.109 231.082 139.645 231.417 130.251 227.784C119.999 223.703 113.047 213.79 110.928 203.138C110.183 199.419 108.633 190.988 110.051 187.592Z" fill="white"/>
<path d="M129.047 25.1053C159.156 21.4609 182.539 24.8257 206.615 43.6829C224.812 57.9331 235.973 78.0888 238.826 100.835L238.955 101.92C241.196 121.71 238.145 137.906 225.584 153.434L225.583 153.434C221.118 158.958 215.603 163.559 209.639 167.605L209.638 167.605C191.172 180.147 172.421 182.707 150.346 185.021C137.127 186.276 122.148 187.178 107.615 185.889C93.072 184.6 79.1179 181.129 67.8582 173.752L67.8591 173.752C52.9779 163.828 42.5134 148.547 38.6327 131.103L38.4527 130.271C33.9175 107.584 41.1723 84.9166 54.055 65.8881C70.5341 41.5595 97.1751 31.1175 125.42 25.6611L125.421 25.6619C126.627 25.4399 127.834 25.2522 129.047 25.1053Z" fill="#A2DDF7" stroke="black" stroke-width="3.75454"/>
<path d="M141.825 45.809C146.421 45.2245 149.558 45.219 153.966 47.0841C161.929 50.4603 168.441 58.074 171.495 66.0779C174.261 73.3432 174.652 82.9115 171.314 90.0217C168.571 95.8702 164.293 98.4183 158.448 100.376C153.098 101.268 147.813 102.159 142.413 101.115C137.348 100.134 132.839 97.3562 130.024 92.9824C125.581 86.0778 125.307 75.384 126.986 67.5249C128.938 58.3515 133.937 50.8882 141.825 45.809Z" fill="black"/>
<path d="M143.709 50.399C147.905 49.7754 150.834 50.7722 154.514 52.8341C160.892 56.4242 165.828 63.5863 167.759 70.5195C169.388 76.3682 169.313 83.73 166.107 89.0605C163.371 93.6207 160.123 94.7031 155.269 95.8878C152.066 96.4507 148.524 96.9029 145.276 96.566C141.199 96.1418 137.321 94.3808 134.802 91.0742C130.67 85.6486 130.491 76.964 131.441 70.4214C132.694 61.8131 136.78 55.4986 143.709 50.399Z" fill="#6966EC"/>
<path d="M162.028 101.529C163.881 101.479 165.752 101.599 167.558 102.247C172.343 103.963 176.243 108.82 178.71 114.577C185.694 130.873 185.715 164.498 179.707 170.23C173.7 175.962 159.603 175.791 159.603 175.791C153.707 176.753 148.715 172.807 144.505 165.858C135.979 151.787 139.335 134.289 146.712 117.109C150.45 108.406 155.046 103.97 162.028 101.529Z" fill="black"/>
<path d="M160.679 108.948C161.583 108.777 162.487 108.615 163.397 108.527C166.377 108.252 169.187 109.886 171.391 112.597C177.397 119.981 178.914 135.073 179.54 145.54C179.893 151.465 180.286 161.938 177.164 166.474C176.268 167.78 176.015 167.748 174.805 167.753C173.479 164.837 174.001 156.636 172.589 152.246C172.497 151.97 171.528 149.571 171.436 149.287C170.209 145.391 167.598 143.472 165.207 140.646C162.822 137.826 159.82 136.358 156.674 136.746C151.777 137.351 148.931 141.208 145.873 145.982C146.317 138.79 146.968 132.171 149.01 125.474C151.429 117.515 154.88 112.219 160.679 108.948Z" fill="#B33B3C"/>
<path d="M156.378 142.741C158.057 142.616 159.483 142.705 161.02 143.776C166.415 147.519 173.496 158.612 169.274 166.772C167.107 170.96 164.868 172.223 160.801 172.89L154.659 171.377C152.271 169.621 148.805 166.588 147.73 161.409C146.005 153.097 151.372 147.397 156.378 142.741Z" fill="#E66564"/>
<path d="M107.364 72.8873C108.767 73.0982 109.802 73.6444 110.782 74.6691C116.875 81.042 119.055 102.972 118.968 111.934C118.918 117.58 118.185 122.293 114.042 126.421C112.232 126.16 111.178 126.029 109.828 124.651C103.66 118.357 102.311 96.1071 102.397 87.6961C102.457 81.8449 103.03 77.1536 107.364 72.8873Z" fill="black"/>
<path d="M192.18 63.4907C193.564 63.8712 194.838 64.2323 195.992 65.1323C201.422 69.3776 202.299 80.6176 202.951 87.0163C203.845 95.7753 205.406 110.039 199.461 117.319C198.095 117.122 196.909 116.938 195.734 116.118C192.311 113.732 190.725 108.628 189.929 104.752C187.724 93.9649 186.017 72.8398 192.18 63.4907Z" fill="black"/>
<path d="M86.2715 232.167L180.207 228.689L180.281 230.688C180.445 235.103 176.998 238.815 172.583 238.978L91.6381 241.975C88.8785 242.077 86.5587 239.923 86.4565 237.164L86.2715 232.167Z" fill="#A2DDF7"/>
<rect x="86.4565" y="237.164" width="2" height="4" transform="rotate(-2.12045 86.4565 237.164)" fill="#A2DDF7"/>
<path d="M94.7876 70.4539C102.112 72.2848 104.166 72.9685 106.972 73.7723C109.167 74.4008 111.497 75.1464 112.587 75.4899C114.766 76.1762 106.935 73.3189 105.044 72.8602C102.908 72.3425 100.868 71.3745 98.9168 70.514C98.4564 70.3405 98.003 70.2271 97.4293 70.1687C96.8556 70.1104 96.1754 70.1104 95.4746 70.1104" stroke="black" stroke-width="8" stroke-linecap="round"/>
<path d="M186 68.1418C193.324 66.3109 195.378 65.6272 198.185 64.8234C200.379 64.1949 202.709 63.4493 203.8 63.1058C205.979 62.4195 198.147 65.2768 196.256 65.7355C194.121 66.2532 192.08 67.2212 190.129 68.0817C189.669 68.2552 189.215 68.3686 188.642 68.427C188.068 68.4854 187.388 68.4854 186.687 68.4854" stroke="black" stroke-width="8" stroke-linecap="round"/>
</svg>
