<svg width="165" height="149" viewBox="0 0 165 149" fill="none" xmlns="http://www.w3.org/2000/svg">
<path d="M23.6322 72.7038C20.2859 79.4692 30.6315 86.3155 30.6315 86.3155C23.561 95.6486 31.5244 102.671 36.3899 105.016C25.0285 110.621 29.3621 120.203 32.9491 124.293C38.9992 133.289 46.7433 129.96 49.8591 127.171C61.4184 130.722 70.2539 121.629 73.2268 116.638C80.3661 121.751 86.4916 117.236 88.662 114.339C97.8878 120.278 105.063 113.918 107.497 109.996C126.045 113.752 132.807 100.74 133.869 93.7643C142.698 89.6989 138.147 82.4643 134.768 79.3552C145.572 74.5121 144.465 63.5877 142.561 58.7309C149.443 49.4945 140.016 42.433 134.442 40.0568C129.626 31.6135 120.152 35.7334 116.017 38.8488C115.197 24.7896 104.728 25.1676 99.5966 27.114C91.2989 19.7486 87.8963 25.7119 87.2323 29.6142C71.6236 18.6491 64.0865 28.4595 62.2691 34.7354C33.3623 33.457 36.5361 55.2871 41.7363 66.3619C29.5385 64.8002 26.9786 65.9384 23.6322 72.7038Z" fill="#FFFFFA" stroke="#FFEAD5" stroke-width="2.25904" stroke-linecap="square" stroke-linejoin="round"/>
<path d="M78.1995 54.099C78.9843 50.4314 81.8611 43.9076 90.6377 47.703C92.7301 44.8471 98.1157 41.0093 103.377 47.0871C104.511 42.9434 110.503 40.5152 112.449 45.6863" stroke="#FFEAD5" stroke-width="3.01205" stroke-linecap="round" stroke-linejoin="round"/>
</svg>
