<svg width="274" height="270" viewBox="0 0 274 270" fill="none" xmlns="http://www.w3.org/2000/svg">
<path d="M87.5388 83.2787C86.4792 80.7825 89.2014 78.3708 91.5517 79.7234L122.702 97.6529C125.925 99.5078 130.045 98.1605 131.549 94.7599L148.532 56.3664C149.715 53.6916 153.684 54.3539 153.934 57.2676L156.732 89.8486C157.123 94.4089 162.117 97.0204 166.086 94.7404L199.17 75.7323C201.833 74.2026 204.682 77.4183 202.843 79.8775L179.993 110.429C177.251 114.094 179.243 119.367 183.723 120.305L215.75 127.006C218.612 127.605 218.793 131.623 215.996 132.476L175.832 144.726C172.276 145.811 170.444 149.739 171.898 153.162L185.947 186.231C187.007 188.726 184.286 191.139 181.935 189.787L150.779 171.874C147.556 170.021 143.438 171.37 141.935 174.769L124.948 213.172C123.765 215.846 119.796 215.184 119.545 212.27L116.74 179.67C116.348 175.11 111.353 172.499 107.385 174.78L74.3096 193.794C71.6473 195.324 68.797 192.11 70.6356 189.65L93.48 159.089C96.2206 155.423 94.2279 150.152 89.7475 149.215L57.7393 142.523C54.8764 141.925 54.6954 137.906 57.4929 137.052L97.6514 124.804C101.207 123.719 103.039 119.793 101.586 116.371L87.5388 83.2787Z" fill="#FF7BE2" stroke="#FFFDF6" stroke-width="3.43214"/>
</svg>
