<svg width="105" height="108" viewBox="0 0 105 108" fill="none" xmlns="http://www.w3.org/2000/svg">
<mask id="mask0_1784_456" style="mask-type:alpha" maskUnits="userSpaceOnUse" x="0" y="0" width="105" height="108">
<rect width="104.766" height="107.786" rx="17.662" fill="#FAFAFA"/>
</mask>
<g mask="url(#mask0_1784_456)">
<path d="M23.5402 31.807C25.4165 31.0714 28.8397 31.6178 29.5692 31.2323C39.7657 25.8417 51.6719 22.3259 63.8748 26.6833C67.8738 28.0001 70.7273 29.2435 74.3866 31.4386C79.3644 31.2466 81.9749 31.38 85.9262 34.9711C87.2155 36.1473 88.322 37.5099 89.2096 39.0131C91.1289 42.2222 92.2267 45.9384 94.0221 49.1841C96.6199 53.8797 100.609 58.4904 102.726 63.3764C104.635 68.1317 105.67 75.7265 101.681 79.7318C98.81 82.6139 94.3837 83.9395 90.4177 84.0474C83.4088 84.2386 80.4626 79.6358 76.3266 74.9912C75.4506 75.0824 74.5758 75.1848 73.7025 75.2991C65.4397 78.4915 44.2302 77.3651 35.3896 76.4482C32.8949 76.1893 29.9825 75.0422 28.3157 74.9116L27.7766 74.8745C26.4797 78.1362 23.5068 81.2402 20.3041 82.5359C13.3545 85.3586 3.75857 84.2641 0.931028 76.2909C-2.51092 66.5863 4.35148 58.8067 9.12378 51.1394C11.1709 47.8498 12.8054 44.4726 14.3353 40.9138C16.5281 36.9009 19.1697 33.5213 23.5402 31.807Z" fill="#FFFFFE"/>
<path d="M61.3792 28.4471C61.0312 26.3784 54.0091 28.3432 51.3691 25.722C52.2957 24.6872 61.6201 26.9324 63.8743 26.6831C67.8733 27.9999 70.7267 29.2433 74.3861 31.4384C79.3638 31.2464 81.9744 31.3798 85.9256 34.9709C87.2149 36.1471 88.3215 37.5097 89.2091 39.0129C91.1283 42.222 92.2261 45.9382 94.0216 49.1839C96.6194 53.8795 100.608 58.4902 102.726 63.3762C104.634 68.1315 105.669 75.7263 101.68 79.7316C98.8094 82.6137 94.3831 83.9393 90.4172 84.0472C83.4082 84.2384 80.462 79.6356 76.326 74.991C75.45 75.0822 74.5752 75.1846 73.702 75.2989L75.4807 74.0407C74.8316 73.8738 74.5581 73.8172 73.9485 73.5281L73.5411 73.3309C84.3336 70.2222 89.8979 64.548 86.0017 52.9717C85.4868 51.4423 84.3555 49.5468 84.465 48.0392L84.9835 47.7839C86.1267 48.2734 86.7411 48.7916 87.2121 50.0124C91.4624 61.0222 89.0701 69.3124 78.4588 74.3159C82.5589 80.4243 91.3147 84.5208 97.3019 80.4788C108.904 71.6545 98.2822 60.2646 93.2125 52.0521C87.6119 42.9796 89.1501 36.31 77.1794 33.273C77.9511 34.7459 79.3909 36.6876 78.3457 38.1195C77.4744 38.0112 75.986 36.4466 75.2685 35.7695C71.0154 31.7574 66.9475 29.8822 61.3792 28.4471Z" fill="#866135"/>
<path d="M14.3353 40.9139C16.5281 36.901 19.1697 33.5214 23.5402 31.8071C24.6086 32.0302 25.3146 32.1513 26.3996 32.2632C24.9036 32.9757 24.5871 32.9893 23.6915 34.3164C19.7861 35.7726 17.7764 38.9064 15.8114 42.4995C14.4197 45.8373 13.0316 49.1747 11.1569 52.242C6.6789 59.5691 -0.369049 66.8564 3.12267 76.1588C5.18211 81.6462 13.7563 82.8765 18.5883 80.801C21.7946 79.424 24.0049 77.0466 26.0046 74.2828C21.3382 71.9264 18.087 69.6414 16.2048 64.4941C14.6212 60.163 15.5908 51.3267 18.9515 48.1375L19.7789 47.8977C20.8927 49.1989 18.9579 51.7493 18.3709 53.2118C16.3896 58.1532 16.4851 62.9599 20.0648 67.1245C22.0761 69.7859 24.0905 70.4045 25.0203 71.4728C26.0114 72.3287 26.4367 72.6931 27.5548 73.3635C27.6834 73.9677 27.7204 74.2589 27.7766 74.8746C26.4797 78.1363 23.5068 81.2403 20.3041 82.536C13.3545 85.3587 3.75857 84.2642 0.931028 76.291C-2.51092 66.5864 4.35148 58.8068 9.12378 51.1395C11.1709 47.8499 12.8054 44.4727 14.3353 40.9139Z" fill="#866135"/>
<path d="M25.0205 71.4722C36.9881 75.8965 61.5787 76.0367 73.5419 73.3306L73.9492 73.5278C74.5588 73.817 74.8324 73.8735 75.4815 74.0404L73.7028 75.2986C65.4399 78.491 44.2304 77.3646 35.3898 76.4477C32.8951 76.1889 29.9827 75.0417 28.3159 74.9111L27.7768 74.8741C27.7206 74.2583 27.6836 73.9671 27.555 73.3629C26.4369 72.6926 26.0116 72.3281 25.0205 71.4722Z" fill="#7A5632"/>
<path d="M23.54 31.807C25.4163 31.0714 28.8395 31.6178 29.569 31.2323C39.7655 25.8417 51.6717 22.3259 63.8746 26.6833C61.6205 26.9326 52.2961 24.6874 51.3695 25.7222C54.0095 28.3434 61.0316 26.3786 61.3796 28.4473C54.6394 27.6476 46.3157 27.3425 39.7057 29.3332C35.7601 30.5217 30.273 35.4638 26.8207 37.8552C26.3819 38.1591 25.9288 37.9512 25.4804 37.8289C25.2726 35.9497 26.6997 36.1003 26.0403 34.1192C25.0759 33.9228 24.6418 34.1016 23.6914 34.3163C24.5869 32.9892 24.9034 32.9756 26.3994 32.2631C25.3144 32.1511 24.6084 32.0301 23.54 31.807Z" fill="#866135"/>
<path d="M44.3342 55.8813C45.5925 56.255 46.3905 57.6315 47.2629 58.7503C51.1214 59.208 53.5133 59.1275 57.2774 58.8041C58.0614 57.8581 58.6272 57.1233 59.5518 56.296L60.1244 56.5824C60.7607 59.237 57.6967 59.5732 56.9919 62.1446C54.0552 73.5667 49.318 70.8348 47.2068 60.8386C44.5564 59.0012 44.0782 59.1418 44.3342 55.8813Z" fill="#6B4318"/>
<path d="M48.4619 60.4248L56.1008 60.4674C55.4784 62.6756 54.9699 64.1521 54.1317 66.2894L52.8512 67.836C49.9507 68.5219 49.1046 62.67 48.4619 60.4248Z" fill="#F5D5C0"/>
<path d="M32.4186 50.7988C36.6876 51.8025 37.0671 54.3194 38.3907 57.9567C35.941 55.7716 35.2609 53.3946 32.2578 51.9336C29.7555 54.2756 30.5603 55.1136 28.6518 57.4728L28.1895 57.3891C28.3296 54.0749 29.7309 52.4856 32.4186 50.7988Z" fill="#4D97B4"/>
<path d="M71.3945 50.8579C75.3931 51.6617 75.7901 53.8762 76.7836 57.3693L76.5025 57.4733C74.725 55.8721 74.4514 54.3359 72.5983 52.1452C70.1311 52.3105 69.0185 54.7226 67.5265 56.5712L67.1028 56.274L67.0459 55.3269C68.0911 53.1 69.2774 51.9648 71.3945 50.8579Z" fill="#4D97B4"/>
</g>
</svg>
