<svg width="105" height="108" viewBox="0 0 105 108" fill="none" xmlns="http://www.w3.org/2000/svg">
<mask id="mask0_1784_459" style="mask-type:alpha" maskUnits="userSpaceOnUse" x="0" y="0" width="105" height="108">
<rect width="104.766" height="107.786" rx="17.662" fill="#FAFAFA"/>
</mask>
<g mask="url(#mask0_1784_459)">
<path d="M51.0945 16.8856C60.9298 16.3201 71.7656 18.9331 79.8641 24.6404C92.0781 33.249 101.952 48.6263 101.823 63.9051C101.763 71.1446 98.5376 75.9527 91.1639 77.2244C86.9746 82.891 85.8148 83.6875 79.6473 86.9813C79.6473 86.9813 67.3923 91.4979 51.5848 91.2899C35.7775 91.0818 25.5926 86.2723 25.5926 86.2723C19.988 83.4007 17.503 81.2356 14.0301 76.0125C12.2228 75.353 8.80813 74.2883 7.46563 73.0447C3.86829 69.7125 3.54833 64.3018 4.26445 59.7508C5.89344 49.3982 11.1881 40.6047 18.0555 32.8817C26.8016 23.046 37.9409 17.5847 51.0945 16.8856Z" fill="#06130B"/>
<path d="M50.8971 20.2279C60.4205 19.3715 75.2892 22.5419 81.4744 30.6042C87.3152 38.2182 87.0264 48.8817 85.8018 57.9718C87.4799 61.9585 89.0554 63.9814 89.2273 68.5307C89.4755 75.1003 86.716 79.7541 80.9407 82.8744C73.0196 87.155 63.5504 88.7633 54.6418 88.969C44.1466 88.8413 33.568 87.3803 24.2826 82.1486C14.2277 76.4829 13.9565 65.7622 19.6519 56.6764C19.4053 55.4567 19.2394 54.2223 19.1556 52.9806C18.693 46.9352 20.0071 41.1853 22.5594 35.7144C27.6814 24.7352 39.6904 21.022 50.8971 20.2279Z" fill="#FCE020"/>
<path d="M51.9645 34.7879C68.6527 34.4339 81.1134 45.0601 81.7269 62.1392C82.3499 79.4842 69.1514 85.2012 54.2444 85.5427C40.1942 85.5239 25.1951 80.8807 24.1736 64.4058C23.0548 46.3643 34.5532 35.6159 51.9645 34.7879Z" fill="#060D08"/>
<path d="M50.3465 37.8789C57.9058 37.2996 64.9778 39.0062 70.8415 44.136C79.0416 51.3097 82.1816 67.2863 74.3808 75.767C70.1139 80.406 62.1579 82.2962 55.962 82.4783C44.5476 82.6556 28.8039 80.0248 27.1945 65.8365C25.3782 49.8229 34.7521 39.6136 50.3465 37.8789Z" fill="#FFFFFC"/>
<path d="M59.4392 66.8053C60.7304 66.7103 62.752 66.4817 63.9241 67.0488C64.1332 67.6815 62.8909 72.1549 62.4572 73.0023C61.6955 74.4898 60.4637 75.6228 58.8491 76.1121C57.4756 76.5286 55.9395 76.4429 54.68 75.7238C52.9374 74.7287 52.2063 73.1252 51.6921 71.2663L51.563 70.5932C49.3157 69.3103 44.617 72.3557 42.8799 69.3831C43.0799 66.7051 48.6705 67.2111 50.7566 67.1528C53.6517 67.0578 56.5458 66.9421 59.4392 66.8053Z" fill="#060D08"/>
<path d="M58.5461 69.7611C59.2465 69.7444 59.3725 69.7471 60.0571 69.876L60.3775 70.4008C60.651 73.3304 57.8061 74.585 55.2089 73.0903C54.6064 72.2807 53.7762 71.0441 54.4076 70.1053C56.122 69.8769 55.7202 70.993 57.0455 71.8523L57.5652 71.7272C58.1532 71.1286 58.2663 70.56 58.5461 69.7611Z" fill="#EF6E9A"/>
<path d="M52.3721 60.2908C56.5209 60.1295 59.976 64.6645 54.8769 65.1719C53.0687 65.2464 50.4188 65.8102 49.3809 64.2033C48.9899 62.3127 50.6916 60.7925 52.3721 60.2908Z" fill="#060D08"/>
<path d="M46.2136 54.5806C50.0705 55.1773 50.9604 59.6108 46.376 60.5985C42.1114 60.0937 41.5655 55.4355 46.2136 54.5806Z" fill="#060D08"/>
<path d="M59.2297 55.0189C60.2938 54.5964 61.5041 54.7984 62.3735 55.5433C63.2429 56.288 63.6279 57.4533 63.3734 58.5693C63.1192 59.6854 62.2673 60.5688 61.1611 60.8633C59.5834 61.2837 57.9519 60.4015 57.4396 58.8517C56.9273 57.3017 57.7122 55.6211 59.2297 55.0189Z" fill="#060D08"/>
</g>
</svg>
