<svg width="105" height="108" viewBox="0 0 105 108" fill="none" xmlns="http://www.w3.org/2000/svg">
<mask id="mask0_1784_465" style="mask-type:alpha" maskUnits="userSpaceOnUse" x="0" y="0" width="105" height="108">
<rect width="104.766" height="107.786" rx="17.662" fill="#FF7BE2"/>
</mask>
<g mask="url(#mask0_1784_465)">
<path d="M52.3164 17.4863C76.0267 17.4863 95.0595 33.8819 95.0596 53.8926C95.0596 73.9033 76.0268 90.2988 52.3164 90.2988C28.606 90.2988 9.57324 73.9033 9.57324 53.8926C9.57333 33.882 28.6061 17.4864 52.3164 17.4863Z" fill="#B8E7EE" stroke="#8ACAF0" stroke-width="1.35135"/>
<path d="M17.8398 51.5057C18.5652 42.4943 24.8816 35.6507 31.9473 36.2196C38.7212 36.7651 43.7237 43.9257 43.4863 52.4569C46.3624 52.5661 49.4203 52.6463 52.6514 52.6463C57.4136 52.6463 61.8602 52.338 65.9395 51.9305C65.7846 44.1528 70.0899 37.5481 76.3564 36.575C83.361 35.4876 90.1633 41.8485 91.5498 50.7821C91.5766 50.9545 91.5997 51.1269 91.6221 51.2987C93.2208 52.3967 94.0664 54.2553 94.0664 57.2332C94.0663 70.333 77.7377 89.3944 52.6514 89.3944C27.565 89.3943 12.9062 74.0976 12.9062 60.9979C12.9063 56.5672 14.5842 54.1803 17.7744 52.9588C17.7799 52.4789 17.8006 51.9939 17.8398 51.5057Z" fill="white"/>
<path d="M52.3154 43.8745C56.335 43.8745 59.9496 44.6639 62.5459 46.0718C65.1411 47.4792 66.6737 49.473 66.6738 51.8882C66.6738 54.3324 65.1086 57.0014 62.4971 59.0737C59.8942 61.1392 56.2931 62.5747 52.3154 62.5747C48.3529 62.5746 44.7562 60.8996 42.1484 58.5845C39.5313 56.2611 37.958 53.3388 37.958 50.8862C37.958 48.4854 39.4725 46.7431 42.0625 45.5825C44.6599 44.4187 48.2796 43.8745 52.3154 43.8745Z" fill="#F1D453" stroke="#E1BA43" stroke-width="0.675676"/>
<path d="M42.9648 53.5586C42.9648 53.5586 47.3067 56.5653 52.9846 56.5653C58.6625 56.5653 62.3364 53.5586 62.3364 53.5586" stroke="#583921" stroke-width="1.01351" stroke-linecap="round"/>
<ellipse cx="30.5797" cy="47.2097" rx="2.52111" ry="2.52173" fill="#603C1F"/>
<ellipse cx="75.8698" cy="47.2097" rx="2.52111" ry="2.52173" fill="#603C1F"/>
</g>
</svg>
