<svg width="99" height="108" viewBox="0 0 99 108" fill="none" xmlns="http://www.w3.org/2000/svg">
<path d="M84.6904 23.978C89.2276 23.9783 92.9081 27.666 92.9082 32.2173C92.9082 34.4755 92.0051 36.0689 90.5635 37.1147C89.0998 38.1765 87.0352 38.7045 84.6904 38.7046C82.3454 38.7046 80.2802 38.1767 78.8164 37.1147C77.3748 36.0689 76.4717 34.4755 76.4717 32.2173C76.4718 27.6659 80.153 23.978 84.6904 23.978Z" fill="#FFFBE8" stroke="#FCE9B8" stroke-width="1.03982"/>
<path d="M12.7305 25.0063C8.19328 25.0066 4.51282 28.6943 4.5127 33.2456C4.5127 35.5038 5.41578 37.0972 6.85742 38.1431C8.32111 39.2049 10.3857 39.7328 12.7305 39.7329C15.0755 39.7329 17.1407 39.205 18.6045 38.1431C20.0461 37.0972 20.9492 35.5038 20.9492 33.2456C20.9491 28.6942 17.2679 25.0063 12.7305 25.0063Z" fill="#FFFBE8" stroke="#FCE9B8" stroke-width="1.03982"/>
<path d="M26.7799 27.0576C15.5406 25.1382 12.2739 33.1127 12.0454 37.3399C3.41037 39.9448 3.87867 48.1364 5.1922 51.9066C4.44977 51.4496 1.08023 51.9066 0.566291 56.8764C0.00839812 62.2712 4.56399 64.0169 7.76216 64.4168C3.10197 70.1749 8.67593 74.0136 12.0454 75.2132C12.0454 82.3423 20.1551 84.9243 24.2099 85.3242C28.0477 92.8646 36.203 91.0937 39.801 89.2658C48.5731 98.3142 58.1905 92.579 61.9026 88.5803C72.0454 90.7738 75.9517 85.0386 76.6371 81.8967C92.2624 83.1306 91.8284 75.6702 89.6582 71.7858C97.745 68.2212 95.0837 62.9887 92.7421 60.818C103.022 53.6889 95.6548 47.4509 90.6862 45.2231C92.331 36.9972 86.3458 35.2835 83.1476 35.4548C84.6553 30.2451 79.8924 29.1712 77.3224 29.2854C77.0483 24.8983 71.954 25.1725 69.4412 25.858C66.2887 17.495 59.2185 19.0602 56.0774 20.8882C48.5388 12.1139 41.6285 17.2322 39.1157 20.8882C30.4806 18.0091 27.2939 23.8015 26.7799 27.0576Z" fill="#FAB2CD" stroke="#FD83C1" stroke-width="1.03982"/>
<path d="M48.8818 30.833C67.8457 30.833 81.7712 44.8792 81.7715 59.7891C81.7715 67.215 78.1099 73.3212 72.0615 77.5889C66.0026 81.864 57.5478 84.29 48.0254 84.29C38.4795 84.29 30.6741 82.3685 25.2705 78.6152C19.8925 74.8797 16.8486 69.3006 16.8486 61.8457C16.8488 46.8745 29.9806 30.8331 48.8818 30.833Z" fill="#FFFBE8" stroke="#FCE9B8" stroke-width="1.03982"/>
<path d="M73.5539 58.0756L79.3792 57.0474M72.6973 63.2168L78.5225 65.616" stroke="#F1C67E" stroke-width="3.46607" stroke-linecap="round"/>
<path d="M25.2381 61.1601L19.4128 60.1318M26.0947 66.3012L20.4408 68.7005" stroke="#F1C67E" stroke-width="3.46607" stroke-linecap="round"/>
<path d="M48.3681 32.3701V48.6505M39.1162 38.0254H57.2773M40.1442 44.1948H56.4206" stroke="#F1C67E" stroke-width="3.46607" stroke-linecap="round"/>
<path d="M46.3125 27.5714L51.1098 23.2871" stroke="#E96F91" stroke-width="2.77285" stroke-linecap="round"/>
<path d="M53.8496 26.2002H60.0175" stroke="#F1E488" stroke-width="2.77285" stroke-linecap="round"/>
<path d="M36.2031 25.0009L42.885 23.9727" stroke="#FDFCFF" stroke-width="2.77285" stroke-linecap="round"/>
<path d="M30.7207 27.5713L34.6017 30.8403" stroke="#F7DF83" stroke-width="2.77285" stroke-linecap="round"/>
<path d="M80.0645 13.5188L62.2461 26.029L82.1205 40.0816C82.406 32.1984 82.9428 15.9866 82.8058 14.2043C82.6687 12.4221 80.9211 13.0047 80.0645 13.5188Z" fill="#F4F1A4" stroke="#F8E26A" stroke-width="1.03982" stroke-linecap="round"/>
<path d="M75.2665 16.9463L82.1197 27.4M66.0146 28.0855L82.1197 21.2306M71.6686 20.7165L82.1197 37.8537M67.0426 23.6298L73.2105 33.2267L82.2911 27.4" stroke="#F8E26A" stroke-width="0.693213" stroke-linecap="round"/>
<path d="M58.4766 29.1139C60.5325 27.1717 65.0899 24.8296 66.8718 30.999C69.4417 30.3135 74.6502 30.2793 74.9243 35.6261C77.894 35.2833 83.3195 36.1402 81.2635 42.3096" stroke="#FD83C1" stroke-width="1.03982"/>
<path d="M66.8718 31.2153C65.0899 25.0459 60.5325 27.388 58.4766 29.3302L81.2635 42.5259C83.3195 36.3565 77.894 35.4997 74.9243 35.8424C74.6502 30.4956 69.4417 30.5298 66.8718 31.2153Z" fill="#FAB2CD"/>
<mask id="path-16-inside-1_1784_464" fill="white">
<path d="M54.377 57.5405C57.6867 57.5405 60.37 60.2241 60.3701 63.5347C60.3701 66.8453 57.6868 69.5288 54.377 69.5288C52.3924 69.5288 50.6336 68.564 49.543 67.0776C48.4523 68.5635 46.6951 69.5297 44.7109 69.5298C41.4011 69.5298 38.7178 66.8453 38.7178 63.5347C38.7179 60.2242 41.4012 57.5405 44.7109 57.5405C46.6949 57.5406 48.4523 58.506 49.543 59.9917C50.6336 58.5055 52.3925 57.5405 54.377 57.5405Z"/>
</mask>
<path d="M54.377 57.5405C57.6867 57.5405 60.37 60.2241 60.3701 63.5347C60.3701 66.8453 57.6868 69.5288 54.377 69.5288C52.3924 69.5288 50.6336 68.564 49.543 67.0776C48.4523 68.5635 46.6951 69.5297 44.7109 69.5298C41.4011 69.5298 38.7178 66.8453 38.7178 63.5347C38.7179 60.2242 41.4012 57.5405 44.7109 57.5405C46.6949 57.5406 48.4523 58.506 49.543 59.9917C50.6336 58.5055 52.3925 57.5405 54.377 57.5405Z" fill="#FDFFFB"/>
<path d="M54.377 57.5405L54.377 56.7141H54.377V57.5405ZM60.3701 63.5347H61.1966V63.5346L60.3701 63.5347ZM54.377 69.5288V70.3553H54.377L54.377 69.5288ZM49.543 67.0776L50.2093 66.5887L49.5431 65.6808L48.8767 66.5886L49.543 67.0776ZM44.7109 69.5298V70.3562H44.711L44.7109 69.5298ZM38.7178 63.5347L37.8913 63.5346V63.5347H38.7178ZM44.7109 57.5405L44.711 56.7141H44.7109V57.5405ZM49.543 59.9917L48.8768 60.4808L49.5431 61.3884L50.2093 60.4807L49.543 59.9917ZM54.377 57.5405L54.377 58.367C57.2302 58.367 59.5436 60.6804 59.5437 63.5347L60.3701 63.5347L61.1966 63.5346C61.1965 59.7678 58.1433 56.7141 54.377 56.7141L54.377 57.5405ZM60.3701 63.5347H59.5437C59.5437 66.389 57.2302 68.7023 54.377 68.7023L54.377 69.5288L54.377 70.3553C58.1433 70.3553 61.1966 67.3016 61.1966 63.5347H60.3701ZM54.377 69.5288V68.7023C52.6668 68.7023 51.151 67.8721 50.2093 66.5887L49.543 67.0776L48.8766 67.5666C50.1162 69.2559 52.118 70.3553 54.377 70.3553V69.5288ZM49.543 67.0776L48.8767 66.5886C47.9346 67.8721 46.42 68.7033 44.7109 68.7033L44.7109 69.5298L44.711 70.3562C46.9702 70.3562 48.97 69.2549 50.2092 67.5667L49.543 67.0776ZM44.7109 69.5298V68.7033C41.8578 68.7033 39.5442 66.3891 39.5442 63.5347H38.7178H37.8913C37.8913 67.3015 40.9444 70.3562 44.7109 70.3562V69.5298ZM38.7178 63.5347L39.5442 63.5347C39.5444 60.6805 41.8578 58.367 44.7109 58.367V57.5405V56.7141C40.9446 56.7141 37.8915 59.7679 37.8913 63.5346L38.7178 63.5347ZM44.7109 57.5405L44.7109 58.367C46.4201 58.367 47.9347 59.1976 48.8768 60.4808L49.543 59.9917L50.2092 59.5026C48.9699 57.8145 46.9698 56.7141 44.711 56.7141L44.7109 57.5405ZM49.543 59.9917L50.2093 60.4807C51.151 59.1973 52.6669 58.367 54.377 58.367V57.5405V56.7141C52.118 56.7141 50.1162 57.8136 48.8767 59.5027L49.543 59.9917Z" fill="#FAD699" mask="url(#path-16-inside-1_1784_464)"/>
<path d="M53.3457 59.1038C53.3457 60.7128 51.2796 62.1885 49.5764 62.1885C47.8732 62.1885 45.8071 60.7128 45.8071 59.1038C45.6358 56.5332 47.8732 56.3618 49.5764 56.3618C51.2796 56.3618 53.517 56.3618 53.3457 59.1038Z" fill="#5E3916"/>
<ellipse cx="38.624" cy="55.1246" rx="2.35061" ry="2.35118" fill="#603C1F"/>
<ellipse cx="59.6758" cy="55.1246" rx="2.35061" ry="2.35118" fill="#603C1F"/>
</svg>
