<svg width="105" height="108" viewBox="0 0 105 108" fill="none" xmlns="http://www.w3.org/2000/svg">
<mask id="mask0_1784_458" style="mask-type:alpha" maskUnits="userSpaceOnUse" x="0" y="0" width="105" height="108">
<rect width="104.766" height="107.786" rx="17.662" fill="#FAFAFA"/>
</mask>
<g mask="url(#mask0_1784_458)">
<path d="M53.9518 33.8267C58.6951 21.0532 66.876 10.3337 82.3856 13.4081C97.025 16.3096 104.192 41.9416 90.8712 49.7903C97.0632 59.991 99.0216 74.5585 90.9871 84.3487C80.7064 94.6862 66.2785 95.9658 52.5218 95.9178C42.2697 95.8794 34.9213 95.5793 25.2206 91.8029C7.67074 84.9681 5.94378 68.8184 12.2892 53.2761C9.98514 49.9752 10.5949 49.8359 9.56575 46.0908C8.62281 43.1468 7.16086 40.6968 6.96618 37.5286C6.25177 25.8997 13.8657 13.7785 26.1527 12.8698C26.8371 12.8463 27.522 12.8509 28.206 12.8828C38.0027 13.3509 44.3109 19.4015 48.5551 27.791C49.4311 29.5222 49.9393 32.186 51.1146 33.4882C51.9721 33.9362 52.9472 33.8226 53.9518 33.8267Z" fill="#713C37"/>
<path d="M26.4254 15.7292C28.5708 15.6043 31.9415 16.3147 33.9275 17.1343C41.6638 20.327 44.6148 26.3903 47.6587 33.4792C46.8879 33.9725 46.6618 34.0464 46.1615 34.7772C46.0611 35.6643 45.9531 35.2818 46.4467 35.9766C48.3371 36.8819 56.4088 36.4745 58.5787 36.0078L58.7525 35.3688C58.5155 34.4601 58.1082 34.1523 57.4667 33.459C57.6609 32.847 57.8765 32.2418 58.113 31.6448C60.5486 25.3642 64.0798 20.2929 70.3796 17.4166C80.0352 13.0082 89.4193 18.0207 93.3538 27.4548C96.0597 33.943 95.7541 44.7981 87.9897 47.7164C85.182 48.7511 82.0764 48.6191 79.3686 47.3443C74.5482 45.1111 70.8653 39.8125 69.9017 34.643C69.5642 32.8329 69.6902 30.8948 69.0821 29.2114C66.2773 26.5041 66.1592 31.0335 66.2871 32.7892C66.7634 38.6261 69.5375 44.0351 73.9999 47.8268C78.7773 51.8648 82.5061 51.8552 88.2845 51.3271C92.4759 58.4692 94.0058 65.705 92.741 73.9563C91.853 79.7469 87.9079 83.6672 83.2685 86.8338C86.3881 79.7925 85.0894 73.5818 80.071 67.8801C68.6923 56.383 48.4226 55.2643 33.9992 61.2109C23.4326 65.5658 17.1364 76.0257 22.1008 87.1147C12.1797 79.8981 10.3836 72.8232 12.6831 60.9804C20.4504 66.0027 23.8335 60.8723 27.8427 54.8801C31.7717 57.3625 37.3171 60.8676 41.7816 57.0768C43.0311 56.0301 43.7763 54.5008 43.8305 52.8731C43.9335 50.2371 42.5964 48.6119 40.9227 46.8425C43.0734 42.7351 41.3774 39.3295 38.3541 36.3483C38.6256 34.2832 39.28 30.465 38.067 28.8578C36.577 27.9464 35.5668 28.7528 35.587 30.4482C35.9014 37.4596 30.0973 47.4787 22.6988 48.2902C7.27104 49.9803 7.39899 29.3912 15.5391 21.3284C19.2909 17.612 21.4848 16.3473 26.4254 15.7292Z" fill="#EB709B"/>
<path d="M23.9112 84.6365C23.5531 83.7266 23.296 82.7783 23.1452 81.8108C22.5165 77.78 23.5557 73.6652 26.0237 70.4146C37.7988 54.9275 79.7483 57.0041 82.4278 78.99C82.4273 81.3427 82.3176 82.1565 81.4431 84.3364C79.4076 87.6398 76.1613 90.0141 72.3979 90.9528C62.0668 94.6739 40.1724 94.1962 29.746 89.8845C27.551 88.8497 25.1442 86.7635 23.9112 84.6365Z" fill="white"/>
<path d="M73.2745 81.271C74.5088 81.5039 75.7446 81.7295 76.9817 81.948C77.425 82.3825 77.3814 82.3873 77.9753 82.5362C79.2488 82.6418 80.3835 83.5829 81.4436 84.3367C79.4082 87.6401 76.1619 90.0144 72.3985 90.9531C72.5985 90.7178 72.9984 90.3913 73.243 90.1753C73.1206 88.3243 70.6761 88.5332 69.906 87.0399C68.4512 84.2167 71.2522 82.8219 73.1213 81.8184L73.2745 81.271Z" fill="#F6C4D4"/>
<path d="M28.2953 81.7002C29.0892 81.9739 31.1388 81.4673 32.0798 81.2944L32.1772 81.8778C33.7455 82.9125 37.4631 83.8128 36.1454 86.5328C35.2291 88.4246 30.4061 89.1256 29.746 89.8842C27.5509 88.8495 25.1441 86.7633 23.9111 84.6363C25.3234 83.2798 26.2601 82.9293 28.0934 82.2211L28.2953 81.7002Z" fill="#F6C4D4"/>
<path d="M28.2955 81.7008C28.1097 80.4837 27.9409 80.7021 28.429 79.8739C30.5566 78.4983 38.3364 77.4443 40.3821 79.1657L40.1126 79.7658C38.3196 80.7573 34.4429 80.8798 32.08 81.2951C31.139 81.468 29.0894 81.9745 28.2955 81.7008Z" fill="#694234"/>
<path d="M73.2739 81.2709C72.3821 81.1244 71.4086 81.0188 70.5305 80.858C69.0446 80.5819 66.5902 80.9588 65.6427 79.7848L65.5361 79.103C66.9049 77.2545 75.3422 78.8221 77.0308 79.9265C77.3388 80.7019 77.1647 81.0044 76.9811 81.9479C75.7441 81.7294 74.5083 81.5037 73.2739 81.2709Z" fill="#694234"/>
<path d="M82.4277 78.9907C82.4272 81.3434 82.3175 82.1573 81.443 84.3371C80.3829 83.5833 79.2481 82.6422 77.9746 82.5366L78.2833 82.4838C80.2047 82.1621 81.1323 80.532 82.4277 78.9907Z" fill="#EAE6E6"/>
<path d="M45.8223 86.2041C48.9893 86.689 51.8902 86.9531 55.0866 86.7538C56.4585 86.6674 57.6777 86.3193 58.9846 86.3289L59.2326 86.6722C59.1987 87.9374 58.5122 88.9625 57.6787 89.8532C53.1428 93.1086 47.2681 92.1195 45.8223 86.2041Z" fill="#231008"/>
<path d="M57.1208 87.5415C57.6156 87.4119 57.4173 87.4335 57.9437 87.5367C57.8765 88.449 56.2341 89.7598 55.4788 90.1511C53.5156 91.1642 51.7517 90.7753 49.7501 90.1871C48.6053 89.27 48.1818 88.7299 47.2314 87.5943C50.7416 87.8128 53.6306 87.7696 57.1208 87.5415Z" fill="white"/>
<path d="M50.961 80.2645C52.8049 80.0749 54.681 79.9404 55.8145 81.7554C56.7889 83.3159 55.0665 84.4466 53.9831 85.0324C50.2082 85.3061 47.08 82.8789 50.961 80.2645Z" fill="#1C1206"/>
<path d="M52.0978 80.9832C53.5812 80.9112 55.0354 81.2953 54.9207 83.0574C54.4449 83.8257 54.2651 83.8233 53.3838 84.1978C52.0553 84.1354 50.2904 84.1738 50.2139 82.4861C50.6311 81.6434 51.2454 81.4466 52.0978 80.9832Z" fill="#FEDC22"/>
<path d="M37.5958 38.8789C41.6081 43.1325 37.9069 45.1244 38.899 47.7661C39.8888 50.3997 44.5317 52.9109 38.718 56.2311C37.2179 57.0857 34.5809 56.087 33.3317 55.4508C29.5181 53.0909 32.1275 53.2422 32.1076 49.437L32.1033 49.1082C33.4402 49.185 34.7631 49.5211 35.7231 48.4768L35.6304 48.0302C34.3087 47.0147 33.5424 47.2308 31.8601 47.2932C34.5799 44.0995 35.4576 42.5282 37.5958 38.8789Z" fill="#A4D8F1"/>
<path d="M15.1719 50.5229C19.4787 52.0066 17.2464 53.6967 21.2626 51.7449L21.6193 51.5697C22.624 53.4374 23.0685 54.0736 24.7182 55.406C23.1266 58.0156 21.5113 60.0634 18.5043 60.7572C14.9628 61.5711 13.5104 57.4851 14.6123 54.7842C15.0679 53.6655 15.0931 52.9141 14.5151 51.8866L15.1719 50.5229Z" fill="#A4D8F1"/>
<path d="M29.1207 49.2739L29.3639 49.3339C30.1045 50.6904 29.3241 52.1188 28.0568 52.8126C27.0654 53.3575 26.21 53.0238 25.2162 52.731C24.7253 52.4213 24.7483 52.4309 24.3779 51.9795L24.5241 51.4946C25.3465 50.856 27.9536 49.8429 29.1207 49.2739Z" fill="#A4D8F1"/>
<path d="M11.5049 48.6069C12.6927 49.1759 13.9943 49.9009 15.1717 50.5227L14.515 51.8863C13.6342 51.2957 12.1655 49.4352 11.5049 48.6069Z" fill="#EAE6E6"/>
</g>
</svg>
