<svg width="105" height="108" viewBox="0 0 105 108" fill="none" xmlns="http://www.w3.org/2000/svg">
<mask id="mask0_1784_461" style="mask-type:alpha" maskUnits="userSpaceOnUse" x="0" y="0" width="105" height="108">
<rect width="104.766" height="107.786" rx="17.662" transform="matrix(-1 0 0 1 104.766 0)" fill="#FAFAFA"/>
</mask>
<g mask="url(#mask0_1784_461)">
<path d="M59.8465 15.0469L59.6828 15.0332C53.372 14.5162 51.3851 15.059 45.3466 15.9923C37.7462 17.167 31.9492 17.7913 25.7898 23.0427C16.2272 31.196 14.0887 44.4591 13.7495 56.3562C13.528 58.9573 14.0542 61.7349 14.0372 64.2812C14.0032 69.3445 12.3489 71.7052 16.0027 75.992C15.9618 77.4017 15.8343 78.924 15.743 80.3419C15.0942 80.896 13.0325 82.5745 12.6143 83.1642C8.74477 88.6386 14.0002 97.2233 20.0129 98.367C22.9403 98.9265 25.8606 98.1997 28.3709 100.375C29.5552 101.4 29.4172 103.084 29.4674 104.491C30.5267 105.619 31.0252 103.968 32.5177 105.808C32.6806 105.764 32.8437 105.72 33.0066 105.676C35.4484 101.447 36.45 97.2178 39.4512 93.271C41.0429 91.3402 41.0333 89.9469 43.3537 88.1093C54.1041 90.8766 69.6416 89.5986 79.8965 85.4516C82.4896 84.4039 84.6564 80.2021 87.9721 79.3162C89.8558 78.8115 91.3207 75.6162 91.8628 73.8417C92.8913 70.4764 92.3344 66.4803 92.5853 62.9825C92.8304 60.3781 93.5299 57.7377 93.7624 54.9851C94.6668 44.271 90.6702 37.8849 85.8344 28.9513C88.065 27.3035 92.1792 22.1623 90.8934 19.2981C90.727 19.1629 90.537 19.0082 90.3231 18.8343C87.252 19.7828 85.1546 23.1371 81.3871 22.452C78.5908 21.9435 76.3925 19.9917 73.8081 18.8033C68.7123 16.4597 65.2304 15.8396 59.8465 15.0469Z" fill="#0A0B0B"/>
<path d="M59.4778 16.6932C57.6603 16.4727 55.6885 16.5827 53.8931 16.5709C50.8494 16.425 47.3407 17.7851 44.4725 17.971C18.7577 19.6386 14.6671 41.9033 15.8001 64.0849C18.1942 62.5556 18.5175 62.7473 21.1803 62.1982C22.0956 62.0093 21.0097 61.868 21.3755 60.7578L22.1735 60.5556C24.4732 61.0189 26.5519 64.6217 27.1744 66.5984C29.6312 74.3547 26.2547 81.4391 24.3298 88.7841C23.3413 92.558 24.7789 94.9442 27.7406 97.0232C29.3702 97.1219 32.4037 97.5306 33.296 95.8054C31.6848 94.8921 28.4593 97.7856 26.9726 91.3183C26.0183 87.1659 29.8383 83.2932 31.3823 79.9005C34.0207 74.1024 33.9527 66.456 32.0075 60.5049C30.597 60.6928 30.3288 60.8044 29.263 59.8456C29.294 59.5299 29.2622 59.2315 29.6779 59.1632C37.4806 57.8818 40.6891 55.4018 43.5402 48.0857C43.7245 47.6125 44.234 47.2135 44.8205 47.1246C46.2159 48.296 46.6574 53.1926 46.6724 55.0365C46.6993 55.3618 46.6431 55.2063 46.9428 55.4663C49.2585 54.3889 52.6084 49.0396 54.0905 46.7842C56.3667 50.8945 56.1709 52.5063 55.7914 57.014C56.0823 56.9207 56.371 56.8206 56.6576 56.7139C64.4085 53.811 62.9686 46.578 66.2528 45.3487C69.0546 46.0404 70.8523 53.5642 71.1775 56.1092C75.2596 53.5025 74.8976 52.7263 76.8431 48.6976C77.5259 48.4943 77.1845 48.4918 77.8969 48.7793C79.162 51.3127 81.479 54.0626 82.9921 56.5694C85.1446 60.1346 87.0001 63.775 88.9039 67.4697C89.1787 66.7629 89.4419 66.0517 89.6934 65.3362C93.1546 55.449 93.564 46.8662 88.7268 37.3981C87.664 35.3181 85.0662 28.4172 82.2981 29.8686C82.5638 31.1072 84.1084 31.9139 84.8663 33.4613L84.6445 34.0117C82.8056 35.2745 75.6689 35.7114 74.8354 33.2613C75.9777 32.4254 79.2111 33.4437 82.1898 32.9846C81.3488 31.8675 79.6863 29.6412 79.7357 28.2457C82.2485 26.2515 86.3377 30.4023 89.1016 21.6128C80.0927 26.1251 80.2034 23.7077 72.3796 19.7132C69.2051 18.0925 63.1373 17.1353 59.4778 16.6932Z" fill="#FC8409"/>
<path d="M66.2836 47.7754C66.1186 48.1594 65.9513 48.5425 65.7816 48.9243C63.937 53.0713 61.5144 57.0117 57.0353 58.6974C55.9648 59.1006 54.438 59.5454 53.3445 59.0463C53.0725 58.023 54.4973 55.5504 54.4252 53.8488C54.3613 52.3434 54.2124 51.8914 53.8521 50.4328C52.2269 52.619 47.8785 58.8576 45.0095 58.6343C43.5001 57.1659 45.3918 53.7515 44.3227 50.9778C40.6242 56.8628 40.7111 57.5424 33.9089 60.0616C35.5915 66.5004 35.6024 75.9792 32.5067 82.035C34.8931 83.3982 37.3231 84.3499 39.8967 85.2824C52.0643 88.6532 69.2228 89.2347 80.7501 82.7125C83.3923 81.2177 84.5132 76.3357 84.8593 73.4586C85.9769 64.1718 83.3098 58.925 77.4459 51.867C76.4064 53.9281 74.9199 55.7312 73.0951 57.1445C72.2572 57.7808 71.6076 58.19 70.5357 58.0326C70.0158 57.6327 67.9752 50.2691 66.2836 47.7754Z" fill="#F0CE9C"/>
<path d="M67.9755 73.812C66.8773 74.3167 66.9489 75.7182 66.7731 76.8564C66.7068 76.9387 66.6391 77.021 66.57 77.1005C62.9507 81.316 57.3976 80.847 53.4027 77.4104C53.1148 76.0446 53.038 74.6348 51.5883 74.0808L51.0525 74.5663C50.968 74.9859 51.0692 75.8032 51.1021 76.2668C55.7721 87.7505 73.0187 78.9656 67.9755 73.812Z" fill="#0A0B0B"/>
<path d="M75.8036 66.1289C75.3136 66.1157 74.8233 66.1182 74.3336 66.1368C71.1092 66.2847 70.4097 70.6607 73.2524 72.9124C78.1269 73.5954 78.7524 69.3834 75.8036 66.1289Z" fill="#0A0B0B"/>
<path d="M45.4331 66.1416C41.3554 66.6164 40.3044 71.4561 44.6061 73.2773C49.3026 72.5889 49.2259 68.6287 45.4331 66.1416Z" fill="#0A0B0B"/>
<path d="M40.9933 73.4089C39.3961 73.3403 37.6305 73.1922 37.1591 75.0737C37.4328 75.9431 37.7654 76.1296 38.4531 76.6919C40.0961 76.7385 41.9514 76.9223 42.4291 74.9201C42.114 74.0095 41.7929 73.8971 40.9933 73.4089Z" fill="#F28D87"/>
<path d="M80.184 72.8248C78.507 72.7123 76.731 72.375 76.1277 74.2784C76.2851 75.2356 76.4801 75.3865 77.1228 76.0913C78.6578 76.1626 80.2208 76.3848 81.0941 74.912C80.9573 73.6256 80.9784 73.9767 80.184 72.8248Z" fill="#F28D87"/>
<path d="M43.4692 62.3954C42.6565 62.2914 42.5534 62.2846 41.8223 62.6453C41.9383 62.9832 42.0469 63.1913 42.2018 63.5111C44.195 64.7613 44.4667 64.7182 46.8315 64.9878C47.1559 65.2034 47.4419 65.1598 47.8392 65.168L48.307 64.6458L48.2645 64.0399C47.7163 63.3811 44.7273 62.7945 43.4692 62.3954Z" fill="#0A0B0B"/>
<path d="M76.393 61.9678C75.3379 62.0997 72.0033 63.1631 71.108 63.7486C70.7126 64.0073 70.8026 64.3191 70.7156 64.9121C72.275 64.9878 75.0437 64.75 76.1959 63.5369C76.58 63.1326 76.4216 62.5037 76.393 61.9678Z" fill="#0A0B0B"/>
<path d="M18.3994 77.9121L18.1535 78.0602C17.718 78.318 17.6464 79.7113 17.2505 80.5478C16.2782 82.5966 14.7665 83.3728 13.3022 85.2269L13.11 85.471C12.863 91.2361 15.3695 95.6656 21.2254 97.1001L24.6332 97.1467C19.0528 89.0612 25.1174 85.3585 23.8958 82.5692C20.5571 81.5434 21.6676 79.8375 18.3994 77.9121Z" fill="#FC8409"/>
<path d="M20.4843 63.8628C10.6853 67.0811 17.2911 77.5692 20.7151 76.9905C21.0612 76.5516 21.4031 76.1101 21.7406 75.6657C23.8912 74.8155 23.8076 75.4244 25.8913 75.1035C26.5908 73.7788 26.2209 69.6428 25.6757 68.1861C24.4311 65.3137 23.3165 64.8674 20.4843 63.8628Z" fill="#F0CE9C"/>
<path d="M25.6757 68.1862C24.566 68.5578 24.2109 67.676 23.1569 67.8502C18.3422 68.6467 19.6951 72.6379 21.7406 75.6658C23.8912 74.8156 23.8076 75.4244 25.8913 75.1036C26.5908 73.7788 26.2209 69.6428 25.6757 68.1862Z" fill="#D7AE78"/>
<path d="M31.3334 83.3374C29.5039 86.0499 27.0024 91.837 30.3126 94.2397C32.5813 94.577 33.4209 92.6599 34.9998 92.1278L35.4827 92.5282C35.8841 93.5622 35.7832 93.9736 35.6941 95.0762L36.0453 95.3505C37.9338 92.2539 39.3599 90.4245 41.7787 87.723C37.4539 86.2666 35.3672 85.4575 31.3334 83.3374Z" fill="#FC8409"/>
<path d="M91.0164 67.5386C90.5248 68.0575 89.4636 70.2083 89.0753 70.9626C88.3693 70.1233 87.5222 68.7742 86.8919 67.8304C86.9681 71.4782 86.834 73.3131 86.1022 76.8786C85.9818 77.8111 85.8255 77.737 86.2203 78.3185C89.6739 77.7617 91.1415 70.521 91.0164 67.5386Z" fill="#FC8409"/>
<path d="M34.6068 98.1207L34.2383 97.4131C32.8149 98.7515 31.1661 98.8036 29.2412 99.0861C30.9736 100.954 31.3695 102.139 32.1579 104.492C32.6402 103.228 34.0927 99.1026 34.6068 98.1207Z" fill="#FC8409"/>
<path d="M25.5121 76.9525C23.8778 76.8208 23.2863 76.5383 22.3461 77.9535C22.2438 79.015 22.3335 79.207 22.6571 80.1724C23.786 80.6304 23.6924 80.806 24.6895 80.5948C25.5962 79.4428 25.4665 78.4884 25.5121 76.9525Z" fill="white"/>
<path d="M35.694 95.0762C35.2196 95.8441 34.7321 96.6642 34.2385 97.413L34.6071 98.1206C35.0548 97.4623 35.6721 96.1129 36.0453 95.3504L35.694 95.0762Z" fill="#6B3915"/>
</g>
</svg>
