<svg width="105" height="108" viewBox="0 0 105 108" fill="none" xmlns="http://www.w3.org/2000/svg">
<mask id="mask0_1784_457" style="mask-type:alpha" maskUnits="userSpaceOnUse" x="0" y="0" width="105" height="108">
<rect width="104.766" height="107.786" rx="17.662" fill="#FAFAFA"/>
</mask>
<g mask="url(#mask0_1784_457)">
<path d="M72.4303 16.8105C76.295 16.8747 80.8243 17.6638 83.9454 19.8557C98.2611 29.9101 96.0858 51.1863 87.3161 64.2168C81.066 74.1369 72.5222 81.7288 62.6886 87.9673C55.1537 92.75 54.4155 93.1915 46.0136 89.552C41.2111 87.4707 37.9481 85.8335 33.5107 82.8798C29.8983 80.3334 26.2596 78.0866 22.8442 75.1986C11.2871 65.6122 5.95649 46.7904 16.6992 34.7076C23.7086 26.824 34.4355 25.9694 43.1211 31.2193C45.8429 32.8654 47.477 34.1268 49.7785 36.2112C53.4776 26.1549 61.2857 17.6257 72.4303 16.8105Z" fill="#020101"/>
<path d="M71.6677 19.1546C74.4341 18.8673 79.749 20.0018 82.0373 21.4868C95.2023 30.0257 93.76 49.4396 86.3959 61.3101C80.3664 71.4405 71.9672 79.4817 61.9391 85.5967C54.5461 90.1061 54.5198 90.6449 46.3413 87.1656C41.5177 85.1159 38.4544 83.2685 33.996 80.3962C22.3075 73.6006 12.3819 63.0366 13.4013 48.5206C13.8111 42.7175 16.1231 38.3823 20.4081 34.552C27.9114 27.848 37.6137 29.6663 45.0776 35.3592C46.8878 36.6884 49.2969 39.8022 50.8969 39.917C51.4302 39.3281 52.8095 35.0166 53.3875 33.7476C54.2755 31.8219 55.3947 30.0118 56.7188 28.3581C60.7857 23.2703 65.1653 19.8982 71.6677 19.1546Z" fill="#E00021"/>
<path d="M51.5233 64.1113C55.761 64.2769 60.6582 65.4699 61.0417 70.6836C61.1573 72.3102 60.624 73.9159 59.5547 75.1457C57.4687 77.5581 54.5525 77.8602 51.6048 78.0495C39.3672 78.0153 38.9468 65.1809 51.5233 64.1113Z" fill="#020101"/>
<path d="M49.2082 66.7081C52.5053 66.3297 57.5575 66.5347 58.653 70.5395C58.8763 71.3253 58.7555 72.1688 58.322 72.8599C57.3604 74.3814 55.4794 75.0752 53.8452 75.5219C45.0309 76.4837 40.5068 69.964 49.2082 66.7081Z" fill="#FEE23B"/>
<path d="M52.3399 69.8948C53.7113 69.8264 54.6807 69.5978 55.4847 70.8303C55.0564 72.7828 53.0072 72.407 51.4335 72.3781C49.8966 72.4201 49.0611 72.6199 47.9209 71.5976C47.9288 69.7056 51.0473 69.9184 52.3399 69.8948Z" fill="#020101"/>
<path d="M43.7332 58.9402C44.4399 58.9428 45.6878 58.9034 46.3341 59.0242L46.5022 59.7889C47.406 60.2593 47.8973 61.2684 47.7082 62.2697C47.519 63.2735 46.694 64.033 45.6799 64.1407C44.6658 64.2484 43.699 63.6755 43.3049 62.7348C42.9109 61.794 43.1788 60.7061 43.9644 60.057L43.7332 58.9402Z" fill="#020101"/>
<path d="M43.7324 58.9402C44.4391 58.9428 45.687 58.9034 46.3333 59.0242L46.5015 59.7889C45.6792 59.3606 44.6808 59.4684 43.9636 60.057L43.7324 58.9402Z" fill="#CD2A25"/>
<path d="M55.5815 58.7218C54.6567 58.5694 54.4991 58.6114 53.8738 57.9833C53.7529 57.0977 53.6872 57.5103 54.0892 56.7062C55.5788 55.7733 59.052 55.7733 60.3499 57.0347C60.4602 58.1909 59.6353 58.3013 58.6868 58.6456L58.0852 59.6126C57.3365 59.1764 56.4064 59.1974 55.6787 59.6678L55.5815 58.7218Z" fill="#020101"/>
<path d="M55.582 58.7219C56.6618 58.672 57.605 58.6378 58.6874 58.6457L58.0858 59.6127C57.337 59.1765 56.407 59.1975 55.6792 59.6679L55.582 58.7219Z" fill="#CD2A25"/>
<path d="M55.6785 59.668C56.4062 59.1976 57.3363 59.1766 58.085 59.6128C58.973 60.1331 59.4091 61.179 59.1517 62.175C58.8916 63.1709 58.0036 63.8752 56.9763 63.8988C55.9464 63.9198 55.0296 63.2576 54.7274 62.2748C54.4253 61.2893 54.8141 60.2251 55.6785 59.668Z" fill="#020101"/>
<path d="M43.733 58.94C42.5245 58.7193 42.6217 58.9348 41.8913 58.2279C41.8414 57.1847 41.71 57.5341 42.2407 56.7694C43.7514 55.989 47.151 56.0494 48.3254 57.3712L48.3779 57.9309C47.6764 58.7403 47.44 58.8008 46.3339 59.0241C45.6876 58.9032 44.4397 58.9427 43.733 58.94Z" fill="#020101"/>
</g>
</svg>
