<svg width="105" height="108" viewBox="0 0 105 108" fill="none" xmlns="http://www.w3.org/2000/svg">
<mask id="mask0_1784_462" style="mask-type:alpha" maskUnits="userSpaceOnUse" x="0" y="0" width="105" height="108">
<rect width="104.766" height="107.786" rx="17.662" fill="#FAFAFA"/>
</mask>
<g mask="url(#mask0_1784_462)">
<path d="M50.6279 99.8351C38.901 99.4441 33.4719 88.5941 32.2232 83.218C17.4995 88.5616 10.344 77.516 8.60668 71.3253C6.00072 62.9842 11.3212 54.7082 14.3072 51.6129C4.79542 40.7955 9.36673 30.7058 12.8413 27.0131C17.5321 18.4113 29.2372 19.3019 34.5034 20.8225C37.218 15.5006 45.4485 5.31318 56.6542 7.1378C67.8598 8.96242 71.8556 17.9986 72.4528 22.2887C83.1373 19.0304 91.3461 25.8185 94.1149 29.6198C102.193 42.7831 94.3321 51.613 89.3916 54.3825C95.255 60.117 94.9836 66.5466 94.1149 69.0446C91.2484 82.2079 78.1534 83.1094 71.9642 81.9147C66.7523 97.2936 55.5683 100.27 50.6279 99.8351Z" fill="#FF8F57" stroke="#F15B2C" stroke-width="0.988489" stroke-linecap="round"/>
<mask id="path-3-inside-1_1784_462" fill="white">
<path d="M30.4318 24.7324C33.5304 24.7325 36.178 26.6567 37.2501 29.375C42.1349 26.8981 47.7964 25.574 53.9552 25.959C59.9876 26.3361 65.4398 28.0824 70.0548 30.7725C71.3317 28.6198 73.6776 27.1759 76.3615 27.1758C80.4092 27.1758 83.6914 30.4582 83.6915 34.5068C83.6915 36.9699 82.475 39.1473 80.6124 40.4766C84.1533 45.6097 85.9928 51.6022 85.6173 57.6133C84.6626 72.8949 68.9476 81.7616 49.6818 80.5576C30.4159 79.3534 18.3747 70.8226 19.3292 55.541C19.7112 49.4266 22.2475 43.277 26.3859 38.1758C24.4075 36.863 23.1027 34.6162 23.1027 32.0635C23.1027 28.0147 26.3839 24.7324 30.4318 24.7324Z"/>
</mask>
<path d="M30.4318 24.7324C33.5304 24.7325 36.178 26.6567 37.2501 29.375C42.1349 26.8981 47.7964 25.574 53.9552 25.959C59.9876 26.3361 65.4398 28.0824 70.0548 30.7725C71.3317 28.6198 73.6776 27.1759 76.3615 27.1758C80.4092 27.1758 83.6914 30.4582 83.6915 34.5068C83.6915 36.9699 82.475 39.1473 80.6124 40.4766C84.1533 45.6097 85.9928 51.6022 85.6173 57.6133C84.6626 72.8949 68.9476 81.7616 49.6818 80.5576C30.4159 79.3534 18.3747 70.8226 19.3292 55.541C19.7112 49.4266 22.2475 43.277 26.3859 38.1758C24.4075 36.863 23.1027 34.6162 23.1027 32.0635C23.1027 28.0147 26.3839 24.7324 30.4318 24.7324Z" fill="#FECE6D"/>
<path d="M30.4318 24.7324L30.4318 23.7439H30.4318V24.7324ZM37.2501 29.375L36.3306 29.7377L36.7289 30.7476L37.6972 30.2566L37.2501 29.375ZM53.9552 25.959L54.0169 24.9724L54.0169 24.9724L53.9552 25.959ZM70.0548 30.7725L69.557 31.6265L70.4046 32.1205L70.905 31.2767L70.0548 30.7725ZM76.3615 27.1758V26.1873H76.3614L76.3615 27.1758ZM83.6915 34.5068H84.68V34.5068L83.6915 34.5068ZM80.6124 40.4766L80.0382 39.672L79.2464 40.2371L79.7988 41.0378L80.6124 40.4766ZM85.6173 57.6133L86.6039 57.6749V57.6749L85.6173 57.6133ZM49.6818 80.5576L49.6201 81.5442H49.6201L49.6818 80.5576ZM19.3292 55.541L18.3427 55.4794L18.3427 55.4794L19.3292 55.541ZM26.3859 38.1758L27.1535 38.7985L27.8389 37.9537L26.9324 37.3521L26.3859 38.1758ZM23.1027 32.0635L22.1142 32.0635V32.0635H23.1027ZM30.4318 24.7324L30.4318 25.7209C33.1103 25.721 35.4021 27.3836 36.3306 29.7377L37.2501 29.375L38.1697 29.0123C36.9538 25.9297 33.9505 23.744 30.4318 23.7439L30.4318 24.7324ZM37.2501 29.375L37.6972 30.2566C42.4314 27.856 47.9179 26.572 53.8936 26.9455L53.9552 25.959L54.0169 24.9724C47.6749 24.576 41.8384 25.9401 36.8031 28.4934L37.2501 29.375ZM53.9552 25.959L53.8935 26.9455C59.7717 27.313 65.0746 29.0137 69.557 31.6265L70.0548 30.7725L70.5526 29.9185C65.805 27.1511 60.2035 25.3592 54.0169 24.9724L53.9552 25.959ZM70.0548 30.7725L70.905 31.2767C72.0114 29.4114 74.0413 28.1644 76.3615 28.1643L76.3615 27.1758L76.3614 26.1873C73.3139 26.1874 70.6519 27.8282 69.2046 30.2682L70.0548 30.7725ZM76.3615 27.1758V28.1643C79.8632 28.1643 82.7029 31.004 82.7031 34.5069L83.6915 34.5068L84.68 34.5068C84.6798 29.9123 80.9553 26.1873 76.3615 26.1873V27.1758ZM83.6915 34.5068H82.7031C82.7031 36.6362 81.6527 38.5197 80.0382 39.672L80.6124 40.4766L81.1867 41.2812C83.2973 39.7748 84.68 37.3036 84.68 34.5068H83.6915ZM80.6124 40.4766L79.7988 41.0378C83.2276 46.0085 84.991 51.7848 84.6308 57.5517L85.6173 57.6133L86.6039 57.6749C86.9946 51.4196 85.079 45.2108 81.4261 39.9153L80.6124 40.4766ZM85.6173 57.6133L84.6308 57.5516C84.1763 64.826 80.2222 70.5924 73.9978 74.4259C67.7525 78.2723 59.2212 80.1634 49.7434 79.5711L49.6818 80.5576L49.6201 81.5442C59.4081 82.1559 68.3672 80.2156 75.0346 76.1092C81.7229 71.99 86.1037 65.6822 86.6039 57.6749L85.6173 57.6133ZM49.6818 80.5576L49.7434 79.5711C40.2212 78.9759 32.6188 76.5751 27.5362 72.5532C22.5 68.5679 19.858 62.9319 20.3158 55.6026L19.3292 55.541L18.3427 55.4794C17.8459 63.4317 20.7472 69.7019 26.3094 74.1035C31.8254 78.4684 39.8765 80.9352 49.6201 81.5442L49.6818 80.5576ZM19.3292 55.541L20.3158 55.6026C20.6837 49.7142 23.131 43.757 27.1535 38.7985L26.3859 38.1758L25.6182 37.553C21.364 42.7971 18.7388 49.1389 18.3427 55.4794L19.3292 55.541ZM26.3859 38.1758L26.9324 37.3521C25.2181 36.2146 24.0912 34.2708 24.0912 32.0635H23.1027H22.1142C22.1142 34.9615 23.5968 37.5114 25.8393 38.9994L26.3859 38.1758ZM23.1027 32.0635L24.0912 32.0635C24.0912 28.5603 26.9301 25.7209 30.4318 25.7209V24.7324V23.7439C25.8378 23.7439 22.1142 27.469 22.1142 32.0635L23.1027 32.0635Z" fill="#F59313" mask="url(#path-3-inside-1_1784_462)"/>
<path d="M46.3936 45.4221C48.2394 46.7254 52.3547 48.55 54.0486 45.4221C54.6661 44.2817 55.3516 41.9838 52.5827 41.838C51.5512 41.7837 49.6184 42.1964 50.1396 44.2817C50.954 46.2367 53.6251 48.9084 58.4462 45.9108" stroke="#603C1F" stroke-width="0.988489" stroke-linecap="round"/>
<ellipse cx="69.6843" cy="56.6631" rx="3.90895" ry="2.76951" fill="#F78F8B"/>
<ellipse cx="35.155" cy="55.0342" rx="3.90895" ry="2.76951" fill="#F78F8B"/>
<path d="M50.6281 99.8352C38.9012 99.4442 32.8073 87.9941 31.5586 82.618L72.49 81.8901C67.278 97.2691 55.5686 100.27 50.6281 99.8352Z" fill="#FF8F57" stroke="#F15B2C" stroke-width="0.988489" stroke-linecap="round"/>
<path d="M50.6275 98.8578C38.9007 98.4668 32.3767 86.9852 31.9219 81.2534L72.2165 80.9805C66.85 97.9939 55.568 99.2923 50.6275 98.8578Z" fill="#FF8F57"/>
<path d="M56.1064 53.4946C59.0973 53.4948 61.5214 55.92 61.5215 58.9116C61.5215 61.9033 59.0974 64.3284 56.1064 64.3286C54.3127 64.3286 52.7229 63.4563 51.7373 62.1128C50.7517 63.4559 49.1634 64.3285 47.3701 64.3286C44.3791 64.3286 41.9541 61.9034 41.9541 58.9116C41.9542 55.9199 44.3791 53.4946 47.3701 53.4946C49.1631 53.4947 50.7517 54.3669 51.7373 55.7095C52.7229 54.3664 54.3131 53.4946 56.1064 53.4946Z" fill="#FDFFFB"/>
<path d="M55.1744 54.9076C55.1744 56.3616 53.3073 57.6952 51.7682 57.6952C50.229 57.6952 48.3619 56.3616 48.3619 54.9076C48.2071 52.5846 50.229 52.4297 51.7682 52.4297C53.3073 52.4297 55.3293 52.4297 55.1744 54.9076Z" fill="#5E3916"/>
<ellipse cx="41.2311" cy="51.5002" rx="2.16762" ry="2.16815" fill="#603C1F"/>
<ellipse cx="60.9967" cy="51.0349" rx="2.16762" ry="2.16815" fill="#603C1F"/>
</g>
</svg>
