<svg width="105" height="108" viewBox="0 0 105 108" fill="none" xmlns="http://www.w3.org/2000/svg">
<mask id="mask0_1784_460" style="mask-type:alpha" maskUnits="userSpaceOnUse" x="0" y="0" width="105" height="108">
<rect width="104.766" height="107.786" rx="17.662" fill="#FAFAFA"/>
</mask>
<g mask="url(#mask0_1784_460)">
<path d="M51.9665 12.855C53.8444 13.1134 56.3679 17.7243 57.4324 19.4103C62.4907 18.011 63.9169 15.0131 65.4116 22.3243C68.3629 21.3509 71.1959 19.8228 74.1111 18.6455C75.5071 20.8033 75.5493 22.1863 76.0262 24.7311C78.2654 24.6999 81.7017 24.1484 84.2961 24.0374C84.1623 25.8646 83.3176 28.951 83.4986 30.4744C84.9518 32.6081 86.5677 30.3267 87.3468 32.3793C87.3258 33.6054 86.5048 34.7494 85.8752 35.8333C87.6511 35.7795 89.427 35.7619 91.2029 35.7803C90.4212 38.2981 89.0965 40.9434 87.9606 43.3471C89.6788 44.3536 92.5354 45.4312 92.462 47.5462C91.9925 48.563 90.6284 49.2992 89.6552 49.952C91.2344 51.6299 92.441 52.9592 93.8759 54.7559C92.1053 55.7596 91.2999 55.9256 89.3719 56.3992C90.0067 59.0968 92.984 64.0749 90.8514 65.8851C89.8703 66.2427 88.4774 65.8728 87.3993 65.6865C86.6018 71.583 87.4019 75.0931 85.9172 81.0177C87.1343 81.7135 87.6537 82.1281 88.7528 83.017C87.3048 87.9952 86.2162 88.944 82.1739 85.5086C83.9131 91.6906 82.5726 90.476 78.4831 90.7982C77.6542 90.8635 76.5131 93.553 74.9825 93.2743C74.1599 92.0671 74.2572 90.2595 74.2464 88.8204C69.1037 93.7392 66.7929 94.5647 59.857 95.5609C54.2075 96.4992 42.1758 95.541 36.6789 93.3026C30.9344 90.9635 27.2221 88.1096 24.7023 82.295C14.9212 81.4123 10.6701 72.8781 15.4301 64.3439C16.2271 62.9152 16.1861 61.6896 16.204 60.1211C14.5073 59.9967 13.2991 59.8385 11.6323 59.5756C12.3983 57.3451 13.5698 55.9296 14.9527 54.0535C13.4677 52.6952 11.3941 52.384 10.875 50.7612C11.5158 49.9536 15.2568 48.5853 16.4471 48.0867C15.7769 46.7213 12.2952 40.8702 12.3492 40.182C13.1207 39.1474 17.0673 38.9039 18.6706 38.6363C17.8978 36.3528 16.7866 33.9551 15.8199 31.7218C17.4573 31.6118 19.996 31.7008 21.7029 31.7123C21.5949 28.7847 21.4201 26.8407 21.8989 23.9298C24.2408 24.051 26.3425 24.6044 28.5801 25.2415C29.4717 23.1238 30.0528 22.3978 31.7054 20.8038C32.5149 21.343 33.6142 22.2947 34.3988 22.9354C34.8246 21.7206 35.3065 19.1104 35.5955 17.7329C39.5282 18.5521 40.9492 19.0837 44.2182 21.4574C46.8353 18.0827 48.613 15.4964 51.9665 12.855Z" fill="#0A0B0B"/>
<path d="M53.3441 36.7207C57.2374 37.0445 59.3396 44.6876 61.9182 45.5483L62.3641 45.1914C63.0105 43.6568 63.1408 40.8309 63.2117 39.1407C67.9751 40.6084 73.0536 41.9321 76.7389 45.436C77.434 48.5659 77.2032 51.482 76.7887 54.6114C76.5395 54.9181 76.2937 55.227 76.05 55.5382C75.2911 56.5113 75.043 56.7357 75.1754 57.8225C75.7662 58.6067 76.9697 58.9098 77.9298 59.26C78.3023 63.8166 77.6806 69.1306 78.2288 73.8117L78.5121 73.2192C83.769 62.3511 88.6323 74.8872 84.5323 80.4838C84.1861 80.9563 81.9537 81.4622 81.7098 82.9085C81.5944 83.5854 79.5719 83.3878 78.8374 83.5308C78.3285 84.1007 78.2708 84.202 77.6281 84.5877C74.9354 84.0753 79.1128 77.2011 77.5993 74.8311L77.1822 74.882C76.529 75.8166 76.0072 81.2544 75.2539 83.3889C73.5562 88.1989 71.9996 90.2121 67.5244 92.5987C57.1721 96.9013 32.1551 95.7208 26.733 83.6534C23.4779 76.4093 24.0886 65.2059 24.0196 57.2279C25.6059 55.8436 26.9374 54.6794 28.4032 53.1715C27.0106 52.361 25.5314 51.562 24.1193 50.7733C24.1744 48.4179 24.4461 46.0728 24.9312 43.7672C29.7109 39.6893 36.7307 38.4535 42.7407 36.9437C42.6646 37.109 42.5927 37.2762 42.5251 37.4449C42.0482 38.6224 41.1138 41.092 41.6101 42.2512L42.1072 42.3737C43.0741 42.0203 47.4905 38.2409 49.4022 37.0434C50.0022 37.5926 50.3348 37.9759 51.1204 38.2352C52.2691 37.9654 52.3399 37.6183 53.3441 36.7207Z" fill="#F0CE9C"/>
<path d="M63.8796 53.7227L64.7011 53.7883C65.5539 54.5712 66.13 58.0821 66.3941 59.362C69.0029 57.8623 71.0922 58.1551 73.4311 60.2512C74.0735 60.8272 74.6369 61.6783 74.6285 62.5688L74.2319 62.6187C72.7112 61.2685 71.081 60.1883 69.2046 59.4069L66.4977 60.8127L67.2097 68.9345C67.5861 68.8232 67.9636 68.7143 68.3416 68.6078C69.4911 68.2832 70.7806 67.7685 71.8346 68.358C71.1872 69.5162 68.4473 69.9473 67.1874 70.2464C67.1197 72.0482 67.1137 75.5452 66.2068 77.0596L65.9175 76.8392C65.4731 74.5851 65.7373 73.183 65.8965 70.9057L65.8498 70.7216C64.6222 69.5967 59.0225 70.2634 58.2838 68.3861C59.2987 67.6845 63.6894 68.9101 65.8666 69.0641C65.8737 66.7446 65.5112 64.0854 65.2512 61.7507C61.8949 63.3599 60.4424 64.0922 56.8452 64.936C55.3112 64.0513 53.9301 63.1697 53.0361 61.587L53.4616 61.4642C55.0214 61.9079 55.6071 62.6804 57.0462 63.6278C60.0397 62.9343 62.6574 61.6684 65.2861 60.1242C64.8963 58.2671 63.8819 55.4785 63.8796 53.7227Z" fill="#0A0B0B"/>
<path d="M34.8542 63.2294C36.1863 63.0885 37.5157 63.5181 38.5136 64.4117C39.5114 65.3054 40.0846 66.5798 40.0911 67.9195C40.1032 70.3615 38.2581 72.413 35.829 72.6584C33.8375 72.8596 31.9344 71.7875 31.0742 69.9797C30.2141 68.1719 30.5824 66.0185 31.9942 64.5993C32.762 63.8277 33.7719 63.3441 34.8542 63.2294Z" fill="#0A0B0B"/>
<path d="M48.2851 82.0824C51.2849 82.0257 65.9396 83.0057 66.571 86.053L66.2425 86.3495C65.5508 86.3091 65.0805 86.1524 64.4278 85.9412C60.9332 84.8106 57.4549 83.684 53.7686 83.4481C49.9975 83.4176 47.0721 83.3413 43.2987 83.769C41.3082 83.9943 35.8956 85.2 34.3749 85.1541L34.3516 84.8468C36.1894 82.8821 45.4932 82.164 48.2851 82.0824Z" fill="#0A0B0B"/>
<path d="M33.8382 54.8708C36.0212 54.8323 39.0048 59.9589 40.0785 61.7646C43.1056 62.9873 45.132 61.9779 46.26 62.6696L46.3904 63.3171L46.0895 63.6624C44.1402 64.3152 41.043 63.4544 39.2055 62.6683L37.6956 60.3108C36.6112 58.7189 35.4289 57.407 34.1701 55.9552C32.1397 57.3031 27.6801 61.3978 26.4031 61.794L26.3428 61.2984C27.4348 58.9621 31.4949 56.1583 33.8382 54.8708Z" fill="#0A0B0B"/>
<path d="M52.1062 13.9805C53.7819 15.1651 55.857 19.0206 56.9037 20.8194C58.4419 20.2322 61.6236 18.4932 62.9758 19.1782C64.1673 20.3516 63.9191 22.3363 63.9443 24.0399C65.6118 23.4044 72.366 20.1897 73.2421 20.3894C74.5881 21.383 74.6642 24.0441 74.9868 25.8267C77.7642 25.5995 80.5369 25.3166 83.3044 24.9784C82.8453 27.1368 82.2236 29.4597 81.6937 31.617C83.105 32.0284 84.9937 32.2459 86.4784 32.4647C85.4921 34.3378 84.2277 35.8628 82.8847 37.4783C85.4737 37.1369 87.0949 37.0249 89.7102 36.9648C88.6163 39.5897 87.6457 41.3683 86.0482 43.6894C87.47 44.417 91.0742 45.7464 91.1083 47.2467C90.2846 48.3999 88.6845 48.8701 87.3441 49.4271C89.259 51.1851 90.8329 52.6809 92.4855 54.6816C90.867 54.9925 89.2537 55.3278 87.6457 55.6875C88.9416 58.77 90.0249 61.939 90.8827 65.171C88.813 64.8835 88.1441 64.724 86.161 64.0578L85.8016 68.5862C83.1627 66.9238 81.741 67.6301 79.4168 69.365C79.4037 65.8761 79.464 62.2376 79.1309 58.775C78.4331 58.2468 77.1478 57.4765 76.3713 56.979C76.9248 56.3503 77.4888 55.73 78.0633 55.1182C78.5407 51.1418 78.6351 48.8139 77.9741 44.8992C74.2374 40.7544 67.0677 38.7587 61.7692 37.8477C61.9483 40.1323 61.9627 41.3744 61.4657 43.6078C60.0274 41.409 58.8645 39.6078 57.1907 37.5622C56.2259 36.6253 55.8119 36.1535 54.6354 35.5319C53.3915 35.5162 53.9267 35.6083 52.7318 36.1582C50.9084 36.9976 51.277 36.4878 49.4455 35.8557C47.7205 36.068 44.1553 39.2187 42.5505 40.4416C43.3744 38.8332 44.1532 37.2023 44.8861 35.5506C39.2799 35.8809 28.2392 38.9717 23.8924 43.0596C23.0356 45.4534 22.9189 48.8575 22.9087 51.3981C23.8305 52.0646 25.3847 52.8759 26.4143 53.4534L22.7539 56.598C22.7723 59.3446 22.7195 62.0915 22.5955 64.8355C20.3736 62.071 20.7653 63.2202 17.8014 61.9228C17.2641 60.9155 17.4834 60.5799 17.5115 59.2672C15.9177 58.8574 14.6134 58.7453 12.9923 58.5682C14.0479 56.8166 16.0336 55.4378 15.7146 53.4657C15.089 52.4728 13.4833 51.6479 12.4307 50.9998C13.791 50.2909 16.3245 49.3224 17.821 48.7011C16.9 46.0613 14.8524 42.7508 13.3994 40.3629C15.8185 40.0069 17.7833 39.9373 20.2351 39.8371C19.5578 37.5945 18.3139 34.6865 17.2783 32.5885C19.1132 32.673 21.153 32.8785 23.0013 33.0259C22.7447 30.3517 22.756 27.6259 22.7794 24.9438C25.0809 25.378 26.7398 25.9322 28.98 26.6561C29.8861 24.9076 30.5919 23.5327 31.6701 21.8855C32.5609 22.8573 33.8017 24.6533 35.1557 24.4505C35.752 23.6715 36.1321 19.9832 36.3296 18.7272C40.1581 19.8712 41.4637 20.8459 44.7815 23.0607C47.1827 18.9416 48.6412 17.2629 52.1062 13.9805Z" fill="#A3D5B1"/>
<path d="M17.873 63.4653C20.5748 63.4966 21.2299 65.1837 22.5637 67.1922C22.8142 70.3169 22.9853 73.3167 23.4734 76.4191C23.6321 77.4282 24.199 80.0672 24.1187 80.8633C23.5325 81.0197 22.4856 80.7243 21.8397 80.5936C20.1502 79.8991 18.7163 79.2179 17.4336 77.8939C13.5314 73.8667 13.8535 67.2888 17.873 63.4653Z" fill="#F0CE9C"/>
<path d="M83.7162 82.0859C87.7139 82.1654 88.0523 83.2383 86.0298 86.5561C84.7602 86.8287 83.2152 85.2209 82.9634 84.0378C82.7876 83.2207 83.3175 82.7188 83.7162 82.0859Z" fill="#EDE58A"/>
<path d="M79.7631 84.3979L80.3166 84.6855C80.9514 85.9436 82.4177 88.5116 81.4157 89.7345C77.5308 89.909 78.7951 86.9181 79.7631 84.3979Z" fill="#EDE58A"/>
<path d="M76.4473 85.7734C76.9037 86.671 76.8146 90.2806 76.5024 91.316C76.2653 92.0984 76.0819 92.0375 75.4298 92.3485C74.7207 90.8256 75.7456 87.2635 76.4473 85.7734Z" fill="#EDE58A"/>
</g>
</svg>
