<svg width="244" height="237" viewBox="0 0 244 237" fill="none" xmlns="http://www.w3.org/2000/svg">
<g clip-path="url(#clip0_1846_306)">
<path fill-rule="evenodd" clip-rule="evenodd" d="M7.03009 0.263082C17.9586 -0.269738 32.5478 0.170679 43.679 0.176471L114.491 0.198989H190.591C204.612 0.193196 218.615 0.0888092 232.648 0.343631C237.761 0.436296 240.936 2.04118 242.019 7.53154C243.194 13.4734 234.999 14.2788 232.631 18.0549C231.05 20.5801 233.708 25.9946 233.731 28.8207C233.905 33.7202 232.254 40.1374 233.181 44.869C234.037 49.2763 241.092 47.3134 242.035 53.5796C244.068 67.0159 237.438 78.2055 233.743 90.6399C231.212 99.171 228.727 107.806 227.002 116.551C223.179 135.61 220.81 154.932 219.912 174.35C219.536 182.869 219.693 191.377 219.571 199.885C219.502 205.028 220.828 214.475 218.013 218.593C209.98 222.988 186.902 229.671 177.595 231.397C135.016 239.314 87.665 238.984 46.0478 226.26C39.8742 224.372 31.9681 222.275 26.5879 219.143C21.2715 215.384 22.8697 196.574 23.0203 190.689C24.1786 147.217 14.6577 106.457 0.642469 65.7364C-1.12971 54.7383 0.492162 51.6739 8.94772 45.0137C9.16199 44.8165 9.49724 17.7249 9.19623 16.2187C0.0286436 12.7554 -2.62953 5.30168 7.03009 0.263082ZM143.008 16.0966C139.295 15.3148 130.731 15.7034 126.693 15.8133C125.894 20.8229 127.198 25.9312 127.325 31.1956C127.435 35.7013 126.659 42.3842 127.284 46.5077C129.763 47.2432 141.479 47.7586 143.385 46.3397C144.699 43.826 143.101 36.3152 143.049 33.0604C142.991 29.4175 144.462 18.6217 143.008 16.0966ZM86.6922 16.7107C85.2964 15.338 81.9598 15.6392 79.8749 15.6566L72.0625 15.7606C70.1283 20.301 71.8133 25.5016 72.0218 30.488C72.2303 35.5846 71.2692 41.51 72.1379 46.3864C74.2461 47.4984 83.7321 47.1508 86.738 47.1218C88.3075 42.4886 86.8363 38.1449 86.8073 33.2163C86.7784 27.8129 87.6534 21.9866 86.6922 16.7107ZM221.018 16.178C218.152 15.2631 211.973 15.5985 208.69 15.6912C206.871 20.0232 208.603 25.5891 208.782 30.3901C208.973 35.5155 208.028 41.1973 208.874 46.1258C210.287 47.649 217.747 47.111 220.22 47.0647C222.768 42.8311 220.764 37.4042 220.972 32.2904C221.128 28.5085 222.518 19.068 221.018 16.178ZM59.4779 16.0966C56.3794 15.2568 49.2906 15.68 45.6884 15.7726C44.478 20.151 45.8796 26.1856 46.0591 30.8362C46.2502 35.8748 45.4164 41.7184 46.0418 46.6238C48.1846 47.1798 57.532 47.4635 59.4432 46.8264C61.1109 43.8148 59.7902 37.4503 59.5991 33.7264C59.3385 28.8152 61.2037 20.2896 59.4779 16.0966ZM170.378 16.0914C167.338 15.3327 158.767 15.7725 155.262 15.8073C153.809 20.3652 155.285 25.4327 155.442 30.2628C155.604 35.3824 154.619 41.4579 155.5 46.3864C157.597 47.4926 167.349 47.1395 170.396 47.1105C172.342 42.3557 169.36 31.6702 170.743 25.8266C171.149 24.1179 171.108 17.5975 170.378 16.0914ZM196.348 16.2533C193.122 15.2456 186.137 15.7146 182.564 15.8073C181.353 20.0756 182.772 25.601 182.935 30.1243C183.125 35.4119 182.205 41.1339 182.981 46.2825C184.442 47.2785 193.179 47.2726 194.807 47.0525C195.404 46.9715 195.966 46.7346 196.441 46.3639C197.958 43.7925 196.307 36.182 196.336 32.6897C196.365 28.7804 197.68 19.3461 196.348 16.2533ZM114.451 16.1312C111.589 15.3842 102.132 15.7604 98.7551 15.7952C97.956 17.8916 98.136 22.4786 98.6451 24.5984C100.093 30.6099 97.3546 42.2738 99.6473 47.1503C102.439 47.1388 112.684 47.2719 114.897 46.9651C116.656 42.7257 114.521 35.9615 115.012 30.7608C115.371 26.9617 115.805 23.0004 116.164 19.2302L114.451 16.1312ZM33.5437 16.1261C30.2599 15.4253 24.955 15.7324 21.4397 15.796C19.4592 19.6879 21.272 24.9869 21.5384 29.4694C21.8801 35.064 20.8087 40.9486 21.7238 46.3579C23.699 47.4986 30.8453 47.0934 33.3471 47.0413C35.5189 42.3617 33.457 36.593 33.7698 31.2242C33.9609 27.9865 35.0378 18.3557 33.5437 16.1261Z" fill="#552E17"/>
<path d="M17.6865 67.7801L166.185 67.8091C185.459 67.9133 204.675 67.3574 223.937 67.896C221.569 75.0485 218.812 82.6412 216.634 89.7588L215.951 91.8439C214.601 96.1703 210.751 110.759 210.078 115.271C208.752 122.759 206.812 132.13 206.07 139.549L200.488 139.317C163.99 138.061 124.001 139.81 87.0797 139.242C83.2226 139.81 73.5451 139.629 69.2826 139.647C58.2035 139.739 47.1187 139.705 36.0397 139.549L32.9355 120.744L31.9856 116.012L31.2501 112.166C29.9934 108.39 28.3718 101.058 27.3409 96.9516C26.3738 92.3362 24.5669 86.7242 23.2232 82.1199L22.1286 79.3979L17.6865 67.7801Z" fill="#4C1E08"/>
<path d="M103.163 73.8731C109.342 72.4542 132.676 72.3847 138.821 73.7109C140.46 75.8365 140.796 76.1781 141.387 78.7669C145.689 79.2766 157.759 78.6106 162.96 78.7148L163.169 80.6203C163.689 82.5662 164.813 86.4118 164.934 88.184L164.714 91.5662C164.714 98.696 164.628 105.999 164.732 113.105L164.721 115.491C158.634 115.444 146.008 115.016 140.442 115.647C139.417 117.078 139.556 118.932 139.33 120.912C139.916 123.906 143.054 126.049 140.269 130.641C135.792 134.476 108.138 134.667 102.317 131.094C99.5198 129.379 103.024 119.823 102.816 116.313L102.769 115.647L102.706 112.416L102.596 110.429C102.671 103.404 102.902 95.7302 102.52 88.7804C104.315 83.0295 98.0431 81.5585 103.163 73.8731Z" fill="#4C2D1F"/>
<path d="M141.387 78.7665C145.689 79.2762 157.759 78.6101 162.96 78.7144L163.168 80.6198C163.689 82.5658 164.813 86.4113 164.934 88.1835L164.714 91.5661C164.714 98.695 164.627 105.999 164.732 113.105L164.72 115.49C158.633 115.444 146.007 115.016 140.442 115.647C139.417 117.078 139.556 118.931 139.33 120.911C138.995 114.379 139.128 98.1452 139.637 91.6814L139.382 88.2009C139.336 85.5948 140.396 83.8225 141.346 81.251C141.161 80.2433 141.294 79.8379 141.387 78.7665Z" fill="#DDA26D"/>
<path d="M141.387 78.7665C145.69 79.2762 157.759 78.6101 162.96 78.7144L163.168 80.6198C163.69 82.5658 164.813 86.4113 164.935 88.1835L164.714 91.5661C155.57 92.1453 148.545 91.6761 139.638 91.6814L139.382 88.2009C139.336 85.5948 140.396 83.8225 141.346 81.251C141.161 80.2433 141.294 79.8379 141.387 78.7665Z" fill="#DDA26D"/>
<path d="M139.383 88.202L164.935 88.1846L164.715 91.5668C155.57 92.1459 148.545 91.6768 139.638 91.683L139.383 88.202Z" fill="#BC7E54"/>
<path d="M141.387 78.7665C145.689 79.2762 157.759 78.6101 162.96 78.7144L163.168 80.6198C160.719 80.7183 141.989 80.782 141.346 81.251C141.161 80.2433 141.294 79.8379 141.387 78.7665Z" fill="#BC7E54"/>
<path d="M139.637 91.6816C140.043 98.556 139.712 105.605 139.625 112.508C147.994 112.555 156.368 112.752 164.732 113.105L164.72 115.491C158.633 115.444 146.007 115.016 140.442 115.648C139.417 117.078 139.556 118.931 139.33 120.911C138.995 114.379 139.128 98.1454 139.637 91.6816Z" fill="#A36B45"/>
<path d="M142.898 102.415C146.773 101.916 160.76 101.024 163.331 103.017C160.094 103.891 145.974 103.787 142.898 102.415Z" fill="#A36B45"/>
<path d="M117.7 90.1526C124.771 88.3575 131.97 92.6031 133.823 99.6567C135.67 106.716 131.49 113.945 124.447 115.856C117.323 117.784 109.991 113.539 108.115 106.404C106.245 99.2629 110.547 91.9654 117.7 90.1526Z" fill="#9E8070"/>
<path d="M118.915 93.1822C124.307 91.9547 129.693 95.2673 131.036 100.63C132.375 105.999 129.177 111.454 123.838 112.903C120.282 113.869 116.488 112.839 113.911 110.209C111.335 107.58 110.378 103.758 111.415 100.225C112.457 96.6917 115.325 93.999 118.915 93.1822Z" fill="#3B2C27"/>
<path d="M106.093 76.1492C114.607 75.7438 124.354 75.5816 132.913 75.9813C135.884 76.1202 137.663 76.9194 138.386 79.8557C137.842 82.0449 137.743 82.0971 136.15 83.7766C130.568 84.1646 124.377 84.0952 118.736 84.1762C114.247 84.2342 104.813 85.4156 103.701 80.0063C104.164 77.9504 104.57 77.7535 106.093 76.1492Z" fill="#9E8070"/>
<path d="M103.371 123.75C111.641 126.449 122.066 126.46 130.788 125.812C133.238 125.627 134.685 124.908 137.72 124.792C138.311 125.968 137.882 127.584 137.726 129.113C133.828 131.157 109.006 130.717 104.633 129.003C103.22 126.9 103.603 126.472 103.371 123.75Z" fill="#9E8070"/>
<path d="M105.294 86.4922C108.178 86.6254 111.253 86.8917 114.155 87.0945L113.993 87.6505L114.965 87.4999C113.75 87.83 113.812 87.8068 112.776 88.5308C112.012 90.6043 111.803 90.8065 110.141 92.2779C108.833 91.791 108.357 91.4957 106.95 91.6181C105.445 93.6216 105.665 95.3652 105.265 98.1448C104.987 95.9612 105.253 89.023 105.294 86.4922Z" fill="#5F463D"/>
<path d="M165.513 74.1975C173.83 71.6145 190.093 74.0295 198.728 72.8018C201.849 74.3481 202.648 74.794 203.876 78.0662L203.691 80.5161C203.019 84.2863 201.617 85.2998 201.357 88.074C205.209 88.2594 208.533 88.2825 212.395 88.2362L216.635 89.7589L215.952 91.844C214.602 96.1704 210.751 110.759 210.079 115.271C208.753 122.76 206.813 132.13 206.072 139.549L200.488 139.317C200.628 137.012 200.668 136.909 199.747 134.858C197.129 132.35 190.44 133.752 185.511 133.311C182.153 133.334 167.998 133.514 165.63 131.916C162.722 129.958 165.097 120.616 164.778 116.273L164.72 115.491L164.732 113.105C164.627 105.999 164.714 98.6954 164.714 91.5664L164.934 88.184C164.813 86.4118 163.69 82.5662 163.168 80.6203L162.96 78.7148C163.62 76.3751 163.95 76.1551 165.513 74.1975Z" fill="#4C2D1F"/>
<path d="M201.356 88.0732C205.208 88.2585 208.532 88.2818 212.395 88.2354L216.634 89.7584L215.951 91.8435C214.601 96.1698 210.75 110.758 210.078 115.27C208.752 122.758 206.812 132.129 206.071 139.548L200.488 139.317C200.626 137.012 200.667 136.907 199.746 134.857C197.128 132.349 190.439 133.751 185.511 133.311C194.563 131.839 206.465 136.606 202.335 122.295C202.08 119.863 202.202 116.978 202.225 114.494L201.953 112.374C202.341 109.154 202.155 98.8163 202.104 95.2776C201.97 92.5441 201.935 90.7898 201.356 88.0732Z" fill="#BC7E54"/>
<path d="M201.356 88.0732C205.208 88.2585 208.532 88.2818 212.395 88.2354L216.634 89.7584L215.951 91.8435L210.97 91.6812C209.03 98.9848 207.143 106.299 205.307 113.631L201.953 112.374C202.341 109.154 202.156 98.8163 202.104 95.2776C201.97 92.5441 201.936 90.7898 201.356 88.0732Z" fill="#E1AD84"/>
<path d="M201.356 88.0732C205.208 88.2585 208.532 88.2818 212.395 88.2354L216.634 89.7584L215.951 91.8435L210.97 91.6812L205.845 91.5251C204.195 91.4727 204.067 91.4727 202.677 92.3534C202.272 93.6794 202.249 93.8878 202.104 95.2776C201.97 92.5441 201.936 90.7898 201.356 88.0732Z" fill="#AD764F"/>
<path d="M202.226 114.494L204.924 115.056C206.662 117.778 205.7 119.944 203.494 121.954L202.336 122.295C202.08 119.863 202.202 116.979 202.226 114.494Z" fill="#D29B74"/>
<path d="M181.521 89.8408C188.796 88.9317 195.415 94.1148 196.284 101.389C197.152 108.669 191.94 115.259 184.655 116.094C177.426 116.922 170.888 111.75 170.025 104.528C169.162 97.3005 174.299 90.7383 181.521 89.8408Z" fill="#9E8070"/>
<path d="M180.93 93.3271C184.434 92.4527 188.146 93.5418 190.624 96.1768C193.098 98.8118 193.961 102.576 192.872 106.028C191.783 109.474 188.916 112.068 185.378 112.804C180.05 113.91 174.814 110.551 173.604 105.246C172.388 99.9408 175.648 94.6415 180.93 93.3271Z" fill="#3B2C27"/>
<path d="M167.1 76.1726C173.309 75.7555 194.929 74.9101 199.69 77.0818C201.838 79.6185 201.108 81.6166 198.74 83.5278C193.157 84.1996 186.827 84.1128 181.162 84.2401C176.251 84.3444 168.404 85.3058 165.641 80.6089C165.497 78.4196 165.879 78.1474 167.1 76.1726Z" fill="#9E8070"/>
<path d="M166.816 123.257L167.28 122.105C170.534 121.606 178.763 124.207 182.308 124.305C185.059 124.381 197.024 124.01 198.704 121.7C198.895 121.439 199.399 120.025 199.532 119.626C200.447 121.421 199.624 121.977 200.013 124.271L199.896 124.41C200.997 126.489 201.275 127.294 199.717 129.181C195.397 130.838 169.596 131.081 166.724 128.585C166.011 126.489 166.422 125.435 166.816 123.257Z" fill="#9E8070"/>
<path d="M166.817 123.257L167.28 122.105C170.535 121.606 178.765 124.207 182.309 124.305C185.06 124.381 197.025 124.01 198.705 121.7C198.896 121.439 199.4 120.025 199.534 119.626C200.448 121.421 199.626 121.977 200.014 124.271L199.898 124.41C191.367 126.999 175.116 127.236 166.817 123.257Z" fill="#552E17"/>
<path d="M77.7382 88.624C83.5123 88.7455 97.122 89.1739 102.52 88.7801C102.902 95.7299 102.67 103.404 102.595 110.429L102.705 112.416L102.769 115.647L102.815 116.313C103.023 119.823 99.5202 129.379 102.317 131.093C108.137 134.667 135.792 134.475 140.268 130.642C143.054 126.049 139.915 123.906 139.33 120.912C139.556 118.931 139.417 117.078 140.442 115.647C146.008 115.016 158.633 115.445 164.72 115.491L164.778 116.272C165.096 120.616 162.722 129.958 165.629 131.916C167.998 133.514 182.152 133.335 185.511 133.312C190.439 133.752 197.128 132.35 199.747 134.857C200.667 136.908 200.627 137.013 200.488 139.318C163.99 138.061 124.001 139.81 87.0798 139.242C83.2227 139.81 73.5452 139.63 69.2827 139.648C58.2036 139.74 47.1188 139.705 36.0398 139.549L32.9355 120.744L37.0359 120.437C37.4065 121.827 38.0667 124.81 38.7559 125.904L39.6363 130.387C48.1439 135.871 64.2441 132.136 74.0143 132.999C75.4042 132.536 77.2806 131.545 78.6416 130.885C80.5238 121.931 77.3965 123.854 77.7845 115.323L77.7556 112.108C77.9294 105.465 77.8308 98.435 77.8424 91.7575L77.7382 88.624Z" fill="#DDA26D"/>
<path d="M77.7383 88.624C83.5123 88.7455 97.1221 89.1739 102.52 88.7801C102.902 95.7299 102.671 103.404 102.595 110.429L102.705 112.416C94.5625 112.508 85.9332 112.236 77.7557 112.108C77.9294 105.465 77.8309 98.435 77.8425 91.7575L77.7383 88.624Z" fill="#DDA26D"/>
<path d="M77.7383 88.624C83.5123 88.7455 97.1221 89.1739 102.52 88.7801C102.902 95.7299 102.671 103.404 102.595 110.429C101.675 106.057 102.138 96.4137 102.248 91.6705C93.6703 91.8674 86.4949 91.9428 77.8425 91.7575L77.7383 88.624Z" fill="#BC7E54"/>
<path d="M82.041 104.697C85.0063 104.187 94.9447 103.608 97.0697 105.386C93.2126 106.213 85.5507 106.805 82.041 104.697Z" fill="#AD764F"/>
<path d="M32.9355 120.743L37.0359 120.437C37.4065 121.826 38.0667 124.809 38.7559 125.904L39.6363 130.387C39.6478 133.335 39.6652 136.126 39.81 139.068C49.9624 139.138 60.1148 139.132 70.273 139.062C74.5008 139.045 83.0142 138.819 87.0798 139.242C83.2227 139.809 73.5452 139.63 69.2827 139.647C58.2036 139.74 47.1188 139.705 36.0398 139.548L32.9355 120.743Z" fill="#AD764F"/>
<path d="M77.7559 112.109C85.9334 112.236 94.5628 112.508 102.705 112.416L102.769 115.648C94.4413 115.77 86.107 115.66 77.7848 115.324L77.7559 112.109Z" fill="#BC7E54"/>
<path d="M74.0137 132.999C75.4036 132.536 77.2801 131.546 78.641 130.885C83.2163 131.18 96.5363 131.291 99.6058 131.969L100.18 132.837L99.4036 133.619C92.8884 133.636 80.1699 133.631 74.0137 132.999Z" fill="#A36B45"/>
<path d="M142.759 123.727C146.894 123.535 160.012 122.25 162.566 125.174C157.625 126.86 147.328 126.686 142.759 123.727Z" fill="#BC7E54"/>
<path d="M144.909 132.373C148.546 132.159 160.134 131.551 162.729 133.207L162.213 134.174C158.982 134.511 147.081 135.431 144.7 133.856L144.909 132.373Z" fill="#BC7E54"/>
<path d="M82.0645 121.473C85.464 121.265 90.584 120.807 93.7804 121.554L94.3542 122.689C91.2616 123.176 83.5412 124.63 82.0645 121.473Z" fill="#AD764F"/>
<path d="M17.6865 67.7801L166.185 67.8091C185.459 67.9133 204.675 67.3574 223.937 67.896C221.569 75.0485 218.812 82.6412 216.634 89.7588L212.395 88.2358C208.532 88.2821 205.207 88.259 201.356 88.0736C201.617 85.2995 203.018 84.2859 203.691 80.5157L203.876 78.0659C202.648 74.7936 201.849 74.3477 198.728 72.8014C190.092 74.0292 173.83 71.6142 165.513 74.1972C163.949 76.1547 163.62 76.3747 162.96 78.7145C157.759 78.6103 145.689 79.2762 141.386 78.7666C140.795 76.1778 140.46 75.8361 138.821 73.7106C132.675 72.3844 109.342 72.4539 103.163 73.8728C98.0427 81.5582 104.315 83.0292 102.52 88.7806C97.1221 89.1744 83.5122 88.7451 77.7381 88.6238C77.7323 85.5138 77.6801 85.0158 79.2381 82.3516L79.3307 77.562C78.9485 76.4674 78.1608 74.9327 77.6396 73.8323C72.2594 72.5466 46.777 72.0484 41.8949 73.838L41.4257 74.0002C41.1072 74.1276 40.7887 74.255 40.4701 74.3825C37.1691 82.2763 40.5976 81.8361 41.0203 88.6817L40.7018 91.1371C37.1979 91.0856 33.6942 91.0732 30.1904 91.1087C29.1131 93.083 28.0648 94.8204 27.3409 96.9516C26.3738 92.3362 24.5669 86.7242 23.2232 82.1199L22.1286 79.3979L17.6865 67.7801Z" fill="#BC7E54"/>
<path d="M77.6396 73.8331C80.4196 73.4335 100.545 73.2944 103.163 73.8735C98.0433 81.5589 104.316 83.0299 102.52 88.7807C97.1218 89.1745 83.5122 88.7461 77.7382 88.6245C77.7323 85.5145 77.6802 85.0165 79.2381 82.3524L79.3308 77.5628C78.9485 76.4682 78.1609 74.9335 77.6396 73.8331Z" fill="#DDA26D"/>
<path d="M79.331 77.5625L79.968 78.6514C85.1804 79.3289 93.0279 77.1745 96.1666 80.0935C94.2731 81.4429 83.0317 80.2266 80.1881 80.3598C79.9796 80.3714 79.3483 82.0163 79.2383 82.3521L79.331 77.5625Z" fill="#BC7E54"/>
<path d="M24.8972 73.8154C30.3122 73.8444 35.067 74.0587 40.4704 74.383C37.1693 82.2769 40.5978 81.8367 41.0206 88.6823L40.702 91.138C37.1982 91.0857 33.6944 91.0741 30.1906 91.1087C29.1134 93.0839 28.0651 94.8213 27.3412 96.9526C26.374 92.3371 24.5671 86.7248 23.2235 82.1205L22.1289 79.3985L26.5188 79.4274L24.8972 73.8154Z" fill="#DDA26D"/>
<path d="M23.2236 82.1202C25.9919 81.57 28.4765 80.8866 31.2738 81.2341L31.8992 81.6974C29.6811 81.7784 28.9514 81.4137 27.4398 82.5777C27.3008 84.4078 28.627 86.6954 29.4378 88.4734C33.6308 88.6998 36.8335 88.7982 41.0207 88.6819L40.7022 91.1379C37.1983 91.0855 33.6946 91.074 30.1908 91.1086C29.1136 93.0837 28.0652 94.8212 27.3414 96.9524C26.3742 92.3361 24.5673 86.7244 23.2236 82.1202Z" fill="#AD764F"/>
<path d="M22.1289 79.3984L26.5188 79.4274C30.706 79.4447 33.7755 79.2362 37.8063 80.5684L37.9801 81.1938C35.2117 81.9003 34.7658 81.8829 31.899 81.6976L31.2736 81.2342C28.4763 80.8868 25.9918 81.5702 23.2235 82.1204L22.1289 79.3984Z" fill="#A36B45"/>
<path d="M138.821 73.7109C141.648 72.57 162.908 73.1608 165.514 74.1975C163.95 76.1551 163.62 76.3751 162.96 78.7149C157.759 78.6106 145.69 79.2766 141.387 78.7669C140.796 76.1781 140.46 75.8365 138.821 73.7109Z" fill="#DDA26D"/>
<path d="M198.729 72.8015C202.463 71.0466 213.427 71.5157 217.979 71.5273C217.388 73.7744 216.844 76.1663 215.975 78.3092C213.073 78.3497 206.402 78.645 203.877 78.0659C202.649 74.7938 201.85 74.3478 198.729 72.8015Z" fill="#DDA26D"/>
<path d="M203.691 80.5152C207.316 80.4457 210.941 80.411 214.573 80.3994L212.395 88.2354C208.532 88.2817 205.208 88.2585 201.356 88.0732C201.617 85.299 203.018 84.2855 203.691 80.5152Z" fill="#DDA26D"/>
<path d="M30.1903 91.1086C33.6941 91.074 37.1979 91.0856 40.7017 91.1379L40.6902 111.344L40.6728 115.891L35.75 115.972L31.9856 116.012L31.2501 112.166C29.9934 108.391 28.3718 101.059 27.3408 96.9524C28.0648 94.8212 29.113 93.0837 30.1903 91.1086Z" fill="#DDA26D"/>
<path d="M30.1903 91.1084C31.1458 93.9749 35.9585 110.701 36.6709 111.72C38.2056 112.022 38.2346 112.079 39.8677 111.935L40.6902 111.344L40.6728 115.89L35.75 115.972L31.9856 116.012L31.2501 112.166C29.9934 108.391 28.3718 101.059 27.3408 96.9522C28.0648 94.821 29.113 93.0835 30.1903 91.1084Z" fill="#BC7E54"/>
<path d="M40.6901 111.344L40.6727 115.89L35.75 115.971L31.9855 116.012L31.25 112.166C33.5144 112.519 37.9739 113.173 39.8677 111.934L40.6901 111.344Z" fill="#AD764F"/>
<path d="M35.7498 115.972L40.6726 115.891C40.7826 120.652 40.6262 121.295 38.7555 125.905C38.0664 124.809 37.4062 121.827 37.0355 120.437L32.9352 120.744L31.9854 116.012L35.7498 115.972Z" fill="#E1AD84"/>
<path d="M31.9854 116.011L35.7498 115.971L37.0355 120.436L32.9352 120.743L31.9854 116.011Z" fill="#BC7E54"/>
<path d="M43.3372 85.8955C52.8989 87.0307 65.6401 85.7739 75.4739 85.9071C75.4624 91.8089 76.2443 118.6 74.9933 122.052C67.6381 126.911 50.924 123.865 42.9028 121.392C42.8159 117.697 42.8855 113.787 42.8912 110.069C42.7812 107.95 42.955 104.637 43.0129 102.419C43.0245 96.8181 43.0071 91.4905 43.3372 85.8955Z" fill="#9E8070"/>
<path d="M48.2077 111.344C57.254 117.599 66.1496 119.447 71.721 107.521C77.3271 110.927 74.0723 116.093 74.9932 122.053C67.638 126.912 50.9238 123.865 42.9028 121.393C42.8159 117.698 42.8854 113.788 42.8912 110.07L43.8236 108.466L44.6401 108.645C45.5205 110.441 45.8853 112.062 47.3621 112.781L48.2077 111.344Z" fill="#3B2C27"/>
<path d="M43.3369 85.8955C52.8987 87.0307 65.6399 85.7739 75.4737 85.9071C75.4621 91.8089 76.244 118.6 74.9931 122.052C74.0722 116.092 77.327 110.926 71.7208 107.521C75.7227 89.6776 55.0473 82.3627 45.1381 100.218L44.2231 100.357L43.9277 102.703L43.0127 102.419C43.0243 96.8181 43.0068 91.4905 43.3369 85.8955Z" fill="#4C2D1F"/>
<path d="M43.0129 102.419L43.9279 102.703L44.2233 100.357L45.1383 100.219C45.5901 105.013 45.5495 107.226 48.2078 111.344L47.3622 112.78C45.8854 112.062 45.5205 110.44 44.6403 108.645L43.8236 108.465L42.8912 110.07C42.7812 107.95 42.955 104.637 43.0129 102.419Z" fill="#552E17"/>
<path d="M57.168 93.1419C62.6352 92.0643 67.9459 95.5915 69.081 101.047C70.2162 106.497 66.7471 111.848 61.3031 113.041C57.7299 113.817 54.0175 112.625 51.5735 109.903C49.1295 107.186 48.3361 103.363 49.4944 99.8948C50.6526 96.4314 53.5832 93.8479 57.168 93.1419Z" fill="#3B2C27"/>
<path d="M55.4764 94.9248C56.1309 95.0463 56.9822 95.2955 57.6424 95.4632C57.3586 97.3922 54.2661 100.525 52.7777 102.367L51.8683 103.102L51.1444 102.477C50.8259 99.1811 53.264 96.9514 55.4764 94.9248Z" fill="#5F463D"/>
<path d="M72.5957 75.8765C74.1594 75.5174 73.3429 75.5638 75.1382 76.1603C84.1207 87.2684 51.3759 84.0889 46.3316 84.0483C42.1907 83.3997 40.5575 80.724 43.3258 77.3244C48.3122 74.8224 65.9819 75.836 72.5957 75.8765Z" fill="#9E8070"/>
<path d="M41.6572 123.812C51.4274 126.268 65.3152 127.271 75.1086 124.716L75.5314 124.606C76.2611 125.689 76.0236 127.745 76.0468 129.297C71.6163 130.618 47.2344 131.012 43.1572 128.805C41.6862 127.154 41.8484 126.06 41.6572 123.812Z" fill="#9E8070"/>
<path d="M36.6719 142.845C78.2486 142.167 120.121 143.233 161.727 142.764C175.296 142.607 191.286 142.046 204.728 142.995C205.562 144.298 205.133 145.949 204.96 147.576C202.128 151.074 199.759 148.41 196.139 149.881L198.491 151.527C200.94 151.109 202.116 150.895 204.664 150.884C204.433 158.539 204.028 166.312 203.934 173.945C199.979 173.887 194.923 173.621 191.147 174.437C193.458 174.455 202.128 174.119 203.291 175.103L203.332 175.352L203.298 183.785C197.57 184.011 190.527 184.469 184.893 184.422C150.027 184.179 115.158 184.133 80.2873 184.266C74.4379 184.277 43.5521 184.758 39.8687 183.872C38.9421 182.459 38.641 179.076 39.5792 177.629L42.3359 177.287L43.0714 176.911C41.7394 176.876 40.778 176.812 39.4459 176.691L39.4054 175.972C40.9343 175.497 42.3764 175.375 43.9632 175.167C41.6872 175.196 41.2413 175.283 39.1043 174.675C38.0445 170.812 38.2876 157.463 37.2742 151.538L37.141 150.774C39.9788 151.306 43.4073 151.63 46.3146 151.978C51.2084 151.097 58.8299 151.978 61.9457 150.652L61.6099 150.246C54.0983 149.574 45.1042 150.165 37.0599 149.644C36.7877 147.675 36.7529 144.889 36.6719 142.845Z" fill="#7D553E"/>
<path d="M198.49 151.526C200.94 151.108 202.116 150.894 204.664 150.883C204.432 158.539 204.026 166.311 203.934 173.944C199.978 173.886 194.922 173.62 191.147 174.437C190.347 175.091 190.81 174.848 189.641 174.912C192.438 170.313 198.223 156.599 198.49 151.526Z" fill="#794C31"/>
<path d="M43.9632 175.167C46.1292 174.865 46.7083 174.813 48.8802 174.97C54.4457 175.305 65.2757 176.221 70.5112 176.018C84.04 175.485 93.0863 174.547 106.609 175.861C108.364 176.081 109.98 175.983 111.208 176.927C108.937 177.42 108.44 177.425 106.111 177.362C96.3413 177.338 48.6717 179.684 42.3358 177.287L43.0713 176.91C41.7393 176.875 40.7778 176.811 39.4458 176.69L39.4053 175.971C40.9342 175.497 42.3763 175.375 43.9632 175.167Z" fill="#4C2D1F"/>
<path d="M37.1406 150.773C39.9784 151.306 43.407 151.63 46.3142 151.978C43.7776 152.736 43.8007 152.308 42.2312 153.953C42.4802 155.73 48.1733 173.992 48.8799 174.97C46.7081 174.814 46.1289 174.866 43.9629 175.167C41.6868 175.196 41.241 175.283 39.1039 174.675C38.044 170.812 38.2873 157.462 37.2738 151.537L37.1406 150.773Z" fill="#794C31"/>
<path d="M203.332 175.352L203.296 183.784C197.568 184.01 190.526 184.467 184.891 184.421C188.384 183.471 190.046 182.637 188.511 178.288C186.814 177.286 180.924 177.824 177.09 177.164C177.311 177.031 200.917 175.531 203.332 175.352Z" fill="#794C31"/>
<path d="M79.8287 150.396L80.3441 150.356C86.5294 149.915 127.538 150.402 130.631 153.095L129.78 153.344C126.114 153.46 78.3866 151.062 78.5198 151.144L79.8287 150.396Z" fill="#4C2D1F"/>
<path d="M58.9805 159.102C61.4303 158.488 63.9206 159.965 64.5576 162.403C65.2005 164.847 63.7584 167.349 61.3261 168.021C59.7219 168.461 58.0076 168.009 56.8377 166.833C55.6621 165.658 55.2103 163.944 55.6562 162.345C56.1021 160.741 57.3705 159.507 58.9805 159.102Z" fill="#4C1E08"/>
<path d="M118.974 159.802C121.169 158.614 123.914 159.425 125.113 161.615C126.311 163.803 125.524 166.548 123.34 167.765C121.14 168.993 118.36 168.194 117.149 165.981C115.933 163.769 116.756 160.995 118.974 159.802Z" fill="#4C1E08"/>
<path d="M179.882 159.669C181.307 158.875 183.05 158.916 184.434 159.773C185.824 160.63 186.641 162.165 186.571 163.798C186.508 165.426 185.569 166.891 184.116 167.631C181.921 168.75 179.239 167.904 178.087 165.733C176.928 163.554 177.727 160.862 179.882 159.669Z" fill="#4C1E08"/>
<path d="M155.957 150.982C158.748 150.825 165.675 150.049 167.575 151.607L166.863 152.69C164.338 153.113 157.359 154.034 155.517 152.216L155.957 150.982Z" fill="#4C2D1F"/>
<path d="M39.4627 187.96L202.874 187.873C202.903 191.017 202.793 195.627 203.332 198.575L203.019 199.328L203.059 211.392C203.256 213.772 203.494 215.881 203.366 218.273L203.378 219.639C201.513 221.551 196.469 222.494 193.747 223.16C190.139 224.278 181.603 227.058 178.139 227.024C177.462 227.191 176.784 227.347 176.106 227.498C139.215 235.862 90.717 234.61 54.5031 224.586C50.5475 223.49 42.6595 221.961 39.4742 219.946C38.6055 218.301 38.9183 215.84 38.9704 213.877L38.9067 212.087L39.0804 207.269C39.15 201.732 38.8835 193.125 39.4627 187.96Z" fill="#DDA26D"/>
<path d="M203.059 211.394C203.256 213.774 203.494 215.882 203.366 218.274L203.378 219.64C201.513 221.552 196.469 222.496 193.747 223.162C190.139 224.28 181.603 227.059 178.139 227.025C177.462 227.193 176.784 227.349 176.106 227.5C139.215 235.863 90.717 234.612 54.5031 224.587C50.5475 223.492 42.6595 221.963 39.4742 219.947C38.6055 218.303 38.9183 215.842 38.9704 213.878L41.536 213.971C46.98 215.755 52.1923 213.652 54.6537 214.44C86.9062 215.899 119.205 216.09 151.475 215.007L153.033 215.071C153.763 214.92 155.871 214.759 156.711 214.672L154.619 213.305L158.112 213.247C174.374 213.67 186.999 211.307 203.059 211.394Z" fill="#BC7E54"/>
<path d="M54.6533 214.439C86.9059 215.899 119.205 216.09 151.475 215.007L153.033 215.071C147.531 219.819 117.931 224.841 110.391 224.818C97.7123 224.772 65.3732 221.435 54.6533 214.439Z" fill="#DDA26D"/>
<path d="M203.058 211.394C203.255 213.774 203.493 215.882 203.366 218.274L202.405 214.104C186.461 215.204 172.613 215.123 156.71 214.672L154.619 213.305L158.112 213.247C174.374 213.67 186.999 211.307 203.058 211.394Z" fill="#A36B45"/>
<path d="M178.139 227.025C174.235 224.777 158.685 226.613 153.172 226.324C149.482 226.127 145.452 225.982 141.589 225.652C145.521 223.891 188.048 223.063 193.747 223.161C190.139 224.28 181.602 227.059 178.139 227.025Z" fill="#A36B45"/>
<path d="M39.4629 187.96L202.874 187.873C202.903 191.017 202.793 195.627 203.332 198.575C197.448 197.967 185.87 198.946 179.274 198.952C181.272 197.209 183.462 195.373 185.39 193.583C162.728 194.805 139.991 194.487 117.312 195.709C103.198 196.473 88.9973 195.529 74.9065 194.904C66.6537 194.539 58.4356 194.631 50.1539 194.168L51.4279 201.292C47.1307 200.956 43.9628 201.257 39.7061 201.564C39.7582 197.076 39.9378 192.408 39.4629 187.96Z" fill="#BC7E54"/>
<path d="M179.274 198.953C185.871 198.948 197.449 197.969 203.332 198.577L203.019 199.33L203.06 211.394C187 211.307 174.375 213.67 158.113 213.247C164.877 208.863 168.121 208.59 175.574 202.393C158.067 203.332 142.389 203.708 124.817 201.201C127.193 199.961 151.007 200.94 156.051 200.61C161.819 200.233 172.794 199.179 178.151 199.376L179.274 198.953Z" fill="#BC7E54"/>
<path d="M179.274 198.953C185.87 198.948 197.448 197.969 203.331 198.577L203.018 199.33C199.642 200.141 180.392 202.29 177.803 200.922L178.15 199.376L179.274 198.953Z" fill="#A36B45"/>
<path d="M52.6316 211.527L53.0427 211.364C73.9325 212.314 94.5097 213.339 115.451 213.773C123.229 213.93 135.385 212.603 142.451 213.386C146.488 214.208 148.926 213.182 151.474 215.007C119.204 216.09 86.9053 215.899 54.6527 214.439C52.1914 213.652 46.9791 215.754 41.5352 213.97C44.6452 213.809 50.7262 214.695 52.9212 213.033L52.6316 211.527Z" fill="#AD764F"/>
<path d="M39.081 207.269C39.3532 205.619 39.2953 204.849 40.4594 203.667C43.8705 202.434 47.7623 203.238 51.5963 203.517C52.1581 206.088 52.8357 208.752 53.0441 211.364L52.633 211.526L52.9225 213.032C50.7276 214.694 44.6466 213.808 41.5365 213.971L38.9709 213.877L38.9072 212.088L39.081 207.269Z" fill="#BC7E54"/>
<path d="M38.9072 212.088C43.8994 211.712 47.6002 211.52 52.633 211.527L52.9225 213.032C50.7276 214.695 44.6466 213.808 41.5365 213.97L38.9709 213.878L38.9072 212.088Z" fill="#A36B45"/>
<path d="M39.4621 187.96C39.9371 192.408 39.7575 197.076 39.7053 201.564C43.9621 201.257 47.13 200.956 51.4273 201.292C55.7245 202.016 73.3826 199.989 74.8421 202.363C72.705 203.366 54.8963 203.475 51.5953 203.515C47.7613 203.238 43.8694 202.432 40.4583 203.666C39.2941 204.848 39.3521 205.618 39.0799 207.269C39.1494 201.732 38.883 193.126 39.4621 187.96Z" fill="#AD764F"/>
<path d="M142.452 213.385C146.419 213.357 150.682 213.234 154.62 213.305L156.711 214.671C155.871 214.758 153.763 214.92 153.033 215.071L151.476 215.007C148.927 213.183 146.488 214.208 142.452 213.385Z" fill="#A36B45"/>
<path d="M98.7905 209.585C102.584 209.429 116.124 208.752 119.118 209.649L118.759 210.368C114.074 210.535 102.358 210.86 98.1475 210.107L98.7905 209.585Z" fill="#BC7E54"/>
<path d="M6.75235 50.7419C21.758 50.1802 40.059 50.6434 55.2963 50.6434L148.15 50.6319L204.918 50.5797C212.575 50.5739 228.165 50.1627 235.236 50.933C239.157 53.2496 238.52 59.7071 237.541 63.5063L236.568 63.9987C159.756 63.1473 81.1667 63.6859 4.27946 63.8828C4.16363 58.6994 3.28327 54.4601 6.75235 50.7419Z" fill="#E4D4C4"/>
<path d="M196.435 3.72541C204.508 3.62116 212.582 3.61534 220.649 3.69643C225.346 3.7138 237.016 2.21959 238.585 8.04587C238.001 9.91654 237.374 10.1887 235.799 11.5266C229.568 12.2042 219.942 11.9204 213.422 11.9204H175.14L54.0814 11.8683C49.0196 11.8799 8.19569 12.5576 6.11655 11.0691L4.4834 8.63082C4.8251 6.44162 4.7961 6.32582 6.18025 4.68682C7.50649 3.88759 8.17831 3.77172 9.742 3.78331C71.9074 4.09026 134.293 3.05359 196.435 3.72541Z" fill="#EAD7C4"/>
<path d="M196.435 3.72552C204.508 3.62127 212.582 3.61544 220.649 3.69652C225.346 3.7139 237.016 2.21969 238.585 8.04597C238.001 9.91664 237.374 10.1888 235.799 11.5267C229.568 12.2043 219.942 11.9205 213.422 11.9205H175.14L54.0814 11.8684C49.0196 11.88 8.19569 12.5577 6.11655 11.0692L4.4834 8.63092C10.1996 9.67336 26.1377 9.17527 32.5198 9.12897L82.4942 8.88579C106.112 9.07115 129.735 9.08844 153.353 8.9437C166.488 8.98423 180.097 9.27957 193.203 8.69462C197.449 8.50349 202.256 6.41279 206.003 4.53634C202.817 4.20623 199.632 3.9398 196.435 3.72552Z" fill="#CCB5A3"/>
<path d="M4.92188 67.803C11.3967 67.832 13.0762 65.8223 15.9257 72.1061C35.3153 128.73 36.3694 160.942 35.5065 219.106C33.9659 218.586 27.549 216.762 27.381 215.087C25.7131 198.396 27.3116 180.975 26.2228 164.035C24.1842 133.086 17.6341 102.598 6.76352 73.554C6.19016 72.1872 5.39678 69.3262 4.92188 67.803Z" fill="#DFCDBB"/>
<path d="M4.92188 67.803C11.3967 67.832 13.0762 65.8223 15.9257 72.1061C13.8465 72.2972 7.76543 72.164 6.76352 73.554C6.19016 72.1872 5.39677 69.3262 4.92188 67.803Z" fill="#CCB5A3"/>
<path d="M221.041 125.817C218.51 141.582 216.888 157.48 216.199 173.435C215.695 187.503 216.235 201.884 215.754 215.65C212.499 217.058 210.396 217.932 207.02 218.963C206.383 198.276 206.221 170.065 208.694 149.673C210.68 148.034 218.302 130.335 221.041 125.817Z" fill="#CCB5A3"/>
<path d="M226.752 71.533C228.518 67.1199 232.619 66.1354 236.586 68.5273C236.852 70.3632 236.696 69.8999 235.78 71.9038C230.099 85.9193 223.81 111.286 221.041 125.817C218.302 130.334 210.68 148.034 208.694 149.673C208.943 129.176 219.252 90.8184 226.752 71.533Z" fill="#EAD7C4"/>
<path d="M226.752 71.533C228.519 67.1199 232.619 66.1354 236.586 68.5273C236.852 70.3632 236.696 69.8999 235.781 71.9038L226.752 71.533Z" fill="#CCB5A3"/>
<path d="M38.5657 19.375C46.0193 20.8403 43.5522 38.6897 40.8359 43.4156C40.0136 44.8519 42.4113 44.0874 42.7935 47.0816C40.6275 47.099 39.1969 47.2785 37.1758 46.5083C36.8746 44.9967 39.2665 43.9889 39.058 43.6125C34.4595 35.4464 36.3881 28.1723 38.5657 19.375Z" fill="#EAD7C4"/>
<path d="M64.4818 19.5605C72.2133 22.1783 69.3118 37.549 66.8157 43.2363L66.5145 43.9081C67.7887 44.7596 68.252 44.9738 69.1902 46.2306L68.472 46.9545C66.2307 47.0124 64.9914 47.0645 62.7443 46.7402C63.6536 42.7904 67.0126 46.2016 64.1979 41.7131C60.4856 35.7884 62.8544 26.0007 64.4818 19.5605Z" fill="#EAD7C4"/>
<path d="M13.291 19.7451C22.1982 20.5617 18.3991 38.6544 16.0477 44.0347C17.1539 44.7239 17.2234 44.7355 18.1153 45.6622L17.9704 46.89C16.2272 46.9074 14.4146 46.8668 12.6597 46.8494C12.0691 45.0656 15.596 44.5444 14.4319 42.7664C9.57863 35.3648 12.0111 29.1737 13.291 19.7451Z" fill="#EAD7C4"/>
<path d="M119.976 19.4268C126.955 20.2318 124.517 38.7299 121.823 43.8902C122.762 44.7937 123.057 45.1296 123.869 46.1547L123.37 47.1219C121.749 47.1103 119.664 47.3246 118.348 46.537C118.238 44.4056 120.481 44.3013 120.15 43.5079C116.473 34.7048 117.127 28.5542 119.976 19.4268Z" fill="#EAD7C4"/>
<path d="M149.135 19.5205C154.654 21.9992 153.333 38.8005 149.888 44.0939C144.125 40.7754 144.647 23.5919 149.135 19.5205Z" fill="#EAD7C4"/>
<path d="M174.85 19.751C175.962 19.89 176.448 20.0115 177.543 20.2432C181.533 25.2413 180.416 37.9132 178.204 43.612C170.269 44.7934 174.236 23.8746 174.85 19.751Z" fill="#EAD7C4"/>
<path d="M201.05 19.3857C208.133 20.5788 206.76 39.0132 203.14 43.7507C196.353 41.9148 199.99 24.2217 201.05 19.3857Z" fill="#EAD7C4"/>
<path d="M226.677 19.5771C227.425 19.8552 227.824 20.1563 228.513 20.5733C231.166 25.751 231.64 39.1816 227.928 43.8611C221.32 41.0117 223.44 24.0946 226.677 19.5771Z" fill="#EAD7C4"/>
<path d="M91.3248 19.334L93.393 19.9711C97.7247 25.2009 96.6994 37.4094 94.2728 43.4558C92.3092 43.3572 93.2077 43.6295 91.5048 42.4828C88.1225 36.6797 90.0281 25.5425 91.3248 19.334Z" fill="#EAD7C4"/>
<path d="M88.7891 16.0267C91.1518 15.8935 93.7344 15.4707 95.8311 16.3221L96.1034 17.8047C92.8085 18.6329 90.5611 19.1599 88.7891 16.0267Z" fill="#D29B74"/>
<path d="M145.121 15.9745C148.184 15.7197 151.272 14.7294 152.893 17.5035C149.227 18.8993 147.455 18.795 145.121 15.9745Z" fill="#D29B74"/>
<path d="M198.681 15.9629C201.09 15.766 203.517 15.2506 205.579 16.2584L205.85 17.9726C202.179 18.2332 200.754 19.1136 198.681 15.9629Z" fill="#D29B74"/>
<path d="M172.845 16.0503C175.335 15.8012 176.887 15.4595 179.314 16.0966L180.085 17.4228C176.835 18.9229 174.791 18.917 172.845 16.0503Z" fill="#D29B74"/>
<path d="M11.5996 16.0278C13.7193 15.9468 16.424 15.4602 18.173 16.3811L18.4162 17.661C16.3602 18.1938 15.9028 18.1938 13.7541 18.2865C11.7851 17.3657 12.4973 18.0723 11.5996 16.0278Z" fill="#D29B74"/>
<path d="M62.333 16.0502C64.638 15.9228 66.5666 15.6042 68.7036 16.3687L68.9237 17.7761C65.9874 18.2742 63.3176 19.2645 62.333 16.0502Z" fill="#D29B74"/>
<path d="M223.058 16.6408C225.919 16.1254 228.38 15.1698 230.447 17.4921C226.984 18.5057 225.814 18.72 223.058 16.6408Z" fill="#D29B74"/>
</g>
<defs>
<clipPath id="clip0_1846_306">
<rect width="243.012" height="236.804" fill="white"/>
</clipPath>
</defs>
</svg>
