<svg width="405" height="240" viewBox="0 0 405 240" fill="none" xmlns="http://www.w3.org/2000/svg">
<g clip-path="url(#clip0_1846_497)">
<path fill-rule="evenodd" clip-rule="evenodd" d="M136.801 0.429291C151.787 -0.436706 167.169 0.275583 182.196 0.274256L270.584 0.266461L351.73 0.269925C365.83 0.271937 380.401 -0.449645 394.461 0.508974C397.058 0.686193 398.917 1.17364 400.891 3.01205C402.675 4.68158 403.79 7.7663 403.77 10.1904C403.716 16.1996 397.105 16.7734 393.817 20.2885C390.925 23.3801 394.058 31.5941 394.676 35.417C395.387 39.8027 393.287 44.3862 393.367 48.7908C393.502 56.2601 398.153 54.8345 402.045 58.7805C403.965 60.7253 404.266 63.9986 404.347 66.6033C404.79 80.1488 398.341 92.4873 394.287 105.11C391.348 114.099 388.884 123.237 386.897 132.486C380.267 162.439 378.18 192.005 377.757 222.606C377.656 223.082 377.522 224.34 377.16 224.587C376.059 225.329 374.958 225.364 373.676 225.471C370.22 224.852 366.427 225.483 362.938 225.798L360.677 226.058C350.549 228.225 339.865 229.018 329.623 231.073C319.228 233.048 307.208 236.787 296.664 236.423C273.88 240.606 250.302 239.749 227.584 235.395C210.424 232.104 193.954 227.718 176.471 225.935C163.888 225.736 151.552 225.885 139.189 228.58C135.424 229.353 131.182 230.692 127.377 230.944C123.283 231.927 118.747 232.67 114.8 234.066C109.391 235.136 102.19 237.408 96.7736 237.145C90.6061 238.388 84.1836 238.515 77.9289 239.12C75.9492 239.288 73.9887 239.156 72.009 239.053C66.0563 232.766 62.1638 225.904 58.8821 217.98C55.7885 217.076 53.1637 216.187 51.1303 213.478C49.6473 211.507 48.8553 209.145 49.2647 206.681C49.8823 202.965 51.9162 201.143 54.8286 199.146C53.5267 183.356 51.2917 168.672 43.9831 154.4C39.7818 146.191 31.6804 135.819 21.9828 133.992C18.5401 133.343 14.6275 133.696 11.3123 132.539C9.44014 131.883 7.52055 130.195 6.74873 128.342C5.54108 125.453 7.31196 122.506 8.49308 119.897C8.11 115.524 2.38577 108.43 0.936209 103.425C-0.533179 98.3311 1.1107 91.6696 -1.03681 86.9346C-2.03046 84.7431 -5.45976 83.9157 -6.91602 81.8262C-12.8145 73.3622 -1.23168 67.17 -0.00353281 63.3441C1.31828 59.1903 -0.842132 51.1304 -0.741465 46.5319C-0.640722 41.826 0.37277 37.1836 1.29218 32.583C-0.956171 27.5142 -5.21764 26.9347 -7.86182 22.5993C-8.84813 20.9835 -9.11045 19.2107 -8.64739 17.3775C-8.13726 15.3712 -6.87554 13.4569 -5.0504 12.4346C-0.909582 10.1171 62.0416 10.7479 71.8081 11.293C75.5125 11.4944 79.1908 12.0568 82.7878 12.9724C99.3111 17.322 102.492 33.3882 110.216 46.5423C112.318 43.3146 115.539 40.2515 119.297 39.0564C120.901 38.5457 122.452 38.8185 123.922 39.5856C129.223 42.3602 131.137 48.7532 132.902 54.0177C133.384 53.5606 133.874 53.0923 134.304 52.5834C136.075 50.4687 134.72 47.7486 134.028 45.3869C131.834 37.8627 135.64 30.1775 134.982 22.6634C134.707 19.5507 131.68 18.2744 129.471 16.4524C127.076 14.4781 124.169 11.995 123.934 8.66347C123.821 7.09621 124.512 5.65763 125.532 4.50178C128.881 0.702165 132.076 0.702501 136.801 0.429291ZM92.2371 47.0152C91.9551 51.9677 91.2837 56.608 90.1769 61.4551C91.4052 63.5348 91.9622 65.1858 94.5324 65.8497C98.7 66.9286 103.674 65.7696 107.982 65.926L108.506 65.2227C102.445 61.7076 98.9829 56.9973 95.2242 51.2669C94.3515 49.9464 93.4247 48.0188 92.2371 47.0152ZM41.1172 27.725C37.9026 34.3866 40.6336 42.42 40.6806 49.6187C40.7007 53.642 40.0168 57.7155 39.2316 61.6534C40.4329 63.4996 41.2916 65.5255 43.6809 65.9962C45.7211 66.397 48.3184 65.9329 50.3855 65.7329C50.9022 65.0374 52.231 63.6203 52.3654 62.8313C52.8554 60.0064 52.0233 56.5703 51.7548 53.6964C51.0769 46.2936 51.5666 39.5176 53.4256 32.3102C52.3921 30.7239 51.2712 29.1503 50.3517 27.4955L41.1172 27.725ZM23.7221 27.7986C21.0107 27.2884 18.4669 27.4908 15.7286 27.6956C14.9569 28.8435 13.8096 30.3728 13.6014 31.7577C13.286 33.8724 13.8291 36.4496 14.0371 38.6025C14.8022 46.7257 15.4061 53.9962 13.151 62.0086C14.3054 63.656 15.1179 65.489 17.2522 65.9468C19.2118 66.3683 22.0036 65.976 24.0572 65.8914C24.6412 64.9367 26.2316 62.9248 26.3256 61.9037C26.7483 57.3212 24.7215 52.4853 24.7215 47.8484C24.7217 43.0577 27.8088 36.1455 26.5404 31.7074C26.0907 30.1098 25.1044 28.7096 23.7221 27.7986ZM75.567 28.7106C73.3791 27.0995 70.2109 27.4468 67.6473 27.5327C66.8151 28.7867 65.2848 30.727 65.1303 32.2228C64.7209 36.1635 66.8353 41.2019 67.1171 45.2292C67.3989 49.2055 66.1977 53.7345 65.7816 57.7342C65.6407 59.0815 65.5738 60.5324 65.8154 61.8743C66.198 64.0009 66.9296 64.6208 68.5938 65.764C70.3322 65.907 73.9357 66.4297 75.3383 65.5008C76.7746 63.7552 78.0367 62.7474 77.728 60.2546C77.3186 56.9295 76.2248 53.8541 76.2114 50.4485C76.1913 44.9267 80.4256 32.2918 75.567 28.7106ZM223.095 18.7598C218.451 17.4959 211.94 18.323 207.074 18.4238C203.8 24.5268 207.027 32.7721 207.242 39.4894C207.363 43.1534 206.698 46.8993 205.84 50.451C206.517 51.9928 206.82 53.6716 208.497 54.3122C212.564 55.8656 219.054 54.6963 223.437 54.7331C223.934 53.5254 224.618 51.9943 224.672 50.6806C224.826 46.7992 223.967 42.663 223.9 38.7333C223.813 33.9152 224.504 29.0418 224.289 24.2432C224.222 22.7704 224.134 20.9616 223.537 19.5991C223.409 19.3054 223.255 19.0327 223.095 18.7598ZM255.504 18.817C251.625 17.1752 243.202 18.3361 238.913 18.3925C238.302 19.2653 237.538 20.3469 237.416 21.4283C236.921 25.961 238.457 31.5277 238.577 36.1973C238.725 41.9283 237.517 47.9593 238.523 53.6063C238.57 53.8772 238.512 53.8078 238.733 53.9571C241.652 55.9199 252.369 54.7075 256.027 54.6275C256.59 53.6218 257.363 52.2961 257.497 51.1327C257.973 46.8913 256.618 41.4836 256.665 37.0583C256.718 32.1026 258.048 27.2173 258.014 22.2858C257.457 21.1827 256.684 19.3144 255.504 18.817ZM288.784 18.8152C283.597 17.3828 276.308 18.3901 270.858 18.4619C270.376 19.5876 269.791 20.9624 269.75 22.2009C269.623 26.2798 270.852 30.7846 271.04 34.9354C271.328 41.2204 270.148 47.6438 271.215 53.8609C273.269 55.6181 284.449 54.9466 287.395 54.676C287.838 54.6364 288.262 54.4656 288.657 54.2811C289.066 53.4916 289.818 52.3879 290.067 51.5588C290.851 48.9767 289.314 43.2666 289.193 40.2967C288.938 34.0674 291.093 25.7525 289.267 19.9429C289.141 19.5484 288.972 19.1809 288.784 18.8152ZM319.905 18.6827C315.898 17.2041 307.938 18.4989 303.596 18.6654C303.053 19.787 302.375 21.1468 302.335 22.4148C302.187 26.8864 303.429 31.6842 303.529 36.2337C303.643 41.3606 302.074 48.5637 303.717 53.3725C303.838 53.7246 304.026 54.0433 304.24 54.3451C309.106 55.3991 315.113 54.7344 320.119 54.6457C320.644 53.5413 321.851 51.7081 322.053 50.5723C322.475 48.1823 320.241 44.0526 320.147 41.3777C319.932 35.0335 323.562 25.9913 321.334 20.1205C321.045 19.375 320.683 18.97 319.905 18.6827ZM161.619 19.0361C158.699 17.4991 151.92 18.3677 148.564 18.4281C148.141 19.2973 147.41 20.4264 147.148 21.3339C146.41 23.9118 148.095 30.2541 148.37 33.1686C149.008 40.0006 147.324 47.0503 148.585 53.7683C150.827 55.5986 158.303 54.7336 161.316 54.6509C161.947 53.6076 163.363 51.8712 163.665 50.7655C164.369 48.2182 161.9 42.548 161.746 39.6748C161.444 33.9518 164.705 27.1411 163.269 21.6128C162.987 20.5127 162.672 19.5912 161.619 19.0361ZM350.261 19.2128C347.046 17.3576 339.194 18.4081 335.416 18.4974C334.872 19.6519 334.368 21.0025 334.314 22.2867C334.126 26.4045 335.408 31.1039 335.59 35.3252C335.844 41.3856 334.603 47.5848 335.663 53.5795C337.683 55.4974 344.031 54.7973 346.851 54.7193C347.985 54.6878 349.053 54.728 350.12 54.2811C350.69 53.3184 351.797 51.9144 352.113 50.8919C352.851 48.4766 350.079 37.4975 350.435 33.3521C350.683 30.4425 352.945 24.9118 352.408 22.4139C352.226 21.5597 351.006 19.6425 350.261 19.2128ZM192.221 18.7806C187.685 17.5416 181.745 18.3543 177.007 18.4047C176.491 19.5801 175.807 21.101 175.786 22.3932C175.713 26.6002 176.839 31.054 177.021 35.3087C177.275 41.4326 176.129 47.8091 177.243 53.8498C179.625 55.6079 188.625 54.6567 191.893 54.605C192.444 53.49 193.182 52.0681 193.242 50.8122C193.457 46.2379 192.276 41.3265 192.397 36.6044C192.525 31.4002 194.283 24.5929 192.571 19.6311C192.471 19.3394 192.349 19.0622 192.221 18.7806ZM379.138 18.8941C374.991 17.725 369.83 18.3695 365.529 18.4003C364.985 19.5783 364.321 20.997 364.287 22.3127C364.187 26.8151 365.421 31.4994 365.529 36.0536C365.65 41.202 364.093 48.4852 365.649 53.3102C365.777 53.7058 365.945 53.9068 366.199 54.2273C370.079 55.1147 374.388 54.7392 378.354 54.7002C378.864 53.6577 379.737 52.3409 380.039 51.2514C380.722 48.8223 379.408 43.5523 379.294 40.8389C379.032 34.6096 381.508 25.7272 379.643 20.0035C379.515 19.6124 379.34 19.2524 379.138 18.8941Z" fill="#522E17"/>
<path d="M63.5869 218.054C136.895 217.179 210.35 217.794 283.671 217.989C295.98 221.725 328.704 215.752 342.254 219.002C340.335 220.917 341.093 223.054 338.423 224.099L338.282 224.669L337.959 225.133C337.241 226.799 336.51 227.98 334.745 228.645C333.006 229.297 330.98 229.545 329.174 229.992L329.624 231.072C319.228 233.048 307.208 236.788 296.664 236.423C273.879 240.607 250.302 239.749 227.584 235.395C210.424 232.104 193.955 227.718 176.471 225.935C163.888 225.736 151.553 225.885 139.19 228.58C135.425 229.353 131.183 230.691 127.378 230.944C123.284 231.927 118.747 232.67 114.801 234.066C109.392 235.136 102.19 237.408 96.7747 237.146C90.6063 238.389 84.1839 238.515 77.929 239.12C77.372 237.156 73.3452 234.075 71.9089 232.121C68.5868 227.604 66.003 223.088 63.5869 218.054Z" fill="#BC7F56"/>
<path d="M197.001 225.759C213.826 226.229 230.765 227.111 247.591 226.951C277.705 226.665 307.812 224.951 337.958 225.132C337.241 226.798 336.509 227.978 334.744 228.644C333.006 229.296 330.978 229.544 329.174 229.991L329.623 231.072C319.227 233.047 307.208 236.786 296.664 236.422C273.879 240.605 250.302 239.748 227.584 235.394C210.423 232.103 193.954 227.717 176.471 225.934C183.276 225.882 190.209 226.11 197.001 225.759Z" fill="#DEA56F"/>
<path d="M296.664 236.423L296.376 236.295C290.772 233.736 272.725 236.23 269.491 232.898L268.417 233.263L268.142 232.973C269.524 233.388 273.289 232.501 275.37 232.506C283.41 232.522 291.41 233.092 299.456 232.82C309.355 232.486 319.328 231.073 329.174 229.991L329.624 231.072C319.228 233.047 307.208 236.787 296.664 236.423Z" fill="#AF744D"/>
<path d="M197 225.758C192.457 224.628 187.766 225.736 183.336 224.804C184.45 223.755 186.423 223.725 187.887 223.684C205.738 223.184 223.564 224.517 241.41 224.577C256.664 224.629 271.919 223.609 287.18 223.453C304.28 223.278 321.328 223.999 338.421 224.097L338.28 224.667L337.958 225.131C307.811 224.949 277.704 226.664 247.59 226.951C230.765 227.111 213.826 226.228 197 225.758Z" fill="#A16742"/>
<path d="M99.7396 230.376C108.827 230.413 118.357 229.866 127.377 230.943C123.283 231.927 118.746 232.669 114.8 234.065C109.391 235.135 102.189 237.407 96.7729 237.145C94.7259 235.751 92.0953 235.472 90.0146 233.901C91.5313 232.906 93.7334 233.133 95.4984 233.097C90.6789 232.732 85.9278 232.249 81.1426 231.528C83.8674 230.054 96.0483 230.511 99.7396 230.376Z" fill="#AF744D"/>
<path d="M95.4994 233.098C100.419 233.245 110.721 234.411 114.801 234.065C109.392 235.136 102.191 237.407 96.7748 237.145C94.7278 235.75 92.0973 235.472 90.0166 233.9C91.5332 232.906 93.7345 233.132 95.4994 233.098Z" fill="#BF873E"/>
<path d="M99.7412 230.376C96.3186 229.969 93.0096 230.334 89.6943 229.112C90.05 228.968 90.426 228.823 90.8012 228.754C97.0361 227.605 130.385 226.942 136.707 227.53C137.633 227.617 138.445 228.052 139.19 228.58C135.425 229.353 131.184 230.691 127.378 230.944C118.358 229.867 108.828 230.413 99.7412 230.376Z" fill="#DEA56F"/>
<path d="M385.777 83.8942C389.167 83.331 393.18 83.3921 396.663 83.3438C381.865 120.851 374.388 166.412 373.556 206.572C373.476 210.19 373.254 222.704 373.677 225.471C370.221 224.851 366.428 225.483 362.938 225.798C362.576 174.364 368.153 132.367 385.777 83.8942Z" fill="#DECCBC"/>
<path d="M283.671 217.988C291.973 217.98 354.831 217.02 357.308 217.948C357.636 218.072 358.106 218.52 358.415 218.737L358.281 220.048C358.207 222.156 357.798 223.962 358.872 225.821L360.676 226.057C350.55 228.223 339.865 229.016 329.623 231.071L329.174 229.991C330.979 229.544 333.006 229.296 334.744 228.643C336.509 227.979 337.241 226.798 337.959 225.132L338.281 224.668L338.422 224.097C341.094 223.053 340.334 220.915 342.255 219C328.704 215.751 295.979 221.724 283.671 217.988Z" fill="#AF744D"/>
<path d="M385.776 83.8933C386.421 82.3277 387.24 80.1499 387.958 78.6803C391.354 78.5924 395.193 77.9459 397.804 79.5772C397.971 81.2388 397.468 81.8765 396.662 83.3428C393.179 83.3911 389.166 83.33 385.776 83.8933Z" fill="#E8B88D"/>
<path d="M143.975 78.7669L286.114 78.7037C318.006 78.6783 351.113 78.1579 382.924 78.8635C379.978 87.0002 377.226 95.2067 374.669 103.475L373.717 106.275C371.307 114.551 369.435 122.476 367.461 130.85C365.723 138.641 364.857 146.532 363.26 154.077C363.072 156.355 363.132 159.43 361.79 161.127C360.2 161.843 359.918 161.811 358.167 161.761C355.273 161.291 341.817 161.345 338.502 161.345L299.899 161.409L170.881 161.556C168.706 161.811 168.021 161.966 165.927 161.433C165.008 160.181 161.538 139.382 160.847 135.676C160.578 134.087 160.33 132.496 160.108 130.9C157.833 125.037 153.807 107.289 152.029 100.301C151.176 97.737 150.351 95.2466 149.391 92.7189C147.914 88.7944 145.686 82.3712 143.975 78.7669Z" fill="#542E19"/>
<path d="M170.445 86.1353C176.063 83.9689 207.552 84.1428 213.357 85.658C218.19 94.3996 212.807 95.6732 213.545 102.88L213.565 106.265C213.565 114.17 213.713 122.562 213.505 130.427V133.654C213.062 143.442 216.572 141.25 214.592 151.706L210.572 154.034C200.162 154.313 177.237 156.831 169.291 150.942C169.559 154.784 170.163 157.805 170.881 161.555C168.707 161.81 168.023 161.965 165.929 161.432C165.009 160.18 161.54 139.381 160.848 135.675C160.58 134.087 160.332 132.495 160.11 130.899C157.835 125.036 153.807 107.288 152.029 100.301C151.177 97.7361 150.351 95.2457 149.392 92.718C152.298 91.3052 151.566 92.1388 152.761 89.5615C152.774 87.1624 152.385 87.5444 153.666 86.1494C158.996 85.0806 164.908 85.8372 170.445 86.1353Z" fill="#572D17"/>
<path d="M152.761 89.5623C152.774 87.1628 152.385 87.5448 153.666 86.1497C158.996 85.081 164.908 85.8375 170.445 86.1356C166.17 95.328 171.002 96.5041 171.123 102.807L170.599 105.896L170.546 110.976C169.835 117.107 171.76 127.577 168.398 130.473L165.432 130.789C163.163 131.1 162.398 131.075 160.11 130.899C157.835 125.037 153.807 107.288 152.029 100.301C151.177 97.736 150.351 95.2465 149.392 92.7179C152.298 91.3059 151.566 92.1396 152.761 89.5623Z" fill="#BC7F56"/>
<path d="M152.761 89.5623C152.774 87.1628 152.385 87.5448 153.666 86.1497C158.996 85.081 164.908 85.8375 170.445 86.1356C166.17 95.328 171.002 96.5041 171.123 102.807C167.096 103.035 161.54 102.786 157.399 102.723C156.231 99.7244 155.713 98.0801 154.949 94.9529L154.137 96.4207L153.224 96.2265L152.285 96.9821L152.029 100.301C151.177 97.736 150.351 95.2465 149.392 92.7179C152.298 91.3059 151.566 92.1396 152.761 89.5623Z" fill="#DEA56F"/>
<path d="M152.761 89.5625C154.097 91.354 154.05 91.9146 156.761 92.0458C161.19 92.2605 162.191 92.405 166.473 93.8161L166.734 94.1913C162.204 94.7128 159.506 94.8804 154.949 94.9531L154.137 96.4209L153.224 96.2267L152.285 96.9832L152.029 100.301C151.177 97.7371 150.351 95.2467 149.392 92.719C152.298 91.3062 151.566 92.1398 152.761 89.5625Z" fill="#AF744D"/>
<path d="M158.102 105.757C162.196 105.692 166.491 105.829 170.598 105.896L170.545 110.976C169.834 117.106 171.759 127.577 168.397 130.473L165.431 130.789C163.276 121.506 161.478 114.648 158.102 105.757Z" fill="#DEA56F"/>
<path d="M160.848 135.677C161.941 134.044 163.022 134.297 164.74 134.178L170.559 134.411C170.714 139.776 170.827 140.609 168.283 145.38L169.29 150.942C169.559 154.784 170.163 157.807 170.881 161.556C168.707 161.811 168.022 161.966 165.928 161.433C165.009 160.182 161.539 139.382 160.848 135.677Z" fill="#AF744D"/>
<path d="M164.74 134.178L170.559 134.411C170.714 139.776 170.827 140.609 168.284 145.38C166.848 143.937 165.679 137.15 164.74 134.178Z" fill="#E8B88D"/>
<path d="M170.545 110.977C170.727 118.787 170.733 126.6 170.558 134.41L164.74 134.178C163.022 134.297 161.941 134.044 160.847 135.677C160.579 134.088 160.33 132.496 160.109 130.9C162.398 131.076 163.163 131.101 165.431 130.79L168.398 130.474C171.76 127.578 169.833 117.108 170.545 110.977Z" fill="#AF744D"/>
<path d="M173.854 100.028C179.33 99.9829 206.155 99.4002 209.43 100.309C211.255 103.743 211.618 125.231 210.598 128.718C210.384 130.836 210.517 139.535 209.853 140.498C204.786 147.886 178.424 142.194 173.102 140.795L173.27 126.425C172.424 122.005 173.525 105.571 173.854 100.028Z" fill="#4A2E23"/>
<path d="M173.27 126.424L174.854 126.773C182.867 140.51 194.807 143.424 205.317 130.901C206.706 129.243 207.921 125.045 209.8 125.431C210.29 126.802 210.498 127.241 210.598 128.716C210.384 130.834 210.518 139.535 209.853 140.497C204.786 147.885 178.424 142.193 173.103 140.794L173.27 126.424Z" fill="#664637"/>
<path d="M188.471 104.487C193.914 103.268 199.599 105.07 203.351 109.204C207.102 113.34 208.344 119.171 206.598 124.477C204.86 129.782 200.404 133.743 194.934 134.851C186.592 136.539 178.452 131.194 176.68 122.87C174.907 114.545 180.162 106.346 188.471 104.487Z" fill="#A08372"/>
<path d="M190.659 107.92C194.934 107.469 199.122 109.379 201.585 112.908C204.048 116.435 204.396 121.022 202.504 124.884C200.605 128.746 196.766 131.274 192.471 131.481C186.082 131.792 180.605 126.96 180.115 120.581C179.625 114.201 184.296 108.59 190.659 107.92Z" fill="#362926"/>
<path d="M173.773 88.1811C181.86 87.9756 203.068 86.157 209.685 88.9612C211.283 89.6397 211.625 90.4734 212.195 91.9873C212.047 94.0698 211.309 95.0746 210 96.656C203.182 98.0094 181.276 99.1242 175.108 96.7536C173.202 96.0227 172.719 95.1358 171.968 93.3957C171.961 91.1634 172.591 89.9856 173.773 88.1811Z" fill="#A08372"/>
<path d="M171.854 143.54C185.551 147.238 196.846 146.298 210.799 144.762C211.806 146.344 211.612 147.928 211.706 149.768C211.356 149.89 211.001 149.999 210.645 150.096C204.216 151.802 178.719 152.453 173.417 149.342C171.94 147.226 172.055 146.056 171.854 143.54Z" fill="#A08372"/>
<path d="M353.208 84.4238C356.228 85.7443 357.892 86.3754 359.161 89.6322C359.315 90.0339 359.462 90.4401 359.597 90.8508L359.315 93.5452C358.805 98.7292 356.469 98.9465 356.838 102.562C360.496 102.491 365.577 102.245 369.107 102.517L374.67 103.475L373.718 106.275C371.308 114.55 369.436 122.476 367.462 130.849C365.724 138.641 364.858 146.532 363.261 154.076C360.402 149.459 364.557 144.836 359.033 143.854C359.583 148.493 359.57 149.353 356.785 153.376C347.993 155.023 334.275 154.339 325.167 154.414C315.248 154.497 312.671 152.735 313.161 143.677C315.141 140.443 314.55 138.089 314.289 134.434L314.336 130.96L314.221 106.227L314.597 102.135C314.483 100.25 313.107 96.2308 312.496 94.2538L312.141 91.4619C313.188 88.511 313.732 87.9893 315.892 85.7631C326.369 83.451 345.282 86.1975 353.208 84.4238Z" fill="#572D17"/>
<path d="M358.094 130.799C357.644 123.112 357.966 114.071 358.06 106.275L368.101 106.273L373.717 106.274C371.309 114.55 369.435 122.476 367.463 130.85L361.617 130.625L358.094 130.799Z" fill="#DEA56F"/>
<path d="M368.099 106.273L373.716 106.274C371.307 114.55 369.434 122.476 367.461 130.85L361.616 130.625C363.058 122.881 365.77 113.789 368.099 106.273Z" fill="#BC7F56"/>
<path d="M361.617 130.626L367.463 130.85C365.724 138.642 364.859 146.533 363.262 154.078C360.402 149.46 364.556 144.837 359.033 143.855L357.966 142.616L358.167 133.758L358.094 130.8L361.617 130.626Z" fill="#BC7F56"/>
<path d="M358.167 133.756C361.019 133.521 360.429 133.119 362.101 134.523C362.765 137.38 360.409 141.213 357.966 142.614L358.167 133.756Z" fill="#DEA56F"/>
<path d="M356.838 102.564C360.495 102.492 365.576 102.247 369.106 102.519L374.669 103.477L373.717 106.276H368.099L358.059 106.277C357.965 114.073 357.643 123.114 358.093 130.8L358.166 133.758L357.965 142.617C356.173 136.839 358.334 111.987 356.838 102.564Z" fill="#AF744D"/>
<path d="M322.832 97.608C318.637 97.4315 315.215 96.2217 314.846 91.4732C317.382 86.0243 353.007 86.5875 356.006 90.487C356.557 92.973 356.019 94.1934 355.315 96.5933C354.966 98.2758 354.59 99.8731 354.516 101.594C354.536 106.285 354.482 111.225 354.597 115.891C355.013 117.97 355.268 124.265 354.697 126.272C354.288 130.085 354.496 137.866 354.516 141.987C340.295 145.221 331.302 144.691 317.497 140.068C316.987 135.614 316.953 128.852 316.819 124.204C315.41 122.07 316.463 102.425 317.517 99.7126C323.651 99.5503 328.812 99.8137 334.953 99.113C333.316 98.4035 326.007 98.2589 322.832 97.608Z" fill="#4C3124"/>
<path d="M335.422 104.079C337.885 104.051 340.328 104.615 342.529 105.723C348.201 108.572 351.55 114.598 350.979 120.917C350.408 127.237 346.032 132.566 339.946 134.353C333.859 136.14 327.302 134.023 323.402 129.014C319.51 124.006 319.073 117.126 322.301 111.664C325.046 107.016 330.019 104.14 335.422 104.079Z" fill="#A08372"/>
<path d="M336.449 107.377L337.422 107.912C345.463 110.165 351.073 117.306 345.657 125.41C343.711 128.297 340.697 130.29 337.275 130.946C323.047 133.765 317.644 109.995 336.449 107.377Z" fill="#362926"/>
<path d="M332.543 109.71C333.67 109.89 335.623 110.111 336.577 110.582C333.106 112.703 333.087 114.512 327.523 117.228L326.993 116.759L326.912 117.189L327.979 116.783L327.503 115.763L328.422 116.42L327.879 115.105C328.764 113.392 331.127 111.172 332.543 109.71Z" fill="#664637"/>
<path d="M336.449 107.377L337.422 107.912C337.542 108.969 337.717 109.453 338.334 110.32C337.777 110.448 337.126 110.658 336.577 110.581C335.623 110.111 333.67 109.89 332.543 109.71C333.832 109.004 335.181 108.148 336.449 107.377Z" fill="#4A2E23"/>
<path d="M322.832 97.608C318.637 97.4315 315.215 96.2217 314.846 91.4732C317.382 86.0243 353.007 86.5875 356.006 90.487C356.557 92.973 356.019 94.1934 355.315 96.5933C347.597 98.5135 331.429 97.3002 322.832 97.608Z" fill="#A08372"/>
<path d="M347.865 90.5717C348.731 90.295 349.67 90.5327 350.302 91.1837C350.925 91.8346 351.127 92.7854 350.818 93.6359C350.509 94.4847 349.745 95.0852 348.846 95.1818C347.638 95.3122 346.53 94.5078 346.274 93.3184C346.026 92.13 346.711 90.9433 347.865 90.5717Z" fill="#572D17"/>
<path d="M316.818 124.205C319.147 126.095 319.208 127.515 320.764 129.368C324.147 133.379 330.671 138.757 336.423 137.891C345.597 136.508 350.013 131.318 353.294 123.508L354.026 123.655C354.268 124.46 354.609 125.454 354.697 126.271C354.287 130.084 354.496 137.867 354.515 141.987C340.295 145.221 331.302 144.692 317.496 140.068C316.986 135.613 316.952 128.851 316.818 124.205Z" fill="#664637"/>
<path d="M355.315 96.5928C354.965 98.2752 354.59 99.8725 354.516 101.593L353.422 100.303C349.422 99.9417 344.382 100.71 340.314 101.176L339.476 103.065C340.905 104.361 341.986 104.408 342.53 105.723C340.329 104.615 337.885 104.051 335.422 104.079C330.019 104.14 325.046 107.016 322.301 111.664L321.483 110.311C321.65 105.582 329.838 102.312 333.631 100.373C328.886 100.357 322.019 100.569 317.517 99.712C323.65 99.5497 328.811 99.8131 334.952 99.1125C333.315 98.4029 326.006 98.2584 322.832 97.6074C331.429 97.2996 347.597 98.5129 355.315 96.5928Z" fill="#542E19"/>
<path d="M340.314 101.177C344.382 100.711 349.422 99.9425 353.422 100.303L354.516 101.594C354.536 106.285 354.483 111.225 354.596 115.891C352.845 115.347 352.845 114.835 352.194 113.007C349.678 105.963 346.858 104.556 340.314 101.177Z" fill="#664637"/>
<path d="M316.899 143.092C330.08 149.526 349.992 143.229 355.382 145.19C356.415 147.26 356.046 148.5 355.831 150.743C345.012 151.005 333.791 152.015 322.993 150.993C320.858 150.792 318.026 150.643 316.577 148.881C315.751 146.933 316.423 145.049 316.899 143.092Z" fill="#A08372"/>
<path d="M143.975 78.7669L286.114 78.7037C318.006 78.6783 351.113 78.1579 382.924 78.8635C379.978 87.0002 377.226 95.2067 374.669 103.475L369.106 102.517C365.576 102.245 360.496 102.492 356.837 102.564C356.468 98.9477 358.804 98.7295 359.314 93.5455L359.596 90.8511C359.461 90.4405 359.314 90.0343 359.16 89.6325C357.891 86.3758 356.227 85.7448 353.207 84.4242C345.281 86.1979 326.368 83.4515 315.891 85.7636C313.731 87.9897 313.187 88.5114 312.14 91.4622L312.495 94.2551C311.624 93.8489 297.718 94.1912 295.57 94.2178L287.637 93.9127L287.288 94.3047C286.872 93.0985 287.054 91.9163 287.12 90.6187C286.684 88.6886 285.549 87.1828 284.469 85.5232C276.422 84.2832 251.215 84.1469 243.443 85.5232C236.852 93.8373 243.249 95.3717 242.745 102.233C241.591 108.853 242.812 121.95 242.329 129.253L242.342 129.904C240.088 131.09 217.524 130.474 213.504 130.427C213.712 122.563 213.564 114.171 213.564 106.266L213.544 102.881C212.806 95.6741 218.188 94.4005 213.356 85.6588C207.551 84.1436 176.061 83.9697 170.444 86.1361C164.907 85.8381 158.994 85.0814 153.666 86.1503C152.384 87.5453 152.773 87.1633 152.759 89.5624C151.565 92.1398 152.296 91.3061 149.391 92.7189C147.914 88.7944 145.686 82.3712 143.975 78.7669Z" fill="#BC7F56"/>
<path d="M213.545 102.881C217.921 102.942 240.336 103.699 242.746 102.232C241.591 108.851 242.814 121.949 242.33 129.253L242.343 129.903C240.088 131.09 217.525 130.474 213.505 130.427C213.713 122.562 213.565 114.17 213.565 106.265L213.545 102.881Z" fill="#DEA56F"/>
<path d="M213.545 102.881C217.921 102.942 240.337 103.699 242.746 102.232C241.592 108.851 242.813 121.949 242.33 129.253C241.364 125.674 241.733 110.888 241.78 106.37C232.377 106.448 222.967 106.413 213.565 106.265L213.545 102.881Z" fill="#AF744D"/>
<path d="M218.35 121.376C218.511 121.358 218.672 121.342 218.827 121.327C222.853 121.02 232.336 119.885 235.383 122.458C230.571 122.761 222.538 124.08 218.35 121.376Z" fill="#BF873E"/>
<path d="M213.356 85.6585C216.867 84.9851 240.746 84.8173 243.444 85.5229C236.853 93.8369 243.249 95.3712 242.746 102.232C240.336 103.7 217.92 102.942 213.544 102.881C212.807 95.6736 218.189 94.4 213.356 85.6585Z" fill="#DEA56F"/>
<path d="M216.343 91.8045C217.041 91.7113 217.739 91.6883 218.444 91.6555C223.027 91.4408 231.289 90.2337 234.705 93.3441C229.853 93.5286 224.504 94.0332 219.686 93.4736C217.92 93.2687 217.423 93.18 216.343 91.8045Z" fill="#BC7F56"/>
<path d="M286.424 84.9351C290.988 84.8579 312.155 84.7579 315.893 85.7635C313.732 87.9897 313.189 88.5113 312.141 91.4622L312.497 94.255C311.624 93.8488 297.718 94.1912 295.571 94.2178L287.639 93.9127L287.289 94.3047C286.873 93.0985 287.054 91.9163 287.122 90.6187C286.685 88.6885 285.551 87.1828 284.471 85.5232C284.753 85.3681 286.048 85.0385 286.424 84.9351Z" fill="#DEA56F"/>
<path d="M287.121 90.6182L287.966 91.7782C290.677 91.7782 293.382 91.6887 296.08 91.5095L312.14 91.4616L312.496 94.2536C311.623 93.8483 297.718 94.1906 295.57 94.2172L287.637 93.9121L287.289 94.3033C286.873 93.0979 287.054 91.9157 287.121 90.6182Z" fill="#AF744D"/>
<path d="M284.471 85.5227C284.753 85.3676 286.048 85.038 286.424 84.9346C289.135 85.1112 292.222 84.9487 294.283 86.5585C295.484 88.49 295.598 89.3262 296.081 91.5097C293.383 91.6889 290.679 91.7785 287.967 91.7785L287.122 90.6184C286.685 88.688 285.551 87.1822 284.471 85.5227Z" fill="#DEA56F"/>
<path d="M353.207 84.4248C356.691 82.7108 371.227 83.368 375.979 83.4466C375.247 85.6647 374.395 88.53 373.583 90.6559C371.65 90.7411 360.503 91.4435 359.596 90.8519C359.462 90.4413 359.315 90.0351 359.16 89.6333C357.892 86.3763 356.228 85.7453 353.207 84.4248Z" fill="#DEA56F"/>
<path d="M359.314 93.5449L371.912 93.6469C371.368 95.4855 369.831 101.084 369.107 102.517C365.577 102.245 360.496 102.491 356.838 102.563C356.469 98.9471 358.804 98.7298 359.314 93.5449Z" fill="#DEA56F"/>
<path d="M213.504 130.427C217.523 130.474 240.087 131.089 242.343 129.903L242.578 134.265C243.041 142.227 238.155 147.283 242.161 152.186C250.429 156.299 274.382 154.848 283.953 152.932C287.657 152.19 286.858 146.266 286.865 143.295L289.168 143.261C296.167 143.148 305.12 142.588 311.664 144.46L313.16 143.676C312.671 152.734 315.247 154.496 325.167 154.414C334.274 154.338 347.992 155.022 356.783 153.375C359.569 149.352 359.583 148.493 359.032 143.853C364.555 144.835 360.401 149.459 363.261 154.076C363.073 156.353 363.133 159.429 361.79 161.126C360.2 161.843 359.918 161.81 358.166 161.759C355.274 161.29 341.818 161.344 338.502 161.344L299.898 161.408L170.88 161.555C170.162 157.805 169.558 154.783 169.29 150.941C177.236 156.832 200.161 154.313 210.571 154.033L214.591 151.705C216.571 141.25 213.061 143.441 213.504 133.654V130.427Z" fill="#DEA56F"/>
<path d="M213.505 130.427C217.525 130.474 240.088 131.089 242.343 129.903L242.578 134.265C233.337 134.402 222.605 134.691 213.505 133.654V130.427Z" fill="#BC7F56"/>
<path d="M214.592 151.705C219.444 152.294 236.705 152.588 238.906 153.97C233.021 154.868 216.457 154.709 210.571 154.033L214.592 151.705Z" fill="#AF744D"/>
<path d="M359.032 143.854C364.556 144.836 360.402 149.46 363.26 154.077C363.072 156.355 363.133 159.43 361.791 161.127C360.201 161.844 359.918 161.811 358.167 161.761C360.14 160.688 361.529 159.154 360.703 156.958C359.307 153.277 361.241 153.152 360.677 150.083C359.442 151.795 358.878 153.218 356.784 153.376C359.569 149.353 359.582 148.494 359.032 143.854Z" fill="#BF873E"/>
<path d="M289.168 143.263C296.167 143.15 305.121 142.589 311.664 144.462C306.879 146.862 293.14 147.207 289.168 143.263Z" fill="#BC7F56"/>
<path d="M291.43 154.276C297.832 153.955 305.657 153.003 311.892 154.263L311.879 155.078C305.832 155.551 297.872 156.956 291.946 155.619L291.43 154.276Z" fill="#BC7F56"/>
<path d="M218.055 141.531C218.135 141.507 218.222 141.483 218.303 141.46C221.893 140.511 230.202 139.999 233.403 141.888C229.477 143.022 221.733 143.454 218.055 141.531Z" fill="#BC7F56"/>
<path d="M287.288 94.3041L287.638 93.9121L295.57 94.2172C297.718 94.1906 311.624 93.8483 312.496 94.2545C313.107 96.2305 314.483 100.251 314.597 102.135L314.221 106.227L314.336 130.961L314.289 134.435C314.55 138.09 315.141 140.443 313.16 143.677L311.664 144.46C305.121 142.588 296.168 143.149 289.168 143.261L286.866 143.296L285.04 141.288C284.524 138.395 285 126.224 285.309 122.919L285.39 106.221L284.987 102.164C284.974 99.4766 286.308 96.9799 287.288 94.3041Z" fill="#DEA56F"/>
<path d="M287.289 94.3041L287.637 93.9121L295.571 94.2172C297.718 94.1906 311.624 93.8483 312.496 94.2545C313.108 96.2305 314.483 100.251 314.597 102.135L314.221 106.227C307.691 106.458 302.194 106.542 295.671 106.344L285.389 106.221L284.986 102.164C284.973 99.4766 286.309 96.9799 287.289 94.3041Z" fill="#AF744D"/>
<path d="M295.57 94.2176C297.718 94.1901 311.623 93.8478 312.496 94.254C313.107 96.2309 314.483 100.25 314.597 102.135L309.113 102.351C305.362 102.148 299.96 102.277 296.087 102.264C296.134 99.1683 296.275 97.242 295.57 94.2176Z" fill="#DEA56F"/>
<path d="M287.289 94.3041L287.637 93.9121L295.571 94.2172C296.275 97.2416 296.134 99.1688 296.087 102.263C292.382 102.297 288.685 102.264 284.986 102.164C284.973 99.4766 286.309 96.9799 287.289 94.3041Z" fill="#E8B88D"/>
<path d="M284.986 102.164C288.685 102.264 292.382 102.297 296.087 102.263C299.959 102.278 305.362 102.149 309.114 102.351C305.597 102.682 299.919 102.601 297.04 103.649C296.194 104.792 296.087 104.952 295.671 106.344L285.389 106.222L284.986 102.164Z" fill="#BC7F56"/>
<path d="M285.04 141.289C285.234 138.701 285.382 137.115 285.892 134.541C287.61 133.814 311.134 134.374 314.287 134.436C314.549 138.09 315.14 140.444 313.16 143.677L311.663 144.461C305.12 142.589 296.167 143.15 289.167 143.262L286.865 143.297L285.04 141.289Z" fill="#DEA56F"/>
<path d="M285.309 122.919C285.39 124.802 285.296 128.78 286.214 130.153C293.745 131.133 306.168 130.605 314.336 130.96L314.289 134.434C311.134 134.372 287.61 133.813 285.893 134.54C285.383 137.114 285.235 138.7 285.04 141.288C284.524 138.395 285 126.223 285.309 122.919Z" fill="#AF744D"/>
<path d="M290.403 117.923C294.752 117.772 308.799 116.133 311.853 118.94L311.416 120.332C306.819 120.372 293.088 121.821 289.819 119.008L290.403 117.923Z" fill="#BC7F56"/>
<path d="M259.484 104.669C267.712 102.399 276.215 107.238 278.464 115.469C280.718 123.698 275.866 132.196 267.631 134.434C259.424 136.667 250.961 131.828 248.712 123.619C246.464 115.41 251.283 106.932 259.484 104.669Z" fill="#A08372"/>
<path d="M261.496 108.048C267.711 106.822 273.778 110.727 275.248 116.889C276.711 123.051 273.046 129.271 266.945 130.975C262.785 132.138 258.322 130.931 255.315 127.828C252.309 124.725 251.235 120.225 252.524 116.099C253.812 111.974 257.255 108.884 261.496 108.048Z" fill="#362926"/>
<path d="M246.592 88.2756C254.725 88.0031 276.067 86.0683 282.725 90.1134C283.678 91.5732 283.866 91.9644 283.927 93.7116C283.107 95.3577 282.322 96.3226 280.866 97.4454C273.35 97.4969 251.504 99.5004 245.578 96.1506C244.028 95.2707 243.894 94.406 243.518 92.8069C244.041 90.6517 245 89.6841 246.592 88.2756Z" fill="#A08372"/>
<path d="M248.706 89.8682C249.907 90.3347 251.303 90.7719 252.189 91.7475C253.115 92.7683 252.853 93.3377 252.787 94.6388C251.068 94.6007 249.847 94.4446 248.29 93.7085C247.726 91.9462 248.089 91.5648 248.706 89.8682Z" fill="#542E19"/>
<path d="M243.806 143.703C255.953 147.641 270.268 146.134 282.745 144.835C283.698 146.702 283.201 148.118 282.96 150.144C282.906 150.163 282.852 150.185 282.798 150.204C277.248 152.128 249.866 152.091 244.558 149.594C243.309 147.964 243.719 145.651 243.806 143.703Z" fill="#A08372"/>
<path d="M129.948 70.9392C129.895 67.3629 129.465 63.3087 131.184 60.2279C133.137 58.8665 132.842 58.9464 135.391 58.9095C160.486 58.5469 185.652 58.7194 210.753 58.7269L333.657 58.6631L375.314 58.7255C381.959 58.7261 389.201 58.4999 395.75 59.1544C400.723 59.6513 399.515 71.0956 399.381 74.4228C385.724 74.3261 362.2 75.0068 349.536 74.0831C346.242 74.5201 335.416 74.3389 331.671 74.3415L293.987 74.2127L167.693 74.085C159.203 74.0575 140.291 74.7544 131.265 73.7077C130.345 73.601 130.191 71.9603 129.948 70.9392Z" fill="#E6D7C7"/>
<path d="M129.948 70.9388C148.539 70.0546 168.666 70.7287 187.35 70.5897C228.786 70.2809 271.027 71.4497 312.382 70.5508L312.174 71.394C308.912 72.1748 294.141 71.674 289.906 71.6867C291.772 72.5715 294.698 71.6994 295.691 72.7092C294.758 72.8186 293.101 72.8374 292.504 73.318C297.799 73.3637 347.939 72.35 349.335 73.79C349.422 73.8746 349.469 73.9854 349.536 74.0827C346.24 74.5198 335.416 74.3385 331.67 74.3412L293.987 74.2123L167.693 74.0847C159.203 74.0572 140.29 74.7541 131.264 73.7075C130.345 73.6007 130.19 71.9599 129.948 70.9388Z" fill="#D1BBAB"/>
<path d="M9.99023 125.608C10.7554 124.374 11.7822 122.142 13.4802 122.079C34.8088 121.276 56.399 122.244 77.7343 122.155C94.4995 122.086 99.4121 125.498 108.66 139.604C119.271 155.777 133.035 165.358 152.841 165.482C175.552 165.002 353.811 164.196 360.603 166.623C361.79 168.604 361.408 171.401 359.764 172.975C356.127 174.138 336.603 173.543 331.107 173.551L262.04 173.588L189.827 173.73C172.659 173.845 147.438 175.279 130.573 172.582C111.768 169.478 101.821 134.3 85.8147 131.001C70.9759 127.943 44.8019 129.39 29.0236 129.065C22.4397 129.372 14.6613 130.921 9.99023 125.608Z" fill="#EDBC67"/>
<path d="M36.6878 125.846C73.5732 125.741 93.0361 117.905 113.049 152.961C123.311 170.94 146.84 170.547 165.673 170.594L258.034 169.988C281.872 170.018 328.382 171.045 350.167 166.565C335.456 165.355 310.597 166.089 295.154 166.103L198.619 166.092C191.74 166.101 157.646 166.604 152.84 165.483C175.552 165.003 353.811 164.197 360.603 166.624C361.79 168.605 361.408 171.402 359.764 172.976C356.127 174.139 336.603 173.544 331.106 173.552L262.04 173.589L189.827 173.731C172.659 173.845 147.438 175.28 130.573 172.582C111.768 169.479 101.821 134.301 85.8146 131.002C70.9759 127.944 44.8017 129.391 29.0234 129.066C31.2851 127.54 37.7818 127.654 41.077 127.386L40.9897 126.918L36.6878 125.846Z" fill="#BF873E"/>
<path d="M9.99023 125.609C17.1579 125.62 29.9765 125.317 36.6878 125.845L40.9899 126.917L41.0771 127.385C37.7818 127.653 31.2853 127.539 29.0236 129.065C22.4397 129.372 14.6613 130.921 9.99023 125.609Z" fill="#BC7F56"/>
<path d="M42.3525 142.413C44.48 142.99 49.386 144.297 51.0101 145.412C66.4999 156.023 67.4864 172.022 90.8886 168.512C95.8215 166.599 97.2849 165.635 100.794 161.701C101.721 159.5 102.58 157.275 103.392 155.029C110.929 164 117.305 172.17 128.828 176.398C134.231 178.382 147.566 176.487 150.814 179.323C151.318 180.832 150.968 181.509 150.492 183.031C141.412 198.957 125.983 200.31 109.318 200.539C92.4123 200.771 75.5333 199.833 58.6544 198.978C58.6745 190.941 57.7551 180.352 55.3658 172.723L54.7618 169.925C52.0839 162.129 50.3189 156.422 46.8156 148.829C44.9968 146.485 43.9028 144.943 42.3525 142.413Z" fill="#7A5641"/>
<path d="M42.3525 142.413C44.48 142.99 49.386 144.297 51.0101 145.412C66.4999 156.023 67.4864 172.022 90.8886 168.512C95.8215 166.599 97.2849 165.635 100.794 161.701C101.721 159.5 102.58 157.275 103.392 155.029C110.929 164 117.305 172.17 128.828 176.398C134.231 178.382 147.566 176.487 150.814 179.323C151.318 180.832 150.968 181.509 150.492 183.031C133.519 181.111 127.627 186.379 111.325 173.126C104.882 172.836 58.5738 171.805 55.3658 172.723L54.7618 169.925C52.0839 162.129 50.3189 156.422 46.8156 148.829C44.9968 146.485 43.9028 144.943 42.3525 142.413Z" fill="#664637"/>
<path d="M46.8154 148.828C54.3589 149.476 63.681 163.722 69.5802 169.25C64.634 169.408 59.6944 169.632 54.7616 169.924C52.0837 162.128 50.3187 156.421 46.8154 148.828Z" fill="#7A5641"/>
<path d="M90.8877 168.512C95.8207 166.599 97.2841 165.635 100.794 161.701L107.713 169.973C104.566 169.847 92.8478 169.751 90.8877 168.512Z" fill="#7A5641"/>
<path d="M129.546 185.109C132.338 183.79 135.673 184.976 137.009 187.763C138.345 190.552 137.184 193.896 134.405 195.249C131.6 196.614 128.224 195.437 126.875 192.625C125.526 189.813 126.727 186.441 129.546 185.109Z" fill="#542E19"/>
<path d="M85.5867 184.545C88.4525 184.322 91.0026 186.369 91.4053 189.221C91.8079 192.073 89.9286 194.746 87.1102 195.327C85.117 195.736 83.07 195.007 81.7815 193.434C80.4995 191.862 80.1976 189.706 80.9963 187.839C81.7948 185.972 83.56 184.703 85.5867 184.545Z" fill="#572D17"/>
<path d="M133.082 4.51357L326.147 4.43703L376.032 4.58003C381.467 4.58674 389.307 3.51663 394.521 4.6814C395.917 4.99223 397.689 5.86095 398.434 7.13851C399.139 8.35565 399.34 9.599 398.91 10.9618C398.367 12.6952 396.944 13.5773 395.407 14.3212L218.704 14.154L162.27 14.1688C153.048 14.1836 143.545 14.7354 134.363 14.2192C132.827 14.1325 131.082 13.3014 130.089 12.1065C128.794 10.5449 129.055 9.18748 129.304 7.36542C130.363 5.68506 131.223 5.16813 133.082 4.51357Z" fill="#E0C9B6"/>
<path d="M119.935 69.995L125.451 69.6553C125.975 76.0021 125.592 75.8121 127.995 81.7286C126.525 82.8484 90.5994 82.2543 86.163 82.2287C57.8077 82.0656 29.3585 82.5477 1.01654 82.2959C-3.29214 82.2577 -3.94986 77.718 -4.03711 74.6581C-2.82907 72.7985 -1.23177 70.2682 1.25813 70.1937C13.9962 69.8144 26.8014 70.0138 39.553 70.0366L119.935 69.995Z" fill="#EDBC67"/>
<path d="M119.935 69.995L125.451 69.6553C125.975 76.0021 125.592 75.8121 127.995 81.7286C126.525 82.8484 90.5994 82.2543 86.163 82.2287C57.8077 82.0656 29.3585 82.5477 1.01654 82.2959C-3.29214 82.2577 -3.94986 77.718 -4.03711 74.6581C6.74127 80.006 55.6668 76.0947 70.5659 77.0729C80.6396 77.7335 96.7803 76.4808 107.196 75.7618C111.068 75.4939 116.908 72.6621 119.935 69.995Z" fill="#BF873E"/>
<path d="M3.71582 95.4965C3.85676 94.9519 4.25272 94.0074 4.46748 93.4522C7.19899 92.3781 9.80966 92.6486 12.6016 93.4202C7.17886 114.136 30.4604 115.196 32.3195 106.763C31.3799 104.475 31.9637 105.22 29.9705 103.752C28.0309 103.505 27.6148 103.828 25.8766 104.812C24.7155 102.531 24.4941 102.984 24.8498 100.897C26.4739 99.0228 25.6618 99.5044 28.1517 99.0104C35.6282 100.571 43.4669 119.555 56.3795 111.902C57.7084 111.115 60.6211 108.633 61.225 107.197C65.527 99.939 67.4532 97.7341 75.9832 100.527C75.7953 101.864 75.4665 101.675 76.3255 102.803C83.0369 111.609 89.6479 113.001 99.5804 108.148C100.909 107.501 101.654 106.236 103.385 105.886L103.97 105.989C103.473 109.753 102.365 113.749 104.023 117.343C108.205 126.4 124.07 124.895 120.594 137.75C119.962 140.083 119.586 144.439 119.305 146.961C93.9627 117.798 107.285 118.466 65.0908 117.889C48.0239 117.509 30.9436 117.544 13.8767 117.995C7.25269 109.776 6.11847 105.446 3.71582 95.4965Z" fill="#7A5641"/>
<path d="M61.2236 107.196C65.5257 99.9378 67.4517 97.7329 75.9818 100.526C75.794 101.862 75.4651 101.673 76.3242 102.802C83.0355 111.608 89.6461 113 99.5785 108.147C100.908 107.5 101.653 106.235 103.384 105.884C99.7799 112.91 90.1969 113.922 83.9013 110.313C79.0691 107.542 74.7067 101.456 69.237 102.672C65.5123 103.835 65.6935 107.931 61.2236 107.196Z" fill="#572D17"/>
<path d="M228.833 177.533C251.128 177.631 276.819 176.821 298.61 177.569L293.973 182.944C290.181 188.456 286.55 193.497 281.007 197.394C274.456 202.032 266.322 203.855 258.417 202.459C247.115 200.365 239.396 191.907 233.229 182.878L228.833 177.533Z" fill="#7A5641"/>
<path d="M228.833 177.533C251.128 177.631 276.819 176.821 298.61 177.569L293.973 182.944C292.215 182.229 235.369 182.071 233.229 182.878L228.833 177.533Z" fill="#664637"/>
<path d="M261.343 185.308C263.94 183.926 267.162 184.919 268.524 187.521C269.886 190.123 268.873 193.339 266.262 194.687C263.679 196.02 260.497 195.016 259.148 192.439C257.8 189.863 258.78 186.678 261.343 185.308Z" fill="#542E19"/>
<path d="M-5.38574 19.3178C-4.57367 18.1061 -3.27832 15.5886 -1.70787 15.5645C24.2113 15.1697 50.4995 14.93 76.3917 15.9907C85.942 16.3821 92.5393 20.8909 96.5056 29.5203C100.835 35.2031 111.519 66.7192 122.485 53.2266C124.338 52.2491 126.29 52.4821 128.384 52.523C128.283 53.3105 128.149 54.0933 127.982 54.8693C126.968 59.4734 124.667 62.5374 119.734 63.0738C103.928 64.7931 97.2772 45.8714 91.1495 34.6761C84.0963 21.7824 75.1636 23.7997 62.3047 23.366C40.9426 22.5531 19.4327 24.6779 -1.7549 22.8189C-3.50655 22.6658 -4.60052 20.7351 -5.38574 19.3178Z" fill="#D1BBAB"/>
<path d="M-5.38574 19.3178C-4.57367 18.1061 -3.27832 15.5886 -1.70787 15.5645C24.2113 15.1697 50.4995 14.93 76.3917 15.9907C85.942 16.3821 92.5393 20.8909 96.5055 29.5203C95.3313 29.147 95.8005 29.3061 95.0022 28.3877C91.828 25.1981 82.5392 21.1023 78.1635 20.6163C51.0296 17.6026 21.6609 21.495 -5.38574 19.3178Z" fill="#ECDAC8"/>
<path d="M156.264 178.823C157.438 178.088 158.794 178.222 160.129 178.234C160.915 178.81 162.042 179.526 161.928 180.722C160.183 200.038 144.11 212.977 125.15 213.536C104.412 214.148 83.6137 213.465 62.8623 213.315C59.8556 213.294 57.1039 213.417 54.6812 211.336C53.0369 208.853 53.3859 206.924 54.4866 204.268C61.1711 201.245 85.1841 204.411 93.8417 204.255C116.519 203.844 143.23 208.181 154.706 183.085C155.109 181.782 155.773 180.135 156.264 178.823Z" fill="#BF873E"/>
<path d="M154.706 183.085L156.217 184.408C152.116 194.117 147.284 201.318 137.049 205.464C125.948 209.96 67.9895 211.171 57.2246 206.307C56.1776 205.835 55.2985 205.067 54.4863 204.268C61.1708 201.244 85.184 204.411 93.8415 204.254C116.519 203.844 143.23 208.181 154.706 183.085Z" fill="#EDBC67"/>
<path d="M156.263 178.823C157.35 181.672 156.974 181.076 156.216 184.41L154.706 183.087C155.109 181.784 155.773 180.137 156.263 178.823Z" fill="#DEA56F"/>
<path d="M16.5203 104.309C13.1579 95.8786 16.574 87.4204 26.8423 88.3274C34.1107 88.9697 37.9227 93.7093 42.3119 98.8143C60.4929 112.787 58.3318 81.2327 76.949 92.3931C81.9892 96.1988 85.2778 101.831 92.4121 101.025C101.083 100.045 118.21 76.5541 123.082 94.5022C123.519 96.1146 123.223 98.5003 122.358 99.9628L121.136 100.337C118.096 98.0374 117.157 94.1181 112.781 94.7496C109.492 95.2232 105.908 98.8711 103.607 101.114C98.1832 107.188 87.7274 112.45 81.7544 104.125L76.4121 98.8888L75.9826 100.527C67.4525 97.7349 65.5263 99.9398 61.2244 107.198C60.6203 108.634 57.7076 111.116 56.3788 111.902C43.4663 119.555 35.6274 100.572 28.1511 99.0103C25.6612 99.5052 26.4732 99.0236 24.8491 100.897C24.4933 102.985 24.7149 102.531 25.8759 104.812L27.0504 105.638C27.0302 106.434 27.037 107.492 26.9497 108.258C22.339 109.923 19.1041 108.086 16.5203 104.309Z" fill="#DEA56F"/>
<path d="M26.9498 108.258C20.064 105.463 20.2586 97.4707 26.0639 94.8198C34.0235 93.6553 39.1979 104.725 45.3857 108.121C60.1976 116.244 59.862 88.6038 76.4121 98.8889L75.9826 100.527C67.4525 97.735 65.5263 99.939 61.2244 107.198C60.6204 108.634 57.7077 111.115 56.3789 111.902C43.4663 119.555 35.6275 100.571 28.1511 99.0104C25.6612 99.5053 26.4733 99.0228 24.8491 100.897C24.4934 102.984 24.7149 102.531 25.8759 104.812L27.0505 105.637C27.0303 106.434 27.037 107.491 26.9498 108.258Z" fill="#542E19"/>
<path d="M16.5203 104.307C13.1579 95.8774 16.574 87.4188 26.8423 88.3258C34.1107 88.9684 37.9227 93.7072 42.3119 98.8131L40.426 99.4383C35.7415 96.6668 31.9831 90.4699 26.0101 92.124C23.6679 92.7697 21.7014 94.3652 20.5807 96.5248C19.064 99.4037 18.6411 102.613 16.5203 104.307Z" fill="#EDBC67"/>
<path d="M81.7552 104.123C80.9498 102.755 80.0908 101.6 80.0371 100.028C81.5069 100.783 82.9968 101.501 84.5001 102.178C93.9299 106.367 94.5267 102.672 102.748 99.4902L103.607 101.113C98.1843 107.187 87.7283 112.45 81.7552 104.123Z" fill="#BF873E"/>
<path d="M126.801 98.7767C126.78 96.9178 126.8 95.2052 126.377 93.3622C125.814 90.9019 122.908 88.2786 123.21 86.2646C125.734 86.3258 127.29 86.7286 129.726 87.259C135.337 105.303 141.27 122.655 145.041 141.203C146.437 148.053 149.129 154.902 150.136 161.899L143.491 159.736C132.868 153.978 134.411 145.315 138.095 136.019C139.075 128.758 136.887 122.7 132.74 116.916C124.344 111.425 122.089 114.508 113.277 111.758C107.774 110.044 107.304 99.528 112.291 99.0481C118.438 98.4566 119.102 112.577 126.801 98.7767Z" fill="#664637"/>
<path d="M132.74 116.916C124.344 111.425 122.089 114.507 113.277 111.759C107.774 110.044 107.304 99.5276 112.291 99.0478C118.438 98.4571 119.102 112.577 126.801 98.7764C128.063 100.852 132.746 115.027 132.74 116.916Z" fill="#7A5641"/>
<path d="M138.095 136.019C140.343 142.069 142.317 153.352 143.491 159.736C132.868 153.977 134.411 145.315 138.095 136.019Z" fill="#7A5641"/>
<path d="M297.636 199.831C297.415 199.239 297.22 198.64 297.046 198.034C295.945 194.185 296.032 188.66 298.032 185.117C299.757 182.096 302.616 179.889 305.972 178.984C314.978 176.522 324.562 183.587 318.428 193.415L316.515 195.447C312.381 196.713 309.489 196.067 306.999 192.243C307.341 188.655 310.308 187.908 313.367 188.43L314.381 187.442C313.066 185.432 312.777 185.04 310.575 184.122C304.871 184.406 303.442 189.29 303.153 194.229C307.462 206.859 319.602 208.075 330.898 204.105C341.81 200.268 351.643 190.871 359.582 182.644C359.589 184.611 359.589 186.576 359.568 188.542C348.508 199.818 336.219 211.94 319.28 212.15C316.434 212.185 313.777 211.879 311.059 211.012C309.764 210.73 308.609 210.31 307.428 209.707C303.334 207.606 299.086 204.388 297.636 199.831Z" fill="#EDBC67"/>
<path d="M297.636 199.831C297.415 199.239 297.22 198.64 297.046 198.034C295.945 194.185 296.032 188.66 298.032 185.117C299.757 182.096 302.616 179.889 305.972 178.984C314.978 176.522 324.562 183.587 318.428 193.415L316.515 195.447C312.381 196.713 309.489 196.067 306.999 192.243C307.341 188.655 310.308 187.908 313.367 188.43L314.381 187.442L315.119 187.288L315.113 182.241C298.522 173.262 299.375 197.337 297.636 199.831Z" fill="#EDBC67"/>
<path d="M314.383 187.442L315.121 187.288C314.96 191.934 313.242 191.207 314.457 193.91L316.517 195.448C312.383 196.713 309.49 196.068 307 192.244C307.342 188.655 310.309 187.908 313.37 188.43L314.383 187.442Z" fill="#BF873E"/>
<path d="M315.114 182.239C320.832 188.121 316.328 189.947 318.429 193.414L316.516 195.446L314.456 193.908C313.242 191.206 314.96 191.932 315.12 187.287L315.114 182.239Z" fill="#DEA56F"/>
<path d="M297.637 199.832C299.375 197.337 298.523 173.263 315.113 182.241L315.119 187.289L314.381 187.442C313.066 185.432 312.777 185.041 310.576 184.122C304.871 184.406 303.442 189.291 303.153 194.229L302.2 193.264C299.912 197.66 304.743 204.52 308.999 206.321C312.435 207.776 315.469 208.77 319.24 209.202L319.643 209.732L319.925 209.302C320.193 209.376 320.462 209.451 320.73 209.527L319.281 210.059L318.743 209.443L318.368 209.459L318.139 210.442C316.233 210.768 312.073 210.774 311.059 211.013C309.763 210.73 308.61 210.311 307.428 209.708C303.334 207.608 299.086 204.388 297.637 199.832Z" fill="#BF873E"/>
<path d="M212.269 179.864C225.658 173.725 234.014 186.447 230.142 198.366C228.746 202.997 225.833 206.822 221.544 209.14C214.484 212.959 205.739 212.901 198.216 210.6C192.598 208.88 184.625 205.206 180.672 200.733C179.813 198.84 177.733 195.961 176.498 194.201C174.565 192.185 174.189 191.747 173.552 188.926C183.719 197.486 195.323 206.776 209.457 205.836C216.081 205.394 221.779 201.059 224.121 194.874C224.128 188.741 219.987 180.163 213.839 186.006C213.806 187.697 213.604 187.08 214.893 188.443L218.953 188.204C219.866 190.282 219.947 190.695 219.719 192.95C216.336 198.219 210.175 195.738 207.337 191.061C207.262 186.074 207.45 182.609 212.269 179.864Z" fill="#CE9B4F"/>
<path d="M173.552 188.926C183.719 197.484 195.323 206.776 209.457 205.835C216.081 205.394 221.779 201.058 224.121 194.873L225.148 195.051L225.665 196.561C224.175 203.309 218.249 207.947 211.578 209.035C196.618 211.471 187.471 201.776 176.498 194.201C174.565 192.184 174.189 191.747 173.552 188.926Z" fill="#EDBC67"/>
<path d="M212.27 179.864C225.658 173.725 234.014 186.447 230.142 198.366C226.584 193.58 232.283 189.998 220.987 179.741C221.075 179.819 213.015 179.922 212.27 179.864Z" fill="#EDBC67"/>
<path d="M207.337 191.062L209.659 188.383C212.491 193.42 216.088 192.497 218.954 188.205C219.867 190.284 219.947 190.696 219.719 192.952C216.336 198.22 210.176 195.739 207.337 191.062Z" fill="#BF873E"/>
<path d="M131.981 78.7444C134.31 78.645 136.512 78.4074 138.76 79.0136C140.834 80.122 141.337 82.5005 142.162 84.771C145.377 94.3123 163.524 153.966 160.76 161.058C158.873 161.524 157.867 161.683 155.934 161.888L154.45 161.36C153.21 159.953 151.176 145.3 150.504 142.445C146.202 124.221 140.827 105.776 135.444 87.8907L134.424 85.5914C134.364 84.9422 132.343 79.7158 131.981 78.7444Z" fill="#ECDAC8"/>
<path d="M135.445 87.8896C137.049 88.3784 137.975 88.3254 138.673 90.1751C142.767 101.118 157.15 154.152 155.935 161.888L154.452 161.358C153.21 159.952 151.176 145.299 150.505 142.443C146.203 124.221 140.827 105.775 135.445 87.8896Z" fill="#D1BBAB"/>
<path d="M131.981 78.7444C134.31 78.645 136.512 78.4074 138.76 79.0136C140.834 80.122 141.337 82.5005 142.162 84.771C139.498 84.7562 136.82 84.5004 134.424 85.5914C134.364 84.9422 132.343 79.7158 131.981 78.7444Z" fill="#E8B88D"/>
<path d="M319.395 177.757C333.059 177.409 346.556 177.579 360.166 177.355C358.844 178.724 355.764 182.084 354.354 182.93C346.402 190.914 335.455 201.709 323.898 202.217C320.999 202.344 313.878 202.154 311.704 200.297C316.59 195.621 327.737 200.247 322.542 182.794C321.488 181.167 320.321 179.446 319.395 177.757Z" fill="#7A5641"/>
<path d="M319.396 177.757C333.06 177.409 346.556 177.579 360.167 177.355C358.845 178.724 355.764 182.084 354.355 182.93C351.173 181.585 326.073 181.742 322.543 182.794C321.489 181.167 320.321 179.446 319.396 177.757Z" fill="#572D17"/>
<path d="M331.912 185.145C334.569 183.918 337.711 185.09 338.919 187.755C340.127 190.419 338.925 193.556 336.254 194.743C333.61 195.917 330.516 194.737 329.322 192.1C328.127 189.463 329.288 186.357 331.912 185.145Z" fill="#542E19"/>
<path d="M167.048 178.09C180.773 177.962 194.504 177.956 208.229 178.073C207.651 178.867 205.578 181.854 205 182.353C199.45 198.802 213.557 196.655 215.597 200.002C201.537 209.707 181.746 191.551 172.041 182.596C170.128 181.02 168.819 179.83 167.048 178.09Z" fill="#7A5641"/>
<path d="M167.048 178.09C180.772 177.962 194.504 177.956 208.229 178.073C207.651 178.867 205.578 181.854 205 182.353C203.719 182.243 202.43 182.32 201.148 182.375C191.45 182.783 181.746 182.302 172.041 182.596C170.128 181.02 168.819 179.83 167.048 178.09Z" fill="#572D17"/>
<path d="M191.244 185.305C192.908 184.532 194.861 184.72 196.351 185.797C197.841 186.873 198.626 188.669 198.418 190.495C198.203 192.318 197.022 193.885 195.324 194.59C192.774 195.65 189.848 194.476 188.734 191.947C187.626 189.42 188.741 186.467 191.244 185.305Z" fill="#542E19"/>
<path d="M191.746 187.857C192.713 187.035 194.142 187.096 195.035 187.995C195.927 188.893 195.974 190.328 195.148 191.284C194.552 191.971 193.619 192.265 192.74 192.049C191.861 191.832 191.169 191.14 190.961 190.256C190.753 189.372 191.055 188.445 191.746 187.857Z" fill="#E8B88D"/>
<path d="M51.218 133.928C63.2648 138.456 67.8754 151.752 80.1102 155.787C87.714 158.296 91.2306 153.995 89.8346 146.782C86.4456 143.392 85.2041 144.126 80.7344 144.967L79.6539 143.333C79.741 142.015 79.7008 140.982 80.8216 140.137C87.0833 135.428 91.6466 138.995 95.7139 142.874C105.157 154.573 96.1707 166.446 82.7477 165.479C71.1976 164.647 64.8017 150.672 56.1709 144.189L59.9829 143.41C57.0904 140.745 50.6877 138.287 50.0166 135.071L51.218 133.928Z" fill="#EDBC67"/>
<path d="M95.7139 142.872C105.157 154.572 96.1707 166.445 82.7477 165.477C71.1975 164.646 64.8016 150.67 56.1709 144.188L59.9829 143.408C66.6808 149.989 72.5464 159.165 82.7812 159.572C90.6869 159.886 99.8212 151.918 94.5733 144.466L95.7139 142.872Z" fill="#BF873E"/>
<path d="M89.8342 146.781C86.4452 143.392 85.2036 144.126 80.7338 144.967L79.6533 143.333C79.7406 142.014 79.7003 140.982 80.8211 140.137C87.0827 135.428 91.6461 138.994 95.7135 142.874L94.5729 144.466C91.5663 142.267 91.6195 141.747 88.0223 140.987L88.895 140.805L87.9418 140.872C88.3847 142.705 88.6197 142.921 89.875 144.347L89.8342 146.781Z" fill="#DEA56F"/>
<path d="M109.56 85.96C108.171 86.9005 100.499 93.1573 100.405 93.1901C93.2514 98.9115 88.855 100.072 82.0434 93.0571C78.3588 89.897 78.9763 90.1019 74.3052 87.4402C71.1643 87.3073 68.2852 87.4744 65.151 87.6228C62.0974 89.3463 61.0974 90.5161 58.6343 93.0349C52.1176 102.064 47.903 100.711 41.2051 93.0571C39.6413 91.4331 37.0642 89.2106 35.3393 87.6256L34.1045 86.8071C35.0843 85.8667 103.453 86.111 109.56 85.96Z" fill="#572D17"/>
<path d="M35.3389 87.6251C38.6609 86.4362 62.7681 86.2731 65.1506 87.6224C62.097 89.3461 61.0969 90.5159 58.6339 93.0348C52.1172 102.064 47.9025 100.71 41.2046 93.056C39.6408 91.4321 37.0637 89.2104 35.3389 87.6251Z" fill="#664637"/>
<path d="M41.2051 93.0562C44.0372 92.8601 56.272 92.5657 58.6344 93.0349C52.1176 102.064 47.903 100.71 41.2051 93.0562Z" fill="#A16742"/>
<path d="M82.043 93.0569C85.855 92.8742 97.123 92.4503 100.405 93.19C93.2508 98.9114 88.8553 100.071 82.043 93.0569Z" fill="#A16742"/>
<path d="M286.523 197.438C287.94 195.856 291.242 191.573 292.953 191.336L293.147 193.512C292.691 215.611 252.175 220.729 240.249 204.791C237.914 201.668 234.706 199.698 234.182 195.44C234.41 194.221 234.638 193.023 235 191.836C237.907 192.63 240.377 196.854 242.793 198.991C248.148 202.725 253.497 205.377 260.068 206.125C270.335 207.292 278.624 203.704 286.523 197.438Z" fill="#BF873E"/>
<path d="M242.792 198.99C248.148 202.723 253.497 205.377 260.067 206.124C270.336 207.292 278.624 203.703 286.524 197.438L287.389 199.255C280.423 205.804 273.147 210.969 263.215 210.686C254.846 210.448 248.216 206.702 242.195 201.147L242.792 198.99Z" fill="#EDBC67"/>
<path d="M234.182 195.438C234.41 194.219 234.638 193.021 235 191.835C237.907 192.628 240.377 196.853 242.793 198.989L242.195 201.146C239.705 199.251 237.558 197.157 235.376 194.921L234.182 195.438Z" fill="#DEA56F"/>
<path d="M286.523 197.438C287.94 195.856 291.242 191.573 292.953 191.336L293.148 193.512C291.174 195.754 289.866 197.968 287.39 199.255L286.523 197.438Z" fill="#DEA56F"/>
<path d="M158.753 201.571C160.706 198.029 162.747 194.508 164.391 190.811C168.042 194.552 171.626 198.431 175.424 202.018C177.599 202.995 179.343 204.769 181.122 206.329C185.672 208.968 190.404 211.357 195.048 213.841C178.068 213.71 161.089 213.706 144.109 213.829C147.948 211.687 151.404 209.057 154.921 206.439L158.753 201.571Z" fill="#664637"/>
<path d="M158.753 201.571C160.706 198.029 162.747 194.508 164.39 190.811C168.041 194.552 171.625 198.431 175.424 202.018C171.625 202.723 162.263 203.226 158.753 201.571Z" fill="#7A5641"/>
<path d="M154.922 206.441L158.753 201.573C162.264 203.227 171.626 202.725 175.424 202.019C177.599 202.997 179.344 204.771 181.123 206.331C172.411 206.063 163.639 206.358 154.922 206.441Z" fill="#572D17"/>
<path d="M131.593 155.886C120.694 150.789 123.566 145.047 124.868 135.501C127.076 119.316 105.097 125.317 107.083 109.886L107.721 109.713L108.331 111.22C119.7 124.104 144.009 105.593 131.754 146.815C131.539 147.531 133.915 154.888 134.278 156.808C132.693 156.822 133.109 156.785 131.593 155.886Z" fill="#EDBC67"/>
<path d="M131.593 155.886C120.694 150.789 123.566 145.047 124.868 135.501C127.076 119.316 105.097 125.317 107.083 109.886L107.721 109.713L108.331 111.22C106.318 119.19 123.928 117.501 127.371 124.859C133.19 137.31 124.022 143.395 131.593 155.886Z" fill="#BF873E"/>
<path d="M358.61 193.81L359.193 193.221C360.314 194.743 359.777 201.861 359.489 203.804L359.193 213.621C349.797 213.677 340.388 213.601 331.013 214.207C336.475 211.975 341.918 209.819 346.636 206.175C347.677 203.946 348.958 202.637 351.093 201.447L358.61 193.81Z" fill="#7A5641"/>
<path d="M358.61 193.81L359.194 193.221C360.315 194.743 359.777 201.861 359.489 203.804C354.979 203.874 350.643 203.789 346.637 206.175C347.677 203.946 348.959 202.637 351.093 201.447L358.61 193.81Z" fill="#572D17"/>
<path d="M358.61 193.811C359.288 196.118 359.307 196.811 359.348 199.228C357.207 202.619 354.912 201.683 351.093 201.448L358.61 193.811Z" fill="#572D17"/>
<path d="M30.3252 36.2555C30.7144 33.5573 30.2312 33.8051 31.9158 32.2744C37.4324 35.2558 37.5197 47.2312 36.5331 52.7772C36.2915 58.6165 34.1708 59.9612 34.2177 62.3605L36.9224 64.88L36.4794 65.6568C33.5667 65.8562 32.352 65.9791 29.4325 65.5373L29.258 64.6974C30.56 63.671 31.5131 63.0164 32.513 61.6885C26.7212 56.2681 28.8822 43.4744 30.3252 36.2555Z" fill="#ECDAC8"/>
<path d="M30.3262 36.2555C30.7154 33.5573 30.2322 33.8051 31.9167 32.2744C37.4335 35.2558 37.5207 47.2312 36.5342 52.7772C36.2456 46.5418 36.2388 40.1231 30.3262 36.2555Z" fill="#E8B88D"/>
<path d="M385.329 23.1729C386.187 23.3386 387.019 23.7327 387.825 24.0536C388.476 25.0123 389.053 26.0146 389.429 27.1109C391.932 34.3157 390.825 43.9467 387.476 50.6803L387.348 50.9321C388.603 51.7128 389.516 52.2707 390.207 53.6134L389.415 54.6244C387.617 54.6305 384.61 55.0507 383.133 53.9632C383.53 52.4097 384.704 51.9444 385.959 51.0327C385.235 49.8941 384.482 48.7341 383.886 47.523C380.731 41.1218 383.113 29.5506 385.329 23.1729Z" fill="#ECDAC8"/>
<path d="M4.31234 36.2635L4.77538 33.3277C6.96998 32.7047 6.18477 32.5865 7.97669 33.5371C11.0505 38.4218 11.8693 50.4744 10.2854 56.0089C9.90292 58.789 9.75525 60.4646 7.24518 61.8919C0.413056 58.2344 3.14457 42.9876 4.31234 36.2635Z" fill="#ECDAC8"/>
<path d="M4.3125 36.2635L4.77554 33.3277C6.97015 32.7047 6.18493 32.5865 7.97685 33.5371C11.0507 38.4218 11.8695 50.4744 10.2856 56.0089C10.4802 51.4787 8.41983 38.252 4.3125 36.2635Z" fill="#E8B88D"/>
<path d="M59.5128 62.2225C52.486 57.9481 53.5195 36.6928 58.8953 33.6094C64.1838 35.0239 63.9892 58.0213 59.7745 62.0064L59.5128 62.2225Z" fill="#ECDAC8"/>
<path d="M81.1232 37.9494C82.0023 35.3655 81.5929 35.2802 83.5459 33.7441C87.0828 34.5766 87.5795 38.0588 87.7875 41.3195C88.0895 45.3181 88.6532 52.0832 87.5459 55.7863C87.2103 58.2695 86.7539 59.3162 85.8681 61.5873L83.9754 62.2956C79.15 58.3756 79.9352 46.456 80.801 40.9745L81.1232 37.9494Z" fill="#ECDAC8"/>
<path d="M81.1229 37.9494C82.0021 35.3655 81.5927 35.2802 83.5458 33.7441C87.0826 34.5766 87.5793 38.0588 87.7873 41.3195C88.0894 45.3181 88.6531 52.0831 87.5457 55.7863C87.6397 48.3485 87.3376 45.4127 80.8008 40.9745L81.1229 37.9494Z" fill="#D1BBAB"/>
<path d="M81.124 37.9494C82.0032 35.3655 81.5937 35.2802 83.5468 33.7441C87.0837 34.5766 87.5803 38.0588 87.7884 41.3195C84.6408 39.0061 85.285 37.168 81.124 37.9494Z" fill="#E8B88D"/>
<path d="M327.825 50.4944C321.872 45.9434 323.409 29.4788 327.348 23.8779L328.744 23.2676C333.221 27.7038 333.234 45.3533 329.127 50.9348L327.825 50.4944Z" fill="#ECDAC8"/>
<path d="M169.377 50.2059C163.317 45.7402 164.613 25.5201 170.056 23.7363C175.129 26.7486 174.854 44.9594 170.31 50.835L169.377 50.2059Z" fill="#ECDAC8"/>
<path d="M263.362 50.2101C257.833 45.9954 258.9 29.377 262.805 24.2708L264.094 23.8076C269.236 26.487 268.846 45.318 264.436 50.7585L263.362 50.2101Z" fill="#ECDAC8"/>
<path d="M230.544 50.3415C225.148 46.4954 225.974 24.8715 231.625 23.4463C236 26.6344 236.316 44.8795 232.289 50.3475C232.135 50.5497 231.981 50.749 231.827 50.945L230.544 50.3415Z" fill="#ECDAC8"/>
<path d="M140.902 51.4071C136.452 46.2157 136.123 30.1257 138.902 24.4683L140.277 23.46C147.492 24.816 145.506 46.7226 141.935 51.1662L140.902 51.4071Z" fill="#ECDAC8"/>
<path d="M357.482 50.2723C352.349 45.9126 352.94 24.3203 358.986 23.6846C363.288 27.7287 363.348 45.3117 358.61 50.7449L357.482 50.2723Z" fill="#ECDAC8"/>
<path d="M295.422 50.0359C290.946 46.5497 291.443 28.1811 295.704 24.3223C302.006 24.4948 301.362 44.8129 297.248 50.8342L295.422 50.0359Z" fill="#ECDAC8"/>
<path d="M199.256 50.5794C193.665 46.0097 194.329 25.268 200.39 24.0508C204.249 26.9235 204.672 44.8522 201.289 49.3939C200.914 49.886 200.511 50.3532 200.081 50.7936L199.256 50.5794Z" fill="#ECDAC8"/>
<path d="M232.55 202.831C237.141 207.321 241.879 210.535 247.443 213.626C243.624 213.846 239.745 213.713 235.919 213.71C231.094 213.697 226.269 213.639 221.443 213.533C226.061 210.495 229.248 207.269 232.55 202.831Z" fill="#664637"/>
<path d="M31.4062 133.217C37.9498 133.694 44.6813 133.274 51.2181 133.928L50.0167 135.071C50.6878 138.287 57.0905 140.746 59.983 143.41L56.171 144.19C48.4195 139.374 45.7618 139.226 36.9498 138.419L31.4062 133.217Z" fill="#C28845"/>
<path d="M294.389 202.737C296.207 203.578 303.281 211.532 306.422 213.691L296.544 213.615L283.141 213.587C287.201 210.212 290.798 206.605 294.389 202.737Z" fill="#664637"/>
<path d="M57.9355 133.058C65.1099 133.194 74.405 133.122 81.3512 134.031C78.7338 136.86 77.6399 137.998 76.103 141.638L75.5393 140.206C72.6198 139.033 69.6266 139.137 66.6602 140.1C63.4321 137.196 61.4992 135.561 57.9355 133.058Z" fill="#572D17"/>
<path d="M66.6611 140.1C69.6275 139.138 72.6208 139.034 75.5402 140.206L76.1039 141.638C76.1643 144.138 76.5671 146.176 78.2382 148.024C80.6073 149.495 82.869 149.049 85.8488 149.137L86.3252 149.964C81.0032 160.554 69.7416 144.519 66.6611 140.1Z" fill="#7A5641"/>
<path d="M114.243 48.4646C117.861 41.2424 124.78 43.4034 127.646 49.7764L128.384 52.5229C126.291 52.4819 124.337 52.249 122.485 53.2264C119.975 53.3117 118.318 53.5386 115.962 52.6249C114.15 50.537 114.647 51.485 114.243 48.4646Z" fill="#ECDAC8"/>
<path d="M122.485 53.2257C119.975 53.311 118.318 53.5378 115.962 52.6242C114.15 50.5363 114.647 51.4842 114.243 48.4639C115.868 49.485 126.122 50.6216 127.646 49.7757L128.384 52.5222C126.291 52.4812 124.337 52.2482 122.485 53.2257Z" fill="#D1BBAB"/>
<path d="M2.64844 86.1719L19.1582 86.2551C16.7556 88.5081 14.306 90.5903 12.6013 93.4195C9.80936 92.6479 7.19868 92.3774 4.46718 93.4514C4.25241 94.0066 3.85646 94.9521 3.71552 95.4957C3.37995 94.0075 2.85649 88.0147 2.64844 86.1719Z" fill="#572D17"/>
<path d="M180.673 200.734C180.183 200.405 179.713 200.056 179.25 199.688C176.283 197.297 162.263 186.874 165.787 182.992C168.727 183.379 171.431 186.621 173.552 188.927C174.189 191.749 174.565 192.186 176.498 194.203C177.733 195.961 179.813 198.841 180.673 200.734Z" fill="#DEA56F"/>
<path d="M295.422 50.0342L297.248 50.8324L299.443 52.8223L299.483 53.8904L297.772 54.9961C295.054 55.1599 296.067 55.3921 293.691 54.0428C293.409 52.0851 294.02 52.0005 295.422 50.0342Z" fill="#D1BBAB"/>
<path d="M230.545 50.3408L231.827 50.9444C233.223 52.4354 234.236 52.0655 235.015 54.1702C232.914 54.8395 230.089 55.1214 228.143 54.0815C228.378 52.042 228.935 52.0407 230.545 50.3408Z" fill="#D1BBAB"/>
<path d="M169.378 50.2061L170.31 50.8351L172.525 52.9398L172.531 53.9992L170.552 55.0733C168.042 54.9619 168.82 55.2922 166.861 54.0153L166.834 52.7182L169.378 50.2061Z" fill="#D1BBAB"/>
<path d="M263.363 50.21L264.437 50.7584C265.933 52.3253 266.49 52.3153 266.497 54.0184L264.457 55.1081C262.135 55.0536 262.994 55.3034 261.007 54.0413L260.887 52.8194L263.363 50.21Z" fill="#D1BBAB"/>
<path d="M327.825 50.4961L329.127 50.9364L330.992 52.7934L330.972 53.9776C328.63 55.4519 327.596 55.6009 325.308 54.1031V52.7672L327.825 50.4961Z" fill="#D1BBAB"/>
<path d="M199.256 50.5791L200.082 50.7932C200.941 51.535 201.786 52.1963 202.679 52.8972L202.625 54.0693L200.907 55.1878C198.283 55.1717 199.269 55.3986 196.86 53.9673V52.8086L199.256 50.5791Z" fill="#D1BBAB"/>
<path d="M357.483 50.2715L358.611 50.7441C360.214 52.215 360.523 52.0284 361.027 53.8162L359.651 54.9514C357.134 55.2522 358.06 55.3307 355.591 54.0693L355.349 52.8622L357.483 50.2715Z" fill="#D1BBAB"/>
<path d="M353.274 18.613C355.784 18.4089 358.623 17.9208 361.073 18.6049C361.65 18.7654 361.918 19.581 362.207 20.1047C361.026 20.7351 358.878 21.3017 357.509 21.2211C355.261 21.0882 354.657 20.1806 353.274 18.613Z" fill="#E8B88D"/>
<path d="M81.4867 62.4513C82.0035 62.4217 82.527 62.3963 83.0504 62.4083C85.0572 62.4553 86.0907 63.0072 87.3994 64.3988L87.2115 65.7657C85.3256 65.8147 83.4733 65.8658 81.5941 65.6737L80.8291 64.7292L81.4867 62.4513Z" fill="#D1BBAB"/>
<path d="M325.932 18.5037C327.791 18.4708 329.435 18.5037 331.254 18.9212L331.435 19.9874L329.798 21.7322C327.784 21.4414 325.892 21.2951 324.207 20.0491L324.368 19.173L325.932 18.5037Z" fill="#E8B88D"/>
<path d="M3.10449 28.0608C5.66151 28.3254 8.18498 27.5392 10.6749 28.4563L10.7957 30.0265C8.80246 30.6079 7.2387 30.8671 5.15148 30.7274C3.8025 29.8319 3.60785 29.6009 3.10449 28.0608Z" fill="#E8B88D"/>
<path d="M258.961 18.6341C261.552 18.4347 264.062 18.146 266.618 18.7174C266.954 18.7913 267.518 19.9043 267.726 20.24C266.451 20.6663 264.551 21.1496 263.216 21.1383C261.149 21.1208 260.33 19.9721 258.961 18.6341Z" fill="#E8B88D"/>
<path d="M225.692 19.2591C227.222 19.0564 228.8 18.8127 230.337 18.7932C232.417 18.7677 233.659 18.577 235.176 20.0433C233.941 20.8556 232.571 21.1436 231.102 21.2295C228.853 21.361 227.323 20.7663 225.692 19.2591Z" fill="#E8B88D"/>
<path d="M164.767 18.5816C167.492 18.3915 170.156 18.0894 172.841 18.7554L173.464 20.0631C172.351 20.5163 170.471 21.0889 169.257 21.1004C167.029 21.1218 166.237 20.0148 164.767 18.5816Z" fill="#E8B88D"/>
<path d="M141.935 51.166C143.713 52.7087 143.741 52.2112 143.888 54.0004C141.962 55.1249 139.66 55.4538 137.814 53.9816C138.639 52.1629 138.733 52.5758 140.902 51.407L141.935 51.166Z" fill="#ECDAC8"/>
<path d="M28.4863 27.9992C31.0434 27.8017 33.4057 27.5984 35.9426 28.1267L36.8486 29.6043C35.5801 30.1575 33.7212 30.608 32.3453 30.555C30.3991 30.479 29.6609 29.3344 28.4863 27.9992Z" fill="#E8B88D"/>
<path d="M292.39 18.6704C293.645 18.616 294.913 18.5442 296.168 18.573C298.288 18.622 299.027 18.614 300.49 20.1782C300.262 20.2728 300.053 20.3548 299.825 20.428C298.006 20.9999 295.235 21.69 293.47 20.6931C292.625 20.2178 292.638 19.5465 292.39 18.6704Z" fill="#E8B88D"/>
<path d="M136.962 18.5724C139.337 18.524 141.606 18.571 143.968 18.8422L144.921 20.1957C143.022 20.8327 141.391 21.161 139.384 21.2269C137.646 20.44 137.64 20.3393 136.962 18.5724Z" fill="#E8B88D"/>
<path d="M55.251 28.0928C57.6402 27.9559 59.9086 27.8102 62.2777 28.219L63.0831 29.6638C61.5059 30.2773 58.9422 31.0769 57.2979 30.507C56.0026 30.0592 55.8349 29.2327 55.251 28.0928Z" fill="#E8B88D"/>
<path d="M59.513 62.224L59.7748 62.0078C60.4795 62.7866 61.1976 63.5513 61.9359 64.3012C61.3453 65.7425 61.3117 65.3706 59.466 66.2313C57.1305 66.0486 57.9224 66.3883 56.1641 64.9967C56.7346 63.2263 57.5198 63.3029 59.513 62.224Z" fill="#D1BBAB"/>
<path d="M194.659 19.275C197.156 18.8836 199.404 18.5748 201.928 18.9031C202.74 19.0085 202.834 19.422 203.317 20.051C202.365 20.6808 201.022 21.0171 199.895 21.1467C197.579 21.4139 196.371 20.5808 194.659 19.275Z" fill="#E8B88D"/>
<path d="M381.945 19.2653C384.368 19.0015 387.503 18.3563 389.778 19.3479L390.026 20.7436C388.523 20.9289 386.771 21.2747 385.261 21.1222C383.462 20.9396 383.073 20.5845 381.945 19.2653Z" fill="#E8B88D"/>
</g>
<defs>
<clipPath id="clip0_1846_497">
<rect width="404.429" height="239.464" fill="white"/>
</clipPath>
</defs>
</svg>
