<svg width="456" height="270" viewBox="0 0 456 270" fill="none" xmlns="http://www.w3.org/2000/svg">
<path fill-rule="evenodd" clip-rule="evenodd" d="M154.245 0.484033C171.142 -0.492393 188.486 0.310725 205.429 0.309228L305.088 0.300439L396.582 0.304345C412.48 0.306614 428.909 -0.506982 444.762 0.573877C447.69 0.773694 449.786 1.3233 452.011 3.39614C454.023 5.27856 455.28 8.75663 455.258 11.4899C455.197 18.2653 447.743 18.9123 444.035 22.8756C440.775 26.3614 444.307 35.6229 445.004 39.9333C445.806 44.8782 443.438 50.0462 443.528 55.0124C443.68 63.4342 448.924 61.8268 453.312 66.276C455.477 68.4688 455.817 72.1595 455.908 75.0963C456.408 90.3691 449.136 104.281 444.565 118.513C441.251 128.649 438.473 138.952 436.233 149.38C428.757 183.153 426.404 216.489 425.927 250.992C425.813 251.529 425.662 252.947 425.254 253.226C424.013 254.062 422.771 254.102 421.326 254.222C417.429 253.524 413.153 254.236 409.219 254.591L406.669 254.884C395.25 257.328 383.203 258.222 371.656 260.539C359.935 262.766 346.382 266.981 334.494 266.571C308.804 271.287 282.22 270.321 256.605 265.412C237.257 261.701 218.686 256.756 198.974 254.746C184.786 254.521 170.877 254.689 156.938 257.728C152.693 258.599 147.91 260.109 143.62 260.393C139.004 261.502 133.889 262.339 129.439 263.913C123.34 265.12 115.221 267.681 109.114 267.385C102.16 268.787 94.9185 268.93 87.8662 269.612C85.6341 269.801 83.4236 269.652 81.1914 269.536C74.4797 262.448 70.0908 254.71 66.3906 245.776C62.9025 244.757 59.9431 243.755 57.6504 240.7C55.9783 238.478 55.0853 235.814 55.5469 233.036C56.2432 228.846 58.5365 226.792 61.8203 224.54C60.3523 206.737 57.8323 190.18 49.5918 174.089C44.8547 164.833 35.7203 153.138 24.7861 151.078C20.9044 150.347 16.4928 150.745 12.7549 149.44C10.644 148.7 8.47963 146.797 7.60939 144.708C6.24775 141.45 8.24444 138.127 9.57618 135.186C9.14425 130.255 2.69009 122.257 1.05568 116.613C-0.601079 110.87 1.25242 103.359 -1.16893 98.0202C-2.28929 95.5493 -6.15588 94.6164 -7.79784 92.2604C-14.4485 82.7171 -1.38865 75.7353 -0.00389481 71.4215C1.48647 66.7381 -0.949429 57.6504 -0.835926 52.4655C-0.722336 47.1595 0.420393 41.9251 1.45704 36.7379C-1.07801 31.0227 -5.88289 30.3693 -8.86425 25.4811C-9.97633 23.6593 -10.2721 21.6604 -9.74999 19.5934C-9.17481 17.3313 -7.7522 15.1729 -5.69432 14.0202C-1.02548 11.4072 69.953 12.1184 80.9649 12.7331C85.1417 12.9601 89.289 13.5942 93.3447 14.6266C111.975 19.5309 115.562 37.6457 124.271 52.4772C126.64 48.8379 130.272 45.3842 134.51 44.0368C136.318 43.4609 138.067 43.7685 139.724 44.6334C145.701 47.7618 147.859 54.9701 149.849 60.9059C150.393 60.3905 150.945 59.8625 151.43 59.2887C153.427 56.9043 151.899 53.8374 151.119 51.1745C148.645 42.6908 152.936 34.0256 152.194 25.5534C151.884 22.0437 148.471 20.6047 145.981 18.5504C143.28 16.3243 140.003 13.5246 139.738 9.76821C139.61 8.00109 140.39 6.37907 141.54 5.07583C145.316 0.791703 148.918 0.792082 154.245 0.484033ZM103.999 53.0104C103.681 58.5944 102.924 63.8265 101.676 69.2916C103.061 71.6366 103.689 73.4981 106.587 74.2467C111.286 75.4631 116.894 74.1563 121.752 74.3327L122.342 73.5397C115.509 69.5764 111.605 64.2654 107.367 57.8043C106.383 56.3154 105.338 54.142 103.999 53.0104ZM46.3604 31.2604C42.7359 38.7715 45.8152 47.8293 45.8682 55.9459C45.8908 60.4822 45.1197 65.0752 44.2344 69.5153C45.5889 71.5969 46.5571 73.8811 49.251 74.4118C51.5514 74.8637 54.4799 74.3405 56.8106 74.1149C57.3932 73.3308 58.8914 71.7329 59.043 70.8434C59.5954 67.6582 58.6572 63.784 58.3545 60.5436C57.5902 52.1968 58.1423 44.5568 60.2383 36.4303C59.073 34.6417 57.8092 32.8674 56.7725 31.0016L46.3604 31.2604ZM26.7471 31.3434C23.69 30.7681 20.8218 30.9963 17.7344 31.2272C16.8643 32.5215 15.5707 34.2458 15.3359 35.8073C14.9803 38.1917 15.5926 41.0975 15.8272 43.525C16.6898 52.684 17.3707 60.8816 14.8281 69.9157C16.1297 71.7732 17.0458 73.8399 19.4522 74.3561C21.6617 74.8314 24.8095 74.389 27.125 74.2936C27.7834 73.2172 29.5767 70.9488 29.6826 69.7975C30.1593 64.6306 27.874 59.1781 27.874 53.9499C27.8742 48.5483 31.355 40.7547 29.9248 35.7506C29.4178 33.9493 28.3057 32.3705 26.7471 31.3434ZM85.2031 32.3717C82.7363 30.5551 79.1641 30.9467 76.2735 31.0436C75.3352 32.4575 73.6098 34.6452 73.4356 36.3317C72.974 40.775 75.358 46.4558 75.6758 50.9967C75.9935 55.48 74.6391 60.5866 74.1699 65.0963C74.0111 66.6154 73.9356 68.2513 74.208 69.7643C74.6394 72.1621 75.4643 72.861 77.3408 74.15C79.3008 74.3113 83.3638 74.9006 84.9453 73.8532C86.5647 71.8851 87.9878 70.7487 87.6397 67.9381C87.1781 64.189 85.9448 60.7214 85.9297 56.8815C85.9071 50.6556 90.6813 36.4095 85.2031 32.3717ZM251.543 21.152C246.307 19.7269 238.966 20.6595 233.48 20.7731C229.788 27.6544 233.427 36.9511 233.669 44.525C233.805 48.6562 233.056 52.8797 232.088 56.8844C232.852 58.6228 233.193 60.5156 235.084 61.2379C239.67 62.9894 246.987 61.671 251.929 61.7125C252.489 60.3508 253.261 58.6245 253.321 57.1432C253.495 52.7669 252.527 48.1033 252.451 43.6725C252.353 38.24 253.132 32.7451 252.89 27.3346C252.814 25.674 252.715 23.6346 252.042 22.0983C251.898 21.7672 251.724 21.4597 251.543 21.152ZM288.085 21.2165C283.711 19.3653 274.214 20.6743 269.379 20.7379C268.69 21.7219 267.828 22.9415 267.691 24.1608C267.132 29.2715 268.864 35.548 269 40.8131C269.166 47.2749 267.805 54.0749 268.939 60.442C268.992 60.7475 268.926 60.6692 269.175 60.8375C272.467 63.0506 284.55 61.6836 288.675 61.5934C289.31 60.4595 290.181 58.9647 290.332 57.653C290.869 52.8707 289.341 46.7734 289.394 41.7838C289.454 36.1962 290.953 30.688 290.915 25.1276C290.287 23.8838 289.416 21.7773 288.085 21.2165ZM325.609 21.2145C319.76 19.5994 311.542 20.7351 305.397 20.8161C304.853 22.0853 304.194 23.6355 304.148 25.0319C304.005 29.6309 305.39 34.7102 305.602 39.3903C305.927 46.4767 304.596 53.7192 305.799 60.7291C308.115 62.7103 320.721 61.9532 324.043 61.6481C324.542 61.6034 325.02 61.4109 325.466 61.2028C325.927 60.3127 326.775 59.0682 327.055 58.1334C327.94 55.2221 326.207 48.7838 326.07 45.4352C325.783 38.4116 328.212 29.0364 326.154 22.486C326.011 22.0412 325.821 21.6268 325.609 21.2145ZM360.698 21.0651C356.18 19.3979 347.205 20.8578 342.31 21.0456C341.697 22.3102 340.933 23.8434 340.888 25.2731C340.721 30.3149 342.121 35.7245 342.234 40.8541C342.363 46.6348 340.593 54.7564 342.446 60.1784C342.582 60.5754 342.794 60.9347 343.036 61.275C348.522 62.4634 355.295 61.7139 360.94 61.6139C361.531 60.3687 362.893 58.3018 363.12 57.0211C363.596 54.3263 361.077 49.6701 360.971 46.654C360.729 39.5009 364.822 29.3056 362.31 22.6862C361.984 21.8456 361.576 21.389 360.698 21.0651ZM182.228 21.4635C178.936 19.7305 171.292 20.7099 167.509 20.778C167.032 21.758 166.207 23.0311 165.912 24.0543C165.08 26.9609 166.98 34.112 167.29 37.3981C168.009 45.1014 166.11 53.05 167.532 60.6247C170.06 62.6884 178.489 61.713 181.887 61.6198C182.598 60.4435 184.195 58.4856 184.535 57.2389C185.329 54.3668 182.545 47.9736 182.371 44.734C182.031 38.2812 185.708 30.602 184.089 24.3688C183.771 23.1284 183.415 22.0894 182.228 21.4635ZM394.925 21.6627C391.3 19.571 382.447 20.7554 378.187 20.8561C377.574 22.1579 377.006 23.6807 376.945 25.1286C376.733 29.7715 378.178 35.0702 378.383 39.8297C378.67 46.663 377.271 53.6527 378.466 60.4118C380.743 62.5742 387.901 61.7849 391.08 61.6969C392.359 61.6614 393.563 61.7067 394.766 61.2028C395.409 60.1174 396.657 58.5343 397.013 57.3815C397.845 54.6582 394.72 42.2791 395.121 37.6051C395.401 34.3244 397.951 28.0885 397.346 25.2721C397.141 24.3089 395.765 22.1473 394.925 21.6627ZM216.733 21.1754C211.618 19.7785 204.921 20.6948 199.579 20.7516C198.997 22.0769 198.225 23.7917 198.202 25.2487C198.119 29.9922 199.389 35.0139 199.594 39.8112C199.881 46.7159 198.588 53.9056 199.844 60.7165C202.53 62.6988 212.678 61.6264 216.363 61.568C216.984 60.3109 217.816 58.7077 217.884 57.2916C218.126 52.134 216.794 46.5963 216.931 41.2721C217.075 35.4043 219.057 27.7289 217.127 22.1344C217.014 21.8055 216.877 21.493 216.733 21.1754ZM427.485 21.3034C422.809 19.9852 416.99 20.7119 412.14 20.7467C411.527 22.0749 410.778 23.6745 410.74 25.1579C410.627 30.2345 412.018 35.5161 412.14 40.651C412.276 46.4559 410.521 54.6679 412.276 60.1081C412.42 60.5542 412.609 60.7808 412.896 61.1422C417.27 62.1428 422.129 61.7194 426.601 61.6754C427.176 60.4999 428.16 59.0152 428.5 57.7868C429.271 55.048 427.789 49.106 427.66 46.0465C427.365 39.0229 430.157 29.0079 428.054 22.5543C427.91 22.1133 427.712 21.7074 427.485 21.3034Z" fill="#522E17"/>
<path d="M71.6952 245.859C154.351 244.873 237.173 245.566 319.844 245.786C333.722 249.999 370.619 243.264 385.897 246.928C383.733 249.087 384.588 251.497 381.577 252.675L381.418 253.318L381.054 253.841C380.245 255.72 379.42 257.051 377.43 257.801C375.47 258.536 373.185 258.816 371.149 259.32L371.656 260.538C359.935 262.766 346.382 266.982 334.494 266.571C308.803 271.288 282.22 270.321 256.605 265.412C237.256 261.701 218.687 256.756 198.974 254.745C184.786 254.521 170.878 254.689 156.939 257.728C152.694 258.599 147.911 260.108 143.621 260.393C139.005 261.502 133.889 262.339 129.44 263.913C123.341 265.12 115.221 267.681 109.115 267.386C102.16 268.788 94.9187 268.93 87.8661 269.612C87.2381 267.397 82.6978 263.923 81.0784 261.72C77.3327 256.627 74.4194 251.535 71.6952 245.859Z" fill="#BC7F56"/>
<path d="M222.122 254.547C241.093 255.077 260.192 256.072 279.163 255.892C313.117 255.569 347.063 253.636 381.054 253.84C380.245 255.719 379.42 257.05 377.43 257.8C375.47 258.535 373.184 258.815 371.149 259.319L371.656 260.538C359.934 262.765 346.382 266.981 334.494 266.57C308.803 271.287 282.22 270.32 256.605 265.411C237.256 261.7 218.687 256.755 198.974 254.745C206.647 254.686 214.464 254.943 222.122 254.547Z" fill="#DEA56F"/>
<path d="M334.494 266.571L334.169 266.427C327.85 263.541 307.502 266.353 303.855 262.596L302.644 263.008L302.334 262.681C303.893 263.149 308.138 262.149 310.484 262.154C319.549 262.173 328.569 262.815 337.642 262.509C348.803 262.132 360.048 260.539 371.149 259.319L371.656 260.538C359.935 262.765 346.382 266.981 334.494 266.571Z" fill="#AF744D"/>
<path d="M222.122 254.547C216.999 253.273 211.71 254.522 206.715 253.471C207.971 252.288 210.196 252.255 211.846 252.208C231.974 251.645 252.073 253.148 272.194 253.215C289.394 253.274 306.594 252.124 323.801 251.948C343.082 251.751 362.303 252.564 381.576 252.674L381.417 253.317L381.054 253.84C347.063 253.635 313.117 255.569 279.163 255.892C260.192 256.072 241.093 255.077 222.122 254.547Z" fill="#A16742"/>
<path d="M112.459 259.753C122.705 259.794 133.45 259.178 143.621 260.392C139.005 261.501 133.889 262.338 129.44 263.912C123.341 265.119 115.221 267.68 109.114 267.385C106.806 265.813 103.84 265.498 101.494 263.727C103.204 262.605 105.687 262.861 107.677 262.821C102.243 262.409 96.886 261.865 91.4906 261.052C94.5629 259.389 108.297 259.905 112.459 259.753Z" fill="#AF744D"/>
<path d="M107.677 262.821C113.224 262.987 124.84 264.302 129.44 263.912C123.341 265.119 115.222 267.68 109.115 267.385C106.807 265.812 103.841 265.498 101.495 263.726C103.205 262.605 105.687 262.86 107.677 262.821Z" fill="#BF873E"/>
<path d="M112.46 259.753C108.601 259.294 104.87 259.705 101.132 258.328C101.533 258.165 101.957 258.002 102.38 257.924C109.41 256.628 147.011 255.881 154.14 256.544C155.184 256.642 156.099 257.133 156.939 257.728C152.694 258.599 147.912 260.108 143.621 260.393C133.451 259.179 122.706 259.795 112.46 259.753Z" fill="#DEA56F"/>
<path d="M434.97 94.5924C438.792 93.9573 443.317 94.0262 447.244 93.9717C430.559 136.262 422.129 187.633 421.191 232.914C421.1 236.993 420.85 251.103 421.327 254.222C417.43 253.523 413.154 254.236 409.219 254.591C408.811 196.599 415.099 149.246 434.97 94.5924Z" fill="#DECCBC"/>
<path d="M319.844 245.785C329.205 245.777 400.078 244.694 402.871 245.74C403.241 245.88 403.771 246.385 404.119 246.63L403.968 248.108C403.885 250.485 403.423 252.521 404.634 254.617L406.669 254.883C395.251 257.326 383.204 258.22 371.656 260.537L371.149 259.319C373.185 258.815 375.47 258.535 377.43 257.799C379.42 257.05 380.245 255.719 381.055 253.84L381.418 253.317L381.577 252.674C384.589 251.496 383.733 249.086 385.898 246.927C370.62 243.263 333.722 249.998 319.844 245.785Z" fill="#AF744D"/>
<path d="M434.97 94.5913C435.697 92.8261 436.62 90.3706 437.43 88.7136C441.259 88.6145 445.587 87.8855 448.531 89.7249C448.72 91.5983 448.152 92.3174 447.244 93.9706C443.317 94.0251 438.792 93.9562 434.97 94.5913Z" fill="#E8B88D"/>
<path d="M162.334 88.8108L322.598 88.7396C358.557 88.7109 395.886 88.1242 431.754 88.9198C428.432 98.094 425.329 107.347 422.446 116.67L421.372 119.827C418.655 129.158 416.544 138.094 414.319 147.535C412.359 156.32 411.383 165.217 409.582 173.724C409.37 176.293 409.438 179.76 407.925 181.673C406.132 182.481 405.814 182.444 403.839 182.388C400.577 181.858 385.405 181.919 381.667 181.919L338.141 181.991L192.671 182.157C190.219 182.444 189.447 182.619 187.086 182.018C186.049 180.607 182.137 157.155 181.358 152.977C181.055 151.185 180.775 149.391 180.525 147.592C177.96 140.981 173.42 120.97 171.415 113.091C170.454 110.2 169.523 107.392 168.441 104.542C166.776 100.117 164.264 92.8748 162.334 88.8108Z" fill="#542E19"/>
<path d="M192.179 97.1199C198.513 94.6772 234.018 94.8733 240.563 96.5817C246.012 106.438 239.943 107.874 240.775 116L240.798 119.816C240.798 128.73 240.965 138.192 240.73 147.06V150.698C240.23 161.734 244.188 159.263 241.956 171.052L237.423 173.677C225.686 173.991 199.837 176.831 190.878 170.19C191.18 174.522 191.861 177.929 192.671 182.157C190.219 182.444 189.448 182.619 187.087 182.018C186.05 180.607 182.138 157.155 181.358 152.977C181.056 151.186 180.776 149.391 180.526 147.592C177.961 140.981 173.42 120.97 171.415 113.092C170.454 110.2 169.523 107.392 168.441 104.542C171.718 102.949 170.893 103.889 172.24 100.983C172.255 98.278 171.816 98.7087 173.261 97.1358C179.27 95.9307 185.936 96.7838 192.179 97.1199Z" fill="#572D17"/>
<path d="M172.24 100.983C172.255 98.2776 171.816 98.7083 173.261 97.1353C179.27 95.9303 185.936 96.7833 192.179 97.1194C187.359 107.484 192.807 108.81 192.944 115.917L192.353 119.399L192.293 125.127C191.491 132.04 193.662 143.845 189.871 147.111L186.527 147.467C183.969 147.817 183.106 147.789 180.526 147.591C177.961 140.981 173.42 120.969 171.415 113.091C170.454 110.199 169.523 107.392 168.441 104.541C171.718 102.949 170.893 103.889 172.24 100.983Z" fill="#BC7F56"/>
<path d="M172.24 100.983C172.255 98.2776 171.816 98.7083 173.261 97.1353C179.27 95.9303 185.936 96.7833 192.179 97.1194C187.359 107.484 192.807 108.81 192.944 115.917C188.403 116.174 182.138 115.893 177.469 115.822C176.152 112.441 175.569 110.587 174.707 107.061L173.791 108.716L172.762 108.497L171.703 109.349L171.415 113.091C170.454 110.199 169.523 107.392 168.441 104.541C171.718 102.949 170.893 103.889 172.24 100.983Z" fill="#DEA56F"/>
<path d="M172.24 100.983C173.746 103.003 173.693 103.635 176.75 103.783C181.744 104.025 182.872 104.188 187.7 105.779L187.995 106.202C182.887 106.79 179.845 106.979 174.707 107.061L173.791 108.716L172.762 108.497L171.703 109.35L171.415 113.091C170.454 110.2 169.523 107.392 168.441 104.542C171.718 102.949 170.893 103.889 172.24 100.983Z" fill="#AF744D"/>
<path d="M178.263 119.244C182.879 119.171 187.722 119.325 192.353 119.4L192.293 125.128C191.491 132.04 193.662 143.846 189.871 147.112L186.527 147.468C184.097 137.001 182.07 129.269 178.263 119.244Z" fill="#DEA56F"/>
<path d="M181.358 152.978C182.591 151.137 183.81 151.423 185.747 151.288L192.308 151.551C192.482 157.6 192.61 158.539 189.742 163.919L190.877 170.19C191.18 174.522 191.861 177.93 192.671 182.158C190.219 182.445 189.447 182.62 187.086 182.019C186.05 180.608 182.137 157.156 181.358 152.978Z" fill="#AF744D"/>
<path d="M185.747 151.288L192.308 151.551C192.482 157.6 192.61 158.539 189.743 163.919C188.123 162.292 186.806 154.639 185.747 151.288Z" fill="#E8B88D"/>
<path d="M192.292 125.128C192.497 133.934 192.504 142.744 192.307 151.55L185.747 151.288C183.81 151.422 182.591 151.137 181.358 152.978C181.055 151.186 180.775 149.392 180.526 147.592C183.106 147.791 183.969 147.819 186.526 147.468L189.871 147.112C193.662 143.846 191.49 132.041 192.292 125.128Z" fill="#AF744D"/>
<path d="M196.023 112.783C202.198 112.732 232.443 112.075 236.136 113.1C238.194 116.971 238.603 141.2 237.453 145.131C237.211 147.519 237.362 157.328 236.613 158.413C230.9 166.743 201.176 160.326 195.175 158.748L195.365 142.546C194.411 137.562 195.652 119.033 196.023 112.783Z" fill="#4A2E23"/>
<path d="M195.365 142.545L197.151 142.939C206.186 158.427 219.648 161.713 231.498 147.593C233.064 145.724 234.434 140.99 236.553 141.426C237.105 142.971 237.34 143.467 237.453 145.13C237.211 147.518 237.362 157.328 236.613 158.413C230.9 166.743 201.176 160.325 195.176 158.748L195.365 142.545Z" fill="#664637"/>
<path d="M212.504 117.811C218.641 116.437 225.051 118.468 229.281 123.13C233.511 127.793 234.911 134.368 232.943 140.35C230.983 146.332 225.959 150.798 219.791 152.047C210.386 153.95 201.207 147.924 199.209 138.538C197.211 129.152 203.136 119.907 212.504 117.811Z" fill="#A08372"/>
<path d="M214.972 121.681C219.792 121.173 224.514 123.327 227.291 127.305C230.068 131.282 230.461 136.454 228.327 140.809C226.186 145.163 221.858 148.013 217.015 148.247C209.811 148.597 203.636 143.149 203.084 135.957C202.531 128.763 207.798 122.437 214.972 121.681Z" fill="#362926"/>
<path d="M195.932 99.4254C205.051 99.1937 228.963 97.1432 236.424 100.305C238.225 101.07 238.611 102.01 239.254 103.717C239.087 106.065 238.255 107.198 236.779 108.981C229.091 110.507 204.392 111.764 197.438 109.091C195.289 108.267 194.744 107.267 193.897 105.305C193.889 102.788 194.6 101.46 195.932 99.4254Z" fill="#A08372"/>
<path d="M193.768 161.844C209.212 166.013 221.948 164.954 237.68 163.222C238.815 165.005 238.596 166.791 238.702 168.866C238.308 169.004 237.907 169.127 237.506 169.236C230.257 171.159 201.509 171.894 195.531 168.386C193.866 166 193.995 164.681 193.768 161.844Z" fill="#A08372"/>
<path d="M398.247 95.1895C401.652 96.6784 403.528 97.3899 404.959 101.062C405.133 101.515 405.299 101.973 405.451 102.436L405.133 105.474C404.558 111.319 401.924 111.564 402.34 115.641C406.465 115.56 412.193 115.283 416.173 115.59L422.446 116.67L421.372 119.827C418.655 129.157 416.544 138.094 414.319 147.535C412.359 156.32 411.383 165.217 409.582 173.724C406.359 168.518 411.043 163.305 404.815 162.198C405.435 167.429 405.42 168.398 402.28 172.934C392.367 174.791 376.9 174.02 366.631 174.105C355.447 174.198 352.541 172.211 353.094 161.998C355.326 158.352 354.66 155.698 354.365 151.577L354.418 147.66L354.289 119.773L354.713 115.159C354.584 113.034 353.033 108.502 352.344 106.273L351.943 103.125C353.124 99.7978 353.737 99.2096 356.173 96.6996C367.986 94.0926 389.31 97.1893 398.247 95.1895Z" fill="#572D17"/>
<path d="M403.756 147.478C403.249 138.811 403.612 128.617 403.718 119.827L415.039 119.825L421.372 119.826C418.656 129.157 416.544 138.094 414.32 147.535L407.729 147.282L403.756 147.478Z" fill="#DEA56F"/>
<path d="M415.038 119.825L421.372 119.826C418.655 129.157 416.544 138.094 414.319 147.535L407.729 147.282C409.355 138.55 412.412 128.299 415.038 119.825Z" fill="#BC7F56"/>
<path d="M407.729 147.283L414.32 147.536C412.36 156.321 411.384 165.218 409.583 173.725C406.359 168.519 411.043 163.306 404.815 162.199L403.612 160.802L403.839 150.814L403.756 147.479L407.729 147.283Z" fill="#BC7F56"/>
<path d="M403.839 150.812C407.055 150.547 406.389 150.094 408.274 151.677C409.023 154.898 406.367 159.22 403.612 160.8L403.839 150.812Z" fill="#DEA56F"/>
<path d="M402.341 115.642C406.465 115.561 412.193 115.284 416.173 115.591L422.446 116.671L421.372 119.827L415.038 119.827L403.718 119.828C403.612 128.618 403.249 138.812 403.756 147.479L403.839 150.814L403.612 160.802C401.591 154.287 404.028 126.267 402.341 115.642Z" fill="#AF744D"/>
<path d="M363.999 110.055C359.269 109.856 355.41 108.492 354.994 103.138C357.854 96.9942 398.021 97.6293 401.403 102.026C402.024 104.829 401.418 106.205 400.624 108.911C400.23 110.808 399.806 112.609 399.723 114.549C399.746 119.838 399.685 125.408 399.814 130.669C400.283 133.014 400.571 140.111 399.927 142.374C399.466 146.673 399.7 155.447 399.723 160.093C383.688 163.74 373.549 163.142 357.983 157.929C357.408 152.907 357.37 145.283 357.219 140.043C355.63 137.636 356.818 115.486 358.006 112.428C364.922 112.245 370.741 112.542 377.665 111.752C375.819 110.952 367.578 110.789 363.999 110.055Z" fill="#4C3124"/>
<path d="M378.194 117.351C380.971 117.319 383.725 117.955 386.207 119.205C392.602 122.417 396.378 129.211 395.734 136.336C395.091 143.462 390.157 149.47 383.294 151.485C376.431 153.5 369.038 151.113 364.641 145.466C360.252 139.819 359.76 132.061 363.4 125.903C366.495 120.662 372.102 117.42 378.194 117.351Z" fill="#A08372"/>
<path d="M379.352 121.069L380.449 121.672C389.515 124.213 395.841 132.264 389.734 141.402C387.54 144.657 384.142 146.904 380.283 147.644C364.241 150.822 358.149 124.021 379.352 121.069Z" fill="#362926"/>
<path d="M374.948 123.7C376.219 123.903 378.421 124.152 379.496 124.683C375.583 127.075 375.561 129.114 369.288 132.177L368.69 131.648L368.599 132.133L369.802 131.675L369.265 130.525L370.301 131.266L369.689 129.783C370.687 127.851 373.351 125.348 374.948 123.7Z" fill="#664637"/>
<path d="M379.352 121.069L380.449 121.672C380.585 122.864 380.782 123.41 381.478 124.387C380.85 124.532 380.116 124.769 379.496 124.682C378.421 124.152 376.219 123.902 374.948 123.7C376.401 122.904 377.922 121.938 379.352 121.069Z" fill="#4A2E23"/>
<path d="M363.999 110.055C359.269 109.856 355.41 108.492 354.994 103.138C357.854 96.9942 398.021 97.6293 401.403 102.026C402.024 104.829 401.418 106.205 400.624 108.911C391.922 111.076 373.692 109.708 363.999 110.055Z" fill="#A08372"/>
<path d="M392.224 102.121C393.2 101.809 394.259 102.077 394.971 102.811C395.674 103.545 395.901 104.617 395.553 105.576C395.205 106.533 394.343 107.21 393.329 107.319C391.967 107.466 390.718 106.559 390.43 105.218C390.15 103.878 390.922 102.54 392.224 102.121Z" fill="#572D17"/>
<path d="M357.218 140.044C359.844 142.175 359.912 143.776 361.667 145.865C365.481 150.388 372.837 156.452 379.322 155.475C389.666 153.916 394.645 148.064 398.345 139.258L399.17 139.424C399.443 140.332 399.828 141.452 399.927 142.374C399.465 146.673 399.7 155.448 399.722 160.094C383.688 163.74 373.548 163.143 357.982 157.93C357.407 152.907 357.369 145.283 357.218 140.044Z" fill="#664637"/>
<path d="M400.623 108.91C400.229 110.807 399.806 112.608 399.722 114.548L398.489 113.093C393.979 112.686 388.296 113.552 383.71 114.078L382.765 116.207C384.376 117.669 385.595 117.722 386.208 119.204C383.726 117.955 380.971 117.319 378.194 117.351C372.102 117.42 366.495 120.662 363.4 125.903L362.477 124.378C362.666 119.045 371.898 115.358 376.174 113.172C370.824 113.154 363.082 113.393 358.005 112.427C364.921 112.244 370.74 112.541 377.664 111.751C375.818 110.951 367.577 110.788 363.998 110.054C373.692 109.707 391.921 111.075 400.623 108.91Z" fill="#542E19"/>
<path d="M383.71 114.079C388.296 113.553 393.979 112.687 398.489 113.094L399.722 114.549C399.745 119.838 399.685 125.408 399.813 130.669C397.838 130.056 397.838 129.479 397.104 127.417C394.267 119.475 391.088 117.889 383.71 114.079Z" fill="#664637"/>
<path d="M357.309 161.339C372.171 168.594 394.622 161.494 400.699 163.705C401.864 166.039 401.448 167.437 401.206 169.966C389.007 170.261 376.355 171.4 364.18 170.248C361.773 170.021 358.58 169.853 356.946 167.866C356.015 165.67 356.772 163.546 357.309 161.339Z" fill="#A08372"/>
<path d="M162.334 88.8108L322.598 88.7396C358.557 88.7109 395.886 88.1242 431.754 88.9198C428.432 98.094 425.329 107.347 422.446 116.67L416.173 115.59C412.193 115.283 406.465 115.561 402.34 115.642C401.924 111.565 404.558 111.319 405.133 105.474L405.451 102.436C405.299 101.973 405.133 101.515 404.959 101.062C403.528 97.39 401.652 96.6785 398.247 95.1896C389.31 97.1894 367.986 94.0928 356.173 96.6997C353.737 99.2097 353.124 99.7979 351.943 103.125L352.344 106.274C351.361 105.816 335.682 106.202 333.26 106.232L324.316 105.888L323.922 106.33C323.453 104.97 323.658 103.637 323.733 102.174C323.241 99.9977 321.962 98.2999 320.744 96.4287C311.671 95.0306 283.249 94.8769 274.486 96.4287C267.055 105.803 274.267 107.533 273.699 115.269C272.398 122.733 273.775 137.501 273.23 145.735L273.245 146.469C270.703 147.806 245.262 147.112 240.729 147.059C240.964 138.192 240.797 128.73 240.797 119.816L240.775 116C239.942 107.874 246.011 106.438 240.563 96.5816C234.017 94.8732 198.512 94.6771 192.179 97.1198C185.936 96.7837 179.269 95.9306 173.261 97.1357C171.816 98.7086 172.254 98.2779 172.239 100.983C170.892 103.889 171.717 102.949 168.441 104.542C166.776 100.117 164.264 92.8748 162.334 88.8108Z" fill="#BC7F56"/>
<path d="M240.775 116.001C245.709 116.07 270.983 116.924 273.7 115.27C272.398 122.733 273.776 137.501 273.231 145.736L273.246 146.469C270.703 147.807 245.263 147.113 240.73 147.06C240.965 138.192 240.798 128.73 240.798 119.817L240.775 116.001Z" fill="#DEA56F"/>
<path d="M240.775 116.001C245.709 116.07 270.983 116.924 273.7 115.27C272.398 122.733 273.775 137.501 273.231 145.736C272.141 141.701 272.557 125.029 272.61 119.935C262.008 120.023 251.399 119.984 240.798 119.817L240.775 116.001Z" fill="#AF744D"/>
<path d="M246.193 136.854C246.375 136.833 246.557 136.815 246.731 136.799C251.271 136.452 261.963 135.173 265.399 138.074C259.973 138.415 250.915 139.903 246.193 136.854Z" fill="#BF873E"/>
<path d="M240.563 96.5818C244.521 95.8225 271.445 95.6333 274.487 96.4289C267.056 105.803 274.267 107.533 273.7 115.269C270.983 116.924 245.709 116.069 240.775 116C239.943 107.874 246.012 106.438 240.563 96.5818Z" fill="#DEA56F"/>
<path d="M243.931 103.511C244.718 103.406 245.505 103.38 246.3 103.343C251.468 103.101 260.783 101.74 264.635 105.247C259.164 105.455 253.133 106.024 247.7 105.393C245.709 105.162 245.149 105.062 243.931 103.511Z" fill="#BC7F56"/>
<path d="M322.947 95.7656C328.093 95.6786 351.959 95.5658 356.174 96.6997C353.738 99.2097 353.125 99.7979 351.944 103.125L352.345 106.274C351.361 105.816 335.682 106.202 333.261 106.232L324.317 105.888L323.923 106.33C323.454 104.97 323.658 103.637 323.734 102.174C323.242 99.9977 321.963 98.2999 320.745 96.4287C321.063 96.2538 322.523 95.8822 322.947 95.7656Z" fill="#DEA56F"/>
<path d="M323.734 102.174L324.687 103.482C327.744 103.482 330.794 103.381 333.836 103.179L351.944 103.125L352.345 106.273C351.361 105.816 335.682 106.202 333.261 106.232L324.316 105.888L323.923 106.329C323.454 104.97 323.658 103.637 323.734 102.174Z" fill="#AF744D"/>
<path d="M320.745 96.4285C321.063 96.2536 322.523 95.882 322.947 95.7654C326.004 95.9645 329.485 95.7813 331.808 97.5964C333.163 99.7742 333.291 100.717 333.836 103.179C330.794 103.381 327.745 103.482 324.687 103.482L323.734 102.174C323.242 99.9975 321.963 98.2996 320.745 96.4285Z" fill="#DEA56F"/>
<path d="M398.247 95.1903C402.175 93.2578 418.565 93.9988 423.923 94.0874C423.098 96.5883 422.137 99.819 421.221 102.216C419.042 102.312 406.473 103.104 405.451 102.437C405.3 101.974 405.134 101.516 404.959 101.063C403.529 97.3907 401.653 96.6792 398.247 95.1903Z" fill="#DEA56F"/>
<path d="M405.133 105.474L419.337 105.589C418.724 107.662 416.991 113.974 416.174 115.59C412.194 115.284 406.465 115.561 402.341 115.642C401.925 111.565 404.558 111.32 405.133 105.474Z" fill="#DEA56F"/>
<path d="M240.73 147.059C245.262 147.112 270.703 147.806 273.246 146.469L273.511 151.387C274.033 160.364 268.524 166.065 273.041 171.593C282.364 176.23 309.371 174.595 320.162 172.434C324.339 171.598 323.438 164.918 323.446 161.568L326.042 161.53C333.934 161.403 344.029 160.771 351.407 162.882L353.094 161.998C352.542 172.211 355.447 174.198 366.632 174.105C376.9 174.02 392.367 174.791 402.28 172.934C405.421 168.398 405.436 167.429 404.815 162.198C411.043 163.305 406.359 168.518 409.583 173.724C409.371 176.292 409.439 179.76 407.925 181.673C406.132 182.481 405.814 182.444 403.839 182.387C400.578 181.858 385.406 181.919 381.667 181.919L338.141 181.991L192.671 182.157C191.861 177.929 191.18 174.521 190.878 170.189C199.837 176.831 225.686 173.991 237.423 173.676L241.956 171.051C244.188 159.263 240.23 161.733 240.73 150.698V147.059Z" fill="#DEA56F"/>
<path d="M240.73 147.059C245.263 147.112 270.703 147.806 273.246 146.469L273.511 151.387C263.091 151.541 250.991 151.867 240.73 150.698V147.059Z" fill="#BC7F56"/>
<path d="M241.956 171.051C247.427 171.715 266.889 172.047 269.371 173.605C262.735 174.617 244.059 174.438 237.423 173.676L241.956 171.051Z" fill="#AF744D"/>
<path d="M404.815 162.198C411.043 163.305 406.359 168.518 409.582 173.724C409.37 176.293 409.438 179.76 407.925 181.673C406.132 182.481 405.814 182.444 403.839 182.388C406.064 181.178 407.63 179.448 406.699 176.972C405.125 172.822 407.305 172.681 406.669 169.221C405.277 171.151 404.641 172.755 402.28 172.934C405.42 168.398 405.435 167.429 404.815 162.198Z" fill="#BF873E"/>
<path d="M326.042 161.531C333.934 161.404 344.029 160.771 351.407 162.883C346.011 165.589 330.521 165.978 326.042 161.531Z" fill="#BC7F56"/>
<path d="M328.592 173.949C335.811 173.587 344.634 172.514 351.664 173.935L351.649 174.853C344.831 175.387 335.856 176.971 329.174 175.463L328.592 173.949Z" fill="#BC7F56"/>
<path d="M245.86 159.579C245.951 159.553 246.049 159.525 246.14 159.5C250.188 158.429 259.556 157.852 263.166 159.982C258.739 161.261 250.007 161.748 245.86 159.579Z" fill="#BC7F56"/>
<path d="M323.923 106.33L324.317 105.888L333.261 106.232C335.683 106.202 351.362 105.816 352.345 106.274C353.034 108.502 354.585 113.035 354.714 115.16L354.29 119.773L354.419 147.661L354.366 151.578C354.661 155.699 355.327 158.352 353.094 161.999L351.407 162.882C344.029 160.771 333.935 161.403 326.042 161.53L323.447 161.569L321.388 159.305C320.806 156.043 321.343 142.32 321.691 138.594L321.782 119.767L321.328 115.192C321.313 112.162 322.818 109.347 323.923 106.33Z" fill="#DEA56F"/>
<path d="M323.923 106.33L324.316 105.888L333.261 106.232C335.682 106.202 351.361 105.816 352.345 106.274C353.034 108.502 354.585 113.035 354.713 115.16L354.29 119.773C346.927 120.034 340.729 120.128 333.374 119.905L321.781 119.767L321.327 115.192C321.312 112.162 322.818 109.347 323.923 106.33Z" fill="#AF744D"/>
<path d="M333.261 106.232C335.682 106.201 351.361 105.815 352.345 106.273C353.034 108.502 354.585 113.034 354.714 115.159L348.531 115.402C344.301 115.174 338.21 115.319 333.844 115.304C333.897 111.814 334.055 109.642 333.261 106.232Z" fill="#DEA56F"/>
<path d="M323.923 106.33L324.316 105.888L333.261 106.232C334.055 109.642 333.896 111.815 333.843 115.304C329.666 115.342 325.497 115.305 321.327 115.192C321.312 112.162 322.818 109.347 323.923 106.33Z" fill="#E8B88D"/>
<path d="M321.327 115.191C325.497 115.304 329.666 115.341 333.843 115.303C338.209 115.319 344.301 115.174 348.531 115.402C344.566 115.775 338.164 115.684 334.918 116.865C333.964 118.154 333.843 118.334 333.374 119.904L321.781 119.766L321.327 115.191Z" fill="#BC7F56"/>
<path d="M321.388 159.306C321.607 156.388 321.774 154.6 322.349 151.698C324.286 150.878 350.809 151.509 354.365 151.579C354.66 155.699 355.326 158.353 353.094 161.999L351.406 162.883C344.028 160.772 333.934 161.404 326.041 161.531L323.446 161.57L321.388 159.306Z" fill="#DEA56F"/>
<path d="M321.691 138.594C321.782 140.717 321.676 145.202 322.712 146.75C331.203 147.855 345.21 147.26 354.419 147.66L354.366 151.577C350.809 151.508 324.286 150.877 322.349 151.697C321.774 154.599 321.608 156.387 321.388 159.305C320.806 156.043 321.343 142.319 321.691 138.594Z" fill="#AF744D"/>
<path d="M327.434 132.96C332.338 132.79 348.176 130.942 351.619 134.107L351.127 135.677C345.943 135.722 330.461 137.356 326.776 134.184L327.434 132.96Z" fill="#BC7F56"/>
<path d="M292.572 118.016C301.849 115.457 311.437 120.913 313.972 130.193C316.514 139.472 311.043 149.053 301.758 151.577C292.504 154.094 282.962 148.638 280.427 139.382C277.892 130.127 283.325 120.568 292.572 118.016Z" fill="#A08372"/>
<path d="M294.842 121.826C301.849 120.444 308.69 124.846 310.347 131.794C311.997 138.742 307.865 145.755 300.986 147.677C296.295 148.988 291.263 147.627 287.873 144.128C284.483 140.629 283.272 135.556 284.725 130.904C286.178 126.253 290.06 122.769 294.842 121.826Z" fill="#362926"/>
<path d="M278.036 99.5319C287.207 99.2246 311.27 97.0431 318.777 101.604C319.852 103.25 320.063 103.691 320.132 105.661C319.208 107.517 318.323 108.605 316.681 109.871C308.206 109.929 283.575 112.188 276.893 108.411C275.145 107.419 274.994 106.444 274.57 104.641C275.16 102.211 276.242 101.12 278.036 99.5319Z" fill="#A08372"/>
<path d="M280.42 101.328C281.774 101.854 283.348 102.347 284.347 103.447C285.391 104.598 285.096 105.24 285.021 106.707C283.083 106.664 281.706 106.488 279.951 105.658C279.315 103.671 279.724 103.241 280.42 101.328Z" fill="#542E19"/>
<path d="M274.895 162.027C288.592 166.467 304.732 164.768 318.8 163.303C319.874 165.408 319.314 167.005 319.042 169.289C318.981 169.311 318.921 169.335 318.86 169.357C312.602 171.526 281.728 171.485 275.743 168.669C274.335 166.831 274.797 164.223 274.895 162.027Z" fill="#A08372"/>
<path d="M146.519 79.9851C146.459 75.9528 145.974 71.3816 147.912 67.908C150.114 66.3729 149.781 66.463 152.656 66.4214C180.95 66.0126 209.326 66.2071 237.627 66.2155L376.204 66.1436L423.173 66.214C430.665 66.2147 438.83 65.9596 446.215 66.6976C451.822 67.2578 450.46 80.1615 450.309 83.9129C434.91 83.8039 408.387 84.5714 394.108 83.5299C390.393 84.0227 378.187 83.8183 373.964 83.8213L331.475 83.676L189.077 83.5321C179.504 83.5011 158.18 84.2868 148.003 83.1067C146.966 82.9864 146.792 81.1364 146.519 79.9851Z" fill="#E6D7C7"/>
<path d="M146.519 79.9854C167.48 78.9885 190.174 79.7485 211.241 79.5918C257.96 79.2436 305.588 80.5615 352.216 79.5479L351.982 80.4986C348.304 81.379 331.649 80.8143 326.874 80.8287C328.978 81.8263 332.277 80.843 333.397 81.9815C332.345 82.1049 330.476 82.1261 329.803 82.668C335.773 82.7195 392.307 81.5765 393.881 83.2002C393.979 83.2956 394.032 83.4205 394.108 83.5302C390.392 84.023 378.187 83.8186 373.964 83.8216L331.475 83.6763L189.077 83.5325C179.504 83.5014 158.18 84.2872 148.002 83.1071C146.966 82.9867 146.792 81.1367 146.519 79.9854Z" fill="#D1BBAB"/>
<path d="M11.2644 141.626C12.1271 140.234 13.2849 137.717 15.1994 137.646C39.2477 136.741 63.5911 137.832 87.647 137.732C106.55 137.654 112.089 141.502 122.516 157.406C134.48 175.642 150 186.444 172.331 186.584C197.938 186.043 398.928 185.134 406.586 187.871C407.925 190.104 407.494 193.258 405.64 195.033C401.539 196.344 379.526 195.673 373.329 195.682L295.455 195.724L214.033 195.884C194.676 196.013 166.239 197.63 147.223 194.589C126.02 191.09 114.805 151.426 96.7577 147.706C80.0268 144.258 50.5151 145.89 32.7248 145.523C25.3014 145.87 16.5311 147.616 11.2644 141.626Z" fill="#EDBC67"/>
<path d="M41.3663 141.894C82.9552 141.775 104.9 132.94 127.465 172.466C139.035 192.738 165.565 192.295 186.799 192.348L290.938 191.665C317.816 191.699 370.256 192.857 394.819 187.805C378.232 186.441 350.203 187.268 332.791 187.284L223.946 187.272C216.19 187.282 177.749 187.849 172.33 186.585C197.938 186.044 398.928 185.135 406.586 187.872C407.925 190.105 407.494 193.259 405.64 195.034C401.539 196.345 379.526 195.674 373.328 195.683L295.455 195.725L214.033 195.885C194.676 196.014 166.239 197.631 147.223 194.59C126.02 191.091 114.805 151.427 96.7576 147.707C80.0267 144.259 50.5149 145.891 32.7246 145.524C35.2747 143.804 42.5998 143.932 46.3152 143.63L46.2168 143.102L41.3663 141.894Z" fill="#BF873E"/>
<path d="M11.2644 141.626C19.3461 141.639 33.7993 141.297 41.3664 141.892L46.217 143.101L46.3154 143.629C42.5999 143.931 35.2749 143.803 32.7248 145.523C25.3014 145.869 16.5311 147.616 11.2644 141.626Z" fill="#BC7F56"/>
<path d="M47.7528 160.573C50.1516 161.223 55.6832 162.697 57.5144 163.954C74.9793 175.918 76.0917 193.957 102.478 190C108.04 187.843 109.69 186.756 113.647 182.321C114.692 179.839 115.66 177.33 116.576 174.798C125.074 184.913 132.263 194.124 145.255 198.892C151.347 201.128 166.383 198.992 170.045 202.19C170.613 203.891 170.219 204.654 169.682 206.37C159.444 224.327 142.047 225.853 123.258 226.111C104.196 226.373 85.1647 225.315 66.1334 224.351C66.1561 215.289 65.1194 203.35 62.4255 194.748L61.7444 191.593C58.7251 182.803 56.735 176.368 52.785 167.807C50.7343 165.164 49.5008 163.426 47.7528 160.573Z" fill="#7A5641"/>
<path d="M47.7528 160.573C50.1516 161.223 55.6832 162.697 57.5144 163.954C74.9793 175.918 76.0917 193.957 102.478 190C108.04 187.843 109.69 186.756 113.647 182.321C114.692 179.839 115.66 177.33 116.576 174.798C125.074 184.913 132.263 194.124 145.255 198.892C151.347 201.128 166.383 198.992 170.045 202.19C170.613 203.891 170.219 204.654 169.682 206.37C150.545 204.205 143.901 210.145 125.52 195.202C118.256 194.875 66.0426 193.713 62.4255 194.748L61.7444 191.593C58.7251 182.803 56.735 176.368 52.785 167.807C50.7343 165.164 49.5008 163.426 47.7528 160.573Z" fill="#664637"/>
<path d="M52.7852 167.807C61.2906 168.538 71.8014 184.6 78.4529 190.833C72.8759 191.011 67.3064 191.264 61.7446 191.593C58.7253 182.803 56.7352 176.368 52.7852 167.807Z" fill="#7A5641"/>
<path d="M102.478 190C108.04 187.843 109.69 186.756 113.647 182.321L121.449 191.648C117.9 191.505 104.688 191.397 102.478 190Z" fill="#7A5641"/>
<path d="M146.065 208.714C149.213 207.226 152.974 208.563 154.48 211.706C155.986 214.851 154.677 218.621 151.544 220.147C148.381 221.686 144.575 220.358 143.054 217.188C141.533 214.017 142.887 210.215 146.065 208.714Z" fill="#542E19"/>
<path d="M96.5005 208.077C99.7317 207.826 102.607 210.134 103.061 213.349C103.515 216.565 101.396 219.579 98.2183 220.234C95.9709 220.695 93.6628 219.873 92.21 218.1C90.7646 216.327 90.4242 213.896 91.3247 211.791C92.2251 209.686 94.2153 208.255 96.5005 208.077Z" fill="#572D17"/>
<path d="M150.053 5.08909L367.737 5.00279L423.983 5.16402C430.112 5.17159 438.951 3.96502 444.83 5.27832C446.404 5.62879 448.402 6.60828 449.242 8.04875C450.037 9.4211 450.264 10.823 449.779 12.3596C449.166 14.314 447.562 15.3086 445.829 16.1473L246.594 15.9588L182.963 15.9755C172.565 15.9922 161.85 16.6144 151.498 16.0323C149.766 15.9346 147.798 14.9975 146.678 13.6502C145.218 11.8895 145.513 10.359 145.793 8.3046C146.988 6.40996 147.957 5.82711 150.053 5.08909Z" fill="#E0C9B6"/>
<path d="M135.229 78.9211L141.449 78.5381C142.039 85.6943 141.608 85.48 144.317 92.151C142.66 93.4136 102.153 92.7437 97.1509 92.7149C65.1798 92.531 33.1028 93.0745 1.1468 92.7906C-3.7113 92.7475 -4.4529 87.629 -4.55127 84.1789C-3.18919 82.0821 -1.3882 79.2292 1.4192 79.1452C15.7816 78.7175 30.2197 78.9423 44.5973 78.968L135.229 78.9211Z" fill="#EDBC67"/>
<path d="M135.229 78.9211L141.449 78.5381C142.039 85.6943 141.608 85.48 144.317 92.151C142.66 93.4136 102.153 92.7437 97.1509 92.7149C65.1798 92.531 33.1028 93.0745 1.1468 92.7906C-3.7113 92.7475 -4.4529 87.629 -4.55127 84.1789C7.60153 90.2087 62.7659 85.7987 79.5649 86.9016C90.9231 87.6464 109.122 86.234 120.866 85.4233C125.232 85.1212 131.816 81.9284 135.229 78.9211Z" fill="#BF873E"/>
<path d="M4.18909 107.674C4.348 107.06 4.79445 105.995 5.0366 105.369C8.11642 104.158 11.06 104.463 14.208 105.333C8.09372 128.69 34.3441 129.886 36.4402 120.377C35.3808 117.798 36.0391 118.637 33.7917 116.982C31.6048 116.704 31.1356 117.068 29.1757 118.177C27.8666 115.605 27.6169 116.116 28.018 113.763C29.8492 111.65 28.9336 112.193 31.741 111.636C40.1708 113.396 49.0091 134.8 63.5683 126.171C65.0666 125.284 68.3507 122.486 69.0317 120.867C73.8822 112.683 76.054 110.197 85.6718 113.346C85.4599 114.853 85.0892 114.64 86.0577 115.912C93.6249 125.841 101.079 127.411 112.278 121.939C113.776 121.209 114.616 119.783 116.568 119.388L117.227 119.505C116.667 123.748 115.418 128.254 117.287 132.306C122.002 142.518 139.89 140.821 135.971 155.315C135.259 157.946 134.835 162.858 134.518 165.701C105.944 132.819 120.965 133.573 73.3904 132.922C54.1472 132.494 34.8889 132.533 15.6457 133.041C8.17697 123.774 6.89812 118.892 4.18909 107.674Z" fill="#7A5641"/>
<path d="M69.0312 120.866C73.8818 112.682 76.0535 110.196 85.6713 113.345C85.4595 114.852 85.0887 114.639 86.0573 115.911C93.6244 125.84 101.078 127.41 112.277 121.938C113.776 121.208 114.616 119.782 116.568 119.387C112.504 127.308 101.699 128.449 94.6006 124.38C89.1523 121.256 84.2336 114.394 78.0664 115.765C73.8667 117.076 74.071 121.695 69.0312 120.866Z" fill="#572D17"/>
<path d="M258.013 200.172C283.151 200.283 312.118 199.37 336.688 200.213L331.459 206.273C327.184 212.488 323.09 218.172 316.84 222.566C309.454 227.795 300.283 229.851 291.369 228.277C278.626 225.916 269.923 216.379 262.969 206.199L258.013 200.172Z" fill="#7A5641"/>
<path d="M258.013 200.172C283.151 200.283 312.118 199.37 336.688 200.213L331.459 206.273C329.477 205.467 265.383 205.289 262.969 206.199L258.013 200.172Z" fill="#664637"/>
<path d="M294.668 208.939C297.597 207.38 301.229 208.5 302.765 211.434C304.301 214.368 303.159 217.994 300.215 219.513C297.302 221.016 293.715 219.885 292.194 216.979C290.673 214.074 291.778 210.483 294.668 208.939Z" fill="#542E19"/>
<path d="M-6.07214 21.7812C-5.15652 20.4149 -3.69599 17.5764 -1.92528 17.5492C27.299 17.1041 56.9394 16.8338 86.1333 18.0298C96.9014 18.4711 104.34 23.5548 108.812 33.2846C113.693 39.6921 125.74 75.227 138.104 60.0139C140.193 58.9118 142.395 59.1744 144.756 59.2206C144.642 60.1085 144.491 60.9911 144.302 61.8661C143.159 67.0573 140.564 70.512 135.002 71.1168C117.181 73.0553 109.682 51.7208 102.773 39.0979C94.8204 24.56 84.7486 26.8346 70.25 26.3456C46.1638 25.429 21.9111 27.8247 -1.9783 25.7287C-3.95332 25.5561 -5.18679 23.3792 -6.07214 21.7812Z" fill="#D1BBAB"/>
<path d="M-6.07214 21.7812C-5.15652 20.4149 -3.69599 17.5764 -1.92528 17.5492C27.299 17.1041 56.9394 16.8338 86.1333 18.0298C96.9014 18.4711 104.34 23.5548 108.812 33.2846C107.488 32.8637 108.017 33.0431 107.117 32.0076C103.538 28.4113 93.0647 23.7932 88.131 23.2452C57.5371 19.8472 24.4234 24.236 -6.07214 21.7812Z" fill="#ECDAC8"/>
<path d="M176.19 201.626C177.514 200.798 179.043 200.948 180.548 200.962C181.434 201.611 182.705 202.419 182.576 203.767C180.609 225.547 162.486 240.135 141.109 240.766C117.726 241.456 94.2757 240.686 70.8782 240.517C67.4881 240.493 64.3855 240.631 61.6538 238.285C59.7998 235.485 60.1934 233.31 61.4344 230.316C68.9713 226.907 96.0464 230.477 105.808 230.301C131.377 229.838 161.494 234.728 174.434 206.432C174.888 204.963 175.637 203.106 176.19 201.626Z" fill="#BF873E"/>
<path d="M174.434 206.432L176.137 207.924C171.513 218.871 166.065 226.99 154.525 231.665C142.009 236.734 76.6595 238.1 64.5218 232.615C63.3413 232.083 62.3501 231.217 61.4344 230.316C68.9713 226.907 96.0465 230.477 105.808 230.301C131.377 229.838 161.494 234.728 174.434 206.432Z" fill="#EDBC67"/>
<path d="M176.189 201.627C177.415 204.839 176.991 204.167 176.136 207.926L174.434 206.434C174.888 204.965 175.637 203.108 176.189 201.627Z" fill="#DEA56F"/>
<path d="M18.6267 117.609C14.8355 108.104 18.6872 98.5672 30.2649 99.5899C38.4601 100.314 42.7583 105.658 47.7072 111.414C68.2065 127.168 65.7699 91.5904 86.7611 104.174C92.444 108.465 96.1519 114.815 104.196 113.907C113.972 112.802 133.284 86.3153 138.777 106.552C139.269 108.37 138.936 111.06 137.96 112.709L136.583 113.131C133.155 110.538 132.096 106.119 127.162 106.831C123.454 107.365 119.413 111.478 116.818 114.007C110.703 120.856 98.9139 126.789 92.1792 117.402L86.1557 111.498L85.6714 113.345C76.0536 110.197 73.8818 112.683 69.0313 120.867C68.3502 122.486 65.0661 125.284 63.5678 126.171C49.0087 134.799 40.1703 113.396 31.7406 111.635C28.9332 112.193 29.8487 111.65 28.0175 113.762C27.6164 116.116 27.8662 115.605 29.1753 118.177L30.4995 119.108C30.4768 120.005 30.4844 121.198 30.386 122.062C25.1874 123.939 21.54 121.868 18.6267 117.609Z" fill="#DEA56F"/>
<path d="M30.3862 122.063C22.6223 118.911 22.8418 109.9 29.3873 106.911C38.3619 105.598 44.1961 118.079 51.173 121.908C67.8737 131.067 67.4953 99.9024 86.1558 111.499L85.6715 113.346C76.0537 110.198 73.8819 112.683 69.0314 120.868C68.3504 122.487 65.0663 125.284 63.568 126.171C49.0088 134.8 40.1705 113.396 31.7407 111.636C28.9333 112.194 29.8489 111.65 28.0176 113.763C27.6166 116.116 27.8663 115.605 29.1754 118.177L30.4997 119.108C30.477 120.006 30.4845 121.198 30.3862 122.063Z" fill="#542E19"/>
<path d="M18.6267 117.609C14.8355 108.104 18.6872 98.5668 30.2649 99.5894C38.4601 100.314 42.7583 105.657 47.7072 111.414L45.5808 112.119C40.2989 108.994 36.0613 102.007 29.3266 103.872C26.6857 104.6 24.4685 106.399 23.2048 108.834C21.4947 112.08 21.0179 115.699 18.6267 117.609Z" fill="#EDBC67"/>
<path d="M92.1799 117.401C91.2718 115.858 90.3032 114.556 90.2427 112.783C91.8999 113.635 93.5798 114.444 95.2748 115.207C105.907 119.931 106.58 115.764 115.85 112.177L116.818 114.007C110.704 120.855 98.9146 126.789 92.1799 117.401Z" fill="#BF873E"/>
<path d="M142.97 111.372C142.947 109.276 142.97 107.345 142.493 105.267C141.858 102.493 138.581 99.5352 138.922 97.2644C141.767 97.3333 143.522 97.7875 146.269 98.3855C152.595 118.731 159.285 138.295 163.537 159.208C165.111 166.932 168.146 174.654 169.281 182.543L161.789 180.105C149.811 173.612 151.551 163.845 155.705 153.363C156.81 145.176 154.343 138.346 149.667 131.824C140.2 125.633 137.658 129.109 127.722 126.009C121.517 124.076 120.987 112.219 126.61 111.678C133.541 111.011 134.29 126.932 142.97 111.372Z" fill="#664637"/>
<path d="M149.667 131.825C140.2 125.633 137.658 129.109 127.722 126.01C121.517 124.076 120.987 112.219 126.61 111.678C133.541 111.012 134.29 126.932 142.97 111.372C144.393 113.712 149.674 129.695 149.667 131.825Z" fill="#7A5641"/>
<path d="M155.705 153.363C158.24 160.185 160.465 172.907 161.789 180.105C149.811 173.611 151.551 163.845 155.705 153.363Z" fill="#7A5641"/>
<path d="M335.591 225.313C335.341 224.646 335.122 223.97 334.925 223.287C333.684 218.947 333.782 212.718 336.037 208.723C337.982 205.317 341.206 202.828 344.989 201.808C355.144 199.032 365.95 206.998 359.034 218.079L356.877 220.37C352.216 221.798 348.955 221.069 346.147 216.758C346.533 212.712 349.878 211.87 353.328 212.458L354.471 211.344C352.988 209.078 352.662 208.636 350.18 207.601C343.748 207.921 342.137 213.428 341.811 218.997C346.669 233.237 360.358 234.609 373.094 230.132C385.398 225.806 396.484 215.211 405.436 205.935C405.443 208.152 405.443 210.368 405.42 212.585C392.95 225.299 379.094 238.966 359.995 239.203C356.786 239.243 353.79 238.897 350.725 237.92C349.265 237.602 347.963 237.129 346.631 236.449C342.015 234.08 337.225 230.451 335.591 225.313Z" fill="#EDBC67"/>
<path d="M335.591 225.313C335.341 224.646 335.122 223.97 334.925 223.287C333.684 218.947 333.782 212.718 336.037 208.723C337.982 205.317 341.206 202.828 344.989 201.808C355.144 199.032 365.95 206.998 359.034 218.079L356.877 220.37C352.216 221.798 348.955 221.069 346.147 216.758C346.533 212.712 349.878 211.87 353.328 212.458L354.471 211.344L355.303 211.171L355.296 205.48C336.59 195.356 337.551 222.501 335.591 225.313Z" fill="#EDBC67"/>
<path d="M354.471 211.344L355.304 211.171C355.122 216.409 353.185 215.59 354.555 218.637L356.878 220.371C352.216 221.798 348.955 221.07 346.147 216.759C346.533 212.712 349.878 211.87 353.329 212.458L354.471 211.344Z" fill="#BF873E"/>
<path d="M355.296 205.479C361.743 212.111 356.665 214.17 359.034 218.079L356.877 220.37L354.554 218.636C353.185 215.589 355.122 216.408 355.303 211.17L355.296 205.479Z" fill="#DEA56F"/>
<path d="M335.591 225.314C337.551 222.501 336.59 195.357 355.296 205.48L355.303 211.171L354.471 211.344C352.988 209.078 352.662 208.637 350.18 207.601C343.748 207.921 342.136 213.429 341.811 218.997L340.736 217.908C338.156 222.865 343.604 230.6 348.402 232.63C352.276 234.271 355.697 235.392 359.949 235.879L360.403 236.476L360.721 235.991C361.024 236.075 361.327 236.16 361.629 236.245L359.995 236.845L359.389 236.151L358.966 236.169L358.708 237.277C356.559 237.645 351.868 237.651 350.725 237.921C349.264 237.602 347.963 237.129 346.631 236.449C342.015 234.081 337.225 230.451 335.591 225.314Z" fill="#BF873E"/>
<path d="M239.337 202.8C254.434 195.879 263.855 210.223 259.489 223.662C257.915 228.883 254.631 233.196 249.795 235.809C241.835 240.116 231.975 240.05 223.492 237.456C217.158 235.516 208.168 231.374 203.711 226.331C202.743 224.196 200.397 220.95 199.005 218.966C196.825 216.693 196.401 216.199 195.683 213.018C207.147 222.669 220.23 233.144 236.167 232.084C243.635 231.586 250.06 226.698 252.701 219.724C252.709 212.809 248.04 203.137 241.108 209.726C241.07 211.632 240.843 210.937 242.296 212.473L246.874 212.204C247.903 214.547 247.994 215.012 247.737 217.555C243.923 223.496 236.976 220.699 233.776 215.425C233.692 209.802 233.904 205.895 239.337 202.8Z" fill="#CE9B4F"/>
<path d="M195.683 213.018C207.147 222.668 220.23 233.144 236.167 232.083C243.635 231.586 250.06 226.697 252.701 219.724L253.859 219.924L254.441 221.627C252.761 229.235 246.08 234.465 238.558 235.691C221.691 238.438 211.377 227.507 199.005 218.966C196.825 216.692 196.401 216.199 195.683 213.018Z" fill="#EDBC67"/>
<path d="M239.338 202.8C254.434 195.879 263.855 210.223 259.489 223.662C255.478 218.265 261.903 214.226 249.167 202.662C249.266 202.75 240.178 202.866 239.338 202.8Z" fill="#EDBC67"/>
<path d="M233.776 215.425L236.394 212.405C239.587 218.084 243.643 217.043 246.875 212.204C247.904 214.548 247.994 215.012 247.737 217.556C243.923 223.496 236.977 220.699 233.776 215.425Z" fill="#BF873E"/>
<path d="M148.812 88.7859C151.438 88.6738 153.92 88.4059 156.455 89.0894C158.793 90.3391 159.36 93.021 160.291 95.581C163.916 106.339 184.377 173.599 181.26 181.596C179.133 182.121 177.998 182.3 175.819 182.532L174.146 181.936C172.747 180.35 170.454 163.828 169.697 160.609C164.846 140.062 158.785 119.264 152.716 99.0985L151.566 96.506C151.498 95.774 149.22 89.8812 148.812 88.7859Z" fill="#ECDAC8"/>
<path d="M152.717 99.0981C154.525 99.6492 155.569 99.5894 156.356 101.675C160.972 114.013 177.189 173.81 175.819 182.532L174.147 181.935C172.747 180.35 170.454 163.828 169.697 160.608C164.847 140.062 158.785 119.264 152.717 99.0981Z" fill="#D1BBAB"/>
<path d="M148.812 88.7859C151.438 88.6738 153.92 88.4059 156.455 89.0894C158.793 90.3391 159.36 93.021 160.291 95.581C157.287 95.5643 154.268 95.2759 151.566 96.506C151.498 95.774 149.22 89.8812 148.812 88.7859Z" fill="#E8B88D"/>
<path d="M360.124 200.425C375.53 200.032 390.748 200.224 406.094 199.972C404.603 201.515 401.13 205.304 399.541 206.257C390.574 215.26 378.232 227.431 365.201 228.004C361.932 228.147 353.903 227.933 351.452 225.839C356.961 220.567 369.529 225.783 363.672 206.104C362.484 204.27 361.168 202.329 360.124 200.425Z" fill="#7A5641"/>
<path d="M360.124 200.425C375.531 200.032 390.748 200.224 406.094 199.972C404.604 201.515 401.13 205.304 399.541 206.257C395.954 204.741 367.653 204.918 363.673 206.104C362.485 204.27 361.168 202.329 360.124 200.425Z" fill="#572D17"/>
<path d="M374.237 208.754C377.233 207.371 380.775 208.692 382.137 211.697C383.499 214.701 382.144 218.238 379.132 219.576C376.151 220.9 372.663 219.569 371.316 216.596C369.969 213.623 371.278 210.121 374.237 208.754Z" fill="#542E19"/>
<path d="M188.35 200.8C203.825 200.656 219.307 200.649 234.782 200.781C234.131 201.677 231.793 205.044 231.142 205.607C224.884 224.153 240.79 221.733 243.09 225.506C227.237 236.449 204.922 215.978 193.98 205.881C191.823 204.104 190.347 202.762 188.35 200.8Z" fill="#7A5641"/>
<path d="M188.35 200.8C203.824 200.656 219.307 200.649 234.782 200.781C234.131 201.677 231.793 205.044 231.142 205.607C229.697 205.483 228.244 205.57 226.798 205.632C215.864 206.092 204.922 205.55 193.98 205.881C191.823 204.104 190.347 202.762 188.35 200.8Z" fill="#572D17"/>
<path d="M215.63 208.935C217.507 208.063 219.709 208.275 221.389 209.489C223.069 210.703 223.954 212.728 223.719 214.786C223.477 216.842 222.145 218.609 220.231 219.404C217.355 220.599 214.056 219.275 212.8 216.424C211.551 213.574 212.808 210.245 215.63 208.935Z" fill="#542E19"/>
<path d="M216.197 211.812C217.287 210.886 218.898 210.954 219.905 211.968C220.911 212.981 220.964 214.599 220.033 215.677C219.36 216.451 218.308 216.783 217.317 216.539C216.326 216.294 215.546 215.514 215.312 214.517C215.077 213.521 215.418 212.475 216.197 211.812Z" fill="#E8B88D"/>
<path d="M57.7491 151.006C71.3321 156.112 76.5306 171.103 90.3255 175.653C98.899 178.482 102.864 173.632 101.29 165.499C97.4688 161.677 96.069 162.505 91.0293 163.453L89.811 161.611C89.9093 160.124 89.8639 158.96 91.1276 158.007C98.1878 152.698 103.333 156.719 107.919 161.093C118.566 174.284 108.434 187.671 93.2994 186.581C80.2764 185.643 73.0649 169.885 63.3336 162.576L67.6317 161.697C64.3703 158.693 57.1512 155.921 56.3945 152.295L57.7491 151.006Z" fill="#EDBC67"/>
<path d="M107.919 161.091C118.566 174.283 108.434 187.67 93.2994 186.579C80.2764 185.641 73.0649 169.883 63.3336 162.575L67.6317 161.695C75.1837 169.116 81.7973 179.462 93.3372 179.921C102.251 180.275 112.55 171.29 106.633 162.888L107.919 161.091Z" fill="#BF873E"/>
<path d="M101.29 165.499C97.4688 161.677 96.0689 162.505 91.0292 163.453L89.8109 161.611C89.9093 160.124 89.8639 158.96 91.1276 158.007C98.1877 152.698 103.333 156.719 107.919 161.093L106.633 162.889C103.243 160.409 103.303 159.823 99.2471 158.966L100.231 158.761L99.1563 158.836C99.6557 160.903 99.9206 161.146 101.336 162.754L101.29 165.499Z" fill="#DEA56F"/>
<path d="M123.53 96.9219C121.964 97.9824 113.314 105.037 113.208 105.074C105.142 111.525 100.185 112.833 92.5048 104.924C88.3504 101.361 89.0466 101.592 83.7799 98.5909C80.2385 98.4411 76.9922 98.6295 73.4584 98.7968C70.0154 100.74 68.8878 102.059 66.1107 104.899C58.763 115.08 54.0109 113.554 46.4589 104.924C44.6957 103.093 41.79 100.587 39.8452 98.7999L38.4529 97.8771C39.5577 96.8167 116.644 97.0922 123.53 96.9219Z" fill="#572D17"/>
<path d="M39.8452 98.7995C43.5909 97.459 70.7721 97.2751 73.4584 98.7965C70.0154 100.74 68.8878 102.059 66.1107 104.899C58.763 115.08 54.0109 113.553 46.4589 104.923C44.6957 103.092 41.79 100.587 39.8452 98.7995Z" fill="#664637"/>
<path d="M46.4586 104.923C49.6519 104.702 63.4468 104.37 66.1104 104.899C58.7627 115.08 54.0106 113.553 46.4586 104.923Z" fill="#A16742"/>
<path d="M92.505 104.924C96.8031 104.718 109.508 104.24 113.209 105.074C105.142 111.525 100.186 112.833 92.505 104.924Z" fill="#A16742"/>
<path d="M323.06 222.614C324.657 220.831 328.38 216.001 330.31 215.734L330.529 218.187C330.014 243.105 284.332 248.875 270.885 230.905C268.252 227.384 264.635 225.162 264.044 220.361C264.302 218.987 264.559 217.636 264.967 216.298C268.244 217.193 271.029 221.956 273.753 224.365C279.791 228.575 285.822 231.566 293.231 232.409C304.808 233.725 314.154 229.679 323.06 222.614Z" fill="#BF873E"/>
<path d="M273.752 224.364C279.791 228.574 285.822 231.566 293.23 232.408C304.808 233.725 314.153 229.678 323.06 222.614L324.036 224.663C316.181 232.047 307.978 237.871 296.779 237.552C287.343 237.284 279.867 233.06 273.079 226.796L273.752 224.364Z" fill="#EDBC67"/>
<path d="M264.044 220.36C264.302 218.985 264.559 217.634 264.967 216.297C268.244 217.191 271.029 221.955 273.753 224.363L273.079 226.795C270.272 224.659 267.851 222.298 265.391 219.776L264.044 220.36Z" fill="#DEA56F"/>
<path d="M323.06 222.614C324.657 220.831 328.38 216.001 330.31 215.734L330.529 218.187C328.304 220.716 326.829 223.212 324.037 224.663L323.06 222.614Z" fill="#DEA56F"/>
<path d="M178.997 227.276C181.199 223.282 183.5 219.312 185.354 215.143C189.47 219.362 193.511 223.735 197.794 227.78C200.246 228.881 202.213 230.881 204.218 232.64C209.349 235.616 214.684 238.31 219.92 241.11C200.775 240.962 181.631 240.958 162.486 241.097C166.814 238.682 170.711 235.716 174.676 232.764L178.997 227.276Z" fill="#664637"/>
<path d="M178.997 227.276C181.199 223.282 183.5 219.312 185.353 215.143C189.47 219.362 193.511 223.735 197.794 227.78C193.511 228.575 182.955 229.142 178.997 227.276Z" fill="#7A5641"/>
<path d="M174.677 232.765L178.997 227.277C182.955 229.142 193.511 228.576 197.794 227.78C200.246 228.882 202.213 230.882 204.219 232.641C194.396 232.339 184.506 232.672 174.677 232.765Z" fill="#572D17"/>
<path d="M148.373 175.764C136.084 170.017 139.323 163.543 140.791 152.78C143.28 134.531 118.498 141.297 120.738 123.898L121.457 123.703L122.145 125.402C134.964 139.929 162.372 119.058 148.555 165.536C148.312 166.344 150.991 174.639 151.4 176.803C149.614 176.819 150.083 176.778 148.373 175.764Z" fill="#EDBC67"/>
<path d="M148.373 175.764C136.084 170.017 139.323 163.543 140.791 152.78C143.28 134.531 118.498 141.297 120.738 123.898L121.457 123.703L122.145 125.402C119.875 134.389 139.731 132.484 143.613 140.781C150.174 154.819 139.837 161.68 148.373 175.764Z" fill="#BF873E"/>
<path d="M404.339 218.524L404.997 217.86C406.261 219.576 405.655 227.602 405.33 229.793L404.997 240.862C394.403 240.925 383.794 240.839 373.223 241.522C379.382 239.006 385.519 236.575 390.839 232.466C392.012 229.953 393.457 228.477 395.864 227.135L404.339 218.524Z" fill="#7A5641"/>
<path d="M404.339 218.524L404.997 217.86C406.261 219.576 405.655 227.602 405.33 229.793C400.245 229.872 395.356 229.776 390.839 232.466C392.012 229.953 393.457 228.477 395.863 227.135L404.339 218.524Z" fill="#572D17"/>
<path d="M404.339 218.524C405.103 221.126 405.125 221.907 405.171 224.632C402.757 228.456 400.169 227.4 395.863 227.135L404.339 218.524Z" fill="#572D17"/>
<path d="M34.1933 40.8793C34.6321 37.8371 34.0873 38.1165 35.9867 36.3906C42.2068 39.7522 42.3052 53.2546 41.1928 59.5078C40.9204 66.0917 38.5292 67.6079 38.5821 70.3132L41.6317 73.154L41.1322 74.0298C37.8481 74.2546 36.4785 74.3932 33.1868 73.8951L32.99 72.9481C34.458 71.7908 35.5326 71.0527 36.6601 69.5555C30.1297 63.4439 32.5663 49.0188 34.1933 40.8793Z" fill="#ECDAC8"/>
<path d="M34.193 40.8793C34.6319 37.8371 34.087 38.1165 35.9864 36.3906C42.2066 39.7522 42.3049 53.2546 41.1926 59.5078C40.8672 52.4773 40.8596 45.2401 34.193 40.8793Z" fill="#E8B88D"/>
<path d="M434.464 26.1281C435.432 26.315 436.37 26.7593 437.279 27.1212C438.013 28.2021 438.663 29.3322 439.087 30.5683C441.91 38.6919 440.661 49.551 436.885 57.1432L436.741 57.4271C438.156 58.3074 439.185 58.9364 439.965 60.4503L439.072 61.5903C437.044 61.5971 433.654 62.0709 431.989 60.8447C432.436 59.0931 433.76 58.5685 435.175 57.5406C434.358 56.2568 433.51 54.9488 432.837 53.5833C429.28 46.3658 431.966 33.3191 434.464 26.1281Z" fill="#ECDAC8"/>
<path d="M4.86232 40.8886L5.38441 37.5785C7.85886 36.876 6.97352 36.7428 8.99394 37.8146C12.4597 43.3222 13.3829 56.9117 11.5971 63.1519C11.1658 66.2865 10.9993 68.1758 8.16915 69.7851C0.465816 65.6612 3.54564 48.4702 4.86232 40.8886Z" fill="#ECDAC8"/>
<path d="M4.8623 40.8886L5.38439 37.5785C7.85884 36.876 6.9735 36.7428 8.99392 37.8146C12.4597 43.3222 13.3829 56.9117 11.5971 63.1519C11.8165 58.0441 9.49338 43.1307 4.8623 40.8886Z" fill="#E8B88D"/>
<path d="M67.1019 70.1577C59.1791 65.3382 60.3444 41.3725 66.4057 37.8959C72.3686 39.4908 72.1492 65.4207 67.397 69.914L67.1019 70.1577Z" fill="#ECDAC8"/>
<path d="M91.468 42.7886C92.4593 39.8752 91.9977 39.779 94.1997 38.0471C98.1876 38.9857 98.7476 42.912 98.9822 46.5885C99.3227 51.0969 99.9583 58.7247 98.7098 62.9C98.3314 65.6999 97.8168 66.88 96.818 69.4407L94.684 70.2393C89.2432 65.8195 90.1286 52.3799 91.1048 46.1994L91.468 42.7886Z" fill="#ECDAC8"/>
<path d="M91.4679 42.7886C92.4592 39.8752 91.9976 39.779 94.1997 38.0471C98.1875 38.9857 98.7476 42.912 98.9821 46.5885C99.3227 51.0969 99.9583 58.7246 98.7097 62.9C98.8157 54.5138 98.4751 51.2036 91.1047 46.1994L91.4679 42.7886Z" fill="#D1BBAB"/>
<path d="M91.4683 42.7886C92.4596 39.8752 91.9979 39.779 94.2 38.0471C98.1879 38.9857 98.7479 42.912 98.9825 46.5885C95.4335 43.9801 96.1599 41.9076 91.4683 42.7886Z" fill="#E8B88D"/>
<path d="M369.628 56.9332C362.916 51.8019 364.649 33.2378 369.091 26.9226L370.665 26.2345C375.712 31.2364 375.727 51.1365 371.096 57.4298L369.628 56.9332Z" fill="#ECDAC8"/>
<path d="M190.976 56.6087C184.143 51.5735 185.604 28.775 191.741 26.7638C197.461 30.1602 197.151 50.6932 192.028 57.318L190.976 56.6087Z" fill="#ECDAC8"/>
<path d="M296.946 56.6126C290.711 51.8605 291.914 33.123 296.318 27.3657L297.771 26.8434C303.568 29.8644 303.129 51.0967 298.157 57.231L296.946 56.6126Z" fill="#ECDAC8"/>
<path d="M259.942 56.7617C253.858 52.4252 254.789 28.0439 261.161 26.4369C266.094 30.0316 266.45 50.6032 261.91 56.7685C261.736 56.9964 261.562 57.2212 261.388 57.4422L259.942 56.7617Z" fill="#ECDAC8"/>
<path d="M158.869 57.9622C153.852 52.1088 153.481 33.967 156.614 27.5882L158.165 26.4513C166.3 27.9803 164.06 52.6803 160.034 57.6905L158.869 57.9622Z" fill="#ECDAC8"/>
<path d="M403.067 56.6832C397.279 51.7676 397.945 27.4219 404.762 26.7051C409.613 31.2649 409.681 51.0901 404.339 57.2161L403.067 56.6832Z" fill="#ECDAC8"/>
<path d="M333.094 56.4163C328.047 52.4855 328.607 31.7746 333.412 27.4237C340.517 27.6182 339.791 50.5272 335.152 57.3163L333.094 56.4163Z" fill="#ECDAC8"/>
<path d="M224.665 57.0294C218.361 51.8769 219.11 28.4903 225.943 27.1179C230.295 30.3569 230.771 50.5719 226.957 55.6927C226.534 56.2475 226.08 56.7743 225.595 57.2709L224.665 57.0294Z" fill="#ECDAC8"/>
<path d="M262.205 228.695C267.381 233.758 272.724 237.381 278.997 240.867C274.691 241.114 270.317 240.965 266.004 240.961C260.563 240.947 255.123 240.881 249.682 240.762C254.888 237.336 258.482 233.699 262.205 228.695Z" fill="#664637"/>
<path d="M35.411 150.204C42.789 150.742 50.3788 150.269 57.7492 151.006L56.3946 152.295C57.1513 155.921 64.3704 158.693 67.6318 161.697L63.3337 162.576C54.5937 157.146 51.5971 156.979 41.6615 156.07L35.411 150.204Z" fill="#C28845"/>
<path d="M331.929 228.59C333.979 229.538 341.955 238.506 345.496 240.941L334.358 240.855L319.246 240.823C323.824 237.018 327.88 232.951 331.929 228.59Z" fill="#664637"/>
<path d="M65.3235 150.025C73.4127 150.179 83.8931 150.098 91.7251 151.123C88.7739 154.312 87.5405 155.595 85.8076 159.699L85.172 158.085C81.8803 156.762 78.5054 156.88 75.1607 157.965C71.521 154.691 69.3416 152.848 65.3235 150.025Z" fill="#572D17"/>
<path d="M75.1614 157.965C78.506 156.88 81.881 156.763 85.1727 158.085L85.8083 159.699C85.8764 162.518 86.3305 164.816 88.2147 166.9C90.8859 168.558 93.436 168.055 96.7958 168.155L97.333 169.087C91.3323 181.027 78.6347 162.948 75.1614 157.965Z" fill="#7A5641"/>
<path d="M128.812 54.6448C132.891 46.5016 140.693 48.9382 143.924 56.1239L144.756 59.2206C142.396 59.1744 140.193 58.9117 138.105 60.0138C135.275 60.11 133.406 60.3658 130.75 59.3356C128.707 56.9815 129.267 58.0503 128.812 54.6448Z" fill="#ECDAC8"/>
<path d="M138.105 60.014C135.275 60.1102 133.406 60.366 130.75 59.3358C128.707 56.9817 129.267 58.0505 128.812 54.645C130.644 55.7963 142.206 57.0779 143.924 56.1241L144.756 59.2208C142.396 59.1746 140.193 58.9119 138.105 60.014Z" fill="#D1BBAB"/>
<path d="M2.98584 97.1602L21.6009 97.254C18.8919 99.7943 16.1299 102.142 14.2079 105.332C11.0599 104.462 8.11632 104.157 5.0365 105.368C4.79435 105.994 4.3479 107.06 4.18899 107.673C3.81063 105.995 3.22042 99.238 2.98584 97.1602Z" fill="#572D17"/>
<path d="M203.711 226.331C203.159 225.96 202.629 225.567 202.107 225.152C198.762 222.456 182.954 210.704 186.927 206.327C190.242 206.763 193.291 210.419 195.682 213.019C196.401 216.2 196.825 216.693 199.004 218.967C200.397 220.95 202.742 224.197 203.711 226.331Z" fill="#DEA56F"/>
<path d="M333.094 56.4155L335.152 57.3155L337.627 59.5591L337.672 60.7634L335.743 62.0101C332.678 62.1948 333.821 62.4567 331.142 60.9353C330.824 58.728 331.513 58.6326 333.094 56.4155Z" fill="#D1BBAB"/>
<path d="M259.943 56.7612L261.388 57.4417C262.962 59.1229 264.105 58.7058 264.983 61.0789C262.614 61.8335 259.429 62.1514 257.234 60.9789C257.499 58.6793 258.127 58.6778 259.943 56.7612Z" fill="#D1BBAB"/>
<path d="M190.976 56.6086L192.027 57.3179L194.525 59.6909L194.532 60.8854L192.3 62.0965C189.47 61.9709 190.347 62.3433 188.138 60.9036L188.108 59.4411L190.976 56.6086Z" fill="#D1BBAB"/>
<path d="M296.946 56.6121L298.157 57.2305C299.844 58.9972 300.472 58.9859 300.48 60.9062L298.18 62.1348C295.561 62.0734 296.53 62.355 294.29 60.932L294.154 59.5543L296.946 56.6121Z" fill="#D1BBAB"/>
<path d="M369.628 56.9351L371.096 57.4316L373.199 59.5253L373.177 60.8606C370.536 62.5228 369.37 62.6909 366.79 61.0021V59.4958L369.628 56.9351Z" fill="#D1BBAB"/>
<path d="M224.665 57.0291L225.596 57.2705C226.565 58.1069 227.518 58.8525 228.525 59.6428L228.464 60.9644L226.527 62.2255C223.568 62.2073 224.68 62.4632 221.964 60.8494V59.5429L224.665 57.0291Z" fill="#D1BBAB"/>
<path d="M403.068 56.6821L404.339 57.215C406.147 58.8735 406.495 58.6631 407.063 60.6788L405.512 61.9588C402.674 62.2979 403.718 62.3865 400.934 60.9642L400.661 59.6032L403.068 56.6821Z" fill="#D1BBAB"/>
<path d="M398.323 20.9869C401.153 20.7568 404.354 20.2065 407.116 20.9778C407.767 21.1587 408.069 22.0784 408.395 22.6688C407.063 23.3796 404.641 24.0185 403.098 23.9276C400.563 23.7778 399.882 22.7544 398.323 20.9869Z" fill="#E8B88D"/>
<path d="M91.8768 70.4154C92.4595 70.3821 93.0497 70.3534 93.6399 70.367C95.9025 70.42 97.0678 71.0422 98.5434 72.6113L98.3316 74.1525C96.2052 74.2077 94.1167 74.2653 91.9979 74.0488L91.1353 72.9838L91.8768 70.4154Z" fill="#D1BBAB"/>
<path d="M367.494 20.8629C369.59 20.8258 371.444 20.8629 373.495 21.3337L373.699 22.5358L371.853 24.5031C369.582 24.1753 367.449 24.0103 365.549 22.6054L365.731 21.6176L367.494 20.8629Z" fill="#E8B88D"/>
<path d="M3.50024 31.6389C6.38332 31.9372 9.22858 31.0508 12.036 32.0848L12.1722 33.8553C9.9248 34.5108 8.16163 34.803 5.80825 34.6455C4.28726 33.6358 4.06778 33.3754 3.50024 31.6389Z" fill="#E8B88D"/>
<path d="M291.982 21.0112C294.903 20.7864 297.733 20.4609 300.616 21.1051C300.994 21.1884 301.63 22.4434 301.865 22.8219C300.427 23.3025 298.285 23.8475 296.78 23.8347C294.449 23.815 293.526 22.5198 291.982 21.0112Z" fill="#E8B88D"/>
<path d="M254.472 21.7148C256.197 21.4863 257.976 21.2115 259.709 21.1895C262.054 21.1608 263.454 20.9458 265.165 22.599C263.772 23.5149 262.228 23.8396 260.571 23.9365C258.036 24.0848 256.311 23.4142 254.472 21.7148Z" fill="#E8B88D"/>
<path d="M185.777 20.9517C188.85 20.7374 191.854 20.3968 194.881 21.1477L195.584 22.6222C194.328 23.1332 192.209 23.7788 190.84 23.7917C188.328 23.8159 187.435 22.5677 185.777 20.9517Z" fill="#E8B88D"/>
<path d="M160.034 57.6907C162.039 59.4301 162.07 58.8692 162.236 60.8865C160.064 62.1544 157.469 62.5253 155.388 60.8653C156.318 58.8147 156.424 59.2803 158.869 57.9624L160.034 57.6907Z" fill="#ECDAC8"/>
<path d="M32.1196 31.5694C35.0027 31.3468 37.6663 31.1175 40.5267 31.7132L41.5482 33.3792C40.118 34.003 38.022 34.5109 36.4707 34.4511C34.2763 34.3655 33.4439 33.0749 32.1196 31.5694Z" fill="#E8B88D"/>
<path d="M329.674 21.0518C331.089 20.9905 332.519 20.9095 333.934 20.942C336.325 20.9973 337.158 20.9882 338.807 22.7519C338.55 22.8586 338.315 22.951 338.058 23.0335C336.007 23.6784 332.882 24.4565 330.892 23.3325C329.939 22.7965 329.954 22.0396 329.674 21.0518Z" fill="#E8B88D"/>
<path d="M154.427 20.9407C157.105 20.8862 159.663 20.9392 162.327 21.245L163.401 22.771C161.26 23.4893 159.421 23.8595 157.158 23.9337C155.198 23.0465 155.191 22.933 154.427 20.9407Z" fill="#E8B88D"/>
<path d="M62.2966 31.6753C64.9905 31.5209 67.5482 31.3566 70.2194 31.8176L71.1274 33.4466C69.3491 34.1384 66.4585 35.0399 64.6045 34.3973C63.1441 33.8924 62.955 32.9606 62.2966 31.6753Z" fill="#E8B88D"/>
<path d="M67.102 70.1588L67.3972 69.915C68.1917 70.7931 69.0014 71.6553 69.8338 72.5008C69.1679 74.1259 69.13 73.7066 67.049 74.677C64.4157 74.4711 65.3086 74.8541 63.326 73.285C63.9693 71.2889 64.8546 71.3752 67.102 70.1588Z" fill="#D1BBAB"/>
<path d="M219.481 21.7329C222.296 21.2916 224.831 20.9434 227.677 21.3136C228.592 21.4324 228.698 21.8987 229.243 22.6079C228.169 23.318 226.655 23.6972 225.384 23.8433C222.773 24.1446 221.411 23.2052 219.481 21.7329Z" fill="#E8B88D"/>
<path d="M430.649 21.7227C433.381 21.4252 436.915 20.6978 439.48 21.8158L439.76 23.3895C438.065 23.5984 436.09 23.9883 434.387 23.8164C432.359 23.6105 431.92 23.2101 430.649 21.7227Z" fill="#E8B88D"/>
</svg>
