<svg width="274" height="267" viewBox="0 0 274 267" fill="none" xmlns="http://www.w3.org/2000/svg">
<path fill-rule="evenodd" clip-rule="evenodd" d="M7.92654 0.29663C20.2486 -0.304134 36.6982 0.192444 49.2488 0.198974L129.091 0.224364H214.894C230.703 0.217832 246.492 0.100134 262.314 0.38745C268.08 0.491931 271.659 2.30146 272.88 8.49194C274.205 15.1915 264.965 16.0996 262.295 20.3572C260.513 23.2044 263.51 29.3093 263.536 32.4958C263.732 38.0201 261.87 45.2556 262.915 50.5906C263.881 55.5599 271.835 53.3466 272.899 60.4119C275.191 75.5616 267.715 88.178 263.549 102.198C260.695 111.817 257.894 121.553 255.948 131.413C251.638 152.903 248.967 174.688 247.955 196.583C247.53 206.188 247.707 215.781 247.57 225.374C247.492 231.172 248.987 241.824 245.813 246.467C236.756 251.423 210.735 258.958 200.241 260.904C152.233 269.831 98.8438 269.458 51.9197 255.112C44.9588 252.983 36.0446 250.619 29.9783 247.087C23.984 242.849 25.786 221.64 25.9558 215.005C27.2618 165.99 16.5268 120.032 0.724396 74.1189C-1.27377 61.7183 0.554922 58.2632 10.0887 50.7537C10.3303 50.5314 10.7083 19.9851 10.3689 18.2869C0.0322971 14.3819 -2.96484 5.97773 7.92654 0.29663ZM161.244 18.1492C157.058 17.2677 147.401 17.7058 142.849 17.8298C141.948 23.4782 143.418 29.2379 143.561 35.1736C143.685 40.2538 142.81 47.7889 143.515 52.4382C146.31 53.2675 159.52 53.8486 161.669 52.2488C163.151 49.4145 161.349 40.946 161.29 37.2761C161.225 33.1687 162.883 20.9963 161.244 18.1492ZM97.7469 18.8416C96.1731 17.2939 92.4111 17.6335 90.0603 17.6531L81.2517 17.7703C79.0708 22.8897 80.9707 28.7535 81.2058 34.3757C81.4409 40.1222 80.3572 46.8032 81.3367 52.3015C83.7137 53.5552 94.4093 53.1633 97.7986 53.1306C99.5682 47.9066 97.9094 43.009 97.8767 37.4519C97.8441 31.3595 98.8307 24.7903 97.7469 18.8416ZM249.202 18.241C245.97 17.2094 239.003 17.5876 235.301 17.6921C233.25 22.5765 235.203 28.8521 235.405 34.2654C235.621 40.0443 234.555 46.4506 235.509 52.0076C237.102 53.725 245.513 53.1184 248.302 53.0662C251.175 48.2928 248.915 42.1739 249.15 36.408C249.326 32.1438 250.893 21.4995 249.202 18.241ZM67.0623 18.1492C63.5687 17.2023 55.576 17.6795 51.5144 17.7839C50.1497 22.7206 51.73 29.5247 51.9324 34.7683C52.1479 40.4494 51.2077 47.0382 51.9129 52.5691C54.329 53.196 64.8683 53.5159 67.0232 52.7976C68.9036 49.4019 67.4145 42.2258 67.199 38.0271C66.9052 32.4896 69.0082 22.8769 67.0623 18.1492ZM192.104 18.1433C188.676 17.2879 179.012 17.7838 175.061 17.823C173.422 22.9621 175.087 28.6758 175.263 34.1218C175.446 39.8943 174.336 46.7445 175.329 52.3015C177.693 53.5487 188.689 53.1506 192.124 53.1179C194.318 47.7568 190.956 35.7087 192.516 29.1199C192.973 27.1933 192.927 19.8415 192.104 18.1433ZM221.386 18.3259C217.748 17.1897 209.873 17.7185 205.844 17.823C204.479 22.6356 206.079 28.8656 206.262 33.9656C206.477 39.9275 205.439 46.3792 206.314 52.1843C207.961 53.3073 217.813 53.3006 219.648 53.0525C220.321 52.9611 220.955 52.694 221.49 52.2761C223.201 49.3768 221.339 40.7958 221.372 36.8582C221.405 32.4504 222.887 21.8131 221.386 18.3259ZM129.045 18.1882C125.819 17.3459 115.155 17.7701 111.348 17.8093C110.447 20.1731 110.65 25.345 111.224 27.7351C112.857 34.5132 109.769 47.6644 112.354 53.1628C115.502 53.1498 127.053 53.2999 129.548 52.9539C131.532 48.1739 129.124 40.5472 129.678 34.6833C130.083 30.3998 130.572 25.9333 130.977 21.6824L129.045 18.1882ZM37.8211 18.1824C34.1186 17.3923 28.1372 17.7385 24.1736 17.8103C21.9406 22.1984 23.9845 28.1732 24.2849 33.2273C24.6702 39.5353 23.4622 46.1702 24.4939 52.2693C26.721 53.5555 34.7786 53.0986 37.5994 53.0398C40.0481 47.7635 37.7233 41.2592 38.076 35.2058C38.2915 31.5552 39.5057 20.6964 37.8211 18.1824Z" fill="#552E17"/>
<path d="M19.9421 76.4226L187.377 76.4553C209.108 76.5728 230.775 75.946 252.493 76.5533C249.823 84.6179 246.714 93.1788 244.259 101.204L243.489 103.555C241.967 108.433 237.625 124.882 236.867 129.969C235.372 138.412 233.184 148.978 232.348 157.343L226.054 157.082C184.902 155.665 139.813 157.637 98.1841 156.997C93.8351 157.637 82.9236 157.434 78.1175 157.454C65.6257 157.558 53.1274 157.519 40.6356 157.343L37.1356 136.14L36.0646 130.805L35.2353 126.469C33.8183 122.211 31.9899 113.944 30.8276 109.314C29.7371 104.11 27.6998 97.7824 26.1848 92.591L24.9506 89.5219L19.9421 76.4226Z" fill="#4C1E08"/>
<path d="M116.318 83.2928C123.285 81.6929 149.594 81.6145 156.523 83.1099C158.371 85.5065 158.75 85.8917 159.416 88.8106C164.267 89.3853 177.876 88.6344 183.74 88.7519L183.975 90.9003C184.562 93.0944 185.829 97.4303 185.966 99.4285L185.718 103.242C185.718 111.281 185.62 119.515 185.738 127.527L185.725 130.218C178.862 130.165 164.626 129.682 158.351 130.394C157.195 132.007 157.352 134.097 157.097 136.33C157.757 139.706 161.296 142.122 158.155 147.3C153.108 151.623 121.927 151.839 115.364 147.81C112.21 145.877 116.161 135.102 115.926 131.145L115.874 130.394L115.802 126.75L115.678 124.51C115.763 116.589 116.024 107.937 115.593 100.101C117.617 93.6168 110.545 91.9582 116.318 83.2928Z" fill="#4C2D1F"/>
<path d="M159.416 88.8102C164.267 89.3849 177.876 88.6339 183.74 88.7515L183.975 90.8999C184.562 93.094 185.829 97.4299 185.966 99.4281L185.718 103.242C185.718 111.28 185.62 119.515 185.738 127.527L185.725 130.217C178.862 130.165 164.626 129.682 158.351 130.394C157.195 132.007 157.352 134.096 157.097 136.329C156.719 128.964 156.869 110.66 157.443 103.372L157.156 99.4477C157.104 96.5092 158.299 94.511 159.37 91.6116C159.161 90.4754 159.311 90.0183 159.416 88.8102Z" fill="#DDA26D"/>
<path d="M159.416 88.8102C164.268 89.3849 177.876 88.6339 183.74 88.7515L183.975 90.8999C184.563 93.094 185.829 97.4299 185.967 99.4281L185.718 103.242C175.408 103.895 167.487 103.366 157.444 103.372L157.156 99.4477C157.104 96.5092 158.299 94.511 159.37 91.6116C159.161 90.4754 159.311 90.0183 159.416 88.8102Z" fill="#DDA26D"/>
<path d="M157.156 99.4481L185.966 99.4285L185.718 103.242C175.407 103.895 167.487 103.366 157.444 103.373L157.156 99.4481Z" fill="#BC7E54"/>
<path d="M159.416 88.8102C164.267 89.3849 177.876 88.6339 183.74 88.7515L183.975 90.8999C181.213 91.0109 160.095 91.0827 159.37 91.6116C159.161 90.4754 159.311 90.0183 159.416 88.8102Z" fill="#BC7E54"/>
<path d="M157.443 103.372C157.901 111.123 157.528 119.071 157.43 126.854C166.866 126.907 176.308 127.129 185.738 127.527L185.725 130.217C178.862 130.165 164.626 129.682 158.351 130.394C157.195 132.007 157.352 134.096 157.097 136.329C156.719 128.964 156.869 110.66 157.443 103.372Z" fill="#A36B45"/>
<path d="M161.12 115.473C165.489 114.911 181.259 113.905 184.158 116.152C180.508 117.138 164.588 117.02 161.12 115.473Z" fill="#A36B45"/>
<path d="M132.708 101.648C140.681 99.624 148.798 104.411 150.887 112.364C152.97 120.324 148.256 128.474 140.315 130.629C132.283 132.803 124.016 128.017 121.901 119.972C119.792 111.92 124.643 103.692 132.708 101.648Z" fill="#9E8070"/>
<path d="M134.079 105.064C140.159 103.68 146.232 107.415 147.746 113.462C149.255 119.515 145.65 125.666 139.63 127.299C135.62 128.389 131.343 127.227 128.437 124.262C125.532 121.298 124.454 116.988 125.623 113.005C126.798 109.021 130.031 105.985 134.079 105.064Z" fill="#3B2C27"/>
<path d="M119.622 85.8592C129.221 85.4021 140.211 85.2192 149.862 85.6698C153.212 85.8265 155.217 86.7276 156.033 90.0383C155.419 92.5067 155.308 92.5655 153.512 94.4592C147.218 94.8967 140.237 94.8184 133.877 94.9098C128.816 94.9751 118.179 96.3072 116.925 90.2081C117.447 87.89 117.905 87.668 119.622 85.8592Z" fill="#9E8070"/>
<path d="M116.553 139.53C125.878 142.573 137.632 142.586 147.466 141.855C150.228 141.646 151.86 140.836 155.282 140.705C155.948 142.031 155.465 143.853 155.289 145.577C150.894 147.882 122.907 147.385 117.976 145.453C116.383 143.082 116.814 142.599 116.553 139.53Z" fill="#9E8070"/>
<path d="M118.721 97.5215C121.973 97.6717 125.44 97.972 128.712 98.2006L128.529 98.8275L129.626 98.6577C128.255 99.0299 128.326 99.0038 127.157 99.8201C126.296 102.158 126.06 102.386 124.186 104.045C122.711 103.496 122.175 103.163 120.588 103.301C118.891 105.56 119.139 107.526 118.688 110.66C118.375 108.198 118.675 100.375 118.721 97.5215Z" fill="#5F463D"/>
<path d="M186.619 83.6582C195.996 80.7458 214.333 83.4688 224.069 82.0845C227.588 83.828 228.489 84.3308 229.874 88.0203L229.665 90.7825C228.907 95.0335 227.327 96.1763 227.033 99.3042C231.376 99.5132 235.124 99.5393 239.479 99.4871L244.259 101.204L243.489 103.555C241.967 108.433 237.625 124.882 236.867 129.969C235.372 138.413 233.185 148.978 232.349 157.343L226.054 157.082C226.211 154.483 226.256 154.366 225.218 152.054C222.266 149.226 214.724 150.807 209.167 150.31C205.38 150.336 189.421 150.539 186.75 148.737C183.472 146.529 186.149 135.996 185.79 131.099L185.725 130.217L185.738 127.527C185.62 119.515 185.718 111.28 185.718 103.242L185.966 99.4282C185.829 97.43 184.563 93.0941 183.975 90.9L183.74 88.7516C184.484 86.1135 184.856 85.8654 186.619 83.6582Z" fill="#4C2D1F"/>
<path d="M227.033 99.304C231.376 99.5129 235.124 99.5391 239.479 99.4868L244.259 101.204L243.489 103.555C241.967 108.433 237.625 124.882 236.867 129.969C235.372 138.412 233.184 148.978 232.349 157.343L226.054 157.082C226.21 154.483 226.256 154.365 225.218 152.054C222.266 149.226 214.724 150.806 209.167 150.31C219.374 148.651 232.793 154.026 228.137 137.89C227.849 135.147 227.987 131.895 228.013 129.094L227.706 126.704C228.143 123.073 227.934 111.417 227.876 107.427C227.725 104.345 227.686 102.367 227.033 99.304Z" fill="#BC7E54"/>
<path d="M227.033 99.304C231.376 99.5129 235.124 99.5391 239.479 99.4868L244.259 101.204L243.489 103.555L237.873 103.372C235.685 111.607 233.557 119.854 231.487 128.121L227.706 126.704C228.143 123.073 227.934 111.417 227.876 107.427C227.725 104.345 227.686 102.367 227.033 99.304Z" fill="#E1AD84"/>
<path d="M227.033 99.304C231.376 99.5129 235.124 99.5391 239.479 99.4868L244.259 101.204L243.489 103.555L237.873 103.372L232.094 103.196C230.233 103.137 230.089 103.137 228.522 104.13C228.065 105.625 228.039 105.86 227.876 107.427C227.725 104.345 227.686 102.367 227.033 99.304Z" fill="#AD764F"/>
<path d="M228.013 129.094L231.056 129.728C233.015 132.797 231.931 135.239 229.443 137.505L228.137 137.89C227.849 135.148 227.986 131.896 228.013 129.094Z" fill="#D29B74"/>
<path d="M204.668 101.296C212.87 100.271 220.333 106.115 221.313 114.317C222.292 122.525 216.415 129.956 208.201 130.897C200.051 131.83 192.679 125.999 191.706 117.856C190.733 109.707 196.525 102.308 204.668 101.296Z" fill="#9E8070"/>
<path d="M204.002 105.227C207.953 104.241 212.139 105.469 214.933 108.44C217.722 111.411 218.695 115.655 217.467 119.547C216.239 123.433 213.007 126.358 209.017 127.187C203.01 128.435 197.107 124.647 195.742 118.666C194.371 112.684 198.047 106.709 204.002 105.227Z" fill="#3B2C27"/>
<path d="M188.408 85.8854C195.409 85.4152 219.785 84.4619 225.153 86.9106C227.575 89.7708 226.752 92.0236 224.082 94.1786C217.787 94.936 210.65 94.8381 204.263 94.9817C198.726 95.0993 189.878 96.1833 186.763 90.8874C186.6 88.419 187.031 88.1121 188.408 85.8854Z" fill="#9E8070"/>
<path d="M188.088 138.974L188.611 137.675C192.28 137.113 201.559 140.045 205.556 140.156C208.658 140.241 222.148 139.823 224.042 137.218C224.258 136.924 224.826 135.33 224.976 134.88C226.008 136.904 225.08 137.531 225.518 140.117L225.387 140.274C226.628 142.618 226.941 143.526 225.185 145.654C220.314 147.522 191.223 147.796 187.984 144.982C187.181 142.618 187.644 141.43 188.088 138.974Z" fill="#9E8070"/>
<path d="M188.089 138.974L188.611 137.675C192.281 137.113 201.56 140.045 205.556 140.156C208.658 140.241 222.149 139.823 224.043 137.218C224.258 136.924 224.826 135.33 224.977 134.88C226.008 136.904 225.081 137.531 225.519 140.117L225.388 140.274C215.769 143.193 197.446 143.46 188.089 138.974Z" fill="#552E17"/>
<path d="M87.6515 99.925C94.1618 100.062 109.507 100.545 115.593 100.101C116.024 107.937 115.763 116.59 115.678 124.511L115.802 126.751L115.874 130.394L115.926 131.145C116.161 135.102 112.211 145.877 115.365 147.81C121.927 151.839 153.108 151.623 158.155 147.301C161.296 142.122 157.757 139.706 157.097 136.33C157.352 134.097 157.195 132.007 158.351 130.394C164.627 129.682 178.862 130.166 185.725 130.218L185.79 131.099C186.149 135.997 183.472 146.53 186.75 148.737C189.421 150.539 205.38 150.337 209.167 150.311C214.724 150.807 222.266 149.227 225.218 152.054C226.256 154.366 226.211 154.484 226.054 157.083C184.902 155.666 139.813 157.638 98.1843 156.998C93.8353 157.638 82.9238 157.435 78.1177 157.455C65.6259 157.559 53.1276 157.52 40.6358 157.344L37.1357 136.141L41.7589 135.795C42.1768 137.362 42.9212 140.725 43.6983 141.959L44.6909 147.013C54.2834 153.197 72.4366 148.985 83.4527 149.958C85.0198 149.436 87.1355 148.319 88.6701 147.575C90.7923 137.479 87.2662 139.647 87.7037 130.029L87.6711 126.404C87.867 118.914 87.7559 110.987 87.7689 103.458L87.6515 99.925Z" fill="#DDA26D"/>
<path d="M87.6514 99.925C94.1617 100.062 109.507 100.545 115.593 100.101C116.024 107.937 115.763 116.59 115.678 124.511L115.802 126.751C106.621 126.855 96.8913 126.548 87.671 126.404C87.8669 118.914 87.7558 110.987 87.7689 103.458L87.6514 99.925Z" fill="#DDA26D"/>
<path d="M87.6514 99.925C94.1617 100.062 109.507 100.545 115.593 100.101C116.024 107.937 115.763 116.59 115.678 124.511C114.64 119.581 115.162 108.708 115.286 103.36C105.615 103.582 97.5246 103.667 87.7689 103.458L87.6514 99.925Z" fill="#BC7E54"/>
<path d="M92.5029 118.046C95.8463 117.471 107.052 116.818 109.448 118.823C105.099 119.756 96.4601 120.423 92.5029 118.046Z" fill="#AD764F"/>
<path d="M37.1357 136.14L41.7589 135.794C42.1768 137.361 42.9212 140.724 43.6983 141.959L44.6909 147.013C44.7039 150.337 44.7235 153.484 44.8868 156.801C56.3338 156.88 67.7808 156.873 79.2343 156.795C84.0012 156.775 93.6002 156.521 98.1843 156.997C93.8353 157.637 82.9238 157.435 78.1177 157.454C65.6259 157.559 53.1276 157.52 40.6358 157.343L37.1357 136.14Z" fill="#AD764F"/>
<path d="M87.6709 126.404C96.8912 126.547 106.621 126.854 115.802 126.75L115.874 130.394C106.484 130.531 97.087 130.407 87.7035 130.028L87.6709 126.404Z" fill="#BC7E54"/>
<path d="M83.4524 149.958C85.0196 149.436 87.1353 148.319 88.6698 147.574C93.8285 147.907 108.847 148.032 112.308 148.796L112.955 149.775L112.08 150.657C104.734 150.676 90.3937 150.67 83.4524 149.958Z" fill="#A36B45"/>
<path d="M160.963 139.503C165.626 139.287 180.416 137.838 183.296 141.135C177.725 143.036 166.115 142.84 160.963 139.503Z" fill="#BC7E54"/>
<path d="M163.386 149.253C167.487 149.011 180.553 148.326 183.479 150.193L182.897 151.284C179.254 151.663 165.835 152.701 163.151 150.925L163.386 149.253Z" fill="#BC7E54"/>
<path d="M92.5291 136.963C96.3621 136.728 102.135 136.212 105.739 137.054L106.386 138.334C102.899 138.883 94.1942 140.522 92.5291 136.963Z" fill="#AD764F"/>
<path d="M19.9421 76.4226L187.377 76.4553C209.108 76.5728 230.775 75.946 252.493 76.5533C249.823 84.6179 246.714 93.1788 244.259 101.204L239.479 99.4868C235.124 99.539 231.375 99.5129 227.033 99.3039C227.327 96.176 228.907 95.0332 229.665 90.7822L229.874 88.02C228.489 84.3305 227.588 83.8277 224.069 82.0842C214.332 83.4686 195.996 80.7456 186.619 83.658C184.856 85.8651 184.484 86.1132 183.74 88.7513C177.876 88.6338 164.267 89.3847 159.415 88.8101C158.749 85.8912 158.371 85.5059 156.523 83.1094C149.594 81.614 123.285 81.6924 116.318 83.2922C110.545 91.9576 117.617 93.6162 115.593 100.101C109.507 100.545 94.1616 100.061 87.6513 99.9242C87.6447 96.4176 87.5859 95.8561 89.3425 92.8522L89.447 87.4519C89.016 86.2177 88.1279 84.4873 87.5402 83.2466C81.4739 81.7969 52.7421 81.2352 47.2374 83.253L46.7084 83.4359C46.3493 83.5795 45.9902 83.7232 45.631 83.8669C41.909 92.7673 45.7747 92.271 46.2513 99.9895L45.8922 102.758C41.9415 102.7 37.991 102.686 34.0404 102.726C32.8258 104.952 31.6438 106.911 30.8276 109.314C29.7371 104.11 27.6998 97.7824 26.1848 92.591L24.9506 89.5219L19.9421 76.4226Z" fill="#BC7E54"/>
<path d="M87.5405 83.2473C90.6749 82.7967 113.367 82.6399 116.318 83.2929C110.546 91.9583 117.618 93.6169 115.593 100.101C109.507 100.545 94.1619 100.062 87.6516 99.9249C87.645 96.4183 87.5862 95.8568 89.3428 92.8529L89.4473 87.4526C89.0163 86.2184 88.1282 84.488 87.5405 83.2473Z" fill="#DDA26D"/>
<path d="M89.4475 87.4521L90.1658 88.6798C96.0428 89.4438 104.891 87.0146 108.43 90.3058C106.295 91.8273 93.6201 90.4559 90.4139 90.6061C90.1789 90.6192 89.4671 92.4738 89.343 92.8525L89.4475 87.4521Z" fill="#BC7E54"/>
<path d="M28.072 83.2275C34.1775 83.2602 39.5386 83.5018 45.6311 83.8675C41.909 92.7679 45.7747 92.2716 46.2514 99.9901L45.8922 102.759C41.9416 102.7 37.991 102.687 34.0404 102.726C32.8258 104.953 31.6439 106.912 30.8276 109.315C29.7371 104.111 27.6998 97.783 26.1849 92.5916L24.9507 89.5225L29.9004 89.5551L28.072 83.2275Z" fill="#DDA26D"/>
<path d="M26.1853 92.5914C29.3066 91.9711 32.108 91.2005 35.262 91.5923L35.9672 92.1147C33.4662 92.2061 32.6434 91.7948 30.9391 93.1073C30.7824 95.1708 32.2777 97.7501 33.1919 99.7548C37.9196 100.01 41.5307 100.121 46.2518 99.9899L45.8927 102.759C41.942 102.7 37.9915 102.687 34.0409 102.726C32.8263 104.953 31.6443 106.912 30.8281 109.315C29.7376 104.11 27.7003 97.7828 26.1853 92.5914Z" fill="#AD764F"/>
<path d="M24.9507 89.522L29.9004 89.5546C34.6215 89.5742 38.0824 89.3391 42.6272 90.8411L42.8232 91.5463C39.7018 92.3429 39.199 92.3233 35.9667 92.1144L35.2615 91.5919C32.1075 91.2001 29.3062 91.9707 26.1849 92.5911L24.9507 89.522Z" fill="#A36B45"/>
<path d="M156.523 83.1097C159.71 81.8233 183.681 82.4894 186.619 83.6583C184.856 85.8655 184.484 86.1136 183.74 88.7517C177.876 88.6342 164.268 89.3851 159.416 88.8104C158.75 85.8915 158.371 85.5063 156.523 83.1097Z" fill="#DDA26D"/>
<path d="M224.069 82.0846C228.28 80.1059 240.642 80.6348 245.774 80.6479C245.108 83.1816 244.494 85.8785 243.515 88.2946C240.243 88.3403 232.721 88.6733 229.874 88.0203C228.489 84.3309 227.588 83.8281 224.069 82.0846Z" fill="#DDA26D"/>
<path d="M229.665 90.7822C233.753 90.7038 237.84 90.6647 241.935 90.6516L239.479 99.4868C235.124 99.539 231.376 99.5129 227.033 99.3039C227.327 96.176 228.907 95.0332 229.665 90.7822Z" fill="#DDA26D"/>
<path d="M34.0404 102.726C37.991 102.687 41.9416 102.7 45.8922 102.759L45.8792 125.542L45.8596 130.668L40.3091 130.76L36.0647 130.805L35.2354 126.469C33.8184 122.212 31.99 113.945 30.8276 109.315C31.6439 106.912 32.8258 104.953 34.0404 102.726Z" fill="#DDA26D"/>
<path d="M34.0404 102.726C35.1178 105.958 40.5442 124.817 41.3474 125.966C43.0778 126.306 43.1105 126.371 44.9519 126.208L45.8792 125.542L45.8596 130.668L40.3091 130.76L36.0647 130.805L35.2354 126.469C33.8184 122.212 31.99 113.945 30.8276 109.315C31.6439 106.912 32.8258 104.953 34.0404 102.726Z" fill="#BC7E54"/>
<path d="M45.8795 125.542L45.8598 130.668L40.3094 130.759L36.0649 130.805L35.2356 126.469C37.7888 126.867 42.8169 127.605 44.9522 126.208L45.8795 125.542Z" fill="#AD764F"/>
<path d="M40.3094 130.76L45.8599 130.668C45.9839 136.036 45.8076 136.761 43.6984 141.959C42.9214 140.724 42.177 137.361 41.759 135.794L37.1359 136.14L36.0649 130.805L40.3094 130.76Z" fill="#E1AD84"/>
<path d="M36.0649 130.805L40.3094 130.759L41.759 135.794L37.1359 136.14L36.0649 130.805Z" fill="#BC7E54"/>
<path d="M48.8634 96.8486C59.6444 98.1285 74.0103 96.7115 85.0981 96.8617C85.0851 103.516 85.9667 133.724 84.5562 137.616C76.2631 143.094 57.4177 139.66 48.3737 136.871C48.2757 132.705 48.3541 128.297 48.3606 124.105C48.2365 121.715 48.4325 117.98 48.4978 115.479C48.5109 109.164 48.4912 103.157 48.8634 96.8486Z" fill="#9E8070"/>
<path d="M54.3553 125.542C64.5551 132.595 74.5851 134.678 80.8669 121.232C87.1879 125.072 83.5181 130.897 84.5564 137.616C76.2633 143.095 57.4178 139.66 48.3739 136.872C48.2759 132.706 48.3543 128.298 48.3608 124.106L49.4121 122.297L50.3328 122.499C51.3254 124.524 51.7368 126.352 53.4019 127.162L54.3553 125.542Z" fill="#3B2C27"/>
<path d="M48.8634 96.8486C59.6444 98.1285 74.0103 96.7115 85.0981 96.8617C85.0851 103.516 85.9667 133.724 84.5562 137.616C83.5179 130.896 87.1877 125.071 80.8667 121.232C85.3789 101.113 62.067 92.8653 50.8942 112.997L49.8625 113.154L49.5295 115.799L48.4978 115.479C48.5109 109.164 48.4912 103.157 48.8634 96.8486Z" fill="#4C2D1F"/>
<path d="M48.4978 115.479L49.5295 115.799L49.8625 113.154L50.8942 112.998C51.4036 118.404 51.3579 120.899 54.3551 125.542L53.4017 127.161C51.7366 126.352 51.3252 124.523 50.3327 122.499L49.4119 122.296L48.3606 124.105C48.2365 121.715 48.4325 117.98 48.4978 115.479Z" fill="#552E17"/>
<path d="M64.457 105.018C70.6213 103.803 76.6092 107.78 77.8891 113.931C79.169 120.076 75.2576 126.11 69.1194 127.455C65.0905 128.33 60.9047 126.985 58.1491 123.916C55.3934 120.853 54.4989 116.543 55.8049 112.632C57.1108 108.727 60.415 105.814 64.457 105.018Z" fill="#3B2C27"/>
<path d="M62.5505 107.029C63.2884 107.166 64.2483 107.447 64.9927 107.636C64.6727 109.811 61.1858 113.343 59.5076 115.42L58.4823 116.249L57.6661 115.544C57.3069 111.828 60.056 109.314 62.5505 107.029Z" fill="#5F463D"/>
<path d="M81.8527 85.5522C83.6158 85.1473 82.6951 85.1996 84.7194 85.8722C94.8473 98.3968 57.927 94.8118 52.2394 94.7661C47.5705 94.0347 45.729 91.0178 48.8503 87.1847C54.4726 84.3637 74.3955 85.5065 81.8527 85.5522Z" fill="#9E8070"/>
<path d="M46.97 139.601C57.986 142.37 73.6448 143.5 84.687 140.62L85.1637 140.496C85.9864 141.717 85.7187 144.035 85.7448 145.785C80.7494 147.274 53.2584 147.718 48.6613 145.23C47.0027 143.369 47.1855 142.135 46.97 139.601Z" fill="#9E8070"/>
<path d="M41.3477 161.059C88.2262 160.295 135.438 161.497 182.349 160.968C197.649 160.791 215.678 160.158 230.834 161.229C231.774 162.698 231.291 164.559 231.095 166.394C227.902 170.338 225.231 167.334 221.15 168.993L223.801 170.848C226.563 170.377 227.889 170.136 230.762 170.123C230.501 178.755 230.044 187.519 229.939 196.125C225.479 196.06 219.779 195.76 215.521 196.68C218.127 196.7 227.902 196.321 229.214 197.431L229.26 197.712L229.221 207.22C222.763 207.475 214.822 207.991 208.469 207.938C169.158 207.664 129.842 207.612 90.5248 207.762C83.9295 207.775 49.1053 208.317 44.9522 207.318C43.9074 205.725 43.5679 201.911 44.6257 200.279L47.734 199.893L48.5633 199.469C47.0614 199.43 45.9774 199.358 44.4755 199.221L44.4298 198.411C46.1537 197.875 47.7796 197.738 49.5688 197.503C47.0026 197.536 46.4998 197.634 44.0903 196.948C42.8953 192.593 43.1695 177.541 42.0268 170.861L41.8766 169.999C45.0763 170.599 48.942 170.965 52.22 171.357C57.7379 170.364 66.3313 171.357 69.8444 169.862L69.4657 169.404C60.9963 168.647 50.8553 169.313 41.7852 168.725C41.4783 166.505 41.4391 163.364 41.3477 161.059Z" fill="#7D553E"/>
<path d="M223.801 170.848C226.563 170.377 227.889 170.136 230.762 170.123C230.501 178.756 230.043 187.519 229.939 196.125C225.479 196.06 219.778 195.76 215.521 196.681C214.62 197.418 215.142 197.144 213.823 197.216C216.977 192.031 223.5 176.568 223.801 170.848Z" fill="#794C31"/>
<path d="M49.5688 197.503C52.011 197.163 52.664 197.104 55.1128 197.281C61.388 197.659 73.599 198.691 79.5021 198.463C94.7561 197.862 104.956 196.804 120.203 198.286C122.182 198.534 124.004 198.423 125.388 199.488C122.828 200.043 122.267 200.049 119.642 199.978C108.626 199.951 54.8777 202.596 47.7339 199.893L48.5632 199.468C47.0613 199.429 45.9773 199.357 44.4754 199.22L44.4297 198.41C46.1536 197.875 47.7796 197.738 49.5688 197.503Z" fill="#4C2D1F"/>
<path d="M41.8765 169.999C45.0761 170.599 48.9419 170.965 52.2199 171.357C49.3598 172.212 49.3859 171.729 47.6162 173.584C47.897 175.588 54.316 196.178 55.1127 197.281C52.664 197.105 52.0109 197.164 49.5687 197.503C47.0024 197.536 46.4997 197.634 44.0901 196.948C42.8951 192.593 43.1694 177.541 42.0266 170.86L41.8765 169.999Z" fill="#794C31"/>
<path d="M229.26 197.712L229.22 207.22C222.762 207.474 214.822 207.99 208.468 207.938C212.406 206.867 214.28 205.927 212.549 201.023C210.636 199.893 203.995 200.5 199.672 199.756C199.921 199.606 226.537 197.914 229.26 197.712Z" fill="#794C31"/>
<path d="M90.0086 169.574L90.5897 169.529C97.5637 169.032 143.802 169.581 147.289 172.617L146.329 172.898C142.196 173.029 88.3826 170.325 88.5328 170.417L90.0086 169.574Z" fill="#4C2D1F"/>
<path d="M66.5009 179.389C69.2631 178.696 72.0709 180.362 72.7892 183.111C73.5141 185.866 71.8881 188.687 69.1456 189.445C67.3368 189.941 65.4039 189.432 64.0848 188.106C62.7593 186.781 62.2499 184.848 62.7527 183.045C63.2555 181.237 64.6856 179.846 66.5009 179.389Z" fill="#4C1E08"/>
<path d="M134.145 180.179C136.62 178.84 139.715 179.754 141.067 182.223C142.418 184.691 141.53 187.786 139.068 189.158C136.587 190.542 133.453 189.641 132.088 187.146C130.717 184.652 131.644 181.524 134.145 180.179Z" fill="#4C1E08"/>
<path d="M202.82 180.029C204.427 179.134 206.392 179.18 207.953 180.146C209.52 181.113 210.441 182.843 210.362 184.685C210.291 186.52 209.233 188.172 207.594 189.007C205.119 190.268 202.095 189.314 200.796 186.866C199.49 184.41 200.391 181.374 202.82 180.029Z" fill="#4C1E08"/>
<path d="M175.845 170.234C178.992 170.057 186.802 169.182 188.944 170.939L188.141 172.16C185.294 172.637 177.425 173.675 175.348 171.625L175.845 170.234Z" fill="#4C2D1F"/>
<path d="M44.4949 211.928L228.744 211.83C228.777 215.375 228.653 220.573 229.26 223.897L228.907 224.746L228.953 238.348C229.175 241.032 229.443 243.409 229.299 246.106L229.312 247.647C227.209 249.802 221.522 250.866 218.453 251.617C214.385 252.877 204.76 256.012 200.855 255.973C200.091 256.162 199.327 256.338 198.563 256.508C156.967 265.938 102.285 264.527 61.4532 253.224C56.9932 251.989 48.0994 250.265 44.5079 247.993C43.5284 246.138 43.8811 243.363 43.9398 241.15L43.868 239.132L44.0639 233.699C44.1423 227.456 43.8419 217.752 44.4949 211.928Z" fill="#DDA26D"/>
<path d="M228.953 238.349C229.175 241.032 229.443 243.409 229.299 246.106L229.312 247.647C227.209 249.802 221.522 250.867 218.453 251.618C214.385 252.878 204.76 256.012 200.855 255.973C200.091 256.163 199.327 256.339 198.563 256.509C156.967 265.938 102.285 264.528 61.4532 253.224C56.9932 251.99 48.0994 250.266 44.5079 247.993C43.5284 246.139 43.8811 243.364 43.9398 241.15L46.8326 241.255C52.9708 243.266 58.8478 240.895 61.623 241.783C97.9883 243.429 134.406 243.644 170.791 242.423L172.547 242.495C173.37 242.325 175.747 242.143 176.694 242.045L174.336 240.504L178.274 240.438C196.61 240.915 210.845 238.251 228.953 238.349Z" fill="#BC7E54"/>
<path d="M61.6233 241.783C97.9886 243.429 134.406 243.644 170.791 242.423L172.548 242.495C166.344 247.849 132.97 253.511 124.468 253.485C110.173 253.433 73.7102 249.671 61.6233 241.783Z" fill="#DDA26D"/>
<path d="M228.952 238.349C229.174 241.032 229.442 243.409 229.299 246.106L228.215 241.405C210.238 242.645 194.624 242.554 176.693 242.045L174.336 240.504L178.274 240.438C196.61 240.915 210.845 238.251 228.952 238.349Z" fill="#A36B45"/>
<path d="M200.855 255.973C196.453 253.439 178.92 255.509 172.704 255.183C168.544 254.961 164 254.798 159.644 254.425C164.078 252.44 212.027 251.506 218.453 251.617C214.385 252.878 204.759 256.012 200.855 255.973Z" fill="#A36B45"/>
<path d="M44.4951 211.928L228.744 211.83C228.777 215.375 228.653 220.573 229.26 223.897C222.626 223.211 209.572 224.315 202.135 224.322C204.387 222.356 206.856 220.286 209.03 218.268C183.479 219.646 157.842 219.287 132.271 220.665C116.357 221.527 100.346 220.462 84.4584 219.757C75.1532 219.346 65.8872 219.45 56.5494 218.928L57.9859 226.96C53.1407 226.581 49.5688 226.921 44.7693 227.267C44.8281 222.206 45.0306 216.943 44.4951 211.928Z" fill="#BC7E54"/>
<path d="M202.134 224.322C209.572 224.316 222.626 223.212 229.26 223.898L228.907 224.747L228.953 238.349C210.845 238.251 196.61 240.915 178.274 240.438C185.901 235.495 189.558 235.188 197.962 228.201C178.222 229.259 160.545 229.683 140.733 226.856C143.411 225.458 170.262 226.562 175.949 226.19C182.453 225.765 194.828 224.577 200.868 224.799L202.134 224.322Z" fill="#BC7E54"/>
<path d="M202.135 224.322C209.572 224.316 222.626 223.212 229.26 223.898L228.907 224.747C225.1 225.661 203.395 228.084 200.476 226.542L200.868 224.799L202.135 224.322Z" fill="#A36B45"/>
<path d="M59.3437 238.499L59.8073 238.316C83.3608 239.387 106.562 240.543 130.174 241.032C138.944 241.209 152.65 239.713 160.617 240.595C165.168 241.522 167.917 240.366 170.79 242.423C134.405 243.644 97.9879 243.429 61.6226 241.783C58.8474 240.895 52.9704 243.266 46.8323 241.254C50.3389 241.072 57.1953 242.071 59.6702 240.197L59.3437 238.499Z" fill="#AD764F"/>
<path d="M44.0643 233.699C44.3712 231.838 44.306 230.97 45.6185 229.638C49.4646 228.247 53.8527 229.154 58.1756 229.468C58.809 232.367 59.573 235.371 59.808 238.316L59.3444 238.499L59.6709 240.197C57.1961 242.071 50.3396 241.072 46.833 241.255L43.9402 241.15L43.8684 239.132L44.0643 233.699Z" fill="#BC7E54"/>
<path d="M43.8684 239.132C49.4972 238.708 53.6699 238.492 59.3444 238.499L59.6709 240.196C57.1961 242.071 50.3396 241.071 46.833 241.254L43.9402 241.15L43.8684 239.132Z" fill="#A36B45"/>
<path d="M44.4946 211.928C45.0301 216.943 44.8276 222.206 44.7688 227.267C49.5684 226.921 53.1402 226.581 57.9855 226.96C62.8307 227.776 82.7405 225.491 84.3861 228.168C81.9765 229.298 61.8969 229.422 58.1749 229.467C53.852 229.154 49.4639 228.246 45.6178 229.637C44.3052 230.969 44.3705 231.838 44.0636 233.699C44.142 227.456 43.8416 217.753 44.4946 211.928Z" fill="#AD764F"/>
<path d="M160.617 240.595C165.09 240.563 169.896 240.425 174.336 240.504L176.694 242.045C175.747 242.143 173.37 242.326 172.547 242.496L170.791 242.424C167.917 240.367 165.168 241.523 160.617 240.595Z" fill="#A36B45"/>
<path d="M111.388 236.311C115.665 236.135 130.932 235.371 134.308 236.383L133.903 237.193C128.62 237.382 115.41 237.748 110.663 236.899L111.388 236.311Z" fill="#BC7E54"/>
<path d="M7.61357 57.2116C24.5327 56.5782 45.1674 57.1005 62.3477 57.1005L167.042 57.0875L231.049 57.0287C239.682 57.0222 257.26 56.5585 265.233 57.427C269.654 60.0391 268.936 67.32 267.832 71.6037L266.735 72.1588C180.128 71.1989 91.517 71.8062 4.82535 72.0282C4.69475 66.1838 3.70213 61.4039 7.61357 57.2116Z" fill="#E4D4C4"/>
<path d="M221.483 4.2007C230.586 4.08316 239.689 4.0766 248.785 4.16802C254.081 4.18761 267.239 2.50286 269.008 9.07209C268.349 11.1813 267.643 11.4882 265.867 12.9967C258.841 13.7607 247.988 13.4407 240.636 13.4407H197.473L60.977 13.3819C55.2698 13.395 9.24011 14.1591 6.89585 12.4808L5.05444 9.73163C5.43971 7.26327 5.40702 7.13271 6.96767 5.28471C8.46303 4.38356 9.22052 4.25292 10.9836 4.26598C81.0761 4.61207 151.417 3.44321 221.483 4.2007Z" fill="#EAD7C4"/>
<path d="M221.483 4.20071C230.586 4.08317 239.689 4.0766 248.785 4.16802C254.081 4.18761 267.239 2.50287 269.008 9.07209C268.349 11.1813 267.643 11.4882 265.867 12.9967C258.841 13.7607 247.988 13.4407 240.636 13.4407H197.473L60.977 13.3819C55.2698 13.395 9.24011 14.1591 6.89585 12.4808L5.05444 9.73164C11.4995 10.907 29.47 10.3454 36.666 10.2932L93.0129 10.019C119.642 10.228 146.278 10.2475 172.907 10.0843C187.717 10.13 203.062 10.463 217.839 9.80346C222.626 9.58796 228.046 7.23066 232.271 5.11493C228.679 4.74272 225.088 4.44232 221.483 4.20071Z" fill="#CCB5A3"/>
<path d="M5.55005 76.4488C12.8505 76.4815 14.7442 74.2155 17.957 81.3006C39.8192 145.145 41.0077 181.465 40.0347 247.046C38.2977 246.459 31.0625 244.402 30.8731 242.514C28.9925 223.695 30.7948 204.052 29.5672 184.952C27.2686 150.056 19.8833 115.681 7.62653 82.9331C6.98006 81.392 6.08551 78.1662 5.55005 76.4488Z" fill="#DFCDBB"/>
<path d="M5.55005 76.4488C12.8505 76.4815 14.7442 74.2155 17.957 81.3006C15.6127 81.5161 8.75621 81.3659 7.62653 82.9331C6.98006 81.392 6.0855 78.1662 5.55005 76.4488Z" fill="#CCB5A3"/>
<path d="M249.228 141.86C246.375 159.635 244.546 177.56 243.769 195.55C243.201 211.412 243.809 227.626 243.267 243.148C239.597 244.735 237.226 245.721 233.419 246.883C232.701 223.558 232.518 191.75 235.307 168.758C237.546 166.91 246.14 146.954 249.228 141.86Z" fill="#CCB5A3"/>
<path d="M255.667 80.6544C257.659 75.6785 262.282 74.5685 266.755 77.2654C267.055 79.3354 266.879 78.813 265.847 81.0724C259.441 96.8751 252.35 125.477 249.228 141.861C246.14 146.954 237.546 166.91 235.307 168.758C235.587 145.648 247.211 102.399 255.667 80.6544Z" fill="#EAD7C4"/>
<path d="M255.667 80.6544C257.659 75.6785 262.282 74.5685 266.755 77.2654C267.055 79.3354 266.879 78.813 265.847 81.0724L255.667 80.6544Z" fill="#CCB5A3"/>
<path d="M43.483 21.845C51.887 23.4971 49.1053 43.6227 46.0427 48.9512C45.1155 50.5706 47.8189 49.7087 48.2499 53.0847C45.8077 53.1043 44.1947 53.3067 41.9158 52.4382C41.5762 50.7339 44.2731 49.5976 44.038 49.1732C38.8532 39.9658 41.0277 31.7641 43.483 21.845Z" fill="#EAD7C4"/>
<path d="M72.7039 22.0542C81.4214 25.0058 78.1499 42.3365 75.3355 48.749L74.9959 49.5065C76.4325 50.4665 76.9549 50.7081 78.0127 52.1251L77.203 52.9413C74.6759 53.0066 73.2785 53.0654 70.7449 52.6997C71.7701 48.2462 75.5575 52.0924 72.3839 47.0316C68.1982 40.3514 70.869 29.3156 72.7039 22.0542Z" fill="#EAD7C4"/>
<path d="M14.9861 22.2626C25.0291 23.1833 20.7455 43.5831 18.0943 49.6495C19.3415 50.4266 19.4199 50.4397 20.4255 51.4845L20.2622 52.8689C18.2967 52.8885 16.2529 52.8427 14.2743 52.8231C13.6083 50.8119 17.585 50.2242 16.2724 48.2195C10.8003 39.8741 13.5429 32.8935 14.9861 22.2626Z" fill="#EAD7C4"/>
<path d="M135.274 21.9038C143.143 22.8115 140.394 43.6684 137.357 49.4867C138.415 50.5054 138.748 50.8842 139.663 52.04L139.101 53.1305C137.273 53.1175 134.922 53.3591 133.439 52.471C133.315 50.0679 135.843 49.9503 135.47 49.0557C131.324 39.13 132.062 32.1952 135.274 21.9038Z" fill="#EAD7C4"/>
<path d="M168.152 22.0088C174.375 24.8036 172.886 43.7473 169.001 49.7157C162.504 45.974 163.092 26.5994 168.152 22.0088Z" fill="#EAD7C4"/>
<path d="M197.146 22.2692C198.399 22.4259 198.948 22.563 200.182 22.8242C204.681 28.4596 203.421 42.7474 200.927 49.1729C191.981 50.505 196.454 26.9186 197.146 22.2692Z" fill="#EAD7C4"/>
<path d="M226.687 21.8575C234.673 23.2027 233.125 43.9878 229.044 49.3294C221.391 47.2594 225.492 27.3101 226.687 21.8575Z" fill="#EAD7C4"/>
<path d="M255.582 22.0732C256.425 22.3867 256.875 22.7262 257.652 23.1964C260.643 29.0343 261.178 44.1775 256.993 49.4538C249.542 46.241 251.932 27.1667 255.582 22.0732Z" fill="#EAD7C4"/>
<path d="M102.97 21.7987L105.302 22.5171C110.186 28.4137 109.03 42.179 106.294 48.9964C104.08 48.8853 105.093 49.1923 103.173 47.8994C99.3594 41.3563 101.508 28.7989 102.97 21.7987Z" fill="#EAD7C4"/>
<path d="M100.111 18.0702C102.775 17.92 105.687 17.4433 108.051 18.4032L108.358 20.0749C104.643 21.0087 102.109 21.6029 100.111 18.0702Z" fill="#D29B74"/>
<path d="M163.627 18.0115C167.081 17.7242 170.562 16.6076 172.39 19.7355C168.257 21.3092 166.259 21.1916 163.627 18.0115Z" fill="#D29B74"/>
<path d="M224.016 17.9986C226.733 17.7766 229.469 17.1954 231.794 18.3317L232.1 20.2645C227.96 20.5584 226.354 21.551 224.016 17.9986Z" fill="#D29B74"/>
<path d="M194.886 18.0968C197.694 17.816 199.444 17.4307 202.18 18.149L203.049 19.6444C199.385 21.3357 197.08 21.3291 194.886 18.0968Z" fill="#D29B74"/>
<path d="M13.0793 18.0709C15.4693 17.9795 18.5189 17.4309 20.4909 18.4692L20.7651 19.9123C18.447 20.5131 17.9312 20.5131 15.5085 20.6176C13.2884 19.5793 14.0915 20.376 13.0793 18.0709Z" fill="#D29B74"/>
<path d="M70.2815 18.0962C72.8804 17.9526 75.0549 17.5934 77.4644 18.4553L77.7126 20.0422C74.4019 20.6038 71.3916 21.7204 70.2815 18.0962Z" fill="#D29B74"/>
<path d="M251.501 18.7623C254.727 18.1812 257.502 17.1037 259.833 19.7222C255.928 20.865 254.609 21.1066 251.501 18.7623Z" fill="#D29B74"/>
</svg>
