<svg width="393" height="852" viewBox="0 0 393 852" fill="none" xmlns="http://www.w3.org/2000/svg">
<g clip-path="url(#clip0_1775_422)">
<path d="M0 527.649C0 527.649 113.5 478.939 197.5 527.649C281.5 576.359 395 527.649 395 527.649V852H0V527.649Z" fill="#68C0FF"/>
<path d="M56.8857 559.722C64.4981 555.217 72.8533 549.94 81.481 542.222C82.0239 542.109 83.5041 541.243 84.0296 541.086C84.5552 540.929 85.0638 540.731 88.6663 539.931C98.7684 537.771 105.991 535.846 111.102 534.678C123.029 531.951 131.253 530.528 133.309 530.219C137.212 529.632 140.366 529.295 142.161 529.199C147.252 528.928 152.589 528.345 153.436 530.689C155.609 536.708 157.905 549.063 155.219 551.477C153.545 552.981 152.158 554.604 150.505 555.517C146.317 557.828 143.612 558.425 137.492 560.597C133.032 562.181 125.077 563.84 115.834 572.88C112.775 575.872 110.103 578.059 107.835 580.379C104.578 583.711 96.1276 591.72 89.0822 592.536C87.5971 592.708 86.0919 592.095 84.0254 592.062C79.9362 591.997 73.4758 587.774 63.5083 594.098C58.3617 597.363 55.5788 600.976 51.9608 603.879C48.0432 607.023 38.4439 612.58 32.7549 611.032L32.7397 611.027C30.2462 610.349 27.656 609.644 26.6102 608.148C26.1562 607.498 26.1848 606.759 26.4495 606.006C26.7143 605.253 27.2305 604.526 27.7465 603.555C29.7364 599.809 31.315 596.976 30.9784 594.268C30.5741 591.016 29.7473 587.964 30.5606 584.958C31.3195 582.153 32.0219 579.312 33.9442 576.097C35.9341 572.769 38.7727 570.355 43.2628 567.718C46.938 565.56 51.9366 562.651 56.8857 559.722Z" fill="#3BA9F7"/>
<path d="M-67.4152 800.378C-76.3119 790.593 -81.0029 786.44 -82.834 785.315C-82.2443 784.403 -82.0217 783.888 -82.2441 783.32C-83.1377 782.129 -84.1598 780.935 -84.6557 779.792C-84.8073 779.212 -84.8551 778.576 -84.3681 777.931C-83.2323 776.428 -81.5764 775.382 -80.2123 774.161C-77.0188 771.304 -74.0275 769.219 -71.3668 767.863C-67.1424 765.711 -63.6067 764.271 -60.6114 764.018C-57.6346 763.766 -52.8797 763.187 -46.8989 765.238C-39.916 767.633 -36.465 770.918 -28.8675 773.493C-23.1766 775.422 -18.5369 777.709 -14.0161 777.561C-7.54947 777.35 -3.81822 776.591 -0.679029 775.149C2.97413 773.472 7.92444 771.077 18.0842 770.87C25.8246 770.712 32.8429 770.849 39.0449 772.924C48.5808 776.114 50.8561 777.278 54.6489 778.646C56.0909 779.166 63.3528 784.07 71.9192 794.11C77.3423 800.465 79.4876 803.348 80.0076 804.783C81.4297 808.707 81.772 812.293 89.3444 817.132C93.6404 819.878 100.826 824.29 106.524 827.392C116.104 832.606 122.308 835.985 124.34 839.584C125.802 842.171 127.14 844.555 126.805 846.898C126.119 851.704 119.59 860.888 114.529 865.909C111.67 868.746 109.928 870.613 107.041 871.27C100.753 872.702 91.0874 873.979 87.4931 873.443C83.3767 872.83 80.2388 871.038 77.7846 869.73C75.6956 868.617 73.9158 867.128 71.5929 866.589C69.2339 866.041 66.5539 865.299 64.0163 865.969C61.8049 866.554 59.5707 867.571 56.8954 868.572C52.9911 870.033 46.4262 872.456 42.3574 871.928C38.7291 871.458 33.7956 870.435 29.6659 866.717C23.3048 860.99 17.3434 854.376 13.1772 850.117C10.1752 847.048 8.52867 845.061 3.87999 840.571L3.86955 840.561C-0.189828 836.641 -7.4894 829.592 -11.5994 826.09C-16.1992 822.172 -18.0003 820.769 -26.9872 819.543C-32.6482 818.771 -43.2491 820.57 -52.6269 813.557C-56.9271 810.341 -63.4145 804.778 -67.4152 800.378Z" fill="#3BA9F7"/>
<path d="M367.504 590.679C374.584 583.753 382.002 579.328 388.184 576.444C387.772 576.805 387.485 577.204 387.57 577.473C388.276 577.923 390.105 578.161 392.493 577.273C400.023 574.473 413.829 569.084 413.434 566.835C413.232 565.687 412.753 564.103 411.104 563.607C406.695 562.279 403.173 563.729 400.784 561.634C396.374 557.767 393.777 550.744 390.827 549.814C387.087 548.635 381.794 546.261 377.351 546.608C374.373 546.841 369.884 546.738 363.77 547.787C352.676 549.689 346.885 548.727 344.791 552.517C343.564 554.738 342.982 556.752 341.79 557.829C338.528 560.78 336.696 563.109 329.721 565.453C325.585 566.843 317.954 568.211 311.749 570.267C308.115 571.47 294.013 574.742 288.737 580.152C287.73 581.184 286.45 582.521 286.063 584.132C285.895 584.834 286.039 585.383 286.277 585.897C286.516 586.411 286.788 586.983 287.36 587.156C288.575 587.525 294.434 588.223 292.542 589.474C291.781 589.977 285.845 590.494 283.337 595.432C282.446 597.185 281.934 598.969 283.055 601.123C286.992 608.685 289.848 613.281 293.096 613.92C295.453 614.384 297.716 614.95 300.216 613.422C311.405 606.586 317.405 596.977 320.205 597.642C322.812 598.261 328.556 601.563 342.715 602.096C349.024 602.333 353.534 602.459 356.237 601.277C360.443 599.438 361.497 596.556 367.504 590.679Z" fill="#3BA9F7"/>
<path d="M124.291 569.77C154.904 561.649 167.394 562.911 196.133 575.133C210.078 581.063 231.186 582.434 246.276 581.966L246.985 587.11C242.884 586.353 239.117 586.41 235.079 585.997C227.613 585.233 219.43 584.587 212.159 582.949C189.472 577.841 171.488 564.744 147.126 567.466C142.172 568.019 137.116 568.702 132.337 570.298C130.439 570.559 126.611 571.84 124.63 572.49C104.72 579.025 84.4305 592.452 68.0987 605.54C58.4619 613.263 52.0574 620.005 41.4064 627.216C27.5259 636.614 14.7312 641.937 -0.486942 648.419C-5.79197 650.678 -18.1023 657.376 -23.143 658.368C-25.5262 657.759 -26.5243 659.225 -29.5258 659.513C-29.4828 658.077 -26.3509 657.552 -25.0844 655.749C-21.877 654.024 -18.3442 653.306 -15.0732 651.732C-9.45621 649.03 -3.86713 646.351 1.7975 643.742C11.6476 639.203 23.3339 634.235 32.6005 628.648C41.3866 623.35 50.9181 614.157 59.0498 607.633C79.0589 591.577 99.9499 578.174 124.291 569.77Z" fill="#BCE3FF"/>
<path d="M105.212 684.031C108.281 683.144 108.808 680.783 114 680C115.3 679.804 118.5 679.5 119.055 678.716C120.571 676.575 124.409 678.226 126.825 677.484C129.336 676.25 133.074 675.524 133.316 672.693C133.56 669.84 133.194 667.092 134.007 665.761C135.539 663.253 138.491 661.478 141.751 660.549C146.769 659.118 151.489 657.889 155.641 656.112C163.127 652.909 167.421 650.924 171.101 651.002C178.274 651.154 181.811 651.618 184.92 651.791C189.416 652.04 198.475 652.439 203.429 652.677C206.53 652.826 209.622 652.64 212.984 653.764C217.867 655.396 233.334 653.325 240.694 657.013C241.97 657.653 242.971 658.533 243.792 659.577C245.615 661.894 248.031 664.503 247.23 669.923C246.684 673.621 245.129 678.374 240.843 682.15C231.318 690.54 228.264 695.155 218.909 695.758C209.812 696.344 203.251 696.191 200.386 695.898C193.102 695.154 182.058 693.985 175.035 694.327C167.995 694.67 155.354 695.782 146.835 702.066C142.687 705.126 137.645 711.91 125.895 712.1C113.994 712.292 104.447 712.206 100.951 710.613C98.7966 709.63 97.1514 708.394 96.7806 706.522C96.0466 702.816 95.0531 696.398 97.9252 692.541C100.093 689.63 101.802 685.018 105.212 684.031Z" fill="#3BA9F7"/>
<path d="M36.0468 534.938C45.1444 530.396 55.0129 530.501 64.4966 527.362C67.8595 526.248 75.0981 521.404 78.0483 521.607L78.2818 521.97C77.5259 523.395 75.9944 524.425 74.7508 525.437C73.4178 526.516 72.013 527.504 70.5462 528.395C61.0024 534.077 50.8162 533.332 40.5073 536.074C38.8928 536.503 32.5969 539.354 31.7903 539.16C31.7923 539.126 31.7926 539.092 31.7965 539.058C31.9591 537.688 34.9997 535.718 36.0468 534.938Z" fill="#BCE3FF"/>
<path d="M14.7431 818.372C15.3266 818.202 22.1721 813.157 23.843 812.167C37.4559 804.105 46.9772 800.046 62.4755 797.632C80.1397 794.882 89.2002 799.238 105.974 800.555C119.529 801.62 134.418 803.215 147.915 803.492C157.571 803.691 169.714 802.222 179.317 800.884C184.707 800.132 190.825 799.618 196.069 798.721C211.02 796.045 225.635 791.753 239.659 785.919C254.108 779.93 267.564 773.26 280.469 764.143C291.52 756.337 306.165 744.145 318.345 738.11C348.052 723.949 384.831 715.915 417.719 717.118C431.682 717.629 452.91 723.944 459.732 737.017C455.903 734.015 453.518 731.333 448.951 728.792C441.205 724.486 426.711 720.883 417.892 720.581C389.4 719.606 352.743 726.606 327.395 739.351C311.688 747.004 299.521 759.273 285.703 769.434C267.935 782.499 243.612 791.978 223.222 800.111C187.042 814.542 145.562 808.602 107.843 804.459C84.0424 801.845 78.8315 796.405 53.7475 803.719C42.0873 807.27 30.7955 813.881 20.1133 819.654C14.4089 822.737 8.66171 828.141 4 832.606V828.182C7.70221 824.514 10.7325 821.704 14.7431 818.372Z" fill="#BCE3FF"/>
<path d="M-178.251 743.934C-177.667 743.789 -170.817 739.513 -169.145 738.674C-155.524 731.839 -145.998 728.398 -130.49 726.353C-112.815 724.021 -103.75 727.713 -86.9655 728.831C-73.403 729.733 -58.505 731.085 -44.9999 731.32C-35.3385 731.488 -23.1889 730.244 -13.5799 729.109C-8.18692 728.471 -2.06517 728.036 3.18189 727.276C18.1415 725.007 32.7658 721.368 46.7973 716.423C61.2553 711.346 74.7196 705.692 87.6318 697.964C98.6892 691.346 113.342 681.011 125.53 675.895C155.255 663.891 192.055 657.08 224.963 658.1C238.934 658.534 260.174 663.887 267 674.968C263.169 672.424 260.782 670.15 256.213 667.996C248.463 664.346 233.96 661.292 225.136 661.036C196.627 660.209 159.948 666.143 134.585 676.947C118.869 683.435 106.695 693.835 92.8685 702.448C75.0899 713.524 50.7527 721.56 30.3508 728.454C-5.8504 740.687 -47.3545 735.652 -85.0956 732.14C-108.91 729.924 -114.124 725.312 -139.223 731.512C-150.89 734.522 -162.189 740.127 -172.877 745.021C-178.585 747.634 -184.336 752.215 -189 756V752.25C-185.296 749.14 -182.264 746.758 -178.251 743.934Z" fill="#BCE3FF"/>
<path d="M438 704V714.372V914H153.095H140C151.883 908.029 155.96 903.349 165.327 894.113C168.495 890.99 172.872 887.672 176.306 884.662C199.068 867.857 225.37 867.241 249.236 853.982C253.331 851.709 260.763 845.89 263.593 842.126C269.353 834.462 273.175 828.025 280.966 822.055C284.717 819.227 288.662 816.669 292.769 814.399C297.117 812.049 306.164 808.611 309.058 804.495C314.304 795.874 310.905 788.179 317.639 779.431C326.307 767.641 341.871 764.984 355.504 763.556C365.443 762.514 370.234 762.032 379.405 757.202C392.658 750.221 399.028 739.767 406.755 727.37C408.193 725.057 410.398 722.565 412.106 720.286C413.025 719.585 416.412 715.821 417.713 714.689C425.633 707.802 428.774 707.015 438 704Z" fill="#3BA9F7"/>
<path d="M383.318 563.873C356.534 570.361 341.986 589.122 321.22 604.604C309.853 612.941 297.655 620.08 284.82 625.909C277.844 629.161 265.148 634.038 257.668 634.98L257.251 634.577L257.053 634.662L257.054 635.021L256.7 634.93C258.224 634.128 266.636 631.475 269.488 630.302C280.383 625.815 290.885 620.426 300.883 614.192C312.293 606.888 323.105 598.692 333.22 589.679C337.399 585.927 346.518 576.429 350.854 573.669C359.866 567.934 373.582 561.438 383.854 558.14C387.493 556.972 392.398 556.299 396.168 555.586C416.609 553.202 428.126 554.964 446.989 561.708L447.48 569.007C430.893 562.265 414.915 558.228 397.085 560.958C392.975 561.588 387.175 562.331 383.318 563.873Z" fill="#BCE3FF"/>
<path d="M39.3181 668.044C45.7514 667.512 48.3062 671.897 43.2966 675.717C38.664 676.504 35.9014 673.867 37.4174 668.868C37.6367 668.144 38.5755 668.18 39.3181 668.044Z" fill="#BCE3FF"/>
<path d="M290.444 588.135C295.188 587.36 297.658 589.985 294.249 594.285C292.841 594.594 291.467 594.667 290.251 593.745C289.586 593.242 289.147 592.491 289.039 591.662C288.828 590.04 289.497 589.285 290.444 588.135Z" fill="#BCE3FF"/>
<path d="M165.845 626.083C168.622 625.606 170.068 627.223 168.072 629.871C167.248 630.062 166.444 630.106 165.732 629.539C165.343 629.229 165.086 628.767 165.023 628.256C164.899 627.256 165.291 626.791 165.845 626.083Z" fill="#BCE3FF"/>
<path d="M337.696 760.407C341.739 757.371 347.026 755.572 351.976 754.636C357.071 753.673 363.088 755.621 359.919 761.976C358.791 764.237 357.984 765.063 356.283 766.915C349.917 772.202 343.454 775.329 335.048 773.148C334.388 767.702 333.945 764.762 337.696 760.407Z" fill="#BCE3FF"/>
<rect y="837" width="30" height="15" fill="#3BA9F7"/>
<path d="M234.02 712.818C237.293 711.078 241.337 710.422 245.044 710.365C248.859 710.307 253.032 712.538 250.04 716.865C248.975 718.405 248.299 718.916 246.861 720.076C241.655 723.193 236.61 724.687 230.721 721.972C230.826 717.827 230.82 715.578 234.02 712.818Z" fill="#BCE3FF"/>
</g>
<defs>
<clipPath id="clip0_1775_422">
<rect width="393" height="852" fill="white"/>
</clipPath>
</defs>
</svg>
