<svg width="350" height="98" viewBox="0 0 350 98" fill="none" xmlns="http://www.w3.org/2000/svg">
<g clip-path="url(#clip0_1825_2297)">
<path d="M67.903 8.88965C69.1428 10.8372 69.0063 9.88233 70.4491 10.7001C69.3992 11.2103 65.8779 12.0787 65.4954 12.4298C65.1595 12.2011 65.0348 11.7215 64.8753 11.3242C64.5664 11.0691 64.5275 11.0002 64.123 10.9853L63.8738 11.3661L63.5942 11.4226L62.9911 10.7777C64.9326 10.0216 65.8298 9.45426 67.903 8.88965Z" fill="#EFEEF4" fill-opacity="0.0117647"/>
<path d="M78.1254 23.4423C78.9025 24.3692 81.8 25.1058 83.0806 25.5692L94.8301 29.7155C101.614 32.0856 108.344 34.6451 115.142 36.9752C119.36 38.4207 131.102 42.019 133.922 44.3694C135.886 46.0062 136.635 47.8892 136.41 50.4234C136.102 53.9094 134.404 58.424 133.418 61.8487L131.098 69.6915C130.278 72.5385 129.75 74.7557 128.653 77.5834C123.704 84.4572 116.771 80.6532 110.215 78.5101L102.222 75.9221L83.8581 69.971L74.2244 66.8422C72.7687 66.3637 66.6072 64.0521 65.4009 64.5181C63.5855 65.7047 62.4421 66.1973 60.2466 66.1211C57.9858 66.2545 56.5893 65.9089 54.6737 64.8195C49.8948 65.7742 47.2981 64.8098 44.387 60.8118C38.1491 61.741 29.2394 61.1849 23.2944 59.0156C20.7912 58.1023 19.0156 57.817 16.4018 57.4372C16.6677 56.7745 16.853 56.5598 17.2727 55.9873C18.3227 53.3906 19.2414 48.5378 19.8654 45.7415C20.9885 39.4376 21.1865 33.0037 20.4532 26.6427C20.1765 26.0315 20.1398 25.7543 20.0151 25.1129C22.1898 23.6817 28.2426 21.2889 30.906 19.881C34.0984 18.1935 38.7525 15.4103 41.717 13.9445C44.8757 12.3827 55.9081 13.5374 59.6044 14.0018C64.0038 14.6046 67.6435 15.559 71.5864 17.5531C75.2187 19.39 75.7319 20.2234 78.1254 23.4423Z" fill="#FEFAED"/>
<path d="M20.015 25.1129C22.1897 23.6818 28.2425 21.289 30.9059 19.8811C34.0983 18.1936 38.7524 15.4104 41.717 13.9446C44.8756 12.3828 55.908 13.5375 59.6043 14.0019C64.0037 14.6047 67.6435 15.5591 71.5864 17.5532C75.2186 19.3901 75.7318 20.2235 78.1253 23.4424C77.3112 23.7755 77.0912 23.6783 76.3065 23.3477C76.0587 23.2425 75.8125 23.1339 75.5679 23.0218L75.48 23.0054C73.3367 22.5896 69.9225 21.0192 67.55 20.3834C63.1479 19.2038 59.8317 17.8251 56.055 21.4145C54.4473 24.0296 54.2778 24.9343 53.5553 27.9106C54.6858 28.0311 54.6774 27.9128 55.7219 28.4283C56.2658 28.7189 57.3838 28.7404 58.0967 28.8397C58.1732 28.8693 58.2503 28.8975 58.3279 28.9245C59.0235 29.1657 59.1036 29.1118 59.6487 28.8471L59.5971 29.1566C60.0765 29.3663 60.5618 29.3508 60.9783 29.5247C62.6858 30.2376 65.1956 31.0213 66.629 32.189C68.8678 34.0126 69.1603 38.3066 66.8234 40.1614C63.6175 42.706 59.432 42.442 55.5926 42.4424C55.3596 42.4406 55.1047 42.5574 54.9171 42.6794C54.5393 42.2171 54.0318 42.3149 53.4401 42.3398C53.1352 42.3505 51.6651 42.4175 51.4278 42.3824C50.467 42.2619 50.0637 42.3087 49.149 42.7782C47.6601 43.1874 47.822 44.7277 46.8605 46.0186C46.2896 49.0531 45.7448 51.1002 46.7724 54.1111C47.3554 54.6572 47.5422 54.6354 48.3277 54.5683C48.7419 54.6539 49.3016 54.6382 49.7366 54.6438L50.2809 55.5392C50.9799 55.9015 51.7828 56.2935 52.4589 56.6793C52.6854 56.9206 52.9403 57.1802 53.1502 57.4313L54.3574 58.955C54.7183 58.8887 56.0424 59.2189 56.5047 59.3109C57.2044 59.0437 57.6324 59.0434 58.376 58.9846C60.3655 59.3126 61.7824 60.0283 62.3255 62.1453C62.5384 62.6025 62.7241 63.0956 63.0578 63.4613C63.8621 63.8281 64.9738 64.0729 65.4008 64.5182C63.5855 65.7047 62.442 66.1973 60.2465 66.1212C57.9857 66.2545 56.5892 65.9089 54.6736 64.8196C49.8947 65.7743 47.298 64.8099 44.3869 60.8119C38.149 61.7411 29.2394 61.185 23.2943 59.0157C20.7911 58.1023 19.0155 57.8171 16.4017 57.4373C16.6676 56.7745 16.853 56.5599 17.2726 55.9874C18.3226 53.3907 19.2413 48.5379 19.8653 45.7416C20.9884 39.4377 21.1865 33.0038 20.4531 26.6428C20.1764 26.0316 20.1398 25.7544 20.015 25.1129Z" fill="#FEFAED"/>
<path d="M38.1949 49.2652C41.4883 47.7181 43.9497 46.1017 46.8451 43.9415C47.1019 43.7498 47.3623 43.8154 47.6248 43.9136C47.6379 44.6014 47.0115 45.2473 46.8608 46.0185C46.2899 49.053 45.7451 51.1001 46.7727 54.111C47.3557 54.657 47.5425 54.6352 48.328 54.5681C48.7422 54.6537 49.3019 54.6381 49.7369 54.6436L50.2812 55.5391C50.9802 55.9014 51.7831 56.2934 52.4593 56.6791C52.6858 56.9204 52.9407 57.1801 53.1506 57.4312L54.3577 58.9548C54.7186 58.8885 56.0427 59.2187 56.505 59.3107C57.2047 59.0435 57.6327 59.0433 58.3763 58.9844C60.3658 59.3125 61.7827 60.0281 62.3258 62.1451C62.5387 62.6024 62.7244 63.0954 63.0581 63.4612C63.8624 63.828 64.9741 64.0727 65.4011 64.518C63.5858 65.7046 62.4423 66.1972 60.2468 66.121C57.986 66.2544 56.5895 65.9088 54.674 64.8194C49.895 65.7741 47.2983 64.8097 44.3872 60.8117C38.1493 61.7409 29.2397 61.1848 23.2946 59.0155C20.7915 58.1022 19.0158 57.8169 16.402 57.4372C16.6679 56.7744 16.8533 56.5597 17.2729 55.9872C17.8499 56.1852 18.0467 56.1893 18.6432 56.2406C19.5377 55.8626 20.4424 56.1379 20.9029 55.809C21.0772 55.4157 20.9341 53.4212 20.9348 52.7512C23.2051 53.7027 24.5041 54.9036 26.5131 55.9466C28.458 56.956 36.9877 59.4534 37.9484 56.4558C38.2769 55.4312 38.6417 50.3453 38.1949 49.2652Z" fill="#DFA688"/>
<path d="M38.1949 49.2651C41.4884 47.718 43.9498 46.1016 46.8451 43.9413C47.102 43.7497 47.3624 43.8153 47.6249 43.9134C47.6379 44.6012 47.0116 45.2471 46.8608 46.0183C46.29 49.0529 45.7452 51.0999 46.7728 54.1108C46.5584 54.3581 44.7479 55.2961 43.6849 56.3036C43.6595 57.079 43.6593 58.5504 43.4858 59.2511C42.6602 59.5353 40.678 59.5453 39.6864 59.593C35.0251 59.8169 29.3514 59.8858 24.995 58.0048C23.7607 57.4719 22.5588 56.52 21.1688 56.3872C20.428 56.3165 19.2903 56.372 18.6432 56.2405C19.5377 55.8624 20.4424 56.1378 20.903 55.8088C21.0773 55.4156 20.9342 53.4211 20.9349 52.7511C23.2051 53.7025 24.5042 54.9035 26.5132 55.9464C28.4581 56.9559 36.9877 59.4532 37.9485 56.4557C38.277 55.4311 38.6417 50.3452 38.1949 49.2651Z" fill="#FAD5BD"/>
<path d="M50.2812 55.539C50.9802 55.9013 51.7831 56.2933 52.4593 56.6791C52.6858 56.9204 52.9407 57.18 53.1506 57.4311L54.3577 58.9548C54.4197 59.6183 53.5987 61.1686 53.2814 61.8986C53.4858 62.452 53.6852 63.0109 53.9114 63.5553C50.7739 64.4135 47.8359 63.634 45.8446 60.866C45.0654 59.7827 44.2796 58.2245 45.0857 56.9509C45.5268 56.2595 46.271 56.0546 46.8645 55.4792C47.1986 55.6904 47.1883 55.7022 47.42 55.9996C48.3655 55.5791 49.2848 55.1673 50.2812 55.539Z" fill="#FAD5BD"/>
<path d="M50.2811 55.5391C50.9801 55.9014 51.783 56.2935 52.4592 56.6792C51.3656 58.0949 50.2463 59.767 48.3319 60.0578C47.1696 60.2344 46.0986 59.6612 45.9502 58.4297C45.8475 57.576 46.4274 56.9238 46.8949 56.2688L47.4199 55.9997C48.3654 55.5792 49.2847 55.1674 50.2811 55.5391Z" fill="#FEFAED"/>
<path d="M58.3756 58.9843C60.3652 59.3123 61.782 60.028 62.3251 62.145C62.538 62.6023 62.7238 63.0953 63.0575 63.4611C63.8617 63.8278 64.9734 64.0726 65.4004 64.5179C63.5851 65.7045 62.4416 66.197 60.2462 66.1209C60.0964 65.8251 60.071 65.5802 60.0086 65.2567C58.4174 65.2919 53.9162 64.4 55.0988 62.0643C55.2804 60.5414 55.2124 60.1855 56.5044 59.3106C57.204 59.0434 57.632 59.0432 58.3756 58.9843Z" fill="#FEFAED"/>
<path d="M62.3254 62.1451C62.5382 62.6024 62.724 63.0954 63.0577 63.4612C63.8619 63.8279 64.9736 64.0727 65.4007 64.518C63.5853 65.7046 62.4418 66.1972 60.2464 66.121C60.0967 65.8252 60.0712 65.5803 60.0088 65.2568C58.4176 65.292 53.9164 64.4002 55.099 62.0644C57.1607 64.0653 60.1468 63.8185 62.3254 62.1451Z" fill="#FAD5BD"/>
<path d="M63.0577 63.4612C63.8619 63.828 64.9736 64.0728 65.4007 64.5181C63.5853 65.7046 62.4418 66.1972 60.2464 66.1211C60.0967 65.8252 60.0712 65.5804 60.0088 65.2569C61.0603 65.1929 62.0278 65.2605 62.8464 64.6029C63.1481 64.1468 63.1069 64.017 63.0577 63.4612Z" fill="#E6AD93"/>
<path d="M19.8657 45.7414C20.3193 45.8838 20.736 46.1665 21.1806 46.3489C28.0199 49.1812 36.2631 47.1055 42.141 42.9639C45.4053 40.6638 47.4244 39.2351 51.6831 39.5921C52.9871 39.7015 58.2663 39.7934 59.1029 40.3741C59.2788 40.4978 59.4521 40.6253 59.6224 40.7566C56.3107 41.4068 51.6934 40.5517 48.2535 41.532C46.3596 42.0718 44.9136 43.3298 43.3638 44.4847C39.2991 47.511 34.5175 49.4638 29.4338 49.7482C28.2403 49.8149 25.438 49.0824 24.5854 49.586C25.3002 50.2751 27.6426 50.3264 28.6307 50.4778C32.0867 51.0073 34.9517 50.436 38.1949 49.2652C38.6417 50.3453 38.277 55.4312 37.9484 56.4558C36.9877 59.4534 28.4581 56.956 26.5132 55.9465C24.5041 54.9036 23.2051 53.7027 20.9349 52.7512C20.9342 53.4212 21.0773 55.4157 20.903 55.809C20.4424 56.1379 19.5377 55.8626 18.6432 56.2406C18.0467 56.1892 17.85 56.1852 17.273 55.9872C18.3229 53.3905 19.2416 48.5377 19.8657 45.7414Z" fill="#FDE7D1"/>
<path d="M59.6491 28.8469L59.5974 29.1564C60.0768 29.366 60.5621 29.3506 60.9787 29.5244C62.6861 30.2374 65.196 31.0211 66.6294 32.1887C68.8682 34.0124 69.1607 38.3063 66.8238 40.1611C63.6179 42.7058 59.4324 42.4418 55.593 42.4421C55.36 42.4404 55.1051 42.5572 54.9174 42.6792C54.5397 42.2169 54.0322 42.3147 53.4405 42.3396C53.1356 42.3503 51.6655 42.4173 51.4282 42.3822C50.4674 42.2616 50.0641 42.3085 49.1494 42.778C47.6605 43.1872 47.8224 44.7274 46.8608 46.0184C47.0116 45.2472 47.638 44.6013 47.6249 43.9135C47.3624 43.8154 47.102 43.7497 46.8451 43.9414C43.9498 46.1016 41.4884 47.718 38.1949 49.2652C34.9517 50.4359 32.0867 51.0072 28.6308 50.4778C27.6426 50.3263 25.3003 50.2751 24.5854 49.5859C25.4381 49.0823 28.2404 49.8149 29.4338 49.7481C34.5175 49.4638 39.2992 47.511 43.3638 44.4847C44.9136 43.3297 46.3596 42.0717 48.2535 41.5319C51.6935 40.5517 56.3108 41.4067 59.6224 40.7565C62.535 40.6523 65.6907 40.374 67.1451 37.4781C67.6448 32.9452 64.257 32.3998 60.7288 31.0299C58.3922 30.3667 56.2358 29.7562 53.8759 29.2857C51.2727 28.7667 42.5211 28.2379 40.6154 26.7884L40.5311 26.5295C41.3447 25.6099 43.6944 26.4878 44.7929 26.5842C45.7907 26.8574 48.5727 27.1042 49.7307 27.2332C51.046 27.422 52.2685 27.5713 53.5557 27.9103C54.6862 28.0309 54.6778 27.9126 55.7223 28.428C56.2662 28.7186 57.3841 28.7402 58.0971 28.8395C58.1736 28.869 58.2507 28.8972 58.3283 28.9242C59.0239 29.1655 59.104 29.1115 59.6491 28.8469Z" fill="#DFA688"/>
<path d="M20.015 25.1129C22.1897 23.6818 28.2425 21.289 30.9059 19.8811C34.0983 18.1936 38.7524 15.4104 41.717 13.9446C44.8756 12.3828 55.908 13.5375 59.6043 14.0019C64.0037 14.6047 67.6435 15.5591 71.5864 17.5532C75.2186 19.3901 75.7318 20.2235 78.1253 23.4424C77.3112 23.7755 77.0912 23.6783 76.3065 23.3477C76.0587 23.2425 75.8125 23.1339 75.5679 23.0218C74.5969 20.4954 72.3512 19.4108 69.9587 18.3462C68.1266 17.5306 66.2235 16.8857 64.2733 16.4189C58.3207 15.0159 52.006 14.7316 45.9075 14.7555C42.3179 14.7696 39.3717 17.169 36.3638 18.8362C32.5807 20.9651 28.7039 22.9227 24.7451 24.7031C23.6778 25.1958 21.4757 26.2795 20.4531 26.6428C20.1764 26.0316 20.1398 25.7544 20.015 25.1129Z" fill="#DFA688"/>
<path d="M60.7281 31.0297C64.2563 32.3997 67.6441 32.9451 67.1444 37.4779C66.7911 37.4727 64.4179 38.1097 63.8439 38.2276C63.1009 37.8606 62.0526 37.1773 61.3194 36.7303C60.7947 34.5266 61.3519 33.8772 61.5154 31.7733C61.5408 31.4446 61.0567 31.241 60.7281 31.0297Z" fill="#FAD5BD"/>
<path d="M56.0549 21.4144C54.4472 24.0294 54.2777 24.9341 53.5552 27.9105C52.268 27.5714 51.0455 27.4221 49.7302 27.2333C49.722 26.9587 49.6634 26.7704 49.5991 26.5068C49.5618 25.7375 49.2591 23.3097 49.4298 22.7775C50.4053 22.7192 51.0772 24.5458 52.6308 23.5477C53.7298 22.8418 54.8131 21.7154 56.0549 21.4144Z" fill="#FAD5BD"/>
<path d="M49.5989 26.5068C49.6632 26.7704 49.7217 26.9588 49.73 27.2333C48.572 27.1043 45.79 26.8576 44.7922 26.5843C44.4577 25.961 44.0119 26.048 43.3275 25.5125L43.3178 25.2134C44.5822 24.3043 48.094 26.3463 49.5989 26.5068Z" fill="#FAD5BD"/>
<path d="M78.1256 23.4423C78.9027 24.3692 81.8002 25.1057 83.0808 25.5692L94.8303 29.7154C101.614 32.0856 108.344 34.6451 115.142 36.9751C119.36 38.4207 131.102 42.0189 133.922 44.3694C135.886 46.0062 136.635 47.8892 136.41 50.4234C136.103 53.9094 134.404 58.424 133.418 61.8487L131.098 69.6915C130.278 72.5385 129.751 74.7557 128.653 77.5834C123.704 84.4571 116.771 80.6532 110.215 78.5101L102.222 75.9221L83.8583 69.971L74.2246 66.8422C72.7689 66.3637 66.6074 64.0521 65.4011 64.5181C64.974 64.0728 63.8623 63.828 63.0581 63.4612C62.7244 63.0954 62.5387 62.6024 62.3258 62.1452C61.7826 60.0282 60.3658 59.3125 58.3763 58.9844C57.6327 59.0433 57.2046 59.0436 56.505 59.3108C56.0427 59.2188 54.7185 58.8886 54.3577 58.9549L53.1505 57.4312C52.9406 57.1801 52.6857 56.9205 52.4592 56.6792C51.7831 56.2934 50.9802 55.9014 50.2812 55.5391L49.7368 54.6437C49.3019 54.6381 48.7421 54.6538 48.3279 54.5682C47.5424 54.6353 47.3557 54.6571 46.7727 54.111C45.7451 51.1001 46.2899 49.053 46.8607 46.0185C47.8223 44.7275 47.6604 43.1873 49.1493 42.7781C50.064 42.3086 50.4673 42.2618 51.4281 42.3823C51.6653 42.4174 53.1355 42.3504 53.4404 42.3397C54.0321 42.3148 54.5396 42.217 54.9173 42.6793C51.7926 52.9045 54.0824 54.0064 63.3458 56.9159C64.4779 57.2713 65.431 57.3477 66.448 58.0521C66.9853 58.2401 67.5583 58.3643 68.1063 58.5287C75.8239 60.8429 83.3868 63.7075 91.1204 65.9862C93.1305 66.5784 95.2015 67.3347 97.2063 67.9843C99.121 68.6047 101.586 69.1946 103.317 70.099C105.042 70.4286 106.014 70.8897 107.659 71.4037L115.543 73.9172C121.973 76.0385 124.375 75.1711 126.186 68.3657C127.827 62.1984 130.079 56.0548 131.343 49.8147C131.479 49.1435 130.607 47.4918 130.308 46.9242C128.633 46.0826 126.872 45.1541 125.141 44.4598C121.605 43.7444 117.279 41.7279 113.733 40.5514C100.953 36.3111 88.2876 31.6627 75.4998 27.408C71.9199 26.2169 68.0861 24.4907 64.4484 23.6741C63.2533 23.4057 61.7384 24.0659 60.6782 24.6216C59.4842 27.002 59.6527 26.4163 59.649 28.847C59.1039 29.1117 59.0237 29.1656 58.3281 28.9244C58.2506 28.8974 58.1735 28.8692 58.097 28.8396C57.384 28.7403 56.2661 28.7187 55.7222 28.4282C54.6777 27.9127 54.6861 28.031 53.5556 27.9105C54.278 24.9342 54.4476 24.0295 56.0553 21.4144C59.832 17.8249 63.1482 19.2037 67.5503 20.3833C69.9228 21.0191 73.3369 22.5895 75.4803 23.0053L75.5682 23.0217C75.8127 23.1338 76.059 23.2424 76.3068 23.3476C77.0915 23.6782 77.3115 23.7754 78.1256 23.4423Z" fill="#FE9CC7"/>
<path d="M78.1256 23.4423C78.9027 24.3692 81.8002 25.1057 83.0808 25.5692L94.8303 29.7154C101.614 32.0856 108.344 34.6451 115.142 36.9751C119.36 38.4207 131.102 42.0189 133.922 44.3694C135.886 46.0062 136.635 47.8892 136.41 50.4234C136.103 53.9094 134.404 58.424 133.418 61.8487L131.098 69.6915C130.278 72.5385 129.751 74.7557 128.653 77.5834C123.704 84.4571 116.771 80.6532 110.215 78.5101L102.222 75.9221L83.8583 69.971L74.2246 66.8422C72.7689 66.3637 66.6074 64.0521 65.4011 64.5181C64.974 64.0728 63.8623 63.828 63.0581 63.4612C62.7244 63.0954 62.5387 62.6024 62.3258 62.1452C61.7826 60.0282 60.3658 59.3125 58.3763 58.9844L58.1198 58.577C60.9357 58.894 61.7305 59.8954 64.3476 60.931C67.7774 62.2883 71.1625 63.3129 74.6554 64.4163L83.0193 67.1416C85.9113 68.0563 88.94 69.3862 91.8231 70.1873C101.046 72.715 109.964 76.3601 119.204 78.7384C123.634 79.8785 127.144 77.9111 128.78 73.7417C129.042 71.2878 131.059 66.3351 131.685 63.5908C132.71 58.9666 134.822 54.2987 135.21 49.5915C135.296 48.544 134.444 46.1198 133.709 45.5429C130.733 43.2089 125.046 41.5795 121.791 40.3751C113.54 37.3223 105.323 34.5699 97.0844 31.6798L76.2153 24.3461C73.4351 23.3694 70.3588 22.0892 67.6061 21.2405C65.1172 20.4729 61.575 19.4327 59.2167 20.8283C56.7696 22.2765 56.4034 25.8628 55.7222 28.4282C54.6777 27.9127 54.6861 28.031 53.5556 27.9105C54.278 24.9342 54.4476 24.0295 56.0553 21.4144C59.832 17.8249 63.1482 19.2037 67.5503 20.3833C69.9228 21.0191 73.3369 22.5895 75.4803 23.0053L75.5682 23.0217C75.8127 23.1338 76.059 23.2424 76.3068 23.3476C77.0915 23.6782 77.3115 23.7754 78.1256 23.4423Z" fill="#D46A99"/>
<path d="M58.0969 28.8396C58.9782 25.2692 59.7071 21.4274 64.443 22.777C69.2426 24.145 74.1896 25.984 78.878 27.6414L101.26 35.468C107.618 37.7023 114.172 39.6739 120.482 42.0885C121.966 42.6562 123.441 43.0372 124.89 43.7233C124.965 44.0395 124.957 44.2566 125.141 44.4598C121.604 43.7444 117.279 41.7279 113.732 40.5513C100.953 36.3111 88.2875 31.6627 75.4997 27.408C71.9198 26.2168 68.086 24.4906 64.4483 23.6741C63.2532 23.4057 61.7384 24.0658 60.6781 24.6215C59.4841 27.002 59.6526 26.4163 59.6489 28.847C59.1038 29.1116 59.0237 29.1656 58.3281 28.9243C58.2505 28.8973 58.1734 28.8691 58.0969 28.8396Z" fill="#D46A99"/>
<path d="M49.1486 42.778C50.0633 42.3085 50.4666 42.2616 51.4274 42.3822C50.3409 44.0956 49.8732 47.2198 49.5725 49.2437C49.2942 51.1182 49.944 53.6326 51.6262 54.7107C50.9175 54.6526 50.4466 54.6328 49.7362 54.6435C49.3012 54.638 48.7415 54.6536 48.3273 54.568C47.5418 54.6352 47.355 54.6569 46.772 54.1109C45.7444 51.1 46.2893 49.0529 46.8601 46.0184C47.8216 44.7274 47.6597 43.1872 49.1486 42.778Z" fill="#FD81BE"/>
<path d="M46.8599 46.0185C47.8214 44.7275 47.6595 43.1873 49.1484 42.7781C49.1036 47.1012 46.4328 49.1364 48.3271 54.5681C47.5416 54.6353 47.3548 54.657 46.7719 54.111C45.7443 51.1001 46.2891 49.053 46.8599 46.0185Z" fill="#D46A99"/>
<path d="M66.4475 58.052C66.9848 58.24 67.5578 58.3642 68.1058 58.5285C75.8234 60.8428 83.3864 63.7073 91.1199 65.986C93.13 66.5783 95.201 67.3346 97.2058 67.9842C99.1206 68.6046 101.585 69.1944 103.317 70.0989L103.191 70.7711C101.971 70.5113 99.122 69.4221 97.8066 68.9837L87.5561 65.6302C84.0396 64.4779 80.4931 63.5087 76.99 62.2076C74.3387 61.2232 71.1188 60.4915 68.5135 59.4365C67.3518 58.7465 67.5951 59.0963 66.4475 58.052Z" fill="#D46A99"/>
<path d="M53.4402 42.3395C54.0319 42.3145 54.5394 42.2168 54.9172 42.6791C51.7925 52.9042 54.0822 54.0062 63.3457 56.9156C64.4777 57.271 65.4308 57.3474 66.4478 58.0518C67.5955 59.0961 67.3521 58.7464 68.5138 59.4363C68.1749 59.4372 63.5949 57.8487 62.736 57.5925C52.3645 54.4995 50.8759 52.9181 53.4402 42.3395Z" fill="#D46A99"/>
<path d="M53.4859 56.5646C55.0214 57.4777 56.4511 57.9875 58.1196 58.577L58.376 58.9844C57.6324 59.0433 57.2044 59.0435 56.5048 59.3107C56.0425 59.2187 54.7183 58.8885 54.3575 58.9548L53.1503 57.4312L53.4859 56.5646Z" fill="#FD81BE"/>
<path d="M51.6265 54.7108C52.1835 55.2966 52.8728 56.0666 53.4857 56.5647L53.1501 57.4312C52.9402 57.1801 52.6853 56.9205 52.4588 56.6792C51.7826 56.2934 50.9798 55.9014 50.2807 55.5391L49.7364 54.6437C50.4468 54.6329 50.9177 54.6527 51.6265 54.7108Z" fill="#DF8990"/>
<path d="M7.97909 21.438C12.0482 21.7426 17.6294 21.2306 20.0147 25.1128C20.1395 25.7542 20.1761 26.0314 20.4529 26.6426C21.1862 33.0036 20.9882 39.4375 19.865 45.7414C19.241 48.5377 18.3223 53.3905 17.2723 55.9872C16.8527 56.5597 16.6673 56.7744 16.4014 57.4371C15.5032 58.0264 13.9865 59.0892 12.9561 59.2904C10.4042 59.7882 7.55582 59.0925 4.97525 58.9299C3.48612 58.8361 2.197 58.9364 0.859288 58.2573C-6.87225 54.6719 -15.1737 50.4099 -22.8828 46.6553L-78.7635 19.4705L-71.5717 4.70195L-70.8949 3.31227C-65.8231 4.84437 -60.7605 6.49916 -55.623 7.84834C-47.1385 9.99202 -38.5617 11.7529 -29.9186 13.1256C-19.9214 14.751 -9.81475 15.9083 0.126931 17.8153C3.3022 18.4245 5.51381 19.3526 7.97909 21.438Z" fill="#B6E1C6"/>
<path d="M7.97909 21.438C12.0482 21.7426 17.6294 21.2306 20.0147 25.1128C20.1395 25.7542 20.1761 26.0314 20.4529 26.6426C21.1862 33.0036 20.9882 39.4375 19.865 45.7414C19.241 48.5377 18.3223 53.3905 17.2723 55.9872C16.8527 56.5597 16.6673 56.7744 16.4014 57.4371C15.5032 58.0264 13.9865 59.0892 12.9561 59.2904C10.4042 59.7882 7.55582 59.0925 4.97525 58.9299C3.48612 58.8361 2.197 58.9364 0.859288 58.2573C2.57023 56.7475 3.82143 55.566 4.61736 53.3628C6.74832 47.4645 9.84199 28.7517 7.1525 23.3149C5.91363 20.8107 2.19164 19.9744 -0.294158 19.3482C-2.98665 18.6699 -5.86432 18.3678 -8.61326 17.9773C-13.3933 17.2981 -18.1843 16.6742 -22.9552 15.9341C-38.0833 13.5875 -53.0768 10.8087 -67.6902 6.14073C-69.0037 5.7212 -70.264 5.14744 -71.5717 4.70195L-70.8949 3.31227C-65.8231 4.84437 -60.7605 6.49916 -55.623 7.84834C-47.1385 9.99202 -38.5617 11.7529 -29.9186 13.1256C-19.9214 14.751 -9.81475 15.9083 0.126931 17.8153C3.3022 18.4245 5.51381 19.3526 7.97909 21.438Z" fill="#6AB39A"/>
<path d="M8.78337 22.7465C13.1594 23.5874 13.9129 22.4825 18.3167 24.8958C18.4932 25.4874 18.6378 26.5153 18.747 27.1583C18.8591 27.737 18.9693 28.2387 19.0115 28.8297C19.3528 31.82 19.2762 33.4778 19.047 36.5089C16.9203 36.1293 11.3932 35.3767 9.46651 35.8517C9.74282 32.504 9.65434 30.3759 9.48239 27.0447C9.4435 26.9397 9.33597 25.9422 9.31423 25.7606C9.21017 24.6675 9.0133 23.8116 8.78337 22.7465Z" fill="#B6E1C6"/>
<path d="M8.78337 22.7465C13.1594 23.5874 13.9129 22.4825 18.3167 24.8958C18.4932 25.4874 18.6378 26.5153 18.747 27.1583C15.8207 26.6075 11.7864 26.3082 9.31423 25.7606C9.21017 24.6675 9.0133 23.8116 8.78337 22.7465Z" fill="#B6E1C6"/>
<path d="M18.7471 27.1583C18.8592 27.7369 18.9694 28.2386 19.0116 28.8296C17.3817 28.2145 11.7415 27.5308 9.48249 27.0446C9.4436 26.9396 9.33608 25.9421 9.31434 25.7605C11.7865 26.3081 15.8208 26.6074 18.7471 27.1583Z" fill="#96CCB9"/>
<path d="M17.9338 46.6086C17.842 47.0464 17.7198 47.7427 17.5995 48.1503C17.1681 50.2491 17.203 50.8042 16.4325 52.8339C16.3071 53.3809 16.1615 53.7683 15.9733 54.2897C14.1462 59.8682 8.96425 57.5512 4.75689 56.9771C5.41032 55.6902 6.06197 53.9196 6.60285 52.906C6.8072 52.4457 7.01452 51.8155 7.19011 51.3304C7.39239 49.9906 7.76879 48.4406 8.08438 47.1204L8.46146 45.1131C9.78673 45.3164 17.2467 46.7184 17.9338 46.6086Z" fill="#B6E1C6"/>
<path d="M17.9338 46.6086C17.842 47.0464 17.7198 47.7427 17.5995 48.1503C15.9126 47.7187 10.0029 46.6925 8.40859 46.8646L8.08438 47.1204L8.46146 45.1131C9.78673 45.3164 17.2467 46.7185 17.9338 46.6086Z" fill="#96CCB9"/>
<path d="M19.0467 36.5089C19.1045 37.1398 19.0724 37.4595 19.0241 38.0766C18.8138 40.2728 18.4063 44.5302 17.9335 46.6087C17.2464 46.7185 9.7864 45.3165 8.46113 45.1132C8.41182 43.417 9.24308 38.8987 9.44906 36.8698L9.46622 35.8517C11.3929 35.3767 16.92 36.1294 19.0467 36.5089Z" fill="#B6E1C6"/>
<path d="M19.0467 36.5089C19.1045 37.1398 19.0724 37.4595 19.0241 38.0766C17.245 37.3893 11.736 37.5509 9.44906 36.8698L9.46622 35.8517C11.3929 35.3767 16.92 36.1294 19.0467 36.5089Z" fill="#96CCB9"/>
</g>
<g clip-path="url(#clip1_1825_2297)">
<path d="M235.34 19.2859C237.534 20.0053 236.823 19.3537 238.457 19.0709C237.969 20.1312 235.797 23.0359 235.724 23.55C235.32 23.5861 234.919 23.2944 234.544 23.0885C234.143 23.0871 234.069 23.0586 233.747 23.3036L233.796 23.756L233.616 23.9771L232.74 23.8609C233.762 22.045 234.096 21.0373 235.34 19.2859Z" fill="#EFEEF4" fill-opacity="0.0117647"/>
<path d="M252.474 24.054C253.663 24.2779 256.37 23.0096 257.654 22.5557L269.368 18.3095C276.116 15.8395 282.942 13.5501 289.676 11.04C293.854 9.48251 305.214 4.81745 308.885 4.84613C311.442 4.86624 313.215 5.84696 314.649 7.94873C316.622 10.8391 318.172 15.4065 319.581 18.6801L322.762 26.215C323.933 28.9363 324.932 30.9849 325.877 33.867C326.41 42.3204 318.637 43.7767 312.209 46.2775L304.388 49.3459L286.416 56.3917L276.983 60.0827C275.554 60.636 269.324 62.7566 268.687 63.8819C268.036 65.9506 267.465 67.0567 265.719 68.3902C264.056 69.9272 262.757 70.5457 260.585 70.9184C257.495 74.6875 254.876 75.5887 250.09 74.344C245.856 79.0186 238.615 84.2394 232.643 86.3327C230.128 87.2141 228.575 88.1198 226.313 89.4839C226.098 88.8028 226.105 88.5193 226.067 87.8105C225.232 85.137 222.864 80.8024 221.573 78.2446C218.443 72.6584 214.516 67.5585 209.915 63.1056C209.313 62.8086 209.109 62.6175 208.606 62.2007C209.379 59.715 212.541 54.0262 213.708 51.2484C215.106 47.919 216.939 42.8154 218.301 39.802C219.753 36.5912 229.015 30.4869 232.167 28.5016C235.951 26.1775 239.37 24.607 243.683 23.648C247.657 22.7646 248.582 23.0834 252.474 24.054Z" fill="#FEFAED"/>
<path d="M208.605 62.2008C209.379 59.7151 212.541 54.0263 213.708 51.2485C215.106 47.9191 216.939 42.8155 218.301 39.8021C219.753 36.5913 229.015 30.487 232.167 28.5017C235.951 26.1776 239.37 24.6071 243.683 23.6481C247.656 22.7647 248.582 23.0835 252.474 24.0541C252.056 24.828 251.824 24.8924 251.008 25.1345C250.749 25.2103 250.49 25.2825 250.23 25.3509L250.151 25.394C248.231 26.4319 244.595 27.3831 242.357 28.3962C238.206 30.2762 234.768 31.3134 234.124 36.4839C234.54 39.5254 234.982 40.3323 236.311 43.0917C237.262 42.4678 237.18 42.3818 238.315 42.1178C238.92 41.9975 239.798 41.3052 240.412 40.9297C240.49 40.9041 240.567 40.877 240.644 40.8487C241.335 40.594 241.363 40.5015 241.617 39.9512L241.773 40.2232C242.276 40.0812 242.642 39.7615 243.074 39.6317C244.847 39.1001 247.284 38.1141 249.133 38.1078C252.02 38.0978 254.97 41.2322 254.339 44.1484C253.475 48.149 250.071 50.5994 247.103 53.0347C246.922 53.1812 246.799 53.4332 246.731 53.6465C246.146 53.5287 245.815 53.9261 245.374 54.3207C245.145 54.5223 244.051 55.5065 243.845 55.6299C243.026 56.146 242.744 56.438 242.334 57.3812C241.443 58.6418 242.545 59.73 242.62 61.3379C244.103 64.0461 244.98 65.9743 247.684 67.6504C248.481 67.7029 248.612 67.5676 249.177 67.0175C249.551 66.821 249.974 66.4539 250.314 66.1823L251.303 66.5294C252.073 66.3662 252.942 66.1601 253.71 66.0295C254.038 66.0724 254.4 66.1114 254.721 66.1725L256.621 66.5849C256.858 66.3047 258.091 65.7202 258.507 65.4982C258.878 64.8478 259.209 64.5762 259.746 64.059C261.493 63.0509 263.042 62.7056 264.805 63.9979C265.259 64.2164 265.716 64.4797 266.206 64.5509C267.06 64.3244 268.075 63.8086 268.687 63.882C268.036 65.9507 267.465 67.0568 265.719 68.3903C264.056 69.9273 262.757 70.5458 260.585 70.9185C257.495 74.6876 254.876 75.5888 250.09 74.3441C245.856 79.0187 238.615 84.2395 232.643 86.3328C230.128 87.2142 228.575 88.1199 226.313 89.484C226.098 88.8029 226.105 88.5194 226.067 87.8106C225.231 85.1371 222.864 80.8025 221.573 78.2447C218.443 72.6585 214.516 67.5586 209.915 63.1057C209.313 62.8087 209.109 62.6176 208.605 62.2008Z" fill="#FEFAED"/>
<path d="M237.979 69.3443C239.544 66.0594 240.422 63.2485 241.29 59.7421C241.367 59.431 241.61 59.3166 241.875 59.2259C242.322 59.7494 242.247 60.6461 242.619 61.3379C244.103 64.0461 244.98 65.9743 247.684 67.6505C248.481 67.7029 248.611 67.5676 249.176 67.0175C249.551 66.821 249.974 66.4539 250.313 66.1823L251.302 66.5294C252.072 66.3662 252.942 66.1601 253.709 66.0295C254.037 66.0724 254.399 66.1115 254.721 66.1725L256.62 66.5849C256.857 66.3048 258.09 65.7202 258.506 65.4982C258.878 64.8478 259.208 64.5762 259.746 64.059C261.492 63.0509 263.042 62.7056 264.804 63.9979C265.259 64.2164 265.715 64.4797 266.205 64.5509C267.059 64.3244 268.074 63.8086 268.687 63.882C268.036 65.9507 267.464 67.0568 265.718 68.3904C264.055 69.9273 262.756 70.5458 260.584 70.9185C257.495 74.6876 254.876 75.5888 250.089 74.3441C245.856 79.0187 238.615 84.2395 232.642 86.3328C230.128 87.2143 228.574 88.1199 226.312 89.484C226.098 88.8029 226.105 88.5194 226.066 87.8106C226.638 87.5977 226.793 87.4761 227.286 87.1375C227.738 86.2779 228.612 85.917 228.76 85.3706C228.645 84.9559 227.269 83.5047 226.845 82.9863C229.204 82.282 230.97 82.3866 233.184 81.9188C235.328 81.4658 243.507 77.9869 242.349 75.06C241.953 74.0594 239.009 69.896 237.979 69.3443Z" fill="#DFA688"/>
<path d="M237.979 69.3441C239.544 66.0592 240.422 63.2484 241.29 59.7419C241.367 59.4308 241.61 59.3164 241.875 59.2258C242.322 59.7493 242.247 60.6459 242.62 61.3377C244.103 64.0459 244.98 65.9742 247.684 67.6503C247.675 67.9774 246.87 69.8509 246.687 71.304C247.16 71.9197 248.093 73.0574 248.403 73.7092C247.945 74.4525 246.419 75.7174 245.682 76.3832C242.22 79.5126 237.877 83.1643 233.316 84.4729C232.024 84.8437 230.491 84.87 229.332 85.649C228.715 86.0641 227.87 86.8286 227.286 87.1373C227.738 86.2777 228.612 85.9168 228.76 85.3704C228.645 84.9558 227.27 83.5045 226.845 82.9861C229.204 82.2818 230.97 82.3865 233.185 81.9186C235.329 81.4656 243.507 77.9867 242.349 75.0598C241.953 74.0593 239.009 69.8958 237.979 69.3441Z" fill="#FAD5BD"/>
<path d="M251.302 66.5293C252.072 66.366 252.941 66.1599 253.709 66.0293C254.037 66.0722 254.399 66.1113 254.72 66.1723L256.62 66.5847C257.089 67.0584 257.437 68.7777 257.655 69.5434C258.164 69.8416 258.672 70.1473 259.193 70.4247C257.311 73.0781 254.545 74.3387 251.25 73.4616C249.961 73.1183 248.365 72.4119 248.18 70.916C248.083 70.1016 248.528 69.4713 248.622 68.65C249.014 68.6014 249.014 68.6171 249.382 68.7C249.846 67.7752 250.296 66.8738 251.302 66.5293Z" fill="#FAD5BD"/>
<path d="M251.302 66.5293C252.072 66.3661 252.941 66.1599 253.709 66.0293C253.761 67.8174 253.956 69.8202 252.661 71.2591C251.874 72.1328 250.682 72.3689 249.787 71.5109C249.166 70.9159 249.201 70.0439 249.147 69.241L249.382 68.7C249.846 67.7753 250.296 66.8738 251.302 66.5293Z" fill="#FEFAED"/>
<path d="M259.746 64.0588C261.492 63.0507 263.042 62.7054 264.804 63.9977C265.259 64.2162 265.715 64.4795 266.205 64.5507C267.06 64.3242 268.074 63.8084 268.687 63.8818C268.036 65.9505 267.464 67.0566 265.719 68.3901C265.415 68.2564 265.24 68.0832 264.987 67.8727C263.779 68.909 259.733 71.0743 259.166 68.5184C258.341 67.2258 258.062 66.9937 258.506 65.498C258.878 64.8476 259.209 64.576 259.746 64.0588Z" fill="#FEFAED"/>
<path d="M264.804 63.9977C265.259 64.2162 265.715 64.4795 266.205 64.5507C267.059 64.3242 268.074 63.8084 268.687 63.8818C268.036 65.9506 267.464 67.0566 265.718 68.3902C265.415 68.2564 265.24 68.0832 264.986 67.8727C263.779 68.909 259.733 71.0743 259.166 68.5184C262.029 68.7579 264.181 66.6731 264.804 63.9977Z" fill="#FAD5BD"/>
<path d="M266.205 64.5508C267.059 64.3243 268.074 63.8085 268.686 63.882C268.035 65.9509 267.464 67.0571 265.718 68.3907C265.415 68.2569 265.24 68.0837 264.987 67.8731C265.759 67.1568 266.55 66.5953 266.765 65.5676C266.709 65.0235 266.595 64.9493 266.205 64.5508Z" fill="#E6AD93"/>
<path d="M221.572 78.2447C222.013 78.067 222.515 78.0213 222.974 77.8804C230.058 75.7324 235.115 68.8996 237.033 61.9696C238.098 58.121 238.753 55.7358 242.272 53.3109C243.349 52.5685 247.489 49.2912 248.504 49.2097C248.719 49.1938 248.934 49.1824 249.148 49.1759C247 51.7789 242.888 54.0463 240.85 56.9858C239.728 58.6044 239.408 60.494 238.943 62.3699C237.719 67.2876 235.261 71.8301 231.511 75.2741C230.631 76.0827 227.999 77.2936 227.66 78.2237C228.649 78.3032 230.493 76.8572 231.353 76.3476C234.361 74.565 236.213 72.3063 237.978 69.3442C239.009 69.8959 241.952 74.0593 242.348 75.0599C243.506 77.9868 235.328 81.4657 233.184 81.9187C230.969 82.3865 229.203 82.2819 226.845 82.9862C227.269 83.5046 228.645 84.9558 228.759 85.3705C228.612 85.9169 227.738 86.2778 227.286 87.1374C226.792 87.476 226.637 87.5976 226.066 87.8105C225.231 85.137 222.863 80.8024 221.572 78.2447Z" fill="#FDE7D1"/>
<path d="M241.616 39.9511L241.772 40.2232C242.275 40.0812 242.641 39.7615 243.073 39.6317C244.845 39.1 247.283 38.1141 249.132 38.1078C252.019 38.0978 254.969 41.2322 254.338 44.1483C253.474 48.149 250.07 50.5994 247.102 53.0347C246.921 53.1811 246.798 53.4332 246.73 53.6465C246.145 53.5286 245.814 53.9261 245.373 54.3206C245.144 54.5223 244.05 55.5065 243.844 55.6298C243.025 56.146 242.743 56.438 242.333 57.3811C241.442 58.6418 242.544 59.7299 242.619 61.3378C242.246 60.646 242.321 59.7494 241.875 59.2259C241.609 59.3165 241.366 59.4309 241.289 59.742C240.421 63.2485 239.543 66.0593 237.978 69.3442C236.213 72.3063 234.36 74.5651 231.353 76.3476C230.493 76.8572 228.649 78.3032 227.659 78.2237C227.999 77.2936 230.63 76.0827 231.511 75.2742C235.261 71.8301 237.719 67.2877 238.942 62.37C239.408 60.4941 239.728 58.6044 240.85 56.9859C242.888 54.0463 247 51.779 249.148 49.1759C251.334 47.2481 253.597 45.0315 252.885 41.8701C250.397 38.0487 247.431 39.7756 243.835 40.9541C241.608 41.9233 239.553 42.8189 237.43 43.9519C235.088 45.2016 227.987 50.3433 225.594 50.4313L225.365 50.2846C225.411 49.0576 227.784 48.246 228.694 47.6239C229.639 47.2023 231.946 45.6287 232.924 44.994C234.06 44.3057 235.1 43.6458 236.31 43.0916C237.261 42.4678 237.179 42.3817 238.314 42.1177C238.919 41.9974 239.797 41.3051 240.411 40.9297C240.489 40.9041 240.566 40.8769 240.643 40.8486C241.334 40.594 241.362 40.5015 241.616 39.9511Z" fill="#DFA688"/>
<path d="M208.605 62.2008C209.379 59.7151 212.541 54.0263 213.708 51.2485C215.106 47.9191 216.939 42.8155 218.301 39.8021C219.753 36.5913 229.015 30.487 232.167 28.5017C235.951 26.1776 239.37 24.6071 243.683 23.6481C247.656 22.7647 248.582 23.0835 252.474 24.0541C252.056 24.828 251.824 24.8924 251.008 25.1345C250.749 25.2103 250.49 25.2825 250.23 25.3509C247.877 24.0135 245.453 24.5993 242.928 25.2935C240.994 25.8249 239.114 26.5333 237.31 27.4092C231.818 30.0999 226.755 33.885 222.055 37.7713C219.289 40.0588 218.533 43.7824 217.265 46.9791C215.69 51.0245 213.934 54.9966 212.003 58.884C211.49 59.9418 210.475 62.1763 209.915 63.1057C209.313 62.8087 209.109 62.6176 208.605 62.2008Z" fill="#DFA688"/>
<path d="M243.835 40.9542C247.432 39.7756 250.397 38.0487 252.885 41.8702C252.609 42.0902 251.178 44.0878 250.809 44.543C250.002 44.7305 248.758 44.8671 247.908 44.9865C246.104 43.6155 246.123 42.76 244.915 41.0297C244.726 40.7595 244.223 40.9091 243.835 40.9542Z" fill="#FAD5BD"/>
<path d="M234.123 36.484C234.538 39.5255 234.981 40.3324 236.31 43.0918C235.1 43.646 234.06 44.3059 232.923 44.9941C232.743 44.7871 232.578 44.6786 232.361 44.5156C231.845 43.9445 230.071 42.2593 229.865 41.7397C230.582 41.0759 232.26 42.062 232.829 40.305C233.231 39.0622 233.354 37.5043 234.123 36.484Z" fill="#FAD5BD"/>
<path d="M232.362 44.5154C232.579 44.6784 232.743 44.7869 232.924 44.9939C231.947 45.6286 229.639 47.2022 228.695 47.6238C228.041 47.3541 227.751 47.704 226.882 47.724L226.685 47.499C227.086 45.9942 231.096 45.3457 232.362 44.5154Z" fill="#FAD5BD"/>
<path d="M252.473 24.0542C253.662 24.278 256.369 23.0097 257.653 22.5558L269.367 18.3097C276.115 15.8397 282.941 13.5503 289.675 11.0402C293.853 9.48265 305.213 4.81759 308.885 4.84627C311.441 4.86638 313.214 5.84709 314.648 7.94887C316.621 10.8392 318.171 15.4067 319.58 18.6802L322.761 26.2152C323.933 28.9364 324.931 30.985 325.876 33.8672C326.409 42.3205 318.636 43.7769 312.208 46.2776L304.387 49.3461L286.415 56.3919L276.982 60.0828C275.553 60.6361 269.324 62.7567 268.686 63.8821C268.074 63.8086 267.059 64.3245 266.205 64.5509C265.715 64.4798 265.258 64.2164 264.804 63.9979C263.041 62.7056 261.492 63.0509 259.746 64.0591C259.208 64.5762 258.877 64.8478 258.506 65.4982C258.09 65.7202 256.857 66.3048 256.62 66.5849L254.72 66.1725C254.399 66.1115 254.037 66.0724 253.709 66.0295C252.941 66.1601 252.072 66.3662 251.302 66.5294L250.313 66.1824C249.973 66.4539 249.55 66.821 249.176 67.0175C248.611 67.5676 248.481 67.7029 247.684 67.6505C244.979 65.9743 244.102 64.0461 242.619 61.3379C242.544 59.73 241.442 58.6419 242.333 57.3812C242.743 56.4381 243.025 56.146 243.844 55.6299C244.05 55.5065 245.144 54.5224 245.373 54.3207C245.815 53.9262 246.145 53.5287 246.73 53.6466C250.799 63.5338 253.269 62.9336 262.276 59.3079C263.377 58.8648 264.162 58.3193 265.395 58.2189C265.93 58.0235 266.451 57.7561 266.979 57.5356C274.414 54.4302 282.078 51.8483 289.502 48.7053C291.432 47.8883 293.513 47.1595 295.475 46.3903C297.349 45.6555 299.628 44.5484 301.541 44.1496C303.083 43.3108 304.127 43.0504 305.725 42.4044L313.414 39.348C319.732 36.9094 321.038 34.7159 318.122 28.3056C315.48 22.4965 313.324 16.3186 310.344 10.6918C310.024 10.0867 308.302 9.36301 307.711 9.11355C305.882 9.52523 303.931 9.92434 302.153 10.4855C298.965 12.1752 294.341 13.3596 290.853 14.6992C278.284 19.5257 265.543 23.9648 252.958 28.7856C249.435 30.1352 245.376 31.232 242.046 32.9079C240.951 33.4584 240.199 34.9295 239.731 36.0316C240.318 38.6292 240.077 38.0696 241.616 39.9512C241.362 40.5015 241.334 40.5941 240.644 40.8487C240.566 40.877 240.489 40.9041 240.411 40.9298C239.797 41.3052 238.919 41.9975 238.314 42.1178C237.18 42.3818 237.261 42.4679 236.311 43.0917C234.981 40.3324 234.539 39.5254 234.123 36.4839C234.767 31.3135 238.205 30.2762 242.357 28.3963C244.594 27.3832 248.23 26.4319 250.151 25.394L250.229 25.351C250.489 25.2826 250.748 25.2104 251.007 25.1346C251.823 24.8924 252.055 24.8281 252.473 24.0542Z" fill="#FE9CC7"/>
<path d="M252.473 24.0542C253.662 24.278 256.369 23.0097 257.653 22.5558L269.367 18.3097C276.115 15.8397 282.941 13.5503 289.675 11.0402C293.853 9.48265 305.213 4.81759 308.885 4.84627C311.441 4.86638 313.214 5.84709 314.648 7.94887C316.621 10.8392 318.171 15.4067 319.58 18.6802L322.761 26.2152C323.933 28.9364 324.931 30.985 325.876 33.8672C326.409 42.3205 318.636 43.7769 312.208 46.2776L304.387 49.3461L286.415 56.3919L276.982 60.0828C275.553 60.6361 269.324 62.7567 268.686 63.8821C268.074 63.8086 267.059 64.3245 266.205 64.5509C265.715 64.4798 265.258 64.2164 264.804 63.9979C263.041 62.7056 261.492 63.0509 259.746 64.0591L259.289 63.9067C261.667 62.3659 262.917 62.636 265.597 61.7768C269.109 60.6509 272.377 59.2963 275.777 57.9341L283.972 54.7365C286.788 53.6095 289.973 52.7169 292.71 51.5077C301.444 47.6126 310.651 44.7745 319.303 40.753C323.451 38.8254 324.917 35.0779 323.537 30.8168C322.184 28.7534 320.602 23.6447 319.346 21.126C317.206 16.9006 315.878 11.9524 313.192 8.06691C312.595 7.20244 310.398 5.86865 309.464 5.88906C305.683 5.97184 300.252 8.31887 296.972 9.4519C288.656 12.3248 280.558 15.4083 272.355 18.3988L251.569 25.9645C248.8 26.9727 245.61 27.934 242.943 29.0236C240.532 30.0087 237.134 31.451 236.196 34.0257C235.222 36.6974 237.214 39.7024 238.314 42.1178C237.18 42.3818 237.261 42.4679 236.311 43.0917C234.981 40.3324 234.539 39.5254 234.123 36.4839C234.767 31.3135 238.205 30.2762 242.357 28.3963C244.594 27.3832 248.23 26.4319 250.151 25.394L250.229 25.351C250.489 25.2826 250.748 25.2104 251.007 25.1346C251.823 24.8924 252.055 24.8281 252.473 24.0542Z" fill="#D46A99"/>
<path d="M240.412 40.9297C238.829 37.6103 236.955 34.1778 241.473 32.2176C246.051 30.2312 251.043 28.5154 255.718 26.8234L277.987 18.6795C284.32 16.3744 290.637 13.742 297.048 11.6066C298.555 11.1046 299.937 10.4635 301.492 10.0752C301.751 10.272 301.882 10.4452 302.153 10.4854C298.965 12.1751 294.342 13.3596 290.854 14.6991C278.284 19.5257 265.544 23.9647 252.959 28.7855C249.435 30.1351 245.376 31.2319 242.046 32.9078C240.952 33.4583 240.199 34.9294 239.732 36.0315C240.319 38.6292 240.077 38.0695 241.616 39.9511C241.363 40.5014 241.335 40.594 240.644 40.8486C240.567 40.8769 240.489 40.904 240.412 40.9297Z" fill="#D46A99"/>
<path d="M242.334 57.3811C242.743 56.4379 243.025 56.1459 243.845 55.6298C244.091 57.6436 245.711 60.3557 246.762 62.1112C247.736 63.737 249.833 65.2688 251.817 65.0354C251.233 65.44 250.856 65.7234 250.314 66.1823C249.974 66.4538 249.551 66.8209 249.176 67.0174C248.612 67.5675 248.481 67.7028 247.684 67.6504C244.98 65.9742 244.103 64.046 242.62 61.3378C242.544 59.7299 241.442 58.6417 242.334 57.3811Z" fill="#FD81BE"/>
<path d="M242.619 61.3379C242.544 59.7299 241.442 58.6418 242.334 57.3811C245.041 60.752 244.267 64.0193 249.176 67.0175C248.612 67.5676 248.481 67.7029 247.684 67.6504C244.98 65.9743 244.103 64.046 242.619 61.3379Z" fill="#D46A99"/>
<path d="M265.395 58.2188C265.929 58.0233 266.451 57.756 266.979 57.5355C274.414 54.43 282.078 51.8481 289.502 48.7051C291.432 47.8882 293.513 47.1594 295.475 46.3901C297.348 45.6554 299.628 44.5483 301.54 44.1495L301.869 44.7491C300.761 45.3219 297.868 46.2865 296.573 46.7819L286.521 50.6902C283.071 52.0296 279.715 53.5296 276.181 54.7454C273.507 55.6658 270.553 57.1422 267.87 57.9789C266.534 58.1823 266.944 58.2983 265.395 58.2188Z" fill="#D46A99"/>
<path d="M245.373 54.3206C245.815 53.926 246.145 53.5286 246.73 53.6464C250.799 63.5337 253.269 62.9335 262.276 59.3078C263.376 58.8647 264.162 58.3192 265.395 58.2188C266.944 58.2984 266.535 58.1823 267.87 57.9789C267.609 58.1946 263.06 59.8712 262.234 60.2179C252.253 64.4044 250.099 64.1258 245.373 54.3206Z" fill="#D46A99"/>
<path d="M254.431 65.2897C256.197 65.0218 257.626 64.5092 259.29 63.9067L259.746 64.0591C259.209 64.5762 258.878 64.8478 258.506 65.4982C258.091 65.7202 256.857 66.3048 256.62 66.5849L254.721 66.1725L254.431 65.2897Z" fill="#FD81BE"/>
<path d="M251.817 65.0355C252.619 65.1352 253.64 65.2935 254.43 65.2899L254.72 66.1729C254.399 66.1118 254.037 66.0727 253.709 66.0298C252.942 66.1603 252.072 66.3664 251.302 66.5296L250.314 66.1824C250.856 65.7235 251.232 65.4401 251.817 65.0355Z" fill="#DF8990"/>
<path d="M196.969 66.9929C200.308 64.6476 204.298 60.7121 208.605 62.2007C209.108 62.6175 209.312 62.8086 209.914 63.1057C214.515 67.5585 218.442 72.6585 221.572 78.2447C222.863 80.8024 225.231 85.137 226.066 87.8105C226.104 88.5193 226.097 88.8028 226.312 89.4839C225.991 90.5092 225.493 92.2928 224.824 93.1019C223.166 95.1052 220.523 96.3738 218.425 97.8848C217.214 98.7567 216.281 99.6518 214.816 99.9752C206.564 102.107 197.443 104.077 189.101 106.063L128.656 120.486L124.85 104.507L124.492 103.003C129.385 100.971 134.348 99.0395 139.176 96.8242C147.095 93.1005 154.843 89.0223 162.396 84.6019C171.156 79.5181 179.704 74.0029 188.6 69.1721C191.442 67.6293 193.74 66.9442 196.969 66.9929Z" fill="#B6E1C6"/>
<path d="M196.969 66.9929C200.308 64.6476 204.298 60.7121 208.605 62.2007C209.108 62.6175 209.312 62.8086 209.914 63.1057C214.515 67.5585 218.442 72.6585 221.572 78.2447C222.863 80.8024 225.231 85.137 226.066 87.8105C226.104 88.5193 226.097 88.8028 226.312 89.4839C225.991 90.5092 225.493 92.2928 224.824 93.1019C223.166 95.1052 220.523 96.3738 218.425 97.8848C217.214 98.7567 216.281 99.6518 214.816 99.9752C215.181 97.7228 215.399 96.0158 214.617 93.8076C212.524 87.8958 203.048 71.4659 197.52 68.9683C194.974 67.8179 191.566 69.5319 189.247 70.6243C186.735 71.8075 184.319 73.3991 181.946 74.8406C177.819 77.3471 173.719 79.9033 169.561 82.3569C156.377 90.1372 143.022 97.4982 128.763 103.157C127.482 103.666 126.143 104.022 124.85 104.507L124.492 103.003C129.385 100.971 134.348 99.0395 139.176 96.8242C147.095 93.1005 154.843 89.0223 162.396 84.6019C171.156 79.5181 179.704 74.0029 188.6 69.1721C191.442 67.6293 193.74 66.9442 196.969 66.9929Z" fill="#6AB39A"/>
<path d="M198.421 67.4948C202.337 65.3695 202.219 64.0374 207.154 63.1102C207.666 63.4556 208.43 64.1587 208.922 64.5866C209.376 64.9629 209.779 65.2809 210.187 65.7111C212.347 67.8065 213.339 69.1368 215.084 71.6257C213.199 72.6811 208.449 75.6046 207.26 77.1938C205.351 74.4303 203.933 72.8411 201.687 70.3746C201.59 70.3181 200.875 69.615 200.743 69.4885C199.969 68.7093 199.274 68.1725 198.421 67.4948Z" fill="#B6E1C6"/>
<path d="M198.421 67.4948C202.337 65.3695 202.219 64.0374 207.154 63.1102C207.666 63.4556 208.43 64.1587 208.922 64.5866C206.31 66.0166 203.001 68.344 200.743 69.4885C199.969 68.7093 199.274 68.1725 198.421 67.4948Z" fill="#B6E1C6"/>
<path d="M208.922 64.5865C209.376 64.9628 209.779 65.2808 210.187 65.7109C208.537 66.2691 203.742 69.3177 201.687 70.3745C201.591 70.318 200.875 69.6149 200.743 69.4883C203.002 68.3438 206.31 66.0165 208.922 64.5865Z" fill="#96CCB9"/>
<path d="M220.629 80.1402C220.836 80.5369 221.183 81.1528 221.349 81.5442C222.346 83.4405 222.725 83.8475 223.417 85.9054C223.667 86.4079 223.8 86.7998 223.985 87.3222C226.111 92.7941 220.635 94.2892 217.018 96.5137C216.707 95.1044 216.088 93.3221 215.863 92.1954C215.729 91.7099 215.49 91.0912 215.318 90.6048C214.624 89.4407 213.932 88.0036 213.339 86.7827L212.357 84.9916C213.511 84.3083 220.168 80.6609 220.629 80.1402Z" fill="#B6E1C6"/>
<path d="M220.629 80.1402C220.836 80.5369 221.183 81.1528 221.349 81.5442C219.771 82.2804 214.551 85.2351 213.427 86.3793L213.339 86.7827L212.357 84.9916C213.511 84.3083 220.168 80.6609 220.629 80.1402Z" fill="#96CCB9"/>
<path d="M215.085 71.6256C215.53 72.0767 215.707 72.3442 216.062 72.852C217.292 74.6834 219.677 78.2334 220.63 80.1402C220.168 80.661 213.511 84.3083 212.358 84.9916C211.244 83.7115 209.021 79.6909 207.893 77.9917L207.261 77.1937C208.449 75.6044 213.2 72.6809 215.085 71.6256Z" fill="#B6E1C6"/>
<path d="M215.085 71.6256C215.53 72.0767 215.707 72.3442 216.062 72.852C214.25 73.449 210.093 77.0678 207.893 77.9917L207.261 77.1937C208.449 75.6044 213.2 72.6809 215.085 71.6256Z" fill="#96CCB9"/>
<path d="M349.025 43.2386C348.819 36.7163 346.839 26.7491 344.104 18.5086C343.343 16.1505 342.749 14.2293 342.838 14.2423C342.906 14.252 343.769 15.1106 344.766 16.1492L346.578 18.0624L347.182 17.5301C347.523 17.2351 347.825 16.7282 347.877 16.3686C348.14 14.5482 344.338 9.41144 338.46 3.72276C335.885 1.21769 335.65 1.09214 334.609 1.6302C333.815 2.04337 332.467 3.91368 332.347 4.74523C332.283 5.19471 332.585 13.9104 332.764 17.1251C332.833 18.0757 332.963 19.2416 333.098 19.7427C333.264 20.5008 333.405 20.6359 333.909 20.6398C334.249 20.6659 334.66 20.6793 334.821 20.6795C334.956 20.699 335.116 20.5386 335.142 20.3589C335.168 20.1791 335.281 20.0347 335.416 20.0542C335.528 20.0704 335.824 19.7689 336.088 19.3711C336.464 18.8289 336.632 18.1419 336.801 16.4916C337.009 14.7321 337.109 14.3565 337.344 14.4821C337.533 14.6012 337.591 14.5177 337.54 14.2351C337.508 13.9781 337.588 14.0585 337.79 14.4088C338.29 15.3986 338.879 16.883 338.766 16.8668C338.699 16.857 338.449 16.3622 338.193 15.7517C337.351 13.6343 337.552 14.7874 338.49 17.1939C341.421 24.8663 344.021 35.1523 344.871 42.2952C345.049 43.7662 345.269 45.2661 345.403 45.6067C345.512 45.9665 345.534 46.2909 345.454 46.3711C345.354 46.4255 345.412 46.5027 345.546 46.5221C345.704 46.5448 345.761 46.9431 345.677 47.5274C345.602 48.0443 345.511 49.1553 345.477 50.0223C345.392 51.4094 345.44 51.554 345.912 51.6221C346.654 51.729 347.904 50.8541 348.31 49.9491C348.825 48.7616 349.121 46.0742 349.025 43.2386ZM346.829 15.0473C346.784 15.0409 346.63 14.8351 346.502 14.6102C346.262 14.2084 346.287 14.1892 346.605 14.5332C346.922 14.8773 347.009 15.0733 346.829 15.0473ZM346.307 14.0544C346.262 14.0479 346.07 13.7907 345.861 13.4854L345.509 12.9069L345.964 13.4084C346.378 13.8811 346.487 14.0803 346.307 14.0544ZM342.538 17.5944C342.285 17.2826 340.253 11.9652 340.334 11.8851C340.488 11.7697 341.023 12.9939 341.874 15.3649C342.622 17.4918 342.75 17.8773 342.538 17.5944Z" fill="#ED1C24"/>
</g>
<path d="M160.433 32.2474C161.849 38.6175 162.399 48.7647 161.791 57.4257C161.638 59.8989 161.537 61.9074 161.621 61.8726C161.684 61.8465 162.307 60.801 163.016 59.5477L164.298 57.2454L165.015 57.6114C165.418 57.8127 165.837 58.2289 165.976 58.5645C166.682 60.2631 164.271 66.1814 159.985 73.1489C158.11 76.2138 157.914 76.3934 156.772 76.13C155.901 75.9263 154.132 74.4482 153.81 73.6723C153.635 73.2529 151.77 64.7338 151.147 61.575C150.979 60.6368 150.816 59.4751 150.822 58.9563C150.795 58.1808 150.898 58.015 151.385 57.8863C151.709 57.7767 152.104 57.6619 152.259 57.6219C152.385 57.5696 152.58 57.6852 152.65 57.8529C152.72 58.0207 152.865 58.1327 152.99 58.0804C153.095 58.0369 153.456 58.2557 153.811 58.5757C154.31 59.0078 154.643 59.6318 155.215 61.1887C155.853 62.8419 156.043 63.181 156.238 63.0013C156.392 62.8391 156.469 62.9055 156.49 63.192C156.523 63.4488 156.58 63.3511 156.689 62.9617C156.928 61.879 157.131 60.2951 157.026 60.3386C156.963 60.3647 156.844 60.906 156.747 61.5609C156.456 63.8208 156.365 62.6539 156.677 60.0901C157.616 51.9308 157.587 41.3214 156.642 34.1903C156.45 32.7211 156.291 31.2135 156.337 30.8503C156.353 30.4748 156.294 30.155 156.197 30.0973C156.087 30.0692 156.123 29.9802 156.249 29.9279C156.396 29.867 156.353 29.4669 156.127 28.9217C155.926 28.4393 155.562 27.3857 155.315 26.5539C154.889 25.2312 154.9 25.0792 155.34 24.8964C156.032 24.609 157.46 25.147 158.078 25.9233C158.871 26.9461 159.824 29.4764 160.433 32.2474ZM165.288 60.1042C165.246 60.1216 165.148 60.359 165.08 60.6087C164.946 61.0575 164.976 61.0697 165.198 60.6578C165.421 60.2458 165.456 60.0345 165.288 60.1042ZM165.028 61.1956C164.986 61.213 164.864 61.5098 164.737 61.8572L164.539 62.505L164.856 61.9062C165.14 61.3459 165.196 61.1259 165.028 61.1956ZM160.5 58.6992C160.332 59.0641 159.681 64.719 159.778 64.7768C159.957 64.8504 160.171 63.5319 160.408 61.024C160.607 58.778 160.635 58.3728 160.5 58.6992Z" fill="#ED1C24"/>
<defs>
<clipPath id="clip0_1825_2297">
<rect width="168" height="82" fill="white" transform="translate(0 10)"/>
</clipPath>
<clipPath id="clip1_1825_2297">
<rect width="151.113" height="96.2597" fill="white" transform="matrix(0.999961 -0.00884639 0.00927685 0.999957 198 1.33679)"/>
</clipPath>
</defs>
</svg>
