<svg width="243" height="248" viewBox="0 0 243 248" fill="none" xmlns="http://www.w3.org/2000/svg">
<path d="M21.7436 -78.8455H25.7453H32.2155H51.5468H54.5793H81.5911H84.4794H134.542H136.906H150.742H153.547H182.411H207.445H210.449H217.39H221.191L220.954 57.8392C220.944 87.4368 220.251 117.775 222.42 147.349C223.244 158.575 230.553 176.765 233.428 188.312C233.756 189.628 237.903 194.592 239.114 196.165C243.037 201.26 242.198 210.539 242.252 216.987C242.316 224.483 243.088 237.618 237.216 243.089C234.969 245.142 232.123 246.419 229.096 246.733C222.81 247.406 208.066 247.015 201.185 247.002L149.86 246.971L56.6204 246.963C43.4499 246.95 30.2059 246.906 16.9712 247.088C-1.90058 247.574 0.0488841 228.379 0.0634803 215.299C0.076325 203.168 -0.657563 198.781 8.67177 190.132C9.85991 183.921 12.7062 177.205 14.8407 171.17C17.3939 164.048 19.2225 156.687 20.2997 149.199C23.4881 125.724 22.2994 90.0127 22.2731 65.4884C22.3426 17.3767 22.1663 -30.7354 21.7436 -78.8455Z" fill="#552E17"/>
<path d="M84.4794 -78.8456H134.542H136.906H150.742H153.547H182.411C184.653 -42.6386 184.66 0.328491 184.827 36.8868C184.895 50.921 185.158 64.9534 185.617 78.9806C185.718 82.6221 185.829 93.9781 186.412 97.1619L186.557 119.193C186.629 125.114 187.333 132.081 187.191 137.624C179.781 134.851 172.437 132.832 165.183 129.612C162.114 128.249 158.886 129.82 154.533 128.581L151.641 128.129L142.04 126.758L139.327 126.361C126.713 125.268 117.719 125.405 105.191 126.09L101.775 126.49C97.9184 126.813 90.9794 127.442 87.3823 128.786L84.1624 129.039C84.7812 116.482 87.0255 103.805 86.6852 90.9876C85.1753 34.2075 84.4315 -22.0292 84.4794 -78.8456Z" fill="#DDA26D"/>
<path d="M150.742 -78.8456H153.547C152.381 -47.564 151.799 -16.2443 152.108 15.0481C152.154 19.6612 152.153 24.2398 151.967 28.8517C151.541 31.4423 151.733 37.2902 151.077 38.2909L150.474 38.3937C147.859 -1.81486 149.18 -38.7421 150.742 -78.8456Z" fill="#BC7E54"/>
<path d="M139.327 126.361C140.26 123.937 139.904 108.388 139.934 104.941C140.185 89.3056 140.651 73.6739 141.331 58.051C141.569 51.7401 141.205 43.005 142.056 37.219L142.389 37.3819C143.11 45.0182 142.634 52.8063 142.907 60.4122C143.698 82.4756 142.117 104.793 142.04 126.758L139.327 126.361Z" fill="#BC7E54"/>
<path d="M101.775 126.49C107.954 121.842 98.815 61.6045 103.405 53.0393C104.343 56.884 103.996 65.1293 104.473 69.5911C106.636 89.7868 107.41 105.874 105.191 126.09L101.775 126.49Z" fill="#BC7E54"/>
<path d="M149.926 70.7628C151.568 76.4975 151.994 86.8685 152.433 93.2081C153.336 104.986 154.036 116.779 154.532 128.581L151.641 128.129L152.343 127.291C150.837 111.415 149.214 86.5457 149.926 70.7628Z" fill="#BC7E54"/>
<path d="M150.474 38.3942L151.077 38.2914C151.733 37.2907 151.541 31.4428 151.967 28.8522C152.017 32.7319 152.291 43.8095 151.168 47.1199C150.656 43.9075 150.589 41.655 150.474 38.3942Z" fill="#AD764F"/>
<path d="M32.2153 -78.8456H51.5466H54.5791H81.5909H84.4792C84.4313 -22.0292 85.1752 34.2074 86.685 90.9876C87.0254 103.804 84.7811 116.482 84.1622 129.039L82.8485 129.728L80.6533 129.346C78.1194 128.82 77.5139 128.623 75.3105 129.783C69.6016 132.79 62.7016 134.459 56.9209 136.871L53.8464 138.011C50.1769 139.557 46.1507 141.156 42.6102 142.915L41.8658 143.169C38.5203 145.321 33.839 147.534 31.2041 149.336C33.1688 120.801 32.5493 88.2885 32.4407 59.6432C31.8201 13.4828 31.7447 -32.6833 32.2153 -78.8456Z" fill="#DDA26D"/>
<path d="M81.591 -78.8456H84.4793C84.4314 -22.0292 85.1752 34.2075 86.6851 90.9877C87.0254 103.805 84.7811 116.482 84.1623 129.039L82.8486 129.728C83.649 125.971 84.1564 112.904 84.2498 108.508C84.4121 100.882 85.2879 90.4114 85.0269 82.9421C84.2352 60.3094 81.8689 36.4962 81.5326 13.9668C81.0737 -16.7698 81.4462 -48.0688 81.591 -78.8456Z" fill="#BC7E54"/>
<path d="M53.8463 138.011C53.4049 131.853 54.4944 123.826 54.5878 117.413C54.6771 111.293 53.7867 100.318 55.8921 94.9436C57.8597 97.8646 56.8951 131.1 56.9208 136.871L53.8463 138.011Z" fill="#BC7E54"/>
<path d="M41.8658 143.169C41.7187 138.975 41.0338 125.192 42.64 122.46C44.0295 129.26 43.1415 136.013 42.6102 142.915L41.8658 143.169Z" fill="#BC7E54"/>
<path d="M33.2393 -43.5925C35.4783 -40.984 36.1976 -33.4113 36.935 -29.8145C41.8779 -5.69711 40.2957 14.8419 39.1828 39.0521L35.9039 109.542L35.1187 109.573C32.8691 107.103 36.8889 32.1503 37.7127 21.0179C39.3673 -1.34853 34.7456 -21.6595 33.2393 -43.5925Z" fill="#BC7E54"/>
<path d="M52.8762 -10.1986C53.2026 -9.8156 53.5289 -9.43317 53.8547 -9.05016C56.0716 13.826 55.1497 57.4641 54.375 77.7836C51.6215 73.8519 52.638 -0.108373 52.8762 -10.1986Z" fill="#BC7E54"/>
<path d="M182.411 -78.8456H207.445H210.449H217.39L217.317 66.082L217.33 110.784C217.37 125.714 217.254 140.021 219.275 154.884C216.125 152.765 212.961 150.665 209.785 148.585L207.36 146.988C200.88 143.621 193.881 140.614 187.191 137.624C187.333 132.081 186.628 125.114 186.557 119.193L186.412 97.1619C185.829 93.9781 185.718 82.6221 185.617 78.9806C185.158 64.9534 184.894 50.9209 184.827 36.8868C184.66 0.328484 184.653 -42.6386 182.411 -78.8456Z" fill="#BC7E54"/>
<path d="M207.444 -78.8456H210.449C209.8 -60.2986 207.628 -45.4639 208.042 -26.4878C208.459 -7.37318 211.862 26.8754 208.737 44.7268C207.602 37.4566 208.029 26.4059 207.513 18.6646C206.317 0.728432 205.045 -18.6743 205.306 -36.6774C205.504 -50.3992 207.157 -64.6463 207.444 -78.8456Z" fill="#A36B45"/>
<path d="M207.36 146.988C207.565 124.795 206.529 113.933 200.974 93.0987C198.525 83.9105 196.981 52.071 198.712 43.1736C200.102 55.8164 199.962 72.2088 202.558 84.3379C207.679 108.257 211.422 123.537 209.785 148.584L207.36 146.988Z" fill="#A36B45"/>
<path d="M186.412 97.1621C187.411 78.3444 188.117 60.8 188.127 41.9251C188.13 37.688 187.92 17.0632 188.377 15.0402L189.063 15.0623C190.623 21.2466 189.341 114.551 187.897 119.384C186.85 119.523 187.282 119.653 186.557 119.193L186.412 97.1621Z" fill="#A36B45"/>
<path d="M80.0276 142.102C102.268 134.518 138.785 135.182 161.741 142.001C162.861 142.334 163.948 144.518 164.502 145.539L162.536 148.011C163.286 161.876 162.656 176.456 163.586 189.896C150.619 189.737 134.724 190.435 122.358 189.83L122.228 189.247C122.046 187.813 121.573 186.118 121.218 184.682C121.208 186.455 121.454 188.909 120.548 190.287C117.71 189.762 107.896 189.898 104.761 189.895L77.7605 189.8C77.8557 175.834 79.0058 161.283 79.4198 147.24C79.3316 144.803 79.3147 144.42 80.0276 142.102Z" fill="#A36B45"/>
<path d="M80.0281 142.102C102.269 134.518 138.786 135.182 161.741 142.001C162.862 142.334 163.948 144.518 164.502 145.539L162.537 148.011C157.361 145.483 146.106 144.209 139.768 143.046C140.576 150.66 142.224 171.539 140.684 178.309C139.985 177.447 138.279 146.276 138.081 142.701C132.626 142.292 127.162 142.011 121.694 141.858C121.679 145.899 121.816 152.279 121.196 156.075C119.994 153.846 120.014 144.853 120.026 141.842C114.203 141.834 108.605 142.098 102.795 142.393C103.611 154.32 102.955 168.967 102.16 180.802C100.874 171.004 101.027 153.314 100.646 142.62C93.3288 143.866 86.5485 145.18 79.4203 147.24C79.3322 144.803 79.3152 144.42 80.0281 142.102Z" fill="#7D553E"/>
<path d="M121.218 184.682C120.937 181.73 120.989 176.682 121.749 173.86C122.367 178.047 122.464 184.96 122.228 189.247C122.047 187.813 121.573 186.118 121.218 184.682Z" fill="#794C31"/>
<path d="M80.028 142.102C79.3152 144.421 79.3321 144.803 79.4202 147.24C79.0063 161.283 77.8561 175.834 77.7609 189.801L104.761 189.896C107.897 189.898 117.71 189.762 120.548 190.288C106.582 191.839 88.6515 189.864 74.3221 190.386C59.5658 190.36 44.7798 190.647 30.0295 190.151C27.1797 190.056 19.5873 190.923 17.7832 189.421L17.9601 187.669C19.373 184.013 20.5302 181.776 22.3752 178.29L22.9392 175.846C25.2588 173.126 25.5385 172.264 26.9683 168.96C32.1255 166.644 34.2244 165.225 39.8481 164.749L40.1277 163.066C40.5732 163.066 41.0187 163.063 41.4636 163.058C53.8791 162.894 62.721 160.09 71.3596 151.241L70.4243 149.318C72.7229 146.723 73.3628 145.962 75.1178 142.97L76.3439 144.014C77.4007 143.069 78.7033 142.659 80.028 142.102Z" fill="#794C31"/>
<path d="M26.9683 168.96C32.1254 166.644 34.2244 165.225 39.848 164.749L39.97 167.037C39.2069 173.919 39.4475 182.623 39.479 189.68C33.6755 189.822 27.3198 189.69 21.4719 189.686L22.3751 178.29L22.9391 175.846C25.2588 173.126 25.5384 172.264 26.9683 168.96Z" fill="#A36B45"/>
<path d="M41.8296 166.043C47.0212 165.584 48.882 165.873 53.9492 164.238C54.0946 172.769 54.5167 181.293 55.215 189.796C51.3692 189.818 44.3834 189.66 40.7933 189.976L39.4791 189.681C39.4475 182.623 39.207 173.919 39.9701 167.038L41.8296 166.043Z" fill="#A36B45"/>
<path d="M39.9701 167.037L41.8296 166.042C41.5856 174.235 41.7648 181.815 40.7933 189.975L39.4791 189.68C39.4475 182.622 39.207 173.918 39.9701 167.037Z" fill="#794C31"/>
<path d="M75.1179 142.97L76.344 144.014C74.7734 147.421 73.8264 148.37 71.3597 151.241L70.4243 149.318C72.7229 146.723 73.3628 145.962 75.1179 142.97Z" fill="#4C1E08"/>
<path d="M76.8828 149.311C78.3138 153.147 76.1185 183.047 75.9884 189.727L56.9006 189.74C56.956 181.505 56.4796 172.222 56.3389 163.849C65.8083 160.314 70.4137 157.49 76.8828 149.311Z" fill="#A36B45"/>
<path d="M25.7447 -78.8456H32.2149C31.7443 -32.6833 31.8196 13.4828 32.4403 59.6432C32.5489 88.2885 33.1683 120.801 31.2037 149.336C28.8478 150.852 26.036 152.947 23.6965 154.589C27.6276 122.701 26.4757 91.7829 26.4511 59.6543C26.5014 13.4869 26.2661 -32.6809 25.7447 -78.8456Z" fill="#EEBB8C"/>
<path d="M164.502 145.54C166.969 149.118 167.866 149.89 171.011 152.863C175.664 157.076 179.028 159.479 185.069 161.754C186.656 162.352 189.261 162.49 189.802 162.685C196.445 163.373 197.784 163.183 204.47 161.899L211.925 161.612C214.205 163.281 216.396 164.662 218.056 166.944L217.971 167.59L217.262 167.774C211.351 163.57 205.977 163.592 199.267 165.408C194.303 165.746 192.546 165.706 187.644 164.975C187.648 174.067 188.306 180.951 188.785 189.865C182.618 190.73 125.238 191.047 122.358 189.831C134.724 190.436 150.619 189.738 163.586 189.897C162.656 176.457 163.286 161.877 162.536 148.012L164.502 145.54Z" fill="#794C31"/>
<path d="M164.933 150.883C172.921 156.774 172.336 161.467 185.325 164.92C185.867 173.194 186.92 181.325 187.257 189.66C179.933 189.748 172.608 189.796 165.283 189.803C165.803 176.614 164.926 164.001 164.933 150.883Z" fill="#A36B45"/>
<path d="M89.0636 131.099C109.194 127.065 129.353 128.391 149.43 130.547C154.791 129.294 158.155 133.319 162.31 130.722C165.737 132.394 166.955 135.824 168.204 139.455C168.327 139.81 168.444 140.168 168.557 140.526L167.841 141.452L167.74 141.63C170.345 142.191 172.519 144.975 173.945 147.157C174.183 147.524 174.413 147.896 174.633 148.274L174.327 149.521L175.866 149.645C178 150.883 180.299 152.445 182.361 153.586C182.101 155.945 182.039 156.059 183.059 158.113C185.768 159.761 187.564 160.61 190.698 159.42C194.228 161.766 200.052 159.981 203.561 160.721L204.47 161.898C197.784 163.183 196.445 163.373 189.803 162.685C189.261 162.489 186.656 162.351 185.069 161.754C179.028 159.478 175.664 157.076 171.011 152.862C167.866 149.889 166.969 149.117 164.502 145.539C163.948 144.519 162.862 142.334 161.741 142.001C138.785 135.183 102.269 134.518 80.028 142.102C78.7032 142.659 77.4007 143.069 76.3439 144.014L75.1178 142.97L73.636 142.144C74.2193 140.898 75.7431 140.725 77.389 140.112C77.1198 139.999 83.7518 138.874 84.3613 138.658L83.8965 138.083C82.5712 138.369 82.1719 138.447 80.8244 138.527C76.108 132.805 85.3947 132.066 89.0636 131.099Z" fill="#4C1E08"/>
<path d="M89.0638 131.099C109.194 127.065 129.353 128.391 149.43 130.547L159.301 132.561C159.875 134.898 160.162 136.297 161.175 138.53C144.689 133.63 98.9203 132.109 83.8967 138.083C82.5713 138.369 82.172 138.447 80.8245 138.527C76.1081 132.805 85.3949 132.066 89.0638 131.099Z" fill="#E1AD84"/>
<path d="M162.31 130.721C165.737 132.394 166.955 135.824 168.205 139.455C168.327 139.81 168.444 140.168 168.557 140.526L167.841 141.452L164.059 141.164C162.998 136.774 160.32 135.252 162.31 130.721Z" fill="#E1AD84"/>
<path d="M167.74 141.63C170.346 142.191 172.519 144.975 173.945 147.157C174.183 147.524 174.413 147.896 174.633 148.274L174.327 149.521C169.764 150.367 165.391 146.749 166.13 142.44L167.74 141.63Z" fill="#E1AD84"/>
<path d="M175.866 149.645C178 150.883 180.299 152.445 182.361 153.586C182.101 155.946 182.039 156.059 183.059 158.114C178.543 156.546 176.076 154.773 172.388 151.851L172.28 151.601C173.625 150.954 174.579 150.405 175.866 149.645Z" fill="#DDA26D"/>
<path d="M199.268 165.408C205.977 163.592 211.351 163.569 217.262 167.773C217.768 173.67 219.473 184.931 222.535 190.038C218.223 189.668 210.826 189.853 206.275 189.851L205.457 190.181C202.39 189.523 192.374 189.826 188.785 189.864C188.307 180.95 187.649 174.067 187.645 164.974C192.547 165.706 194.303 165.746 199.268 165.408Z" fill="#A36B45"/>
<path d="M205.457 190.181C205.569 185.795 205.762 169.811 206.565 166.427L206.894 166.44L207.136 167.195L206.424 167.078L207.231 167.574C208.354 174.981 207.738 182.512 206.275 189.851L205.457 190.181Z" fill="#794C31"/>
<path d="M64.3123 150.19L66.6483 149.796L67.3208 148.459L66.6809 148.504C69.2189 144.666 74.5478 133.954 76.1843 131.954C78.2137 131.144 77.6106 131.048 79.4544 131.413C78.4741 134.659 78.1752 137.063 77.3893 140.112C75.7435 140.725 74.2196 140.898 73.6364 142.144L75.1181 142.97C73.3631 145.961 72.7232 146.723 70.4246 149.318L67.3541 152.305L64.3123 150.19Z" fill="#DDA26D"/>
<path d="M33.5145 161.132C35.656 161.95 37.9068 162.479 40.1277 163.065L39.8481 164.749C34.2245 165.224 32.1255 166.643 26.9684 168.96C25.5385 172.263 25.2588 173.126 22.9392 175.845C23.4822 172.987 23.9265 169.873 24.3953 166.981C27.6223 164.747 30.1217 163.082 33.5145 161.132Z" fill="#7D553E"/>
<path d="M190.184 156.208C194.937 157.058 203.948 156.679 206.164 158.513L206.232 159.486C205.238 159.99 204.61 160.321 203.56 160.72C200.052 159.981 194.228 161.765 190.698 159.42C190.154 157.753 189.74 157.531 190.184 156.208Z" fill="#DDA26D"/>
<path d="M217.262 167.774L217.971 167.59C219.443 173.098 222.462 180.957 223.503 185.341C224.07 187.094 224.695 188.032 224.339 189.629C223.527 189.88 223.356 190.023 222.535 190.039C219.472 184.931 217.768 173.67 217.262 167.774Z" fill="#7D553E"/>
<path d="M43.6208 159.167C44.6403 158.011 45.8938 156.878 47.4287 156.878C49.9293 156.877 55.4666 153.945 57.5147 154.516C57.301 155.721 57.099 156.927 56.9087 158.136C52.4294 159.962 49.9182 160.537 45.0489 160.792C44.7383 160.53 43.9332 159.533 43.6208 159.167Z" fill="#DDA26D"/>
<path d="M20.8718 173.563L20.4654 172.815C21.8713 170.745 21.8894 168.581 22.8954 167.569C23.5382 167.434 23.8366 167.295 24.3953 166.981C23.9265 169.873 23.4822 172.987 22.9392 175.845L22.3752 178.29C20.5302 181.776 19.373 184.013 17.9601 187.669L17.2969 186.724C17.4212 185.94 17.4487 185.138 17.5012 184.343C16.6062 184.29 16.0387 184.206 15.2014 183.88C18.8913 181.146 20.7603 178.273 20.8718 173.563Z" fill="#4C1E08"/>
<path d="M13.8691 182.355C15.5378 176.767 15.1524 175.5 20.8718 173.562C20.7603 178.272 18.8914 181.146 15.2015 183.88L13.8691 182.355Z" fill="#E1AD84"/>
<path d="M183.059 158.114C182.039 156.059 182.101 155.946 182.361 153.586L190.185 156.208C189.74 157.532 190.154 157.753 190.698 159.421C187.564 160.611 185.768 159.761 183.059 158.114Z" fill="#D29B74"/>
<path d="M84.1618 129.04L87.3818 128.786L87.8454 129.394C85.4574 129.956 83.0782 130.554 80.7089 131.187C84.1321 131.549 87.1996 130.623 89.0633 131.1C85.3944 132.066 76.1076 132.805 80.824 138.527C82.1715 138.447 82.5708 138.369 83.8962 138.084L84.3609 138.659C83.7514 138.874 77.1194 139.999 77.3886 140.112C78.1744 137.063 78.4734 134.659 79.4537 131.413L80.6529 129.347L82.8482 129.729L84.1618 129.04Z" fill="#4C1E08"/>
<path d="M56.908 158.136C59.4308 153.31 59.5563 152.598 64.3117 150.19L67.3536 152.305C64.1086 154.804 61.0037 157.303 56.908 158.136Z" fill="#E1AD84"/>
<path d="M13.8692 182.356L15.2015 183.88C16.0387 184.206 16.6062 184.291 17.5013 184.344C17.4487 185.138 17.4213 185.941 17.2969 186.724C16.3061 188.385 16.2156 188.475 14.878 189.89C12.8877 190.414 13.4955 190.564 11.8858 189.921C11.5472 188.434 13.5364 184.636 13.8692 182.356Z" fill="#D29B74"/>
<path d="M34.9548 159.337C37.2102 158.136 39.3985 156.271 41.6884 157.234C42.3388 158.184 42.6663 158.52 43.6198 159.167C43.9321 159.533 44.7372 160.53 45.0478 160.792C42.0439 161.402 37.8595 160.155 34.9548 159.337Z" fill="#BC7E54"/>
<path d="M10.2912 194.837C18.3916 193.473 30.5497 193.813 39.0096 193.816L86.3032 194.005L174.01 193.89C191.754 193.818 209.507 193.728 227.248 193.881C232.74 193.928 235.661 196.499 237.849 201.414C238.36 205.803 238.953 229.563 238.004 233.043L237.893 233.386C237.301 236.893 236.34 239.191 233.353 241.458C231.534 242.84 228.914 242.876 226.675 242.892C209.999 243.008 193.267 242.907 176.589 242.906L76.4286 242.925L32.8319 242.963C22.7722 242.966 8.08077 246.05 4.44105 234.708L4.04112 230.906L3.76904 225.878L4.16256 203.93L5.01031 200.918C6.67312 197.912 7.65573 197.061 10.2912 194.837Z" fill="#DDA26D"/>
<path d="M4.44141 234.709C8.03909 235.226 12.3678 236.758 16.0338 236.731C39.9494 236.557 63.5918 238.004 87.3855 239.108C104.485 239.901 123.415 237.273 140.729 237.308C169.778 237.365 199.09 240.433 227.954 236.892C231.173 236.467 235.331 233.34 237.894 233.386C237.302 236.894 236.341 239.191 233.354 241.459C231.534 242.84 228.915 242.876 226.675 242.892C209.999 243.009 193.268 242.908 176.589 242.906L76.4289 242.925L32.8323 242.963C22.7725 242.966 8.08113 246.051 4.44141 234.709Z" fill="#EEBB8C"/>
<path d="M237.849 201.414C238.36 205.803 238.953 229.563 238.004 233.043C237.799 227.372 238.059 228.249 232.774 228.132C203.087 227.47 173.591 230.381 143.966 227.258C141.995 227.05 133.538 227.399 132.566 226.609C141.101 223.935 172.732 225.152 183.655 224.854C201.286 224.375 220.167 223.914 237.757 224.822L237.692 205.533C232.762 205.905 195.176 204.731 193.161 203.396C196.118 199.628 230.346 204.061 237.849 201.414Z" fill="#BC7E54"/>
<path d="M5.0101 200.918C7.7939 201.963 13.5314 201.595 16.7309 201.792C38.1068 203.109 59.22 201.073 80.5457 200.259C91.6131 199.837 103.33 201.383 114.443 201.464C121.144 201.735 135.869 201.592 141.845 202.492L141.883 202.842C136.959 203.858 131.985 203.685 126.966 203.922C111.463 204.655 95.9155 203.715 80.4032 203.758C67.3075 203.794 54.2537 205.114 41.1989 205.673C28.8084 206.204 16.4898 205.209 4.16235 203.931L5.0101 200.918Z" fill="#BC7E54"/>
<path d="M3.76904 225.879C8.88882 230.698 65.5474 227.844 79.1604 230.203C67.3514 233.417 16.1799 234.048 4.04112 230.907L3.76904 225.879Z" fill="#BC7E54"/>
<path d="M153.594 212.577C163.765 211.927 176.917 212.363 187.224 212.575C184.851 213.614 182.129 213.784 179.52 214.133C175.055 214.4 151.076 216.437 148.877 214.662C150.294 213.347 151.717 213.134 153.594 212.577Z" fill="#BC7E54"/>
<path d="M99.3251 218.026C102.206 217.78 110.275 217.297 112.479 219.065L112.14 219.904L109.98 220.77C107.183 220.581 97.6962 220.249 96.0188 219.325C97.1234 218.083 97.2472 218.437 99.3251 218.026Z" fill="#AD764F"/>
<path d="M168.336 135.068C183.739 138.308 205.055 148.305 218.333 157.233C221.965 159.675 223.346 161.635 223.918 165.862C223.709 165.823 223.499 165.784 223.29 165.745C216.423 162.752 209.271 157.287 202.473 153.67C192.729 148.486 183.73 145.973 173.91 141.507C171.521 140.421 169.753 137.296 168.336 135.068Z" fill="#E1AD84"/>
<path d="M70.2132 135.552L70.7118 136.281C69.7228 138.961 68.6368 140.15 66.9285 142.377C49.2612 147.541 35.358 156.58 20.0547 166.08C17.1465 160.663 24.3402 157.401 28.2835 154.8C41.7074 145.944 55.0495 140.702 70.2132 135.552Z" fill="#E1AD84"/>
<path d="M226.579 184.509C224.564 181.536 222.402 177.602 222.028 173.974L222.838 174.098C226.278 175.714 230.321 181.481 228.56 184.993C227.978 184.861 227.115 184.699 226.579 184.509Z" fill="#E1AD84"/>
<path d="M225.257 184.603L226.58 184.509C228.761 186.121 231.153 187.179 230.913 190.083C227.309 191.028 226.204 187.218 225.257 184.603Z" fill="#EEBB8C"/>
<path d="M177.95 146.953C181.103 147.426 183.521 149.095 185.737 151.3C181.872 150.608 180.684 149.758 177.95 146.953Z" fill="#7D553E"/>
</svg>
