<svg width="216" height="220" viewBox="0 0 216 220" fill="none" xmlns="http://www.w3.org/2000/svg">
<g clip-path="url(#clip0_1846_411)">
<path d="M19.2845 -69.9287H22.8336H28.5721H45.7171H48.4066H72.3635H74.9252H119.326H121.423H133.694H136.182H161.781H183.984H186.648H192.804H196.175L195.965 51.2976C195.956 77.5478 195.342 104.455 197.265 130.684C197.996 140.641 204.479 156.773 207.028 167.015C207.319 168.182 210.997 172.584 212.071 173.979C215.551 178.498 214.807 186.728 214.854 192.447C214.911 199.095 215.596 210.744 210.388 215.597C208.395 217.417 205.871 218.55 203.186 218.828C197.611 219.425 184.535 219.079 178.432 219.067L132.912 219.039L50.2169 219.032C38.5359 219.021 26.7898 218.982 15.0518 219.143C-1.68563 219.574 0.0433553 202.55 0.0563007 190.949C0.0676927 180.19 -0.583196 176.3 7.69103 168.629C8.7448 163.12 11.2692 157.164 13.1623 151.811C15.4267 145.495 17.0485 138.966 18.0039 132.325C20.8317 111.505 19.7774 79.8324 19.7541 58.0817C19.8158 15.4112 19.6594 -27.2596 19.2845 -69.9287Z" fill="#552E17"/>
<path d="M74.9247 -69.9287H119.325H121.422H133.693H136.181H161.781C163.769 -37.8165 163.775 0.291162 163.923 32.7149C163.984 45.1619 164.217 57.6073 164.624 70.0481C164.714 73.2778 164.812 83.3495 165.329 86.1732L165.458 105.713C165.522 110.964 166.146 117.143 166.02 122.059C159.448 119.6 152.935 117.809 146.501 114.953C143.779 113.744 140.916 115.138 137.056 114.039L134.491 113.638L125.975 112.422L123.569 112.07C112.382 111.101 104.405 111.222 93.2939 111.83L90.2643 112.184C86.8438 112.471 80.6896 113.029 77.4993 114.221L74.6436 114.445C75.1924 103.308 77.1829 92.065 76.881 80.6972C75.5419 30.3386 74.8822 -19.538 74.9247 -69.9287Z" fill="#DDA26D"/>
<path d="M133.694 -69.9287H136.181C135.147 -42.1849 134.631 -14.4073 134.905 13.3461C134.946 17.4374 134.945 21.4982 134.78 25.5885C134.402 27.8861 134.572 33.0727 133.991 33.9602L133.456 34.0514C131.137 -1.60979 132.308 -34.3607 133.694 -69.9287Z" fill="#BC7E54"/>
<path d="M123.569 112.07C124.397 109.92 124.081 96.1299 124.108 93.0727C124.33 79.2056 124.744 65.3418 125.347 51.4858C125.558 45.8886 125.235 38.1414 125.99 33.0098L126.285 33.1542C126.925 39.9269 126.502 46.8342 126.744 53.5799C127.446 73.1481 126.044 92.9415 125.976 112.422L123.569 112.07Z" fill="#BC7E54"/>
<path d="M90.2646 112.185C95.7448 108.062 87.6394 54.6375 91.7103 47.041C92.5422 50.4509 92.2345 57.7637 92.6575 61.7209C94.5759 79.6326 95.2624 93.9004 93.2943 111.83L90.2646 112.185Z" fill="#BC7E54"/>
<path d="M132.97 62.7598C134.426 67.8459 134.804 77.044 135.193 82.6666C135.994 93.1125 136.615 103.572 137.055 114.039L134.491 113.638L135.113 112.895C133.778 98.8144 132.338 76.7577 132.97 62.7598Z" fill="#BC7E54"/>
<path d="M133.455 34.0527L133.99 33.9615C134.572 33.074 134.401 27.8875 134.779 25.5898C134.824 29.0308 135.067 38.8555 134.071 41.7916C133.616 38.9425 133.557 36.9447 133.455 34.0527Z" fill="#AD764F"/>
<path d="M28.5716 -69.9287H45.7167H48.4062H72.3631H74.9247C74.8823 -19.538 75.542 30.3385 76.8811 80.6971C77.183 92.0641 75.1925 103.308 74.6436 114.445L73.4785 115.056L71.5315 114.717C69.2842 114.251 68.7472 114.076 66.793 115.105C61.7297 117.772 55.6101 119.252 50.4832 121.391L47.7564 122.402C44.5019 123.774 40.931 125.192 37.7909 126.752L37.1307 126.977C34.1636 128.886 30.0117 130.848 27.6748 132.447C29.4173 107.139 28.8679 78.3033 28.7716 52.8977C28.2211 11.9578 28.1543 -28.9871 28.5716 -69.9287Z" fill="#DDA26D"/>
<path d="M72.3628 -69.9287H74.9244C74.8819 -19.538 75.5416 30.3386 76.8807 80.6972C77.1825 92.065 75.1921 103.308 74.6433 114.445L73.4781 115.056C74.188 111.724 74.638 100.135 74.7209 96.2361C74.8648 89.4726 75.6416 80.1861 75.4101 73.5616C74.7079 53.4885 72.6092 32.3685 72.311 12.387C71.904 -14.8734 72.2343 -42.6326 72.3628 -69.9287Z" fill="#BC7E54"/>
<path d="M47.7561 122.403C47.3646 116.941 48.3309 109.822 48.4137 104.134C48.4929 98.7064 47.7032 88.9726 49.5705 84.2061C51.3156 86.7967 50.4601 116.273 50.4828 121.392L47.7561 122.403Z" fill="#BC7E54"/>
<path d="M37.1308 126.977C37.0004 123.258 36.3929 111.033 37.8175 108.61C39.0498 114.641 38.2622 120.631 37.791 126.752L37.1308 126.977Z" fill="#BC7E54"/>
<path d="M29.4795 -38.6631C31.4653 -36.3496 32.1032 -29.6333 32.7572 -26.4433C37.1411 -5.05348 35.7378 13.1627 34.7508 34.6348L31.8427 97.1526L31.1463 97.1801C29.1512 94.9895 32.7163 28.5136 33.447 18.6402C34.9144 -1.19671 30.8154 -19.2106 29.4795 -38.6631Z" fill="#BC7E54"/>
<path d="M46.8957 -9.04492C47.1852 -8.70524 47.4746 -8.36606 47.7635 -8.02637C49.7297 12.2626 48.9121 50.9654 48.225 68.9869C45.7829 65.4999 46.6845 -0.0958518 46.8957 -9.04492Z" fill="#BC7E54"/>
<path d="M161.781 -69.9287H183.984H186.648H192.804L192.74 58.6083L192.751 98.2547C192.787 111.496 192.684 124.185 194.476 137.367C191.682 135.488 188.876 133.625 186.059 131.781L183.909 130.364C178.161 127.378 171.954 124.711 166.021 122.059C166.147 117.143 165.521 110.964 165.458 105.713L165.33 86.1732C164.813 83.3495 164.714 73.2778 164.625 70.0481C164.218 57.6073 163.983 45.1618 163.924 32.7149C163.776 0.291155 163.77 -37.8165 161.781 -69.9287Z" fill="#BC7E54"/>
<path d="M183.982 -69.9287H186.648C186.072 -53.4793 184.146 -40.3223 184.513 -23.4923C184.883 -6.53948 187.901 23.8357 185.129 39.6682C184.123 33.2203 184.501 23.4193 184.044 16.5535C182.983 0.645871 181.855 -16.5625 182.086 -32.5295C182.262 -44.6995 183.728 -57.3353 183.982 -69.9287Z" fill="#A36B45"/>
<path d="M183.908 130.365C184.09 110.681 183.171 101.048 178.244 82.5698C176.072 74.4208 174.703 46.1822 176.238 38.291C177.471 49.504 177.347 64.0425 179.649 74.7998C184.191 96.0138 187.511 109.566 186.059 131.78L183.908 130.365Z" fill="#A36B45"/>
<path d="M165.329 86.1732C166.215 69.4837 166.841 53.9234 166.85 37.1832C166.853 33.4253 166.667 15.1331 167.072 13.3389L167.68 13.3585C169.064 18.8434 167.927 101.595 166.646 105.882C165.718 106.005 166.101 106.12 165.458 105.712L165.329 86.1732Z" fill="#A36B45"/>
<path d="M70.9765 126.031C90.7016 119.305 123.089 119.894 143.449 125.942C144.442 126.237 145.406 128.174 145.897 129.08L144.154 131.272C144.819 143.569 144.26 156.5 145.085 168.42C133.584 168.279 119.487 168.898 108.52 168.361L108.404 167.844C108.243 166.573 107.823 165.069 107.508 163.796C107.5 165.368 107.718 167.545 106.914 168.767C104.397 168.301 95.6931 168.422 92.9127 168.419L68.9658 168.335C69.0503 155.948 70.0703 143.043 70.4375 130.588C70.3592 128.427 70.3443 128.087 70.9765 126.031Z" fill="#A36B45"/>
<path d="M70.9775 126.031C90.703 119.305 123.09 119.894 143.449 125.942C144.443 126.237 145.406 128.174 145.898 129.08L144.155 131.272C139.564 129.03 129.582 127.9 123.961 126.868C124.678 133.621 126.139 152.139 124.773 158.143C124.154 157.379 122.64 129.733 122.465 126.562C117.627 126.2 112.781 125.951 107.931 125.815C107.918 129.399 108.039 135.057 107.489 138.424C106.423 136.447 106.441 128.471 106.452 125.801C101.287 125.794 96.3224 126.028 91.1695 126.289C91.8932 136.867 91.3114 149.858 90.6063 160.354C89.4658 151.665 89.6015 135.975 89.2636 126.491C82.7739 127.596 76.7604 128.761 70.4384 130.588C70.3603 128.427 70.3452 128.087 70.9775 126.031Z" fill="#7D553E"/>
<path d="M107.509 163.795C107.26 161.177 107.306 156.7 107.98 154.197C108.528 157.911 108.614 164.042 108.405 167.844C108.244 166.572 107.824 165.069 107.509 163.795Z" fill="#794C31"/>
<path d="M70.9767 126.03C70.3445 128.087 70.3595 128.426 70.4376 130.587C70.0705 143.042 69.0504 155.947 68.966 168.335L92.9125 168.419C95.6938 168.421 104.397 168.3 106.914 168.767C94.5276 170.142 78.6249 168.391 65.9161 168.854C52.8287 168.831 39.7149 169.085 26.6328 168.645C24.1053 168.561 17.3715 169.33 15.7715 167.998L15.9284 166.444C17.1815 163.201 18.2078 161.217 19.8442 158.126L20.3444 155.958C22.4016 153.546 22.6497 152.781 23.9178 149.851C28.4917 147.797 30.3533 146.538 35.3409 146.116L35.5889 144.623C35.984 144.623 36.3792 144.621 36.7737 144.616C47.7851 144.471 55.627 141.984 63.2886 134.136L62.4591 132.43C64.4978 130.129 65.0653 129.454 66.6218 126.8L67.7093 127.726C68.6465 126.888 69.8018 126.524 70.9767 126.03Z" fill="#794C31"/>
<path d="M23.9178 149.851C28.4916 147.797 30.3532 146.538 35.3408 146.116L35.449 148.145C34.7722 154.249 34.9856 161.969 35.0136 168.228C29.8664 168.354 24.2295 168.237 19.043 168.233L19.844 158.126L20.3442 155.958C22.4016 153.546 22.6496 152.781 23.9178 149.851Z" fill="#A36B45"/>
<path d="M37.0984 147.265C41.7029 146.858 43.3532 147.114 47.8474 145.664C47.9763 153.23 48.3507 160.79 48.97 168.332C45.5591 168.351 39.3634 168.211 36.1793 168.491L35.0138 168.23C34.9857 161.97 34.7724 154.25 35.4492 148.147L37.0984 147.265Z" fill="#A36B45"/>
<path d="M35.4492 148.146L37.0984 147.264C36.882 154.53 37.041 161.253 36.1793 168.49L35.0138 168.228C34.9857 161.969 34.7724 154.249 35.4492 148.146Z" fill="#794C31"/>
<path d="M66.6218 126.801L67.7092 127.727C66.3162 130.748 65.4763 131.59 63.2886 134.136L62.459 132.431C64.4976 130.129 65.0652 129.454 66.6218 126.801Z" fill="#4C1E08"/>
<path d="M68.1873 132.424C69.4564 135.826 67.5094 162.344 67.394 168.269L50.465 168.281C50.5141 160.977 50.0916 152.744 49.9668 145.318C58.3653 142.182 62.4498 139.678 68.1873 132.424Z" fill="#A36B45"/>
<path d="M22.8322 -69.9287H28.5706C28.1533 -28.9871 28.22 11.9578 28.7705 52.8977C28.8669 78.3033 29.4162 107.139 27.6738 132.447C25.5843 133.791 23.0905 135.649 21.0156 137.106C24.5021 108.824 23.4805 81.4025 23.4587 52.9075C23.5033 11.9614 23.2946 -28.985 22.8322 -69.9287Z" fill="#EEBB8C"/>
<path d="M145.897 129.08C148.085 132.253 148.881 132.938 151.67 135.575C155.797 139.311 158.78 141.443 164.138 143.46C165.546 143.991 167.856 144.113 168.336 144.286C174.228 144.896 175.415 144.728 181.345 143.589L187.957 143.334C189.979 144.815 191.922 146.039 193.395 148.063L193.319 148.636L192.69 148.8C187.448 145.071 182.682 145.09 176.73 146.701C172.328 147.001 170.77 146.965 166.422 146.317C166.426 154.381 167.009 160.486 167.434 168.392C161.964 169.159 111.074 169.44 108.52 168.362C119.487 168.899 133.584 168.28 145.085 168.421C144.26 156.501 144.819 143.569 144.154 131.273L145.897 129.08Z" fill="#794C31"/>
<path d="M146.279 133.818C153.364 139.043 152.845 143.205 164.365 146.268C164.846 153.606 165.78 160.818 166.079 168.21C159.583 168.288 153.086 168.33 146.59 168.337C147.051 156.639 146.273 145.453 146.279 133.818Z" fill="#A36B45"/>
<path d="M78.9904 116.272C96.8442 112.695 114.723 113.871 132.53 115.783C137.284 114.672 140.268 118.241 143.953 115.938C146.992 117.421 148.073 120.463 149.18 123.683C149.29 123.998 149.393 124.316 149.494 124.633L148.858 125.455L148.769 125.612C151.079 126.11 153.007 128.579 154.272 130.514C154.483 130.84 154.687 131.17 154.882 131.505L154.611 132.611L155.976 132.721C157.869 133.819 159.908 135.204 161.736 136.216C161.506 138.308 161.451 138.41 162.355 140.231C164.758 141.693 166.351 142.446 169.13 141.39C172.261 143.471 177.427 141.888 180.539 142.544L181.345 143.588C175.415 144.728 174.227 144.896 168.337 144.286C167.856 144.112 165.546 143.99 164.138 143.46C158.78 141.442 155.797 139.312 151.67 135.574C148.881 132.937 148.085 132.253 145.897 129.079C145.406 128.175 144.443 126.237 143.448 125.941C123.089 119.895 90.7024 119.305 70.9767 126.031C69.8017 126.525 68.6465 126.889 67.7093 127.727L66.6218 126.801L65.3076 126.068C65.8249 124.963 67.1764 124.81 68.6362 124.266C68.3974 124.166 74.2794 123.168 74.8199 122.976L74.4077 122.467C73.2323 122.72 72.8781 122.789 71.683 122.86C67.5 117.785 75.7365 117.13 78.9904 116.272Z" fill="#4C1E08"/>
<path d="M78.9912 116.272C96.8448 112.695 114.724 113.871 132.53 115.783L141.285 117.569C141.794 119.642 142.049 120.883 142.947 122.863C128.325 118.517 87.733 117.168 74.4085 122.467C73.233 122.72 72.8789 122.789 71.6837 122.86C67.5007 117.785 75.7373 117.13 78.9912 116.272Z" fill="#E1AD84"/>
<path d="M143.953 115.937C146.993 117.42 148.073 120.462 149.182 123.683C149.29 123.998 149.394 124.315 149.494 124.633L148.859 125.454L145.505 125.198C144.564 121.305 142.188 119.955 143.953 115.937Z" fill="#E1AD84"/>
<path d="M148.769 125.612C151.081 126.11 153.008 128.579 154.273 130.514C154.484 130.84 154.688 131.17 154.883 131.505L154.611 132.611C150.564 133.361 146.686 130.152 147.341 126.331L148.769 125.612Z" fill="#E1AD84"/>
<path d="M155.976 132.721C157.869 133.819 159.908 135.204 161.737 136.216C161.506 138.309 161.451 138.409 162.356 140.232C158.351 138.841 156.163 137.269 152.892 134.677L152.796 134.455C153.989 133.882 154.835 133.395 155.976 132.721Z" fill="#DDA26D"/>
<path d="M176.731 146.701C182.682 145.091 187.448 145.07 192.69 148.799C193.139 154.029 194.651 164.016 197.367 168.546C193.543 168.218 186.982 168.382 182.946 168.38L182.22 168.673C179.5 168.089 170.617 168.358 167.434 168.391C167.01 160.485 166.426 154.381 166.423 146.316C170.77 146.966 172.328 147.001 176.731 146.701Z" fill="#A36B45"/>
<path d="M182.221 168.672C182.32 164.782 182.491 150.606 183.203 147.604L183.495 147.616L183.71 148.286L183.078 148.182L183.794 148.622C184.79 155.191 184.244 161.87 182.946 168.379L182.221 168.672Z" fill="#794C31"/>
<path d="M57.0391 133.205L59.1109 132.855L59.7073 131.669L59.1398 131.709C61.3907 128.305 66.117 118.805 67.5684 117.031C69.3683 116.313 68.8334 116.228 70.4687 116.551C69.5992 119.43 69.3341 121.562 68.6371 124.266C67.1774 124.81 65.8259 124.964 65.3086 126.069L66.6228 126.801C65.0663 129.454 64.4987 130.13 62.4601 132.431L59.7369 135.08L57.0391 133.205Z" fill="#DDA26D"/>
<path d="M29.724 142.908C31.6233 143.634 33.6196 144.103 35.5893 144.623L35.3413 146.116C30.3537 146.537 28.4921 147.796 23.9182 149.851C22.6501 152.78 22.402 153.546 20.3447 155.957C20.8263 153.422 21.2204 150.661 21.6361 148.096C24.4982 146.114 26.7149 144.638 29.724 142.908Z" fill="#7D553E"/>
<path d="M168.674 138.542C172.89 139.296 180.882 138.96 182.847 140.586L182.907 141.449C182.026 141.896 181.469 142.19 180.537 142.544C177.426 141.888 172.261 143.471 169.13 141.391C168.648 139.912 168.28 139.715 168.674 138.542Z" fill="#DDA26D"/>
<path d="M192.69 148.799L193.319 148.636C194.625 153.521 197.302 160.491 198.226 164.379C198.728 165.934 199.283 166.766 198.967 168.182C198.247 168.405 198.095 168.532 197.367 168.546C194.65 164.016 193.139 154.028 192.69 148.799Z" fill="#7D553E"/>
<path d="M38.6875 141.166C39.5917 140.141 40.7034 139.136 42.0647 139.136C44.2825 139.135 49.1936 136.535 51.0101 137.041C50.8205 138.11 50.6414 139.179 50.4726 140.252C46.4999 141.871 44.2727 142.381 39.9541 142.607C39.6786 142.375 38.9646 141.491 38.6875 141.166Z" fill="#DDA26D"/>
<path d="M18.5105 153.934L18.1501 153.271C19.397 151.435 19.4131 149.516 20.3053 148.618C20.8754 148.498 21.14 148.375 21.6356 148.097C21.2198 150.662 20.8257 153.423 20.3441 155.958L19.8439 158.127C18.2076 161.218 17.1813 163.202 15.9281 166.445L15.34 165.607C15.4502 164.912 15.4746 164.2 15.5211 163.495C14.7274 163.448 14.2241 163.374 13.4814 163.084C16.754 160.66 18.4117 158.112 18.5105 153.934Z" fill="#4C1E08"/>
<path d="M12.3008 161.731C13.7808 156.775 13.4389 155.651 18.5115 153.933C18.4126 158.11 16.7551 160.659 13.4825 163.084L12.3008 161.731Z" fill="#E1AD84"/>
<path d="M162.355 140.232C161.45 138.409 161.505 138.309 161.736 136.216L168.675 138.541C168.28 139.716 168.648 139.912 169.13 141.391C166.351 142.446 164.758 141.692 162.355 140.232Z" fill="#D29B74"/>
<path d="M74.6432 114.446L77.499 114.221L77.9102 114.76C75.7922 115.258 73.6821 115.789 71.5808 116.35C74.6168 116.671 77.3374 115.85 78.9903 116.273C75.7364 117.13 67.4998 117.785 71.6828 122.86C72.878 122.789 73.2321 122.72 74.4076 122.467L74.8197 122.977C74.2792 123.168 68.3972 124.166 68.636 124.266C69.3329 121.562 69.5981 119.429 70.4675 116.551L71.5311 114.718L73.4781 115.057L74.6432 114.446Z" fill="#4C1E08"/>
<path d="M50.4717 140.251C52.7092 135.971 52.8205 135.34 57.0381 133.204L59.7359 135.08C56.8579 137.296 54.1042 139.513 50.4717 140.251Z" fill="#E1AD84"/>
<path d="M12.3002 161.732L13.4818 163.084C14.2243 163.373 14.7276 163.449 15.5215 163.496C15.4749 164.2 15.4506 164.912 15.3402 165.606C14.4615 167.08 14.3812 167.159 13.1949 168.414C11.4297 168.879 11.9688 169.012 10.5411 168.442C10.2408 167.123 12.005 163.755 12.3002 161.732Z" fill="#D29B74"/>
<path d="M31.002 141.317C33.0023 140.252 34.9431 138.598 36.974 139.452C37.5509 140.295 37.8413 140.593 38.687 141.167C38.964 141.491 39.678 142.376 39.9535 142.608C37.2893 143.149 33.5781 142.043 31.002 141.317Z" fill="#BC7E54"/>
<path d="M9.12633 172.802C16.3106 171.592 27.0937 171.894 34.5968 171.897L76.5417 172.064L154.329 171.962C170.067 171.898 185.812 171.819 201.546 171.954C206.417 171.996 209.008 174.276 210.948 178.635C211.402 182.528 211.928 203.601 211.086 206.687L210.987 206.991C210.462 210.102 209.61 212.14 206.961 214.15C205.348 215.376 203.024 215.408 201.038 215.422C186.248 215.525 171.408 215.436 156.617 215.435L67.7839 215.452L29.1178 215.485C20.1958 215.488 7.16589 218.223 3.93781 208.164L3.58311 204.792L3.3418 200.333L3.69081 180.867L4.44269 178.195C5.91744 175.529 6.78892 174.775 9.12633 172.802Z" fill="#DDA26D"/>
<path d="M3.93848 208.165C7.12928 208.624 10.9684 209.982 14.2198 209.958C35.4307 209.804 56.3992 211.087 77.502 212.067C92.6676 212.77 109.457 210.439 124.813 210.47C150.576 210.521 176.573 213.242 202.173 210.101C205.028 209.724 208.716 206.951 210.989 206.992C210.464 210.103 209.611 212.14 206.962 214.152C205.348 215.376 203.025 215.408 201.039 215.423C186.248 215.526 171.41 215.437 156.617 215.435L67.7845 215.452L29.1185 215.486C20.1964 215.488 7.16656 218.224 3.93848 208.165Z" fill="#EEBB8C"/>
<path d="M210.949 178.635C211.402 182.527 211.928 203.6 211.087 206.687C210.905 201.657 211.135 202.435 206.448 202.331C180.119 201.744 153.959 204.326 127.684 201.556C125.936 201.371 118.435 201.681 117.573 200.98C125.143 198.609 153.197 199.688 162.884 199.424C178.521 198.999 195.267 198.59 210.868 199.395L210.81 182.288C206.438 182.618 173.102 181.577 171.315 180.393C173.938 177.051 204.295 180.982 210.949 178.635Z" fill="#BC7E54"/>
<path d="M4.44328 178.195C6.91224 179.122 12.0009 178.795 14.8385 178.97C33.7969 180.138 52.5223 178.332 71.4362 177.61C81.2519 177.236 91.6437 178.607 101.5 178.679C107.443 178.92 120.503 178.793 125.803 179.591L125.837 179.901C121.469 180.802 117.058 180.649 112.607 180.859C98.8569 181.509 85.0677 180.676 71.3098 180.714C59.6951 180.746 48.1177 181.916 36.5393 182.412C25.5501 182.883 14.6247 182.001 3.69141 180.867L4.44328 178.195Z" fill="#BC7E54"/>
<path d="M3.3418 200.333C7.88255 204.607 58.1333 202.076 70.2067 204.168C59.7333 207.019 14.349 207.578 3.58311 204.792L3.3418 200.333Z" fill="#BC7E54"/>
<path d="M136.223 188.535C145.243 187.959 156.908 188.346 166.049 188.534C163.945 189.455 161.53 189.606 159.216 189.915C155.256 190.152 133.989 191.959 132.039 190.385C133.296 189.218 134.558 189.029 136.223 188.535Z" fill="#BC7E54"/>
<path d="M88.0916 193.368C90.6466 193.15 97.8031 192.722 99.7578 194.29L99.4571 195.034L97.5414 195.802C95.0608 195.634 86.6469 195.34 85.1592 194.52C86.1389 193.419 86.2487 193.733 88.0916 193.368Z" fill="#AD764F"/>
<path d="M149.298 119.793C162.959 122.667 181.864 131.533 193.64 139.451C196.862 141.617 198.086 143.355 198.594 147.104C198.408 147.07 198.222 147.035 198.037 147.001C191.946 144.346 185.603 139.499 179.574 136.291C170.932 131.693 162.951 129.465 154.241 125.504C152.123 124.541 150.555 121.769 149.298 119.793Z" fill="#E1AD84"/>
<path d="M62.2718 120.222L62.714 120.868C61.8369 123.245 60.8737 124.3 59.3586 126.275C43.6894 130.855 31.3586 138.872 17.786 147.297C15.2067 142.493 21.5868 139.6 25.0842 137.293C36.9899 129.438 48.8231 124.789 62.2718 120.222Z" fill="#E1AD84"/>
<path d="M200.954 163.641C199.167 161.005 197.25 157.516 196.918 154.298L197.636 154.408C200.687 155.841 204.273 160.956 202.711 164.071C202.195 163.954 201.43 163.81 200.954 163.641Z" fill="#E1AD84"/>
<path d="M199.781 163.725L200.955 163.642C202.889 165.071 205.01 166.01 204.798 168.585C201.601 169.423 200.621 166.044 199.781 163.725Z" fill="#EEBB8C"/>
<path d="M157.824 130.333C160.621 130.753 162.765 132.233 164.731 134.188C161.303 133.575 160.249 132.821 157.824 130.333Z" fill="#7D553E"/>
</g>
<defs>
<clipPath id="clip0_1846_411">
<rect width="215.518" height="219.952" fill="white"/>
</clipPath>
</defs>
</svg>
