<svg width="243" height="322" viewBox="0 0 243 322" fill="none" xmlns="http://www.w3.org/2000/svg">
<path d="M5.99479 -78.8455H9.83656H15.7918H191.285H233.323H237.369C234.111 -70.0975 229.452 -59.631 225.873 -50.6868C229.971 -42.3524 229.487 -39.0097 221.943 -33.4539C222.206 -18.77 221.546 -2.23627 221.535 12.7975L221.482 132.85C221.435 160.896 220.816 190.254 222.054 218.174C222.632 231.33 226.024 250.766 228.05 263.956C234.344 265.693 238.84 268.106 241.222 274.376C243.417 280.144 243.517 308.979 241.158 313.545C239.307 317.117 236.061 319.768 232.196 320.871C227.356 322.214 204.469 321.72 197.667 321.709L135.995 321.663L55.5578 321.719C43.1101 321.725 25.9099 322.298 13.9877 321.555C11.629 321.399 9.34024 320.696 7.3026 319.502C-1.36173 314.36 0.0629085 300.641 0.121293 292.043C0.226386 278.333 -1.3734 267.988 14.8927 264.167C18.098 247.474 21.0932 231.256 21.8697 214.255C22.7688 194.586 22.4711 174.626 22.4711 154.909L22.3835 57.9899L22.2083 -1.92625C22.1149 -11.1728 22.0565 -23.9315 20.9472 -32.8191C20.2174 -38.6363 8.33024 -36.1902 17.4383 -50.15C13.6316 -58.5253 9.01913 -70.1734 5.99479 -78.8455Z" fill="#552E17"/>
<path d="M86.8409 -44.3015C122.047 -48.0253 175.498 -44.9664 209.408 -36.7931L212.602 -35.9907C215.183 -35.458 216.327 -35.6941 217.968 -34.1043C218.487 -31.1213 217.886 -16.0985 217.804 -12.0629C217.512 0.909843 217.396 13.8861 217.442 26.8617L217.454 139.962C217.413 185.843 215.586 218.901 224.139 264.503L210.413 264.561L208.352 264.469L186.434 264.473C176.9 264.531 167.365 264.526 157.831 264.461L156.599 264.65C139.317 264.044 119.91 264.486 102.47 264.503L101.507 264.754C98.1734 264.271 89.0887 264.487 85.3053 264.499L81.5978 264.517L53.0826 264.484L50.3794 264.47L43.9279 264.46L40.8452 264.489L26.4591 264.506L18.7639 264.491C27.0312 230.855 26.4824 201.487 26.5934 167.355L26.5291 94.9484C26.4065 56.0909 27.2823 10.4641 25.3848 -27.8096L25.3381 -35.0704L38.1828 -38.2204L41.6567 -38.9023C45.0664 -39.2969 48.8848 -40.0893 52.3003 -40.7198L55.1027 -41.105C65.4544 -42.534 75.8528 -43.5854 86.2862 -44.257L86.8409 -44.3015Z" fill="#DDA26D"/>
<path d="M86.8409 -44.3015C122.047 -48.0253 175.498 -44.9664 209.408 -36.7931L212.602 -35.9907C215.183 -35.458 216.327 -35.6941 217.968 -34.1043C218.487 -31.1212 217.886 -16.0985 217.804 -12.0629C217.512 0.909851 217.395 13.8861 217.442 26.8618L217.454 139.962C217.413 185.843 215.586 218.901 224.139 264.503L210.413 264.562L208.352 264.469L186.434 264.473C186.656 251.376 187.135 237.774 187.053 224.722C186.977 212.657 186.341 201.327 186.574 189.124L186.615 187.589C184.898 178.881 185.325 162.879 185.301 153.583L185.12 101.112C184.747 56.774 182.814 12.0528 182.365 -32.3332C173.554 -33.1845 163.331 -34.8704 154.386 -36.0306C153.902 -6.68673 152.769 23.8409 152.647 52.9678C152.682 69.2639 152.629 85.56 152.477 101.856C152.431 108.545 153.195 118.815 151.666 125.015C151.035 123.493 150.603 113.365 150.434 110.784C148.863 87.0634 148.484 63.2782 149.301 39.5198C150.089 13.673 151.829 -10.4386 151.257 -36.7649C146.195 -36.7477 141.997 -37.0565 136.97 -37.43C137.145 -29.8043 137.589 -1.81384 136.305 3.94708C135.522 -2.93427 135.832 -9.74672 135.405 -16.7051C134.968 -23.7883 134.074 -30.7251 133.812 -37.7876C117.178 -37.9376 102.727 -37.7179 86.0994 -36.8304C86.8058 -39.4868 86.765 -41.5875 86.8409 -44.3015Z" fill="#BC7E54"/>
<path d="M209.408 -36.7933L212.602 -35.9909C212.257 -35.7384 211.557 -34.8033 211.563 -34.4863C212.152 -4.62129 208.498 24.8735 208.69 54.6893C208.859 79.8063 212.077 104.745 209.379 129.83L209.064 129.954C207.482 114.51 207.447 96.538 206.804 80.8655C206.53 66.4944 204.662 51.1243 205.707 36.7848C207.505 11.9901 209.023 -11.9119 209.408 -36.7933Z" fill="#A36B45"/>
<path d="M208.352 264.469C207.079 245.363 208.042 227.656 206.933 208.738C206.297 197.861 203.056 187.384 201.334 177.036C199.36 165.161 197.948 145.497 198.794 133.469L199.588 133.117L198.853 132.875L199.384 132.145L199.6 132.653L198.969 132.709C200.511 134.259 201.153 148.293 201.205 151.595C201.55 174.766 211.697 197.175 210.623 220.278C209.934 235.094 210.786 249.89 210.413 264.561L208.352 264.469Z" fill="#A36B45"/>
<path d="M186.615 187.589C189.295 173.604 187.117 101.945 189.073 98.4349C192.022 102.278 190.375 187.837 187.66 195.04C188.466 197.307 188.384 197.775 187.666 200.066C186.884 198.198 187.176 192.132 186.574 189.123L186.615 187.589Z" fill="#A36B45"/>
<path d="M31.7196 -29.0204C33.2142 -12.7336 31.5619 4.04706 32.0173 20.3122C33.4303 70.6075 32.7647 120.976 33.0274 171.295C33.0624 178.54 33.1033 185.967 32.8522 193.197C32.0699 217.068 29.933 240.876 26.4591 264.506L18.7639 264.491C27.0312 230.854 26.4824 201.487 26.5934 167.355L26.5291 94.9479C26.4065 56.0904 27.2823 10.4637 25.3848 -27.81C27.6677 -28.0034 29.4951 -28.5021 31.7196 -29.0204Z" fill="#EEBB8C"/>
<path d="M86.2858 -44.2575L86.8405 -44.302C86.7646 -41.588 86.8054 -39.4873 86.099 -36.831C85.9939 -21.8417 85.0597 -7.05623 84.9779 8.01139C84.721 55.8043 84.8028 103.375 87.3892 151.119C87.6695 156.334 87.2374 162.19 87.3075 167.455C86.2449 188.025 85.3108 208.725 83.6993 229.248C81.7668 206.566 86.5251 184.251 85.1181 161.907C81.288 101.189 80.9786 40.4038 83.0104 -20.3875C83.1914 -25.7537 83.3723 -31.0384 84.0204 -36.3891C84.6802 -39.1597 85.1472 -41.6316 86.2858 -44.2575Z" fill="#BC7E54"/>
<path d="M55.1028 -41.1051C65.4545 -42.5341 75.8529 -43.5855 86.2863 -44.2571C85.1478 -41.6312 84.6807 -39.1593 84.0209 -36.3887C75.3274 -35.945 63.5162 -34.6396 55.0211 -33.2303C54.7234 -24.5096 54.6708 -15.7821 54.8577 -7.05872C55.0445 2.75301 57.5842 41.8452 54.0695 48.0545C53.0419 45.0261 53.0769 32.4363 53.0127 28.7265C52.7091 15.564 52.4697 2.39977 52.3062 -10.7651C52.2654 -16.6375 52.6448 -27.4134 52.1836 -32.9194C51.9208 -34.7898 52.096 -36.479 52.1894 -38.3648L52.3004 -40.7198L55.1028 -41.1051Z" fill="#BC7E54"/>
<path d="M103.72 122.362C104.549 133.373 104.812 143.82 105.308 154.8C105.734 164.291 107.275 173.216 106.943 182.871C106.044 209.064 102.4 238.547 102.47 264.503L101.507 264.754C100.754 237.464 103.626 210.216 104.87 182.985C105.25 174.74 103.399 166.176 102.996 157.929C102.435 146.974 102.762 133.256 103.72 122.362Z" fill="#BC7E54"/>
<path d="M156.599 264.649C155.84 250.666 155.139 236.761 154.088 222.792C152.465 201.294 149.599 175.671 150.422 154.189L150.988 153.663L150.451 153.774L150.434 153.977L150.772 152.905L150.912 153.322L150.655 152.88L150.457 153.838L151.128 154.464C151.514 158.171 151.969 161.982 152.22 165.69C154.486 198.929 158.415 231.099 157.831 264.461L156.599 264.649Z" fill="#BC7E54"/>
<path d="M50.3792 264.469C51.6169 249.48 53.5495 238.135 54.3552 222.169L55.6105 193.661C55.8032 188.595 55.5754 184.209 56.4278 179.178L56.9242 179.099C60.6841 206.41 54.11 237.645 53.0824 264.483L50.3792 264.469Z" fill="#BC7E54"/>
<path d="M40.8449 264.488C40.7573 248.028 41.9658 231.611 42.2811 215.16C42.322 212.775 42.4037 210.424 42.7774 208.064L43.1744 208.26C44.7566 216.881 43.5948 223.714 43.5306 232.383C43.5481 243.076 43.6765 253.769 43.9276 264.459L40.8449 264.488Z" fill="#BC7E54"/>
<path d="M81.5978 264.516C81.6153 258.92 81.23 244.704 82.8064 240.113L83.4837 239.838C85.6731 244.411 85.2528 258.716 85.3053 264.498L81.5978 264.516Z" fill="#BC7E54"/>
<path d="M34.1483 35.3606C37.8207 42.0726 41.3647 79.5925 41.6391 88.5285C41.9368 98.0518 40.0744 114.549 39.6774 124.923L37.8674 168.654C37.5405 175.787 37.377 186.528 36.2852 193.174L35.6896 194.06C33.325 190.356 38.4804 101.194 38.714 90.0827C38.965 78.3565 33.1441 44.3561 34.1483 35.3606Z" fill="#BC7E54"/>
<path d="M141.828 113.187C144.239 119.734 142.832 168.467 142.733 177.65C142.476 201.29 142.744 227.459 141.979 251.23C138.908 244.771 141.075 128.753 141.828 113.187Z" fill="#BC7E54"/>
<path d="M5.06109 275.685C6.9119 271.814 9.19479 268.887 13.7897 268.71C32.5429 267.993 51.7983 268.558 70.5399 268.492L181.816 268.405C197.235 268.458 216.129 268.015 231.285 268.563C235.939 271.587 236.283 272.222 238.502 277.217L238.525 278.818C238.549 281.218 238.689 284.723 238.56 287.028C238.876 291.766 239.197 302.003 238.607 306.664L238.297 309.287L238.198 309.61C237.194 312.733 236.015 315.09 232.984 316.613C230.871 317.673 228.43 317.647 226.113 317.701C185.605 318.644 144.835 317.711 104.304 317.707C93.6486 317.706 16.1017 318.879 11.0106 316.906C7.2856 315.462 5.79679 312.624 4.37803 309.158L4.19116 305.513L4.34297 301.833C4.43055 294.697 4.45975 287.561 4.42472 280.424L5.06109 275.685Z" fill="#DDA26D"/>
<path d="M4.37817 309.158C28.4561 312.168 55.7686 313.101 80.1969 313.143C121.522 313.212 162.969 311.437 204.405 312.897C210.471 313.111 216.689 312.565 222.709 311.853C226.083 311.453 236.844 308.703 238.298 309.287L238.198 309.61C237.194 312.732 236.015 315.089 232.985 316.613C230.871 317.672 228.43 317.647 226.113 317.701C185.605 318.643 144.835 317.711 104.304 317.707C93.6488 317.706 16.1019 318.879 11.0107 316.906C7.28574 315.462 5.79693 312.624 4.37817 309.158Z" fill="#EEBB8C"/>
<path d="M5.06069 275.684C8.47038 278.615 46.1404 276.676 52.2183 276.211C59.0143 275.692 65.7986 275.047 72.6179 274.97C78.9644 274.898 139.58 276.425 140.397 276.982C128.755 280.176 88.0141 277.488 73.3186 278.351C61.519 279.043 46.9695 279.579 34.3583 280.209C27.4222 280.555 13.1412 278.981 5.77882 279.003C5.60366 279.003 4.65202 280.094 4.42432 280.424L5.06069 275.684Z" fill="#BC7E54"/>
<path d="M238.56 287.028C238.875 291.766 239.196 302.003 238.607 306.663C238.508 304.424 238.513 303.97 237.941 301.836L132.294 301.823L131.908 301.241C136.118 298.994 172.778 299.864 180.362 299.581C198.35 298.91 220.875 296.553 238.362 300.663C238.315 295.954 238.268 291.748 238.56 287.028Z" fill="#BC7E54"/>
<path d="M4.34297 301.833C10.8354 302.394 22.1445 303.309 28.129 303.772C34.9892 304.302 71.7368 303.381 75.3566 304.967C72.1863 305.988 63.5336 306.269 59.8495 306.422C48.8206 306.878 37.6983 307.937 26.6752 307.55C19.1728 307.286 11.6586 306.087 4.19116 305.512L4.34297 301.833Z" fill="#BC7E54"/>
<path d="M238.525 278.817C233.871 279.909 195.46 279.134 192.938 277.66C195.857 275.57 232.873 277.074 238.501 277.217L238.525 278.817Z" fill="#BC7E54"/>
<path d="M157.061 286.838C162.438 286.18 182.878 286.578 188.215 287.356C184.093 288.272 179.007 288.795 174.751 289.346C169.923 290.108 150.142 290.247 144.975 289.619C149.663 288.048 152.191 287.458 157.061 286.838Z" fill="#BC7E54"/>
<path d="M95.2771 293.39C96.7776 293.243 98.2781 293.125 99.7786 293.036C102.581 292.881 109.29 292.258 111.351 294.11C107.888 294.42 99.2181 294.322 95.7208 294.115L95.2771 293.39Z" fill="#AD764F"/>
</svg>
