<svg width="216" height="318" viewBox="0 0 216 318" fill="none" xmlns="http://www.w3.org/2000/svg">
<g clip-path="url(#clip0_1846_210)">
<path d="M17.0982 263.869C20.9042 243.606 20.0834 231.044 20.0752 210.554L20.0456 160.273L20.0757 124.439C20.0834 117.236 20.623 103.254 19.183 96.3986C15.5054 80.429 9.61414 64.2884 3.80373 48.9866C3.2942 47.6454 0.498495 44.9682 0.532671 43.0626C0.674554 35.1244 -2.92532 5.24675 6.85835 2.42304C19.2198 -1.14478 39.2505 0.277171 52.7237 0.292188L120.944 0.330526L171.702 0.292725C214.949 0.259067 217.496 -3.57906 213.976 43.9895C213.786 46.5527 209.074 50.918 208.428 53.6573C203.253 66.6548 199.024 80.2011 195.906 93.8097C194.751 98.8535 195.1 109.754 195.112 115.283L195.162 145.334L195.129 203.956C195.122 227.859 194.32 240.468 198.098 264.008C203.597 266.484 205.288 267.084 206.049 273.309C209.94 275.924 214.038 278.824 214.618 283.847C215.56 292.008 215.795 310.183 213.253 317.319H209.37H5.79683H1.70968C-0.379203 309.718 0.19868 302.81 0.0842417 295.084C-0.0679972 284.821 0.00139306 279.041 9.62194 273.505C9.95435 267.535 11.2868 265.867 17.0982 263.869Z" fill="#552E17"/>
<path d="M3.97797 283.898C5.1498 281.257 6.68202 278.891 9.40315 277.643C11.2119 276.809 13.3666 276.825 15.3224 276.794C29.9165 276.566 202.129 275.981 205.648 277.378C208.534 278.528 209.871 281.04 211.057 283.712L211.283 286.938L211.184 290.257C211.588 296.197 211.489 303.529 211.44 309.587C211.38 310.001 210.997 312.798 210.922 313.031L209.371 317.318H5.79708L4.03907 313.248L3.60411 310.519L3.44824 303.746C3.53524 298.092 3.23904 291.381 3.90029 285.897L3.97797 283.898Z" fill="#DDA26D"/>
<path d="M4.03809 313.249C11.3129 314.823 18.1078 314.865 25.4924 314.891C38.3187 314.932 50.7262 315.378 63.5044 316.47C85.9115 318.386 108.615 314.875 131.063 315.248C156.167 315.181 181.986 318.862 206.687 313.534C209.546 312.902 209.477 311.204 210.92 313.032L209.369 317.319H5.79609L4.03809 313.249Z" fill="#EEBB8C"/>
<path d="M3.97807 283.898C25.0932 284.686 43.0739 284.479 64.0958 282.594C76.9963 281.439 92.5035 283.608 105.503 283.78C109.085 284.017 121.959 284.039 124.487 284.608C117.925 285.841 106.406 285.659 99.581 285.654L67.7055 285.68C55.9956 285.768 44.9536 286.881 33.3477 287.332C24.0223 287.7 13.2206 286.772 3.90039 285.898L3.97807 283.898Z" fill="#BC7E54"/>
<path d="M211.184 290.257C211.588 296.196 211.489 303.528 211.44 309.587C211.075 308.598 211.026 308.552 210.519 307.624C198.846 305.408 178.3 307.562 165.941 307.511C149.899 307.438 133.729 306.894 117.698 306.268L117.727 305.745L117.487 306.133C119.675 304.207 139.526 304.212 143.914 304.264C166.398 304.548 188.496 303.098 210.99 303.995C210.944 299.433 210.797 294.798 211.184 290.257Z" fill="#BC7E54"/>
<path d="M3.44824 303.748C3.85628 305.016 3.75116 305.658 4.82098 306.099C7.6664 307.269 13.3044 307.161 15.6921 307.533C24.0559 308.859 62.0638 306.746 67.3362 309.413L67.1307 309.874C52.088 310.175 37.1179 312.018 22.0384 311.619C17.9581 311.51 6.5479 309.361 3.60411 310.521L3.44824 303.748Z" fill="#BC7E54"/>
<path d="M211.056 283.712L211.282 286.938C201.222 287.927 179.201 286.151 168.333 285.286C178.981 282.734 206.904 285.343 211.056 283.712Z" fill="#BC7E54"/>
<path d="M138.579 293.141C141.366 292.737 161.129 292.628 163.002 293.949C160.669 294.581 158.729 294.715 156.343 294.974C148.593 295.74 136.917 295.839 128.975 295.844C132.833 294.27 134.486 293.742 138.579 293.141Z" fill="#BC7E54"/>
<path d="M86.323 298.335C89.6777 298.16 95.4941 297.802 98.6408 298.662L98.945 299.433L97.471 300.138C94.3721 300.163 87.4498 300.417 84.7607 299.661L84.752 298.962L86.323 298.335Z" fill="#BC7E54"/>
<path d="M90.4288 71.5834C95.493 68.6732 101.026 64.6238 105.698 61.1025C111.309 67.0782 116.432 70.2318 123.715 73.9188L126.58 75.1253C131.685 77.0672 137.776 78.6621 143.231 79.2472L146.756 79.6822C149.961 79.6304 154.285 79.6925 157.397 79.4285C159.595 79.1281 161.787 78.7966 163.976 78.4394L166.59 78.3099C170.805 77.4089 176.646 75.5655 180.635 74.0638C181.639 73.4734 183.157 72.9401 184.285 72.4896C188.474 70.8118 189.931 69.9108 193.721 67.4511L187.924 84.9071C186.599 90.4272 184.009 95.4187 191.163 97.1127C191.674 100.98 191.496 108.033 191.482 112.171L191.374 137.627L191.416 196.494C191.418 211.506 191.217 226.714 191.707 241.71C191.939 248.841 193.382 256.515 194.331 263.619C190.653 264.106 186.364 263.785 182.609 263.635L173.541 263.552C169.369 263.827 159.845 264.205 155.818 263.853C121.122 264.945 85.2964 263.479 50.6206 263.697L48.365 263.666C41.1342 263.78 33.9013 263.754 26.6715 263.594L20.7145 263.847L22.3358 255.567C24.4729 238.556 24.0254 219.133 23.982 201.863C23.7319 177.754 23.7365 153.643 23.9964 129.533C24.042 125.039 22.4296 99.0284 23.635 96.9832L26.6285 96.4076C27.9221 94.8342 28.6434 93.4249 28.1027 91.3593C26.0657 83.5814 23.1835 74.4418 19.7871 67.2077L28.2659 71.2365L30.0731 72.0702C36.2139 74.6075 41.3093 76.5493 48.0305 77.5125L51.0168 78.0873C63.1488 79.3612 77.2148 77.9319 88.2599 72.5155L90.4288 71.5834Z" fill="#DDA26D"/>
<path d="M19.7871 67.208L28.2659 71.2367L30.0731 72.0704C36.2139 74.6077 41.3093 76.5496 48.0305 77.5128L51.0168 78.0875C52.6267 108.535 53.1952 139.45 51.0007 169.867C50.6004 175.413 49.6927 180.99 49.586 186.556C49.5591 199.585 50.5963 212.639 50.9924 225.663C51.1354 236.692 51.1493 247.65 51.1525 258.68C55.5063 259.026 61.7335 259.316 65.9036 259.855C65.2056 247.065 62.9737 208.228 67.6517 197.56C66.6316 211.065 66.8936 224.612 67.4373 238.137C67.7253 245.299 68.633 252.76 68.808 259.88C75.2171 259.871 82.0041 259.974 88.3681 259.596C88.3547 251.606 89.1774 244.155 89.5197 236.216C90.0146 224.229 90.1751 212.225 89.9987 200.227C89.9144 191.316 89.6164 182.408 89.1047 173.513C88.5432 164.332 87.1434 149.734 88.4116 141.029C90.584 149.475 91.3707 165.083 91.6669 173.896C92.4199 191.269 92.4217 208.663 91.674 226.031C91.2217 237.159 90.1042 248.592 89.8053 259.539L143.361 253.822C143.873 247.209 144.193 240.581 144.322 233.948C144.376 230.22 144.185 224.192 144.424 220.77C144.342 217.906 144.158 209.642 144.73 207.238C145.579 208.212 145.487 209.73 145.673 211.242C146.883 222.866 146.792 241.353 145.869 253.258C147.075 252.859 153.188 251.005 153.366 249.292C158.561 199.368 154.38 148.574 157.315 98.4123C157.522 94.8647 158.149 81.9453 157.397 79.4287C159.595 79.1284 161.787 78.7969 163.976 78.4396L166.59 78.3101C170.805 77.4091 176.646 75.5657 180.635 74.064C181.639 73.4736 183.157 72.9403 184.285 72.4898C188.474 70.812 189.931 69.911 193.721 67.4514L187.924 84.9073C186.599 90.4275 184.009 95.419 191.163 97.1121C191.674 100.981 191.496 108.033 191.482 112.171L191.374 137.627L191.416 196.493C191.418 211.505 191.217 226.714 191.707 241.71C191.939 248.841 193.382 256.515 194.331 263.62C190.653 264.107 186.364 263.785 182.609 263.635L173.541 263.552C169.369 263.826 159.845 264.205 155.818 263.853C121.122 264.946 85.2964 263.48 50.6206 263.697L48.365 263.666C41.1342 263.78 33.9013 263.754 26.6715 263.594L20.7145 263.848L22.3358 255.567C24.4729 238.557 24.0254 219.133 23.982 201.864C23.7319 177.754 23.7365 153.643 23.9964 129.534C24.042 125.039 22.4296 99.0287 23.635 96.9826L26.6285 96.4079C27.9221 94.8337 28.6434 93.4253 28.1027 91.3597C26.0657 83.5817 23.1835 74.442 19.7871 67.208Z" fill="#BC7E54"/>
<path d="M19.7871 67.208L28.2659 71.2367L30.0731 72.0704C36.2139 74.6077 41.3093 76.5496 48.0305 77.5128C49.5845 101.297 52.024 120.736 50.9624 144.965C50.2256 161.789 47.9601 177.075 47.1424 193.552C46.5532 205.432 48.3054 220.309 49.0076 232.255C49.3281 237.712 48.4044 249.509 49.0242 253.978C49.0982 255.236 49.2624 256.5 49.0537 257.716C48.2558 260.181 48.3572 261.144 48.365 263.666C41.1342 263.78 33.9013 263.754 26.6715 263.594L20.7145 263.848L22.3358 255.567C24.4729 238.557 24.0254 219.133 23.982 201.864C23.7319 177.754 23.7365 153.643 23.9964 129.534C24.042 125.039 22.4296 99.0287 23.635 96.9826L26.6285 96.4079C27.9221 94.8337 28.6434 93.4253 28.1027 91.3597C26.0657 83.5817 23.1835 74.442 19.7871 67.208Z" fill="#DDA26D"/>
<path d="M22.3359 255.568C24.4729 238.558 24.0256 219.134 23.982 201.865C23.7319 177.754 23.7366 153.645 23.9966 129.534C24.0422 125.039 22.4297 99.0291 23.6352 96.9839L26.6286 96.4092C27.0196 102.473 27.5395 108.542 28.0091 114.6C28.3358 118.82 28.166 124.263 28.7589 128.308L28.818 132.916C28.0277 136.997 28.3763 150.626 28.354 155.643L28.5244 208.896C28.6 217.167 28.8511 248.728 26.8777 256.226C25.6873 256.2 23.5735 255.775 22.3359 255.568Z" fill="#EEBB8C"/>
<path d="M40.0079 208.42C41.6477 216.322 40.9632 248.924 40.376 257.675C43.1919 257.737 45.0934 258.607 47.6425 257.97C49.1095 256.583 48.7113 256.36 49.0236 253.978C49.0977 255.236 49.2618 256.5 49.0531 257.717C48.2552 260.181 48.3567 261.145 48.3644 263.667C41.1336 263.781 33.9006 263.755 26.6709 263.594L20.7139 263.848L22.3352 255.568C23.5728 255.775 25.6865 256.199 26.877 256.226L27.1727 256.288C30.0061 256.36 35.0699 257.137 38.0556 257.525C37.8921 248.396 38.1949 216.948 40.0079 208.42Z" fill="#BC7E54"/>
<path d="M20.7139 263.849L22.3352 255.568C23.5728 255.776 25.6865 256.201 26.877 256.226L27.1727 256.289C26.5274 258.613 26.6688 261.166 26.6709 263.595L20.7139 263.849Z" fill="#AD764F"/>
<path d="M31.3187 135.37C31.4823 145.427 31.5315 155.953 32.0949 165.881C32.9037 180.11 36.1748 218.078 32.7536 231.127C31.7154 211.739 32.3688 192.357 30.6481 172.99C30.4099 170.313 30.2536 167.408 30.2779 164.72C30.8925 157.849 29.4426 140.616 31.3187 135.37Z" fill="#BC7E54"/>
<path d="M28.2646 71.2373L30.0719 72.071C34.0943 95.8858 39.1187 120.524 38.793 144.629C38.7567 147.327 38.9001 152.556 38.3911 154.924C37.3136 153.209 37.4539 137.654 37.0619 133.858C35.9227 122.818 34.7038 112.104 32.6029 101.111C30.6942 91.1169 30.5084 81.2883 28.2646 71.2373Z" fill="#BC7E54"/>
<path d="M28.7588 128.306L30.1321 127.69C31.5079 129.285 31.5162 133.262 31.3189 135.369C29.4429 140.615 30.8928 157.849 30.2781 164.72C29.6904 154.126 29.2036 143.52 28.8179 132.915L28.7588 128.306Z" fill="#AD764F"/>
<path d="M166.59 78.3105C165.667 97.4237 164.061 116.407 164.409 135.567C164.854 160.086 166.479 184.626 166.701 209.155C166.785 218.471 167.013 228.372 165.432 237.527C164.935 231.354 165.124 225.218 165.035 219.046C164.491 181.084 161.216 143.158 163.158 105.191C163.607 96.3878 163.863 87.2586 163.975 78.44L166.59 78.3105Z" fill="#A36B45"/>
<path d="M182.149 178.06C184.932 190.819 186.465 209.756 185.562 222.815C184.5 238.154 184.711 248.2 185.967 263.356C188.07 263.387 192.441 263.341 194.331 263.62C190.652 264.107 186.363 263.786 182.609 263.636C182.376 246.087 182.59 228.626 182.826 211.076C182.969 200.409 181.87 188.328 182.149 178.06Z" fill="#A36B45"/>
<path d="M184.285 72.4902C181.249 89.4076 179.764 106.9 182.123 124.061C182.468 126.567 182.616 127.571 182.074 130.114L181.662 130.305C179.598 121.689 179.006 100.924 179.227 91.6399C179.313 88.0251 181.449 76.1358 180.635 74.0644C181.639 73.4741 183.157 72.9407 184.285 72.4902Z" fill="#A36B45"/>
<path d="M163.455 263.408C163.38 260.473 163.143 257.003 164.038 254.232L164.512 255.092L163.808 255.154L164.601 255.533C165.04 257.899 164.949 260.907 164.968 263.383C168.08 263.321 170.431 263.377 173.54 263.554C169.368 263.828 159.845 264.206 155.817 263.854C157.24 263.134 161.584 263.393 163.455 263.408Z" fill="#A36B45"/>
<path d="M49.0533 257.717C51.6983 259.716 51.0702 260.519 50.6203 263.698L48.3646 263.667C48.3569 261.145 48.2553 260.182 49.0533 257.717Z" fill="#AD764F"/>
<path d="M176.084 148.362C176.366 149.636 175.819 177.381 175.618 179.903C173.345 176.009 174.843 153.038 176.084 148.362Z" fill="#A36B45"/>
<path d="M123.715 73.9199L126.58 75.1265C126.107 92.6553 127.847 222.505 124.907 226.301C123.833 224.851 124.447 90.9098 123.715 73.9199Z" fill="#BC7E54"/>
<path d="M143.23 79.248L146.756 79.683C146.484 96.0307 142.504 113.212 144.522 129.834C144.741 131.642 145.099 133.511 144.533 135.246L143.733 135.256C143.021 133.838 142.946 129.11 142.861 127.344C142.539 120.669 142.052 113.777 142.362 107.102C142.777 98.1646 143.658 89.268 143.95 80.3302C143.709 79.9678 143.471 79.6105 143.23 79.248Z" fill="#BC7E54"/>
<path d="M90.4276 71.584C90.8409 80.33 91.2666 88.9414 90.5651 97.6978C89.7048 108.443 89.9629 119.933 88.3847 130.585C87.7307 129.394 88.4002 78.963 88.2594 72.516L90.4276 71.584Z" fill="#BC7E54"/>
<path d="M106.677 142.696C107.886 144.436 107.747 154.477 107.216 157.04C104.069 172.223 109.624 193.283 108.382 206.855C104.28 200.667 104.503 149.745 106.677 142.696Z" fill="#BC7E54"/>
<path d="M4.61815 10.7704C7.19483 5.17897 10.5125 3.93929 16.4249 3.94292C77.5644 3.98123 138.712 3.85282 199.85 3.94551C205.401 3.95431 208.371 5.46997 210.523 10.7239C210.81 12.1375 211.187 13.7169 211.27 15.1358L211.113 17.9734L211.134 39.1007L210.957 42.2388C209.525 46.4125 209.027 47.0856 205.395 49.5816C196.97 50.1563 185.177 49.8146 176.441 49.8249L122.264 49.8353L47.418 49.8871C37.0859 49.8508 26.7363 49.9906 16.4083 49.7266C8.88135 49.5349 6.05769 49.4004 3.78705 41.8659C3.17603 34.8235 3.42873 24.6637 3.36555 17.352C3.60685 14.3848 3.61256 13.6029 4.61815 10.7704Z" fill="#DDA26D"/>
<path d="M4.61914 10.7704C7.19581 5.17897 10.5135 3.93929 16.426 3.94292C77.5654 3.98123 138.712 3.85282 199.851 3.94551C205.402 3.95431 208.372 5.46997 210.523 10.7239L209.804 11.4178C208.423 11.8113 201.694 9.71403 199.339 9.45514C187.322 7.97935 174.452 10.6048 162.541 9.10304C137.957 5.94844 113.537 8.90633 88.8551 9.19111C67.8868 9.42934 47.3195 7.24404 26.3981 7.74115C22.138 7.83954 7.03218 11.7181 4.61914 10.7704Z" fill="#EEBB8C"/>
<path d="M3.36555 17.3525C3.47015 17.394 3.57527 17.4354 3.68039 17.4768C14.7716 20.2989 95.8138 15.9078 101.053 18.9836C97.6329 21.6194 61.0159 20.1436 53.6282 20.4129C37.2698 21.0084 20.074 21.811 3.73474 21.5158L3.87715 37.5995C8.52251 38.0552 45.1872 39.878 45.8909 40.7168C39.5492 43.7255 12.2425 41.8198 3.78705 41.8665C3.17603 34.824 3.42873 24.6642 3.36555 17.3525Z" fill="#BC7E54"/>
<path d="M210.957 42.2397C192.967 41.406 178.442 41.1988 161.343 42.861C153.76 43.6015 95.7563 43.1251 92.1377 41.4163L93.4122 40.9968L92.6069 41.5198L93.2774 40.9762L93.1683 41.5872L93.6312 40.9089C109.086 38.8634 129.99 40.3082 145.695 40.1788C158.594 40.07 171.512 38.1229 184.34 37.864C192.741 37.6931 202.637 38.5941 211.135 39.1016L210.957 42.2397Z" fill="#BC7E54"/>
<path d="M211.114 17.9735C199.074 16.9223 189.632 16.4356 177.486 16.5702C169.997 16.6583 159.438 17.0155 152.257 16.4562L151.921 15.8193L150.943 16.1714L151.431 16.332L151.256 15.954C156.726 13.8878 179.515 14.6905 186.949 13.5098C191.76 12.7435 206.316 14.561 211.271 15.1358L211.114 17.9735Z" fill="#BC7E54"/>
<path d="M76.9371 29.6663C79.0037 29.5421 84.9487 29.1174 86.3567 29.9615C83.7091 33.5448 68.1306 32.6904 63.5194 32.5869C60.8857 32.5454 56.1497 32.4626 53.7289 31.8102L53.585 31.2715C57.3961 29.7025 72.0815 29.801 76.9371 29.6663Z" fill="#BC7E54"/>
<path d="M122.481 25.5484C125.319 25.3931 131.383 24.8856 133.927 25.7607C133.07 26.9621 132.486 26.755 130.657 27.2987C128.502 27.3505 120.918 27.6352 119.375 26.3096C120.499 25.4034 120.709 25.6935 122.481 25.5484Z" fill="#BC7E54"/>
<path d="M53.102 53.657C57.7234 53.3515 84.8556 52.989 88.7104 53.6156C92.1773 53.626 97.6894 53.481 100.988 53.8537L101.851 54.7807L101.642 55.459C102.113 56.6139 102.718 58.2554 103.288 59.322C101.178 61.9577 100.812 61.7351 97.8641 62.9882L98.2402 63.9048C95.7764 65.681 92.4984 68.1406 89.5219 68.9329C86.9616 70.1394 84.3151 71.7033 81.4867 71.4961C80.6374 73.1791 72.9411 74.7533 70.714 75.2866C69.5013 74.5461 66.9624 73.0962 65.9693 72.2521L65.4996 72.9408C66.3845 73.5415 66.7873 73.9196 67.5858 74.6031L67.0531 75.2452C65.5493 75.6957 62.9923 76.0168 61.4139 75.8665C54.5233 75.2037 41.8751 75.3073 36.6037 70.7453L38.0334 71.9C33.9924 71.5946 30.1817 69.6475 26.4808 68.0008C25.904 66.3076 25.0626 64.4951 24.4199 62.7293L22.6863 61.6523C21.8117 61.2225 18.4474 59.032 17.463 58.4159L17.2383 57.8411L17.7877 57.142L20.4882 57.2818C19.1806 56.0494 18.437 54.9619 17.3683 53.543C29.2797 53.4706 41.1911 53.5068 53.102 53.657Z" fill="#BC7E54"/>
<path d="M88.7104 53.616C92.1773 53.6263 97.6894 53.4813 100.988 53.8542L101.851 54.7811L101.642 55.4595C102.113 56.6142 102.718 58.2557 103.288 59.3225C101.178 61.9582 100.812 61.7355 97.8641 62.9886L98.2402 63.9052C95.7764 65.6813 92.4984 68.141 89.5219 68.9333C86.9616 70.1398 84.3151 71.7037 81.4867 71.4966C80.6374 73.1795 72.9411 74.7537 70.714 75.287C69.5013 74.5466 66.9624 73.0967 65.9693 72.2526L65.4996 72.9413C66.3845 73.542 66.7873 73.92 67.5858 74.6035L67.0531 75.2456C65.5493 75.6962 62.9923 76.0171 61.4139 75.867C54.5233 75.2042 41.8751 75.3077 36.6037 70.7456L38.0334 71.9005C33.9924 71.5949 30.1817 69.6479 26.4808 68.0012C25.904 66.3079 25.0626 64.4955 24.4199 62.7297L22.6863 61.6527C21.8117 61.2229 18.4474 59.0325 17.463 58.4162L17.2383 57.8414L17.7877 57.1424L20.4882 57.2822C25.5125 60.4824 32.8101 65.5 38.5228 66.5305C42.0345 67.5973 44.618 68.3585 48.2007 69.0731L49.6476 69.1612C60.0335 70.8907 69.2527 70.0414 79.3398 67.1312C82.136 66.515 84.7661 65.0859 87.3619 63.8327L88.9028 63.0094C88.9623 59.8403 88.8283 56.7748 88.7104 53.616Z" fill="#4C1E08"/>
<path d="M24.4209 62.7295C32.3953 66.9497 39.8845 69.3732 48.7288 71.4238C52.1832 72.2265 61.0063 70.7247 65.5005 72.941C66.3854 73.5417 66.7883 73.9197 67.5868 74.6033L67.054 75.2454C65.5502 75.6959 62.9932 76.0169 61.4149 75.8668C54.5243 75.2039 41.8761 75.3075 36.6047 70.7454L38.0344 71.9003C33.9933 71.5947 30.1827 69.6477 26.4818 68.001C25.905 66.3077 25.0635 64.4952 24.4209 62.7295Z" fill="#E1AD84"/>
<path d="M88.7109 53.616C92.1778 53.6263 97.69 53.4813 100.988 53.8542C96.6088 57.9347 94.2922 60.1665 88.9025 63.0094C88.9628 59.8403 88.8289 56.7748 88.7109 53.616Z" fill="#BC7E54"/>
<path d="M101.642 55.459C102.113 56.6137 102.718 58.2552 103.288 59.322C101.179 61.9577 100.812 61.735 97.8641 62.9882L98.2402 63.9047C95.7763 65.6808 92.4983 68.1405 89.5219 68.9328L89.4775 64.7435L91.7276 63.7701C95.3879 60.9945 98.5683 58.9026 101.642 55.459Z" fill="#E1AD84"/>
<path d="M89.4775 64.7441L91.7276 63.7705L98.2402 63.9052C95.7763 65.6813 92.4983 68.141 89.5219 68.9333L89.4775 64.7441Z" fill="#EEBB8C"/>
<path d="M65.9697 72.2519C65.9837 71.9775 66.2245 71.76 66.3711 71.5269C72.3881 70.7087 75.682 69.8907 81.4872 71.4959C80.638 73.1789 72.9417 74.753 70.7145 75.2863C69.5017 74.5458 66.9629 73.0959 65.9697 72.2519Z" fill="#E1AD84"/>
<path d="M81.4871 71.4956L79.2729 70.4806L79.0947 69.7764C80.2686 68.8444 87.4249 65.7788 89.4774 64.7432L89.5217 68.9324C86.962 70.1389 84.3154 71.7028 81.4871 71.4956Z" fill="#DDA26D"/>
<path d="M49.6479 69.1612C49.2606 67.5094 48.9401 66.8879 49.4164 65.3345C53.3187 64.7701 72.2658 66.5358 77.7515 66.3287C78.1373 66.3132 79.0052 66.9034 79.3402 67.1313C69.253 70.0415 60.0338 70.8908 49.6479 69.1612Z" fill="#D29B74"/>
<path d="M53.1025 53.657C57.7241 53.3515 84.8563 52.989 88.7118 53.6156C88.8288 56.7743 88.9628 59.8399 88.9033 63.009L87.3625 63.8323L87.3299 53.8537C77.6984 53.8849 62.3275 54.3716 53.1025 53.657Z" fill="#A36B45"/>
<path d="M38.5234 66.5306L39.6466 65.469C42.2005 64.8166 45.1827 65.1532 47.8562 65.2827L48.2015 69.0732C44.6188 68.3585 42.0353 67.5973 38.5234 66.5306Z" fill="#D29B74"/>
<path d="M47.8563 65.2822C47.2619 62.0717 46.4105 58.1673 47.236 54.9723L48.0334 54.4131C48.5942 56.9401 48.8723 62.6102 48.4508 65.1372L47.8563 65.2822Z" fill="#A36B45"/>
<path d="M102.914 54.4545C107.862 53.1184 108.208 55.2623 110.963 59.2857L111.566 58.5763C115.273 61.8749 119.21 63.8944 120.543 68.213L120.593 66.2919C122.299 65.9243 126.404 68.5963 129.185 69.4766C135.786 71.5634 139.17 72.5266 146.148 73.5157C149.348 73.5881 157.699 73.3292 159.902 74.1681L160.117 73.7952L160.871 73.0702C167.399 71.5426 171.884 70.5847 178.545 72.6302L179.246 72.3557C177.544 71.5944 174.231 70.9835 172.302 70.5537C176.425 69.1814 178.799 68.3322 182.798 66.4473C184.865 66.9393 186.57 67.4623 188.581 68.094L189.884 67.3587C188.099 66.8305 187.504 66.6492 185.844 65.8466L185.959 65.0233L188.04 63.7598C192.676 60.7615 193.927 60.2127 199.224 60.6321C200.477 60.3991 200.606 60.2644 201.81 60.715L202.01 61.4089C200.048 63.7339 198.282 64.2518 197.177 66.7166C197.289 67.6435 197.136 67.3328 197.675 68.037C198.891 67.1101 199.728 66.1521 201.07 65.9657C201.212 70.243 197.848 71.1646 197.766 74.2975C197.699 76.8867 197.732 76.8712 196.833 79.4861C195.855 80.4234 194.243 81.8733 193.395 82.8416L194.059 82.9246L191.258 85.5965C188.988 85.7467 189.835 85.9849 187.923 84.9079L193.721 67.4519C189.93 69.9115 188.474 70.8125 184.284 72.4903C183.156 72.9408 181.639 73.4742 180.635 74.0646C176.645 75.5662 170.804 77.4097 166.59 78.3107L163.976 78.4401C161.787 78.7974 159.595 79.1289 157.397 79.4292C154.285 79.6933 149.961 79.6311 146.756 79.6829L143.23 79.248C137.776 78.6628 131.685 77.068 126.58 75.1261L123.715 73.9195C116.432 70.2326 111.309 67.079 105.698 61.1033C105.42 60.6528 103.814 59.6742 103.288 59.322C102.718 58.2553 102.114 56.6138 101.643 55.4591L101.851 54.7807L102.914 54.4545Z" fill="#4C1E08"/>
<path d="M129.184 69.4766C135.785 71.5634 139.17 72.5265 146.147 73.5156C149.347 73.5881 157.698 73.3291 159.901 74.168L162.813 75.8769L162.439 76.3895C158.57 76.7002 149.79 77.2129 145.98 76.9333C140.689 76.1876 138.187 75.7578 133.002 74.5046C131.982 72.3815 130.58 71.6825 128.633 70.3154L129.184 69.4766Z" fill="#E1AD84"/>
<path d="M197.675 68.0371C198.891 67.1102 199.728 66.1522 201.069 65.9658C201.211 70.243 197.848 71.1648 197.766 74.2976C197.699 76.8867 197.731 76.8712 196.832 79.4862C195.854 80.4235 194.243 81.8734 193.395 82.8418L192.209 83.4476L191.654 82.8211C191.623 80.1128 195.847 70.5744 197.675 68.0371Z" fill="#E1AD84"/>
<path d="M160.116 73.796L160.871 73.0711C167.399 71.5435 171.884 70.5855 178.544 72.6309C173.866 74.1637 170.505 75.1217 165.543 75.8622L160.116 73.796Z" fill="#E1AD84"/>
<path d="M182.798 66.4473C184.866 66.9391 186.57 67.4621 188.581 68.0939C185.554 69.4454 182.182 70.8695 179.246 72.3556C177.544 71.5944 174.232 70.9833 172.303 70.5535C176.425 69.1813 178.799 68.3321 182.798 66.4473Z" fill="#E1AD84"/>
<path d="M120.543 68.2125L120.593 66.2913C122.299 65.9237 126.403 68.5957 129.184 69.4759L128.632 70.3149C130.58 71.6819 131.982 72.381 133.001 74.5041C127.881 73.2561 124.973 71.7389 120.437 69.041L120.543 68.2125Z" fill="#E1AD84"/>
<path d="M188.04 63.7595C192.676 60.7613 193.927 60.2124 199.224 60.6319C198.069 61.4656 193.421 64.9246 192.456 65.3854C191.923 65.7842 190.292 66.9701 189.884 67.3584C188.099 66.8302 187.504 66.649 185.844 65.8464L185.959 65.0231L188.04 63.7595Z" fill="#E1AD84"/>
<path d="M188.04 63.7588C190.332 64.2404 190.801 63.9763 192.456 65.3848C191.923 65.7835 190.292 66.9694 189.884 67.3578C188.099 66.8296 187.504 66.6483 185.844 65.8457L185.959 65.0224L188.04 63.7588Z" fill="#E1AD84"/>
<path d="M111.566 58.5762C115.273 61.8747 119.211 63.8942 120.544 68.2129L120.437 69.0416C118.126 68.5082 113.182 65.9656 112.558 63.5629C112.133 62.1492 111.833 60.0831 111.566 58.5762Z" fill="#E1AD84"/>
<path d="M102.914 54.4545C107.862 53.1184 108.208 55.2623 110.963 59.2857L111.566 58.5763C111.833 60.0832 112.133 62.1493 112.557 63.563C109.208 62.0717 105.453 57.3232 102.914 54.4545Z" fill="#D29B74"/>
<path d="M145.042 53.3825C157.148 53.2117 169.256 53.1857 181.363 53.3048C184.084 53.3048 195.534 53.1081 197.606 53.5793C194.894 57.4215 190.402 59.7 186.223 61.8593L182.423 63.8737C176.93 66.6854 173.555 68.1665 167.478 69.6215L164.917 70.1652C162.808 70.5846 160.407 71.1388 158.294 71.3718C154.275 71.7084 150.99 71.8637 146.967 71.9569C147.224 69.9012 147.358 67.2706 147.52 65.1631C148.168 61.4969 148.457 57.6442 148.81 53.9314C147.584 53.89 146.268 53.6 145.042 53.3825Z" fill="#BC7E54"/>
<path d="M148.809 53.9309C154.432 53.672 159.98 53.7186 165.607 53.7342C165.61 57.2709 165.899 67.3167 164.916 70.1648C162.808 70.5842 160.406 71.1384 158.293 71.3713C154.274 71.7079 150.99 71.8633 146.967 71.9565C147.223 69.9007 147.357 67.2702 147.519 65.1627C148.168 61.4964 148.457 57.6437 148.809 53.9309Z" fill="#BC7E54"/>
<path d="M147.519 65.1631C151.526 64.9922 154.816 64.9766 158.819 65.044L158.293 71.3719C154.274 71.7084 150.99 71.8637 146.967 71.9569C147.223 69.9012 147.357 67.2706 147.519 65.1631Z" fill="#DDA26D"/>
<path d="M186.367 53.8949C189.764 53.8328 194.308 53.8794 197.606 53.5791C194.894 57.4214 190.402 59.6998 186.223 61.8592C185.412 60.1037 186.125 55.9663 186.367 53.8949Z" fill="#BC7E54"/>
<path d="M145.042 53.3825C157.148 53.2117 169.256 53.1857 181.363 53.3048C184.084 53.3048 195.534 53.1081 197.606 53.5793C194.308 53.8796 189.764 53.833 186.367 53.8951L183.723 53.8796L167.705 53.8433C167.459 56.3185 165.635 68.415 167.478 69.6215L164.917 70.1652C165.899 67.3172 165.611 57.2714 165.608 53.7346C159.981 53.7191 154.433 53.6725 148.81 53.9314C147.584 53.89 146.268 53.6 145.042 53.3825Z" fill="#A36B45"/>
<path d="M183.723 53.8799L186.367 53.8954C186.125 55.9667 185.412 60.1042 186.222 61.8596L182.423 63.874C182.619 60.767 183.266 57.0127 183.723 53.8799Z" fill="#A36B45"/>
<path d="M110.267 53.693C113.622 53.0146 140.16 53.3512 145.041 53.3823C146.267 53.5997 147.583 53.8897 148.808 53.9312C148.457 57.6439 148.168 61.4966 147.518 65.1628C147.357 67.2704 147.222 69.901 146.967 71.9567L145.531 71.5165L144.937 71.4337C140.329 70.6104 132.622 68.6685 128.284 67.0943L126.648 66.4263L123.56 65.0955C120.093 63.2054 112.012 57.2763 110.267 53.693Z" fill="#BC7E54"/>
<path d="M110.267 53.693C113.622 53.0146 140.16 53.3512 145.041 53.3823C146.267 53.5997 147.583 53.8897 148.808 53.9312C148.457 57.6439 148.168 61.4966 147.518 65.1628C147.357 67.2704 147.222 69.901 146.967 71.9567L145.531 71.5165C146.174 68.0367 145.322 58.778 145.733 53.869L126.59 53.8482C126.725 58.0013 126.659 62.2629 126.648 66.4263L123.56 65.0955C120.093 63.2054 112.012 57.2763 110.267 53.693Z" fill="#A36B45"/>
<path d="M110.267 53.6934C114.952 53.9781 119.442 53.8798 124.129 53.828C124.141 56.4379 124.477 63.0246 123.56 65.0959C120.093 63.2059 112.012 57.2767 110.267 53.6934Z" fill="#BC7E54"/>
<path d="M128.284 67.0944C130.693 65.6807 141.72 64.8936 144.429 65.4063C145.159 66.9286 144.939 69.6265 144.937 71.4338C140.329 70.6105 132.622 68.6686 128.284 67.0944Z" fill="#DDA26D"/>
<path d="M96.113 269.969C97.6305 268.059 97.7059 267.857 100.368 267.614C104.456 267.24 108.445 267.189 111.638 270.006C112.99 271.31 112.866 270.839 113.358 272.434C111.401 274.34 98.7436 273.263 95.643 273.118L95.251 272.31L96.113 269.969Z" fill="#E1AD84"/>
<path d="M111.638 270.004C112.99 271.309 112.866 270.838 113.358 272.432C111.401 274.338 98.7436 273.262 95.643 273.116L95.251 272.308L96.113 269.968C98.5866 271.868 109.154 271.775 111.638 270.004Z" fill="#D29B74"/>
<path d="M36.4258 273.128C42.5495 265.454 45.9687 266.966 54.9932 267.484L55.3997 268.639C54.2652 269.98 52.6138 271.627 52.1727 273.237C51.9102 273.117 51.1355 272.502 50.8683 272.3C48.5966 273.791 39.613 273.17 36.4258 273.128Z" fill="#EEBB8C"/>
<path d="M54.994 267.483L55.4005 268.638C54.266 269.979 52.6147 271.626 52.1735 273.237C51.911 273.117 51.1363 272.501 50.8691 272.299C51.8669 270.269 53.3577 269.073 54.994 267.483Z" fill="#4C2D1F"/>
<path d="M127.587 267.607C133.315 267.551 140.239 266.717 144.921 269.968C146.617 271.372 147.209 271.771 148.431 273.578C143.47 273.034 139.061 273.868 134.18 273.267C131.712 272.962 131.618 272.247 130.344 270.455L127.587 267.607Z" fill="#E1AD84"/>
<path d="M144.921 269.968C146.617 271.372 147.208 271.77 148.43 273.577C143.47 273.034 139.06 273.867 134.179 273.266C131.711 272.961 131.617 272.246 130.344 270.455C133.727 271.138 142.114 271.987 144.921 269.968Z" fill="#D29B74"/>
<path d="M176.644 267.245L188.838 267.136C190.749 268.228 191.826 269.129 193.537 270.476L195.074 272.133L194.824 272.884C191.482 274.091 182.858 274.288 180.474 271.247C179.43 269.829 177.926 268.487 176.644 267.245Z" fill="#E1AD84"/>
<path d="M193.538 270.476L195.076 272.133L194.826 272.884C191.484 274.091 182.859 274.287 180.475 271.247C184.253 271.118 189.959 271.087 193.538 270.476Z" fill="#D29B74"/>
<path d="M161.241 267.359C165.084 267.256 168.928 267.214 172.771 267.235C174.749 268.307 175.612 269.099 177.331 270.502L178.871 272.061L178.743 272.869C175.466 274.137 167.628 274.36 165.339 271.186C164.179 269.695 162.697 268.581 161.241 267.359Z" fill="#D29B74"/>
<path d="M177.331 270.503L178.871 272.062L178.744 272.869C175.466 274.138 167.628 274.361 165.339 271.187C168.727 271.109 174.173 271.161 177.331 270.503Z" fill="#AD764F"/>
<path d="M112.159 267.691C116.729 267.562 121.956 267.044 126.134 268.717C128.343 270.565 128.821 270.954 130.557 273.325C126.065 273.18 121.102 273.252 116.572 273.232C115.243 271.43 113.583 269.456 112.159 267.691Z" fill="#E1AD84"/>
<path d="M24.6277 269.922C27.6099 267.441 35.4222 265.976 38.6398 268.005L37.5954 269.3L34.1928 273.293L21.6445 273.189C22.5078 272.112 23.6682 270.942 24.6277 269.922Z" fill="#D29B74"/>
<path d="M24.6279 269.922C27.6101 267.441 35.4224 265.976 38.6401 268.005L37.5956 269.3C33.9491 269.435 26.9928 271.216 24.6279 269.922Z" fill="#E1AD84"/>
<path d="M145.584 267.623C149.38 267.556 153.341 267.664 157.149 267.711C160.581 269.866 161.37 270.409 164.283 273.252L150.924 273.303C149.186 271.134 147.556 269.576 145.584 267.623Z" fill="#E1AD84"/>
<path d="M83.4251 267.752C87.2405 267.575 91.574 267.731 95.4285 267.783C94.7429 269.461 93.8631 272.397 92.4786 273.251L79.627 273.287C81.068 270.709 81.4424 269.999 83.4251 267.752Z" fill="#E1AD84"/>
<path d="M55.3999 268.638C58.5742 266.64 63.8254 267.37 67.7028 267.531L64.0662 273.216C60.3757 273.211 55.7904 273.071 52.1729 273.237C52.6141 271.626 54.2654 269.979 55.3999 268.638Z" fill="#EEBB8C"/>
<path d="M70.0257 267.565C73.4852 267.441 77.9282 267.596 81.4664 267.612L77.8116 273.262L65.834 273.236C67.433 270.59 67.9565 269.86 70.0257 267.565Z" fill="#E1AD84"/>
<path d="M17.1367 267.24C19.7222 267.261 22.5106 267.405 25.1133 267.494C22.8317 269.497 21.4735 270.932 19.4183 273.19C16.4408 273.277 14.936 273.888 13.0107 271.398L13.207 270.161C14.5336 268.431 15.1639 268.239 17.1367 267.24Z" fill="#E1AD84"/>
<path d="M192.646 267.592C198.308 267.063 200.819 267.333 202.67 273.158C197.249 273.412 197.379 271.512 192.646 267.592Z" fill="#D29B74"/>
<path d="M18.0484 81.6507C17.4457 79.7555 16.0662 76.4932 16.7249 74.9346C18.3793 74.9553 18.7734 75.3436 20.2823 76.1773C21.2019 77.8603 22.4323 79.6313 22.5105 81.4592L21.8156 82.2308C20.1772 82.1272 19.1649 81.7388 18.0484 81.6507Z" fill="#EEBB8C"/>
<path d="M205.465 52.9385L205.725 53.3372C204.799 57.9148 199.901 59.4631 195.717 59.6391C195.539 59.4631 195.656 59.6236 195.415 58.8521C198.395 56.3458 201.693 53.9378 205.465 52.9385Z" fill="#DDA26D"/>
<path d="M17.4634 58.416C18.4478 59.0322 21.812 61.2226 22.6866 61.6524C23.4281 63.9619 24.8216 65.821 26.1493 67.8767C22.1983 65.619 16.8995 63.6253 17.4634 58.416Z" fill="#DDA26D"/>
<path d="M194.059 82.9244L195.775 81.9404L196.298 82.4687C195.963 84.136 194.981 86.5077 193.798 87.7039C192.407 88.6877 191.803 88.9989 190.761 90.3141L189.86 90.4534L189.405 89.7855C189.762 87.8748 190.248 87.3155 191.258 85.5963L194.059 82.9244Z" fill="#E1AD84"/>
<path d="M13.1221 66.4375C18.3453 68.167 18.3562 69.7723 19.9941 74.7745C14.9417 73.1226 14.7573 71.1911 13.1221 66.4375Z" fill="#E1AD84"/>
<path d="M25.3706 94.498C21.1001 93.5144 20.7811 90.8892 20.1846 87.0879C22.999 89.589 26.4538 90.2728 25.3706 94.498Z" fill="#EEBB8C"/>
<path d="M18.0469 81.6504C20.8074 83.6492 22.3681 84.5813 24.3735 87.3103L24.4585 88.1802C22.8719 88.714 22.2158 87.9213 20.1844 87.0876C19.0468 85.4306 18.6418 83.5923 18.0469 81.6504Z" fill="#EEBB8C"/>
<path d="M190.761 90.3137C191.804 88.9984 192.407 88.6879 193.798 87.7041C194.902 91.0596 192.828 92.4166 190.369 94.5496C189.483 93.8143 189.521 93.8871 189.068 92.8308C189.701 92.0175 190.263 91.2201 190.761 90.3137Z" fill="#DDA26D"/>
<path d="M11.1182 61.3877C14.0128 62.5218 16.0374 64.5982 17.5013 67.2754C14.8625 66.0999 12.3894 64.0286 11.1182 61.3877Z" fill="#DDA26D"/>
</g>
<defs>
<clipPath id="clip0_1846_210">
<rect width="215.518" height="317.512" fill="white"/>
</clipPath>
</defs>
</svg>
