<svg width="243" height="358" viewBox="0 0 243 358" fill="none" xmlns="http://www.w3.org/2000/svg">
<path d="M19.2785 297.517C23.5698 274.67 22.6444 260.506 22.6351 237.403L22.6018 180.71L22.6357 140.307C22.6444 132.186 23.2528 116.421 21.6291 108.691C17.4826 90.685 10.8401 72.4862 4.28877 55.2332C3.71426 53.721 0.562062 50.7024 0.600596 48.5538C0.760571 39.6033 -3.29835 5.9158 7.73291 2.73202C21.6706 -1.29076 44.2556 0.312516 59.4468 0.329448L136.366 0.372675L193.597 0.330054C242.359 0.292103 245.23 -4.03545 241.261 49.5989C241.047 52.489 235.734 57.4109 235.006 60.4995C229.171 75.1544 224.403 90.4281 220.887 105.772C219.585 111.459 219.979 123.749 219.992 129.984L220.048 163.866L220.011 229.964C220.003 256.915 219.099 271.132 223.359 297.674C229.559 300.465 231.466 301.142 232.324 308.16C236.711 311.109 241.331 314.379 241.985 320.042C243.048 329.244 243.313 349.737 240.446 357.783H236.068H6.53602H1.92769C-0.427557 349.212 0.224015 341.423 0.0949841 332.712C-0.0766678 321.14 0.0015713 314.624 10.8489 308.382C11.2237 301.65 12.726 299.77 19.2785 297.517Z" fill="#552E17"/>
<path d="M4.48522 320.1C5.80648 317.122 7.53408 314.454 10.6022 313.047C12.6416 312.107 15.071 312.125 17.2762 312.09C33.7314 311.833 227.904 311.173 231.871 312.749C235.126 314.045 236.633 316.877 237.97 319.89L238.225 323.527L238.114 327.27C238.569 333.967 238.457 342.234 238.402 349.065C238.335 349.532 237.903 352.685 237.818 352.948L236.069 357.782H6.53629L4.55411 353.193L4.06368 350.116L3.88794 342.479C3.98603 336.104 3.65206 328.537 4.39763 322.354L4.48522 320.1Z" fill="#DDA26D"/>
<path d="M4.55371 353.193C12.7562 354.968 20.4175 355.015 28.7438 355.044C43.2057 355.091 57.1954 355.593 71.603 356.825C96.8674 358.985 122.466 355.027 147.776 355.447C176.082 355.371 205.193 359.522 233.044 353.514C236.267 352.802 236.19 350.887 237.817 352.948L236.068 357.782H6.53589L4.55371 353.193Z" fill="#EEBB8C"/>
<path d="M4.48505 320.1C28.2927 320.988 48.5663 320.754 72.2688 318.629C86.8143 317.327 104.299 319.773 118.956 319.966C122.995 320.234 137.51 320.258 140.361 320.9C132.962 322.29 119.974 322.085 112.279 322.079L76.3388 322.109C63.1357 322.208 50.6857 323.463 37.5998 323.971C27.0853 324.386 14.9062 323.34 4.39746 322.354L4.48505 320.1Z" fill="#BC7E54"/>
<path d="M238.114 327.27C238.569 333.967 238.457 342.234 238.402 349.065C237.991 347.95 237.936 347.898 237.364 346.852C224.202 344.353 201.036 346.782 187.101 346.724C169.014 346.642 150.782 346.029 132.706 345.323L132.739 344.733L132.469 345.171C134.936 342.999 157.318 343.005 162.265 343.063C187.617 343.384 212.532 341.749 237.895 342.76C237.843 337.616 237.677 332.39 238.114 327.27Z" fill="#BC7E54"/>
<path d="M3.88794 342.48C4.34801 343.91 4.22949 344.634 5.43573 345.131C8.64398 346.45 15.0009 346.328 17.6931 346.748C27.1234 348.243 69.978 345.86 75.9227 348.867L75.691 349.387C58.7301 349.726 41.851 351.804 24.8487 351.355C20.248 351.232 7.38286 348.809 4.06368 350.117L3.88794 342.48Z" fill="#BC7E54"/>
<path d="M237.97 319.89L238.225 323.528C226.882 324.643 202.053 322.64 189.799 321.665C201.805 318.787 233.288 321.729 237.97 319.89Z" fill="#BC7E54"/>
<path d="M156.25 330.521C159.393 330.066 181.676 329.943 183.788 331.432C181.157 332.145 178.97 332.296 176.279 332.588C167.541 333.452 154.376 333.563 145.421 333.569C149.771 331.794 151.635 331.199 156.25 330.521Z" fill="#BC7E54"/>
<path d="M97.3305 336.378C101.113 336.18 107.671 335.777 111.219 336.746L111.562 337.616L109.9 338.41C106.406 338.439 98.601 338.725 95.569 337.873L95.5591 337.085L97.3305 336.378Z" fill="#BC7E54"/>
<path d="M101.96 80.7123C107.67 77.431 113.908 72.8653 119.176 68.895C125.503 75.6327 131.279 79.1884 139.491 83.3455L142.721 84.7059C148.477 86.8954 155.345 88.6937 161.495 89.3534L165.47 89.8439C169.084 89.7855 173.959 89.8555 177.468 89.5578C179.946 89.2191 182.418 88.8454 184.886 88.4426L187.833 88.2966C192.585 87.2807 199.171 85.2022 203.669 83.509C204.801 82.8434 206.513 82.242 207.784 81.7341C212.508 79.8424 214.15 78.8265 218.424 76.0531L211.888 95.735C210.393 101.959 207.473 107.587 215.54 109.497C216.116 113.858 215.915 121.81 215.899 126.475L215.777 155.178L215.825 221.551C215.827 238.477 215.6 255.625 216.153 272.533C216.415 280.573 218.041 289.226 219.112 297.236C214.964 297.785 210.129 297.423 205.895 297.254L195.67 297.16C190.966 297.47 180.228 297.896 175.687 297.499C136.567 298.731 96.1731 297.078 57.0756 297.324L54.5324 297.289C46.3795 297.417 38.2243 297.388 30.0726 297.207L23.356 297.493L25.184 288.157C27.5936 268.977 27.0891 247.077 27.0401 227.605C26.7581 200.421 26.7633 173.236 27.0564 146.052C27.1078 140.984 25.2897 111.657 26.6489 109.351L30.0241 108.702C31.4826 106.928 32.2959 105.339 31.6863 103.01C29.3895 94.2403 26.1398 83.9352 22.3103 75.7787L31.8703 80.3212L33.9079 81.2612C40.8318 84.1221 46.5769 86.3115 54.1552 87.3975L57.5223 88.0456C71.2013 89.4819 87.061 87.8704 99.5145 81.7633L101.96 80.7123Z" fill="#DDA26D"/>
<path d="M22.3103 75.7786L31.8703 80.321L33.9079 81.261C40.8318 84.1219 46.5769 86.3114 54.1552 87.3974L57.5223 88.0454C59.3375 122.376 59.9785 157.233 57.5042 191.528C57.0528 197.782 56.0294 204.07 55.9091 210.346C55.8787 225.036 57.0482 239.755 57.4948 254.439C57.656 266.875 57.6717 279.23 57.6753 291.666C62.5843 292.057 69.6056 292.384 74.3074 292.991C73.5204 278.57 71.0039 234.781 76.2784 222.753C75.1283 237.98 75.4237 253.254 76.0367 268.504C76.3614 276.579 77.3849 284.992 77.5822 293.02C84.8085 293.009 92.461 293.126 99.6365 292.699C99.6214 283.69 100.549 275.289 100.935 266.338C101.493 252.822 101.674 239.288 101.475 225.76C101.38 215.712 101.044 205.669 100.467 195.639C99.8339 185.287 98.2557 168.828 99.6856 159.013C102.135 168.536 103.022 186.134 103.356 196.071C104.205 215.659 104.207 235.271 103.364 254.854C102.854 267.401 101.594 280.292 101.257 292.635L161.642 286.189C162.219 278.733 162.58 271.26 162.725 263.781C162.786 259.577 162.571 252.781 162.841 248.922C162.748 245.693 162.541 236.375 163.185 233.665C164.143 234.763 164.039 236.474 164.249 238.179C165.613 251.286 165.51 272.13 164.47 285.553C165.829 285.103 172.722 283.013 172.923 281.081C178.78 224.791 174.066 167.52 177.375 110.962C177.609 106.962 178.316 92.3952 177.468 89.5576C179.946 89.219 182.418 88.8453 184.886 88.4424L187.833 88.2964C192.585 87.2805 199.171 85.202 203.669 83.5088C204.801 82.8432 206.513 82.2418 207.784 81.7339C212.508 79.8422 214.15 78.8263 218.424 76.053L211.888 95.7349C210.393 101.959 207.473 107.587 215.54 109.496C216.116 113.858 215.915 121.81 215.899 126.475L215.777 155.177L215.825 221.55C215.827 238.476 215.6 255.624 216.153 272.533C216.415 280.573 218.041 289.225 219.112 297.236C214.964 297.785 210.129 297.423 205.895 297.253L195.67 297.16C190.966 297.469 180.228 297.896 175.687 297.499C136.567 298.731 96.1731 297.078 57.0756 297.323L54.5324 297.288C46.3795 297.417 38.2243 297.388 30.0726 297.207L23.356 297.493L25.184 288.157C27.5936 268.977 27.0891 247.077 27.0401 227.605C26.7581 200.421 26.7633 173.236 27.0564 146.052C27.1078 140.984 25.2897 111.657 26.6489 109.35L30.0241 108.702C31.4826 106.927 32.2959 105.339 31.6863 103.01C29.3895 94.2402 26.1398 83.9351 22.3103 75.7786Z" fill="#BC7E54"/>
<path d="M22.3103 75.7786L31.8703 80.321L33.9079 81.261C40.8318 84.1219 46.5769 86.3114 54.1552 87.3974C55.9074 114.214 58.6579 136.132 57.461 163.451C56.6302 182.42 54.0758 199.656 53.1539 218.234C52.4895 231.628 54.4652 248.402 55.2569 261.872C55.6183 268.025 54.5768 281.326 55.2756 286.365C55.3591 287.783 55.5442 289.208 55.3089 290.58C54.4092 293.359 54.5236 294.445 54.5324 297.288C46.3795 297.417 38.2243 297.388 30.0726 297.207L23.356 297.493L25.184 288.157C27.5936 268.977 27.0891 247.077 27.0401 227.605C26.7581 200.421 26.7633 173.236 27.0564 146.052C27.1078 140.984 25.2897 111.657 26.6489 109.35L30.0241 108.702C31.4826 106.927 32.2959 105.339 31.6863 103.01C29.3895 94.2402 26.1398 83.9351 22.3103 75.7786Z" fill="#DDA26D"/>
<path d="M25.1841 288.157C27.5936 268.978 27.0892 247.077 27.0401 227.606C26.7581 200.421 26.7634 173.237 27.0565 146.052C27.1079 140.984 25.2898 111.657 26.649 109.351L30.0242 108.703C30.465 115.54 31.0512 122.383 31.5807 129.214C31.9491 133.972 31.7576 140.109 32.4261 144.669L32.4927 149.865C31.6017 154.466 31.9947 169.833 31.9696 175.49L32.1617 235.534C32.2469 244.859 32.5301 280.445 30.305 288.899C28.9628 288.87 26.5795 288.391 25.1841 288.157Z" fill="#EEBB8C"/>
<path d="M45.1095 234.997C46.9585 243.907 46.1867 280.666 45.5246 290.533C48.6996 290.603 50.8435 291.584 53.7177 290.866C55.3718 289.302 54.9228 289.05 55.2749 286.365C55.3584 287.783 55.5435 289.208 55.3082 290.58C54.4085 293.359 54.5229 294.445 54.5316 297.289C46.3788 297.417 38.2235 297.388 30.0718 297.207L23.3552 297.493L25.1833 288.157C26.5787 288.391 28.9619 288.869 30.3042 288.899L30.6376 288.969C33.8324 289.05 39.5419 289.926 42.9083 290.364C42.7239 280.071 43.0654 244.613 45.1095 234.997Z" fill="#BC7E54"/>
<path d="M23.3552 297.493L25.1833 288.157C26.5787 288.391 28.9619 288.87 30.3042 288.899L30.6376 288.969C29.9101 291.59 30.0695 294.469 30.0718 297.207L23.3552 297.493Z" fill="#AD764F"/>
<path d="M35.3123 152.632C35.4968 163.971 35.5523 175.84 36.1875 187.033C37.0995 203.077 40.7877 245.886 36.9302 260.599C35.7596 238.739 36.4964 216.886 34.5562 195.049C34.2877 192.031 34.1114 188.755 34.1388 185.725C34.8318 177.977 33.197 158.547 35.3123 152.632Z" fill="#BC7E54"/>
<path d="M31.8696 80.3214L33.9073 81.2614C38.4426 108.113 44.1077 135.893 43.7405 163.072C43.6996 166.114 43.8613 172.01 43.2874 174.679C42.0724 172.746 42.2306 155.207 41.7886 150.927C40.5042 138.479 39.1298 126.399 36.7611 114.004C34.609 102.736 34.3995 91.6541 31.8696 80.3214Z" fill="#BC7E54"/>
<path d="M32.426 144.668L33.9744 143.974C35.5257 145.772 35.535 150.256 35.3126 152.632C33.1973 158.547 34.8321 177.978 34.139 185.725C33.4764 173.78 32.9275 161.822 32.4926 149.865L32.426 144.668Z" fill="#AD764F"/>
<path d="M187.833 88.2966C186.792 109.847 184.982 131.251 185.374 152.854C185.876 180.5 187.708 208.169 187.958 235.826C188.053 246.33 188.31 257.493 186.527 267.816C185.967 260.856 186.18 253.937 186.08 246.978C185.467 204.175 181.774 161.413 183.963 118.605C184.47 108.679 184.758 98.3857 184.885 88.4426L187.833 88.2966Z" fill="#A36B45"/>
<path d="M205.377 200.765C208.515 215.151 210.243 236.503 209.225 251.228C208.028 268.522 208.265 279.849 209.682 296.938C212.053 296.973 216.981 296.921 219.112 297.236C214.964 297.785 210.128 297.423 205.895 297.254C205.633 277.467 205.874 257.779 206.14 237.992C206.301 225.964 205.062 212.343 205.377 200.765Z" fill="#A36B45"/>
<path d="M207.784 81.7344C204.361 100.809 202.686 120.532 205.346 139.881C205.735 142.707 205.902 143.839 205.291 146.706L204.826 146.922C202.499 137.207 201.832 113.794 202.081 103.326C202.178 99.2502 204.586 85.8448 203.669 83.5093C204.801 82.8437 206.512 82.2423 207.784 81.7344Z" fill="#A36B45"/>
<path d="M184.298 296.997C184.214 293.687 183.947 289.775 184.956 286.651L185.49 287.62L184.697 287.69L185.591 288.117C186.086 290.785 185.983 294.177 186.004 296.968C189.513 296.898 192.164 296.962 195.67 297.161C190.966 297.47 180.228 297.896 175.687 297.499C177.291 296.688 182.189 296.98 184.298 296.997Z" fill="#A36B45"/>
<path d="M55.3084 290.58C58.2907 292.834 57.5825 293.739 57.0752 297.324L54.5319 297.289C54.5232 294.445 54.4087 293.359 55.3084 290.58Z" fill="#AD764F"/>
<path d="M198.538 167.281C198.856 168.717 198.239 200 198.013 202.844C195.45 198.453 197.139 172.553 198.538 167.281Z" fill="#A36B45"/>
<path d="M139.491 83.3456L142.721 84.706C142.188 104.47 144.15 250.878 140.835 255.158C139.624 253.523 140.316 102.502 139.491 83.3456Z" fill="#BC7E54"/>
<path d="M161.495 89.3533L165.47 89.8437C165.164 108.276 160.676 127.648 162.951 146.39C163.198 148.428 163.602 150.536 162.964 152.492L162.062 152.503C161.259 150.904 161.174 145.573 161.078 143.582C160.715 136.056 160.166 128.285 160.516 120.759C160.984 110.682 161.977 100.651 162.306 90.5735C162.035 90.1648 161.766 89.762 161.495 89.3533Z" fill="#BC7E54"/>
<path d="M101.959 80.7122C102.425 90.5735 102.905 100.283 102.114 110.156C101.144 122.271 101.435 135.227 99.6556 147.237C98.9182 145.894 99.6731 89.0322 99.5143 81.7631L101.959 80.7122Z" fill="#BC7E54"/>
<path d="M120.28 160.893C121.643 162.855 121.487 174.176 120.888 177.066C117.34 194.185 123.603 217.93 122.202 233.233C117.577 226.256 117.829 168.84 120.28 160.893Z" fill="#BC7E54"/>
<path d="M5.20737 12.144C8.11261 5.83954 11.8533 4.44178 18.5197 4.44587C87.4555 4.48907 156.4 4.34428 225.335 4.44879C231.593 4.45872 234.942 6.16765 237.368 12.0915C237.692 13.6854 238.117 15.4662 238.211 17.066L238.034 20.2655L238.058 44.0869L237.858 47.6251C236.243 52.331 235.682 53.09 231.587 55.9042C222.087 56.5522 208.791 56.167 198.94 56.1786L137.855 56.1903L53.4649 56.2487C41.8153 56.2078 30.1459 56.3654 18.501 56.0677C10.0142 55.8516 6.83047 55.6999 4.27029 47.2047C3.58135 39.2643 3.86627 27.8089 3.79504 19.5648C4.06711 16.2193 4.07354 15.3377 5.20737 12.144Z" fill="#DDA26D"/>
<path d="M5.20752 12.144C8.11276 5.83954 11.8535 4.44178 18.5199 4.44587C87.4556 4.48907 156.4 4.34428 225.335 4.44879C231.593 4.45872 234.942 6.16765 237.368 12.0915L236.557 12.8739C235 13.3176 227.413 10.9529 224.757 10.661C211.208 8.99702 196.697 11.9572 183.267 10.264C155.548 6.70713 128.014 10.0422 100.185 10.3633C76.5429 10.6319 53.3529 8.16794 29.7637 8.72844C24.9603 8.83938 7.92826 13.2125 5.20752 12.144Z" fill="#EEBB8C"/>
<path d="M3.79504 19.5651C3.91297 19.6118 4.0315 19.6585 4.15002 19.7052C16.6555 22.8872 108.032 17.9361 113.939 21.4042C110.083 24.3761 68.7968 22.7121 60.467 23.0157C42.0226 23.6871 22.6341 24.5921 4.21131 24.2593L4.37188 42.3939C9.6096 42.9077 50.9497 44.9629 51.7431 45.9087C44.5927 49.301 13.804 47.1524 4.27029 47.205C3.58135 39.2645 3.86627 27.8091 3.79504 19.5651Z" fill="#BC7E54"/>
<path d="M237.858 47.6253C217.574 46.6853 201.197 46.4517 181.917 48.3259C173.367 49.1608 107.967 48.6237 103.887 46.6969L105.324 46.224L104.416 46.8137L105.172 46.2007L105.049 46.8897L105.571 46.1248C122.997 43.8185 146.566 45.4475 164.274 45.3016C178.818 45.179 193.383 42.9836 207.847 42.6917C217.319 42.499 228.477 43.5149 238.058 44.0871L237.858 47.6253Z" fill="#BC7E54"/>
<path d="M238.034 20.2653C224.459 19.0801 213.813 18.5313 200.118 18.6831C191.674 18.7824 179.769 19.1852 171.672 18.5546L171.293 17.8365L170.191 18.2335L170.741 18.4145L170.544 17.9883C176.711 15.6587 202.406 16.5637 210.788 15.2325C216.212 14.3684 232.625 16.4177 238.211 17.0658L238.034 20.2653Z" fill="#BC7E54"/>
<path d="M86.7481 33.4493C89.0783 33.3092 95.7814 32.8304 97.3689 33.7821C94.3837 37.8223 76.8186 36.859 71.6194 36.7423C68.6499 36.6955 63.31 36.6021 60.5805 35.8665L60.4182 35.2592C64.7153 33.4901 81.2734 33.6011 86.7481 33.4493Z" fill="#BC7E54"/>
<path d="M138.1 28.8073C141.3 28.6321 148.137 28.0599 151.006 29.0466C150.039 30.4012 149.381 30.1677 147.319 30.7807C144.889 30.8391 136.338 31.1602 134.598 29.6655C135.865 28.6438 136.102 28.9708 138.1 28.8073Z" fill="#BC7E54"/>
<path d="M59.8739 60.4994C65.0847 60.1549 95.6767 59.7462 100.023 60.4527C103.932 60.4644 110.147 60.3009 113.866 60.7212L114.839 61.7664L114.604 62.5312C115.135 63.8333 115.817 65.6841 116.459 66.8868C114.081 69.8586 113.668 69.6076 110.344 71.0205L110.768 72.0539C107.99 74.0566 104.294 76.8299 100.938 77.7232C98.0512 79.0836 95.0672 80.8469 91.8782 80.6133C90.9206 82.5109 82.2429 84.2858 79.7318 84.8871C78.3644 84.0522 75.5018 82.4174 74.382 81.4657L73.8524 82.2422C74.8502 82.9195 75.3044 83.3458 76.2047 84.1165L75.604 84.8404C73.9085 85.3484 71.0254 85.7104 69.2458 85.541C61.4765 84.7937 47.2154 84.9105 41.2718 79.7667L42.8838 81.0687C38.3275 80.7243 34.0309 78.5289 29.8581 76.6723C29.2077 74.7631 28.259 72.7195 27.5344 70.7286L25.5797 69.5142C24.5936 69.0296 20.8003 66.5598 19.6904 65.8651L19.437 65.217L20.0565 64.4288L23.1013 64.5864C21.627 63.1968 20.7886 61.9707 19.5836 60.3709C33.0139 60.2892 46.4442 60.33 59.8739 60.4994Z" fill="#BC7E54"/>
<path d="M100.023 60.4524C103.932 60.4641 110.147 60.3006 113.866 60.721L114.839 61.7661L114.604 62.531C115.135 63.833 115.817 65.6838 116.459 66.8866C114.081 69.8584 113.668 69.6073 110.344 71.0202L110.768 72.0537C107.99 74.0563 104.294 76.8296 100.938 77.7229C98.0512 79.0833 95.0672 80.8466 91.8782 80.6131C90.9206 82.5106 82.2429 84.2855 79.7318 84.8869C78.3644 84.052 75.5018 82.4172 74.382 81.4655L73.8524 82.242C74.8502 82.9193 75.3044 83.3455 76.2047 84.1162L75.604 84.8402C73.9085 85.3482 71.0254 85.7101 69.2458 85.5408C61.4765 84.7935 47.2154 84.9102 41.2718 79.7664L42.8838 81.0685C38.3275 80.724 34.0309 78.5287 29.8581 76.672C29.2077 74.7628 28.259 72.7193 27.5344 70.7283L25.5797 69.5139C24.5936 69.0293 20.8003 66.5596 19.6904 65.8648L19.437 65.2167L20.0565 64.4285L23.1013 64.5861C28.7663 68.1944 36.9945 73.8519 43.4356 75.0138C47.3952 76.2166 50.3081 77.0749 54.3477 77.8806L55.979 77.9799C67.6893 79.9299 78.0841 78.9724 89.4575 75.6911C92.6103 74.9963 95.5757 73.3849 98.5025 71.9719L100.24 71.0436C100.307 67.4704 100.156 64.014 100.023 60.4524Z" fill="#4C1E08"/>
<path d="M27.5347 70.7284C36.526 75.4868 44.9702 78.2193 54.9423 80.5314C58.8372 81.4364 68.7854 79.7431 73.8526 82.2421C74.8504 82.9193 75.3047 83.3456 76.205 84.1163L75.6042 84.8403C73.9087 85.3482 71.0256 85.7102 69.2461 85.5409C61.4768 84.7935 47.2157 84.9103 41.2721 79.7665L42.8841 81.0686C38.3277 80.7241 34.0312 78.5288 29.8584 76.6721C29.208 74.7629 28.2592 72.7193 27.5347 70.7284Z" fill="#E1AD84"/>
<path d="M100.023 60.4524C103.932 60.4641 110.147 60.3006 113.866 60.721C108.928 65.3218 106.316 67.8382 100.239 71.0436C100.307 67.4704 100.156 64.014 100.023 60.4524Z" fill="#BC7E54"/>
<path d="M114.604 62.531C115.135 63.833 115.817 65.6838 116.459 66.8866C114.082 69.8584 113.668 69.6073 110.344 71.0203L110.768 72.0537C107.99 74.0563 104.294 76.8296 100.938 77.7229L100.888 72.9995L103.425 71.9019C107.552 68.7724 111.138 66.4137 114.604 62.531Z" fill="#E1AD84"/>
<path d="M100.888 73L103.425 71.9023L110.768 72.0542C107.99 74.0568 104.294 76.8301 100.938 77.7234L100.888 73Z" fill="#EEBB8C"/>
<path d="M74.3816 81.4653C74.3974 81.1559 74.6689 80.9107 74.8341 80.6479C81.6184 79.7254 85.3323 78.803 91.8778 80.6129C90.9203 82.5105 82.2426 84.2854 79.7314 84.8867C78.364 84.0518 75.5014 82.417 74.3816 81.4653Z" fill="#E1AD84"/>
<path d="M91.8778 80.613L89.3813 79.4686L89.1804 78.6746C90.504 77.6237 98.5728 74.1672 100.887 72.9995L100.937 77.7229C98.0509 79.0833 95.0668 80.8466 91.8778 80.613Z" fill="#DDA26D"/>
<path d="M55.9789 77.9804C55.5422 76.1179 55.1808 75.4172 55.7179 73.6657C60.1178 73.0293 81.4809 75.0202 87.6662 74.7867C88.1011 74.7692 89.0797 75.4347 89.4574 75.6916C78.084 78.9729 67.6891 79.9305 55.9789 77.9804Z" fill="#D29B74"/>
<path d="M59.874 60.4994C65.0849 60.1549 95.6769 59.7462 100.024 60.4527C100.156 64.0142 100.307 67.4707 100.24 71.0439L98.5027 71.9722L98.4659 60.7212C87.6063 60.7563 70.2753 61.3051 59.874 60.4994Z" fill="#A36B45"/>
<path d="M43.4355 75.0139L44.7019 73.817C47.5815 73.0814 50.9439 73.4609 53.9583 73.6069L54.3477 77.8807C50.3081 77.0749 47.3952 76.2166 43.4355 75.0139Z" fill="#D29B74"/>
<path d="M53.9585 73.6067C53.2883 69.9868 52.3284 65.5845 53.2591 61.9821L54.1582 61.3516C54.7905 64.2008 55.1041 70.594 54.6288 73.4432L53.9585 73.6067Z" fill="#A36B45"/>
<path d="M116.038 61.3989C121.617 59.8925 122.007 62.3097 125.113 66.8462L125.793 66.0463C129.972 69.7655 134.412 72.0426 135.915 76.9119L135.971 74.7458C137.895 74.3313 142.523 77.344 145.658 78.3366C153.101 80.6895 156.917 81.7755 164.785 82.8907C168.393 82.9724 177.808 82.6805 180.292 83.6263L180.535 83.2059L181.385 82.3885C188.746 80.6661 193.802 79.586 201.313 81.8923L202.103 81.5828C200.184 80.7245 196.449 80.0356 194.274 79.551C198.922 78.0038 201.599 77.0463 206.108 74.921C208.439 75.4757 210.361 76.0654 212.628 76.7777L214.098 75.9486C212.085 75.3531 211.414 75.1487 209.542 74.2437L209.672 73.3154L212.018 71.8908C217.246 68.5102 218.656 67.8914 224.629 68.3643C226.042 68.1016 226.187 67.9497 227.545 68.4577L227.77 69.2401C225.558 71.8616 223.567 72.4455 222.321 75.2246C222.447 76.2698 222.274 75.9194 222.882 76.7134C224.253 75.6683 225.197 74.5882 226.71 74.378C226.87 79.2007 223.077 80.2399 222.985 83.7723C222.909 86.6916 222.946 86.6741 221.933 89.6225C220.83 90.6793 219.013 92.3141 218.056 93.4059L218.805 93.4994L215.647 96.5121C213.087 96.6814 214.042 96.95 211.887 95.7356L218.424 76.0537C214.15 78.827 212.508 79.8429 207.784 81.7346C206.512 82.2426 204.801 82.844 203.669 83.5096C199.171 85.2027 192.585 87.2813 187.833 88.2972L184.886 88.4431C182.418 88.846 179.946 89.2197 177.468 89.5583C173.959 89.8561 169.084 89.786 165.47 89.8444L161.495 89.354C155.345 88.6942 148.477 86.896 142.721 84.7065L139.491 83.3461C131.279 79.189 125.503 75.6333 119.176 68.8956C118.863 68.3876 117.052 67.2842 116.459 66.8871C115.817 65.6844 115.135 63.8336 114.604 62.5316L114.839 61.7667L116.038 61.3989Z" fill="#4C1E08"/>
<path d="M145.657 78.3362C153.1 80.6891 156.917 81.7751 164.784 82.8903C168.392 82.972 177.808 82.68 180.291 83.6259L183.575 85.5527L183.153 86.1307C178.791 86.481 168.891 87.059 164.595 86.7438C158.629 85.903 155.808 85.4184 149.962 84.0054C148.812 81.6116 147.232 80.8234 145.036 79.282L145.657 78.3362Z" fill="#E1AD84"/>
<path d="M222.882 76.7136C224.253 75.6685 225.197 74.5884 226.709 74.3782C226.869 79.2008 223.077 80.2401 222.985 83.7724C222.909 86.6917 222.945 86.6742 221.932 89.6227C220.829 90.6795 219.013 92.3143 218.056 93.4061L216.719 94.0892L216.094 93.3828C216.059 90.3292 220.821 79.5745 222.882 76.7136Z" fill="#E1AD84"/>
<path d="M180.534 83.2055L181.385 82.3881C188.746 80.6657 193.802 79.5856 201.312 81.8918C196.037 83.62 192.248 84.7002 186.653 85.5351L180.534 83.2055Z" fill="#E1AD84"/>
<path d="M206.108 74.9207C208.439 75.4753 210.361 76.065 212.628 76.7773C209.215 78.3012 205.413 79.9068 202.103 81.5824C200.184 80.7242 196.449 80.0352 194.274 79.5506C198.922 78.0034 201.599 77.0459 206.108 74.9207Z" fill="#E1AD84"/>
<path d="M135.915 76.9113L135.971 74.7452C137.895 74.3307 142.522 77.3434 145.658 78.3359L145.036 79.2818C147.232 80.8232 148.813 81.6114 149.962 84.0052C144.189 82.5981 140.91 80.8874 135.795 77.8455L135.915 76.9113Z" fill="#E1AD84"/>
<path d="M212.018 71.8902C217.246 68.5097 218.656 67.8908 224.629 68.3638C223.326 69.3038 218.085 73.2039 216.997 73.7235C216.397 74.1731 214.558 75.5102 214.098 75.9481C212.085 75.3525 211.414 75.1482 209.542 74.2432L209.672 73.3149L212.018 71.8902Z" fill="#E1AD84"/>
<path d="M212.018 71.8896C214.603 72.4326 215.131 72.1349 216.997 73.723C216.397 74.1725 214.558 75.5096 214.098 75.9475C212.085 75.352 211.414 75.1476 209.542 74.2426L209.672 73.3143L212.018 71.8896Z" fill="#E1AD84"/>
<path d="M125.793 66.0455C129.972 69.7647 134.412 72.0417 135.915 76.9111L135.795 77.8454C133.189 77.244 127.615 74.3772 126.911 71.6681C126.432 70.0742 126.094 67.7446 125.793 66.0455Z" fill="#E1AD84"/>
<path d="M116.038 61.3989C121.617 59.8925 122.007 62.3097 125.113 66.8462L125.793 66.0463C126.094 67.7454 126.432 70.075 126.911 71.6689C123.135 69.9874 118.901 64.6334 116.038 61.3989Z" fill="#D29B74"/>
<path d="M163.537 60.1897C177.187 59.9971 190.839 59.9678 204.489 60.1021C207.558 60.1021 220.468 59.8803 222.804 60.4116C219.746 64.7438 214.681 67.3128 209.969 69.7475L205.685 72.0187C199.491 75.189 195.686 76.8589 188.834 78.4995L185.946 79.1125C183.569 79.5854 180.861 80.2102 178.479 80.4729C173.947 80.8525 170.244 81.0276 165.708 81.1327C165.997 78.8148 166.148 75.8488 166.331 73.4725C167.062 69.3388 167.388 64.9948 167.785 60.8086C166.403 60.7619 164.919 60.4349 163.537 60.1897Z" fill="#BC7E54"/>
<path d="M167.785 60.8084C174.125 60.5165 180.381 60.569 186.725 60.5866C186.729 64.5743 187.054 75.9011 185.946 79.1124C183.569 79.5853 180.861 80.2101 178.479 80.4728C173.947 80.8523 170.244 81.0275 165.708 81.1326C165.997 78.8146 166.148 75.8487 166.331 73.4724C167.062 69.3386 167.388 64.9947 167.785 60.8084Z" fill="#BC7E54"/>
<path d="M166.331 73.4722C170.849 73.2795 174.558 73.262 179.072 73.3379L178.479 80.4727C173.947 80.8522 170.244 81.0273 165.708 81.1324C165.997 78.8145 166.148 75.8485 166.331 73.4722Z" fill="#DDA26D"/>
<path d="M210.132 60.7676C213.962 60.6976 219.085 60.7501 222.804 60.4115C219.746 64.7437 214.681 67.3127 209.969 69.7474C209.055 67.7681 209.859 63.1031 210.132 60.7676Z" fill="#BC7E54"/>
<path d="M163.537 60.1897C177.187 59.9971 190.839 59.9678 204.489 60.1021C207.558 60.1021 220.468 59.8803 222.804 60.4116C219.085 60.7502 213.962 60.6977 210.132 60.7677L207.151 60.7502L189.09 60.7093C188.813 63.5001 186.756 77.1391 188.834 78.4995L185.946 79.1125C187.054 75.9013 186.729 64.5745 186.725 60.5867C180.381 60.5692 174.125 60.5167 167.785 60.8086C166.403 60.7619 164.919 60.4349 163.537 60.1897Z" fill="#A36B45"/>
<path d="M207.151 60.7499L210.132 60.7674C209.859 63.1028 209.055 67.7679 209.969 69.7472L205.685 72.0184C205.906 68.5152 206.636 64.2822 207.151 60.7499Z" fill="#A36B45"/>
<path d="M124.328 60.5399C128.111 59.775 158.033 60.1546 163.537 60.1896C164.919 60.4348 166.403 60.7617 167.784 60.8085C167.388 64.9947 167.062 69.3387 166.33 73.4724C166.148 75.8487 165.996 78.8147 165.708 81.1326L164.089 80.6363L163.419 80.5429C158.224 79.6146 149.534 77.4251 144.643 75.6502L142.798 74.897L139.316 73.3965C135.407 71.2654 126.296 64.5802 124.328 60.5399Z" fill="#BC7E54"/>
<path d="M124.328 60.5399C128.111 59.775 158.033 60.1546 163.537 60.1896C164.919 60.4348 166.403 60.7617 167.784 60.8085C167.388 64.9947 167.062 69.3387 166.33 73.4724C166.148 75.8487 165.996 78.8147 165.708 81.1326L164.089 80.6363C164.814 76.7127 163.854 66.2734 164.317 60.7384L142.733 60.715C142.885 65.3976 142.811 70.2027 142.798 74.897L139.316 73.3965C135.407 71.2654 126.296 64.5802 124.328 60.5399Z" fill="#A36B45"/>
<path d="M124.328 60.5399C129.611 60.861 134.673 60.7501 139.958 60.6917C139.972 63.6344 140.35 71.061 139.316 73.3965C135.407 71.2654 126.296 64.5802 124.328 60.5399Z" fill="#BC7E54"/>
<path d="M144.643 75.6503C147.359 74.0563 159.792 73.1689 162.847 73.7469C163.67 75.4634 163.422 78.5053 163.419 80.543C158.224 79.6147 149.534 77.4252 144.643 75.6503Z" fill="#DDA26D"/>
<path d="M108.369 304.394C110.08 302.24 110.165 302.012 113.167 301.738C117.776 301.317 122.274 301.259 125.874 304.435C127.398 305.906 127.258 305.375 127.813 307.173C125.606 309.322 111.335 308.108 107.839 307.944L107.397 307.033L108.369 304.394Z" fill="#E1AD84"/>
<path d="M125.874 304.435C127.398 305.906 127.258 305.375 127.813 307.173C125.606 309.322 111.335 308.108 107.839 307.944L107.397 307.033L108.369 304.394C111.158 306.537 123.073 306.432 125.874 304.435Z" fill="#D29B74"/>
<path d="M41.0713 307.956C47.9759 299.303 51.8311 301.008 62.0064 301.592L62.4647 302.894C61.1855 304.406 59.3236 306.263 58.8262 308.079C58.5302 307.944 57.6567 307.25 57.3555 307.022C54.7941 308.703 44.6649 308.003 41.0713 307.956Z" fill="#EEBB8C"/>
<path d="M62.0069 301.592L62.4652 302.894C61.186 304.406 59.3241 306.263 58.8267 308.079C58.5307 307.944 57.6572 307.25 57.356 307.022C58.481 304.733 60.1619 303.384 62.0069 301.592Z" fill="#4C2D1F"/>
<path d="M143.856 301.732C150.315 301.668 158.121 300.728 163.401 304.394C165.313 305.977 165.98 306.426 167.358 308.464C161.765 307.851 156.793 308.791 151.29 308.113C148.507 307.769 148.401 306.963 146.965 304.943L143.856 301.732Z" fill="#E1AD84"/>
<path d="M163.401 304.394C165.313 305.977 165.98 306.426 167.358 308.464C161.765 307.851 156.793 308.791 151.289 308.113C148.507 307.769 148.401 306.963 146.965 304.943C150.78 305.714 160.236 306.671 163.401 304.394Z" fill="#D29B74"/>
<path d="M199.169 301.323L212.919 301.2C215.073 302.432 216.288 303.448 218.217 304.966L219.95 306.835L219.668 307.681C215.9 309.042 206.176 309.264 203.488 305.836C202.311 304.237 200.615 302.724 199.169 301.323Z" fill="#E1AD84"/>
<path d="M218.217 304.966L219.951 306.835L219.669 307.681C215.901 309.042 206.177 309.263 203.488 305.836C207.748 305.69 214.182 305.655 218.217 304.966Z" fill="#D29B74"/>
<path d="M181.803 301.451C186.136 301.335 190.47 301.288 194.803 301.311C197.033 302.52 198.006 303.413 199.944 304.995L201.681 306.753L201.537 307.664C197.842 309.094 189.004 309.345 186.423 305.766C185.115 304.085 183.444 302.829 181.803 301.451Z" fill="#D29B74"/>
<path d="M199.944 304.996L201.681 306.754L201.537 307.664C197.842 309.095 189.004 309.346 186.423 305.767C190.243 305.679 196.384 305.738 199.944 304.996Z" fill="#AD764F"/>
<path d="M126.462 301.825C131.615 301.68 137.508 301.096 142.219 302.982C144.71 305.066 145.248 305.504 147.206 308.178C142.141 308.014 136.545 308.096 131.438 308.073C129.939 306.041 128.067 303.816 126.462 301.825Z" fill="#E1AD84"/>
<path d="M27.7679 304.342C31.1303 301.545 39.9388 299.893 43.5668 302.181L42.3892 303.641L38.5527 308.143L24.4043 308.026C25.3776 306.811 26.686 305.492 27.7679 304.342Z" fill="#D29B74"/>
<path d="M27.7681 304.342C31.1305 301.545 39.939 299.893 43.567 302.181L42.3894 303.641C38.2779 303.793 30.4345 305.801 27.7681 304.342Z" fill="#E1AD84"/>
<path d="M164.148 301.749C168.428 301.674 172.894 301.796 177.188 301.849C181.057 304.278 181.947 304.891 185.231 308.096L170.169 308.154C168.209 305.708 166.371 303.951 164.148 301.749Z" fill="#E1AD84"/>
<path d="M94.064 301.895C98.3659 301.696 103.252 301.872 107.598 301.93C106.825 303.822 105.833 307.132 104.272 308.095L89.7815 308.136C91.4063 305.229 91.8285 304.429 94.064 301.895Z" fill="#E1AD84"/>
<path d="M62.4645 302.894C66.0435 300.641 71.9643 301.464 76.3362 301.645L72.2358 308.055C68.0747 308.05 62.9047 307.892 58.8259 308.079C59.3234 306.263 61.1853 304.406 62.4645 302.894Z" fill="#EEBB8C"/>
<path d="M78.9557 301.685C82.8564 301.545 87.8659 301.72 91.8553 301.738L87.7345 308.108L74.2295 308.079C76.0324 305.095 76.6227 304.272 78.9557 301.685Z" fill="#E1AD84"/>
<path d="M19.3225 301.318C22.2377 301.341 25.3817 301.504 28.3162 301.604C25.7437 303.863 24.2123 305.481 21.895 308.026C18.5378 308.125 16.8412 308.814 14.6704 306.006L14.8917 304.611C16.3875 302.661 17.0981 302.444 19.3225 301.318Z" fill="#E1AD84"/>
<path d="M217.211 301.714C223.595 301.118 226.427 301.422 228.514 307.99C222.402 308.277 222.548 306.134 217.211 301.714Z" fill="#D29B74"/>
<path d="M20.3493 92.0627C19.6697 89.9258 18.1143 86.2475 18.857 84.4901C20.7224 84.5135 21.1667 84.9513 22.868 85.8913C23.9049 87.7889 25.2922 89.7857 25.3803 91.8467L24.5968 92.7167C22.7495 92.5999 21.6081 92.162 20.3493 92.0627Z" fill="#EEBB8C"/>
<path d="M231.666 59.688L231.959 60.1376C230.915 65.2989 225.392 67.0446 220.675 67.2431C220.474 67.0446 220.606 67.2256 220.334 66.3557C223.694 63.5298 227.412 60.8148 231.666 59.688Z" fill="#DDA26D"/>
<path d="M19.6904 65.865C20.8003 66.5598 24.5935 69.0295 25.5796 69.5141C26.4157 72.1181 27.9869 74.2142 29.4839 76.5321C25.0291 73.9865 19.0546 71.7386 19.6904 65.865Z" fill="#DDA26D"/>
<path d="M218.805 93.4989L220.74 92.3895L221.33 92.9851C220.952 94.8651 219.845 97.5392 218.511 98.8879C216.942 99.9972 216.262 100.348 215.087 101.831L214.071 101.988L213.558 101.235C213.96 99.0806 214.508 98.45 215.647 96.5116L218.805 93.4989Z" fill="#E1AD84"/>
<path d="M14.7961 74.9091C20.6854 76.8591 20.6977 78.6691 22.5444 84.3092C16.8478 82.4467 16.6399 80.2689 14.7961 74.9091Z" fill="#E1AD84"/>
<path d="M28.6063 106.548C23.7913 105.439 23.4316 102.479 22.759 98.193C25.9323 101.013 29.8277 101.784 28.6063 106.548Z" fill="#EEBB8C"/>
<path d="M20.3489 92.0627C23.4614 94.3164 25.2211 95.3673 27.4823 98.4443L27.5781 99.4252C25.7892 100.027 25.0494 99.1333 22.759 98.1933C21.4763 96.3249 21.0197 94.2522 20.3489 92.0627Z" fill="#EEBB8C"/>
<path d="M215.087 101.83C216.262 100.347 216.942 99.9969 218.511 98.8876C219.756 102.671 217.417 104.201 214.644 106.606C213.645 105.777 213.688 105.859 213.178 104.668C213.891 103.751 214.525 102.852 215.087 101.83Z" fill="#DDA26D"/>
<path d="M12.5364 69.2158C15.8001 70.4945 18.0829 72.8357 19.7335 75.8543C16.7582 74.5289 13.9697 72.1935 12.5364 69.2158Z" fill="#DDA26D"/>
</svg>
