<svg width="216" height="286" viewBox="0 0 216 286" fill="none" xmlns="http://www.w3.org/2000/svg">
<g clip-path="url(#clip0_1846_472)">
<path d="M5.31681 -69.9287H8.72409H14.0058H169.652H206.935H210.524C207.634 -62.1701 203.502 -52.8873 200.328 -44.9546C203.962 -37.5628 203.533 -34.5982 196.842 -29.6707C197.076 -16.6475 196.49 -1.98362 196.48 11.3499L196.433 117.825C196.392 142.699 195.843 168.737 196.941 193.499C197.453 205.167 200.462 222.405 202.259 234.104C207.841 235.644 211.828 237.784 213.941 243.345C215.888 248.461 215.976 274.035 213.884 278.084C212.243 281.252 209.364 283.603 205.936 284.582C201.643 285.773 181.345 285.335 175.312 285.325L120.615 285.284L49.2745 285.334C38.2346 285.339 22.9796 285.847 12.4058 285.188C10.3138 285.05 8.2839 284.427 6.47671 283.368C-1.20772 278.807 0.0557943 266.64 0.107576 259.014C0.200783 246.855 -1.21807 237.68 13.2084 234.291C16.0512 219.486 18.7077 205.102 19.3963 190.024C20.1938 172.579 19.9297 154.876 19.9297 137.389L19.852 51.4312L19.6966 -1.70866C19.6138 -9.90947 19.562 -21.2252 18.5782 -29.1077C17.9309 -34.267 7.38813 -32.0975 15.4661 -44.4785C12.0899 -51.9066 7.99911 -62.2374 5.31681 -69.9287Z" fill="#552E17"/>
<path d="M77.0194 -39.2914C108.244 -42.5941 155.65 -39.8811 185.725 -32.6322L188.558 -31.9205C190.847 -31.4481 191.861 -31.6575 193.317 -30.2475C193.777 -27.6018 193.244 -14.278 193.171 -10.6989C192.912 0.806737 192.809 12.3154 192.85 23.8236L192.861 124.133C192.824 164.825 191.204 194.144 198.79 234.589L186.616 234.64L184.788 234.559L165.349 234.562C156.893 234.614 148.437 234.609 139.981 234.552L138.888 234.719C123.561 234.182 106.349 234.574 90.8809 234.589L90.0269 234.811C87.0703 234.383 79.013 234.575 75.6575 234.585L72.3693 234.601L47.079 234.572L44.6815 234.559L38.9597 234.551L36.2256 234.576L23.4665 234.591L16.6416 234.578C23.9739 204.746 23.4872 178.7 23.5856 148.428L23.5286 84.21C23.4199 49.7471 24.1966 9.28045 22.5137 -24.6647L22.4723 -31.1043L33.8643 -33.8981L36.9453 -34.5028C39.9694 -34.8528 43.356 -35.5556 46.3852 -36.1148L48.8707 -36.4564C58.0516 -37.7238 67.274 -38.6563 76.5275 -39.252L77.0194 -39.2914Z" fill="#DDA26D"/>
<path d="M77.0199 -39.2914C108.244 -42.5941 155.65 -39.8811 185.725 -32.6322L188.558 -31.9205C190.847 -31.4481 191.862 -31.6575 193.317 -30.2475C193.777 -27.6018 193.244 -14.278 193.172 -10.6989C192.913 0.806744 192.809 12.3154 192.851 23.8236L192.861 124.133C192.825 164.825 191.205 194.144 198.79 234.589L186.617 234.641L184.789 234.559L165.35 234.562C165.546 222.946 165.971 210.883 165.899 199.307C165.831 188.606 165.267 178.558 165.474 167.735L165.51 166.373C163.987 158.65 164.366 144.458 164.345 136.213L164.184 89.6765C163.853 50.3529 162.139 10.6895 161.741 -28.6767C153.926 -29.4317 144.859 -30.9269 136.926 -31.9559C136.497 -5.9307 135.492 21.1444 135.384 46.9772C135.415 61.4303 135.368 75.8834 135.233 90.3364C135.192 96.2689 135.87 105.377 134.514 110.876C133.954 109.526 133.571 100.544 133.421 98.2546C132.028 77.2167 131.691 56.1215 132.416 35.0501C133.115 12.1264 134.658 -9.25825 134.151 -32.6072C129.661 -32.5919 125.938 -32.8658 121.48 -33.1971C121.635 -26.4338 122.029 -1.60891 120.89 3.50048C120.195 -2.60263 120.47 -8.64462 120.092 -14.816C119.704 -21.0982 118.911 -27.2504 118.679 -33.5142C103.926 -33.6472 91.1094 -33.4524 76.3623 -32.6653C76.9888 -35.0212 76.9526 -36.8844 77.0199 -39.2914Z" fill="#BC7E54"/>
<path d="M185.726 -32.6318L188.559 -31.9202C188.253 -31.6962 187.632 -30.8669 187.637 -30.5857C188.159 -4.09833 184.919 22.0607 185.089 48.5045C185.239 70.7809 188.093 92.8992 185.7 115.147L185.421 115.257C184.018 101.56 183.987 85.6203 183.416 71.7203C183.173 58.9745 181.516 45.3427 182.443 32.6249C184.038 10.6344 185.384 -10.5644 185.726 -32.6318Z" fill="#A36B45"/>
<path d="M184.789 234.558C183.66 217.613 184.514 201.908 183.53 185.13C182.966 175.483 180.092 166.191 178.565 157.013C176.814 146.481 175.561 129.041 176.312 118.373L177.016 118.061L176.364 117.847L176.835 117.199L177.027 117.65L176.467 117.699C177.835 119.074 178.404 131.521 178.45 134.45C178.756 155 187.756 174.875 186.803 195.365C186.192 208.505 186.948 221.628 186.617 234.64L184.789 234.558Z" fill="#A36B45"/>
<path d="M165.51 166.373C167.887 153.97 165.955 90.4149 167.69 87.3018C170.305 90.7102 168.845 166.593 166.437 172.981C167.152 174.992 167.079 175.407 166.442 177.439C165.749 175.782 166.008 170.402 165.474 167.733L165.51 166.373Z" fill="#A36B45"/>
<path d="M28.1321 -25.7383C29.4576 -11.2934 27.9922 3.58941 28.3961 18.015C29.6493 62.6222 29.059 107.294 29.292 151.922C29.323 158.348 29.3593 164.935 29.1366 171.347C28.4428 192.519 26.5475 213.634 23.4665 234.592L16.6416 234.578C23.9739 204.746 23.4872 178.7 23.5856 148.428L23.5286 84.2098C23.4199 49.7469 24.1966 9.28036 22.5137 -24.6648C24.5384 -24.8363 26.1592 -25.2786 28.1321 -25.7383Z" fill="#EEBB8C"/>
<path d="M76.5274 -39.2525L77.0194 -39.292C76.952 -36.8849 76.9882 -35.0218 76.3617 -32.6659C76.2685 -19.3718 75.44 -6.25854 75.3674 7.105C75.1396 49.4928 75.2121 91.6834 77.506 134.028C77.7546 138.653 77.3714 143.847 77.4336 148.516C76.4911 166.76 75.6627 185.119 74.2334 203.321C72.5195 183.204 76.7396 163.413 75.4918 143.596C72.0948 89.7447 71.8204 35.834 73.6224 -18.0821C73.783 -22.8414 73.9434 -27.5284 74.5182 -32.274C75.1034 -34.7313 75.5176 -36.9236 76.5274 -39.2525Z" fill="#BC7E54"/>
<path d="M48.871 -36.4564C58.052 -37.7238 67.2744 -38.6563 76.5278 -39.252C75.5181 -36.923 75.1038 -34.7307 74.5186 -32.2734C66.8083 -31.8799 56.3329 -30.7221 48.7986 -29.4722C48.5345 -21.7378 48.4879 -13.9973 48.6536 -6.26053C48.8193 2.44154 51.0718 37.1126 47.9546 42.6196C47.0432 39.9337 47.0742 28.7678 47.0173 25.4775C46.748 13.8037 46.5357 2.12825 46.3907 -9.54774C46.3545 -14.756 46.691 -24.3132 46.282 -29.1965C46.0489 -30.8554 46.2043 -32.3535 46.2871 -34.026L46.3856 -36.1147L48.871 -36.4564Z" fill="#BC7E54"/>
<path d="M91.9897 108.523C92.7249 118.289 92.9582 127.555 93.3981 137.293C93.7759 145.71 95.1426 153.626 94.8482 162.189C94.0508 185.42 90.819 211.568 90.881 234.589L90.027 234.812C89.3591 210.608 91.9063 186.442 93.0096 162.29C93.3466 154.978 91.705 147.382 91.3476 140.068C90.85 130.352 91.14 118.185 91.9897 108.523Z" fill="#BC7E54"/>
<path d="M138.889 234.718C138.216 222.317 137.594 209.984 136.662 197.595C135.222 178.528 132.68 155.803 133.41 136.751L133.912 136.284L133.436 136.383L133.421 136.563L133.721 135.612L133.845 135.982L133.617 135.59L133.441 136.439L134.036 136.995C134.379 140.282 134.782 143.662 135.005 146.951C137.015 176.431 140.499 204.963 139.981 234.552L138.889 234.718Z" fill="#BC7E54"/>
<path d="M44.6816 234.558C45.7794 221.264 47.4934 211.202 48.208 197.042L49.3213 171.758C49.4922 167.265 49.2902 163.375 50.0462 158.913L50.4864 158.843C53.8211 183.065 47.9905 210.768 47.0791 234.57L44.6816 234.558Z" fill="#BC7E54"/>
<path d="M36.2257 234.576C36.148 219.977 37.2198 205.417 37.4995 190.827C37.5357 188.711 37.6082 186.626 37.9396 184.533L38.2917 184.707C39.695 192.353 38.6646 198.413 38.6077 206.102C38.6232 215.586 38.7371 225.069 38.9598 234.55L36.2257 234.576Z" fill="#BC7E54"/>
<path d="M72.3699 234.6C72.3854 229.637 72.0437 217.029 73.4418 212.957L74.0425 212.713C75.9843 216.769 75.6115 229.456 75.6581 234.584L72.3699 234.6Z" fill="#BC7E54"/>
<path d="M30.286 31.3613C33.5431 37.3142 36.6863 70.5908 36.9296 78.5162C37.1937 86.9625 35.5419 101.594 35.1898 110.795L33.5845 149.58C33.2946 155.906 33.1496 165.432 32.1812 171.327L31.653 172.113C29.5558 168.827 34.1282 89.7493 34.3353 79.8946C34.558 69.4946 29.3954 39.3395 30.286 31.3613Z" fill="#BC7E54"/>
<path d="M125.788 100.386C127.926 106.192 126.678 149.414 126.59 157.558C126.363 178.525 126.6 201.734 125.922 222.817C123.198 217.088 125.12 114.191 125.788 100.386Z" fill="#BC7E54"/>
<path d="M4.48932 244.507C6.13081 241.073 8.15552 238.478 12.2308 238.321C28.8631 237.685 45.9408 238.186 62.5628 238.127L161.254 238.05C174.929 238.097 191.686 237.704 205.128 238.19C209.256 240.872 209.561 241.435 211.529 245.865L211.55 247.285C211.571 249.414 211.695 252.523 211.581 254.567C211.861 258.769 212.146 267.848 211.622 271.982L211.347 274.308L211.26 274.595C210.369 277.365 209.323 279.455 206.635 280.806C204.761 281.746 202.596 281.723 200.541 281.771C164.615 282.607 128.455 281.78 92.5083 281.776C83.058 281.775 14.2813 282.816 9.76597 281.066C6.46225 279.785 5.14181 277.268 3.88351 274.194L3.71777 270.961L3.85241 267.698C3.93009 261.369 3.95599 255.04 3.92492 248.71L4.48932 244.507Z" fill="#DDA26D"/>
<path d="M3.88281 274.193C25.2376 276.863 49.4612 277.69 71.1268 277.728C107.778 277.789 144.538 276.215 181.288 277.51C186.668 277.699 192.182 277.215 197.521 276.584C200.514 276.229 210.058 273.79 211.347 274.308L211.259 274.594C210.368 277.363 209.323 279.454 206.635 280.805C204.76 281.744 202.595 281.722 200.54 281.77C164.614 282.606 128.455 281.779 92.5075 281.776C83.0574 281.775 14.2806 282.815 9.76524 281.065C6.46155 279.784 5.14112 277.267 3.88281 274.193Z" fill="#EEBB8C"/>
<path d="M4.4892 244.506C7.51327 247.105 40.923 245.385 46.3135 244.973C52.3409 244.513 58.3579 243.941 64.406 243.872C70.0348 243.808 123.795 245.163 124.52 245.657C114.194 248.49 78.061 246.106 65.0275 246.871C54.5624 247.485 41.6583 247.96 30.4734 248.519C24.3217 248.826 11.6558 247.43 5.12612 247.449C4.97077 247.449 4.12675 248.417 3.9248 248.709L4.4892 244.506Z" fill="#BC7E54"/>
<path d="M211.58 254.566C211.86 258.769 212.144 267.848 211.622 271.981C211.534 269.995 211.539 269.592 211.031 267.7L117.333 267.688L116.99 267.172C120.724 265.179 153.238 265.951 159.964 265.7C175.918 265.105 195.895 263.014 211.405 266.659C211.363 262.483 211.321 258.753 211.58 254.566Z" fill="#BC7E54"/>
<path d="M3.85241 267.697C9.61058 268.195 19.6407 269.006 24.9484 269.417C31.0327 269.887 63.6243 269.07 66.8347 270.477C64.023 271.382 56.3489 271.632 53.0814 271.767C43.2998 272.172 33.4354 273.111 23.659 272.768C17.0051 272.534 10.3407 271.47 3.71777 270.96L3.85241 267.697Z" fill="#BC7E54"/>
<path d="M211.549 247.284C207.422 248.252 173.355 247.565 171.118 246.258C173.707 244.404 206.537 245.738 211.528 245.865L211.549 247.284Z" fill="#BC7E54"/>
<path d="M139.298 254.398C144.067 253.814 162.195 254.167 166.929 254.857C163.273 255.67 158.762 256.133 154.988 256.622C150.706 257.298 133.162 257.421 128.579 256.864C132.737 255.471 134.979 254.948 139.298 254.398Z" fill="#BC7E54"/>
<path d="M84.502 260.209C85.8328 260.079 87.1636 259.974 88.4944 259.896C90.9798 259.758 96.9301 259.205 98.758 260.848C95.6866 261.123 87.9972 261.036 84.8955 260.852L84.502 260.209Z" fill="#AD764F"/>
</g>
<defs>
<clipPath id="clip0_1846_472">
<rect width="215.518" height="285.583" fill="white"/>
</clipPath>
</defs>
</svg>
