<svg width="1512" height="982" viewBox="0 0 1512 982" fill="none" xmlns="http://www.w3.org/2000/svg">
<g clip-path="url(#clip0_924_1056)">
<rect width="1512" height="982" fill="#ED1C24"/>
<path d="M1567.24 496.11C1514.73 724.424 1354.11 876.149 1121.49 911.623C979.404 933.282 771.277 870.819 754.809 703.506C743.367 587.182 970.45 430.305 1008.81 581.829C1028.36 659.018 944.918 749.427 888.812 788.955C727.951 902.277 515.671 858.703 376.133 729.701C252.886 615.77 236.15 417.637 337.114 282.705C398.733 200.356 554.705 128.894 627.236 242.043C739.417 417.044 384.33 462.602 270.274 397.787C-142.168 163.421 208.673 -405.574 511.033 -557.908" stroke="#FD3F47" stroke-opacity="0.55" stroke-width="144.959" stroke-miterlimit="1.5" stroke-linecap="round" stroke-linejoin="round"/>
</g>
<defs>
<clipPath id="clip0_924_1056">
<rect width="1512" height="982" fill="white"/>
</clipPath>
</defs>
</svg>
