<svg width="989" height="361" viewBox="0 0 989 361" fill="none" xmlns="http://www.w3.org/2000/svg">
<path d="M326.912 312.852C369.362 291.399 395.569 272.723 403.367 266.066C417.973 223.16 530.411 244.385 584.804 260.361L596.215 277.477C616.299 268.348 627.405 236.778 630.448 222.133C635.013 207.87 649.505 183.678 670.958 201.023C692.411 218.368 691.688 259.98 688.645 278.619C684.081 312.395 650.228 348.607 633.872 362.49C641.631 370.25 645.473 393.871 646.424 404.711H359.434C358.521 386.454 367.422 365.153 371.986 356.785C348.251 375.043 320.636 368.957 309.796 363.631C297.814 355.644 284.463 334.305 326.912 312.852Z" fill="#B8E7EE" stroke="#8ACAF0" stroke-width="4.35905"/>
<path d="M440.453 284.895C393.439 303.609 385.415 371.429 387.127 402.429H617.896C621.547 344.004 592.982 303.152 577.957 291.741C556.846 262.072 499.22 261.502 440.453 284.895Z" fill="white"/>
<path d="M632.16 357.356L615.043 317.417C625.313 314.564 641.288 291.171 645.853 284.895C650.417 278.619 658.405 258.079 658.405 235.257C658.405 212.434 668.675 209.582 672.098 209.582C674.837 209.582 677.804 216.048 678.945 219.281C693.78 255.797 684.08 274.054 677.804 300.3C672.783 321.296 645.282 347.086 632.16 357.356Z" fill="white" stroke="white" stroke-width="1.14111"/>
<path d="M387.391 323.122C385.109 326.317 376.931 344.613 373.127 353.362C350.305 374.815 317.973 363.061 304.66 354.503C313.599 354.503 331.933 354.275 333.758 353.362C336.041 352.221 355.44 345.944 363.427 331.11C371.415 316.275 396.52 293.453 398.802 291.171C400.628 289.345 402.225 290.41 402.796 291.171C400.514 292.883 390.244 319.128 387.391 323.122Z" fill="white" stroke="white" stroke-width="1.14111" stroke-linejoin="round"/>
<path d="M502.383 54.5377C579.776 54.5377 641.907 108.044 641.907 173.352C641.907 238.661 579.775 292.166 502.383 292.166C424.99 292.166 362.858 238.66 362.858 173.352C362.858 108.044 424.99 54.5378 502.383 54.5377Z" fill="#B8E7EE" stroke="#8ACAF0" stroke-width="4.36013"/>
<path fill-rule="evenodd" clip-rule="evenodd" d="M389.862 165.566C392.229 136.163 412.841 113.831 435.901 115.687C458.01 117.467 474.339 140.833 473.563 168.671C482.949 169.027 492.929 169.285 503.473 169.285C519.015 169.285 533.527 168.282 546.841 166.953C546.335 141.575 560.385 120.024 580.837 116.849C603.698 113.3 625.899 134.054 630.424 163.203C630.511 163.762 630.587 164.321 630.66 164.879C635.88 168.461 638.637 174.533 638.637 184.252C638.637 226.994 585.346 289.189 503.473 289.189C421.6 289.189 373.759 239.279 373.759 196.537C373.759 182.078 379.233 174.284 389.647 170.298C389.665 168.735 389.734 167.156 389.862 165.566Z" fill="white"/>
<path d="M502.384 140.65C515.504 140.65 527.301 143.228 535.777 147.823C544.25 152.417 549.255 158.925 549.255 166.811C549.255 174.791 544.145 183.5 535.62 190.264C527.123 197.005 515.369 201.692 502.384 201.692C489.448 201.692 477.706 196.223 469.193 188.668C460.65 181.086 455.512 171.548 455.512 163.541C455.512 155.701 460.459 150.012 468.915 146.224C477.394 142.426 489.211 140.65 502.384 140.65Z" fill="#F1D453" stroke="#E1BA43" stroke-width="2.18007"/>
<path d="M471.862 172.262C471.862 172.262 486.032 182.072 504.563 182.072C523.093 182.072 535.084 172.262 535.084 172.262" stroke="#583921" stroke-width="3.2701" stroke-linecap="round"/>
<path d="M421.72 155.911C421.72 155.911 423.901 150.461 431.531 150.461C439.161 150.461 441.341 155.911 441.341 155.911" stroke="#583921" stroke-width="3.2701" stroke-linecap="round"/>
<path d="M565.605 155.911C565.605 155.911 567.785 150.461 575.415 150.461C583.045 150.461 585.225 155.911 585.225 155.911" stroke="#583921" stroke-width="3.2701" stroke-linecap="round"/>
<path d="M358.711 280.934C332.525 274.671 315.067 297.775 309.611 310.109C243.669 321.257 106.663 337.861 86.1686 315.09C65.6745 292.319 44.4214 296.589 36.3566 301.57C32.7661 303.787 23.4056 306.409 22.8363 337.15C22.267 367.891 64.8207 376.525 86.1686 376.999C83.8915 379.846 85.6942 385.776 86.8802 388.385C164.919 391.469 321.708 395.786 324.555 388.385C327.401 380.984 320.048 369.172 316.015 364.191C346.187 361.344 367.488 340.233 374.367 330.034C380.059 316.276 384.898 287.196 358.711 280.934Z" fill="#FFFBE8" stroke="#FCE9B8" stroke-width="5.6928" stroke-linecap="round"/>
<path d="M334.898 75.1312C352.856 75.1313 367.421 89.7223 367.421 107.73C367.421 116.665 363.847 122.969 358.14 127.109C352.346 131.311 344.175 133.402 334.898 133.402C325.622 133.402 317.451 131.311 311.657 127.109C305.95 122.969 302.375 116.665 302.375 107.73C302.375 89.7223 316.941 75.1312 334.898 75.1312Z" fill="#FFFBE8" stroke="#FCE9B8" stroke-width="4.06535"/>
<path d="M50.3236 79.1967C32.366 79.1968 17.8011 93.7878 17.8011 111.795C17.8011 120.73 21.3751 127.035 27.0824 131.174C32.8764 135.376 41.0469 137.467 50.3236 137.467C59.6004 137.467 67.7707 135.377 73.5648 131.174C79.2722 127.035 82.847 120.73 82.847 111.795C82.847 93.7877 68.2812 79.1967 50.3236 79.1967Z" fill="#FFFBE8" stroke="#FCE9B8" stroke-width="4.06535"/>
<path d="M105.884 87.3279C61.436 79.7392 48.5172 111.268 47.6138 127.981C13.4649 138.28 15.3169 170.668 20.5115 185.574C17.5754 183.767 4.24995 185.574 2.21748 205.223C0.0111935 226.553 18.0271 233.455 30.6749 235.036C12.2453 257.802 34.2885 272.979 47.6138 277.722C47.6138 305.908 79.6849 316.117 95.7204 317.698C110.898 347.51 143.149 340.509 157.378 333.281C192.069 369.057 230.103 346.381 244.783 330.571C284.895 339.244 300.343 316.568 303.053 304.147C364.846 309.025 363.13 279.529 354.548 264.171C386.528 250.077 376.004 229.389 366.744 220.807C407.397 192.62 378.262 167.957 358.613 159.149C365.117 126.626 341.448 119.851 328.8 120.528C334.763 99.9305 315.927 95.6845 305.763 96.1362C304.679 78.7907 284.533 79.8748 274.596 82.5851C262.129 49.5202 234.168 55.7085 221.746 62.9358C191.934 28.2448 164.605 48.4812 154.668 62.9358C120.519 51.5528 107.916 74.4543 105.884 87.3279Z" fill="#FAB2CD" stroke="#FD83C1" stroke-width="4.06535"/>
<path d="M193.289 102.233C268.297 102.234 323.38 157.777 323.38 216.741C323.38 246.11 308.896 270.258 284.972 287.135C261.006 304.041 227.563 313.632 189.901 313.632C152.148 313.632 121.274 306.035 99.8993 291.191C78.6244 276.418 66.5849 254.354 66.5848 224.872C66.5848 165.669 118.526 102.233 193.289 102.233Z" fill="#FFFBE8" stroke="#FCE9B8" stroke-width="4.06535"/>
<circle cx="149.925" cy="200.954" r="9.48581" fill="#603C1F"/>
<circle cx="240.718" cy="200.954" r="9.48581" fill="#603C1F"/>
<path d="M290.857 209.966L313.894 205.9M287.469 230.292L310.506 239.778" stroke="#F1C67E" stroke-width="13.5512" stroke-linecap="round"/>
<path d="M99.7855 222.162L76.7485 218.096M103.173 242.488L80.8139 251.974" stroke="#F1C67E" stroke-width="13.5512" stroke-linecap="round"/>
<path d="M191.256 108.332V172.7M154.668 130.692H226.489M158.733 155.084H223.101" stroke="#F1C67E" stroke-width="13.5512" stroke-linecap="round"/>
<path d="M183.125 89.3606L202.097 72.4217" stroke="#E96F91" stroke-width="10.8409" stroke-linecap="round"/>
<path d="M212.938 83.94H237.33" stroke="#F1E488" stroke-width="10.8409" stroke-linecap="round"/>
<path d="M143.149 79.1972L169.574 75.1318" stroke="#FDFCFF" stroke-width="10.8409" stroke-linecap="round"/>
<path d="M121.467 89.3603L136.816 102.285" stroke="#F7DF83" stroke-width="10.8409" stroke-linecap="round"/>
<path d="M316.604 33.8007L246.138 83.2624L324.735 138.822C325.864 107.655 327.987 43.5575 327.445 36.5109C326.903 29.4643 319.992 31.768 316.604 33.8007Z" fill="#F4F1A4" stroke="#F8E26A" stroke-width="4.06535" stroke-linecap="round"/>
<path d="M297.633 47.3518L324.735 88.6829M261.045 91.3931L324.735 64.2908M283.404 62.2581L324.735 130.014M265.11 73.7766L289.502 111.72L325.413 88.6829" stroke="#F8E26A" stroke-width="2.71023" stroke-linecap="round"/>
<path d="M231.232 95.4581C239.363 87.7791 257.386 78.5192 264.433 102.911C274.596 100.201 295.194 100.066 296.278 121.205C308.022 119.85 329.478 123.238 321.347 147.63" stroke="#FD83C1" stroke-width="4.06535"/>
<path d="M264.433 103.768C257.386 79.376 239.363 88.636 231.232 96.315L321.347 148.487C329.478 124.095 308.022 120.707 296.278 122.062C295.194 100.923 274.596 101.058 264.433 103.768Z" fill="#FAB2CD"/>
<mask id="path-29-inside-1_680_1021" fill="white">
<path d="M215.017 207.85C228.107 207.85 238.718 218.461 238.718 231.55C238.718 244.639 228.107 255.25 215.017 255.25C207.172 255.25 200.218 251.437 195.904 245.564C191.591 251.437 184.637 255.25 176.791 255.25C163.702 255.25 153.091 244.639 153.091 231.55C153.091 218.461 163.702 207.85 176.791 207.85C184.636 207.85 191.59 211.663 195.903 217.535C200.217 211.662 207.172 207.85 215.017 207.85Z"/>
</mask>
<path d="M215.017 207.85C228.107 207.85 238.718 218.461 238.718 231.55C238.718 244.639 228.107 255.25 215.017 255.25C207.172 255.25 200.218 251.437 195.904 245.564C191.591 251.437 184.637 255.25 176.791 255.25C163.702 255.25 153.091 244.639 153.091 231.55C153.091 218.461 163.702 207.85 176.791 207.85C184.636 207.85 191.59 211.663 195.903 217.535C200.217 211.662 207.172 207.85 215.017 207.85Z" fill="#FDFFFB"/>
<path d="M215.017 207.85L215.017 204.618H215.017V207.85ZM238.718 231.55L241.949 231.55V231.55H238.718ZM215.017 255.25V258.481H215.017L215.017 255.25ZM195.904 245.564L198.508 243.651L195.904 240.105L193.3 243.651L195.904 245.564ZM176.791 255.25L176.791 258.481H176.791V255.25ZM153.091 231.55L149.859 231.55V231.55H153.091ZM176.791 207.85V204.618H176.791L176.791 207.85ZM195.903 217.535L193.299 219.448L195.903 222.994L198.507 219.448L195.903 217.535ZM215.017 207.85L215.017 211.081C226.322 211.081 235.486 220.245 235.486 231.55H238.718H241.949C241.949 216.676 229.891 204.618 215.017 204.618L215.017 207.85ZM238.718 231.55L235.486 231.55C235.486 242.855 226.322 252.019 215.017 252.019L215.017 255.25L215.017 258.481C229.891 258.481 241.949 246.424 241.949 231.55L238.718 231.55ZM215.017 255.25V252.019C208.244 252.019 202.24 248.731 198.508 243.651L195.904 245.564L193.3 247.476C198.196 254.142 206.099 258.481 215.017 258.481V255.25ZM195.904 245.564L193.3 243.651C189.569 248.731 183.564 252.019 176.791 252.019V255.25V258.481C185.709 258.481 193.613 254.142 198.508 247.476L195.904 245.564ZM176.791 255.25L176.791 252.019C165.486 252.019 156.322 242.855 156.322 231.55H153.091H149.859C149.859 246.424 161.917 258.481 176.791 258.481L176.791 255.25ZM153.091 231.55L156.322 231.55C156.322 220.245 165.486 211.081 176.791 211.081L176.791 207.85L176.791 204.618C161.917 204.618 149.86 216.676 149.859 231.55L153.091 231.55ZM176.791 207.85V211.081C183.564 211.081 189.568 214.368 193.299 219.448L195.903 217.535L198.507 215.622C193.612 208.957 185.708 204.618 176.791 204.618V207.85ZM195.903 217.535L198.507 219.448C202.238 214.368 208.244 211.081 215.017 211.081V207.85V204.618C206.1 204.618 198.195 208.956 193.299 215.622L195.903 217.535Z" fill="#FAD699" mask="url(#path-29-inside-1_680_1021)"/>
<path d="M210.942 214.031C210.942 220.393 202.771 226.227 196.035 226.227C189.3 226.227 181.129 220.393 181.129 214.031C180.452 203.868 189.3 203.19 196.035 203.19C202.771 203.19 211.619 203.19 210.942 214.031Z" fill="#5E3916"/>
<path d="M797.007 377.811C749.561 376.229 727.595 332.341 722.542 310.595C662.971 332.209 634.02 287.53 626.991 262.489C616.447 228.749 637.973 195.273 650.055 182.752C611.57 138.996 630.066 98.1833 644.124 83.2464C663.102 48.4523 710.461 52.0548 731.768 58.2053C742.751 36.6786 776.052 -4.52955 821.389 2.85102C866.727 10.2316 882.894 46.783 885.31 64.1362C928.539 50.9566 961.752 78.4141 972.955 93.7903C1005.64 147.036 973.833 182.753 953.844 193.955C977.567 217.151 976.469 243.159 972.955 253.263C961.357 306.509 908.375 310.155 883.333 305.323C862.246 367.53 816.996 379.568 797.007 377.811Z" fill="#F4846D" stroke="#F15B2C" stroke-width="3.95388" stroke-linecap="round"/>
<mask id="path-33-inside-2_680_1021" fill="white">
<path fill-rule="evenodd" clip-rule="evenodd" d="M715.295 74.0207C727.829 74.0207 738.547 81.7969 742.887 92.7882C762.649 82.7719 785.555 77.4238 810.47 78.9806C834.876 80.5057 856.936 87.5689 875.608 98.4494C880.775 89.7425 890.269 83.9054 901.128 83.9054C917.505 83.9056 930.782 97.1823 930.782 113.56C930.782 123.52 925.87 132.333 918.337 137.71C932.659 158.472 940.095 182.713 938.576 207.025C934.713 268.839 871.129 304.704 793.179 299.833C715.23 294.962 666.512 260.454 670.375 198.64C671.92 173.908 682.178 149.033 698.92 128.4C690.917 123.089 685.641 113.999 685.641 103.675C685.641 87.2976 698.917 74.0209 715.295 74.0207Z"/>
</mask>
<path fill-rule="evenodd" clip-rule="evenodd" d="M715.295 74.0207C727.829 74.0207 738.547 81.7969 742.887 92.7882C762.649 82.7719 785.555 77.4238 810.47 78.9806C834.876 80.5057 856.936 87.5689 875.608 98.4494C880.775 89.7425 890.269 83.9054 901.128 83.9054C917.505 83.9056 930.782 97.1823 930.782 113.56C930.782 123.52 925.87 132.333 918.337 137.71C932.659 158.472 940.095 182.713 938.576 207.025C934.713 268.839 871.129 304.704 793.179 299.833C715.23 294.962 666.512 260.454 670.375 198.64C671.92 173.908 682.178 149.033 698.92 128.4C690.917 123.089 685.641 113.999 685.641 103.675C685.641 87.2976 698.917 74.0209 715.295 74.0207Z" fill="#FECE6D"/>
<path d="M715.295 74.0207V70.0668H715.295L715.295 74.0207ZM742.887 92.7882L739.21 94.2404L740.804 98.2771L744.675 96.315L742.887 92.7882ZM810.47 78.9806L810.716 75.0344L810.716 75.0344L810.47 78.9806ZM875.608 98.4494L873.618 101.866L877.007 103.841L879.008 100.467L875.608 98.4494ZM901.128 83.9054L901.128 79.9515H901.128V83.9054ZM930.782 113.56L934.736 113.56V113.56H930.782ZM918.337 137.71L916.039 134.492L912.873 136.753L915.082 139.955L918.337 137.71ZM938.576 207.025L942.522 207.271V207.271L938.576 207.025ZM793.179 299.833L792.933 303.779H792.933L793.179 299.833ZM670.375 198.64L666.429 198.393L666.429 198.393L670.375 198.64ZM698.92 128.4L701.99 130.891L704.732 127.511L701.106 125.105L698.92 128.4ZM685.641 103.675H681.688V103.675L685.641 103.675ZM715.295 74.0207V77.9745C726.151 77.9745 735.446 84.7078 739.21 94.2404L742.887 92.7882L746.565 91.3361C741.649 78.8861 729.506 70.0668 715.295 70.0668V74.0207ZM742.887 92.7882L744.675 96.315C763.834 86.6041 786.04 81.4157 810.223 82.9268L810.47 78.9806L810.716 75.0344C785.07 73.4319 761.464 78.9397 741.1 89.2615L742.887 92.7882ZM810.47 78.9806L810.223 82.9268C834.012 84.4134 855.476 91.2942 873.618 101.866L875.608 98.4494L877.599 95.0332C858.396 83.8436 835.739 76.5981 810.716 75.0344L810.47 78.9806ZM875.608 98.4494L879.008 100.467C883.492 92.9105 891.722 87.8593 901.128 87.8593V83.9054V79.9515C888.816 79.9515 878.057 86.5746 872.208 96.4317L875.608 98.4494ZM901.128 83.9054L901.128 87.8593C915.321 87.8594 926.828 99.366 926.828 113.56H930.782H934.736C934.736 94.9986 919.689 79.9517 901.128 79.9515L901.128 83.9054ZM930.782 113.56L926.828 113.56C926.828 122.189 922.578 129.825 916.039 134.492L918.337 137.71L920.634 140.928C929.161 134.841 934.736 124.852 934.736 113.56L930.782 113.56ZM918.337 137.71L915.082 139.955C928.956 160.067 936.088 183.442 934.63 206.778L938.576 207.025L942.522 207.271C944.102 181.983 936.363 156.877 921.591 135.465L918.337 137.71ZM938.576 207.025L934.63 206.778C932.79 236.219 916.782 259.556 891.587 275.069C866.309 290.634 831.781 298.284 793.426 295.887L793.179 299.833L792.933 303.779C832.528 306.254 868.767 298.407 895.733 281.803C922.784 265.147 940.499 239.645 942.522 207.271L938.576 207.025ZM793.179 299.833L793.426 295.887C754.894 293.479 724.124 283.766 703.551 267.489C683.163 251.359 672.468 228.547 674.321 198.886L670.375 198.64L666.429 198.393C664.419 230.547 676.152 255.896 698.644 273.691C720.951 291.339 753.515 301.316 792.933 303.779L793.179 299.833ZM670.375 198.64L674.321 198.886C675.81 175.059 685.712 150.953 701.99 130.891L698.92 128.4L695.849 125.908C678.644 147.113 668.031 172.758 666.429 198.393L670.375 198.64ZM698.92 128.4L701.106 125.105C694.16 120.496 689.595 112.618 689.595 103.675L685.641 103.675L681.688 103.675C681.688 115.379 687.674 125.682 696.733 131.694L698.92 128.4ZM685.641 103.675H689.595C689.595 89.4812 701.101 77.9747 715.295 77.9745L715.295 74.0207L715.295 70.0668C696.734 70.067 681.688 85.114 681.688 103.675H685.641Z" fill="#F59313" mask="url(#path-33-inside-2_680_1021)"/>
<path d="M779.874 157.711C787.342 162.983 803.992 170.364 810.846 157.711C813.344 153.098 816.118 143.803 804.915 143.214C800.741 142.994 792.922 144.663 795.03 153.098C798.325 161.006 809.133 171.813 828.638 159.688" stroke="#603C1F" stroke-width="3.95388" stroke-linecap="round"/>
<ellipse cx="874.108" cy="203.181" rx="15.8155" ry="11.2027" fill="#F78F8B"/>
<ellipse cx="734.404" cy="196.591" rx="15.8155" ry="11.2027" fill="#F78F8B"/>
<path d="M700.623 369.241V392.964H874.767L895.195 363.972L870.154 333C824.025 334.537 728.473 323.379 723.202 313.889C717.93 304.4 712.265 285.77 711.826 271.712C702.336 247.462 682.391 249.746 673.605 253.92C655.812 265.781 655.153 282.256 657.789 307.956C659.898 328.516 687.224 357.379 700.623 369.241Z" fill="#FECE6D" stroke="#F9911E" stroke-width="3.95388" stroke-linecap="round"/>
<path d="M903.935 369.241V392.964H729.791L787.782 358.7L734.404 333C780.533 334.537 876.085 323.379 881.357 313.889C886.629 304.4 892.293 285.77 892.733 271.712C902.222 247.462 922.167 249.746 930.954 253.92C948.746 265.781 949.405 282.256 946.769 307.956C944.66 328.516 917.335 357.379 903.935 369.241Z" fill="#FECE6D" stroke="#F9911E" stroke-width="3.95388" stroke-linecap="round"/>
<rect x="717.271" y="351.451" width="81.7135" height="39.5388" fill="#FECE6D"/>
<path d="M797.008 377.811C749.561 376.229 724.905 329.914 719.853 308.167L885.46 305.223C864.373 367.431 816.997 379.568 797.008 377.811Z" fill="#F4846D" stroke="#F15B2C" stroke-width="3.95388" stroke-linecap="round"/>
<path d="M797.007 373.857C749.561 372.275 723.165 325.832 721.325 302.647L884.356 301.543C862.643 370.362 816.997 375.614 797.007 373.857Z" fill="#F4846D"/>
<path d="M819.173 190.364C831.274 190.364 841.085 200.174 841.085 212.276C841.085 224.377 831.274 234.188 819.173 234.188C811.919 234.188 805.489 230.662 801.501 225.232C797.513 230.662 791.084 234.188 783.83 234.188C771.728 234.188 761.918 224.377 761.918 212.276C761.918 200.174 771.728 190.364 783.83 190.364C791.083 190.364 797.513 193.889 801.501 199.319C805.489 193.889 811.919 190.364 819.173 190.364Z" fill="#FDFFFB"/>
<path d="M815.404 196.078C815.404 201.96 807.849 207.354 801.622 207.354C795.394 207.354 787.84 201.96 787.84 196.078C787.214 186.682 795.394 186.055 801.622 186.055C807.849 186.055 816.03 186.055 815.404 196.078Z" fill="#5E3916"/>
<circle cx="758.99" cy="182.297" r="8.77015" fill="#603C1F"/>
<circle cx="844.657" cy="186.251" r="8.77015" fill="#603C1F"/>
</svg>
