<svg width="43" height="43" viewBox="0 0 43 43" fill="none" xmlns="http://www.w3.org/2000/svg">
<path fill-rule="evenodd" clip-rule="evenodd" d="M24.4489 33.4861C22.331 35.8156 19.8071 39.5072 16.7449 40.4594C11.8561 41.9792 11.2593 35.0211 11.5544 32.0116C11.6329 31.2131 11.7206 30.414 11.8439 29.6206C11.9902 28.6767 12.1538 27.7339 12.3526 26.7993C9.27917 26.3365 5.57436 25.2813 3.13025 23.3026C1.08246 21.6444 0.94526 19.3103 2.96642 17.5401C5.37949 15.4263 8.92629 14.3223 11.9406 13.4269C12.6475 10.1884 13.3347 6.85489 14.8012 3.87948C16.2112 1.01938 19.0245 0.802395 21.1723 3.01386C21.8663 3.7282 22.4764 4.5213 23.0334 5.34634C23.7825 6.45673 25.3604 9.26116 25.7854 9.96183C25.8769 10.012 26.6583 9.76236 26.7993 9.73296C27.7572 9.534 28.7129 9.35531 29.6811 9.21388C30.4118 9.10746 31.1438 9.00672 31.8762 8.91454C34.4826 8.58624 41.2358 7.27109 41.0008 11.6257C40.9766 12.0682 40.8673 12.4946 40.7204 12.9111C40.4775 13.5988 40.0962 14.2547 39.7162 14.8751C39.0026 16.04 38.1652 17.1213 37.3378 18.2052C36.1022 19.8245 34.7492 21.3751 33.5821 23.0461C33.5678 23.0668 33.551 23.0858 33.5333 23.104C34.1399 24.162 34.7562 25.2182 35.336 26.2916C36.6012 28.633 39.3485 31.8259 37.6859 34.2039C36.787 35.49 35.1276 35.6832 33.6891 35.5569C30.7673 35.2997 27.9886 34.2375 25.263 33.2271" fill="#925FDF"/>
<path d="M24.4489 33.4861C22.331 35.8156 19.8071 39.5072 16.7449 40.4594C11.8561 41.9792 11.2593 35.0211 11.5544 32.0116C11.6329 31.2131 11.7206 30.414 11.8439 29.6206C11.9902 28.6767 12.1538 27.7339 12.3526 26.7993C9.27917 26.3365 5.57436 25.2813 3.13025 23.3026C1.08246 21.6444 0.94526 19.3103 2.96642 17.5401C5.37949 15.4263 8.92629 14.3223 11.9406 13.4269C12.6475 10.1884 13.3347 6.85489 14.8012 3.87948C16.2112 1.01938 19.0245 0.802395 21.1723 3.01386C21.8663 3.7282 22.4764 4.5213 23.0334 5.34634C23.7825 6.45673 25.3604 9.26116 25.7854 9.96183C25.8769 10.012 26.6583 9.76236 26.7993 9.73296C27.7572 9.534 28.7129 9.35531 29.6811 9.21388C30.4118 9.10746 31.1438 9.00672 31.8762 8.91454C34.4826 8.58624 41.2358 7.27109 41.0008 11.6257C40.9766 12.0682 40.8673 12.4946 40.7204 12.9111C40.4775 13.5988 40.0962 14.2547 39.7162 14.8751C39.0026 16.04 38.1652 17.1213 37.3378 18.2052C36.1022 19.8245 34.7492 21.3751 33.5821 23.0461C33.5678 23.0668 33.551 23.0858 33.5333 23.104C34.1399 24.162 34.7562 25.2182 35.336 26.2916C36.6012 28.633 39.3485 31.8259 37.6859 34.2039C36.787 35.49 35.1276 35.6832 33.6891 35.5569C30.7673 35.2997 27.9886 34.2375 25.263 33.2271" stroke="#FAFAFA" stroke-width="3.04312" stroke-miterlimit="1.5" stroke-linecap="round" stroke-linejoin="round"/>
</svg>
