<svg width="72" height="72" viewBox="0 0 72 72" fill="none" xmlns="http://www.w3.org/2000/svg">
<path fill-rule="evenodd" clip-rule="evenodd" d="M47.7169 51.0232C46.0135 56.0994 44.6101 63.574 40.4941 67.1519C33.9223 72.8635 28.232 62.4384 26.632 57.5509C26.2078 56.2539 25.7977 54.9497 25.4467 53.6301C25.0286 52.0604 24.6382 50.4805 24.3081 48.8894C19.2063 50.2719 12.7161 51.1642 7.55679 49.7558C3.23388 48.5755 1.42308 45.0352 3.35862 40.8961C5.66918 35.9538 10.4359 31.8079 14.5163 28.3514C13.4008 22.8254 12.1899 17.1651 12.437 11.5291C12.6753 6.11124 16.907 3.84833 21.7643 5.82176C23.3334 6.45911 24.8262 7.2764 26.2578 8.17985C28.184 9.39602 32.5596 12.6827 33.7008 13.4828C33.8777 13.4982 34.9235 12.5749 35.1228 12.4326C36.478 11.4674 37.8437 10.5353 39.2544 9.65252C40.3192 8.98683 41.3899 8.32912 42.4672 7.68444C46.3007 5.38975 55.915 -1.27884 58.5288 5.66177C58.794 6.36727 58.9156 7.10606 58.9719 7.85495C59.0643 9.09193 58.9194 10.374 58.7523 11.6C58.4384 13.902 57.8745 16.1584 57.3279 18.4123C56.5123 21.7788 55.4667 25.1189 54.793 28.5192C54.7849 28.5612 54.7718 28.6023 54.7567 28.6426C56.4251 29.8748 58.1074 31.0976 59.7446 32.372C63.3167 35.1518 69.7789 38.243 68.8174 43.0831C68.298 45.7004 65.8465 47.1369 63.5205 47.9245C58.7954 49.5234 53.7422 49.771 48.8073 50.0629" fill="#FFE23F"/>
<path d="M47.7169 51.0232C46.0135 56.0994 44.6101 63.574 40.4941 67.1519C33.9223 72.8635 28.232 62.4384 26.632 57.5509C26.2078 56.2539 25.7977 54.9497 25.4467 53.6301C25.0286 52.0604 24.6382 50.4805 24.3081 48.8894C19.2063 50.2719 12.7161 51.1642 7.55679 49.7558C3.23388 48.5755 1.42308 45.0352 3.35862 40.8961C5.66918 35.9538 10.4359 31.8079 14.5163 28.3514C13.4008 22.8254 12.1899 17.1651 12.437 11.5291C12.6753 6.11124 16.907 3.84833 21.7643 5.82176C23.3334 6.45911 24.8262 7.2764 26.2578 8.17985C28.184 9.39602 32.5596 12.6827 33.7008 13.4828C33.8777 13.4982 34.9235 12.5749 35.1228 12.4326C36.478 11.4674 37.8437 10.5353 39.2544 9.65252C40.3192 8.98683 41.3899 8.32912 42.4672 7.68444C46.3007 5.38975 55.915 -1.27884 58.5288 5.66177C58.794 6.36727 58.9156 7.10606 58.9719 7.85495C59.0643 9.09193 58.9194 10.374 58.7523 11.6C58.4384 13.902 57.8745 16.1584 57.3279 18.4123C56.5123 21.7788 55.4667 25.1189 54.793 28.5192C54.7849 28.5612 54.7718 28.6023 54.7567 28.6426C56.4251 29.8748 58.1074 31.0976 59.7446 32.372C63.3167 35.1518 69.7789 38.243 68.8174 43.0831C68.298 45.7004 65.8465 47.1369 63.5205 47.9245C58.7954 49.5234 53.7422 49.771 48.8073 50.0629" stroke="#FAFAFA" stroke-width="5.17536" stroke-miterlimit="1.5" stroke-linecap="round" stroke-linejoin="round"/>
</svg>
