<svg width="342" height="303" viewBox="0 0 342 303" fill="none" xmlns="http://www.w3.org/2000/svg">
<path d="M26.808 224.007C63.3116 205.559 85.8483 189.499 92.5537 183.775C105.114 146.879 201.803 165.131 248.577 178.868L258.39 193.588C275.66 185.737 285.211 158.589 287.828 145.996C291.753 133.73 304.216 112.927 322.664 127.842C341.112 142.757 340.49 178.541 337.873 194.569C333.948 223.615 304.837 254.754 290.772 266.693C297.445 273.366 300.748 293.678 301.566 303H54.7745C53.9894 287.3 61.6434 268.983 65.5685 261.787C45.1579 277.487 21.411 272.254 12.0888 267.674C1.78538 260.805 -9.69558 242.455 26.808 224.007Z" fill="#B8E7EE" stroke="#8ACAF0" stroke-width="3.74849"/>
<path d="M124.445 199.966C84.0165 216.059 77.1166 274.38 78.5886 301.038H277.034C280.174 250.796 255.609 215.666 242.689 205.854C224.536 180.34 174.981 179.85 124.445 199.966Z" fill="white"/>
<path d="M289.3 262.277L274.581 227.932C283.412 225.479 297.15 205.363 301.075 199.966C305 194.569 311.869 176.906 311.869 157.28C311.869 137.654 320.701 135.201 323.645 135.201C326 135.201 328.551 140.762 329.532 143.542C342.289 174.943 333.948 190.643 328.551 213.213C324.233 231.268 300.584 253.445 289.3 262.277Z" fill="white" stroke="white" stroke-width="0.981279"/>
<path d="M78.8156 232.839C76.853 235.586 69.8205 251.32 66.5496 258.843C46.924 277.291 19.1211 267.184 7.67285 259.824C15.3595 259.824 31.1254 259.628 32.6955 258.843C34.658 257.861 51.3398 252.464 58.2087 239.708C65.0777 226.951 86.6658 207.326 88.6284 205.363C90.1984 203.793 91.5722 204.709 92.0628 205.363C90.1003 206.835 81.2688 229.404 78.8156 232.839Z" fill="white" stroke="white" stroke-width="0.981279" stroke-linejoin="round"/>
<path d="M177.701 1.875C244.253 1.87518 297.682 47.8853 297.683 104.046C297.683 160.207 244.254 206.218 177.701 206.218C111.149 206.218 57.7197 160.207 57.7197 104.046C57.72 47.8852 111.149 1.875 177.701 1.875Z" fill="#B8E7EE" stroke="#8ACAF0" stroke-width="3.74942"/>
<path d="M80.9407 97.3505C82.9759 72.0658 100.702 52.8621 120.531 54.4579C139.543 55.9882 153.585 76.0817 152.918 100.019C160.989 100.326 169.571 100.549 178.638 100.549C192.003 100.549 204.483 99.6862 215.932 98.5429C215.497 76.7193 227.579 58.1873 245.166 55.4569C264.825 52.4051 283.917 70.2519 287.808 95.3183C287.882 95.7989 287.949 96.2789 288.011 96.7577C292.5 99.8383 294.87 105.061 294.87 113.419C294.87 150.175 249.043 203.657 178.638 203.657C108.233 203.657 67.093 160.738 67.093 123.982C67.0931 111.55 71.8005 104.847 80.7551 101.42C80.7706 100.075 80.8306 98.718 80.9407 97.3505Z" fill="white"/>
<path d="M177.7 75.9258C188.982 75.9258 199.128 78.1422 206.417 82.0938C213.703 86.0439 218.006 91.6399 218.007 98.4219C218.007 105.284 213.612 112.774 206.281 118.59C198.974 124.387 188.866 128.417 177.7 128.417C166.576 128.417 156.479 123.714 149.159 117.217C141.813 110.697 137.394 102.496 137.394 95.6104C137.394 88.8684 141.648 83.9762 148.92 80.7188C156.211 77.4522 166.372 75.9258 177.7 75.9258Z" fill="#F1D453" stroke="#E1BA43" stroke-width="1.87471"/>
<path d="M151.455 103.109C151.455 103.109 163.64 111.546 179.575 111.546C195.51 111.546 205.821 103.109 205.821 103.109" stroke="#583921" stroke-width="2.81206" stroke-linecap="round"/>
<path d="M232.067 89.0481C232.067 89.0481 233.942 84.3613 240.503 84.3613C247.065 84.3613 248.939 89.0481 248.939 89.0481" stroke="#583921" stroke-width="2.81206" stroke-linecap="round"/>
<circle cx="118.979" cy="83.3755" r="5.69971" fill="#603C1F"/>
</svg>
