<svg width="1512" height="982" viewBox="0 0 1512 982" fill="none" xmlns="http://www.w3.org/2000/svg">
<g clip-path="url(#clip0_1089_1077)">
<rect width="1512" height="982" fill="#ED1C24"/>
<path d="M1274.96 -430.849C1455.71 -266.667 1511.56 -43.6675 1424.91 185.185C1371.97 324.968 1208.79 481.614 1048.24 411.081C936.626 362.036 910.067 76.1934 1067.45 118.828C1147.62 140.545 1187.17 262.309 1194.43 333.325C1215.24 536.931 1067.11 706.988 878.491 767.514C711.899 820.979 523.194 734.948 452.119 574.568C408.742 476.687 423.495 298.889 563.45 290.971C779.911 278.72 639.824 623.673 522.59 693.897C98.6658 947.842 -239.346 339.401 -223.295 -12.3176" stroke="#FD3F47" stroke-opacity="0.55" stroke-width="153.968" stroke-miterlimit="1.5" stroke-linecap="round" stroke-linejoin="round"/>
</g>
<defs>
<clipPath id="clip0_1089_1077">
<rect width="1512" height="982" fill="white"/>
</clipPath>
</defs>
</svg>
