<svg width="468" height="668" viewBox="0 0 468 668" fill="none" xmlns="http://www.w3.org/2000/svg">
<path d="M222.921 481.775C162.418 479.758 134.408 423.793 127.965 396.062C52.0009 423.625 15.0832 366.651 6.11989 334.719C-7.32514 291.695 20.125 249.007 35.5307 233.041C-13.5436 177.244 10.0412 125.201 27.9679 106.154C52.169 61.7851 112.56 66.3789 139.73 74.2219C153.735 46.7716 196.199 -5.77603 254.012 3.63549C311.826 13.047 332.442 59.6565 335.523 81.7848C390.648 64.9785 433 99.9916 447.285 119.599C488.964 187.496 448.405 233.041 422.916 247.327C453.167 276.906 451.767 310.07 447.285 322.955C432.495 390.853 364.934 395.502 333.002 389.34C306.112 468.666 248.41 484.015 222.921 481.775Z" fill="#FF8F57" stroke="#F15B2C" stroke-width="5.04189" stroke-linecap="round"/>
<mask id="path-2-inside-1_980_248" fill="white">
<path d="M118.724 94.3889C134.707 94.3891 148.373 104.306 153.907 118.322C179.107 105.549 208.317 98.7288 240.088 100.714C271.21 102.659 299.34 111.665 323.151 125.539C329.739 114.437 341.846 106.993 355.693 106.993C376.577 106.994 393.506 123.924 393.506 144.808C393.506 157.51 387.243 168.749 377.637 175.606C395.9 202.081 405.383 232.991 403.445 263.992C398.52 342.817 317.439 388.55 218.039 382.339C118.64 376.128 56.5172 332.125 61.4425 253.301C63.4133 221.764 76.4932 190.043 97.8429 163.731C87.6384 156.959 80.9094 145.368 80.9093 132.203C80.9093 111.319 97.8396 94.3889 118.724 94.3889Z"/>
</mask>
<path d="M118.724 94.3889C134.707 94.3891 148.373 104.306 153.907 118.322C179.107 105.549 208.317 98.7288 240.088 100.714C271.21 102.659 299.34 111.665 323.151 125.539C329.739 114.437 341.846 106.993 355.693 106.993C376.577 106.994 393.506 123.924 393.506 144.808C393.506 157.51 387.243 168.749 377.637 175.606C395.9 202.081 405.383 232.991 403.445 263.992C398.52 342.817 317.439 388.55 218.039 382.339C118.64 376.128 56.5172 332.125 61.4425 253.301C63.4133 221.764 76.4932 190.043 97.8429 163.731C87.6384 156.959 80.9094 145.368 80.9093 132.203C80.9093 111.319 97.8396 94.3889 118.724 94.3889Z" fill="#FECE6D"/>
<path fill-rule="evenodd" clip-rule="evenodd" d="M118.724 94.3889L118.724 89.347H118.724V94.3889ZM153.907 118.322L149.218 120.173L151.25 125.321L156.187 122.819L153.907 118.322ZM240.088 100.714L240.402 95.682V95.682L240.088 100.714ZM323.151 125.539L320.612 129.896L324.934 132.414L327.487 128.112L323.151 125.539ZM355.693 106.993L355.693 101.952H355.693V106.993ZM393.506 144.808H398.548V144.808H393.506ZM377.637 175.606L374.708 171.502L370.669 174.385L373.487 178.469L377.637 175.606ZM403.445 263.992L408.478 264.307V264.307L403.445 263.992ZM218.039 382.339L217.725 387.371H217.725L218.039 382.339ZM61.4425 253.301L56.4105 252.987L56.4105 252.987L61.4425 253.301ZM97.8429 163.731L101.758 166.908L105.255 162.598L100.631 159.53L97.8429 163.731ZM80.9093 132.203H75.8674V132.203L80.9093 132.203ZM118.724 94.3889L118.724 99.4308C132.568 99.4309 144.418 108.017 149.218 120.173L153.907 118.322L158.597 116.47C152.328 100.594 136.846 89.3472 118.724 89.347L118.724 94.3889ZM153.907 118.322L156.187 122.819C180.618 110.435 208.935 103.819 239.774 105.746L240.088 100.714L240.402 95.682C207.698 93.6384 177.596 100.662 151.628 113.824L153.907 118.322ZM240.088 100.714L239.774 105.746C270.109 107.642 297.479 116.415 320.612 129.896L323.151 125.539L325.689 121.183C301.202 106.914 272.311 97.676 240.402 95.682L240.088 100.714ZM323.151 125.539L327.487 128.112C333.204 118.476 343.699 112.035 355.693 112.035V106.993V101.952C339.993 101.952 326.273 110.397 318.815 122.966L323.151 125.539ZM355.693 106.993L355.693 112.035C373.792 112.035 388.464 126.708 388.464 144.808H393.506H398.548C398.548 121.139 379.361 101.952 355.693 101.952L355.693 106.993ZM393.506 144.808H388.464C388.464 155.812 383.045 165.551 374.708 171.502L377.637 175.606L380.566 179.709C391.441 171.947 398.548 159.208 398.548 144.808H393.506ZM377.637 175.606L373.487 178.469C391.178 204.115 400.273 233.921 398.413 263.678L403.445 263.992L408.478 264.307C410.493 232.06 400.622 200.047 381.787 172.743L377.637 175.606ZM403.445 263.992L398.413 263.678C396.067 301.22 375.654 330.979 343.527 350.761C311.292 370.608 267.262 380.363 218.354 377.307L218.039 382.339L217.725 387.371C268.215 390.526 314.426 380.52 348.814 359.347C383.308 338.109 405.898 305.589 408.478 264.307L403.445 263.992ZM218.039 382.339L218.354 377.307C169.219 374.237 129.982 361.851 103.747 341.096C77.7491 320.527 64.1112 291.438 66.4746 253.615L61.4425 253.301L56.4105 252.987C53.8485 293.988 68.8093 326.312 97.4909 349.004C125.936 371.508 167.461 384.23 217.725 387.371L218.039 382.339ZM61.4425 253.301L66.4746 253.615C68.3733 223.23 80.9998 192.491 101.758 166.908L97.8429 163.731L93.9278 160.554C71.9867 187.595 58.4532 220.297 56.4105 252.987L61.4425 253.301ZM97.8429 163.731L100.631 159.53C91.7734 153.652 85.9513 143.607 85.9512 132.203L80.9093 132.203L75.8674 132.203C75.8676 147.129 83.5035 160.266 95.0551 167.932L97.8429 163.731ZM80.9093 132.203H85.9512C85.9512 114.104 100.624 99.4308 118.724 99.4308V94.3889V89.347C95.055 89.347 75.8674 108.535 75.8674 132.203H80.9093Z" fill="#F59313" mask="url(#path-2-inside-1_980_248)"/>
<path d="M276.62 237.926C276.62 237.926 277.986 226.999 291.645 226.999C305.303 226.999 306.669 237.926 306.669 237.926" stroke="#5E3916" stroke-width="5.46345" stroke-linecap="round"/>
<path d="M201.072 201.109C210.596 207.832 231.828 217.243 240.567 201.109C243.753 195.227 247.289 183.374 233.004 182.622C227.682 182.342 217.71 184.471 220.399 195.227C224.601 205.311 238.382 219.092 263.255 203.63" stroke="#603C1F" stroke-width="5.04189" stroke-linecap="round"/>
<ellipse cx="321.24" cy="259.091" rx="20.1676" ry="14.2853" fill="#F78F8B"/>
<ellipse cx="143.091" cy="250.688" rx="20.1676" ry="14.2853" fill="#F78F8B"/>
<rect x="121.242" y="448.162" width="104.199" height="50.4189" fill="#FECE6D"/>
<mask id="path-9-inside-2_980_248" fill="white">
<path d="M341.274 343.306C354.991 327.268 371.632 312.872 394.977 319.072C402.79 321.146 408.573 325.234 412.628 330.79C416.612 336.25 418.73 342.851 419.795 349.729C421.898 363.314 420.06 379.468 418.754 393.162C416.852 413.084 406.792 429.76 395.381 443.165C384.729 455.68 372.506 465.771 364.155 473.06L364.155 505.982L364.046 505.982V557.808C364.046 610.008 321.729 652.325 269.529 652.325H189.19C136.99 652.325 94.6725 610.008 94.6725 557.808L94.6725 498.735L95.1276 498.735V473.06C86.7763 465.771 74.5547 455.68 63.902 443.165C52.491 429.76 42.4302 413.084 40.5289 393.162C39.2222 379.468 37.3848 363.314 39.4879 349.729C40.5527 342.851 42.6718 336.25 46.6559 330.79C50.7107 325.234 56.493 321.146 64.3053 319.072C87.6506 312.872 104.291 327.268 118.008 343.306C126.115 352.784 128.157 364.528 129.19 374.533C129.737 379.834 129.964 384.153 130.531 388.441C131.069 392.512 131.82 395.55 132.99 397.734C132.996 397.739 133.002 397.746 133.009 397.752C133.139 397.868 133.408 398.08 133.888 398.37C134.815 398.928 136.199 399.58 138.097 400.296C141.881 401.724 147.174 403.206 153.725 404.688C166.793 407.643 184.317 410.472 203.566 412.874C212.024 413.93 220.795 414.899 229.641 415.761C238.488 414.899 247.258 413.93 255.716 412.874C274.965 410.472 292.489 407.643 305.557 404.688C312.109 403.206 317.401 401.724 321.185 400.296C323.084 399.58 324.467 398.928 325.394 398.37C325.874 398.08 326.143 397.868 326.273 397.752C326.28 397.746 326.286 397.739 326.293 397.733C327.462 395.549 328.214 392.512 328.752 388.441C329.318 384.153 329.545 379.834 330.092 374.533C331.126 364.528 333.168 352.784 341.274 343.306Z"/>
</mask>
<path d="M341.274 343.306C354.991 327.268 371.632 312.872 394.977 319.072C402.79 321.146 408.573 325.234 412.628 330.79C416.612 336.25 418.73 342.851 419.795 349.729C421.898 363.314 420.06 379.468 418.754 393.162C416.852 413.084 406.792 429.76 395.381 443.165C384.729 455.68 372.506 465.771 364.155 473.06L364.155 505.982L364.046 505.982V557.808C364.046 610.008 321.729 652.325 269.529 652.325H189.19C136.99 652.325 94.6725 610.008 94.6725 557.808L94.6725 498.735L95.1276 498.735V473.06C86.7763 465.771 74.5547 455.68 63.902 443.165C52.491 429.76 42.4302 413.084 40.5289 393.162C39.2222 379.468 37.3848 363.314 39.4879 349.729C40.5527 342.851 42.6718 336.25 46.6559 330.79C50.7107 325.234 56.493 321.146 64.3053 319.072C87.6506 312.872 104.291 327.268 118.008 343.306C126.115 352.784 128.157 364.528 129.19 374.533C129.737 379.834 129.964 384.153 130.531 388.441C131.069 392.512 131.82 395.55 132.99 397.734C132.996 397.739 133.002 397.746 133.009 397.752C133.139 397.868 133.408 398.08 133.888 398.37C134.815 398.928 136.199 399.58 138.097 400.296C141.881 401.724 147.174 403.206 153.725 404.688C166.793 407.643 184.317 410.472 203.566 412.874C212.024 413.93 220.795 414.899 229.641 415.761C238.488 414.899 247.258 413.93 255.716 412.874C274.965 410.472 292.489 407.643 305.557 404.688C312.109 403.206 317.401 401.724 321.185 400.296C323.084 399.58 324.467 398.928 325.394 398.37C325.874 398.08 326.143 397.868 326.273 397.752C326.28 397.746 326.286 397.739 326.293 397.733C327.462 395.549 328.214 392.512 328.752 388.441C329.318 384.153 329.545 379.834 330.092 374.533C331.126 364.528 333.168 352.784 341.274 343.306Z" fill="#FECE6D"/>
<path d="M341.274 343.306L337.449 340.035L337.449 340.035L341.274 343.306ZM394.977 319.072L396.269 314.207L396.269 314.207L394.977 319.072ZM412.628 330.79L416.693 327.824L416.693 327.823L412.628 330.79ZM419.795 349.729L424.768 348.959V348.959L419.795 349.729ZM418.754 393.162L423.764 393.64V393.64L418.754 393.162ZM395.381 443.165L399.214 446.428L399.214 446.428L395.381 443.165ZM364.155 473.06L360.845 469.268L359.122 470.772V473.06H364.155ZM364.155 505.982V511.015H369.188V505.982H364.155ZM364.046 505.982V500.949H359.013V505.982H364.046ZM94.6725 557.808H89.6395H94.6725ZM94.6725 498.735V493.702H89.6395V498.735H94.6725ZM95.1276 498.735V503.768H100.161V498.735H95.1276ZM95.1276 473.06H100.161V470.772L98.4371 469.268L95.1276 473.06ZM63.902 443.165L60.0694 446.428L60.0694 446.428L63.902 443.165ZM40.5289 393.162L35.5187 393.64L35.5187 393.64L40.5289 393.162ZM39.4879 349.729L34.5142 348.959L34.5141 348.959L39.4879 349.729ZM46.6559 330.79L42.5904 327.823L42.5903 327.824L46.6559 330.79ZM64.3053 319.072L63.0135 314.207L63.0134 314.207L64.3053 319.072ZM118.008 343.306L121.833 340.035L121.833 340.035L118.008 343.306ZM129.19 374.533L134.196 374.016V374.016L129.19 374.533ZM130.531 388.441L125.541 389.1L125.541 389.1L130.531 388.441ZM132.99 397.734L128.553 400.11L128.961 400.871L129.598 401.452L132.99 397.734ZM133.009 397.752L129.663 401.512L129.667 401.515L133.009 397.752ZM133.888 398.37L131.291 402.681L131.292 402.681L133.888 398.37ZM138.097 400.296L136.32 405.005L136.32 405.005L138.097 400.296ZM153.725 404.688L152.615 409.597L152.615 409.597L153.725 404.688ZM203.566 412.874L202.943 417.869H202.943L203.566 412.874ZM229.641 415.761L229.153 420.77L229.641 420.818L230.129 420.77L229.641 415.761ZM255.716 412.874L256.34 417.869V417.869L255.716 412.874ZM305.557 404.688L306.667 409.597V409.597L305.557 404.688ZM321.185 400.296L322.962 405.005L322.962 405.005L321.185 400.296ZM325.394 398.37L327.991 402.681L327.991 402.681L325.394 398.37ZM326.273 397.752L329.615 401.515L329.616 401.515L326.273 397.752ZM326.293 397.733L329.695 401.441L330.325 400.863L330.729 400.109L326.293 397.733ZM328.752 388.441L333.741 389.1L333.741 389.1L328.752 388.441ZM330.092 374.533L325.086 374.016V374.016L330.092 374.533ZM341.274 343.306L345.099 346.577C358.748 330.619 373.491 318.574 393.685 323.936L394.977 319.072L396.269 314.207C369.773 307.171 351.234 323.917 337.449 340.035L341.274 343.306ZM394.977 319.072L393.685 323.936C400.429 325.727 405.214 329.17 408.562 333.757L412.628 330.79L416.693 327.823C411.931 321.298 405.151 316.566 396.269 314.207L394.977 319.072ZM412.628 330.79L408.562 333.757C411.912 338.348 413.829 344.094 414.821 350.499L419.795 349.729L424.768 348.959C423.63 341.609 421.312 334.152 416.693 327.824L412.628 330.79ZM419.795 349.729L414.821 350.499C416.805 363.315 415.075 378.723 413.743 392.683L418.754 393.162L423.764 393.64C425.045 380.213 426.991 363.314 424.768 348.959L419.795 349.729ZM418.754 393.162L413.743 392.683C411.979 411.174 402.616 426.902 391.549 439.903L395.381 443.165L399.214 446.428C410.969 432.618 421.726 414.995 423.764 393.64L418.754 393.162ZM395.381 443.165L391.549 439.903C381.198 452.063 369.329 461.864 360.845 469.268L364.155 473.06L367.464 476.852C375.684 469.678 388.259 459.297 399.214 446.428L395.381 443.165ZM364.155 473.06H359.122V505.982H364.155H369.188V473.06H364.155ZM364.155 505.982V500.949H364.046V505.982V511.015H364.155V505.982ZM364.046 505.982H359.013V557.808H364.046H369.079V505.982H364.046ZM364.046 557.808H359.013C359.013 607.229 318.949 647.292 269.529 647.292V652.325V657.358C324.509 657.358 369.079 612.788 369.079 557.808H364.046ZM269.529 652.325V647.292H189.19V652.325V657.358H269.529V652.325ZM189.19 652.325V647.292C139.769 647.292 99.7055 607.228 99.7055 557.808H94.6725H89.6395C89.6395 612.788 134.21 657.358 189.19 657.358V652.325ZM94.6725 557.808H99.7055V498.735H94.6725H89.6395V557.808H94.6725ZM94.6725 498.735V503.768H95.1276V498.735V493.702H94.6725V498.735ZM95.1276 498.735H100.161V473.06H95.1276H90.0945V498.735H95.1276ZM95.1276 473.06L98.4371 469.268C89.9539 461.864 78.0852 452.063 67.7345 439.903L63.902 443.165L60.0694 446.428C71.0242 459.297 83.5987 469.678 91.8181 476.852L95.1276 473.06ZM63.902 443.165L67.7346 439.903C56.6676 426.902 47.3037 411.173 45.5392 392.683L40.5289 393.162L35.5187 393.64C37.5567 414.995 48.3145 432.618 60.0694 446.428L63.902 443.165ZM40.5289 393.162L45.5392 392.683C44.207 378.723 42.4777 363.315 44.4617 350.499L39.4879 349.729L34.5141 348.959C32.2918 363.314 34.2374 380.213 35.5187 393.64L40.5289 393.162ZM39.4879 349.729L44.4617 350.499C45.4532 344.094 47.3715 338.348 50.7215 333.757L46.6559 330.79L42.5903 327.824C37.9721 334.152 35.6522 341.608 34.5142 348.959L39.4879 349.729ZM46.6559 330.79L50.7214 333.757C54.0693 329.17 58.8543 325.727 65.5972 323.936L64.3053 319.072L63.0134 314.207C54.1317 316.566 47.3521 321.299 42.5904 327.823L46.6559 330.79ZM64.3053 319.072L65.5971 323.936C85.7912 318.573 100.535 330.619 114.184 346.577L118.008 343.306L121.833 340.035C108.048 323.917 89.51 307.171 63.0135 314.207L64.3053 319.072ZM118.008 343.306L114.184 346.577C121.222 354.807 123.165 365.189 124.184 375.05L129.19 374.533L134.196 374.016C133.148 363.866 131.007 350.761 121.833 340.035L118.008 343.306ZM129.19 374.533L124.184 375.05C124.691 379.959 124.971 384.786 125.541 389.1L130.531 388.441L135.521 387.782C134.958 383.52 134.784 379.709 134.196 374.016L129.19 374.533ZM130.531 388.441L125.541 389.1C126.1 393.328 126.943 397.104 128.553 400.11L132.99 397.734L137.426 395.357C136.697 393.996 136.038 391.696 135.521 387.782L130.531 388.441ZM132.99 397.734L129.598 401.452C129.552 401.41 129.517 401.376 129.5 401.361C129.492 401.352 129.485 401.346 129.483 401.344C129.482 401.343 129.481 401.342 129.482 401.342C129.482 401.342 129.483 401.344 129.485 401.345C129.49 401.35 129.512 401.372 129.54 401.399C129.569 401.426 129.611 401.466 129.663 401.512L133.009 397.752L136.356 393.993C136.404 394.036 136.443 394.072 136.468 394.096C136.481 394.109 136.492 394.119 136.5 394.126C136.507 394.133 136.512 394.139 136.514 394.14C136.515 394.141 136.515 394.142 136.515 394.141C136.514 394.14 136.512 394.139 136.511 394.137C136.507 394.133 136.499 394.125 136.489 394.116C136.478 394.106 136.464 394.092 136.446 394.075C136.429 394.059 136.407 394.039 136.382 394.015L132.99 397.734ZM133.009 397.752L129.667 401.515C130.068 401.871 130.596 402.262 131.291 402.681L133.888 398.37L136.485 394.058C136.356 393.98 136.287 393.932 136.266 393.917C136.244 393.901 136.278 393.924 136.352 393.989L133.009 397.752ZM133.888 398.37L131.292 402.681C132.579 403.456 134.272 404.232 136.32 405.005L138.097 400.296L139.874 395.587C138.125 394.927 137.051 394.399 136.485 394.058L133.888 398.37ZM138.097 400.296L136.32 405.005C140.42 406.552 145.97 408.094 152.615 409.597L153.725 404.688L154.835 399.779C148.378 398.318 143.343 396.896 139.874 395.587L138.097 400.296ZM153.725 404.688L152.615 409.597C165.909 412.603 183.614 415.456 202.943 417.869L203.566 412.874L204.189 407.88C185.021 405.488 167.678 402.683 154.835 399.779L153.725 404.688ZM203.566 412.874L202.943 417.869C211.449 418.93 220.265 419.904 229.153 420.77L229.641 415.761L230.129 410.752C221.325 409.894 212.6 408.93 204.189 407.88L203.566 412.874ZM229.641 415.761L230.129 420.77C239.018 419.904 247.834 418.93 256.34 417.869L255.716 412.874L255.093 407.88C246.683 408.93 237.957 409.894 229.153 410.752L229.641 415.761ZM255.716 412.874L256.34 417.869C275.669 415.456 293.373 412.603 306.667 409.597L305.557 404.688L304.447 399.779C291.605 402.683 274.262 405.488 255.093 407.88L255.716 412.874ZM305.557 404.688L306.667 409.597C313.313 408.094 318.862 406.552 322.962 405.005L321.185 400.296L319.408 395.587C315.939 396.896 310.904 398.318 304.447 399.779L305.557 404.688ZM321.185 400.296L322.962 405.005C325.01 404.232 326.703 403.456 327.991 402.681L325.394 398.37L322.798 394.058C322.231 394.399 321.157 394.927 319.408 395.587L321.185 400.296ZM325.394 398.37L327.991 402.681C328.687 402.262 329.215 401.871 329.615 401.515L326.273 397.752L322.931 393.989C323.005 393.924 323.038 393.901 323.016 393.917C322.996 393.932 322.927 393.98 322.797 394.058L325.394 398.37ZM326.273 397.752L329.616 401.515C329.712 401.43 329.788 401.355 329.839 401.304C329.865 401.278 329.886 401.257 329.901 401.241C329.916 401.226 329.928 401.214 329.932 401.209C329.933 401.208 329.936 401.205 329.934 401.206C329.934 401.207 329.932 401.209 329.929 401.212C329.923 401.218 329.91 401.233 329.892 401.251C329.874 401.269 329.848 401.296 329.816 401.327C329.784 401.358 329.743 401.397 329.695 401.441L326.293 397.733L322.89 394.024C322.841 394.07 322.798 394.11 322.765 394.143C322.732 394.176 322.704 394.204 322.684 394.224C322.665 394.244 322.65 394.26 322.642 394.267C322.638 394.271 322.635 394.275 322.634 394.276C322.632 394.278 322.634 394.276 322.635 394.275C322.637 394.273 322.647 394.262 322.66 394.249C322.674 394.235 322.693 394.215 322.718 394.19C322.765 394.143 322.838 394.072 322.93 393.99L326.273 397.752ZM326.293 397.733L330.729 400.109C332.339 397.103 333.183 393.328 333.741 389.1L328.752 388.441L323.762 387.782C323.245 391.695 322.585 393.995 321.856 395.356L326.293 397.733ZM328.752 388.441L333.741 389.1C334.311 384.786 334.592 379.959 335.099 375.05L330.092 374.533L325.086 374.016C324.498 379.708 324.325 383.52 323.762 387.782L328.752 388.441ZM330.092 374.533L335.099 375.05C336.117 365.19 338.06 354.807 345.099 346.577L341.274 343.306L337.449 340.035C328.275 350.761 326.134 363.866 325.086 374.016L330.092 374.533Z" fill="#F59313" mask="url(#path-9-inside-2_980_248)"/>
<path d="M222.922 481.775C162.419 479.758 130.979 420.697 124.536 392.967L335.715 389.213C308.825 468.538 248.412 484.015 222.922 481.775Z" fill="#FF8F57" stroke="#F15B2C" stroke-width="5.04189" stroke-linecap="round"/>
<path d="M222.921 476.733C162.418 474.716 128.759 415.493 126.412 385.928L334.306 384.52C306.618 472.276 248.41 478.973 222.921 476.733Z" fill="#FF8F57"/>
<path d="M251.184 242.747C266.616 242.747 279.126 255.256 279.126 270.688C279.126 286.12 266.616 298.63 251.184 298.63C241.934 298.63 233.736 294.135 228.651 287.211C223.565 294.135 215.367 298.63 206.117 298.63C190.686 298.63 178.175 286.12 178.175 270.688C178.175 255.256 190.686 242.747 206.117 242.747C215.367 242.747 223.565 247.242 228.651 254.166C233.736 247.242 241.934 242.747 251.184 242.747Z" fill="#FDFFFB"/>
<path d="M246.38 250.034C246.38 257.534 236.747 264.413 228.805 264.413C220.864 264.413 211.231 257.534 211.231 250.034C210.433 238.052 220.864 237.253 228.805 237.253C236.747 237.253 247.178 237.253 246.38 250.034Z" fill="#5E3916"/>
<circle cx="174.442" cy="232.46" r="11.1835" fill="#603C1F"/>
<path d="M154.883 612.524C173.966 612.524 190.376 614.562 202.256 618.479C214.211 622.421 220.612 627.914 221.8 634.201C221.81 641.013 222.186 647.782 215.064 653.412C207.467 659.416 190.921 664.427 154.883 664.427C118.845 664.427 102.299 659.416 94.7014 653.412C87.571 647.775 87.9556 640.997 87.9651 634.177C89.1589 627.219 95.5748 621.737 107.477 617.978C119.349 614.229 135.757 612.524 154.883 612.524Z" fill="#FECE6D" stroke="#F59313" stroke-width="5.46345"/>
<path d="M131.662 642.573V660.329" stroke="#F59313" stroke-width="5.46345" stroke-linecap="round"/>
<path d="M152.151 642.573V660.329" stroke="#F59313" stroke-width="5.46345" stroke-linecap="round"/>
<path d="M171.272 642.573V660.329" stroke="#F59313" stroke-width="5.46345" stroke-linecap="round"/>
<path d="M313.322 612.524C332.405 612.524 348.815 614.562 360.695 618.479C372.65 622.421 379.051 627.914 380.239 634.201C380.249 641.013 380.625 647.782 373.503 653.412C365.905 659.416 349.36 664.427 313.322 664.427C277.284 664.427 260.738 659.416 253.14 653.412C246.01 647.775 246.395 640.997 246.404 634.177C247.598 627.219 254.014 621.737 265.916 617.978C277.788 614.229 294.196 612.524 313.322 612.524Z" fill="#FECE6D" stroke="#F59313" stroke-width="5.46345"/>
<path d="M290.102 642.573V660.329" stroke="#F59313" stroke-width="5.46345" stroke-linecap="round"/>
<path d="M310.591 642.573V660.329" stroke="#F59313" stroke-width="5.46345" stroke-linecap="round"/>
<path d="M329.712 642.573V660.329" stroke="#F59313" stroke-width="5.46345" stroke-linecap="round"/>
<ellipse cx="228.18" cy="551.901" rx="62.6174" ry="50.8028" fill="#F8A233"/>
</svg>
