<svg width="1512" height="982" viewBox="0 0 1512 982" fill="none" xmlns="http://www.w3.org/2000/svg">
<g clip-path="url(#clip0_980_305)">
<rect width="1512" height="982" fill="#ED1C24"/>
<path d="M-41.7462 1073.18C-41.7462 1073.18 -7.65477 860.861 169.163 729.381C348.884 595.741 671.209 542.588 739.949 723.122C776.926 820.238 753.114 911.751 646.364 968.583C539.972 1025.23 438.352 1000.27 369.315 922.397C221.509 755.667 428.039 455.286 655.13 332.724C882.678 209.915 1254.04 200.167 1311.01 416.085C1337.66 517.071 1306.24 617.226 1198.34 671.809C1092.57 725.313 987.665 703.392 921.289 625.623C779.674 459.703 959.849 145.975 1191.2 44.5021C1342.25 -21.7535 1471.71 -15.807 1594.87 63.0448" stroke="#FD3F47" stroke-opacity="0.55" stroke-width="114.545" stroke-linecap="round"/>
</g>
<defs>
<clipPath id="clip0_980_305">
<rect width="1512" height="982" fill="white"/>
</clipPath>
</defs>
</svg>
