<svg width="474" height="550" viewBox="0 0 474 550" fill="none" xmlns="http://www.w3.org/2000/svg">
<mask id="path-1-inside-1_980_282" fill="white">
<path d="M430.214 167.643C436.272 167.573 442.725 169.959 449.47 175.412C463.044 186.387 469.366 204.792 471.928 222.796C474.499 240.865 473.365 259.091 471.518 270.428C468.699 291.217 456.939 312.511 443.628 330.547C431.141 347.467 417.103 361.763 407.239 370.418C409.093 372.843 410.684 375.85 412.056 379.101C413.875 383.413 415.39 388.348 416.633 393.339C419.118 403.318 420.567 413.739 421.144 420.315L421.163 420.542H421.378L421.529 430.079C422.417 485.993 377.334 531.797 321.413 531.797L173.442 531.797C117.47 531.797 72.3668 485.913 73.3273 429.949L73.4699 421.581L73.425 420.672C72.859 409.351 75.3315 397.219 78.5773 386.745C80.4114 380.827 82.5099 375.379 84.4953 370.831C57.1869 386.644 27.8801 379.864 15.632 373.848L15.4777 373.771L15.3351 373.677C7.84518 368.683 -0.597932 359.19 0.0333746 347.1C0.670385 334.904 10.4507 321.513 36.0344 308.584C85.6464 283.511 116.511 261.675 126.24 253.53C131.174 239.979 143.661 231.771 159.813 227.213C176.258 222.572 197.024 221.546 219.063 222.71C261.799 224.967 310.049 235.505 342.636 244.859L345.74 245.761L346.648 246.026L347.172 246.813L359.524 265.341C369.795 259.856 378.097 248.96 384.376 236.924C391.014 224.2 395.164 210.642 396.939 202.101L396.966 201.969L397.008 201.838C399.801 193.109 405.69 181.091 414.447 173.878C418.877 170.229 424.164 167.714 430.214 167.643Z"/>
</mask>
<path d="M430.214 167.643C436.272 167.573 442.725 169.959 449.47 175.412C463.044 186.387 469.366 204.792 471.928 222.796C474.499 240.865 473.365 259.091 471.518 270.428C468.699 291.217 456.939 312.511 443.628 330.547C431.141 347.467 417.103 361.763 407.239 370.418C409.093 372.843 410.684 375.85 412.056 379.101C413.875 383.413 415.39 388.348 416.633 393.339C419.118 403.318 420.567 413.739 421.144 420.315L421.163 420.542H421.378L421.529 430.079C422.417 485.993 377.334 531.797 321.413 531.797L173.442 531.797C117.47 531.797 72.3668 485.913 73.3273 429.949L73.4699 421.581L73.425 420.672C72.859 409.351 75.3315 397.219 78.5773 386.745C80.4114 380.827 82.5099 375.379 84.4953 370.831C57.1869 386.644 27.8801 379.864 15.632 373.848L15.4777 373.771L15.3351 373.677C7.84518 368.683 -0.597932 359.19 0.0333746 347.1C0.670385 334.904 10.4507 321.513 36.0344 308.584C85.6464 283.511 116.511 261.675 126.24 253.53C131.174 239.979 143.661 231.771 159.813 227.213C176.258 222.572 197.024 221.546 219.063 222.71C261.799 224.967 310.049 235.505 342.636 244.859L345.74 245.761L346.648 246.026L347.172 246.813L359.524 265.341C369.795 259.856 378.097 248.96 384.376 236.924C391.014 224.2 395.164 210.642 396.939 202.101L396.966 201.969L397.008 201.838C399.801 193.109 405.69 181.091 414.447 173.878C418.877 170.229 424.164 167.714 430.214 167.643Z" fill="#B8E7EE"/>
<path fill-rule="evenodd" clip-rule="evenodd" d="M430.214 167.643L430.137 160.969L430.136 160.969L430.214 167.643ZM449.47 175.412L453.667 170.221L453.667 170.221L449.47 175.412ZM471.928 222.796L478.537 221.855V221.855L471.928 222.796ZM471.518 270.428L464.929 269.354L464.915 269.442L464.903 269.531L471.518 270.428ZM443.628 330.547L448.999 334.511L448.999 334.511L443.628 330.547ZM407.239 370.418L402.837 365.4L398.147 369.515L401.936 374.472L407.239 370.418ZM412.056 379.101L418.206 376.506L418.206 376.506L412.056 379.101ZM416.633 393.339L410.155 394.952V394.952L416.633 393.339ZM421.144 420.315L427.794 419.742L427.793 419.732L421.144 420.315ZM421.163 420.542L414.513 421.115L415.039 427.217H421.163V420.542ZM421.378 420.542L428.053 420.436L427.948 413.867H421.378V420.542ZM421.529 430.079L428.204 429.973V429.973L421.529 430.079ZM321.413 531.797V538.472H321.413L321.413 531.797ZM173.442 531.797V538.472V538.472V531.797ZM73.3273 429.949L80.0016 430.064L80.0016 430.063L73.3273 429.949ZM73.4699 421.581L80.1442 421.695L80.148 421.473L80.137 421.252L73.4699 421.581ZM73.425 420.672L80.0921 420.342L80.0919 420.338L73.425 420.672ZM78.5773 386.745L72.2012 384.769V384.769L78.5773 386.745ZM84.4953 370.831L90.6131 373.502L98.7493 354.863L81.1503 365.054L84.4953 370.831ZM15.632 373.848L12.6771 379.833L12.689 379.839L15.632 373.848ZM15.4777 373.771L11.7837 379.331L12.1396 379.568L12.5228 379.757L15.4777 373.771ZM15.3351 373.677L11.6323 379.231L11.6411 379.237L15.3351 373.677ZM0.0333746 347.1L-6.63281 346.751L-6.63282 346.751L0.0333746 347.1ZM36.0344 308.584L39.0452 314.542L39.0452 314.542L36.0344 308.584ZM126.24 253.53L130.525 258.649L131.9 257.498L132.513 255.814L126.24 253.53ZM159.813 227.213L158 220.788L158 220.788L159.813 227.213ZM219.063 222.71L219.415 216.044L219.415 216.044L219.063 222.71ZM342.636 244.859L344.497 238.449L344.487 238.446L344.478 238.443L342.636 244.859ZM345.74 245.761L347.616 239.354L347.609 239.352L347.602 239.35L345.74 245.761ZM346.648 246.026L352.203 242.325L350.855 240.303L348.523 239.62L346.648 246.026ZM347.172 246.813L341.617 250.515L341.618 250.516L347.172 246.813ZM359.524 265.341L353.969 269.044L357.328 274.081L362.668 271.229L359.524 265.341ZM384.376 236.924L390.295 240.011L390.295 240.011L384.376 236.924ZM396.939 202.101L403.474 203.46L403.477 203.448L396.939 202.101ZM396.966 201.969L390.61 199.929L390.5 200.271L390.428 200.623L396.966 201.969ZM397.008 201.838L403.364 203.877L403.366 203.872L397.008 201.838ZM414.447 173.878L410.204 168.725L410.204 168.725L414.447 173.878ZM430.214 167.643L430.291 174.318C434.421 174.27 439.41 175.863 445.273 180.603L449.47 175.412L453.667 170.221C446.04 164.055 438.123 160.876 430.137 160.969L430.214 167.643ZM449.47 175.412L445.273 180.603C456.866 189.976 462.837 206.294 465.319 223.736L471.928 222.796L478.537 221.855C475.895 203.291 469.222 182.798 453.667 170.221L449.47 175.412ZM471.928 222.796L465.319 223.736C467.779 241.023 466.688 258.56 464.929 269.354L471.518 270.428L478.106 271.501C480.041 259.622 481.219 240.707 478.537 221.855L471.928 222.796ZM471.518 270.428L464.903 269.531C462.308 288.673 451.322 308.88 438.257 326.583L443.628 330.547L448.999 334.511C462.556 316.142 475.091 293.76 478.133 271.324L471.518 270.428ZM443.628 330.547L438.257 326.583C426.087 343.073 412.386 357.022 402.837 365.4L407.239 370.418L411.642 375.436C421.821 366.504 436.194 351.86 448.999 334.511L443.628 330.547ZM407.239 370.418L401.936 374.472C403.326 376.29 404.66 378.743 405.906 381.695L412.056 379.101L418.206 376.506C416.709 372.958 414.86 369.396 412.543 366.364L407.239 370.418ZM412.056 379.101L405.906 381.695C407.547 385.585 408.964 390.164 410.155 394.952L416.633 393.339L423.111 391.726C421.817 386.532 420.204 381.241 418.206 376.506L412.056 379.101ZM416.633 393.339L410.155 394.952C412.54 404.529 413.941 414.597 414.494 420.899L421.144 420.315L427.793 419.732C427.192 412.881 425.695 402.107 423.111 391.726L416.633 393.339ZM421.144 420.315L414.493 420.889L414.513 421.115L421.163 420.542L427.814 419.969L427.794 419.742L421.144 420.315ZM421.163 420.542V427.217H421.378V420.542V413.867H421.163V420.542ZM421.378 420.542L414.704 420.648L414.855 430.185L421.529 430.079L428.204 429.973L428.053 420.436L421.378 420.542ZM421.529 430.079L414.855 430.185C415.683 482.371 373.606 525.121 321.413 525.122L321.413 531.797L321.413 538.472C381.062 538.472 429.15 489.615 428.204 429.973L421.529 430.079ZM321.413 531.797V525.122H173.442V531.797V538.472H321.413V531.797ZM173.442 531.797V525.122C121.201 525.121 79.1051 482.297 80.0016 430.064L73.3273 429.949L66.653 429.835C65.6284 489.529 113.738 538.472 173.442 538.472V531.797ZM73.3273 429.949L80.0016 430.063L80.1442 421.695L73.4699 421.581L66.7956 421.467L66.653 429.835L73.3273 429.949ZM73.4699 421.581L80.137 421.252L80.0921 420.342L73.425 420.672L66.7578 421.001L66.8027 421.91L73.4699 421.581ZM73.425 420.672L80.0919 420.338C79.5806 410.11 81.8239 398.82 84.9535 388.721L78.5773 386.745L72.2012 384.769C68.839 395.619 66.1374 408.591 66.758 421.005L73.425 420.672ZM78.5773 386.745L84.9535 388.721C86.7067 383.063 88.7158 377.848 90.6131 373.502L84.4953 370.831L78.3775 368.16C76.304 372.91 74.116 378.59 72.2012 384.769L78.5773 386.745ZM84.4953 370.831L81.1503 365.054C56.36 379.409 29.523 373.234 18.575 367.856L15.632 373.848L12.689 379.839C26.2373 386.494 58.0138 393.879 87.8403 376.608L84.4953 370.831ZM15.632 373.848L18.5869 367.862L18.4326 367.786L15.4777 373.771L12.5228 379.757L12.6771 379.833L15.632 373.848ZM15.4777 373.771L19.1717 368.211L19.0291 368.117L15.3351 373.677L11.6411 379.237L11.7837 379.331L15.4777 373.771ZM15.3351 373.677L19.038 368.123C12.4123 363.705 6.24697 356.116 6.69957 347.448L0.0333746 347.1L-6.63282 346.751C-7.44283 362.265 3.2781 373.661 11.6323 379.231L15.3351 373.677ZM0.0333746 347.1L6.69956 347.448C7.14382 338.942 14.1016 327.148 39.0452 314.542L36.0344 308.584L33.0235 302.626C6.79988 315.879 -5.80305 330.865 -6.63281 346.751L0.0333746 347.1ZM36.0344 308.584L39.0452 314.542C88.97 289.311 120.299 267.21 130.525 258.649L126.24 253.53L121.956 248.412C112.724 256.14 82.3229 277.711 33.0235 302.626L36.0344 308.584ZM126.24 253.53L132.513 255.814C136.39 245.164 146.426 237.926 161.626 233.637L159.813 227.213L158 220.788C140.895 225.615 125.958 234.794 119.968 251.246L126.24 253.53ZM159.813 227.213L161.626 233.637C177.048 229.285 196.974 228.228 218.711 229.376L219.063 222.71L219.415 216.044C197.074 214.864 175.468 215.859 158 220.788L159.813 227.213ZM219.063 222.71L218.711 229.376C260.765 231.597 308.486 242.002 340.794 251.275L342.636 244.859L344.478 238.443C311.611 229.009 262.832 218.337 219.415 216.044L219.063 222.71ZM342.636 244.859L340.775 251.27L343.879 252.171L345.74 245.761L347.602 239.35L344.497 238.449L342.636 244.859ZM345.74 245.761L343.865 252.167L344.772 252.433L346.648 246.026L348.523 239.62L347.616 239.354L345.74 245.761ZM346.648 246.026L341.092 249.727L341.617 250.515L347.172 246.813L352.727 243.112L352.203 242.325L346.648 246.026ZM347.172 246.813L341.618 250.516L353.969 269.044L359.524 265.341L365.078 261.638L352.726 243.111L347.172 246.813ZM359.524 265.341L362.668 271.229C374.696 264.806 383.783 252.493 390.295 240.011L384.376 236.924L378.458 233.836C372.412 245.426 364.894 254.906 356.379 259.452L359.524 265.341ZM384.376 236.924L390.295 240.011C397.257 226.664 401.594 212.509 403.474 203.46L396.939 202.101L390.403 200.743C388.734 208.776 384.77 221.737 378.458 233.836L384.376 236.924ZM396.939 202.101L403.477 203.448L403.504 203.315L396.966 201.969L390.428 200.623L390.401 200.755L396.939 202.101ZM396.966 201.969L403.322 204.008L403.364 203.877L397.008 201.838L390.652 199.798L390.61 199.929L396.966 201.969ZM397.008 201.838L403.366 203.872C405.981 195.699 411.351 185.077 418.691 179.03L414.447 173.878L410.204 168.725C400.029 177.106 393.622 190.519 390.65 199.803L397.008 201.838ZM414.447 173.878L418.691 179.03C422.283 176.072 426.149 174.366 430.292 174.318L430.214 167.643L430.136 160.969C422.179 161.061 415.471 164.387 410.204 168.725L414.447 173.878Z" fill="#8ACAF0" mask="url(#path-1-inside-1_980_282)"/>
<path d="M401.528 364.022L381.098 316.354C393.356 312.949 412.423 285.029 417.871 277.539C423.319 270.048 432.852 245.533 432.852 218.294C432.852 191.055 445.11 187.65 449.196 187.65C452.464 187.65 456.005 195.368 457.367 199.227C475.073 242.809 463.496 264.6 456.005 295.925C450.013 320.985 417.19 351.765 401.528 364.022Z" fill="white" stroke="white" stroke-width="1.36195"/>
<path d="M109.391 323.164C106.667 326.977 96.9067 348.814 92.3669 359.255C65.128 384.86 26.5395 370.832 10.6501 360.617C21.3187 360.617 43.2006 360.345 45.3797 359.255C48.1036 357.893 71.2567 350.402 80.7903 332.697C90.3239 314.992 120.287 287.753 123.011 285.029C125.19 282.85 127.096 284.121 127.777 285.029C125.054 287.072 112.796 318.397 109.391 323.164Z" fill="white" stroke="white" stroke-width="1.36195" stroke-linejoin="round"/>
<circle cx="250.699" cy="381.603" r="114.592" fill="white"/>
<path d="M246.636 2.60156C339.006 2.60175 413.161 66.4619 413.161 144.409C413.161 222.356 339.006 286.216 246.636 286.216C154.266 286.216 80.1096 222.356 80.1094 144.409C80.1094 66.4618 154.265 2.60156 246.636 2.60156Z" fill="#B8E7EE" stroke="#8ACAF0" stroke-width="5.20392"/>
<path d="M112.34 135.116C115.165 100.023 139.767 73.3699 167.29 75.5852C193.677 77.7092 213.168 105.597 212.242 138.822C223.443 139.247 235.353 139.555 247.937 139.555C266.487 139.555 283.807 138.358 299.697 136.772C299.092 106.482 315.864 80.7614 340.274 76.9719C367.559 72.7364 394.056 97.5059 399.457 132.296C399.56 132.964 399.654 133.631 399.741 134.297C405.97 138.573 409.259 145.819 409.259 157.418C409.259 208.433 345.655 282.663 247.937 282.663C150.22 282.663 93.1206 223.095 93.1206 172.08C93.1207 154.826 99.6532 145.524 112.08 140.767C112.101 138.9 112.187 137.015 112.34 135.116Z" fill="white"/>
<path d="M246.635 105.379C262.295 105.379 276.377 108.455 286.493 113.94C296.605 119.422 302.578 127.19 302.578 136.603C302.578 146.127 296.478 156.522 286.303 164.594C276.162 172.64 262.133 178.234 246.635 178.234C231.196 178.234 217.183 171.707 207.022 162.689C196.826 153.639 190.693 142.256 190.693 132.699C190.693 123.342 196.598 116.553 206.69 112.032C216.811 107.499 230.913 105.379 246.635 105.379Z" fill="#F1D453" stroke="#E1BA43" stroke-width="2.60196"/>
<path d="M210.208 143.108C210.208 143.108 227.121 154.817 249.238 154.817C271.355 154.817 285.665 143.108 285.665 143.108" stroke="#583921" stroke-width="3.90294" stroke-linecap="round"/>
<path d="M150.363 123.593C150.363 123.593 152.965 117.089 162.071 117.089C171.178 117.089 173.78 123.593 173.78 123.593" stroke="#583921" stroke-width="3.90294" stroke-linecap="round"/>
<path d="M322.091 123.593C322.091 123.593 324.693 117.089 333.8 117.089C342.907 117.089 345.509 123.593 345.509 123.593" stroke="#583921" stroke-width="3.90294" stroke-linecap="round"/>
<path d="M152.373 512.118C170.383 512.118 185.91 513.543 197.178 516.298C202.82 517.677 207.259 519.359 210.382 521.269C213.389 523.108 214.892 524.98 215.388 526.744C215.396 529.126 215.471 531.139 214.815 533.173C214.188 535.119 212.806 537.245 209.339 539.277C205.782 541.362 200.066 543.319 190.884 544.742C181.728 546.161 169.28 547.026 152.373 547.026C135.466 547.026 123.018 546.161 113.862 544.742C104.681 543.32 98.9648 541.362 95.4082 539.277C91.9405 537.245 90.5582 535.119 89.9307 533.173C89.2727 531.133 89.3498 529.112 89.3574 526.721C89.8617 524.7 91.3985 522.719 94.3848 520.854C97.4872 518.916 101.905 517.267 107.544 515.946C118.807 513.309 134.334 512.118 152.373 512.118Z" fill="#B8E7EE" stroke="#8ACAF0" stroke-width="5.14476"/>
<path d="M352.631 512.118C370.641 512.118 386.169 513.543 397.436 516.298C403.078 517.677 407.517 519.359 410.64 521.269C413.647 523.108 415.151 524.98 415.646 526.744C415.654 529.126 415.73 531.139 415.074 533.173C414.446 535.119 413.065 537.245 409.597 539.277C406.041 541.362 400.324 543.319 391.142 544.742C381.986 546.161 369.539 547.026 352.631 547.026C335.724 547.026 323.277 546.161 314.121 544.742C304.939 543.32 299.223 541.362 295.667 539.277C292.199 537.245 290.816 535.119 290.189 533.173C289.531 531.133 289.608 529.112 289.616 526.721C290.12 524.7 291.657 522.719 294.643 520.854C297.746 518.916 302.163 517.267 307.802 515.946C319.066 513.309 334.592 512.118 352.631 512.118Z" fill="#B8E7EE" stroke="#8ACAF0" stroke-width="5.14476"/>
</svg>
