<svg width="327" height="336" viewBox="0 0 327 336" fill="none" xmlns="http://www.w3.org/2000/svg">
<mask id="mask0_1858_244" style="mask-type:alpha" maskUnits="userSpaceOnUse" x="0" y="0" width="327" height="336">
<rect width="326.587" height="336" rx="55.0579" fill="#FF7BE2"/>
</mask>
<g mask="url(#mask0_1858_244)">
<path d="M163.086 54.5098C236.998 54.51 296.329 105.621 296.329 168C296.329 230.379 236.998 281.489 163.086 281.489C89.1736 281.489 29.842 230.379 29.8418 168C29.8418 105.621 89.1735 54.5098 163.086 54.5098Z" fill="#B8E7EE" stroke="#8ACAF0" stroke-width="4.21257"/>
<path d="M55.6133 160.561C57.8739 132.469 77.5618 111.134 99.5879 112.907C120.705 114.607 136.302 136.931 135.561 163.527C144.526 163.867 154.058 164.114 164.13 164.114C178.975 164.114 192.837 163.156 205.553 161.886C205.069 137.64 218.489 117.05 238.024 114.017C259.86 110.626 281.065 130.453 285.388 158.302C285.471 158.836 285.545 159.371 285.614 159.903C290.601 163.325 293.233 169.127 293.233 178.413C293.233 219.248 242.332 278.669 164.13 278.669C85.928 278.669 40.2325 230.986 40.2324 190.15C40.2324 176.337 45.4609 168.89 55.4072 165.082C55.4245 163.589 55.491 162.08 55.6133 160.561Z" fill="white"/>
<path d="M163.083 136.77C175.614 136.77 186.881 139.232 194.975 143.621C203.065 148.009 207.841 154.223 207.841 161.752C207.841 169.371 202.963 177.689 194.822 184.149C186.708 190.588 175.483 195.065 163.083 195.065C150.731 195.065 139.519 189.842 131.39 182.625C123.231 175.382 118.325 166.273 118.325 158.628C118.325 151.144 123.047 145.713 131.121 142.095C139.218 138.467 150.502 136.77 163.083 136.77Z" fill="#F1D453" stroke="#E1BA43" stroke-width="2.10629"/>
<path d="M133.934 166.958C133.934 166.958 147.469 176.331 165.168 176.331C182.868 176.331 194.321 166.958 194.321 166.958" stroke="#583921" stroke-width="3.15943" stroke-linecap="round"/>
<ellipse cx="95.3259" cy="147.167" rx="7.85908" ry="7.86099" fill="#603C1F"/>
<ellipse cx="236.508" cy="147.167" rx="7.85908" ry="7.86099" fill="#603C1F"/>
</g>
</svg>
