<svg width="194" height="127" viewBox="0 0 194 127" fill="none" xmlns="http://www.w3.org/2000/svg">
<path d="M62.1473 23.5002C63.7399 18.4533 60.408 4.55035 64.6136 0L66.1484 0.0666736C68.2589 3.51278 64.9916 15.8373 68.2841 20.8397C69.7396 20.2024 71.9287 19.691 73.5079 19.2686C76.5945 17.5937 74.9953 11.7538 76.7813 6.00288C77.1385 9.71579 76.8324 15.6594 78.4487 17.9642C92.987 15.5779 100.997 15.1036 115.854 18.1643C125.37 20.1208 135.846 28.4953 142.405 27.895C145.974 28.0654 147.27 28.1099 150.79 28.9325C154.584 30.7556 158.755 32.7418 161.404 36.1805C167.586 44.214 170.707 53.9816 175.719 62.7266C180.922 71.7977 188.198 79.8979 192.093 89.6952C192.788 91.4368 192.98 94.0455 193.115 95.9353C195.86 109.831 190.762 122.83 175.787 125.579C167.566 127.113 159.071 125.283 152.215 120.495C147.754 117.368 145.468 114.018 142.175 109.749C125.947 112.165 88.0604 116.679 72.5505 112.373C66.3692 112.195 58.9355 110.468 52.944 108.942C51.1595 111.632 49.2942 114.618 47.0361 116.923C32.2188 132.042 -0.194696 128.484 0.0129524 103.191C-0.419092 85.7155 10.0482 77.4967 17.8153 63.438C25.1047 50.2465 26.8081 39.382 39.8974 30.1034C41.6137 28.5323 41.6189 21.3215 41.8101 18.5794C42.4215 22.3738 42.7194 25.2122 43.0055 29.0511C46.7849 28.1989 49.103 28.0358 52.9818 27.7245L53.0529 27.0427C53.751 19.8763 52.9536 13.5844 53.8525 5.89179C55.9253 9.538 54.0659 24.5008 55.7326 28.4953L62.1473 23.5002Z" fill="#FFFFFE"/>
<path d="M108.803 108.866C122.39 108.111 134.719 107.273 147.159 101.611C173.602 89.5756 155.853 63.1184 157.51 58.405C159.558 59.0276 160.771 60.8951 161.915 62.7923C166.303 70.1662 167.542 78.9927 165.351 87.2856C162.456 98.0834 155.443 103.041 146.459 108.207C158.202 125.586 182.271 127.75 190.559 106.013L191 106.458C193.269 101.604 192.864 101.233 193.114 95.9343C195.86 109.83 190.762 122.829 175.787 125.578C167.566 127.112 159.07 125.282 152.215 120.494C147.753 117.367 145.468 114.017 142.175 109.748C125.947 112.164 88.0602 116.678 72.5503 112.372C72.4659 111.416 72.3999 111.579 71.9375 110.66C70.4227 110.615 68.908 110.586 67.3925 110.578L68.1076 110.986L67.2754 110.786L68.0468 109.704C69.9084 109.504 71.7744 109.348 73.6427 109.222L73.4752 108.096L76.0808 108.044C79.7802 107.821 84.0525 108.444 86.3417 106.636L89.0429 105.754C95.6384 105.48 102.241 105.487 108.836 105.761L108.803 108.866Z" fill="#8F6D48"/>
<path d="M89.0429 105.755C95.6384 105.481 102.241 105.488 108.836 105.762L108.803 108.867C101.093 110.253 84.1696 108.808 76.0808 108.045C79.7802 107.822 84.0525 108.445 86.3417 106.637L89.0429 105.755Z" fill="#F5D5C0"/>
<path d="M33.8772 89.6284C38.6356 96.9875 44.1766 101.671 52.8041 104.072C58.875 106.763 66.8519 107.941 73.4756 108.097L73.6431 109.223C71.7748 109.349 69.9088 109.505 68.0472 109.705L67.2758 110.787L68.108 110.987L67.3929 110.579C68.9084 110.587 70.4231 110.616 71.9379 110.661C72.4003 111.58 72.4662 111.417 72.5507 112.373C66.3695 112.195 58.9358 110.468 52.9442 108.941C51.1597 111.632 49.2944 114.618 47.0364 116.923C32.219 132.041 -0.194448 128.484 0.0132 103.19C0.621471 99.8259 2.5902 97.4396 4.52165 94.6012C4.51076 97.2543 4.13022 103.717 4.69269 105.821C11.1551 129.959 35.8336 124.186 47.3832 108.141C39.2166 103.102 35.4957 100.767 30.641 92.6002L33.8772 89.6284Z" fill="#936E46"/>
<path d="M53.9335 81.0765C50.9796 78.2825 47.8656 74.503 48.2606 70.086C49.4515 56.7611 73.2895 56.7165 71.2197 71.9017C70.1978 79.4016 65.1348 83.0626 57.7456 82.492C57.166 82.1733 54.6998 81.3433 53.9335 81.0765Z" fill="#6CB5CD"/>
<path d="M57.1146 63.8226C59.778 62.8221 62.7742 63.3409 64.9492 65.1714C67.1243 67.0094 68.1388 69.87 67.603 72.6639C67.0665 75.4579 65.0634 77.7478 62.3644 78.6446C58.2974 80.0008 53.8947 77.8516 52.4644 73.8126C51.0334 69.7662 53.1017 65.327 57.1146 63.8226Z" fill="#E9F8FA"/>
<path d="M78.4486 17.9644C92.987 15.5781 100.997 15.1038 115.854 18.1645C125.37 20.121 135.846 28.4954 142.405 27.8951C145.974 28.0656 147.27 28.1101 150.79 28.9327C148.001 30.4445 148.831 29.533 147.54 32.2528L145.351 32.2972C143.854 35.0245 147.326 35.9064 146.354 39.7824L145.072 40.1455C140.522 36.5734 134.136 31.4302 129.36 28.3472C116.193 19.8616 92.9181 19.7357 77.7869 23.0262C77.2051 21.3661 77.3015 20.7213 77.2926 18.9945L78.4486 17.9644Z" fill="#936E46"/>
<path d="M142.405 27.8953C145.974 28.0657 147.27 28.1102 150.79 28.9328C148.001 30.4447 148.831 29.5331 147.54 32.2529L145.351 32.2973C142.634 30.0592 143.407 31.2302 142.405 27.8953Z" fill="#936E46"/>
<path d="M53.9336 81.0766C54.6999 81.3434 57.1662 82.1735 57.7457 82.4922L56.1969 83.374C57.596 88.369 61.0161 88.873 58.4468 93.6161C56.288 97.6032 52.0454 98.6481 50.6618 101.657L52.8042 104.073C44.1767 101.672 38.6357 96.9881 33.8773 89.629L32.6665 86.3755C31.4767 86.42 54.7014 80.795 53.9336 81.0766Z" fill="#F6E0E6"/>
<path d="M39.8977 30.1038C40.2675 31.7119 40.5913 32.7421 40.5528 34.4244C28.886 45.9411 28.1006 52.811 20.2436 66.7585C16.5006 73.3987 11.542 80.4541 7.61533 87.1314C6.35699 89.2732 5.18461 93.4677 4.52165 94.6016C2.5902 97.44 0.621468 99.8263 0.0131965 103.191C-0.418848 85.7158 10.0485 77.497 17.8156 63.4384C25.1049 50.2468 26.8083 39.3823 39.8977 30.1038Z" fill="#805C2C"/>
<path d="M150.79 28.9324C154.584 30.7555 158.755 32.7416 161.404 36.1803C167.586 44.2139 170.707 53.9815 175.719 62.7265C180.922 71.7975 188.198 79.8977 192.093 89.6951C192.788 91.4366 192.98 94.0453 193.114 95.9352C192.864 101.234 193.269 101.605 191 106.459L190.558 106.014C190.513 87.4866 184.242 82.4916 174.742 67.7437C165.837 53.9222 164.772 38.3665 147.54 32.2525C148.831 29.5326 148.001 30.4442 150.79 28.9324Z" fill="#6B4318"/>
<path d="M89.4351 85.5748C93.1612 85.6415 104.236 85.1302 107.118 86.1751L105.554 102.561C102.505 102.057 93.5665 102.301 90.0568 102.309L89.4351 85.5748Z" fill="#F6E0E6"/>
<path d="M62.1473 23.5002C63.7399 18.4533 60.408 4.55035 64.6136 0L66.1483 0.0666736C68.2589 3.51278 64.9915 15.8373 68.2841 20.8397C66.3469 22.3293 64.6388 26.0422 64.9663 28.4434L66.2743 28.4211C67.4534 32.386 67.6023 49.0756 65.5295 52.618C59.767 51.7435 65.1753 35.6987 60.9623 31.0372L55.2576 35.1355C55.0597 32.3342 54.7603 31.141 55.7326 28.4953L62.1473 23.5002Z" fill="#E9F8FA"/>
<path d="M62.1473 23.4998C63.2811 25.7823 63.4078 26.0788 63.1314 28.6059C62.2955 29.9325 62.2896 30.1474 60.9623 31.0368L55.2576 35.1351C55.0597 32.3337 54.7603 31.1406 55.7326 28.4948L62.1473 23.4998Z" fill="#958480"/>
<path d="M86.3417 106.637C85.3316 97.0915 84.7136 87.776 82.7727 78.3344C83.0528 77.7489 83.3329 77.156 83.6131 76.5705L84.7603 76.5334L88.33 80.6243C96.2772 81.7063 100.65 81.1727 108.43 80.2093C108.137 82.1954 107.965 84.3965 107.118 86.1752C104.236 85.1302 93.161 85.6415 89.4349 85.5748L90.0567 102.309C93.5664 102.301 102.504 102.057 105.554 102.561C100.896 103.28 92.2495 101.953 89.2304 104.703L89.0429 105.755L86.3417 106.637Z" fill="#9A7B58"/>
<path d="M108.43 80.2088C109.692 77.7187 109.129 77.7928 111.095 76.9702C112.341 79.4751 109.491 90.2952 109.296 93.8673C109.082 97.7729 108.875 101.797 108.836 105.762C102.241 105.488 95.6385 105.48 89.043 105.755L89.2305 104.702C92.2496 101.953 100.896 103.279 105.554 102.56L107.118 86.1747C107.965 84.3961 108.137 82.195 108.43 80.2088Z" fill="#7A5632"/>
<path d="M30.6403 92.5994C27.4292 83.647 28.0808 66.8536 33.9354 59.5612C36.1041 58.4125 35.0303 58.5162 37.2276 58.9905C37.756 63.2222 30.1264 70.6777 32.5098 85.433L32.6657 86.3742L33.8764 89.6276L30.6403 92.5994Z" fill="#6B4318"/>
<path d="M52.9824 27.7246L53.0536 27.0427C53.7517 19.8763 52.9543 13.5845 53.8532 5.89185C55.926 9.53805 54.0666 24.5008 55.7333 28.4954C54.761 31.1411 55.0604 32.3342 55.2583 35.1356C54.4223 37.1069 54.7077 51.4619 54.2423 55.6566L53.8339 55.7529C53.642 53.8557 53.0995 40.7457 52.6919 40.0935C52.6579 35.973 52.7549 31.8451 52.9824 27.7246Z" fill="#AFC4C9"/>
<path d="M73.5083 19.2689C76.5949 17.594 74.9956 11.7541 76.7816 6.00317C77.1388 9.71608 76.8327 15.6597 78.449 17.9645L77.2929 18.9947C77.3018 20.7214 77.2055 21.3662 77.7872 23.0263C74.462 27.3247 80.1379 53.8189 75.7582 59.2659C75.0675 55.1454 75.6159 29.3626 75.6678 23.6117C75.59 22.1295 74.3939 20.7066 73.5083 19.2689Z" fill="#AFC4C9"/>
<path d="M43.0049 29.0512C46.7843 28.1989 49.1024 28.0359 52.9812 27.7246C52.7537 31.8451 52.6566 35.973 52.6907 40.0935C50.4341 40.3974 50.2318 40.5234 48.1553 39.7823C46.8799 37.7517 47.7314 36.1286 48.1405 33.142L46.9778 32.3045L43.9549 32.942C43.1205 31.6821 43.2235 30.6816 43.0049 29.0512Z" fill="#725C3E"/>
<path d="M41.8099 18.5786C42.4213 22.373 42.7192 25.2115 43.0053 29.0503C43.2239 30.6808 43.1209 31.6812 43.9553 32.9411C40.9088 38.24 43.1253 53.5066 41.9685 60.4877C40.3256 57.3529 40.8413 39.863 40.5523 34.4233C40.5909 32.741 40.267 31.7108 39.8972 30.1026C41.6135 28.5315 41.6187 21.3207 41.8099 18.5786Z" fill="#AFC4C9"/>
<path d="M73.5079 19.2678C74.3935 20.7056 75.5896 22.1285 75.6674 23.6107C72.8039 24.9224 68.7028 26.6195 66.2743 28.4204L64.9663 28.4426C64.6388 26.0415 66.3469 22.3286 68.2841 20.8389C69.7395 20.2016 71.9287 19.6902 73.5079 19.2678Z" fill="#958480"/>
<path d="M129.722 60.1328C133.714 59.1916 137.903 60.4959 140.66 63.5344C143.417 66.5729 144.309 70.8639 142.989 74.7472C141.669 78.6306 138.345 81.4913 134.309 82.225C128.29 83.307 122.501 79.4014 121.258 73.4133C120.014 67.4252 123.768 61.5335 129.722 60.1328Z" fill="#64BADC"/>
<path d="M129.617 63.7791C132.291 62.8304 135.27 63.3863 137.413 65.2464C139.557 67.1066 140.534 69.9746 139.969 72.7612C139.403 75.5403 137.385 77.8006 134.685 78.6751C130.593 80.0017 126.194 77.8006 124.809 73.7245C123.423 69.6559 125.565 65.2242 129.617 63.7791Z" fill="#E9F8FA"/>
</svg>
