<svg width="213" height="124" viewBox="0 0 213 124" fill="none" xmlns="http://www.w3.org/2000/svg">
<g clip-path="url(#clip0_1825_2084)">
<path d="M85.8842 41.3602C85.3524 40.393 85.0739 39.1264 84.8123 38.0474C83.4427 32.3982 81.9465 26.7855 80.5038 21.1574C80.1261 19.684 80.801 17.4795 81.6992 16.2541C83.3525 13.9983 85.8528 13.7315 88.4007 13.0899L96.0575 11.1682L106.099 8.65833C110.989 7.44231 112.983 5.99445 117.314 9.30358C117.722 9.92298 118.126 10.5006 118.444 11.1738L118.516 10.7997L119.082 10.6095C120.074 13.6571 121.019 17.9473 121.813 21.127L126.191 38.7768C126.28 39.1447 126.379 39.6187 126.496 39.9683C127.339 43.2183 128.194 46.9844 129.127 50.1673C128.935 50.4007 128.686 50.724 128.477 50.9292C128.068 52.1294 127.457 52.1486 127.215 53.3294C127.226 54.4113 127.09 54.9968 126.886 56.0545C127.01 56.4709 127.253 57.2164 127.31 57.6188C127.68 59.139 128.33 62.2563 128.748 63.6143L128.752 63.7022C128.835 66.006 128.381 68.3676 130.572 70.0202C130.567 70.8952 130.386 72.6078 130.446 73.3483C130.487 74.1094 130.487 74.2356 130.306 74.9726C129.703 75.6396 129.385 75.8514 128.667 76.3682C128.304 76.2271 128.06 76.1786 127.686 76.0929L128.274 75.7719C126.119 76.0787 121.224 77.4416 119.012 77.9974C113.498 79.3625 107.992 80.7622 102.496 82.1965C101.487 82.0936 101.157 82.0098 100.205 81.735C99.7634 80.1128 99.3499 77.9332 98.6466 76.4479C97.9145 74.9013 96.8519 73.335 96.047 71.7642C95.2812 68.5217 94.3314 65.0778 93.51 61.8275C93.2783 60.7952 93.2994 58.2911 93.2477 57.1198C92.9904 51.2854 92.2833 47.9029 88.9318 43.1757C88.2508 42.9394 87.9327 42.7133 87.481 42.1754C86.9511 41.8656 86.4372 41.6255 85.8842 41.3602Z" fill="#FDF5DF"/>
<path d="M85.8842 41.3602C85.3524 40.393 85.0739 39.1264 84.8123 38.0474C83.4427 32.3982 81.9465 26.7855 80.5038 21.1574C80.1261 19.684 80.801 17.4795 81.6992 16.2541C83.3525 13.9983 85.8528 13.7315 88.4007 13.0899L96.0575 11.1682L106.099 8.65833C110.989 7.44231 112.983 5.99445 117.314 9.30358C117.722 9.92298 118.126 10.5006 118.444 11.1738L118.516 10.7997L119.082 10.6095C120.074 13.6571 121.019 17.9473 121.813 21.127L126.191 38.7768C126.28 39.1447 126.379 39.6187 126.496 39.9683C127.339 43.2183 128.194 46.9844 129.127 50.1673C128.935 50.4008 128.686 50.724 128.477 50.9292C128.068 52.1294 127.457 52.1486 127.215 53.3294C127.216 53.2882 124.678 43.815 124.479 43.0243L119.363 22.5474C118.587 19.4363 117.84 16.2959 116.983 13.2141C116.549 11.6498 113.616 9.30756 112.02 9.64756C107.258 10.6613 102.355 11.8753 97.6565 13.1819C94.4679 14.0685 89.3772 14.7941 86.4847 16.0002L86.6731 16.2791C86.4994 16.6037 86.1207 16.7179 85.7638 16.8871C84.6608 17.7459 83.5989 18.7647 83.4149 20.2223C83.1545 22.2838 88.0189 39.9976 88.9318 43.1757C88.2508 42.9394 87.9327 42.7133 87.481 42.1754C86.9511 41.8656 86.4372 41.6255 85.8842 41.3602Z" fill="#FAB2CB"/>
<path d="M118.444 11.1739L118.515 10.7998L119.082 10.6097C120.074 13.6573 121.018 17.9475 121.813 21.1272L126.191 38.777C126.28 39.1449 126.378 39.6189 126.496 39.9685C127.338 43.2185 128.194 46.9846 129.127 50.1675C128.934 50.4009 128.686 50.7242 128.477 50.9294C127.709 48.6039 126.682 43.6701 126.048 41.1053L121.378 22.5142C120.48 18.939 119.519 14.6061 118.444 11.1739Z" fill="#CD5E7B"/>
<path d="M87.4806 42.1755C87.2748 40.7407 86.5957 38.2646 86.2367 36.7941L83.9241 27.3342C82.805 22.8044 80.9003 18.2093 86.4843 16.0003L86.6728 16.2792C86.499 16.6038 86.1204 16.7179 85.7634 16.8872C84.6604 17.746 83.5986 18.7648 83.4146 20.2224C83.1541 22.2839 88.0185 39.9977 88.9315 43.1758C88.2504 42.9395 87.9323 42.7134 87.4806 42.1755Z" fill="#D66F8F"/>
<path d="M86.4844 16.0004C89.3769 14.7944 94.4676 14.0687 97.6562 13.1821C102.355 11.8756 107.257 10.6616 112.019 9.64781C113.616 9.30781 116.548 11.65 116.983 13.2143C117.84 16.2962 118.586 19.4365 119.363 22.5476L124.479 43.0246C124.677 43.8152 127.216 53.2884 127.214 53.3296C127.226 54.4116 127.09 54.9971 126.886 56.0547C126.659 55.4164 126.411 54.0621 126.228 53.3208C123.884 43.8305 121.535 34.3266 119.12 24.8549C118.515 22.48 117.929 20.1005 117.362 17.7165C117.059 16.4699 116.621 14.4279 116.156 13.3044C115.752 12.3426 115.052 11.5343 114.157 10.9964C113.07 10.3473 112.105 10.3465 110.896 10.6213C108.793 11.0993 106.709 11.6589 104.614 12.1707L85.7635 16.8873C86.1204 16.7181 86.4991 16.6039 86.6728 16.2794L86.4844 16.0004Z" fill="#CD5E7B"/>
<path d="M130.445 73.3485C130.486 74.1096 130.486 74.2358 130.305 74.9728C129.702 75.6398 129.383 75.8516 128.666 76.3684C128.303 76.2273 128.059 76.1788 127.685 76.0931L128.273 75.772C129.43 74.9313 129.76 74.5375 130.445 73.3485Z" fill="#CD5E7B"/>
<path d="M94.939 15.4753C96.6928 14.9782 102.184 13.4018 103.72 13.6474C104.215 13.9703 104.059 13.7869 104.292 14.3594C104.253 14.8061 104.185 14.8745 103.925 15.2467C102.294 15.7789 100.517 16.1903 98.8507 16.6345C97.679 16.9468 95.4758 17.7565 94.6576 16.6557C94.5634 16.1017 94.6823 15.9575 94.939 15.4753Z" fill="#542B28"/>
<path d="M85.4029 92.6796C92.0098 92.7046 101.044 94.4838 107.733 95.5134C109.832 95.8363 112.232 96.5748 114.355 96.895L115.464 97.3657C117.03 97.9793 118.109 98.4487 118.828 100.159C119.921 102.759 119.065 107.591 118.081 110.105C119.762 115.298 120.527 117.917 120.625 123.578C120.661 125.7 120.539 128.383 120.604 130.411L119.579 130.667L75.3365 141.746L74.1429 142.045C74.5913 140.013 74.616 136.903 74.8472 134.669C75.7526 125.924 75.3125 116.565 78.5078 108.255C78.7933 107.512 80.1711 106.091 80.2944 105.326C80.9003 101.575 80.2598 94.8143 84.3723 92.9948L85.4029 92.6796Z" fill="#B3DBBB"/>
<path d="M85.4029 92.6796C92.0098 92.7046 101.044 94.4838 107.733 95.5134C109.832 95.8363 112.232 96.5748 114.355 96.895L115.464 97.3657C117.03 97.9793 118.109 98.4487 118.828 100.159C119.921 102.759 119.065 107.591 118.081 110.105C119.762 115.298 120.527 117.917 120.625 123.578C120.661 125.7 120.539 128.383 120.604 130.411L119.579 130.667C119.743 123.063 119.788 118.26 117.269 110.968C117.087 111.041 116.902 111.109 116.716 111.172C116.275 111.321 115.815 111.44 115.342 111.394C104.828 110.367 94.2354 108.991 83.8318 107.159C82.9705 107.007 82.162 106.63 81.389 106.247C77.017 111.9 76.9754 121.135 76.4374 128.091L75.3365 141.746L74.1429 142.045C74.5913 140.013 74.616 136.903 74.8472 134.669C75.7526 125.924 75.3125 116.565 78.5078 108.255C78.7933 107.512 80.1711 106.091 80.2944 105.326C80.9003 101.575 80.2598 94.8143 84.3723 92.9948L85.4029 92.6796Z" fill="#6EB98B"/>
<path d="M83.8727 94.4193C86.0841 93.647 87.1859 93.8869 89.4663 94.1693L90.3001 94.2844C92.6193 94.4617 94.6718 94.7457 96.9755 95.0872L97.8931 95.2027C100.065 95.5131 102.361 95.7965 104.495 96.2654C104.766 96.3079 105.191 96.3912 105.452 96.3812C107.004 96.6356 110.583 97.1917 112.011 97.6792C112.468 97.7791 112.926 97.8733 113.385 97.9619C114.846 98.2221 116.6 98.7135 117.42 100.029C118.921 102.437 118.03 107.407 117.01 109.805C114.897 110.333 114.628 110.168 112.52 109.898L111.425 109.767C109.235 109.552 107.05 109.283 104.874 108.959L103.988 108.844C101.492 108.492 98.9915 108.173 96.4872 107.885L95.7198 107.766C93.2932 107.372 91.024 107.167 88.5815 106.673C88.2079 106.621 87.798 106.585 87.4198 106.543C86.4167 106.425 82.9867 105.795 82.2008 105.143C81.1351 104.259 81.7691 101.235 81.9652 99.8851C82.2296 98.0645 82.7134 95.9941 83.8727 94.4193Z" fill="#B3DBBB"/>
<path d="M104.495 96.2654C104.766 96.3078 105.191 96.3912 105.452 96.3811C107.003 96.6356 110.582 97.1916 112.011 97.6791C112.468 97.7791 112.926 97.8733 113.385 97.9619C114.845 98.2221 116.6 98.7134 117.42 100.029C118.921 102.437 118.03 107.407 117.01 109.805C114.897 110.333 114.628 110.168 112.52 109.898L111.425 109.767C109.235 109.552 107.05 109.283 104.873 108.959L103.988 108.844C103.92 107.601 104.316 104.89 104.402 103.48C104.553 100.991 104.527 98.7529 104.495 96.2654Z" fill="#B3DBBB"/>
<path d="M112.521 109.897C112.476 108.663 112.995 105.575 113.014 104.084C113.035 102.423 113.055 100.876 112.965 99.1923C112.935 98.6439 113.033 98.3182 113.386 97.9615C114.847 98.2217 116.602 98.7131 117.421 100.028C118.923 102.436 118.032 107.407 117.011 109.805C114.898 110.333 114.63 110.168 112.521 109.897Z" fill="#B3DBBB"/>
<path d="M112.011 97.6791C112.468 97.7791 112.926 97.8733 113.385 97.9619C113.031 98.3185 112.933 98.6443 112.963 99.1927C113.054 100.876 113.034 102.424 113.012 104.085C112.993 105.575 112.475 108.664 112.52 109.898L111.425 109.767C111.4 109.44 111.732 106.254 111.806 105.985C112.278 104.263 111.612 98.6725 112.011 97.6791Z" fill="#A4D0AE"/>
<path d="M104.495 96.2654C104.766 96.3078 105.191 96.3912 105.452 96.3811C105.545 98.7766 105.634 101.14 105.505 103.538C105.406 105.375 105.03 107.178 104.873 108.959L103.988 108.844C103.92 107.601 104.316 104.89 104.402 103.48C104.553 100.991 104.527 98.7529 104.495 96.2654Z" fill="#A4D0AE"/>
<path d="M97.8935 95.2026C100.065 95.513 102.362 95.7964 104.496 96.2653C104.528 98.7528 104.553 100.991 104.402 103.48C104.317 104.889 103.921 107.601 103.988 108.844C101.492 108.492 98.9919 108.172 96.4876 107.885C96.6011 107.407 96.5021 106.355 96.4574 105.818C96.2276 103.071 96.5401 100.269 97.1935 97.5977C97.3868 96.8075 97.7128 96.1736 97.8676 95.3457L97.8935 95.2026Z" fill="#B3DBBB"/>
<path d="M83.8727 94.4193C86.0841 93.647 87.1859 93.8869 89.4663 94.1693L90.3001 94.2844C88.2871 97.9047 88.0377 102.633 88.5815 106.673C88.2079 106.621 87.798 106.585 87.4198 106.543C86.4167 106.425 82.9867 105.795 82.2008 105.143C81.1351 104.259 81.7691 101.235 81.9652 99.8851C82.2296 98.0645 82.7134 95.9941 83.8727 94.4193Z" fill="#B3DBBB"/>
<path d="M89.4666 94.1692L90.3003 94.2843C88.2873 97.9046 88.0379 102.633 88.5817 106.673C88.2082 106.621 87.7983 106.585 87.42 106.543C87.4402 102.916 86.6824 96.8864 89.4666 94.1692Z" fill="#A4D0AE"/>
<path d="M96.9758 95.087L97.8934 95.2025L97.8675 95.3456C97.7128 96.1735 97.3868 96.8074 97.1935 97.5976C96.54 100.268 96.2275 103.071 96.4573 105.818C96.502 106.355 96.601 107.407 96.4875 107.885L95.7201 107.765C95.2888 104.66 95.072 97.6718 96.9758 95.087Z" fill="#A4D0AE"/>
<path d="M81.4579 42.0349C82.5624 41.0609 83.1891 41.1788 84.6376 41.1286L85.8829 41.3602C86.4359 41.6255 86.9498 41.8657 87.4796 42.1755C87.9313 42.7134 88.2494 42.9395 88.9305 43.1758C92.2819 47.9029 92.989 51.2855 93.2464 57.1198C93.2981 58.2912 93.2769 60.7952 93.5086 61.8276C94.33 65.0779 95.2799 68.5218 96.0456 71.7643C96.8505 73.3351 97.9131 74.9013 98.6453 76.448C99.3486 77.9333 99.7621 80.1129 100.204 81.735C101.155 82.0099 101.485 82.0937 102.495 82.1966C107.991 80.7623 113.497 79.3625 119.011 77.9975C121.222 77.4417 126.118 76.0788 128.272 75.7719L127.685 76.093C128.059 76.1786 128.303 76.2271 128.666 76.3682C129.383 75.8515 129.701 75.6396 130.305 74.9727C130.782 75.6692 130.855 75.803 131.093 76.6077L131.569 77.3844L132.168 78.0037C131.603 78.3492 131.017 78.6971 130.466 79.0619C130.244 79.139 129.605 79.344 129.432 79.438C129.109 80.4326 129.018 80.6859 128.363 81.486C126.001 86.4244 123.814 88.4528 119.45 91.7736C118.12 92.7865 116.529 93.9734 115.514 95.2977C115.783 95.5703 115.874 95.6593 116.19 95.8732L116.279 96.1368L115.463 97.3657L114.353 96.895C112.23 96.5748 109.83 95.8363 107.732 95.5134C101.043 94.4838 92.0082 92.7046 85.4013 92.6796L84.3707 92.9948C81.58 85.5888 74.3886 74.2192 74.6682 66.6207C74.8589 61.4369 77.3083 56.1763 78.6432 51.1868C79.2946 48.7526 79.6 46.1074 80.4372 43.7431C80.6733 43.0762 80.9336 42.5198 81.4579 42.0349Z" fill="#FDF5DF"/>
<path d="M100.21 82.5135L100.205 81.735C101.156 82.0099 101.486 82.0937 102.496 82.1966C107.992 80.7623 113.498 79.3625 119.012 77.9975C121.223 77.4417 126.119 76.0788 128.273 75.7719L127.686 76.093C128.06 76.1786 128.304 76.2271 128.667 76.3682C129.384 75.8515 129.702 75.6396 130.306 74.9727C130.783 75.6692 130.856 75.803 131.094 76.6077L131.57 77.3844L132.169 78.0037C131.604 78.3492 131.018 78.6971 130.467 79.0619C130.245 79.139 129.606 79.344 129.433 79.438C129.11 80.4326 129.02 80.6859 128.364 81.486C127.435 81.3309 123.318 82.8035 122.167 83.1478C117.521 84.5242 112.81 85.6729 108.052 86.5898C105.267 87.1374 103.105 87.8283 100.274 87.0777C100.55 86.7226 100.482 86.4453 100.469 85.9804L100.338 85.3531C100.426 84.5554 100.28 83.3442 100.21 82.5135Z" fill="#FAB2CB"/>
<path d="M100.469 85.9804C100.782 86.0124 101.617 86.1017 101.901 86.0521C110.928 84.4743 120.51 81.1711 129.433 79.438C129.11 80.4326 129.019 80.6859 128.364 81.486C127.434 81.3309 123.318 82.8035 122.166 83.1478C117.52 84.5242 112.81 85.6729 108.052 86.5898C105.267 87.1374 103.105 87.8283 100.273 87.0777C100.549 86.7226 100.481 86.4453 100.469 85.9804Z" fill="#F1D9AF"/>
<path d="M131.57 77.3843L132.169 78.0037C131.604 78.3491 131.018 78.697 130.467 79.0618C130.245 79.1389 129.606 79.344 129.433 79.438C120.511 81.1711 110.928 84.4742 101.902 86.052C101.618 86.1016 100.783 86.0124 100.47 85.9803L100.338 85.3531C102.423 85.5251 110.055 83.7425 112.224 83.002C116.589 81.5115 128.324 79.8465 131.57 77.3843Z" fill="#CD5E7B"/>
<path d="M102.495 82.1968C107.992 80.7625 113.497 79.3628 119.011 77.9977C121.223 77.4419 126.119 76.079 128.273 75.7722L127.686 76.0932C128.06 76.1789 128.304 76.2274 128.667 76.3685C122.091 78.2658 115.369 79.6718 108.752 81.4285C106.788 81.9497 104.779 82.4655 102.787 82.8546C103.034 82.6154 103.191 82.5123 103.295 82.1969L102.495 82.1968Z" fill="#F476A2"/>
<path d="M100.209 82.5138L100.204 81.7353C101.155 82.0101 101.485 82.0939 102.495 82.1968L103.294 82.1969C103.19 82.5123 103.033 82.6154 102.786 82.8547C101.769 82.7869 101.21 82.7059 100.209 82.5138Z" fill="#CD5E7B"/>
<path d="M81.4579 42.0349C82.5624 41.0609 83.1891 41.1788 84.6376 41.1286L85.8829 41.3602C86.4359 41.6255 86.9498 41.8657 87.4796 42.1755C87.9313 42.7134 88.2494 42.9395 88.9305 43.1758C92.2819 47.9029 92.989 51.2855 93.2464 57.1198C93.2981 58.2912 93.2769 60.7952 93.5086 61.8276C94.33 65.0779 95.2799 68.5218 96.0456 71.7643C96.8505 73.3351 97.9131 74.9013 98.6453 76.448C99.3486 77.9333 99.7621 80.1129 100.204 81.735L100.209 82.5135C100.279 83.3442 100.425 84.5554 100.337 85.3531L100.468 85.9804C100.481 86.4453 100.549 86.7226 100.273 87.0777C99.715 87.7912 100.416 89.4298 99.0286 89.6238C98.7253 89.3379 98.8795 88.0191 98.9484 87.5792C99.9796 80.9863 97.3614 73.2542 91.4189 69.5743C91.3864 67.4289 91.7601 64.6455 91.9359 62.3728C92.3609 56.881 92.2592 49.6721 88.7421 45.0853C87.1694 43.0345 85.5159 42.5086 83.1383 42.264C81.9479 42.9778 81.5937 43.9494 81.318 45.2918C80.5122 49.2162 79.518 53.04 78.2847 56.8542C74.7373 67.2291 75.1227 69.9059 79.7375 79.6693C81.2744 82.9213 84.2898 89.2449 85.4013 92.6796L84.3707 92.9948C81.58 85.5888 74.3886 74.2192 74.6682 66.6207C74.8589 61.4369 77.3083 56.1763 78.6432 51.1868C79.2946 48.7526 79.6 46.1074 80.4372 43.7431C80.6733 43.0762 80.9336 42.5198 81.4579 42.0349Z" fill="#F5D28A"/>
<path d="M93.1255 64.7194C93.0624 63.9028 92.9547 62.4194 93.293 61.6876L93.5092 61.8276C94.3306 65.0779 95.2805 68.5217 96.0462 71.7643C95.4262 71.7965 94.8223 70.8254 94.5484 70.3741C94.1577 69.3779 93.494 66.0646 93.1255 64.7194Z" fill="#F476A2"/>
<path d="M94.548 70.3742C94.2402 69.995 92.3289 68.7735 92.5065 68.0964C92.8032 66.9648 92.9172 65.8586 93.125 64.7195C93.4935 66.0647 94.1573 69.378 94.548 70.3742Z" fill="#FAB2CB"/>
<path d="M115.515 95.2978C115.783 95.5705 115.875 95.6594 116.191 95.8733L116.279 96.1369L115.463 97.3658L114.354 96.8951L115.515 95.2978Z" fill="#F1D9AF"/>
<path d="M126.191 38.777C127.988 37.664 130.326 36.1242 132.413 36.9195C138.242 39.1409 136.218 45.2165 133.164 48.4454C138.374 50.1683 138.538 55.2734 135.2 59.0097C138.8 61.2844 139.372 64.8207 137.173 68.4185C139.038 69.6037 141.086 71.7005 139.877 74.1258C139.317 73.9646 139.327 74.0637 138.68 74.2114C137.677 76.0547 136.93 76.5568 135.111 77.4829L133.45 77.4275C132.712 76.8178 132.524 76.5694 131.951 75.8273L131.265 75.975C131.109 76.2833 131.098 76.2702 131.094 76.6078C130.856 75.8031 130.783 75.6693 130.306 74.9728C130.487 74.2358 130.486 74.1096 130.445 73.3485C130.385 72.608 130.567 70.8954 130.572 70.0204C128.38 68.3678 128.834 66.0062 128.752 63.7024L128.748 63.6146C128.33 62.2565 127.679 59.1392 127.31 57.619C127.253 57.2166 127.009 56.4711 126.886 56.0547C127.09 54.997 127.226 54.4115 127.214 53.3296C127.457 52.1488 128.067 52.1296 128.477 50.9294C128.685 50.7242 128.934 50.401 129.127 50.1675C128.194 46.9846 127.338 43.2186 126.495 39.9685C126.378 39.6189 126.28 39.1449 126.191 38.777Z" fill="#F5D28A"/>
<path d="M126.494 39.9686L126.617 39.8998C128.405 38.8815 129.552 37.3868 131.966 37.989C134.409 38.5982 135.367 41.4121 134.735 43.6553C133.908 46.5033 131.341 48.4473 129.126 50.1677C128.193 46.9848 127.337 43.2187 126.494 39.9686Z" fill="#FDF5DF"/>
<path d="M133.167 70.9483C134.595 70.5768 135.13 70.4808 136.337 69.5816C138.548 70.4627 139.432 71.8412 138.68 74.2113C137.677 76.0546 136.93 76.5567 135.11 77.4829L133.45 77.4275C132.712 76.8178 132.524 76.5694 131.951 75.8273C131.562 73.9071 131.805 73.0069 132.935 71.2858C133.01 71.1717 133.087 71.0592 133.167 70.9483Z" fill="#FDF5DF"/>
<path d="M127.309 57.6191C127.857 58.3349 128.723 59.4679 129.267 60.2415C129.397 60.4256 129.759 60.1499 130.122 60.8101C129.916 61.1443 129.867 61.1563 129.535 61.3836C129.376 62.3601 129.361 62.8124 128.747 63.6146C128.33 62.2566 127.679 59.1392 127.309 57.6191Z" fill="#F476A2"/>
<path d="M131.967 49.7471C137.142 49.3568 137.886 56.9124 132.403 59.2108C127.366 60.0638 126.614 52.5722 131.967 49.7471Z" fill="#FDF5DF"/>
<path d="M132.476 60.5447C133.819 60.1005 134.356 60.1737 135.667 60.6162C138.093 63.8524 137.623 66.8467 134.467 69.3169C129.423 70.7934 128.792 64.6344 131.302 61.7303C131.693 61.2776 132.034 60.9446 132.476 60.5447Z" fill="#FDF5DF"/>
<path d="M84.6387 41.1284C83.5958 37.0828 82.5743 33.0316 81.5747 28.975C80.4757 24.5639 78.2882 19.4486 81.2923 15.4695C81.9081 14.6451 82.7347 14.0015 83.6849 13.6064C84.8029 13.1492 87.7241 12.4778 88.9836 12.1631L98.5266 9.78165L107.149 7.60865C110.708 6.70178 113.597 5.3269 116.874 7.82494C116.999 8.25868 117.241 8.89946 117.313 9.30352C112.982 5.9944 110.989 7.44225 106.098 8.65828L96.0573 11.1681L88.4005 13.0898C85.8526 13.7315 83.3522 13.9982 81.6989 16.254C80.8008 17.4794 80.1258 19.684 80.5036 21.1574C81.9462 26.7855 83.4425 32.3981 84.8121 38.0473C85.0737 39.1264 85.3521 40.393 85.884 41.3601L84.6387 41.1284Z" fill="#F476A2"/>
<path d="M129.433 79.4382C129.606 79.3442 130.245 79.1392 130.466 79.0621C129.883 84.2127 124.011 89.9318 120.067 92.8226C118.756 93.7834 117.37 94.9407 116.279 96.137L116.191 95.8734C115.875 95.6594 115.784 95.5705 115.515 95.2979C116.529 93.9736 118.12 92.7867 119.451 91.7738C123.815 88.453 126.002 86.4246 128.364 81.4862C129.019 80.6861 129.11 80.4328 129.433 79.4382Z" fill="#F5D28A"/>
<path d="M131.093 76.608C131.097 76.2704 131.108 76.2835 131.264 75.9752L131.951 75.8275C132.523 76.5696 132.711 76.818 133.45 77.4277L135.11 77.4831C136.93 76.5569 137.677 76.0548 138.68 74.2115C139.327 74.0638 139.316 73.9648 139.877 74.126C139.331 75.8092 138.144 77.2092 136.572 78.0227C134.911 78.8782 133.785 78.7266 132.168 78.0041L131.569 77.3847L131.093 76.608Z" fill="#F1D9AF"/>
<path d="M116.874 7.82521C117.984 8.80709 118.371 9.24146 119.081 10.6097L118.515 10.7999L118.444 11.174C118.126 10.5009 117.722 9.92319 117.313 9.30379C117.24 8.89973 116.998 8.25895 116.874 7.82521Z" fill="#F476A2"/>
<path d="M149.409 69.8268C150.872 70.0147 151.004 71.0955 150.8 72.4438C150.241 76.1184 149.257 79.0862 146.253 81.4611C145.771 81.4534 145.539 81.3969 145.173 81.0969C144.973 80.3361 146.062 79.1618 146.62 78.6644C149.24 76.3316 148.316 72.4144 149.409 69.8268Z" fill="#DAF3FC"/>
<path d="M75.3488 30.449C75.8961 30.4408 76.0947 30.5593 76.4964 30.8746C76.5523 31.0391 76.6874 31.2833 76.5365 31.4329C74.8177 33.1375 73.0606 34.2731 72.3558 36.7387C71.9106 38.2955 71.6617 39.8165 71.3496 41.418C69.4146 41.7515 69.827 39.6809 70.085 38.4935C70.8241 35.0901 72.3588 32.3343 75.3488 30.449Z" fill="#DAF3FC"/>
<path d="M76.9968 34.4952C77.5172 34.4326 77.8633 34.3931 78.2816 34.7003C78.6096 35.579 77.8037 36.0642 77.1456 37.0153C75.8212 38.9292 76.256 41.253 75.8697 43.4153C75.2058 43.4674 75.1355 43.4453 74.6415 43.1347C73.3151 41.0003 75.1784 36.1549 76.9968 34.4952Z" fill="#DAF3FC"/>
<path d="M144.332 67.0597C145.86 67.2948 145.933 68.4771 145.996 69.9151C146.109 72.4915 145.724 74.9493 143.895 76.9113C143.29 76.9155 143.498 76.9905 143.055 76.6871C142.773 75.9643 143.598 74.4951 143.945 73.7398C144.673 72.1581 143.845 68.2201 144.332 67.0597Z" fill="#DAF3FC"/>
<path d="M56.8199 50.5786C50.1803 49.103 39.6039 48.5297 30.5765 49.1634C27.9987 49.3232 25.9052 49.4277 25.9415 49.3403C25.9687 49.2747 27.0585 48.6252 28.3647 47.8863L30.7644 46.5507L30.383 45.8029C30.1731 45.3826 29.7393 44.9462 29.3896 44.801C27.6191 44.0658 21.4504 46.5785 14.1882 51.046C10.9937 52.9998 10.8064 53.2039 11.081 54.3942C11.2933 55.3024 12.8339 57.1466 13.6427 57.4824C14.0798 57.6639 22.9593 59.6083 26.2517 60.2578C27.2295 60.4332 28.4404 60.6029 28.9811 60.5968C29.7895 60.6249 29.9623 60.5173 30.0964 60.0092C30.2107 59.6722 30.3303 59.2606 30.372 59.0985C30.4265 58.9674 30.3061 58.7636 30.1312 58.691C29.9563 58.6184 29.8396 58.4675 29.8941 58.3363C29.9395 58.227 29.7114 57.8504 29.3778 57.4813C28.9275 56.9611 28.2771 56.6142 26.6543 56.0172C24.9312 55.353 24.5778 55.155 24.765 54.9509C24.9342 54.7905 24.8649 54.7104 24.5663 54.689C24.2986 54.6547 24.4005 54.5945 24.8063 54.4811C25.9348 54.2321 27.5858 54.0208 27.5404 54.13C27.5132 54.1956 26.9489 54.3201 26.2664 54.4211C23.9109 54.7244 25.1272 54.8194 27.7994 54.4938C36.3039 53.5148 47.362 53.545 54.7948 54.5299C56.3261 54.7301 57.8975 54.8956 58.2761 54.8478C58.6675 54.831 59.0008 54.8925 59.061 54.9943C59.0902 55.109 59.183 55.0706 59.2375 54.9395C59.301 54.7865 59.718 54.8315 60.2863 55.0675C60.789 55.2762 61.8873 55.6554 62.7542 55.9128C64.1329 56.3572 64.2913 56.346 64.4819 55.887C64.7814 55.1657 64.2206 53.6772 63.4115 53.0337C62.3455 52.2066 59.7081 51.214 56.8199 50.5786ZM27.7847 45.5185C27.7665 45.5622 27.5191 45.6644 27.2588 45.7357C26.7911 45.8747 26.7783 45.8437 27.2077 45.612C27.6371 45.3803 27.8573 45.3436 27.7847 45.5185ZM26.6472 45.7893C26.629 45.833 26.3197 45.9608 25.9576 46.0924L25.2824 46.2989L25.9064 45.9686C26.4905 45.673 26.7198 45.6144 26.6472 45.7893ZM29.2491 50.5087C28.8688 50.6839 22.9747 51.3629 22.9144 51.261C22.8378 51.0754 24.212 50.8516 26.826 50.6045C29.167 50.3977 29.5894 50.3681 29.2491 50.5087Z" fill="#ED1C24"/>
<path d="M156.18 47.4516C162.82 45.976 173.396 45.4028 182.424 46.0365C185.001 46.1962 187.095 46.3007 187.058 46.2133C187.031 46.1477 185.942 45.4983 184.635 44.7593L182.236 43.4237L182.617 42.676C182.827 42.2557 183.261 41.8193 183.61 41.674C185.381 40.9389 191.55 43.4516 198.812 47.9191C202.006 49.8728 202.194 50.0769 201.919 51.2673C201.707 52.1755 200.166 54.0196 199.357 54.3554C198.92 54.537 190.041 56.4813 186.748 57.1309C185.77 57.3063 184.56 57.4759 184.019 57.4698C183.211 57.4979 183.038 57.3903 182.904 56.8822C182.789 56.5453 182.67 56.1337 182.628 55.9716C182.574 55.8404 182.694 55.6367 182.869 55.5641C183.044 55.4915 183.16 55.3405 183.106 55.2094C183.061 55.1001 183.289 54.7235 183.622 54.3543C184.072 53.8342 184.723 53.4873 186.346 52.8903C188.069 52.2261 188.422 52.0281 188.235 51.8239C188.066 51.6635 188.135 51.5835 188.434 51.562C188.701 51.5278 188.6 51.4675 188.194 51.3542C187.065 51.1052 185.414 50.8938 185.46 51.0031C185.487 51.0687 186.051 51.1932 186.734 51.2941C189.089 51.5974 187.873 51.6924 185.201 51.3669C176.696 50.3879 165.638 50.418 158.205 51.4029C156.674 51.6031 155.103 51.7687 154.724 51.7209C154.332 51.704 153.999 51.7655 153.939 51.8674C153.91 51.982 153.817 51.9437 153.763 51.8125C153.699 51.6595 153.282 51.7045 152.714 51.9405C152.211 52.1493 151.113 52.5284 150.246 52.7859C148.867 53.2302 148.709 53.2191 148.518 52.7601C148.219 52.0388 148.779 50.5502 149.588 49.9067C150.655 49.0797 153.292 48.0871 156.18 47.4516ZM185.215 42.3915C185.233 42.4352 185.481 42.5375 185.741 42.6088C186.209 42.7477 186.222 42.7168 185.792 42.4851C185.363 42.2533 185.143 42.2166 185.215 42.3915ZM186.353 42.6623C186.371 42.7061 186.68 42.8339 187.042 42.9654L187.718 43.172L187.094 42.8417C186.51 42.546 186.28 42.4875 186.353 42.6623ZM183.751 47.3817C184.131 47.5569 190.025 48.236 190.086 48.1341C190.162 47.9485 188.788 47.7247 186.174 47.4775C183.833 47.2707 183.411 47.2411 183.751 47.3817Z" fill="#ED1C24"/>
</g>
<defs>
<clipPath id="clip0_1825_2084">
<rect width="213" height="124" fill="white"/>
</clipPath>
</defs>
</svg>
