<svg width="196" height="166" viewBox="0 0 196 166" fill="none" xmlns="http://www.w3.org/2000/svg">
<path d="M183.686 0.00102099C186.12 -0.0244809 188.272 0.424268 190.344 1.73918C192.702 3.21919 194.357 5.60158 194.912 8.33117C195.431 10.9847 194.836 13.734 193.261 15.933C191.409 18.4868 189.172 19.8061 186.125 20.3318C184.934 33.8778 182.259 52.8195 180.416 66.5064C187.006 70.2324 187.055 72.7955 186.053 79.8712C182.599 84.0499 173.95 87.8528 168.653 90.8773C178.071 93.5572 181.686 94.8457 178.8 105.588C175.208 109.368 173.096 109.368 168.143 109.95C173.776 111.963 183.064 113.194 186.026 118.889C188.8 124.222 182.809 127.775 178.957 129.756C185.592 134.808 182.747 140.096 176.416 143.38C171.754 142.109 166.922 140.61 162.268 139.246C155.244 147.344 150.188 152.167 140.287 157.146C117.809 168.443 83.8232 167.208 60.3115 159.307C45.8913 154.462 35.6231 147.666 28.8269 133.864C22.0575 119.511 23.6593 104.666 28.3974 90.1614C25.1581 89.468 20.1605 88.9579 17.7534 86.5912C15.315 84.1976 10.2324 32.3866 9.87442 25.0492C2.8858 23.0453 2.12522 21.56 0 14.5671C2.36235 6.24765 9.70889 0.181775 17.6058 7.43192C20.3976 9.99598 20.42 12.8651 20.2097 16.5799C24.8941 19.3641 30.9745 21.9819 35.9945 24.2994C43.7169 27.8205 51.399 31.435 59.0364 35.1422C63.8774 37.496 69.4298 39.9576 73.6534 43.1963C73.7877 45.9756 73.7876 48.9969 73.8413 51.7989C92.5522 47.592 104.328 47.6086 123.048 51.4128L123.106 42.3046C123.227 42.1874 123.352 42.0715 123.473 41.9525C129.737 35.8603 165.163 18.5606 175.118 13.6213C174.17 6.46374 176.554 2.04565 183.686 0.00102099Z" fill="#241A19"/>
<path d="M92.0468 55.1548C118.762 54.1678 135.003 59.3116 153.374 79.8214C144.52 84.9978 139.433 84.4833 140.202 96.3171C141.625 98.1738 141.898 98.5317 143.567 100.129C146.869 103.283 162.774 105.99 164.26 108.075C164.054 112.974 157.759 114.213 162.412 122.414L162.707 122.933L158.251 125.009C157.893 125.523 157.544 126.047 157.204 126.575C155.038 129.971 155.736 132.176 156.551 135.917C154.233 138.431 151.938 140.959 149.66 143.509C155.49 124.494 145.902 108.263 128.301 100.178C122.297 97.4222 119.263 99.5205 113.617 101.771C108.503 104.106 103.344 106.343 98.1406 108.486C91.8231 106.334 75.4478 97.9635 69.8998 99.6905C49.095 106.173 38.3794 121.953 43.7708 143.558C34.8941 134.91 32.3841 128.584 31.1492 116.249C27.6996 81.8213 59.7077 57.3976 92.0468 55.1548Z" fill="#595757"/>
<path d="M94.9682 101.136C93.1248 101.047 93.5141 101.315 92.1137 100.461C92.0645 100.049 91.8004 97.9911 91.7423 97.9508C87.2547 95.2664 83.4025 95.6735 80.4674 90.4658C76.1186 82.7436 80.3779 74.413 87.5008 70.3721C92.1315 67.7574 97.6213 67.1262 102.726 68.6218C112.431 71.4235 120.533 83.1507 112.529 92.8191C110.749 94.9756 106.113 95.4991 105.778 99.2841C105.67 100.47 104.874 100.837 104.015 101.199C99.5989 100.532 102.905 97.924 100.829 95.2843C99.2365 98.3266 100.462 99.3467 99.0038 100.975L97.8227 101.302C96.7265 101.15 96.0688 101.159 94.9682 101.136Z" fill="#F3ABC3"/>
<path d="M96.9055 95.5291L100.829 95.283C99.2366 98.3253 100.462 99.3454 99.0039 100.974L97.8227 101.301C97.4514 99.8152 97.1829 97.1979 96.9055 95.5291Z" fill="#D5A3AD"/>
<path d="M94.9683 101.136C95.2904 99.6018 95.6841 96.2419 96.9055 95.5305C97.1829 97.1993 97.4514 99.8166 97.8228 101.302C96.7266 101.15 96.0689 101.159 94.9683 101.136Z" fill="#634859"/>
<path d="M106.167 82.0234C111.581 82.3277 112.355 87.8397 109.612 91.8708C103.675 91.5576 102.865 86.229 106.167 82.0234Z" fill="#595757"/>
<path d="M86.8386 82.0999C93.438 83.3257 90.7893 88.2069 87.9661 91.6563C80.7404 91.7414 83.7694 85.3793 86.8386 82.0999Z" fill="#595757"/>
<path d="M122.556 103.802C128.922 103.954 140.725 114.267 142.971 119.64C155.029 148.511 131.898 158.287 107.303 158.555C90.3552 158.738 81.5277 159.141 65.9755 154.47C63.5506 153.763 60.8571 153.021 58.5305 152.005C46.8217 146.86 44.267 132.512 49.5867 121.85C54.6515 111.708 62.6647 107.533 72.8076 103.972C105.223 117.17 92.6504 114.486 122.556 103.802Z" fill="#FAFAFB"/>
<path d="M114.359 129.908C118.055 130.535 118.386 132.964 121.737 134.745C126.936 137.505 129.115 132.745 133.365 131.179C135.71 130.316 135.625 133.729 136.403 134.951C136.448 135.018 138.309 136.351 138.618 136.57L138.676 137.586C137.661 138.525 138.242 138.279 136.878 138.364C135.07 137.613 134.667 137.47 132.739 137.165C132.126 137.975 134.435 138.888 134.533 140.959L133.692 141.501C132.896 141.572 132.139 141.671 131.441 141.21C129.16 139.751 126.421 140.047 123.777 139.716C119.026 139.12 111.353 136.06 114.359 129.908Z" fill="#241A19"/>
<path d="M78.7185 129.904C80.5618 130.741 79.8684 130.128 80.9735 131.685C81.752 139.537 62.021 142.158 59.8421 140.839C59.945 140.042 61.3543 138.718 62.0165 137.966L61.936 137.335C60.3969 137.04 61.1843 137.049 59.4886 137.626C58.0703 138.382 57.5111 138.785 56.0391 137.948L56.1464 136.969C59.3499 133.403 57.7571 134.937 59.5065 131.17C61.7436 130.763 66.0119 134.374 69.2199 135.716L69.7836 135.948C74.222 134.284 75.2287 133.103 78.7185 129.904Z" fill="#241A19"/>
<path d="M94.7622 135.545C102.247 135.107 107.491 139.603 99.7733 144.663C92.3775 145.799 87.8765 139.29 94.7622 135.545Z" fill="#040304"/>
<path d="M95.0579 137.286C97.6529 137.071 100.163 136.857 101.264 139.684C100.601 141.59 100.928 140.933 99.3084 142.373C96.8834 142.722 94.6329 142.789 93.5457 140.275C93.7336 138.66 93.9304 138.579 95.0579 137.286Z" fill="#F3ABC3"/>
<path d="M96.9007 148.31C101.965 148.368 103.102 152.283 100.35 155.992C99.6478 156.095 99.9476 156.113 99.2004 155.938C98.3637 155.746 97.5539 155.012 97.1423 154.243C96.1087 152.323 96.3817 150.323 96.9007 148.31Z" fill="#040304"/>
<path d="M15.771 22.4944C24.4419 25.6392 34.5624 30.6581 43.0096 34.6525C50.5441 38.2143 60.6199 42.7272 67.5593 46.9583L67.6801 54.1539C61.1523 56.1658 52.7274 61.6197 47.3808 65.7483C40.7725 71.3234 35.4752 77.3382 31.3768 84.9933C28.7058 84.4832 26.0481 83.7629 23.4128 83.0918C20.9878 72.7537 20.3525 63.6218 18.9879 53.2139C17.5875 42.5478 16.281 33.2821 15.771 22.4944Z" fill="#595757"/>
<path d="M179.132 18.8923C180.318 20.9947 174.787 58.9053 174.385 64.3564C169.982 63.3283 165.651 61.5212 161.343 60.1741C154.645 58.0802 152.086 61.2447 148.144 65.7357C145.714 63.6898 143.844 62.1163 141.236 60.3253C137.281 58.0002 133.751 55.8088 129.464 54.1078L129.424 45.5261C135.625 41.0096 147.397 35.0968 154.345 31.4576C161.611 27.6524 171.732 21.9687 179.132 18.8923Z" fill="#595757"/>
<path d="M156.121 64.2029C159.929 65.0556 174.331 69.2366 177.494 70.773C178.801 71.406 180.152 72.2695 180.908 73.5473C181.413 74.4027 181.512 75.4139 181.243 76.3624C179.83 81.2838 160.882 89.4265 155.853 92.348C161.123 93.5963 168.971 95.1398 173.584 98.0792C176.138 99.7033 174.532 102.522 173.038 104.365C169.508 104.025 134.439 96.4507 147.553 88.4556C153.602 84.7645 163.866 79.7537 170.438 76.076C164.855 74.5012 147.589 72.1783 156.121 64.2029Z" fill="#EC6D9F"/>
<path d="M166.268 114.809C168.98 115.292 178.093 117.672 180.335 119.596C181.23 120.37 180.979 121.01 180.854 121.918C178.577 125.108 171.418 128.204 167.485 131.022L166.917 131.434C169.646 132.15 174.805 132.799 176.903 134.539C177.919 135.38 177.521 136.525 177.396 137.801C173.937 137.738 163.687 135.465 161.396 133.009C161.101 132.051 160.725 131.286 161.432 130.231C163.611 126.982 172.572 122.839 176.004 121.497C173.154 120.79 167.042 120.097 165.481 117.766C165.387 116.048 165.436 116.549 166.268 114.809Z" fill="#EC6D9F"/>
<path d="M9.48106 11.0369C15.1364 11.7872 16.1655 14.744 11.4139 18.2821C6.2955 18.1018 4.59977 13.29 9.48106 11.0369Z" fill="#595757"/>
<path d="M183.382 6.82985C185.144 6.02721 187.225 6.7775 188.071 8.52058C188.912 10.2632 188.214 12.362 186.491 13.2483C185.341 13.8411 183.959 13.7632 182.881 13.0452C181.802 12.3271 181.198 11.0815 181.301 9.79075C181.404 8.49999 182.2 7.36673 183.382 6.82985Z" fill="#595757"/>
</svg>
