<svg width="255" height="844" viewBox="0 0 255 844" fill="none" xmlns="http://www.w3.org/2000/svg">
<path d="M71.6245 56.5835L71.6354 58.4807C50.9569 66.759 37.1223 93.7083 45.5897 114.58L44.6336 116.468C34.5836 100.448 46.714 71.1543 61.4589 61.8135C64.7569 59.7243 68.0703 58.1682 71.6245 56.5835Z" fill="#3C100A"/>
<path d="M28.9469 101.659C29.6779 104.362 30.3709 107.075 31.0259 109.797L29.7179 110.717C28.6157 106.635 28.7304 105.812 28.9469 101.659Z" fill="#592D1A"/>
<path d="M178.841 168.857C187.52 160.847 198.346 152.953 207.525 145.388C210.424 142.998 213.975 139.229 216.7 137.556L218.527 138.215C207.953 150.726 180.218 173.756 165.422 182.126C160.039 186.147 153.399 190.04 147.418 193.093C147.344 189.439 149.47 189.624 149.125 185.625C157.597 180.337 165.802 174.631 173.707 168.529L178.841 168.857Z" fill="#E5AF79"/>
<path d="M173.707 168.53L178.841 168.857C175.762 171.703 164.427 178.275 163.997 181.259L165.422 182.127C160.039 186.147 153.399 190.041 147.418 193.094C147.344 189.439 149.47 189.625 149.125 185.626C157.597 180.338 165.802 174.632 173.707 168.53Z" fill="#C8A994"/>
<path d="M0 228.618C6.22573 241.699 6.28353 264.075 11.0877 278.154C11.8221 280.307 14.322 287.697 14.5248 289.412C22.7221 309.151 40.0591 326.117 44.2501 348.378C47.9719 368.147 39.3131 380.377 34.2345 397.851C31.2956 407.659 29.958 417.876 30.2734 428.109C31.3354 466.469 53.755 463.796 59.8966 495.627C67.5037 535.053 37.3843 551.499 60.2502 591.622C68.1617 592.858 74.4114 594.659 79.2715 601.775C88.2453 614.915 89.7396 637.914 87.1039 653.149C85.1371 664.516 79.5771 671.081 71.6974 678.831C70.3078 680.197 68.0189 682.285 67.3053 683.95C68.2504 685.275 67.8236 684.884 69.1576 685.818C64.1671 704.675 53.158 721.019 42.4942 737.179C38.1609 743.742 33.4916 750.209 30.3585 757.466C25.8255 767.956 25.2679 779.325 23.3191 790.435C19.797 810.508 10.4707 826.557 0 843.721V816.606V782.765V228.618Z" fill="#C1835F"/>
<path d="M14.5248 289.411C22.7221 309.15 40.0591 326.116 44.2501 348.377C47.9719 368.146 39.3131 380.376 34.2345 397.85C31.2956 407.658 29.958 417.875 30.2734 428.107C31.3354 466.468 53.755 463.795 59.8966 495.626C67.5037 535.052 37.3843 551.498 60.2502 591.621C68.1617 592.857 74.4114 594.658 79.2715 601.773C88.2453 614.914 89.7396 637.913 87.1039 653.148C85.1371 664.514 79.5771 671.08 71.6974 678.83C70.3078 680.196 68.0189 682.284 67.3053 683.949C68.2504 685.274 67.8236 684.883 69.1576 685.817C64.1671 704.674 53.158 721.018 42.4942 737.178C38.1609 743.741 33.4916 750.208 30.3585 757.465C25.8255 767.955 25.2679 779.324 23.3191 790.434C19.797 810.507 10.4707 826.556 0 843.72V816.605C19.5118 790.604 12.0374 780.372 22.1769 752.186C26.4711 740.744 34.5671 734.816 40.6199 724.621C47.7568 712.599 58.7704 693.063 61.2463 679.222C61.9995 675.011 56.6406 664.131 54.9049 659.816C47.1981 640.652 37.5627 609.514 54.8866 593.168C31.9916 572.048 45.4874 547.119 47.2031 521.508L47.2516 520.717C54.8556 514.645 50.592 508.531 43.7206 504.493C41.9152 505.072 40.1164 505.838 38.3889 506.619C37.7539 505.133 37.9121 504.353 37.9605 502.753C37.6221 498.502 37.3066 494.407 32.9448 492.831C30.4936 493.195 30.3708 493.521 28.4694 495.312C27.2796 494.2 27.7216 494.582 26.0544 493.999C24.7918 495.399 25.5512 495.019 23.7394 495.246L21.7766 493.235C23.5495 469.176 11.647 450.817 9.64254 428.179C8.83937 419.107 12.9335 408.168 14.3537 399.262C18.103 375.232 25.9018 351.022 22.609 326.568C21.5231 318.504 11.1872 295.498 14.5248 289.411Z" fill="#F1C499"/>
<path d="M26.0542 493.999C28.2485 491.414 30.1912 489.59 33.6047 489.264C42.725 492.224 38.0845 503.701 43.7204 504.494C41.915 505.072 40.1162 505.839 38.3887 506.62C37.7537 505.134 37.912 504.353 37.9603 502.754C37.6219 498.502 37.3064 494.408 32.9447 492.832C30.4934 493.195 30.3706 493.521 28.4692 495.312C27.2794 494.2 27.7215 494.582 26.0542 493.999Z" fill="#592D1A"/>
<path d="M62.2008 597.78C63.3106 597.904 64.4479 598.036 65.5249 598.341C69.4606 599.456 72.8057 603.014 74.8689 606.412C82.2274 618.531 83.7047 639.931 80.1063 653.45C78.8342 658.231 77.1318 662.014 72.6959 664.512C71.5955 665.132 72.0495 664.651 71.4917 665.972L73.9453 667.356L73.6584 667.844C71.6859 668.399 69.9678 668.698 67.9999 667.909C64.4431 666.483 61.9837 661.782 60.4859 658.439C54.1079 644.207 49.0217 619.787 55.236 604.775C56.6885 601.267 58.7734 599.297 62.2008 597.78Z" fill="#592D1A"/>
<path d="M61.3395 602.077C71.4384 600.669 76.5394 617.84 77.0673 625.466C77.8181 636.326 80.7506 655.853 68.6238 661.303C64.5743 661.938 59.755 643.963 58.8713 640.001C55.8874 626.623 53.9175 614.255 61.3395 602.077Z" fill="#77503D"/>
<path d="M61.1697 601.849C71.2686 600.441 76.3696 617.613 76.8975 625.239C77.6483 636.098 80.5808 655.625 68.454 661.076C67.2714 657.658 72.1487 638.06 71.2216 629.627C69.7295 616.055 64.2246 612.308 61.1697 601.849Z" fill="#B27555"/>
<path d="M47.2516 520.717L47.2031 521.508C45.4874 547.119 31.9916 572.048 54.8866 593.169C37.5627 609.514 47.1981 640.652 54.9049 659.816C56.6406 664.132 61.9995 675.011 61.2463 679.222C58.7704 693.063 47.7568 712.6 40.6199 724.621C34.5671 734.816 26.4712 740.744 22.1769 752.187C12.0374 780.373 19.5118 790.605 0 816.605V782.764C3.65753 776.77 12.9732 745.772 12.2877 739.88C16.268 727.131 23.0482 715.371 26.9574 702.248L28.2578 700.736C27.2512 698.447 27.014 697.883 25.5949 695.857C20.9858 696.565 10.4621 700.299 8.24298 695.713C3.14795 685.186 8.76488 679.835 15.727 675.31C11.6578 670.215 8.12973 665.844 11.2045 659.078C14.4909 651.845 21.3529 653.153 26.9558 655.474C25.3837 638.344 27.1356 622.683 22.1724 605.717C19.1929 595.531 8.41766 538.61 16.3312 532.442C22.7555 535.518 24.3362 552.663 39.1625 539.552C43.6974 532.717 41.531 532.653 41.3294 525.02C42.8563 522.121 43.7737 522.436 47.2516 520.717Z" fill="#E5AF79"/>
<path d="M15.7266 675.309C11.6573 670.215 8.12931 665.843 11.2041 659.077C14.4905 651.844 21.3524 653.152 26.9553 655.473C29.2196 658.155 28.4188 658.112 30.9614 658.34C37.4058 654.933 42.4522 650.621 48.3955 658.77C50.4368 661.568 48.3675 667.212 47.9439 670.178C50.9007 675.401 58.2467 677.907 56.4739 685.382C52.9769 689.381 50.1962 689.541 45.3776 690.331C44.8603 695.745 44.7365 699.736 40.1732 703.395C36.2542 706.538 30.9303 704.19 28.2574 700.735C27.2508 698.446 27.0136 697.882 25.5945 695.856C20.9854 696.564 10.4617 700.298 8.24257 695.712C3.14753 685.185 8.76446 679.834 15.7266 675.309Z" fill="#4B1E11"/>
<path d="M19.901 675.648C16.1593 670.241 12.5041 665.546 15.7023 658.571C19.5858 655.059 23.0539 657.367 26.574 660.473L29.8929 667.439C32.8151 662.095 36.3163 653.809 43.6862 659.083C50.5271 663.979 40.142 671.687 40.9059 674.705L41.7213 674.889C46.9874 676.109 51.8637 676.221 52.384 682.463C49.3413 689.064 42.4464 684.636 40.3254 688.088C40.7433 692.809 41.9158 696.769 39.0636 700.182C36.7679 701.276 36.8918 701.329 34.4096 701.111C30.3726 698.681 28.4066 692.628 26.5099 688.244C21.6968 691.944 15.6508 698.324 10.8608 691.673C9.77771 690.169 9.7975 689.739 9.61108 687.945C11.2797 681.364 17.8625 678.517 19.901 675.648Z" fill="#76D6FF"/>
<path d="M26.574 660.471L29.893 667.438C30.0304 668.666 30.2092 668.731 29.8961 669.802C25.5316 671.811 25.2131 672.182 22.2569 676.01C21.4045 674.51 21.3654 671.151 21.2131 669.284C22.5543 664.671 23.4161 663.844 26.574 660.471Z" fill="#76D6FF"/>
<path d="M29.8961 669.804C42.9686 674.559 35.3663 686.776 25.7876 683.833C23.2869 683.065 21.894 678.753 22.257 676.012C25.2131 672.184 25.5316 671.813 29.8961 669.804Z" fill="#4B1E11"/>
<path d="M28.2569 674.58C30.1082 673.734 32.295 674.548 33.1418 676.399C33.9887 678.25 33.1751 680.437 31.3243 681.285C29.4727 682.132 27.2844 681.318 26.4371 679.466C25.5899 677.615 26.4047 675.427 28.2569 674.58Z" fill="#F5CBA1"/>
<path d="M28.4694 495.312C30.3709 493.521 30.4937 493.195 32.9449 492.832C37.3067 494.408 37.6221 498.502 37.9606 502.754C37.9122 504.353 37.754 505.134 38.389 506.62C40.1165 505.839 41.9152 505.072 43.7206 504.494C50.592 508.531 54.8557 514.646 47.2517 520.717C43.7738 522.436 42.8563 522.121 41.3295 525.02C41.531 532.653 43.6974 532.717 39.1626 539.552L35.8691 540.043C29.1096 541.085 24.0651 538.641 21.7734 531.94C19.8349 527.885 15.546 529.859 8.99416 526.667C7.07533 524.9 5.78794 522.553 5.32886 519.986C4.47492 515.029 9.56722 511.901 12.5128 507.35C12.2249 504.976 11.6509 504.635 10.0283 502.701C9.56116 495.69 15.3287 491.996 21.7766 493.236L23.7394 495.247C25.5513 495.019 24.7918 495.399 26.0544 493.999C27.7217 494.582 27.2796 494.201 28.4694 495.312Z" fill="#FFE23F"/>
<path d="M10.0283 502.702C11.6726 502.078 11.6966 501.965 13.1152 500.881C15.4608 504.257 16.9974 506.726 19.0417 510.295C15.5827 511.494 12.2395 512.316 9.58353 514.79C11.7548 520.3 17.4216 520.686 22.4711 524.303L23.3768 524.985C24.9355 530.101 28.5515 539.254 35.0652 538.02C42.4119 532.048 38.4871 527.501 34.0901 521.753C38.4513 520.262 50.8825 518.53 46.1695 511.028C43.0345 508.983 39.4085 508.258 35.6948 508.244C35.4483 505.981 36.6655 504.75 37.9606 502.754C37.9122 504.354 37.754 505.134 38.389 506.62C40.1165 505.839 41.9152 505.073 43.7206 504.494C50.592 508.532 54.8557 514.646 47.2517 520.718C43.7738 522.436 42.8563 522.122 41.3295 525.021C41.531 532.654 43.6974 532.718 39.1626 539.552L35.8691 540.044C29.1096 541.086 24.0651 538.641 21.7734 531.94C19.8349 527.886 15.546 529.859 8.99416 526.667C7.07533 524.901 5.78794 522.554 5.32886 519.986C4.47492 515.03 9.56722 511.902 12.5128 507.35C12.2249 504.977 11.6509 504.636 10.0283 502.702Z" fill="#4B1E11"/>
<path d="M10.0283 502.702C9.56108 495.691 15.3286 491.997 21.7765 493.236L23.7393 495.247C25.5512 495.02 24.7917 495.4 26.0544 494C27.7216 494.583 27.2795 494.201 28.4693 495.313L27.2423 499.202C22.4149 500.983 19.4281 493.467 13.1151 500.881C11.6966 501.965 11.6725 502.078 10.0283 502.702Z" fill="#4B1E11"/>
<path d="M26.6944 507.763C27.3332 507.834 27.9692 507.911 28.5983 508.048C30.6906 508.504 32.037 509.707 33.1253 511.521C34.311 513.497 34.5119 515.676 33.8893 517.885C33.2333 520.211 31.9395 521.171 29.9339 522.356C27.4695 522.066 24.8644 521.515 23.2007 519.506C22.137 518.222 21.7252 516.669 21.9115 515.021C22.2842 511.724 24.303 509.823 26.6944 507.763Z" fill="#3C100A"/>
<path d="M25.8071 511.863C28.0206 512.181 29.1309 512.534 30.905 513.915C32.0413 515.947 31.8127 517.194 31.4929 519.452C29.5026 519.214 28.3876 518.885 26.6971 517.793C25.445 515.746 25.662 514.201 25.8071 511.863Z" fill="#FF7BE2"/>
<path d="M12.2875 739.881L11.5319 738.434C11.2578 731.902 22.2399 708.558 25.8966 701.949L26.9572 702.249C23.048 715.372 16.2678 727.132 12.2875 739.881Z" fill="#4B1E11"/>
<path d="M8.99365 526.666C15.5455 529.858 19.8344 527.885 21.7729 531.939C18.3417 532.401 13.8634 532.714 10.7307 531.272C8.63632 529.014 9.19949 530.136 8.99365 526.666Z" fill="#B27555"/>
<path d="M0 0H59.5134C67.0419 9.44955 74.875 18.0374 82.6808 27.1026C103.223 50.958 113.123 70.6588 145.556 79.293C132.406 92.8787 123.565 108.924 107.503 120.244C88.734 133.474 70.6844 131.511 54.9201 149.863C41.0779 165.977 39.3519 188.694 29.8166 206.647C25.1854 215.367 13.3402 229.009 7.06179 238.357C5.12736 232.085 2.32635 220.618 0 215.334V0Z" fill="#C1835F"/>
<path d="M45.0357 56.5416L44.2421 55.9556C43.8878 44.4771 68.6609 33.4602 77.7123 40.8681C78.6026 41.597 80.438 42.0953 81.6444 42.3131C84.5148 45.0511 85.5358 46.3291 87.4901 49.8401C86.331 53.9722 86.39 56.4192 83.699 59.111C94.6972 87.4104 68.8936 132.651 34.6965 119.377C32.3035 116.065 31.0393 114.6 29.7179 110.718C28.6157 106.636 28.7304 105.813 28.9469 101.66C28.4085 102.562 35.6954 74.935 36.0266 73.7868C35.6005 65.8811 40.145 63.0772 45.0357 56.5416Z" fill="#77503D"/>
<path d="M36.0266 73.7874C41.8075 66.808 44.0382 60.071 52.6865 54.4134C57.9601 50.9634 72.1621 48.76 75.8673 54.7378C74.7052 56.4456 74.4048 55.9668 71.6247 56.5833L71.6356 58.4805C50.9571 66.7588 37.1225 93.7082 45.5899 114.58L44.6339 116.468L44.9183 117.866L44.0329 118.547C37.8901 117.773 34.1715 114.833 31.0259 109.798L29.7179 110.719C28.6157 106.636 28.7304 105.814 28.9469 101.66C28.4085 102.563 35.6953 74.9356 36.0266 73.7874Z" fill="#B27555"/>
<path d="M45.0356 56.5416L44.2421 55.9556C43.8878 44.4771 68.6609 33.4602 77.7122 40.8681C78.6026 41.597 80.4379 42.0953 81.6443 42.3131C84.5147 45.0511 85.5357 46.3291 87.49 49.8401C86.3309 53.9722 86.3899 56.4192 83.6989 59.111C94.6971 87.4104 68.8935 132.651 34.6964 119.377C32.3035 116.065 31.0392 114.6 29.7178 110.718L31.0258 109.797C34.1715 114.832 37.89 117.773 44.0328 118.546L44.9182 117.866L44.6338 116.467L45.5899 114.579C51.2271 121.769 63.6859 112.675 68.2871 107.656C77.5247 97.5774 89.5018 71.3511 78.872 59.3204C77.4147 57.6707 73.6629 58.282 71.6355 58.4799L71.6246 56.5827C74.4047 55.9662 74.7052 56.445 75.8672 54.7372C72.162 48.7593 57.96 50.9628 52.6864 54.4127C44.0381 60.0704 41.8074 66.8074 36.0265 73.7868C35.6004 65.8811 40.1449 63.0772 45.0356 56.5416Z" fill="#4B1E11"/>
<path d="M17.1455 102.406C20.9103 105.522 19.9221 119.698 27.0182 125.843C33.5867 131.53 43.0373 131.377 51.1733 131.041L51.4281 132.237C48.7495 133.179 45.8175 133.835 42.9763 134.005C36.5998 134.389 30.494 132.783 25.7014 128.362C18.1424 121.39 17.6255 111.993 17.1455 102.406Z" fill="#4B1E11"/>
<path d="M223.735 80.2722C227.653 77.5105 239.499 78.1786 244.781 78.138C233.376 101.056 222.499 119.487 203.909 137.841L204.373 138.727L201.825 141.4L201.084 140.514C196.149 148.283 150.224 181.725 140.897 185.544C128.719 193.583 108.198 202.843 94.4735 210.084C91.0707 212.595 85.5026 215.646 81.6798 217.891C48.1267 237.603 32.1117 259.949 22.5244 297.267C14.9277 279.124 11.5235 263.055 8.77393 243.508C16.6983 231.218 27.3992 219.88 34.0485 207.378C43.7937 189.054 44.2446 169.275 58.3221 152.456C73.7304 134.047 95.682 134.916 113.609 120.493C127.596 109.239 137.001 92.7292 150.003 80.0183C167.083 82.3518 183.387 85.1497 200.586 82.278C203.811 81.7398 220.018 78.919 222.089 79.8795L223.735 80.2722Z" fill="#C1835F"/>
<path d="M94.4733 210.084L94.1484 208.986C95.1998 202.91 100.495 194.488 103.499 188.967C115.113 167.621 130.015 145.272 148.085 128.799C156.96 120.709 168.747 114.888 178.619 108.061C186.448 102.647 191.542 96.5697 198.16 90.0474C190.294 103.356 184.881 114.648 177.444 127.854C166.317 147.732 154.117 166.991 140.897 185.544C128.719 193.583 108.198 202.843 94.4733 210.084Z" fill="#E5AF79"/>
<path d="M25.6055 299.543C25.9985 297.941 26.4044 296.343 26.8232 294.748C44.3168 228.33 97.4131 215.8 149.125 185.626C149.469 189.625 147.344 189.439 147.418 193.094C143.506 196.047 129.212 202.793 124.072 205.264C78.44 227.21 37.3611 257.824 32.0442 312.164L25.6055 299.543Z" fill="#C1835F"/>
<path d="M173.707 168.529C182.126 161.041 192.985 153.4 201.829 145.371C225.459 123.918 234.486 106.596 248.361 79.4197C250.864 77.9912 252.202 76.8381 254.656 78.6704C257.224 88.6757 226.421 130.68 218.527 138.216C207.953 150.726 180.218 173.756 165.422 182.127C160.039 186.147 153.399 190.04 147.418 193.093C147.344 189.439 149.47 189.624 149.125 185.625C157.597 180.337 165.802 174.631 173.707 168.529Z" fill="#C1835F"/>
<path d="M223.735 80.2722C227.653 77.5105 239.498 78.1786 244.781 78.138C233.376 101.056 222.499 119.487 203.909 137.841C203.661 134.257 212.829 107.227 214.431 101.725C215.872 96.7784 221.458 85.5609 223.735 80.2722Z" fill="#E5AF79"/>
<path d="M222.089 79.8794L223.735 80.2721C221.458 85.5608 215.872 96.7783 214.431 101.725C212.829 107.227 203.661 134.257 203.909 137.841L204.373 138.727L201.824 141.4L201.084 140.514C202.802 125.828 214.197 93.4216 222.089 79.8794Z" fill="#4B1E11"/>
</svg>
