<svg width="130" height="141" viewBox="0 0 130 141" fill="none" xmlns="http://www.w3.org/2000/svg">
<path d="M66.9595 48.2264C72.4408 29.5813 80.7117 7.02847 101.577 0.836831C112.559 -2.42321 122.993 4.51146 125.39 15.6156C129.28 33.6282 122.794 47.5025 113.785 62.6067C126.053 75.9962 131.648 90.7593 128.56 108.901C126.085 118.262 121.275 125.619 112.675 130.57C90.1767 142.76 58.0875 142.59 34.0274 137.321C0.775787 130.039 -6.41518 104.899 5.18485 76.0331C5.67748 74.8081 6.3723 70.0299 6.7896 68.2897C1.82546 60.9024 0.342817 55.3472 7.11823 48.495C-0.959465 33.7923 -2.32006 1.83606 20.8004 0.124134C43.2917 -0.193245 57.1651 29.9125 61.519 48.415C63.1792 48.2566 65.2598 48.2637 66.9595 48.2264Z" fill="#713C37"/>
<path d="M19.7068 4.33646C20.0877 4.32076 20.4722 4.3144 20.8531 4.31737C39.7652 4.49484 52.2094 30.6438 56.3485 46.1815C56.7434 47.6683 54.2198 51.55 55.4092 51.7163C60.2961 52.3966 67.7272 52.4572 72.6324 51.9393C74.6883 50.095 71.4224 48.2312 72.282 45.3461C76.749 30.5551 83.3829 15.2477 97.4317 7.23419C104.717 2.63378 115.357 3.43349 119.214 11.9257C125.509 25.785 120.722 42.7018 113.079 55.0459C111.012 58.3831 108.787 62.1143 107.284 65.6905C106.813 66.8192 106.96 67.587 107.52 68.5763C109.216 69.2622 110.424 68.4017 111.761 67.3972C125.197 80.3186 131.255 107.169 116.727 121.703C114.696 123.733 112.475 125.371 110.189 127.099C115.934 114.43 111.359 103.097 101.07 94.6286C83.5233 82.0468 58.7613 81.1233 38.7692 88.1448C22.2128 93.9592 12.1649 109.922 19.2358 127.064C2.08399 115.085 0.927762 98.3245 8.55068 79.9772C15.9522 83.3567 22.0508 81.2781 26.0845 74.2047C27.8137 71.4822 28.8851 69.432 32.3018 71.5962C38.4743 75.5028 47.2738 78.3122 51.8288 70.4096C54.6653 65.4922 52.0107 61.8405 49.0185 57.8819C50.1263 54.006 50.2673 50.8175 48.6153 47.0148C45.3401 39.4763 36.2162 40.2125 31.5397 45.8286C28.7683 49.1573 27.8332 51.9393 26.323 55.9222C18.559 50.5151 22.1022 50.3027 10.9382 47.2433C9.88988 43.6801 8.14448 40.0035 7.50583 36.319C5.37461 23.9744 4.60632 7.71505 19.7068 4.33646Z" fill="#EB709B"/>
<path d="M29.7003 97.8414C40.386 88.6101 58.7778 86.3824 72.4575 87.7912C74.5776 88.1298 77.3588 88.4895 79.3637 89.0854C81.0094 89.5299 82.7377 89.9668 84.351 90.4814L88.3142 92.0306C96.4165 95.2734 107.144 102.787 108.335 112.167C109.086 113.806 109.067 116.523 108.822 118.293C106.583 134.46 83.0381 136.009 70.4071 136.428C54.021 137.087 14.6586 137.099 21.4356 110.752C23.0435 104.567 25.2254 102.197 29.7003 97.8414Z" fill="white"/>
<path d="M29.7007 97.841C40.3864 88.6097 58.7781 86.382 72.4579 87.7908C74.5779 88.1294 77.3591 88.4891 79.3641 89.0849C81.0098 89.5294 82.7381 89.9664 84.3514 90.4809L88.3146 92.0301C96.4169 95.273 107.145 102.786 108.335 112.166C106.798 111.092 107.129 109.5 105.976 108.041C105.534 107.478 103.945 107.598 102.889 107.49L102.778 107.112C103.967 107.066 104.107 107.269 104.876 106.694L104.772 105.789C104.108 104.817 104.036 104.521 102.99 104.176L102.789 104.778L103.906 105.959L103.669 106.459C99.8455 106.941 94.2057 99.5823 88.2034 104.776L88.221 105.899C91.6462 103.391 104.079 104.997 102.442 112.08C101.918 109.194 99.8742 106.818 97.0968 105.872C94.3193 104.926 91.2468 105.56 89.0722 107.527C88.702 107.862 88.3605 108.231 88.0586 108.629C87.2893 109.643 86.768 110.826 86.5413 112.081C86.1426 111.454 86.1246 111.319 85.8805 110.61C86.5527 109.59 86.5239 109.65 86.6177 108.423C84.6341 108.429 71.5396 108.753 70.875 108.045C71.9928 107.398 76.0245 107.824 77.8464 107.675L78.0979 107.651C80.2326 106.823 84.5235 105.411 85.9397 103.872L85.8213 103.507C79.9208 103.655 73.5463 103.043 67.5992 103.068C65.6012 103.076 64.2859 103.515 62.3598 103.538L62.3779 103.228L63.7471 102.664C57.9221 102.888 52.0434 102.517 46.1967 103.204C45.8373 103.246 41.3853 102.574 41.0655 102.363C41.9638 102.411 41.6764 102.526 42.3915 102.179C42.3206 98.8277 37.6303 101.862 34.9213 100.179L34.6447 99.8039L34.7527 99.4749C33.725 99.2263 33.3406 99.0739 32.4316 98.538L31.738 98.5076C30.3078 98.6146 30.8575 98.7829 29.7007 97.841Z" fill="#9BB9DF"/>
<path d="M29.7007 97.841C40.3864 88.6097 58.7781 86.382 72.4579 87.7908C74.5779 88.1294 77.3591 88.4891 79.3641 89.0849C81.0098 89.5294 82.7381 89.9664 84.3514 90.4809C83.2015 90.6847 81.6886 90.9031 80.5853 91.1816C79.3566 90.2662 65.493 91.0124 62.8411 90.975C60.8969 91.4272 59.4452 91.2601 57.5838 91.4744C53.1134 91.9885 46.7026 92.5774 42.5769 94.2135C40.6578 95.3167 39.9607 94.9997 38.3217 96.6135C36.2913 96.9751 34.6095 97.2024 32.5576 97.4271L32.2808 97.9516L31.738 98.5076C30.3078 98.6146 30.8575 98.7829 29.7007 97.841Z" fill="#6293C8"/>
<path d="M72.4573 87.7916C74.5773 88.1302 77.3585 88.4899 79.3635 89.0858C81.0091 89.5303 82.7374 89.9672 84.3508 90.4818C83.2008 90.6856 81.6879 90.904 80.5847 91.1825C79.356 90.2671 65.4924 91.0132 62.8404 90.9759C63.3687 90.6343 63.9294 90.3822 64.4936 90.1004C62.3987 90.0165 60.3684 89.9642 58.2843 89.6978C59.42 88.9824 69.5245 89.9239 72.4573 87.7916Z" fill="#5389C2"/>
<path d="M42.5768 94.2136L43.0691 94.2482C46.2708 94.4521 49.1961 93.5665 52.9153 93.5366C51.715 93.7314 50.5075 93.9189 49.3037 94.0997C52.1676 94.4364 56.1995 94.2061 59.6095 94.525C57.9277 94.8619 52.1817 95.5372 50.5251 95.5853C51.161 95.9947 56.2098 95.9195 57.8914 96.2267C56.0048 96.4213 45.5193 96.1969 44.9154 96.8926C43.1584 96.2052 40.201 96.3859 38.3216 96.6135C39.9606 94.9997 40.6576 95.3168 42.5768 94.2136Z" fill="#78A4D4"/>
<path d="M38.3218 96.6135C40.2012 96.3859 43.1586 96.2052 44.9156 96.8926C47.8763 97.7377 55.3186 96.6073 57.1439 97.2516C56.6767 97.5162 33.8655 98.0588 32.2808 97.9517L32.5577 97.4272C34.6096 97.2025 36.2914 96.9751 38.3218 96.6135Z" fill="#97B7DF"/>
<path d="M32.4315 98.5381C34.5049 98.6579 52.3569 98.9098 52.5509 99.0773C47.6924 99.7791 41.8352 99.5692 36.8584 99.4371L36.8906 99.6703C39.8191 100.232 55.0769 99.7046 59.5758 100.013L44.1277 100.058C41.6985 100.055 37.1852 99.9233 34.9213 100.179L34.6447 99.804L34.7526 99.475C33.725 99.2264 33.3405 99.074 32.4315 98.5381Z" fill="#97B7DF"/>
<path d="M84.3513 90.4813L88.3144 92.0305C85.5402 92.3578 81.282 92.3131 78.5476 91.7261L78.5117 91.4519L80.5852 91.182C81.6884 90.9034 83.2013 90.6851 84.3513 90.4813Z" fill="#78A4D4"/>
<path d="M88.0582 108.628C84.5551 106.829 82.7795 108.342 81.4502 107.5C83.5596 107.304 86.8622 106.345 88.6444 106.688L89.0719 107.526C88.7017 107.861 88.3602 108.23 88.0582 108.628Z" fill="#EAE6E6"/>
<path d="M63.0331 98.9623C65.0635 98.6844 77.504 98.466 79.0849 99.3024C76.8568 99.6881 64.8404 99.6716 63.0331 98.9623Z" fill="#97B7DF"/>
<path d="M54.4626 98.944C56.3635 98.8177 59.9785 98.7252 61.7788 98.9287L61.8218 99.422C59.3243 99.4519 56.9275 99.5116 54.4302 99.3356L54.4626 98.944Z" fill="#97B7DF"/>
<path d="M21.4359 110.751C23.0438 104.566 25.2256 102.196 29.7006 97.8403C30.8574 98.7823 30.3077 98.614 31.7379 98.507L32.4314 98.5373C33.3404 99.0733 33.7249 99.2257 34.7525 99.4742L34.6446 99.8033L34.9212 100.178C37.6302 101.862 42.3204 98.827 42.3914 102.179C41.6762 102.526 41.9637 102.411 41.0654 102.362C41.3851 102.573 45.8372 103.246 46.1966 103.204C52.0432 102.517 57.922 102.888 63.747 102.663L62.3777 103.228L62.3597 103.538C64.2858 103.515 65.6011 103.076 67.599 103.067C73.5461 103.043 79.9207 103.655 85.8211 103.507L85.9396 103.872C84.5234 105.41 80.2325 106.822 78.0978 107.651C76.4987 107.632 70.8103 107.802 70.045 107.145C71.7124 106.992 76.2581 107.266 77.2967 106.845C77.1673 106.755 48.6538 105.935 45.664 105.997L44.751 106.937L44.6685 106.635L44.3773 106.986L44.6325 106.621C45.5129 106.858 45.4877 106.796 46.1056 107.45L45.8863 107.773L45.4911 107.601C46.1415 107.556 45.8433 107.57 46.5977 108.081C45.7244 108.747 46.2203 108.521 44.9985 108.618C43.6656 107.897 42.9902 107.169 41.9053 106.145L42.0526 106.113L40.7949 105.968L40.6475 106.3C42.5659 108.368 43.4497 108.819 43.0393 111.753C42.1416 109.274 41.0175 106.91 38.4269 105.972C32.4121 103.795 29.1016 107.434 26.9407 112.017C26.3234 109.272 27.8576 109.641 27.3227 107.817C26.1442 107.206 24.3977 107.592 23.2908 108.226C22.7083 109.405 22.4746 109.937 21.4359 110.751Z" fill="#C1D0EA"/>
<path d="M26.9407 112.018C29.1016 107.434 32.4121 103.796 38.4269 105.973C41.0175 106.91 42.1416 109.275 43.0393 111.754C42.937 118.235 41.6068 120.53 34.973 121.845C27.6285 120.026 28.2148 118.137 26.9407 112.018Z" fill="#694234"/>
<path d="M33.7155 108.322C36.6407 107.588 39.6012 109.369 40.3227 112.295C41.0442 115.221 39.2467 118.175 36.3179 118.881C33.407 119.582 30.4789 117.801 29.7645 114.895C29.0466 111.99 30.8154 109.052 33.7155 108.322Z" fill="white"/>
<path d="M89.0722 107.527C91.2467 105.56 94.3193 104.926 97.0967 105.872C99.8742 106.818 101.918 109.194 102.442 112.081C102.794 114.037 102.412 116.056 101.373 117.75C99.9066 120.132 97.3117 121.587 94.5161 121.595C91.7168 121.604 89.1156 120.165 87.6357 117.791C86.5725 116.09 86.1849 114.054 86.5412 112.081C86.7679 110.827 87.2893 109.644 88.0585 108.629C88.3605 108.231 88.702 107.862 89.0722 107.527Z" fill="#694234"/>
<path d="M93.2657 108.409C95.1847 107.953 97.1968 108.584 98.5152 110.053C99.83 111.523 100.236 113.594 99.5703 115.45C98.9086 117.307 97.2804 118.652 95.3327 118.954C92.4794 119.397 89.7848 117.508 89.2286 114.674C88.676 111.841 90.4554 109.075 93.2657 108.409Z" fill="white"/>
<path d="M108.335 112.167C109.086 113.805 109.067 116.523 108.822 118.293C106.583 134.46 83.0385 136.009 70.4075 136.428C71.6294 136.006 72.693 136.079 73.6741 135.744C75.2697 135.2 76.7468 134.522 78.4143 134.029C87.6285 131.299 95.6894 128.24 103.083 121.749C104.88 120.173 107.978 116.813 108.371 114.208C108.392 114.052 108.346 112.421 108.335 112.167Z" fill="#EAE6E6"/>
<path d="M55.5201 122.627C58.6286 122.181 70.9865 121.589 73.5878 122.66C74.8557 125.063 73.6682 131.3 73.3116 134.322C67.7203 134.093 62.1254 134.037 56.534 134.152C56.1499 132.722 55.7693 131.483 55.5865 130.006C55.2279 127.162 55.3721 125.457 55.5201 122.627Z" fill="white"/>
<path d="M55.5199 122.628C58.6283 122.181 70.9862 121.59 73.5876 122.66C74.8554 125.064 73.6679 131.3 73.3114 134.322C67.7201 134.094 62.1252 134.037 56.5338 134.152C56.1497 132.722 55.7691 131.483 55.5862 130.006L57.4298 129.291L57.7703 132.646C62.51 132.586 67.2498 132.632 71.9858 132.783C72.3495 129.879 72.6342 126.965 72.8398 124.046C70.0119 123.557 59.7599 123.511 57.1904 124.32C56.5004 124.479 56.8561 124.457 56.1088 124.191L55.5199 122.628Z" fill="#402518"/>
<path d="M55.5861 130.006C55.2275 127.162 55.3717 125.457 55.5198 122.627L56.1087 124.191C56.8561 124.456 56.5003 124.479 57.1903 124.32C57.3479 126.097 57.4015 127.506 57.4298 129.291L55.5861 130.006Z" fill="#694234"/>
<path d="M63.4749 113.576C70.2306 113.384 72.2307 118.981 66.2866 121.03C59.0278 121.421 57.2147 115.262 63.4749 113.576Z" fill="#402518"/>
<path d="M62.5289 115.338C64.7605 115.068 67.8042 114.89 68.4862 117.601C67.9972 118.687 67.9577 118.706 66.955 119.405C64.8635 119.578 61.9995 119.91 60.9724 117.703C61.4112 116.145 61.1882 116.697 62.5289 115.338Z" fill="#FEDC22"/>
<path d="M10.2936 66.3182C-1.1163 55.6759 8.91948 44.5079 22.1471 57.1317L22.0177 57.4108C20.9858 59.6442 20.6151 61.457 18.5703 62.2102C19.2385 62.8672 19.26 63.2027 19.5256 64.092L19.2164 64.7695C19.6763 64.9676 22.6255 68.8928 24.5547 70.4425C22.3294 74.3491 18.3322 79.2823 13.1759 78.146C11.832 77.8636 10.6716 77.024 9.98201 75.8357C8.22203 72.8489 9.43753 69.3431 10.2936 66.3182Z" fill="#A4D8F1"/>
<path d="M19.2167 64.7696C17.6174 65.7784 16.4744 66.9561 14.6348 66.1038L14.5739 65.3813C15.5662 63.352 16.5688 63.0365 18.5706 62.2103C19.2388 62.8672 19.2603 63.2028 19.5259 64.0921L19.2167 64.7696Z" fill="#694234"/>
<path d="M37.8827 44.9748C47.269 44.1725 47.3172 52.0845 44.933 58.6999C47.5985 61.7718 52.6096 68.1503 45.968 71.5268C43.5745 72.7441 39.7119 71.5948 37.2866 70.5871C36.2231 69.9908 34.9334 68.8444 33.9598 68.0461C35.4051 65.2107 35.4557 64.2152 35.6218 61.0852C36.9298 61.1477 40.1206 61.5186 40.9221 60.8506C41.1381 59.6704 40.6531 59.1202 39.7837 58.4438C38.2565 58.1011 36.7329 58.4305 35.1769 58.651C33.8869 58.1965 31.5984 56.3004 30.3913 55.3839C31.7868 50.552 33.6669 47.8827 37.8827 44.9748Z" fill="#A4D8F1"/>
<path d="M26.6242 58.7933C29.5241 58.5415 32.3014 60.3257 31.7292 63.4768C31.3009 65.8199 30.2048 66.2974 28.4042 67.5792C23.0034 66.9904 21.1722 61.8199 26.6242 58.7933Z" fill="#A4D8F1"/>
</svg>
