<svg width="1468" height="436" viewBox="0 0 1468 436" fill="none" xmlns="http://www.w3.org/2000/svg">
<path d="M566.155 73.5198H1467.76V152.481V160.725V273.301C1461.94 269.925 1455.01 267.388 1448.84 264.317C1442.34 257.756 1446.18 247.341 1442.53 239.869C1436.84 228.23 1426.76 215.914 1418.81 205.89C1413.45 199.141 1383.12 173.228 1375.8 172.742C1367.51 160.176 1365.29 154.636 1351.02 149.915C1381.32 137.43 1389.3 137.727 1421.95 133.792C1379.09 110.339 1336.12 184.606 1294.96 208.839C1262.43 227.993 1231.11 228.572 1198.1 212.5C1176.73 202.893 1152.15 182.577 1130.79 177.222C1087.99 166.491 1046.52 151.886 1010.09 176.47C1007.3 178.354 995.453 184.786 992.648 185.29C989.835 182.426 991.858 178.953 988.875 177.067C979.831 171.34 966.675 171.78 956.753 173.497C936.635 178.215 917.816 187.044 903.257 202.024C879.824 195.44 840.584 188.124 816.051 189.915C779.92 192.552 741.027 214.544 708.107 228.574C690.485 237.346 678.24 244.535 657.995 245.385C627.831 246.652 600.1 239.963 572.11 229.459C546.589 219.88 527.607 212.118 499.875 213.139C492.107 213.425 466.545 208.409 458.733 205.444C445.899 203.134 440.907 203.025 428.298 204.581C431.215 202.035 437.422 197.797 440.967 195.038C451.523 186.82 456.967 180.266 464.927 169.8C476.546 143.421 493.546 140.654 514.338 125.486C524.062 118.393 537.22 101.981 544.335 92.0736L543.578 90.5974L547.303 86.1118L546.924 84.4259L547.852 83.5164L550.18 83.7829C556.384 74.3506 559.197 78.1915 566.155 73.5198Z" fill="#D3986C"/>
<path d="M953.608 166.862C956.657 168.412 956.42 167.715 957.919 170.203C957.528 171.799 957.557 172.089 956.753 173.497C936.634 178.216 917.816 187.045 903.257 202.024C879.824 195.441 840.584 188.125 816.051 189.916C779.92 192.553 741.027 214.545 708.107 228.575C690.485 237.346 678.24 244.535 657.995 245.386C627.831 246.653 600.1 239.964 572.11 229.459C546.589 219.881 527.607 212.119 499.875 213.14C492.106 213.425 466.545 208.41 458.733 205.445L456.969 203.672C453.539 203.252 451.848 203.199 448.885 201.398L450.405 200.96C455.186 202.602 458.941 200.42 464.049 201.07C473.209 202.235 483.53 205.281 492.662 205.707C507.096 206.806 524.411 204.858 538.65 207.971C575.775 216.085 607.313 234.014 646.594 233.748C674.58 233.559 689.908 223.822 714.375 212.34C738.184 201.163 762.577 188.137 788.602 183.368C817.402 178.108 846.712 179.126 875.734 181.616C887.605 182.634 907.133 190.315 916.524 181.726C930.241 174.256 938.805 171.199 953.608 166.862Z" fill="#F5CBA1"/>
<path d="M546.986 88.979L547.994 89.717C539.585 102.748 528.094 115.8 515.929 126.094C503.986 136.2 482.011 143.961 473.723 158.205C471.406 162.189 469.207 163.443 467.804 167.723C471.853 169.16 478.674 164.646 482.799 164.494C511.749 163.422 526.882 169.896 551.814 182.457C541.624 175.585 539.503 173.651 533.93 163.962C532.142 160.853 485.583 156.442 482.214 155.132C483.582 151.701 506.491 144.529 511.286 140.993C526.729 129.604 567.989 101.209 588.134 112.8C614.087 128.405 629.733 140.743 661.094 128.78C669.232 125.676 693.66 114.63 698.731 118C713.711 127.963 723.508 138.831 744.859 136.035C754.98 134.71 772.943 125.04 780.399 116.971C778.576 116.075 773.054 117.051 771.267 117.781C753.821 125.295 741.669 137.213 721.942 127.033C705.279 118.432 702.031 104.228 680.684 111.876C671.957 115.003 667.173 119.613 660.221 125.279C659.236 126.082 657.298 125.616 656.071 125.07C658.109 114.822 687.365 100.329 698.384 103.856C711.451 108.038 718.332 121.258 732.212 124.338C747.014 127.875 760.473 113.531 775.519 110.354C782.415 108.897 792.677 115.72 795.077 115.525C809.79 114.327 825.11 107.962 839.432 104.195L839.314 105.034L839.492 104.857C841.33 104.003 805.545 115.591 809.296 115.308C799.004 121.834 794.899 121.231 784.143 116.291C775.785 121.303 769.096 127.391 760.281 131.82C744.526 139.731 727.982 139.993 713.445 129.382C707.103 124.757 701.603 120.893 694.523 117.483C665.844 124.929 641.462 146.051 608.691 126.297C596.018 118.034 582.698 107.334 566.488 112.406C558.145 115.017 538.564 122.258 532.169 127.959C515.338 142.963 500.231 145.843 481.429 155.54C495.579 153.717 509.148 157.965 523.103 160.396C525.157 160.754 533.316 162.859 534.626 162.879L535.286 163.645C543.709 173.584 542.155 175.001 555.095 181.939C555.763 181.158 561.837 173.858 561.967 173.749C565.539 176.475 571.207 178.414 575.332 180.398C610.998 197.554 651.523 187.179 688.56 180.606C701.248 178.355 725.589 169.298 738.502 171.715C705.073 184.475 678.89 196.378 642.544 196.847C620.993 197.126 600.862 194.736 579.564 192.023C578.218 191.851 576.508 192.094 575.351 192.917C569.406 193.621 538.844 176.451 530.759 173.597C520.282 169.9 511.783 166.961 500.211 165.723C485.569 164.155 478.023 167.898 464.927 169.8C476.546 143.421 493.546 140.654 514.338 125.486C524.062 118.393 537.22 101.98 544.336 92.0732L546.986 88.979Z" fill="#C1835F"/>
<path d="M1135.86 68.4211L1136.68 69.3633C1125.6 80.2196 1111.52 90.4166 1097.38 97.7754C1083.51 104.999 1060.36 107.724 1049.14 119.79C1046 123.166 1043.58 123.903 1041.26 127.768C1044.9 130.063 1052.54 127.164 1056.6 127.925C1085.08 133.263 1098.41 142.914 1119.96 160.663C1111.53 151.713 1109.89 149.359 1106.59 138.68C1105.53 135.253 1061.09 120.686 1058.1 118.665C1060.19 115.62 1084.11 113.676 1089.57 111.284C1107.14 103.58 1153.65 84.9815 1170.74 100.728C1192.62 121.672 1205.16 137.155 1238.38 132.402C1247.01 131.168 1273.27 125.78 1277.47 130.185C1289.89 143.206 1297.04 155.967 1318.49 157.947C1328.65 158.886 1348.3 153.415 1357.36 147.188C1355.78 145.912 1350.17 145.646 1348.27 145.965C1329.6 149.447 1315.12 158.393 1298.12 144.114C1283.76 132.051 1283.73 117.48 1261.22 120.233C1252.02 121.359 1246.33 124.801 1238.3 128.795C1237.17 129.361 1235.38 128.479 1234.3 127.675C1238.55 118.129 1270.28 110.443 1280.25 116.313C1292.07 123.273 1295.87 137.685 1308.73 143.75C1322.39 150.464 1338.68 139.44 1354.06 139.658C1361.1 139.758 1369.61 148.676 1371.99 149.015C1386.61 151.09 1402.95 148.259 1417.75 147.742L1417.45 148.535L1417.67 148.402C1419.65 147.974 1382.19 151.387 1385.91 151.938C1374.43 156.033 1370.56 154.541 1361.16 147.35C1351.9 150.397 1344.03 154.86 1334.46 157.236C1317.35 161.479 1301.15 158.086 1289.31 144.531C1284.15 138.622 1279.63 133.641 1273.48 128.753C1243.87 129.693 1215.43 144.919 1187.82 118.426C1177.28 107.572 1166.65 94.1986 1149.72 95.5716C1141 96.2786 1120.31 99.024 1112.81 103.175C1093.09 114.099 1077.72 113.577 1057.24 118.89C1071.44 120.231 1083.74 127.367 1096.82 132.814C1098.74 133.616 1106.24 137.469 1107.51 137.777L1107.98 138.67C1114.01 150.222 1112.18 151.261 1123.27 160.881C1124.1 160.267 1131.63 154.486 1131.78 154.408C1134.66 157.855 1139.76 160.995 1143.35 163.84C1174.36 188.438 1223.64 201.245 1261.22 203C1274.09 203.601 1292.26 200 1307.26 193.5C1272.26 216.5 1248.31 216.251 1212.75 208.696C1191.67 204.215 1165.09 183.454 1144.92 176.112C1143.64 175.648 1141.92 175.508 1140.61 176.055C1134.66 175.431 1108.63 151.946 1101.37 147.379C1091.97 141.463 1084.33 136.723 1073.31 132.963C1059.38 128.206 1051.19 130.193 1038 129.16C1055.15 105.992 1072.34 107.041 1095.97 96.8314C1107.01 92.0567 1123.47 78.9493 1132.59 70.8548L1135.86 68.4211Z" fill="#C1835F"/>
<path d="M656.592 126.903C661.068 116.516 672.376 111.37 681.888 107.2C703.101 97.8985 709.48 116.312 725.847 123.598C742.245 130.894 754.404 121.318 768.277 113.959C776.833 109.684 785.611 113.435 793.622 116.922C798.768 116.23 804.12 115.365 809.295 115.308C799.004 121.834 794.899 121.231 784.142 116.291C765.752 110.585 756.398 130.141 736.183 129.259C714.242 128.301 709.074 109.268 692.811 108.099C679.55 107.145 665.685 118.179 656.592 126.903Z" fill="#592D1A"/>
<path d="M738.502 171.716C740.119 171.475 742.23 170.855 743.456 171.453C691.669 194.388 657.383 204.861 599.844 196.629C594.126 195.811 580.49 194.139 575.351 192.918C576.508 192.095 578.218 191.852 579.564 192.024C600.862 194.737 620.993 197.127 642.544 196.849C678.89 196.379 705.073 184.476 738.502 171.716Z" fill="#4B1E11"/>
<path d="M916.524 181.725C921.692 172.142 958.665 162.466 969.813 163.996C967.694 164.849 957.041 166.212 953.608 166.861C938.805 171.198 930.241 174.255 916.524 181.725Z" fill="#4B1E11"/>
<path d="M547.303 86.112L549.612 84.7061C548.63 87.2321 547.582 87.7116 546.986 88.9795L544.335 92.0738L543.578 90.5976L547.303 86.112Z" fill="#743B23"/>
<path d="M886.63 133.6C886.365 132.242 886.409 132.597 885.708 131.339L884.822 133.457C884.475 132.575 884.814 131.558 884.962 130.452C886.608 130.751 889.081 134.546 891.149 136.46L892.072 136.014C892.389 130.609 889.037 129 889.244 126.254C890.292 112.421 905.626 100.472 918.103 98.5892C919.152 97.7976 919.218 97.6276 919.831 96.4999L920.37 95.4776C924.541 95.0639 941.839 97.6628 946.498 99.2853C948.712 100.056 952.072 105.26 955.571 105.236C957.387 103.165 956.974 102.103 957.38 98.9821L958.495 98.294C965.833 100.204 965.457 110.435 964.098 116.438C963.235 120.225 962.991 120.254 959.949 122.034L958.842 122.86L959.159 124.648C957.144 126.666 955.519 126.019 953.238 127.282C944.371 130.715 915.401 146.967 909.879 147.413L910.898 145.901L910.47 144.987C900.805 148.309 888.971 144.546 886.63 133.6Z" fill="#E5AF79"/>
<path d="M954.42 124.977C963.862 114.361 958.724 109.543 958.901 100.4L959.75 100.313C965.848 105.154 964.372 116.833 959.95 122.036L958.842 122.862L959.16 124.65C957.144 126.668 955.52 126.021 953.239 127.284L954.42 124.977Z" fill="#743B23"/>
<path d="M954.42 124.976C955.985 124.707 957.366 123.696 958.842 122.861L959.16 124.65C957.144 126.668 955.52 126.021 953.239 127.284L954.42 124.976Z" fill="#D0956B"/>
<path d="M886.631 133.6C896.826 146.422 898.008 141.724 910.47 144.988C900.806 148.31 888.971 144.546 886.631 133.6Z" fill="#743B23"/>
<path d="M929.207 98.1444C935.113 97.464 944.187 98.7703 949.185 102.035C951.651 103.642 953.401 105.989 953.932 108.91C954.744 113.32 953.083 117.565 950.455 121.039C943.065 130.796 928.144 136.17 916.442 137.483C909.561 137.862 900.672 138.234 894.81 133.965C892.514 132.296 891.075 129.895 890.853 127.052C890.447 122.012 893.393 116.676 896.516 112.895C904.637 103.075 916.996 99.4136 929.207 98.1444Z" fill="#592D1A"/>
<path d="M906.468 112.446C915.734 109.954 929.872 109.479 939.182 111.978L945.206 117.839L946.247 117.576L947.893 118.188C920.983 147.626 869.082 129.524 906.468 112.446Z" fill="#77503D"/>
<path d="M905.22 110.566C916.309 98.8008 942.843 95.4699 951.791 112.345C950.861 113.746 948.831 117.017 947.893 118.187L946.247 117.576C940.045 105.832 915.822 107.44 905.22 110.566Z" fill="#B27555"/>
<path d="M1178.63 97.4893L1179.42 97.5008C1187.4 97.6553 1188.75 99.3795 1193.97 104.792C1210.68 122.105 1230.31 104.209 1248.59 102.446C1258.96 101.446 1269.32 104.374 1279.65 104.801C1284.06 104.983 1288 103.537 1292.21 103.617C1291.76 104.098 1291.61 104.3 1291.13 104.687C1285.3 109.412 1275.28 107.869 1268.5 107.072C1241.41 100.174 1237.82 112.898 1214.96 114.176C1190.19 115.561 1192.92 102.769 1181.09 100.446C1171.85 98.6331 1162.49 105.371 1156.09 104.533C1163.07 99.9664 1170.38 98.0403 1178.63 97.4893Z" fill="#4B1E11"/>
<path d="M898.872 161.354C916.184 161.649 940.208 145.527 956.266 137.899C963.198 134.637 970.433 132.038 977.86 130.137C987.222 127.752 994.479 127.9 1004.02 127.767L993.106 130.252C983.811 133.168 974.597 136.356 965.494 139.813C959.721 142.015 949.163 146.989 943.545 147.709C926.727 155.658 915.771 162.888 896.871 163.067L898.872 161.354Z" fill="#3C100A"/>
<path d="M943.545 147.709C956.132 138.779 977.705 130.622 993.106 130.252C983.811 133.168 974.597 136.356 965.494 139.813C959.72 142.015 949.163 146.989 943.545 147.709Z" fill="#C1835F"/>
<path d="M1395.39 152.166L1396.54 153.135C1397.87 158.229 1399.74 164.308 1402.65 168.718C1413.91 185.816 1440.21 189.35 1448.49 216.88C1442.2 214.142 1436.71 201.96 1431.59 196.832C1421.31 186.55 1407.1 181.139 1398.96 168.336C1396.03 163.725 1394.21 157.59 1395.39 152.166Z" fill="#592D1A"/>
<path d="M1146.08 151.607L1147.56 151.9C1151.18 155.722 1155.75 160.143 1160.43 162.603C1178.54 172.152 1203.28 162.566 1223.8 182.692C1216.98 183.323 1206.29 175.3 1199.33 173.279C1185.37 169.227 1170.31 171.341 1157.01 164.049C1152.22 161.423 1147.66 156.928 1146.08 151.607Z" fill="#592D1A"/>
<path d="M1425.38 83.1194L1426.17 84.1782C1426.06 84.3637 1425.96 84.5595 1425.83 84.7346C1415.19 99.5084 1371.14 109.645 1352.97 114.034L1352.36 113.678C1355.22 111.328 1376.16 105.871 1381.58 104.064C1397.6 98.7266 1410.92 91.601 1425.38 83.1194Z" fill="#4B1E11"/>
<path d="M1071.65 126.199C1082.59 124.867 1098.76 125.07 1109.53 127.138C1107.52 128.384 1071.24 128.09 1065.01 129.045C1055.17 131.396 1045.47 134.33 1035.64 136.733L1034.66 136.314C1033.73 136.717 1034.09 136.472 1033.51 136.958L1034.77 136.67L1035.05 135.914C1046.82 131.204 1059.11 127.942 1071.65 126.199Z" fill="#592D1A"/>
<path d="M926.424 87.7988C930.307 87.8509 934.228 88.5784 938.074 89.124C923.574 91.5248 915.276 91.3632 901.891 98.6592L900.06 99.795L898.731 99.2303L899.292 100.24C898.665 100.551 898.089 100.568 897.395 100.657C897.683 99.9691 897.72 99.7635 898.266 99.1149C904.32 91.9634 917.543 88.4759 926.424 87.7988Z" fill="#4B1E11"/>
<path d="M785.759 163.278C791.762 162.522 800.222 162.321 805.907 164.369C803.833 165.369 800.894 164.937 798.62 164.889C792.485 164.31 786.313 165.152 780.171 164.509C781.219 163.462 784.209 163.476 785.759 163.278Z" fill="#77503D"/>
<path d="M875.807 160.27C883.884 160.93 890.765 161.195 898.871 161.354L896.871 163.067C890.13 163.337 882.075 162.725 875.807 160.27Z" fill="#743B23"/>
<path d="M11.7615 102H557.562C550.605 106.672 547.792 102.831 541.588 112.263L539.26 111.997L538.332 112.906L538.711 114.592L534.986 119.078C530.853 123.491 519.056 137.274 515.091 140.214L513.996 139.624L513.075 139.955C482.852 150.589 454.953 163.956 441.13 194.497C437.067 203.472 418.436 213.77 414.493 219.105C405.408 231.397 369.333 236.824 365.068 240.491L364.83 242.045C332.562 235.489 323.504 212.974 296.317 202.143C288.072 198.859 274.318 195.763 265.582 192.663C237.021 182.526 208.014 173.585 177.242 176.3C154.182 178.334 134.651 183.547 110.886 179.703C100.997 178.103 86.8158 176.888 77.735 171.669C59.6323 161.265 45.5909 140.65 31.8257 125.082C25.252 117.648 17.6466 109.49 11.7615 102Z" fill="#C68863"/>
<path d="M210.585 98.727C218.043 91.7351 228.631 108.944 234.91 111.602C248.349 117.292 262.406 110.913 276.115 113.252C282.85 114.6 298.186 123.163 305.014 126.661C302.13 126.367 297.484 125.672 294.779 126.096L295.111 126.792C294.734 127.132 294.534 127.37 293.998 127.541C282.244 131.295 275.041 121.278 269.173 120.815C257.697 119.706 235.518 131.579 224.478 124.202C206.482 112.178 221.713 90.8609 185.53 105.477L185.153 103.885C195.596 99.2922 199.05 98.2066 210.585 98.727Z" fill="#D0956B"/>
<path d="M185.153 103.886C195.596 99.2927 199.05 98.2071 210.585 98.7275C221.181 103.57 215.042 115.693 226.975 121.135C242.129 128.046 253.45 116.279 268.085 116.61C278.625 118.01 278.71 125.62 294.778 126.096L295.111 126.792C294.734 127.132 294.534 127.371 293.998 127.542C282.244 131.296 275.041 121.279 269.173 120.816C257.697 119.706 235.518 131.579 224.478 124.203C206.482 112.179 221.713 90.8614 185.53 105.478L185.153 103.886Z" fill="#592D1A"/>
<path d="M481.098 99.304L482.088 99.5911C479.833 102.422 475.395 104.377 472.507 106.697C462.312 114.886 457.502 124.831 452.26 136.478L451.821 136.588L451.278 135.885C451.828 132.207 452.56 128.613 453.821 125.103C458.166 113.015 469.925 104.476 481.098 99.304Z" fill="#592D1A"/>
<path d="M185.153 103.885L185.53 105.477C183.595 106.355 181.081 107.857 179.128 107.531C180.609 105.595 182.846 104.927 185.153 103.885Z" fill="#4B1E11"/>
<path d="M0.797341 130.062L0.00376122 129.476C-0.35054 117.997 24.4226 106.98 33.4739 114.388C34.3643 115.117 36.1996 115.615 37.406 115.833C40.2764 118.571 41.2975 119.849 43.2517 123.36C42.0926 127.492 42.1517 129.939 39.4606 132.631C38.3296 130.841 37.2162 128.969 35.8349 127.361C32.5031 123.543 27.7844 121.215 22.7275 120.893C14.2315 120.377 7.02349 124.835 0.797341 130.062Z" fill="#E5AF79"/>
<path d="M37.4058 115.834C49.1511 117.849 50.3737 136.902 50.3862 146.154C48.3272 139.696 46.2681 128.357 43.2515 123.361C41.2972 119.85 40.2762 118.572 37.4058 115.834Z" fill="#592D1A"/>
<path d="M1345.36 152.347C1360.98 157.948 1366.7 162.962 1373.66 178.802C1385.27 205.214 1395.97 246.426 1424.84 259.523C1440.26 266.515 1452.24 269.224 1467.76 278.649V300.265V305.596V395.398V405.094V418.428C1445.31 385.053 1453.45 346.06 1443.08 310.777C1433.56 278.377 1397.41 254.864 1378.5 228.159C1367.1 212.052 1364.25 185.207 1346.93 175.231C1344.65 174.083 1341.31 173.158 1338.78 174.088C1331.23 168.994 1323.9 157.886 1315.26 154.5C1322.56 151.207 1337.76 154.729 1345.36 152.347Z" fill="#B27555"/>
<path d="M1450.48 295.173C1457.4 298.329 1461.55 301.343 1467.76 305.595V395.396C1458.25 377.345 1459.18 344.419 1457.4 324.433C1456.5 314.407 1453.65 304.675 1450.48 295.173Z" fill="#CE936C"/>
<path d="M1441.08 283.678L1442.13 281.259C1451.33 292.995 1455.5 292.271 1467.76 300.264V305.595C1461.55 301.343 1457.4 298.329 1450.48 295.174C1453.65 304.675 1456.5 314.407 1457.4 324.433C1459.18 344.42 1458.25 377.346 1467.76 395.396V405.093C1445.84 371.884 1462.61 321.5 1441.08 283.678Z" fill="#592D1A"/>
<path d="M1441.08 283.679C1438.78 280.327 1437.15 279.697 1434.35 275.294L1435.04 276.292L1436.58 275.723C1438.61 277.59 1440.39 279.1 1442.13 281.259L1441.08 283.679Z" fill="#743B23"/>
<path d="M1338.78 174.088C1341.31 173.157 1344.65 174.082 1346.93 175.23C1364.25 185.206 1367.1 212.051 1378.5 228.158C1397.41 254.864 1433.56 278.376 1443.08 310.776C1453.45 346.059 1445.31 385.052 1467.76 418.428V435.783C1464.95 432.855 1463.66 431.06 1461.29 427.789C1448.4 409.567 1439.21 384.938 1437.11 362.726C1435.31 343.841 1436.43 325.308 1428.15 307.872C1416.22 282.762 1390.2 272.389 1374.24 250.279C1365.16 237.702 1361.46 227.094 1356.55 212.805C1355.79 211.346 1353.93 204.966 1353.36 203.123C1349.36 190.073 1347.81 184.272 1338.78 174.088Z" fill="#C1835F"/>
<path d="M1356.55 212.804L1358.1 212.285C1360.78 215.09 1363.66 224.252 1365.89 228.39C1369.52 235.098 1372.88 239.56 1377.81 245.293C1383.49 251.949 1389.61 258.213 1396.14 264.045C1405.69 272.664 1412.15 277.696 1420.12 287.568C1436.32 307.033 1438.47 328.03 1441.15 352.154C1443.18 370.493 1448.16 391.179 1454.62 408.525C1456.53 413.678 1462.31 423.231 1465.05 429.354L1464.49 429.831L1461.29 427.789C1448.4 409.566 1439.21 384.937 1437.11 362.725C1435.31 343.84 1436.43 325.307 1428.15 307.871C1416.22 282.762 1390.2 272.389 1374.24 250.278C1365.16 237.701 1361.46 227.094 1356.55 212.804Z" fill="#E5AF79"/>
<path d="M1375.8 172.742C1383.12 173.228 1413.45 199.142 1418.81 205.89C1426.76 215.914 1436.84 228.23 1442.53 239.869C1446.18 247.341 1442.34 257.756 1448.84 264.317C1442.98 262.029 1436.33 259.682 1430.63 257.39C1399.21 244.731 1388.1 202.611 1375.8 172.742Z" fill="#E5AF79"/>
<path d="M364.829 242.044L365.068 240.49C369.333 236.823 405.407 231.396 414.493 219.104C418.435 213.769 437.067 203.471 441.129 194.496C454.953 163.956 482.851 150.588 513.075 139.954L513.996 139.623L515.09 140.214C501.375 155.45 485.319 160.441 469.704 172.773C460.014 180.426 455.884 193.305 448.39 201.882C428.885 224.205 395.753 249.906 364.829 242.044Z" fill="#F5CBA1"/>
<path d="M100.65 130.996L101.863 130.697C99.0441 115.446 93.382 99.0044 86.0477 84.8559C78.8474 70.9674 61.4767 55.4294 59.2316 39.1034C58.6041 34.5371 57.0477 32.5414 57.3778 28.0497C61.6689 28.2607 66.2599 35.0298 70.0171 36.7406C96.3824 48.7444 112.841 48.5147 140.676 46.3828C128.638 48.8619 125.942 49.844 117.102 56.6838C114.265 58.8792 69.529 45.2455 65.9143 45.1755C65.8744 48.8686 84.3329 64.2171 87.4222 69.3116C97.3712 85.7186 124.727 127.675 147.766 124.62C177.704 120.061 196.867 114.603 221.32 137.597C227.665 143.564 246.054 163.072 252.026 161.885C269.669 158.369 282.864 152.046 301.546 162.754C310.403 167.831 323.336 183.607 327.162 193.906C325.135 194.04 320.399 191.037 319.024 189.682C305.749 176.096 299.045 160.452 276.929 162.361C258.246 163.977 249.838 175.877 233.006 160.683C226.125 154.471 223.454 148.387 219.181 140.503C218.575 139.385 216.605 139.079 215.263 139.118C213.249 149.37 234.792 173.903 246.324 174.834C260 175.937 271.392 166.329 285.4 168.76C300.436 171.12 307.426 189.506 320.132 198.168C325.955 202.139 338.041 199.733 340.186 200.826C353.338 207.531 365.083 219.247 376.896 228.179L377.106 227.358L377.203 227.589C378.578 229.078 349.892 204.748 353.253 206.437C346.218 196.486 342.193 195.482 330.365 195.959C324.543 188.143 320.673 179.968 314.206 172.519C302.645 159.209 287.444 152.673 269.963 156.956C262.339 158.821 255.782 160.301 247.937 160.762C224.248 142.966 209.734 114.156 171.912 119.958C157.049 122.778 140.66 127.607 127.598 116.749C120.876 111.161 105.522 97.0154 101.776 89.3095C91.9188 69.0308 79.0437 60.6201 65.3438 44.4994C77.7361 51.5688 91.901 52.8016 105.732 55.8633C107.768 56.3135 116.114 57.4702 117.333 57.9503L118.235 57.4927C129.805 51.5052 128.908 49.6041 143.513 48.1103C143.835 49.087 146.675 58.1485 146.754 58.299C151.094 57.1365 157.073 57.4998 161.643 57.2341C201.154 54.9364 234.685 79.9483 266.437 100.117C277.314 107.026 296.38 124.662 309.241 127.339C283.179 102.821 263.494 81.8522 230.059 67.5908C210.234 59.1348 190.708 53.6865 169.979 48.0932C168.669 47.7402 167.18 46.8651 166.424 45.6638C161.193 42.7513 126.397 47.0029 117.834 46.5663C106.739 46 97.7609 45.4846 86.5879 42.228C72.4503 38.107 66.8956 31.7749 55.508 25.0343C56.2174 53.85 70.8869 62.8763 84.3456 84.8135C90.6399 95.0727 96.5644 115.257 99.376 127.126L100.65 130.996Z" fill="#C1835F"/>
<path d="M194.315 161.49C192.792 160.895 190.652 160.381 189.887 159.252C246.218 165.142 281.168 173.128 326.972 208.912C331.524 212.468 342.517 220.706 346.366 224.323C344.953 224.461 343.349 223.821 342.267 223.001C325.147 210.046 308.878 197.952 290.048 187.464C258.292 169.777 229.659 167.066 194.315 161.49Z" fill="#4B1E11"/>
</svg>
