<svg width="263" height="181" viewBox="0 0 263 181" fill="none" xmlns="http://www.w3.org/2000/svg">
<path d="M127.851 0.0183677C138.839 -0.341287 141.518 4.60265 146.843 12.9284C162.388 17.5448 184.322 17.4804 192.771 34.2124C193.716 36.0858 194.741 40.3426 195.342 42.4898C199.427 46.3333 205.89 50.3217 210.679 53.4297C236.901 70.2476 271.278 99.24 260.005 134.588C254.224 152.71 239.891 158.701 222.15 157.681C216.53 161.573 209.433 166.549 203.206 169.201C181.702 178.353 155.893 180.103 132.881 180.248C102.911 180.119 66.9779 176.324 43.6863 156.017C39.7677 157.976 34.3782 158.363 30.0355 157.874C12.8902 155.926 1.17194 141.303 0.0929755 124.48C-1.77508 94.2263 24.8661 71.493 47.6049 56.1781C53.8961 51.9428 61.5616 47.1975 67.3322 42.5918L67.9012 42.1355C68.6635 37.1433 69.2593 33.6004 72.5445 29.5046C81.2406 18.6774 103.845 14.8393 116.616 13.551C117.968 6.0949 120.228 2.03136 127.851 0.0183677Z" fill="#653532"/>
<path d="M73.0338 49.3066C83.1524 58.2175 107.561 61.5994 120.551 62.1093C143.955 63.0272 169.394 61.8355 189.954 49.6234C212.091 64.4444 246.103 84.5474 252.55 112.139C254.418 120.11 253.774 131.721 248.964 138.496C243.097 146.768 236.655 148.491 227.546 150.364L227.932 149.811L228.533 148.909C242.232 128.898 230.713 97.0495 216.81 80.6235C214.888 78.3528 213.138 76.2593 210.067 75.9479C208.022 76.4793 208.108 76.4042 206.696 77.9555C205.333 82.5076 210.685 87.0972 213.471 90.726C217.137 95.5947 220.068 100.973 222.178 106.696C232.57 135.151 220.573 154.315 193.185 164.181C185.047 166.64 168.664 170.075 159.914 170.671C125.801 172.631 80.5436 173.908 52.3671 151.948C32.6773 136.601 36.7891 108.961 49.6293 90.9568C50.9552 88.0259 63.3391 79.1419 55.4643 76.6028C46.3763 73.6719 35.6404 98.1606 33.6328 104.108C27.7066 121.672 29.6444 133.804 37.7876 149.709C35.1036 149.731 32.4196 149.661 29.7947 149.28C13.9484 146.961 5.28986 128.511 8.98303 113.679C16.2513 84.4669 49.3825 64.804 73.0338 49.3066Z" fill="#FEF7AC"/>
<path d="M129.714 107.99C133.3 107.824 138.308 106.734 140.407 109.928C140.284 113.852 136.612 117.164 133.971 120.261C135.565 126.66 139.962 131.19 146.908 132.495C148.433 132.779 149.844 131.926 150.982 130.933C155.218 127.25 149.533 123.831 149.517 120.476L150.531 119.639C154.837 119.311 156.694 123.004 156.823 126.751C157.247 138.995 145.475 138.013 137.535 133.601C135.447 132.436 133.971 130.605 132.404 128.872L131.781 128.796C130.664 129.709 130.01 130.589 128.877 131.77C123.938 137.127 114.083 140.584 108.248 134.739C106.02 132.516 106.707 119.526 112.247 120.771C112.714 121.227 113.186 121.678 113.653 122.135C113.143 125.93 109.536 130.933 113.847 133.789C122.838 134.395 126.73 127.658 129.655 120.605C126.585 117.991 119.8 113.31 122.886 109.176C124.932 107.995 127.272 108.14 129.714 107.99Z" fill="#482A1B"/>
<path d="M177.409 98.1928C184.645 97.613 188.735 100.764 190.657 107.699C191.371 110.287 192.063 112.885 190.265 115.193L189.293 115.161C186.663 112.815 186.851 108.8 183.421 104.13C181.531 102.788 181.349 102.562 179.169 101.972C176.206 103.512 172.207 112.268 168.712 111.865C167.328 105.676 172.395 100.726 177.409 98.1928Z" fill="#503314"/>
<path d="M80.6352 98.1504C91.237 97.7746 96.2615 109.616 91.951 111.64C88.0592 109.697 88.9878 104.377 81.4458 101.548C75.8578 105.923 76.3892 113.095 72.4598 114.872C69.8295 113.438 71.0695 108.693 71.8694 106.304C73.3724 101.822 76.4858 99.9808 80.6352 98.1504Z" fill="#4F2E1F"/>
</svg>
