<svg width="393" height="852" viewBox="0 0 393 852" fill="none" xmlns="http://www.w3.org/2000/svg">
<g clip-path="url(#clip0_1130_241)">
<rect width="393" height="852" fill="#0A0E1A"/>
<rect width="393" height="852" fill="#FAFAFA"/>
<path d="M-54.2438 513.561C-54.2438 513.561 -0.486735 514.032 38.6373 552.811C78.4039 592.227 103.619 669.907 61.5706 693.662C38.9512 706.441 15.4391 703.984 -2.60846 679.727C-20.5954 655.552 -18.2351 629.499 -1.57268 609.516C34.1012 566.735 116.087 606.53 154.89 658.07C193.772 709.713 210.096 801.141 158.86 823.312C134.897 833.682 108.964 829.669 91.4289 805.043C74.2411 780.905 75.729 754.153 92.4647 734.832C128.17 693.612 212.468 726.392 246.218 779.774C268.254 814.63 271.635 846.85 256.759 880.248" stroke="#F1F1F1" stroke-width="28.6363" stroke-linecap="round"/>
</g>
<defs>
<clipPath id="clip0_1130_241">
<rect width="393" height="852" fill="white"/>
</clipPath>
</defs>
</svg>
