<svg width="139" height="127" viewBox="0 0 139 127" fill="none" xmlns="http://www.w3.org/2000/svg">
<mask id="path-1-inside-1_138_1715" fill="white">
<path fill-rule="evenodd" clip-rule="evenodd" d="M125.81 49.4143C127.595 49.3935 129.498 50.0969 131.486 51.7043C135.487 54.9392 137.35 60.3646 138.106 65.6711C138.864 71.0032 138.529 76.382 137.983 79.7229C137.15 85.8469 133.685 92.1189 129.764 97.4318C126.083 102.419 121.945 106.634 119.037 109.185C119.584 109.9 120.054 110.786 120.458 111.744C120.994 113.015 121.44 114.47 121.807 115.941C122.539 118.882 122.967 121.954 123.137 123.893L123.143 123.959H123.206L123.25 126.771C123.511 143.252 110.224 156.753 93.7403 156.753H50.1241C33.6258 156.753 20.3314 143.228 20.6143 126.733L20.6553 124.266L20.6426 123.997C20.4759 120.66 21.2045 117.085 22.1612 113.997C22.7024 112.251 23.3244 110.644 23.9102 109.303C15.8593 113.968 7.21844 111.969 3.60748 110.196L3.56158 110.173L3.52056 110.145C1.31286 108.673 -1.1761 105.875 -0.990181 102.312C-0.802419 98.7169 2.08012 94.7693 9.62115 90.9582C24.2549 83.5626 33.3537 77.1206 36.2149 74.7238C37.6711 70.7339 41.3486 68.3165 46.1065 66.9738C50.9538 65.606 57.0743 65.3027 63.5704 65.6457C75.7609 66.2895 89.4742 69.2192 99.0518 71.9065L100.91 72.4406L101.178 72.5188L101.332 72.7512L104.973 78.2111C108 76.5946 110.448 73.3838 112.299 69.8361C114.255 66.0857 115.479 62.089 116.002 59.5715L116.01 59.5324L116.023 59.4943C116.846 56.9215 118.581 53.3784 121.162 51.2522C122.468 50.1768 124.026 49.4351 125.81 49.4143Z"/>
</mask>
<path fill-rule="evenodd" clip-rule="evenodd" d="M125.81 49.4143C127.595 49.3935 129.498 50.0969 131.486 51.7043C135.487 54.9392 137.35 60.3646 138.106 65.6711C138.864 71.0032 138.529 76.382 137.983 79.7229C137.15 85.8469 133.685 92.1189 129.764 97.4318C126.083 102.419 121.945 106.634 119.037 109.185C119.584 109.9 120.054 110.786 120.458 111.744C120.994 113.015 121.44 114.47 121.807 115.941C122.539 118.882 122.967 121.954 123.137 123.893L123.143 123.959H123.206L123.25 126.771C123.511 143.252 110.224 156.753 93.7403 156.753H50.1241C33.6258 156.753 20.3314 143.228 20.6143 126.733L20.6553 124.266L20.6426 123.997C20.4759 120.66 21.2045 117.085 22.1612 113.997C22.7024 112.251 23.3244 110.644 23.9102 109.303C15.8593 113.968 7.21844 111.969 3.60748 110.196L3.56158 110.173L3.52056 110.145C1.31286 108.673 -1.1761 105.875 -0.990181 102.312C-0.802419 98.7169 2.08012 94.7693 9.62115 90.9582C24.2549 83.5626 33.3537 77.1206 36.2149 74.7238C37.6711 70.7339 41.3486 68.3165 46.1065 66.9738C50.9538 65.606 57.0743 65.3027 63.5704 65.6457C75.7609 66.2895 89.4742 69.2192 99.0518 71.9065L100.91 72.4406L101.178 72.5188L101.332 72.7512L104.973 78.2111C108 76.5946 110.448 73.3838 112.299 69.8361C114.255 66.0857 115.479 62.089 116.002 59.5715L116.01 59.5324L116.023 59.4943C116.846 56.9215 118.581 53.3784 121.162 51.2522C122.468 50.1768 124.026 49.4351 125.81 49.4143Z" fill="#B8E7EE"/>
<path d="M125.81 49.4143L125.787 47.4468L125.787 47.4468L125.81 49.4143ZM131.486 51.7043L132.723 50.1743L132.723 50.1742L131.486 51.7043ZM138.106 65.6711L140.054 65.3939L140.053 65.3939L138.106 65.6711ZM137.983 79.7229L136.042 79.4058L136.037 79.4316L136.034 79.4575L137.983 79.7229ZM129.764 97.4318L131.347 98.6003L131.347 98.6003L129.764 97.4318ZM119.037 109.185L117.739 107.706L116.357 108.919L117.474 110.38L119.037 109.185ZM120.458 111.744L122.271 110.98L122.271 110.979L120.458 111.744ZM121.807 115.941L123.716 115.465V115.465L121.807 115.941ZM123.137 123.893L121.177 124.065L121.177 124.066L123.137 123.893ZM123.143 123.959L121.183 124.132L121.341 125.927H123.143V123.959ZM123.206 123.959L125.173 123.928L125.143 121.992H123.206V123.959ZM123.25 126.771L121.283 126.801L121.283 126.802L123.25 126.771ZM93.7403 156.753V158.721H93.7403L93.7403 156.753ZM20.6143 126.733L22.5816 126.766L22.5817 126.765L20.6143 126.733ZM20.6553 124.266L22.6227 124.299L22.6237 124.236L22.6207 124.173L20.6553 124.266ZM20.6426 123.997L22.6081 123.904L22.6078 123.899L20.6426 123.997ZM22.1612 113.997L20.2818 113.415L20.2817 113.415L22.1612 113.997ZM23.9102 109.303L25.7134 110.09L28.1138 104.593L22.9238 107.6L23.9102 109.303ZM3.60748 110.196L4.47497 108.429L4.47234 108.428L3.60748 110.196ZM3.56158 110.173L2.4436 111.792L2.56461 111.876L2.69671 111.94L3.56158 110.173ZM3.52056 110.145L4.63854 108.526L4.62534 108.516L4.612 108.508L3.52056 110.145ZM-0.990181 102.312L-2.95511 102.209L-2.95512 102.209L-0.990181 102.312ZM9.62115 90.9582L10.5086 92.7143V92.7143L9.62115 90.9582ZM36.2149 74.7238L37.4784 76.2322L37.8825 75.8936L38.0633 75.3984L36.2149 74.7238ZM46.1065 66.9738L45.5721 65.0802L45.5721 65.0802L46.1065 66.9738ZM63.5704 65.6457L63.6741 63.6808H63.6741L63.5704 65.6457ZM99.0518 71.9065L99.5954 70.0154L99.5834 70.012L99.0518 71.9065ZM100.91 72.4406L101.462 70.5519L101.454 70.5496L100.91 72.4406ZM101.178 72.5188L102.817 71.4305L102.419 70.8315L101.729 70.63L101.178 72.5188ZM101.332 72.7512L99.6928 73.8394L99.695 73.8427L101.332 72.7512ZM104.973 78.2111L103.336 79.3027L104.326 80.7872L105.899 79.9468L104.973 78.2111ZM112.299 69.8361L114.043 70.7462L114.043 70.7462L112.299 69.8361ZM116.002 59.5715L117.928 59.9718L117.93 59.9646L117.931 59.9574L116.002 59.5715ZM116.01 59.5324L114.143 58.9102L114.104 59.0264L114.08 59.1465L116.01 59.5324ZM116.023 59.4943L117.889 60.1166L117.893 60.1053L117.897 60.094L116.023 59.4943ZM121.162 51.2522L119.911 49.7334L119.911 49.7334L121.162 51.2522ZM125.81 49.4143L125.832 51.3817C127.05 51.3676 128.521 51.8371 130.249 53.2344L131.486 51.7043L132.723 50.1742C130.475 48.3566 128.141 47.4195 125.787 47.4468L125.81 49.4143ZM131.486 51.7043L130.249 53.2343C133.666 55.9971 135.426 60.8069 136.158 65.9483L138.106 65.6711L140.053 65.3939C139.275 59.9222 137.308 53.8813 132.723 50.1743L131.486 51.7043ZM138.106 65.6711L136.158 65.9483C136.884 71.0498 136.561 76.2252 136.042 79.4058L137.983 79.7229L139.925 80.0399C140.497 76.5387 140.845 70.9567 140.054 65.3939L138.106 65.6711ZM137.983 79.7229L136.034 79.4575C135.266 85.0968 132.029 91.0487 128.181 96.2634L129.764 97.4318L131.347 98.6003C135.34 93.1892 139.034 86.597 139.933 79.9882L137.983 79.7229ZM129.764 97.4318L128.181 96.2634C124.593 101.124 120.554 105.236 117.739 107.706L119.037 109.185L120.335 110.664C123.335 108.031 127.572 103.715 131.347 98.6003L129.764 97.4318ZM119.037 109.185L117.474 110.38C117.884 110.917 118.278 111.64 118.645 112.509L120.458 111.744L122.271 110.979C121.829 109.932 121.283 108.883 120.6 107.99L119.037 109.185ZM120.458 111.744L118.645 112.509C119.129 113.655 119.546 115.005 119.897 116.416L121.807 115.941L123.716 115.465C123.335 113.935 122.86 112.375 122.271 110.98L120.458 111.744ZM121.807 115.941L119.897 116.416C120.6 119.239 121.014 122.208 121.177 124.065L123.137 123.893L125.097 123.721C124.92 121.701 124.478 118.525 123.716 115.465L121.807 115.941ZM123.137 123.893L121.177 124.066L121.183 124.132L123.143 123.959L125.103 123.786L125.097 123.72L123.137 123.893ZM123.143 123.959V125.927H123.206V123.959V121.992H123.143V123.959ZM123.206 123.959L121.239 123.99L121.283 126.801L123.25 126.771L125.217 126.74L125.173 123.928L123.206 123.959ZM123.25 126.771L121.283 126.802C121.527 142.184 109.125 154.785 93.7403 154.786L93.7403 156.753L93.7403 158.721C111.322 158.721 125.496 144.319 125.217 126.74L123.25 126.771ZM93.7403 156.753V154.786H50.1241V156.753V158.721H93.7403V156.753ZM50.1241 156.753V154.786C34.7257 154.786 22.3175 142.162 22.5816 126.766L20.6143 126.733L18.647 126.699C18.3452 144.294 32.5259 158.721 50.1241 158.721V156.753ZM20.6143 126.733L22.5817 126.765L22.6227 124.299L20.6553 124.266L18.688 124.233L18.647 126.7L20.6143 126.733ZM20.6553 124.266L22.6207 124.173L22.608 123.904L20.6426 123.997L18.6772 124.09L18.6899 124.359L20.6553 124.266ZM20.6426 123.997L22.6078 123.899C22.4571 120.884 23.1182 117.556 24.0406 114.58L22.1612 113.997L20.2817 113.415C19.2907 116.613 18.4946 120.437 18.6775 124.095L20.6426 123.997ZM22.1612 113.997L24.0406 114.58C24.5574 112.912 25.1527 111.374 25.7134 110.09L23.9102 109.303L22.107 108.516C21.4962 109.914 20.8474 111.589 20.2818 113.415L22.1612 113.997ZM23.9102 109.303L22.9238 107.6C15.6152 111.835 7.70254 110.015 4.47497 108.429L3.60748 110.196L2.73998 111.962C6.73434 113.924 16.1035 116.1 24.8966 111.005L23.9102 109.303ZM3.60748 110.196L4.47234 108.428L4.42645 108.406L3.56158 110.173L2.69671 111.94L2.74261 111.963L3.60748 110.196ZM3.56158 110.173L4.67956 108.554L4.63854 108.526L3.52056 110.145L2.40258 111.764L2.4436 111.792L3.56158 110.173ZM3.52056 110.145L4.612 108.508C2.65877 107.205 0.841482 104.969 0.974759 102.414L-0.990181 102.312L-2.95512 102.209C-3.19367 106.782 -0.0330444 110.14 2.42913 111.782L3.52056 110.145ZM-0.990181 102.312L0.974752 102.414C1.10571 99.9071 3.15646 96.4299 10.5086 92.7143L9.62115 90.9582L8.73366 89.2021C1.00377 93.1086 -2.71054 97.5266 -2.95511 102.209L-0.990181 102.312ZM9.62115 90.9582L10.5086 92.7143C25.2348 85.272 34.4706 78.7518 37.4784 76.2322L36.2149 74.7238L34.9514 73.2155C32.2369 75.4894 23.2751 81.8532 8.73366 89.2021L9.62115 90.9582ZM36.2149 74.7238L38.0633 75.3984C39.2078 72.2624 42.1639 70.1309 46.6409 68.8675L46.1065 66.9738L45.5721 65.0802C40.5332 66.5022 36.1344 69.2054 34.3665 74.0492L36.2149 74.7238ZM46.1065 66.9738L46.6409 68.8675C51.1869 67.5846 57.0598 67.2723 63.4666 67.6106L63.5704 65.6457L63.6741 63.6808C57.0888 63.3331 50.7208 63.6273 45.5721 65.0802L46.1065 66.9738ZM63.5704 65.6457L63.4666 67.6106C75.4611 68.244 89.0222 71.136 98.5203 73.8009L99.0518 71.9065L99.5834 70.012C89.9262 67.3024 76.0607 64.335 63.6741 63.6808L63.5704 65.6457ZM99.0518 71.9065L98.5082 73.7975L100.367 74.3317L100.91 72.4406L101.454 70.5496L99.5954 70.0154L99.0518 71.9065ZM100.91 72.4406L100.359 74.3294L100.626 74.4075L101.178 72.5188L101.729 70.63L101.462 70.5519L100.91 72.4406ZM101.178 72.5188L99.5385 73.607L99.6928 73.8394L101.332 72.7512L102.971 71.6629L102.817 71.4305L101.178 72.5188ZM101.332 72.7512L99.695 73.8427L103.336 79.3027L104.973 78.2111L106.61 77.1196L102.969 71.6596L101.332 72.7512ZM104.973 78.2111L105.899 79.9468C109.445 78.0538 112.124 74.4259 114.043 70.7462L112.299 69.8361L110.554 68.9261C108.773 72.3416 106.556 75.1353 104.046 76.4755L104.973 78.2111ZM112.299 69.8361L114.043 70.7462C116.096 66.8119 117.374 62.6393 117.928 59.9718L116.002 59.5715L114.076 59.1712C113.584 61.5387 112.415 65.3595 110.554 68.9261L112.299 69.8361ZM116.002 59.5715L117.931 59.9574L117.939 59.9183L116.01 59.5324L114.08 59.1465L114.073 59.1856L116.002 59.5715ZM116.01 59.5324L117.876 60.1546L117.889 60.1166L116.023 59.4943L114.156 58.8721L114.143 58.9102L116.01 59.5324ZM116.023 59.4943L117.897 60.094C118.668 57.6846 120.25 54.5529 122.413 52.7709L121.162 51.2522L119.911 49.7334C116.912 52.2039 115.024 56.1584 114.149 58.8946L116.023 59.4943ZM121.162 51.2522L122.413 52.7709C123.472 51.8989 124.612 51.396 125.833 51.3817L125.81 49.4143L125.787 47.4468C123.441 47.4742 121.464 48.4547 119.911 49.7334L121.162 51.2522Z" fill="#8ACAF0" mask="url(#path-1-inside-1_138_1715)"/>
<path d="M117.354 107.3L111.333 93.2489C114.946 92.2453 120.566 84.0156 122.172 81.8076C123.777 79.5996 126.588 72.3736 126.588 64.3446C126.588 56.3156 130.201 55.312 131.405 55.312C132.368 55.312 133.412 57.5869 133.814 58.7243C139.032 71.5707 135.62 77.9938 133.412 87.2272C131.646 94.6138 121.971 103.687 117.354 107.3Z" fill="white" stroke="white" stroke-width="0.401448"/>
<path d="M31.2437 95.2561C30.4408 96.3802 27.5637 102.817 26.2256 105.894C18.1966 113.442 6.82224 109.307 2.13867 106.296C5.28335 106.296 11.7333 106.216 12.3756 105.894C13.1785 105.493 20.0031 103.285 22.8133 98.0662C25.6234 92.8474 34.4553 84.8184 35.2582 84.0155C35.9005 83.3732 36.4625 83.7479 36.6632 84.0155C35.8603 84.6177 32.2473 93.851 31.2437 95.2561Z" fill="white" stroke="white" stroke-width="0.401448" stroke-linejoin="round"/>
<circle cx="72.8955" cy="112.482" r="33.7773" fill="white"/>
<path d="M71.8525 0.766602C99.0795 0.76676 120.938 19.5907 120.938 42.5664C120.937 65.542 99.0794 84.3651 71.8525 84.3652C44.6255 84.3652 22.7668 65.5421 22.7666 42.5664C22.7666 19.5906 44.6254 0.766602 71.8525 0.766602Z" fill="#B8E7EE" stroke="#8ACAF0" stroke-width="1.53391"/>
<path fill-rule="evenodd" clip-rule="evenodd" d="M32.2676 39.8275C33.1002 29.4834 40.3513 21.6268 48.4639 22.2796C56.2416 22.9056 61.9854 31.1254 61.7129 40.9183C65.0152 41.0437 68.5264 41.1351 72.2363 41.1351C77.7042 41.1351 82.8095 40.7815 87.4932 40.3138C87.3155 31.3861 92.2583 23.8048 99.4531 22.6878C107.496 21.4393 115.306 28.7406 116.898 38.9954C116.929 39.1919 116.955 39.3885 116.98 39.5843C118.818 40.8445 119.788 42.9808 119.788 46.4007C119.788 61.4377 101.04 83.3177 72.2363 83.3177C43.4332 83.3177 26.6028 65.7599 26.6025 50.723C26.6025 45.6369 28.5284 42.8956 32.1914 41.4935C32.1977 40.943 32.2225 40.3873 32.2676 39.8275Z" fill="white"/>
<path d="M71.8521 31.062C76.4679 31.062 80.6183 31.9688 83.6001 33.5854C86.5808 35.2015 88.3413 37.4906 88.3413 40.2651C88.3413 43.0726 86.5435 46.1368 83.5444 48.5161C80.5551 50.8876 76.4201 52.5366 71.8521 52.5366C67.301 52.5366 63.1702 50.6127 60.1753 47.9546C57.1698 45.2871 55.3628 41.9316 55.3628 39.1147C55.3628 36.3566 57.103 34.3556 60.0776 33.0229C63.0608 31.6866 67.2177 31.062 71.8521 31.062Z" fill="#F1D453" stroke="#E1BA43" stroke-width="0.766957"/>
<path d="M61.1147 42.1826C61.1147 42.1826 66.1 45.6339 72.6191 45.6339C79.1382 45.6339 83.3565 42.1826 83.3565 42.1826" stroke="#583921" stroke-width="1.15044" stroke-linecap="round"/>
<circle cx="46.8947" cy="33.8947" r="2.89466" fill="#603C1F"/>
<circle cx="98.8947" cy="33.8947" r="2.89466" fill="#603C1F"/>
</svg>
