<svg width="130" height="124" viewBox="0 0 130 124" fill="none" xmlns="http://www.w3.org/2000/svg">
<mask id="path-1-inside-1_138_1187" fill="white">
<path fill-rule="evenodd" clip-rule="evenodd" d="M105.909 85.4648C108.701 83.272 112.429 81.8179 116.902 82.8876C119.142 83.4234 120.779 84.4662 121.911 85.8437C123.035 87.2123 123.614 88.8528 123.844 90.5185C124.301 93.823 123.415 97.3796 122.478 99.6435L122.443 99.7274L122.392 99.8026C120.296 102.911 114.209 109.029 105.497 110.685L105.819 123.247C106.237 139.558 93.1289 153.006 76.813 153.006H58.2066C42.3785 153.006 29.471 140.321 29.1958 124.495L29.0298 114.993C25.668 114.771 21.2418 113.996 17.4634 112.266C13.1337 110.283 9.41928 106.922 9.51905 101.534C9.61046 96.6001 10.4064 93.7796 11.4273 92.0751C12.4722 90.3306 13.7413 89.8255 14.2241 89.5273C17.1292 87.7332 24.3386 86.4255 31.1275 93.9687C31.7703 94.6828 32.9632 95.3296 34.7544 95.8524C36.5227 96.3685 38.7655 96.7337 41.3853 96.9638C46.6227 97.4236 53.2508 97.3349 60.3609 96.9091C74.3638 96.0705 90.1198 93.9308 100.54 92.1845C101.514 90.1645 103.333 87.4878 105.909 85.4648Z"/>
</mask>
<path fill-rule="evenodd" clip-rule="evenodd" d="M105.909 85.4648C108.701 83.272 112.429 81.8179 116.902 82.8876C119.142 83.4234 120.779 84.4662 121.911 85.8437C123.035 87.2123 123.614 88.8528 123.844 90.5185C124.301 93.823 123.415 97.3796 122.478 99.6435L122.443 99.7274L122.392 99.8026C120.296 102.911 114.209 109.029 105.497 110.685L105.819 123.247C106.237 139.558 93.1289 153.006 76.813 153.006H58.2066C42.3785 153.006 29.471 140.321 29.1958 124.495L29.0298 114.993C25.668 114.771 21.2418 113.996 17.4634 112.266C13.1337 110.283 9.41928 106.922 9.51905 101.534C9.61046 96.6001 10.4064 93.7796 11.4273 92.0751C12.4722 90.3306 13.7413 89.8255 14.2241 89.5273C17.1292 87.7332 24.3386 86.4255 31.1275 93.9687C31.7703 94.6828 32.9632 95.3296 34.7544 95.8524C36.5227 96.3685 38.7655 96.7337 41.3853 96.9638C46.6227 97.4236 53.2508 97.3349 60.3609 96.9091C74.3638 96.0705 90.1198 93.9308 100.54 92.1845C101.514 90.1645 103.333 87.4878 105.909 85.4648Z" fill="#FFFBE8"/>
<path d="M105.909 85.4648L104.565 83.7534L104.564 83.7534L105.909 85.4648ZM116.902 82.8876L117.408 80.7711L117.408 80.7711L116.902 82.8876ZM121.911 85.8437L123.592 84.4623L123.592 84.4622L121.911 85.8437ZM123.844 90.5185L126 90.2202L126 90.2202L123.844 90.5185ZM122.478 99.6435L124.485 100.484L124.489 100.475L122.478 99.6435ZM122.443 99.7274L124.246 100.945L124.367 100.767L124.45 100.568L122.443 99.7274ZM122.392 99.8026L120.589 98.5847L120.588 98.5859L122.392 99.8026ZM105.497 110.685L105.09 108.548L103.274 108.893L103.321 110.741L105.497 110.685ZM105.819 123.247L107.994 123.191V123.191L105.819 123.247ZM29.1958 124.495L31.3716 124.457L31.3716 124.457L29.1958 124.495ZM29.0298 114.993L31.2056 114.955L31.1706 112.954L29.1733 112.822L29.0298 114.993ZM17.4634 112.266L16.5574 114.244L16.5575 114.244L17.4634 112.266ZM9.51905 101.534L7.34328 101.494L7.34328 101.494L9.51905 101.534ZM11.4273 92.0751L9.56039 90.9569L9.56037 90.9569L11.4273 92.0751ZM14.2241 89.5273L13.0807 87.6757L13.0806 87.6758L14.2241 89.5273ZM31.1275 93.9687L29.5099 95.4244L29.51 95.4245L31.1275 93.9687ZM34.7544 95.8524L34.1447 97.9414L34.1448 97.9415L34.7544 95.8524ZM41.3853 96.9638L41.1949 99.1316L41.1949 99.1316L41.3853 96.9638ZM60.3609 96.9091L60.4909 99.0813H60.4909L60.3609 96.9091ZM100.54 92.1845L100.899 94.3307L102.01 94.1445L102.5 93.13L100.54 92.1845ZM105.909 85.4648L107.253 87.1762C109.66 85.2853 112.722 84.1256 116.396 85.0041L116.902 82.8876L117.408 80.7711C112.135 79.5102 107.741 81.2586 104.565 83.7534L105.909 85.4648ZM116.902 82.8876L116.396 85.0041C118.227 85.4421 119.431 86.2539 120.229 87.2251L121.911 85.8437L123.592 84.4622C122.127 82.6786 120.057 81.4047 117.408 80.7711L116.902 82.8876ZM121.911 85.8437L120.229 87.225C121.037 88.2089 121.498 89.4413 121.689 90.8168L123.844 90.5185L126 90.2202C125.729 88.2642 125.033 86.2156 123.592 84.4623L121.911 85.8437ZM123.844 90.5185L121.689 90.8167C122.075 93.6071 121.317 96.7584 120.467 98.8115L122.478 99.6435L124.489 100.475C125.513 98.0008 126.528 94.0389 126 90.2202L123.844 90.5185ZM122.478 99.6435L120.471 98.8032L120.436 98.8872L122.443 99.7274L124.45 100.568L124.485 100.484L122.478 99.6435ZM122.443 99.7274L120.639 98.5095L120.589 98.5847L122.392 99.8026L124.196 101.021L124.246 100.945L122.443 99.7274ZM122.392 99.8026L120.588 98.5859C118.715 101.363 113.076 107.029 105.09 108.548L105.497 110.685L105.903 112.823C115.343 111.028 121.877 104.458 124.196 101.019L122.392 99.8026ZM105.497 110.685L103.321 110.741L103.643 123.303L105.819 123.247L107.994 123.191L107.672 110.63L105.497 110.685ZM105.819 123.247L103.643 123.303C104.03 138.39 91.9052 150.83 76.813 150.83V153.006V155.182C94.3526 155.182 108.444 140.725 107.994 123.191L105.819 123.247ZM76.813 153.006V150.83H58.2066V153.006V155.182H76.813V153.006ZM58.2066 153.006V150.83C43.5656 150.83 31.6262 139.096 31.3716 124.457L29.1958 124.495L27.02 124.533C27.3159 141.545 41.1914 155.182 58.2066 155.182V153.006ZM29.1958 124.495L31.3716 124.457L31.2056 114.955L29.0298 114.993L26.854 115.031L27.02 124.533L29.1958 124.495ZM29.0298 114.993L29.1733 112.822C25.9727 112.61 21.829 111.871 18.3693 110.287L17.4634 112.266L16.5575 114.244C20.6547 116.12 25.3633 116.932 28.8863 117.164L29.0298 114.993ZM17.4634 112.266L18.3694 110.287C14.3784 108.46 11.6186 105.692 11.6948 101.574L9.51905 101.534L7.34328 101.494C7.21999 108.151 11.8889 112.106 16.5574 114.244L17.4634 112.266ZM9.51905 101.534L11.6948 101.574C11.7831 96.8116 12.5535 94.4299 13.2941 93.1933L11.4273 92.0751L9.56037 90.9569C8.25924 93.1293 7.43785 96.3886 7.34328 101.494L9.51905 101.534ZM11.4273 92.0751L13.2941 93.1933C13.6565 92.5884 14.0349 92.2305 14.3431 91.999C14.5029 91.879 14.6581 91.7824 14.8131 91.6935C14.8949 91.6466 14.9682 91.6065 15.0593 91.5563C15.1365 91.5137 15.2549 91.4484 15.3677 91.3787L14.2241 89.5273L13.0806 87.6758C13.1406 87.6387 12.3163 88.0782 11.7298 88.5186C11.0216 89.0504 10.243 89.8173 9.56039 90.9569L11.4273 92.0751ZM14.2241 89.5273L15.3676 91.3788C17.4202 90.1111 23.4577 88.6998 29.5099 95.4244L31.1275 93.9687L32.745 92.5129C25.2195 84.1513 16.8382 85.3552 13.0807 87.6757L14.2241 89.5273ZM31.1275 93.9687L29.51 95.4245C30.5583 96.5891 32.2199 97.3796 34.1447 97.9414L34.7544 95.8524L35.3641 93.7635C33.7064 93.2796 32.9822 92.7765 32.7449 92.5128L31.1275 93.9687ZM34.7544 95.8524L34.1448 97.9415C36.1021 98.5127 38.5002 98.895 41.1949 99.1316L41.3853 96.9638L41.5756 94.796C39.0308 94.5725 36.9433 94.2243 35.3641 93.7634L34.7544 95.8524ZM41.3853 96.9638L41.1949 99.1316C46.5879 99.6051 53.3382 99.5097 60.4909 99.0813L60.3609 96.9091L60.2308 94.7368C53.1635 95.16 46.6574 95.2422 41.5756 94.796L41.3853 96.9638ZM60.3609 96.9091L60.4909 99.0813C74.5952 98.2367 90.432 96.085 100.899 94.3307L100.54 92.1845L100.18 90.0383C89.8075 91.7767 74.1325 93.9043 60.2308 94.7368L60.3609 96.9091ZM100.54 92.1845L102.5 93.13C103.363 91.3406 104.992 88.9519 107.253 87.1761L105.909 85.4648L104.564 83.7534C101.674 86.0236 99.6653 88.9883 98.5796 91.239L100.54 92.1845Z" fill="#FCE9B8" mask="url(#path-1-inside-1_138_1187)"/>
<path d="M111.287 15.092C117.254 15.092 122.095 19.9401 122.095 25.9241C122.095 28.8931 120.907 30.9879 119.011 32.3635C117.085 33.76 114.37 34.4553 111.287 34.4553C108.205 34.4553 105.49 33.7599 103.564 32.3635C101.668 30.9879 100.48 28.8931 100.48 25.9241C100.481 19.9403 105.32 15.0923 111.287 15.092Z" fill="#FFFBE8" stroke="#FCE9B8" stroke-width="1.35093"/>
<path d="M16.7231 16.4429C10.7558 16.4429 5.91558 21.291 5.91553 27.2749C5.91553 30.2439 7.10304 32.3388 8.99951 33.7144C10.9249 35.1108 13.6404 35.8062 16.7231 35.8062C19.8057 35.8061 22.5205 35.1107 24.4458 33.7144C26.3423 32.3388 27.5298 30.2439 27.5298 27.2749C27.5297 21.2911 22.6903 16.4431 16.7231 16.4429Z" fill="#FFFBE8" stroke="#FCE9B8" stroke-width="1.35093"/>
<path d="M35.1854 19.1443C20.4153 16.6226 16.1223 27.0998 15.8221 32.6536C4.4743 36.0759 5.08972 46.8384 6.8159 51.7918C5.84024 51.1914 1.41214 51.7918 0.736742 58.3213C0.00358522 65.4092 5.99034 67.7028 10.1932 68.2281C4.06901 75.7933 11.3941 80.8368 15.8221 82.4129C15.8221 91.7793 26.4794 95.1717 31.8081 95.697C36.8516 105.604 47.5689 103.277 52.2972 100.876C63.8251 112.764 76.4638 105.229 81.3422 99.975C94.6713 102.857 99.8049 95.3217 100.705 91.1939C121.24 92.815 120.669 83.0133 117.817 77.9098C128.445 73.2266 124.947 66.3518 121.87 63.4999C135.379 54.1334 125.698 45.9378 119.168 43.0108C121.33 32.2033 113.464 29.9518 109.261 30.1769C111.243 23.3322 104.983 21.9213 101.606 22.0714C101.246 16.3074 94.5512 16.6676 91.249 17.5683C87.1061 6.58071 77.8147 8.6371 73.6869 11.0387C63.7801 -0.489179 54.6988 6.23545 51.3966 11.0387C40.0488 7.25615 35.8609 14.8664 35.1854 19.1443Z" fill="#FAB2CD" stroke="#FD83C1" stroke-width="1.35093"/>
<path d="M64.23 24.0981C89.1555 24.0981 107.459 42.555 107.459 62.1489C107.459 71.908 102.647 79.9322 94.6968 85.5405C86.7328 91.1585 75.6193 94.3462 63.104 94.3462C50.5585 94.3461 40.2996 91.8215 33.1968 86.8892C26.127 81.9798 22.1265 74.6478 22.1265 64.8511C22.1265 45.1775 39.3859 24.0982 64.23 24.0981Z" fill="#FFFBE8" stroke="#FCE9B8" stroke-width="1.35093"/>
<path d="M96.6526 59.8976L104.308 58.5466M95.5269 66.6522L103.182 69.8044" stroke="#F1C67E" stroke-width="4.5031" stroke-linecap="round"/>
<path d="M33.1589 63.9503L25.5036 62.5994M34.2847 70.7049L26.8546 73.8571" stroke="#F1C67E" stroke-width="4.5031" stroke-linecap="round"/>
<path d="M63.5553 26.1243V47.514M51.397 33.5544H75.2634M52.7479 41.66H74.1376" stroke="#F1C67E" stroke-width="4.5031" stroke-linecap="round"/>
<path d="M60.853 19.82L67.1574 14.1912" stroke="#E96F91" stroke-width="3.60248" stroke-linecap="round"/>
<path d="M70.7593 18.0188H78.8649" stroke="#F1E488" stroke-width="3.60248" stroke-linecap="round"/>
<path d="M47.5693 16.4427L56.3504 15.0918" stroke="#FDFCFF" stroke-width="3.60248" stroke-linecap="round"/>
<path d="M40.3643 19.8198L45.4645 24.1148" stroke="#F7DF83" stroke-width="3.60248" stroke-linecap="round"/>
<path d="M105.209 1.3572L81.7925 17.7935L107.91 36.2562C108.286 25.8991 108.991 4.59943 108.811 2.25782C108.631 -0.0837889 106.334 0.681738 105.209 1.3572Z" fill="#F4F1A4" stroke="#F8E26A" stroke-width="1.35093" stroke-linecap="round"/>
<path d="M98.9045 5.86035L107.911 19.5948M86.7461 20.4954L107.911 11.4892M94.1762 10.8138L107.911 33.3292M88.097 14.6414L96.2026 27.2501L108.136 19.5948" stroke="#F8E26A" stroke-width="0.900619" stroke-linecap="round"/>
<path d="M76.8389 21.8462C79.5407 19.2945 85.5298 16.2174 87.8715 24.323C91.2488 23.4223 98.0935 23.3773 98.4537 30.4022C102.356 29.9519 109.486 31.0776 106.784 39.1832" stroke="#FD83C1" stroke-width="1.35093"/>
<path d="M87.8715 24.6076C85.5298 16.502 79.5407 19.5792 76.8389 22.1309L106.784 39.4679C109.486 31.3623 102.356 30.2365 98.4537 30.6868C98.0935 23.662 91.2488 23.707 87.8715 24.6076Z" fill="#FAB2CD"/>
<mask id="path-18-inside-2_138_1187" fill="white">
<path d="M71.4507 59.1943C75.8003 59.1943 79.3267 62.7207 79.3267 67.0703C79.3265 71.4198 75.8002 74.9453 71.4507 74.9453C68.843 74.9452 66.5323 73.6772 65.0991 71.7246C63.6658 73.6769 61.3561 74.9452 58.7485 74.9453C54.399 74.9453 50.8727 71.4198 50.8726 67.0703C50.8726 62.7207 54.3989 59.1943 58.7485 59.1943C61.3557 59.1944 63.6658 60.4623 65.0991 62.4141C66.5324 60.462 68.8433 59.1945 71.4507 59.1943Z"/>
</mask>
<path d="M71.4507 59.1943C75.8003 59.1943 79.3267 62.7207 79.3267 67.0703C79.3265 71.4198 75.8002 74.9453 71.4507 74.9453C68.843 74.9452 66.5323 73.6772 65.0991 71.7246C63.6658 73.6769 61.3561 74.9452 58.7485 74.9453C54.399 74.9453 50.8727 71.4198 50.8726 67.0703C50.8726 62.7207 54.3989 59.1943 58.7485 59.1943C61.3557 59.1944 63.6658 60.4623 65.0991 62.4141C66.5324 60.462 68.8433 59.1945 71.4507 59.1943Z" fill="#FDFFFB"/>
<path d="M71.4507 59.1943V58.1206H71.4506L71.4507 59.1943ZM79.3267 67.0703L80.4004 67.0704V67.0703H79.3267ZM71.4507 74.9453L71.4506 76.0191H71.4507V74.9453ZM65.0991 71.7246L65.9647 71.0893L65.0992 69.9101L64.2336 71.0892L65.0991 71.7246ZM58.7485 74.9453V76.0191H58.7486L58.7485 74.9453ZM50.8726 67.0703H49.7988V67.0704L50.8726 67.0703ZM58.7485 59.1943L58.7486 58.1206H58.7485V59.1943ZM65.0991 62.4141L64.2337 63.0496L65.0992 64.2282L65.9646 63.0495L65.0991 62.4141ZM71.4507 59.1943V60.2681C75.2073 60.2681 78.2529 63.3137 78.2529 67.0703H79.3267H80.4004C80.4004 62.1277 76.3933 58.1206 71.4507 58.1206V59.1943ZM79.3267 67.0703L78.2529 67.0703C78.2528 70.8266 75.2073 73.8716 71.4507 73.8716V74.9453V76.0191C76.3931 76.0191 80.4002 72.0129 80.4004 67.0704L79.3267 67.0703ZM71.4507 74.9453L71.4507 73.8716C69.1996 73.8714 67.2045 72.7783 65.9647 71.0893L65.0991 71.7246L64.2335 72.36C65.8601 74.576 68.4863 76.0189 71.4506 76.0191L71.4507 74.9453ZM65.0991 71.7246L64.2336 71.0892C62.9936 72.7783 60.9993 73.8715 58.7485 73.8716L58.7485 74.9453L58.7486 76.0191C61.713 76.0189 64.3381 74.5756 65.9647 72.36L65.0991 71.7246ZM58.7485 74.9453V73.8716C54.9919 73.8716 51.9464 70.8266 51.9463 67.0703L50.8726 67.0703L49.7988 67.0704C49.799 72.0129 53.8061 76.0191 58.7485 76.0191V74.9453ZM50.8726 67.0703H51.9463C51.9463 63.3137 54.9919 60.2681 58.7485 60.2681V59.1943V58.1206C53.8059 58.1206 49.7988 62.1277 49.7988 67.0703H50.8726ZM58.7485 59.1943L58.7485 60.2681C60.999 60.2682 62.9937 61.3611 64.2337 63.0496L65.0991 62.4141L65.9646 61.7785C64.3379 59.5635 61.7124 58.1207 58.7486 58.1206L58.7485 59.1943ZM65.0991 62.4141L65.9646 63.0495C67.2044 61.361 69.1998 60.2682 71.4507 60.2681L71.4507 59.1943L71.4506 58.1206C68.4869 58.1208 65.8604 59.563 64.2336 61.7786L65.0991 62.4141Z" fill="#FAD699" mask="url(#path-18-inside-2_138_1187)"/>
<path d="M70.0963 61.2485C70.0963 63.3624 67.3811 65.3013 65.1428 65.3013C62.9045 65.3013 60.1894 63.3624 60.1894 61.2485C59.9643 57.8712 62.9045 57.646 65.1428 57.646C67.3811 57.646 70.3214 57.646 70.0963 61.2485Z" fill="#5E3916"/>
<ellipse cx="66.3226" cy="125.079" rx="16.3211" ry="13.4196" fill="#FCE9B8"/>
<circle cx="49.57" cy="55.5702" r="2.89466" fill="#603C1F"/>
<circle cx="80.5699" cy="55.5702" r="2.89466" fill="#603C1F"/>
</svg>
