<svg width="122" height="136" viewBox="0 0 122 136" fill="none" xmlns="http://www.w3.org/2000/svg">
<path d="M57.6996 124.699C42.0395 124.177 34.7895 109.692 33.1219 102.514C13.4598 109.648 3.90428 94.9017 1.58428 86.6366C-1.89574 75.5006 5.20928 64.4515 9.19679 60.319C-3.50529 45.8769 2.59925 32.4063 7.23928 27.4762C13.5033 15.9922 29.1344 17.1812 36.167 19.2112C39.792 12.1062 50.7831 -1.4949 65.7472 0.941111C80.7113 3.37713 86.0473 15.4412 86.8448 21.1688C101.113 16.8187 112.075 25.8813 115.772 30.9563C126.561 48.5304 116.062 60.319 109.465 64.0166C117.295 71.6726 116.933 80.2567 115.772 83.5917C111.944 101.166 94.4573 102.369 86.1923 100.774C79.2322 121.306 64.2971 125.279 57.6996 124.699Z" fill="#FF8F57" stroke="#F15B2C" stroke-width="1.30501" stroke-linecap="round"/>
<mask id="path-2-inside-1_138_1836" fill="white">
<path fill-rule="evenodd" clip-rule="evenodd" d="M30.7298 24.4312C34.8678 24.4312 38.4035 27.0002 39.8353 30.6294C46.3583 27.3226 53.9185 25.5539 62.1429 26.0679C70.1983 26.5713 77.4791 28.9034 83.6419 32.4946C85.3471 29.6207 88.4806 27.6938 92.0648 27.6938C97.4701 27.6939 101.852 32.0756 101.852 37.481C101.852 40.7692 100.229 43.6759 97.7415 45.4507C102.47 52.3039 104.927 60.3051 104.425 68.3306C103.15 88.7326 82.1635 100.57 56.4358 98.9624C30.708 97.3547 14.6279 85.9652 15.9026 65.563C16.4128 57.3998 19.8001 49.1899 25.3265 42.3794C22.6846 40.6267 20.9417 37.6262 20.9417 34.2183C20.9419 28.8129 25.3244 24.4312 30.7298 24.4312Z"/>
</mask>
<path fill-rule="evenodd" clip-rule="evenodd" d="M30.7298 24.4312C34.8678 24.4312 38.4035 27.0002 39.8353 30.6294C46.3583 27.3226 53.9185 25.5539 62.1429 26.0679C70.1983 26.5713 77.4791 28.9034 83.6419 32.4946C85.3471 29.6207 88.4806 27.6938 92.0648 27.6938C97.4701 27.6939 101.852 32.0756 101.852 37.481C101.852 40.7692 100.229 43.6759 97.7415 45.4507C102.47 52.3039 104.927 60.3051 104.425 68.3306C103.15 88.7326 82.1635 100.57 56.4358 98.9624C30.708 97.3547 14.6279 85.9652 15.9026 65.563C16.4128 57.3998 19.8001 49.1899 25.3265 42.3794C22.6846 40.6267 20.9417 37.6262 20.9417 34.2183C20.9419 28.8129 25.3244 24.4312 30.7298 24.4312Z" fill="#FECE6D"/>
<path d="M30.7298 24.4312L30.7298 23.1261H30.7298V24.4312ZM39.8353 30.6294L38.6213 31.1083L39.1472 32.4413L40.4253 31.7934L39.8353 30.6294ZM62.1429 26.0679L62.2243 24.7654L62.2243 24.7654L62.1429 26.0679ZM83.6419 32.4946L82.9849 33.6222L84.1036 34.2741L84.7642 33.1605L83.6419 32.4946ZM92.0648 27.6938L92.0648 26.3888H92.0648V27.6938ZM101.852 37.481H103.157V37.4809L101.852 37.481ZM97.7415 45.4507L96.9835 44.3884L95.9379 45.1345L96.6674 46.1918L97.7415 45.4507ZM104.425 68.3306L105.728 68.412V68.412L104.425 68.3306ZM56.4358 98.9624L56.3545 100.265H56.3545L56.4358 98.9624ZM15.9026 65.563L14.6002 65.4816L14.6002 65.4816L15.9026 65.563ZM25.3265 42.3794L26.3398 43.2017L27.245 42.0861L26.0479 41.2919L25.3265 42.3794ZM20.9417 34.2183L19.6367 34.2182V34.2183H20.9417ZM30.7298 24.4312L30.7298 25.7362C34.3134 25.7362 37.3793 27.9601 38.6213 31.1083L39.8353 30.6294L41.0492 30.1505C39.4277 26.0402 35.4222 23.1262 30.7298 23.1261L30.7298 24.4312ZM39.8353 30.6294L40.4253 31.7934C46.7498 28.5873 54.079 26.8715 62.0615 27.3703L62.1429 26.0679L62.2243 24.7654C53.758 24.2364 45.9668 26.058 39.2452 29.4654L39.8353 30.6294ZM62.1429 26.0679L62.0615 27.3703C69.9132 27.8611 76.997 30.1329 82.9849 33.6222L83.6419 32.4946L84.299 31.3671C77.9611 27.6739 70.4833 25.2816 62.2243 24.7654L62.1429 26.0679ZM83.6419 32.4946L84.7642 33.1605C86.2442 30.6662 88.9603 28.9989 92.0648 28.9989V27.6938V26.3888C88.001 26.3888 84.45 28.5751 82.5196 31.8287L83.6419 32.4946ZM92.0648 27.6938L92.0648 28.9989C96.7494 28.9989 100.547 32.7963 100.547 37.481L101.852 37.481L103.157 37.4809C103.157 31.3549 98.1909 26.3889 92.0648 26.3888L92.0648 27.6938ZM101.852 37.481H100.547C100.547 40.3288 99.1428 42.8475 96.9835 44.3884L97.7415 45.4507L98.4996 46.513C101.314 44.5043 103.157 41.2095 103.157 37.481H101.852ZM97.7415 45.4507L96.6674 46.1918C101.248 52.8306 103.604 60.5462 103.123 68.2492L104.425 68.3306L105.728 68.412C106.249 60.0641 103.692 51.7773 98.8157 44.7096L97.7415 45.4507ZM104.425 68.3306L103.123 68.2492C102.515 77.9663 97.2317 85.6687 88.916 90.7888C80.5725 95.926 69.1763 98.4509 56.5172 97.6599L56.4358 98.9624L56.3545 100.265C69.423 101.081 81.3839 98.4915 90.2844 93.0114C99.2126 87.5141 105.06 79.0969 105.728 68.412L104.425 68.3306ZM56.4358 98.9624L56.5172 97.6599C43.7995 96.8652 33.6435 93.6595 26.853 88.2872C20.1235 82.9633 16.5934 75.4341 17.2051 65.6444L15.9026 65.563L14.6002 65.4816C13.9371 76.0941 17.8097 84.4608 25.2336 90.3341C32.5963 96.159 43.3444 99.4519 56.3545 100.265L56.4358 98.9624ZM15.9026 65.563L17.2051 65.6444C17.6966 57.7796 20.9664 49.8237 26.3398 43.2017L25.3265 42.3794L24.3131 41.5571C18.6338 48.5561 15.1289 57.0199 14.6002 65.4816L15.9026 65.563ZM25.3265 42.3794L26.0479 41.2919C23.7546 39.7705 22.2467 37.1702 22.2467 34.2183H20.9417H19.6367C19.6367 38.0823 21.6145 41.4829 24.605 43.4669L25.3265 42.3794ZM20.9417 34.2183L22.2467 34.2183C22.2469 29.5338 26.045 25.7362 30.7298 25.7362V24.4312V23.1261C24.6038 23.1261 19.637 28.0921 19.6367 34.2182L20.9417 34.2183Z" fill="#F59313" mask="url(#path-2-inside-1_138_1836)"/>
<path d="M52.0444 52.054C54.5094 53.794 60.005 56.23 62.267 52.054C63.0917 50.5315 64.007 47.4636 60.3095 47.269C58.932 47.1965 56.351 47.7475 57.047 50.5315C58.1345 53.1415 61.7015 56.7086 68.1395 52.7065" stroke="#603C1F" stroke-width="1.30501" stroke-linecap="round"/>
<ellipse cx="83.1473" cy="67.0613" rx="5.22003" ry="3.69753" fill="#F78F8B"/>
<ellipse cx="37.0374" cy="64.8865" rx="5.22003" ry="3.69753" fill="#F78F8B"/>
<rect x="31.3809" y="116" width="26.9702" height="13.0501" fill="#FECE6D"/>
<mask id="path-8-inside-2_138_1836" fill="white">
<path fill-rule="evenodd" clip-rule="evenodd" d="M16.6444 82.5865C22.6867 80.9821 26.9945 84.7081 30.5448 88.859C32.6427 91.3121 33.1719 94.3524 33.4393 96.942C33.581 98.3143 33.6394 99.4319 33.786 100.542C33.9252 101.595 34.12 102.382 34.4227 102.947C34.4242 102.948 34.4259 102.95 34.4276 102.952C34.4616 102.982 34.5315 103.036 34.6551 103.111C34.8951 103.255 35.2529 103.425 35.744 103.61C36.7234 103.98 38.0933 104.363 39.7889 104.747C43.1715 105.512 47.708 106.244 52.6903 106.866C54.8789 107.139 57.1487 107.388 59.4384 107.611C61.7284 107.388 63.9985 107.139 66.1874 106.866C71.1694 106.244 75.7063 105.512 79.0887 104.747C80.784 104.363 82.1543 103.979 83.1337 103.61C83.6244 103.425 83.9826 103.255 84.2225 103.111C84.3461 103.037 84.4161 102.982 84.4501 102.952C84.4512 102.951 84.4519 102.949 84.453 102.948C84.7561 102.383 84.9523 101.596 85.0917 100.542C85.2383 99.4319 85.2967 98.3142 85.4383 96.942C85.7058 94.3524 86.2351 91.312 88.3329 88.859C91.8831 84.7081 96.1911 80.9822 102.233 82.5865C104.255 83.1235 105.752 84.1817 106.802 85.6197C107.833 87.0328 108.381 88.742 108.657 90.5221C109.201 94.0382 108.725 98.2194 108.387 101.763C107.894 106.92 105.291 111.237 102.338 114.707C99.5799 117.946 96.4164 120.56 94.2548 122.447V130.965H94.2274V144.379C94.2274 157.891 83.2745 168.843 69.7635 168.843H48.9686C35.4575 168.843 24.5048 157.891 24.5048 144.379V129.089H24.6229V122.447C22.4612 120.56 19.2979 117.947 16.5399 114.707C13.5864 111.237 10.9833 106.92 10.4911 101.763C10.1529 98.2194 9.6764 94.0382 10.2206 90.5221C10.4962 88.7421 11.045 87.0328 12.076 85.6197C13.1255 84.1818 14.6226 83.1235 16.6444 82.5865Z"/>
</mask>
<path fill-rule="evenodd" clip-rule="evenodd" d="M16.6444 82.5865C22.6867 80.9821 26.9945 84.7081 30.5448 88.859C32.6427 91.3121 33.1719 94.3524 33.4393 96.942C33.581 98.3143 33.6394 99.4319 33.786 100.542C33.9252 101.595 34.12 102.382 34.4227 102.947C34.4242 102.948 34.4259 102.95 34.4276 102.952C34.4616 102.982 34.5315 103.036 34.6551 103.111C34.8951 103.255 35.2529 103.425 35.744 103.61C36.7234 103.98 38.0933 104.363 39.7889 104.747C43.1715 105.512 47.708 106.244 52.6903 106.866C54.8789 107.139 57.1487 107.388 59.4384 107.611C61.7284 107.388 63.9985 107.139 66.1874 106.866C71.1694 106.244 75.7063 105.512 79.0887 104.747C80.784 104.363 82.1543 103.979 83.1337 103.61C83.6244 103.425 83.9826 103.255 84.2225 103.111C84.3461 103.037 84.4161 102.982 84.4501 102.952C84.4512 102.951 84.4519 102.949 84.453 102.948C84.7561 102.383 84.9523 101.596 85.0917 100.542C85.2383 99.4319 85.2967 98.3142 85.4383 96.942C85.7058 94.3524 86.2351 91.312 88.3329 88.859C91.8831 84.7081 96.1911 80.9822 102.233 82.5865C104.255 83.1235 105.752 84.1817 106.802 85.6197C107.833 87.0328 108.381 88.742 108.657 90.5221C109.201 94.0382 108.725 98.2194 108.387 101.763C107.894 106.92 105.291 111.237 102.338 114.707C99.5799 117.946 96.4164 120.56 94.2548 122.447V130.965H94.2274V144.379C94.2274 157.891 83.2745 168.843 69.7635 168.843H48.9686C35.4575 168.843 24.5048 157.891 24.5048 144.379V129.089H24.6229V122.447C22.4612 120.56 19.2979 117.947 16.5399 114.707C13.5864 111.237 10.9833 106.92 10.4911 101.763C10.1529 98.2194 9.6764 94.0382 10.2206 90.5221C10.4962 88.7421 11.045 87.0328 12.076 85.6197C13.1255 84.1818 14.6226 83.1235 16.6444 82.5865Z" fill="#FECE6D"/>
<path d="M16.6444 82.5865L16.3101 81.3274L16.31 81.3275L16.6444 82.5865ZM30.5448 88.859L31.5348 88.0123L31.5348 88.0122L30.5448 88.859ZM33.4393 96.942L34.7352 96.8082L34.7351 96.8082L33.4393 96.942ZM33.786 100.542L32.4945 100.712L32.4945 100.712L33.786 100.542ZM34.4227 102.947L33.2744 103.562L33.3805 103.76L33.547 103.911L34.4227 102.947ZM34.4276 102.952L33.5573 103.921L33.564 103.927L34.4276 102.952ZM34.6551 103.111L33.983 104.227L33.9832 104.227L34.6551 103.111ZM35.744 103.61L35.2841 104.829L35.2841 104.829L35.744 103.61ZM39.7889 104.747L39.5016 106.017L39.5016 106.017L39.7889 104.747ZM52.6903 106.866L52.5289 108.159H52.529L52.6903 106.866ZM59.4384 107.611L59.312 108.908L59.4383 108.92L59.5647 108.908L59.4384 107.611ZM66.1874 106.866L66.3487 108.159L66.3487 108.159L66.1874 106.866ZM79.0887 104.747L79.3761 106.017L79.3761 106.017L79.0887 104.747ZM83.1337 103.61L83.5935 104.829L83.5936 104.829L83.1337 103.61ZM84.2225 103.111L84.8944 104.227L84.8948 104.227L84.2225 103.111ZM84.4501 102.952L85.3139 103.927L85.3365 103.907L85.3581 103.886L84.4501 102.952ZM84.453 102.948L85.3251 103.916L85.4937 103.764L85.601 103.564L84.453 102.948ZM85.0917 100.542L86.3832 100.712L86.3832 100.712L85.0917 100.542ZM85.4383 96.942L84.1425 96.8082V96.8082L85.4383 96.942ZM88.3329 88.859L87.3429 88.0122L87.3428 88.0123L88.3329 88.859ZM102.233 82.5865L102.568 81.3275L102.568 81.3274L102.233 82.5865ZM106.802 85.6197L107.854 84.8518L107.854 84.8518L106.802 85.6197ZM108.657 90.5221L109.944 90.3228L109.944 90.3227L108.657 90.5221ZM108.387 101.763L109.683 101.887V101.887L108.387 101.763ZM102.338 114.707L103.33 115.551L103.33 115.551L102.338 114.707ZM94.2548 122.447L93.3981 121.465L92.952 121.855V122.447H94.2548ZM94.2548 130.965V132.268H95.5575V130.965H94.2548ZM94.2274 130.965V129.663H92.9247V130.965H94.2274ZM69.7635 168.843V170.146H69.7636L69.7635 168.843ZM48.9686 168.843L48.9686 170.146H48.9686V168.843ZM24.5048 129.089V127.787H23.202V129.089H24.5048ZM24.6229 129.089V130.392H25.9256V129.089H24.6229ZM24.6229 122.447H25.9256V121.855L25.4796 121.465L24.6229 122.447ZM16.5399 114.707L15.5479 115.551L15.5479 115.551L16.5399 114.707ZM10.4911 101.763L9.19426 101.887L9.19426 101.887L10.4911 101.763ZM10.2206 90.5221L8.9332 90.3228L8.93319 90.3228L10.2206 90.5221ZM12.076 85.6197L11.0238 84.8517L11.0237 84.8519L12.076 85.6197ZM16.6444 82.5865L16.9787 83.8456C22.2055 82.4577 26.0222 85.5755 29.5548 89.7057L30.5448 88.859L31.5348 88.0122C27.9668 83.8406 23.1679 79.5064 16.3101 81.3274L16.6444 82.5865ZM30.5448 88.859L29.5548 89.7057C31.3764 91.8358 31.88 94.5238 32.1435 97.0758L33.4393 96.942L34.7351 96.8082C34.4639 94.181 33.909 90.7884 31.5348 88.0123L30.5448 88.859ZM33.4393 96.942L32.1435 97.0758C32.2746 98.346 32.3471 99.5959 32.4945 100.712L33.786 100.542L35.0775 100.371C34.9318 99.2679 34.8874 98.2825 34.7352 96.8082L33.4393 96.942ZM33.786 100.542L32.4945 100.712C32.6392 101.807 32.8577 102.784 33.2744 103.562L34.4227 102.947L35.5711 102.332C35.3824 101.979 35.2113 101.384 35.0775 100.371L33.786 100.542ZM34.4227 102.947L33.547 103.911C33.5335 103.899 33.5224 103.888 33.5141 103.88C33.5058 103.872 33.499 103.865 33.4944 103.861C33.4899 103.856 33.4863 103.852 33.4847 103.851C33.4838 103.85 33.4832 103.849 33.4829 103.849C33.4828 103.849 33.4827 103.849 33.4828 103.849C33.4828 103.849 33.4828 103.849 33.4829 103.849C33.4829 103.849 33.483 103.849 33.4831 103.849C33.4836 103.85 33.486 103.852 33.489 103.855C33.4921 103.858 33.4967 103.863 33.5025 103.869C33.5082 103.875 33.5157 103.882 33.5246 103.891C33.5335 103.899 33.5445 103.91 33.5573 103.921L34.4276 102.952L35.2979 101.982C35.3103 101.994 35.3209 102.003 35.3293 102.012C35.3378 102.02 35.3449 102.027 35.3502 102.032C35.3555 102.037 35.3598 102.042 35.3624 102.045C35.365 102.047 35.367 102.049 35.3671 102.049C35.3671 102.049 35.3672 102.05 35.3671 102.049C35.367 102.049 35.3668 102.049 35.3666 102.049C35.3662 102.048 35.3653 102.048 35.3642 102.046C35.3622 102.044 35.3583 102.04 35.3533 102.035C35.3483 102.03 35.3412 102.023 35.3325 102.014C35.3238 102.006 35.3123 101.995 35.2985 101.982L34.4227 102.947ZM34.4276 102.952L33.564 103.927C33.67 104.021 33.8075 104.121 33.983 104.227L34.6551 103.111L35.3273 101.995C35.2929 101.974 35.2742 101.961 35.2681 101.957C35.2613 101.952 35.2705 101.958 35.2912 101.976L34.4276 102.952ZM34.6551 103.111L33.9832 104.227C34.3156 104.427 34.753 104.628 35.2841 104.829L35.744 103.61L36.204 102.391C35.7529 102.221 35.4746 102.084 35.3271 101.995L34.6551 103.111ZM35.744 103.61L35.2841 104.829C36.3451 105.229 37.7816 105.628 39.5016 106.017L39.7889 104.747L40.0763 103.476C38.4051 103.098 37.1017 102.73 36.2039 102.391L35.744 103.61ZM39.7889 104.747L39.5016 106.017C42.9426 106.795 47.5259 107.534 52.5289 108.159L52.6903 106.866L52.8517 105.573C47.8902 104.954 43.4004 104.228 40.0763 103.476L39.7889 104.747ZM52.6903 106.866L52.529 108.159C54.7306 108.433 57.0122 108.683 59.312 108.908L59.4384 107.611L59.5647 106.314C57.2851 106.092 55.0271 105.845 52.8517 105.573L52.6903 106.866ZM59.4384 107.611L59.5647 108.908C61.8648 108.683 64.1468 108.433 66.3487 108.159L66.1874 106.866L66.026 105.573C63.8503 105.845 61.5919 106.092 59.312 106.314L59.4384 107.611ZM66.1874 106.866L66.3487 108.159C71.3515 107.534 75.9352 106.795 79.3761 106.017L79.0887 104.747L78.8014 103.476C75.4774 104.228 70.9872 104.954 66.026 105.573L66.1874 106.866ZM79.0887 104.747L79.3761 106.017C81.0958 105.628 82.5326 105.229 83.5935 104.829L83.1337 103.61L82.6738 102.391C81.776 102.73 80.4723 103.098 78.8014 103.476L79.0887 104.747ZM83.1337 103.61L83.5936 104.829C84.1244 104.628 84.5621 104.427 84.8944 104.227L84.2225 103.111L83.5507 101.995C83.4031 102.084 83.1245 102.221 82.6737 102.391L83.1337 103.61ZM84.2225 103.111L84.8948 104.227C85.0698 104.121 85.2076 104.021 85.3139 103.927L84.4501 102.952L83.5862 101.977C83.5972 101.967 83.6048 101.961 83.6084 101.958C83.6121 101.955 83.6127 101.955 83.6097 101.957C83.6035 101.961 83.5848 101.974 83.5503 101.995L84.2225 103.111ZM84.4501 102.952L85.3581 103.886C85.3983 103.847 85.4303 103.811 85.4545 103.781C85.4788 103.752 85.4978 103.726 85.5113 103.707C85.5248 103.689 85.5351 103.673 85.5409 103.664C85.5462 103.656 85.5508 103.649 85.5497 103.651C85.5497 103.651 85.5493 103.651 85.5489 103.652C85.5485 103.652 85.5478 103.654 85.547 103.655C85.5453 103.657 85.5426 103.662 85.5392 103.667C85.5328 103.676 85.5213 103.694 85.5062 103.714C85.4911 103.735 85.4692 103.764 85.4409 103.797C85.4127 103.83 85.3742 103.871 85.3251 103.916L84.453 102.948L83.5809 101.98C83.5315 102.025 83.4928 102.066 83.4643 102.099C83.4358 102.133 83.4137 102.162 83.3983 102.183C83.383 102.204 83.3712 102.222 83.3646 102.232C83.3611 102.237 83.3583 102.241 83.3565 102.244C83.3548 102.247 83.3535 102.249 83.3534 102.249C83.3521 102.251 83.3565 102.244 83.3615 102.236C83.3671 102.228 83.3772 102.213 83.3904 102.194C83.4036 102.176 83.4224 102.15 83.4464 102.121C83.4704 102.092 83.5022 102.056 83.5421 102.018L84.4501 102.952ZM84.453 102.948L85.601 103.564C86.018 102.786 86.2382 101.809 86.3832 100.712L85.0917 100.542L83.8002 100.371C83.6665 101.383 83.4943 101.979 83.305 102.332L84.453 102.948ZM85.0917 100.542L86.3832 100.712C86.5306 99.5959 86.603 98.346 86.7342 97.0758L85.4383 96.942L84.1425 96.8082C83.9903 98.2825 83.9459 99.2679 83.8002 100.371L85.0917 100.542ZM85.4383 96.942L86.7342 97.0758C86.9977 94.5239 87.5014 91.8357 89.3229 89.7057L88.3329 88.859L87.3428 88.0123C84.9688 90.7884 84.4138 94.181 84.1425 96.8082L85.4383 96.942ZM88.3329 88.859L89.3229 89.7057C92.8554 85.5756 96.6724 82.4579 101.899 83.8456L102.233 82.5865L102.568 81.3274C95.7099 79.5066 90.9109 83.8406 87.3429 88.0122L88.3329 88.859ZM102.233 82.5865L101.899 83.8456C103.644 84.3091 104.883 85.2004 105.749 86.3877L106.802 85.6197L107.854 84.8518C106.621 83.163 104.866 81.938 102.568 81.3275L102.233 82.5865ZM106.802 85.6197L105.749 86.3876C106.616 87.5758 107.113 89.0638 107.37 90.7214L108.657 90.5221L109.944 90.3227C109.65 88.4203 109.049 86.4898 107.854 84.8518L106.802 85.6197ZM108.657 90.5221L107.37 90.7213C107.883 94.0381 107.435 98.0262 107.09 101.64L108.387 101.763L109.683 101.887C110.015 98.4126 110.52 94.0383 109.944 90.3228L108.657 90.5221ZM108.387 101.763L107.09 101.639C106.633 106.425 104.21 110.497 101.346 113.862L102.338 114.707L103.33 115.551C106.372 111.976 109.156 107.414 109.683 101.887L108.387 101.763ZM102.338 114.707L101.346 113.862C98.666 117.01 95.5936 119.549 93.3981 121.465L94.2548 122.447L95.1114 123.428C97.2392 121.571 100.494 118.883 103.33 115.551L102.338 114.707ZM94.2548 122.447H92.952V130.965H94.2548H95.5575V122.447H94.2548ZM94.2548 130.965V129.663H94.2274V130.965V132.268H94.2548V130.965ZM94.2274 130.965H92.9247V144.379H94.2274H95.5301V130.965H94.2274ZM94.2274 144.379H92.9247C92.9247 157.171 82.5551 167.54 69.7635 167.541L69.7635 168.843L69.7636 170.146C83.994 170.146 95.5301 158.61 95.5301 144.379H94.2274ZM69.7635 168.843V167.541H48.9686V168.843V170.146H69.7635V168.843ZM48.9686 168.843L48.9686 167.541C36.177 167.541 25.8075 157.171 25.8075 144.379H24.5048H23.202C23.202 158.61 34.738 170.146 48.9686 170.146L48.9686 168.843ZM24.5048 144.379H25.8075V129.089H24.5048H23.202V144.379H24.5048ZM24.5048 129.089V130.392H24.6229V129.089V127.787H24.5048V129.089ZM24.6229 129.089H25.9256V122.447H24.6229H23.3202V129.089H24.6229ZM24.6229 122.447L25.4796 121.465C23.284 119.549 20.2117 117.01 17.5319 113.862L16.5399 114.707L15.5479 115.551C18.384 118.883 21.6385 121.571 23.7663 123.428L24.6229 122.447ZM16.5399 114.707L17.5319 113.862C14.6676 110.497 12.2447 106.425 11.7879 101.639L10.4911 101.763L9.19426 101.887C9.72184 107.414 12.5052 111.976 15.5479 115.551L16.5399 114.707ZM10.4911 101.763L11.7879 101.64C11.4431 98.0263 10.9946 94.0381 11.508 90.7213L10.2206 90.5221L8.93319 90.3228C8.35817 94.0383 8.8627 98.4126 9.19426 101.887L10.4911 101.763ZM10.2206 90.5221L11.508 90.7214C11.7646 89.0639 12.2614 87.5758 13.1284 86.3876L12.076 85.6197L11.0237 84.8519C9.82861 86.4897 9.22775 88.4203 8.9332 90.3228L10.2206 90.5221ZM12.076 85.6197L13.1283 86.3877C13.9948 85.2005 15.2337 84.3091 16.9788 83.8456L16.6444 82.5865L16.31 81.3275C14.0114 81.938 12.2562 83.1631 11.0238 84.8517L12.076 85.6197Z" fill="#F59313" mask="url(#path-8-inside-2_138_1836)"/>
<path d="M57.6999 124.699C42.0398 124.177 33.9019 108.89 32.2344 101.713L86.8944 100.741C79.9343 121.273 64.2974 125.279 57.6999 124.699Z" fill="#FF8F57" stroke="#F15B2C" stroke-width="1.30501" stroke-linecap="round"/>
<path d="M57.6989 123.395C42.0388 122.873 33.3266 107.544 32.7192 99.8913L86.529 99.5269C79.3624 122.241 64.2964 123.975 57.6989 123.395Z" fill="#FF8F57"/>
<path d="M65.0146 62.8311C69.0089 62.8311 72.2471 66.0692 72.2471 70.0635C72.247 74.0577 69.0089 77.2959 65.0146 77.2959C62.6199 77.2958 60.4978 76.131 59.1816 74.3379C57.8654 76.1307 55.7442 77.2959 53.3496 77.2959C49.3554 77.2959 46.1173 74.0577 46.1172 70.0635C46.1172 66.0692 49.3553 62.8311 53.3496 62.8311C55.744 62.8311 57.8654 63.9956 59.1816 65.7881C60.4978 63.9953 62.6201 62.8311 65.0146 62.8311Z" fill="#FDFFFB"/>
<path d="M63.7713 64.7174C63.7713 66.6586 61.278 68.4391 59.2225 68.4391C57.1671 68.4391 54.6738 66.6586 54.6738 64.7174C54.467 61.6159 57.1671 61.4092 59.2225 61.4092C61.278 61.4092 63.9781 61.4092 63.7713 64.7174Z" fill="#5E3916"/>
<circle cx="45.1515" cy="60.1686" r="2.89466" fill="#603C1F"/>
<circle cx="71.5475" cy="59.5475" r="2.89466" fill="#603C1F"/>
<ellipse cx="59.0605" cy="142.851" rx="16.2075" ry="13.1495" fill="#F8A233"/>
</svg>
